<svg data-id="10-6d7464feede3085-dog" xmlns="http://www.w3.org/2000/svg" viewBox="0 0 100 100"><g fill="none" fill-rule="evenodd"><path fill="#ff7180" d="M50 94c27.062 0 49-16.672 49-37.238S77.062 25 50 25 1 36.196 1 56.762 22.938 94 50 94z"/><path fill="#e76270" d="M44.5 60.667c18.502 0 34.797.3 34.797-9.238 0-3.014-1.83-5.846-4.834-8.311-.384-.315-6.568 4.914-6.988 4.611-.293-.21 5.187-5.955 4.878-6.16-.308-.203-7.791 5.713-8.115 5.516-.324-.197 6.512-6.506 6.173-6.696-.486-.273-8.983 6.954-9.497 6.696-1.007-.506 5.93-8.476 4.83-8.921-.655-.265-7.048 8.563-7.73 8.321-1.163-.412 3.362-9.873 2.137-10.214-1.438-.4-4.55 7.139-6.041 6.847-1.426-.28-1.23-8.395-2.674-8.567-1.18-.14-2.569 8.63-3.744 8.567-.922-.05-1.634-8.95-2.543-8.95-1.495 0-1.844 9.737-3.366 9.826-.98.057-3.131-9.558-4.111-9.464-1.526.147-1.2 9.229-2.695 9.464-1.017.16-3.869-8.55-4.858-8.35-1.402.285.56 9.931-.759 10.297-.913.253-5.132-8.796-5.992-8.504-1.515.513 2.493 9.016 1.187 9.648-.695.337-6.79-7.239-7.413-6.869-1.073.637 5.869 8.732 5.045 9.466-.613.547-9.052-6.289-9.506-5.688-.607.804 8.169 6.536 7.886 7.435-.22.699-9.567-3.454-9.567-2.699 0 .686 8.367 3.844 8.394 4.47.038.892-8.251-.777-8.161 0 .114.987 5.713 2.188 5.909 3.002.238.992-4.907 1.556-4.554 2.316.487 1.047 6.806-.484 1.77 2.55-5.036 3.033 16.889-.401 30.142-.401z"/><g fill="#404040"><path d="M55.465 68.058C62.877 65.574 67 60.93 67 55.5 67 47.492 56.112 41 42.68 41c-13.431 0-24.32 6.492-24.32 14.5 0 4.398 3.284 8.338 8.47 10.997 7.149-1.46 22.379-1.775 28.635 1.56z"/><path d="M85.903 47.42c-.404-.727-3.358-3.032-5.791-2.351-1.808.505-3.23 4.067-3.625 3.692-4.473-4.255-11.155-4.14-16.398-1.276-4.25 2.322-6.754 5.531-7.313 9.94-.141 1.11-4.627 1.692-4.518 2.961.103 1.192 1.977 4.068 5.115 4.401 1.129 4.598 4.68 4.105 6.705 6.185 2.933 3.012 6.068 5.78 6.46 6.222 3.255 3.664 8.009 4.755 12.397 2.424l1.614-.857c3.26-1.732 7.105-8.327 1.197-15-1.879-2.122-2.154-5.174-2.275-7.71.399 0 6.861-7.856 6.432-8.63z"/></g><path fill="#b64444" d="M50 24.5C20.973 24.5.5 36.898.5 56.762.5 77.639 22.687 94.5 50 94.5s49.5-16.861 49.5-37.738C99.5 36.898 79.027 24.5 50 24.5zm0 1c28.546 0 48.5 12.083 48.5 31.262C98.5 77.017 76.811 93.5 50 93.5S1.5 77.017 1.5 56.762C1.5 37.583 21.454 25.5 50 25.5z"/><path fill="#ff7180" d="M71.194 25.13c.382.238.974.55 1.776.937s1.426.719 1.87.997c.497.31.852.293 1.067-.05.095-.153.139-.342.13-.569s-.055-.357-.14-.392c-1.787-.622-3.036-1.155-3.749-1.6-.318-.2-.49-.404-.517-.616.335-.48 1.511-1.045 3.527-1.696l4.074-1.168c.528-.166.89-.407 1.09-.725.302-.484.071-.964-.692-1.44-.61-.382-1.479-.748-2.604-1.098-1.395-.43-2.223-.434-2.486-.014s-.234.729.084.928c.025.015.246.003.66-.039.498-.06.95-.06 1.355-.002a4.104 4.104 0 0 1 1.672.594c.28.175.452.353.515.534-.21.223-.968.545-2.275.966-1.938.61-3.138 1.002-3.599 1.173-1.33.514-2.145 1.013-2.447 1.496-.199.318-.208.657-.026 1.018.146.304.384.56.715.766zM59.587 15.886c.505.368 1.295.858 2.37 1.471s1.905 1.135 2.495 1.563c.657.478 1.151.49 1.482.034.147-.202.226-.46.235-.775s-.041-.5-.155-.557c-2.416-1.035-4.096-1.896-5.04-2.582-.421-.306-.64-.607-.657-.902.511-.633 2.195-1.302 5.052-2.008l5.758-1.224c.748-.178 1.275-.478 1.58-.899.466-.64.193-1.328-.818-2.063-.809-.588-1.976-1.18-3.502-1.773-1.89-.73-3.038-.817-3.442-.26s-.396.986.025 1.293c.034.024.34.028.92.01a7.148 7.148 0 0 1 1.877.13 5.701 5.701 0 0 1 2.259.984c.37.27.591.533.662.79-.313.288-1.395.661-3.247 1.118-2.745.658-4.445 1.084-5.1 1.277-1.892.583-3.07 1.194-3.536 1.835-.306.42-.352.89-.135 1.408.173.435.479.812.917 1.13zM79.135 16.37c.668.486 1.71 1.133 3.128 1.942s2.516 1.497 3.295 2.063c.867.631 1.52.646 1.956.045.194-.267.297-.608.31-1.023s-.055-.661-.204-.736c-3.19-1.366-5.407-2.502-6.653-3.407-.556-.404-.845-.802-.868-1.192.675-.835 2.898-1.718 6.67-2.65l7.6-1.616c.986-.234 1.682-.63 2.086-1.186.615-.846.254-1.753-1.08-2.724-1.068-.776-2.61-1.556-4.624-2.34-2.495-.964-4.01-1.078-4.543-.344s-.523 1.303.034 1.707c.044.033.448.038 1.213.015.918-.047 1.744.01 2.478.17a7.525 7.525 0 0 1 2.982 1.3c.49.355.78.703.874 1.043-.413.38-1.841.872-4.286 1.475-3.623.869-5.867 1.43-6.733 1.686-2.497.769-4.052 1.576-4.667 2.421-.404.556-.464 1.176-.178 1.86.228.574.632 1.071 1.21 1.492z"/><g fill="#000"><path d="M49.699 66.55c.272.1.519.22.786.32l.475.15c.107.03.214.06.321.08.328.08.652.15.966.22.502.12.981.24 1.435.38.599.18 1.152.38 1.652.6.136.08.305.02.377-.11a.28.28 0 0 0-.115-.38c-.934-.57-2.071-1.07-3.376-1.48-.23-.07-.465-.14-.708-.2a3.815 3.815 0 0 0-.481-.09 4.128 4.128 0 0 0-.611-.05c-.209-.01-.407 0-.62.01-.152-.03-.297.07-.325.22s.073.3.224.33zm-22.815-.43c2.307-.45 5.417-.78 8.787-.91 2.905-.12 6.004-.08 8.946.15.153.01.268.14.257.3a.27.27 0 0 1-.298.25c-2.921-.2-5.996-.2-8.877-.06-3.389.16-6.511.52-8.798 1-.08.01-.163 0-.235-.03-2.974-1.51-5.335-3.44-6.844-5.63-1.209-1.75-1.872-3.67-1.88-5.69-.015-3.96 2.52-7.6 6.721-10.29 4.496-2.89 10.904-4.69 18.017-4.71 3.594.03 7.007.5 10.075 1.36 3.605 1.01 6.731 2.54 9.141 4.4a.28.28 0 0 1 .056.39.286.286 0 0 1-.391.06c-2.4-1.75-5.495-3.12-9.026-4.03a38.615 38.615 0 0 0-9.855-1.18c-6.908-.02-13.136 1.71-17.517 4.49-3.928 2.49-6.37 5.82-6.383 9.51-.009 2.29.918 4.45 2.555 6.37 1.386 1.62 3.277 3.06 5.549 4.25z"/><path d="M26.983 66.39c-4.765-2.003-7.861-6.3-8.315-9.2-.454-2.901.314-5.156 1.583-7.19a9.112 9.112 0 0 1 3.346-3.191c.585-.68.634-1.019.149-1.019-3.028 0-6.087 2.19-7.748 5.27-1.029 1.91-1.52 4.15-1.147 6.37.399 2.37 1.757 4.75 4.538 6.64 1.007.68 2.204 1.3 3.608 1.82 1.144.42 2.429.76 3.857 1.04.15.04.3-.06.336-.21a.27.27 0 0 0-.207-.33zM85.417 48.12s-.295.26-.75.73a18.89 18.89 0 0 0-1.23 1.41c-.244.31-.492.65-.747 1-1.286 1.77-2.7 3.88-3.417 5.25a.277.277 0 0 0 .106.38c.134.08.305.03.38-.1.742-1.22 2.154-3.02 3.437-4.62.379-.48.751-.93 1.08-1.36.159-.21.307-.41.443-.6a26.326 26.326 0 0 0 1.131-1.74.276.276 0 0 0-.04-.39.277.277 0 0 0-.393.04z"/><path d="M76.964 49.34c.771-.52 1.378-1.27 1.92-1.96.39-.49.739-.95 1.105-1.23.206-.16.415-.25.654-.18.82.21 1.934.88 3.136 1.64 1.618 1.02 3.379 2.23 4.733 2.95.801.43 1.485.68 1.946.69.328 0 .582-.11.763-.29.246-.25.333-.59.214-1.02-.153-.55-.734-1.32-1.555-2.12-1.743-1.71-4.544-3.66-5.865-4.17-.683-.26-1.951-.16-3.386.17-3.144.71-7.152 2.37-7.152 2.37a.275.275 0 0 0-.155.36c.058.14 3.517 2.88 3.642 2.79zM53.103 65.12a3.74 3.74 0 0 1-1.157-.31 5.04 5.04 0 0 1-1.21-.76.29.29 0 0 1-.05-.4.284.284 0 0 1 .391-.05c.37.27.742.46 1.114.59a3.1 3.1 0 0 0 1.194.19c.162 0 .306.11.357.26.503 1.4 1.182 2.28 1.93 2.92.73.61 1.531 1 2.308 1.39.89.44 1.747.91 2.468 1.65.848.88 1.715 1.74 2.524 2.53 1.982 1.93 3.631 3.43 3.908 3.75 1.741 1.99 3.768 3.44 6.339 3.66 2.034.17 4.396-.42 7.21-2.05.132-.08.303-.04.382.09s.036.31-.096.38c-2.926 1.79-5.406 2.43-7.55 2.29-2.78-.18-5.01-1.68-6.93-3.8-.278-.31-1.935-1.76-3.919-3.64a116.77 116.77 0 0 1-2.575-2.52c-.645-.66-1.422-1.05-2.212-1.46-.842-.43-1.704-.87-2.475-1.57-.777-.71-1.465-1.67-1.951-3.14z"/><path d="M80.378 78.33c.805-.45 1.638-1.21 2.335-2.2a8.984 8.984 0 0 0 1.616-4.59c.137-2.27-.613-4.88-2.929-7.5-.882-1-1.433-2.2-1.777-3.45-.571-2.09-.569-4.34-.657-6.1-.051-1.01-.115-1.84-.389-2.34-1.933-3.52-4.873-5.45-8.093-6.11-3.383-.7-7.07 0-10.231 1.7-1.528.83-2.828 1.77-3.89 2.84-1.155 1.17-2.029 2.5-2.606 4a.282.282 0 0 1-.36.17.283.283 0 0 1-.162-.36c.589-1.59 1.491-2.99 2.691-4.23 1.091-1.13 2.431-2.12 4.009-3 3.293-1.82 7.15-2.57 10.701-1.88 3.445.68 6.605 2.71 8.704 6.44.324.58.45 1.55.519 2.72.099 1.7.105 3.88.672 5.9.314 1.11.803 2.17 1.593 3.06 2.542 2.86 3.357 5.71 3.2 8.2a9.753 9.753 0 0 1-1.837 5.08c-.808 1.12-1.783 1.96-2.707 2.44l-.039.02c-2.373.93-4.411 1.25-6.112.95-1.442-.26-2.647-.94-3.611-2.07a.287.287 0 0 1 .024-.4c.115-.1.291-.09.393.03a5.426 5.426 0 0 0 3.306 1.74c1.587.22 3.463-.14 5.637-1.06z"/><path d="M41.611 59.06c-.122.56.165 1.52.714 2.68 1.31 2.77 4.056 6.8 5.132 9.14.087.19.306.27.495.19.475-.2.918-.87 1.314-1.87.732-1.86 1.448-4.93 2.758-7.6.588-1.21 1.344-2.32 2.075-3.25 1.347-1.73 2.613-2.85 2.613-2.85a.488.488 0 0 0 .144-.5.482.482 0 0 0-.393-.35s-2.61-.45-5.244-.41c-1.272.01-2.547.14-3.549.46-1.61.52-3.078 1.13-4.159 1.86-1.038.71-1.727 1.54-1.9 2.5zM83.27 71.59c-.725-.022-1.337-.267-1.602-.767-.26-.489-.093-1.078.306-1.633.35-.478.895-.923 1.573-1.245.625-.3 1.145-.4 1.579-.333.496.077.846.41 1.097.855.283.456.415.956.244 1.434-.15.433-.488.855-1.117 1.244-.958.319-1.65.467-2.08.445zM71.086 77.81s.142.49.577 1.09c.213.3.502.61.87.88.58.44 1.361.78 2.316.88 1.202.13 2.711-.14 4.545-1.2.136-.08.187-.24.115-.38s-.241-.19-.377-.12c-1.721.84-3.086.99-4.16.8a4.39 4.39 0 0 1-1.586-.6 7.677 7.677 0 0 1-.603-.42c-.245-.2-.455-.38-.628-.55-.362-.36-.566-.62-.566-.62-.066-.14-.233-.2-.372-.13s-.197.23-.131.37zM33.237 65.88c.479-.02.977-.12 1.462-.32a4.33 4.33 0 0 0 1.291-.79c.776-.68 1.316-1.63 1.421-2.7.142-1.45-.526-3.21-2.73-5.01a.285.285 0 0 0-.393.02c-.101.12-.089.3.027.4 1.825 1.69 2.379 3.22 2.196 4.48-.122.83-.598 1.52-1.188 2.07-.311.29-.648.55-1.004.76-.388.23-.773.43-1.172.54-.152.03-.255.17-.23.32s.168.26.32.23zM78.238 62.1s.069.11.279.27c.086.07.194.13.327.17.209.07.467.08.733.07.468-.03.967-.16 1.39-.53.129-.08.084-.22 0-.34-.083-.13-.174-.21-.303-.13-.21.1-.42.12-.626.13-.155 0-.302-.02-.445-.04-.16-.03-.306-.08-.442-.11-.042-.01-.082-.02-.122-.02-.07-.01-.132-.01-.192-.01-.234 0-.348.04-.348.04a.275.275 0 0 0-.375.12.286.286 0 0 0 .124.38zM70.442 67.21s.227.06.619.04c.176 0 .378-.03.595-.1.35-.1.725-.29 1.085-.54.62-.43 1.19-1.05 1.459-1.93a.288.288 0 0 0-.158-.37.288.288 0 0 0-.361.16c-.258.53-.652.89-1.067 1.16-.296.2-.611.33-.903.45-.143.05-.283.1-.41.15-.174.07-.323.14-.455.2-.295.13-.456.23-.456.23a.276.276 0 0 0-.252.3c.015.15.151.26.304.25z"/></g></g></svg>