<svg data-id="102-0b6f99a40b4f87d-cry" xmlns="http://www.w3.org/2000/svg" viewBox="0 0 100 100"><g fill="none" fill-rule="evenodd"><path fill="#a9c0dd" d="M59.639 80.732c9.525-2.45 26.185-10.617 34.31 4.701-9.21 11.673-26.965 5.698-34.518-2.682z"/><path fill="#fff" d="M86.84 78.008c2.45 1.273 4.71 3.201 7.099 7.187-2.771 3.956-6.382 5.185-9.412 6.175-1.263.412-3.326.297-7.367-4.988 4.561 1.504 7.006-2.042 7.006-2.042s-5.687-.17-7.48-3.132c2.069-.195 8.15 1.135 10.153-3.2z"/><path fill="#a9c0dd" d="m45.899 58-1.769 1.511c-3.849 3.29-7.326 8.18-8.202 14.649S39.803 86 46.683 86h6.198c6.867 0 11.92-4.937 10.783-11.647-1.138-6.709-4.378-11.55-8.23-14.842L53.665 58z"/><path fill="#fff" d="M49.824 85.5c3.783 0 6-.786 6-5.227 0-1.656-.374-3.53-1.014-5.23-2.868-.845-.974-2.192-1.608-3.054-.962-1.31-2.125-2.17-3.378-2.17-3.314 0-6 6.013-6 10.454s2.217 5.227 6 5.227z"/><path fill="#a9c0dd" d="M49.861 17.974c4.142 0 7.884.298 11.243.855 7.48-.102 23.572-.035 34.523 2.087-.785 8.493-8.754 11.44-12.294 12.337 1.056 2.517 1.565 5.239 1.565 8.079 0 12.9-10.496 23.358-35.037 23.358S14.824 54.232 14.824 41.332c0-2.835.507-5.552 1.558-8.066-3.484-.88-11.467-3.815-12.256-12.35 10.974-2.127 27.057-2.19 34.489-2.085 3.359-.559 7.102-.857 11.246-.857z"/><path fill="#fff" d="M49.824 64.2c11.947 0 25-2.977 25-8.5s-10.273-12-25-12-25 6.477-25 12 13.053 8.5 25 8.5z"/><path fill="#ffe5cd" d="M5.565 22.153c4.738-.88 11.369.217 18.079 2.3-3.081 2.167-5.313 4.787-6.761 7.715-3.324-.824-8.91-3.202-11.318-10.015zm88.17.26c-2.294 6.486-7.525 8.844-10.925 9.7-1.469-2.949-3.736-5.583-6.866-7.756 5.06-1.403 9.897-1.841 17.79-1.945z"/><path fill="#ffc2c2" d="M49.888 63.301c3.866 0 6.89-1.584 6.89-3.517 0-1.933-3.088-3.518-6.954-3.518s-7.042 1.585-7.042 3.518c0 1.933 3.24 3.517 7.106 3.517z"/><path fill="#3ec3f7" d="M70.265 64.767a3.307 3.307 0 0 0 1.37-4.472c-1.005-1.89-5.662-3.609-5.662-3.609s-1.184 4.82-.18 6.712a3.307 3.307 0 0 0 4.472 1.369z"/><path fill="#fff" fill-opacity=".3" d="M66.108 56.917s1.996.737 3.657 1.776a2.423 2.423 0 0 1-4.305 2.225l.069.119c.055-1.985.579-4.12.579-4.12z"/><path fill="#3ec3f7" d="M82.508 69.179a3.307 3.307 0 0 0-.245-4.67c-1.59-1.433-6.554-1.453-6.554-1.453s.538 4.935 2.129 6.367a3.307 3.307 0 0 0 4.67-.244z"/><path fill="#fff" fill-opacity=".3" d="M75.916 63.227s2.127.008 4.043.416a2.423 2.423 0 0 1-3.282 3.564l.105.089c-.628-1.884-.866-4.069-.866-4.069z"/><path fill="#3ec3f7" d="M71.582 76.836a3.307 3.307 0 0 0 2.266-4.091c-.591-2.058-4.792-4.703-4.792-4.703s-2.156 4.47-1.565 6.529a3.307 3.307 0 0 0 4.091 2.265z"/><path fill="#fff" fill-opacity=".3" d="M69.141 68.296s1.8 1.134 3.21 2.495a2.423 2.423 0 0 1-4.672 1.285l.042.13c.465-1.93 1.42-3.91 1.42-3.91z"/><path fill="#3ec3f7" d="M82.502 82.979a3.307 3.307 0 0 0 2.266-4.092c-.591-2.058-4.791-4.703-4.791-4.703s-2.157 4.471-1.566 6.53a3.307 3.307 0 0 0 4.091 2.265z"/><path fill="#fff" fill-opacity=".3" d="M80.062 74.44s1.8 1.134 3.21 2.494a2.423 2.423 0 0 1-4.671 1.285l.042.131c.465-1.93 1.42-3.91 1.42-3.91z"/><path fill="#3ec3f7" d="M29.503 63.75a3.307 3.307 0 0 1-1.37-4.472c1.005-1.89 5.662-3.609 5.662-3.609s1.184 4.82.18 6.712a3.307 3.307 0 0 1-4.472 1.37z"/><path fill="#fff" fill-opacity=".3" d="M33.659 55.9s-1.996.737-3.657 1.776a2.423 2.423 0 0 0 4.304 2.225l-.068.12c-.055-1.986-.58-4.12-.58-4.12z"/><path fill="#3ec3f7" d="M17.25 68.17a3.307 3.307 0 0 1 .245-4.67c1.591-1.433 6.555-1.452 6.555-1.452s-.538 4.934-2.13 6.367a3.307 3.307 0 0 1-4.67-.245z"/><path fill="#fff" fill-opacity=".3" d="M23.842 62.219s-2.127.008-4.043.416A2.423 2.423 0 0 0 23.08 66.2l-.105.089c.628-1.884.866-4.069.866-4.069z"/><path fill="#3ec3f7" d="M28.173 75.852a3.307 3.307 0 0 1-2.265-4.092c.59-2.058 4.791-4.703 4.791-4.703s2.157 4.47 1.566 6.53a3.307 3.307 0 0 1-4.092 2.265z"/><path fill="#fff" fill-opacity=".3" d="M30.614 67.312s-1.8 1.133-3.21 2.494a2.423 2.423 0 0 0 4.672 1.285l-.042.13c-.465-1.93-1.42-3.91-1.42-3.91z"/><path fill="#3ec3f7" d="M17.247 82.003a3.307 3.307 0 0 1-2.266-4.092c.591-2.058 4.792-4.703 4.792-4.703s2.156 4.471 1.565 6.53a3.307 3.307 0 0 1-4.091 2.265z"/><path fill="#fff" fill-opacity=".3" d="M19.688 73.462s-1.8 1.133-3.21 2.494a2.423 2.423 0 0 0 4.671 1.285l-.042.131c-.465-1.931-1.42-3.91-1.42-3.91z"/><g fill="#414e62"><path d="m65.737 62.43.35 1.475c-1.71.453-3.54.828-5.492 1.118.275.42.54.855.794 1.303 1.337 2.365 2.366 5.111 2.943 8.272.31 1.71.234 3.315-.161 4.766 2.04-.716 4.247-1.48 6.532-2.108 1.877-.517 3.806-.936 5.732-1.165a25.658 25.658 0 0 1 3.103-.187l-.537 1.497c-.804-.006-1.613.03-2.425.096-1.873.155-3.755.477-5.6.876-2.468.533-4.862 1.201-7.063 1.795a9.711 9.711 0 0 1-2.13 3.392c-.173.18-.352.353-.539.52 3.906 3.489 9.573 6.35 15.346 7.227 6.089.926 12.31-.367 16.613-5.655-1.602-2.823-3.517-4.757-5.62-6.043a14.12 14.12 0 0 0-3.35-1.484l-1.185-1.906c1.874.341 3.683.993 5.368 2.036 2.398 1.484 4.546 3.773 6.293 7.13a.721.721 0 0 1-.071.786c-3.805 4.707-8.931 6.552-14.235 6.48-7.212-.097-14.734-3.747-19.496-8.283-2.024 1.67-4.769 2.653-7.874 2.684l-6.197.052c-3.626.01-6.71-1.376-8.777-3.624-2.137-2.324-3.19-5.563-2.678-9.083.49-3.12 1.544-5.877 2.977-8.249.257-.425.526-.839.805-1.24a48.599 48.599 0 0 1-6.115-1.366l.971-1.073c4.457 1.208 9.768 1.864 15.994 1.84 6.11-.017 11.332-.684 15.724-1.88zm-25.532 2.638-.044.069c-.312.493-.61 1.004-.891 1.53-1.236 2.313-2.152 4.948-2.491 7.92-.382 3.051.585 5.816 2.447 7.812 1.808 1.937 4.464 3.153 7.61 3.161h.061l6.136.052c3.184.032 5.969-1.055 7.853-2.933 1.94-1.934 2.92-4.697 2.414-7.906-.48-3.062-1.407-5.735-2.638-8.048a23.58 23.58 0 0 0-.922-1.582c-2.965.397-6.204.602-9.727.593-3.558-.014-6.824-.245-9.808-.668zm20.828-46.682c4.636-.166 12.722-.085 20.885.317 4.89.24 9.852.854 14.014 1.626a.66.66 0 0 1 .533.71c-.332 3.854-2.077 6.667-4.255 8.701-2.503 2.34-5.587 3.635-7.718 4.308.407 1.08.72 2.193.942 3.335.27 1.39.402 2.82.405 4.281 0 6.598-2.636 12.59-8.37 16.954-1.526 1.162-3.274 2.208-5.254 3.118l-.65-1.413c1.86-.868 3.505-1.861 4.944-2.963 5.298-4.056 7.752-9.587 7.752-15.696a21.27 21.27 0 0 0-.358-3.989 18.97 18.97 0 0 0-1.134-3.824.767.767 0 0 1 .017-.63.769.769 0 0 1 .486-.403c1.945-.52 5.292-1.7 7.958-4.138 1.86-1.7 3.389-4.019 3.845-7.17-3.967-.762-8.565-1.468-13.157-1.783-8.14-.558-16.267-.35-20.885-.289l-.058-.004c-.861-.15-5.893-1.027-10.962-1.048-5.045-.021-10.127.813-10.985.956l-.04.003c-4.607-.092-12.764-.139-20.938.382-4.71.3-9.427.79-13.47 1.567.417 3.367 2.016 5.827 3.977 7.615 2.729 2.486 6.156 3.677 8.115 4.194a.482.482 0 0 1 .321.655 19.321 19.321 0 0 0-1.143 3.874 21.56 21.56 0 0 0-.352 4.032c.027 6.18 2.525 11.771 7.907 15.845a26.402 26.402 0 0 0 4.615 2.776l-.293 1.246c-1.901-.9-3.584-1.927-5.056-3.06-5.65-4.35-8.245-10.279-8.216-16.807.006-1.44.14-2.85.407-4.22.237-1.22.58-2.409 1.03-3.557-2.094-.628-5.325-1.912-7.93-4.332-2.145-1.994-3.871-4.752-4.203-8.54a.395.395 0 0 1 .317-.423c4.156-.784 9.088-1.626 13.974-1.889 8.186-.44 16.318-.138 20.938 0 .869-.135 5.79-1.236 10.9-1.258 5.056-.022 10.284.814 11.145.94z"/><path d="M50.037 17.974c.987 0 1.95.017 2.892.05.047.798.07 1.626.07 2.476 0 6.352-1.343 11.5-3 11.5-1.656 0-3-5.148-3-11.5 0-.849.025-1.676.07-2.473a82.317 82.317 0 0 1 2.968-.053zm-4.046.1c.006.305.009.614.009.926 0 5.523-.896 10-2 10s-2-4.477-2-10c0-.205 0-.408.003-.61a68.592 68.592 0 0 1 3.767-.304zm8.018-.004c1.379.069 2.707.173 3.987.312l.002.282L58 19c0 5.523-.896 10-2 10s-2-4.477-2-10c0-.225.001-.449.004-.67zM40.387 66.332c-.452.612-.761 1.403-.925 2.305a6.637 6.637 0 0 0-.096 1.073 8.068 8.068 0 0 0 .263 2.148c.128.487.312.951.534 1.377.246.471.546.894.886 1.248.909.947 2.083 1.456 3.46 1.173 1.015-.219 1.56-.62 1.82-1.12.153-.288.232-.607.222-.96-.018-.675-.323-1.483-.645-2.322-.404-1.055-.824-2.16-.388-3.1a.161.161 0 0 0-.283-.155c-.521.83-.41 1.875-.18 2.922.212.953.538 1.895.475 2.624-.044.491-.392.757-1.224.847-.884.104-1.572-.313-2.108-.946a5.184 5.184 0 0 1-.62-.952 8.759 8.759 0 0 1-.472-1.093 10.704 10.704 0 0 1-.475-1.783c-.133-.768-.203-1.507-.131-2.192.035-.339.077-.65.172-.944.04-.079.01-.177-.068-.218s-.176-.01-.217.068zM58.524 66.407c.095.294.137.604.173.944.07.685 0 1.424-.132 2.192a10.664 10.664 0 0 1-.474 1.782 8.713 8.713 0 0 1-.474 1.094 5.232 5.232 0 0 1-.618.952c-.537.633-1.225 1.05-2.11.945-.83-.089-1.18-.355-1.222-.847-.064-.729.262-1.67.473-2.624.23-1.046.342-2.092-.178-2.92a.161.161 0 0 0-.284.153c.436.94.016 2.046-.388 3.101-.321.84-.626 1.647-.645 2.322-.01.353.07.672.22.96.263.5.807.901 1.82 1.12 1.38.283 2.554-.226 3.463-1.173.34-.355.639-.778.885-1.248.223-.426.407-.89.534-1.377a8.027 8.027 0 0 0 .263-2.148 6.637 6.637 0 0 0-.095-1.073c-.165-.902-.474-1.693-.925-2.305a.162.162 0 0 0-.286.15zM72.425 54.985s.11.1.357.28c.215.154.485.344.859.572a8.442 8.442 0 0 0 1.286.641c.24.094.495.178.755.256.378.111.769.203 1.16.297.628.15 1.246.281 1.827.404 1.557.327 2.756.55 2.756.55a.162.162 0 0 0 .102-.306s-1.093-.54-2.535-1.214a70.958 70.958 0 0 0-1.703-.772c-.37-.16-.738-.322-1.107-.459a8.083 8.083 0 0 0-1.454-.407 8.581 8.581 0 0 0-.717-.1 12.724 12.724 0 0 0-1.031-.057c-.305-.005-.453.01-.453.01a.162.162 0 0 0-.204.101.162.162 0 0 0 .102.204zM72.383 57.963s.062.117.226.348c.142.2.317.44.577.747a7.153 7.153 0 0 0 .933.914c.182.147.38.287.586.423.298.197.614.378.93.561.509.293 1.012.566 1.486.822 1.275.686 2.262 1.185 2.262 1.185a.161.161 0 0 0 .187-.262s-.792-.772-1.855-1.755a57.293 57.293 0 0 0-1.26-1.138c-.275-.24-.55-.48-.831-.699a7.98 7.98 0 0 0-.59-.417 6.99 6.99 0 0 0-1.168-.586 10.284 10.284 0 0 0-.893-.304c-.272-.08-.403-.1-.403-.1a.16.16 0 1 0-.187.262zM27.425 54.68s-.147-.015-.453-.01c-.264.005-.595.015-1.031.057a8.503 8.503 0 0 0-1.414.258 9.82 9.82 0 0 0-.757.25c-.37.136-.737.297-1.107.458-.591.256-1.165.522-1.702.772-1.443.673-2.536 1.214-2.536 1.214a.162.162 0 0 0 .102.306s1.199-.223 2.757-.55c.58-.123 1.198-.255 1.825-.404.393-.094.784-.186 1.16-.297.262-.078.516-.162.756-.256.232-.09.448-.189.653-.29.234-.118.439-.233.633-.35.374-.229.644-.419.859-.574.248-.179.357-.279.357-.279a.161.161 0 1 0-.102-.306zM58.574 52.96c.162-.058.304-.096.463-.15.362-.126.69-.22 1.04-.328.248-.076.483-.14.722-.216.239-.074.474-.14.705-.217.382-.127.753-.255 1.118-.366a17.836 17.836 0 0 1 1.734-.456c2.302-.454 4.08-.239 4.08-.239a.161.161 0 0 0 .08-.312s-1.581-.625-3.844-.683a10.58 10.58 0 0 0-2.651.241 6.148 6.148 0 0 0-1.07.341 5.865 5.865 0 0 0-.986.545 5.33 5.33 0 0 0-.708.56 7.937 7.937 0 0 0-.88 1.024.162.162 0 0 0-.03.226c.055.07.157.084.227.03zM41.574 52.702a7.86 7.86 0 0 0-.88-1.025 5.413 5.413 0 0 0-.707-.559 5.93 5.93 0 0 0-.986-.544 6.06 6.06 0 0 0-1.07-.34 10.534 10.534 0 0 0-2.651-.24c-2.262.058-3.844.682-3.844.682a.161.161 0 0 0 .08.312s1.778-.215 4.08.238c.556.11 1.13.273 1.735.457.365.111.735.238 1.118.365.23.076.465.143.705.217.239.075.474.14.72.216.35.108.679.201 1.04.326.16.055.302.093.464.151a.161.161 0 1 0 .196-.256zM27.383 57.701s-.131.021-.404.101c-.233.07-.517.157-.893.304a6.842 6.842 0 0 0-1.757 1.003c-.283.218-.557.46-.833.7-.441.384-.863.771-1.26 1.137a105.447 105.447 0 0 0-1.853 1.755.16.16 0 1 0 .187.262s.986-.499 2.26-1.185a56.89 56.89 0 0 0 1.486-.822c.317-.183.633-.364.932-.56.205-.137.403-.277.586-.424a6.877 6.877 0 0 0 .932-.914c.26-.308.436-.548.577-.747.164-.23.227-.348.227-.348a.161.161 0 0 0 .037-.225.16.16 0 0 0-.224-.037zM49.976 63.493c1.975.071 3.773-.273 5.093-.874 1.47-.668 2.33-1.688 2.369-2.787.037-1.127-.808-2.208-2.268-2.99-1.32-.707-3.155-1.166-5.194-1.223-2.06-.035-3.938.351-5.296 1.02-.656.322-1.195.714-1.591 1.142-.577.623-.875 1.326-.856 2.051.015.461.139.91.4 1.322.417.657 1.146 1.261 2.143 1.68.999.42 2.25.693 3.643.726.506.011 1.023-.014 1.557-.067zm0-.322a15.425 15.425 0 0 1-1.488-.233c-1.247-.25-2.335-.652-3.191-1.15-.475-.277-.863-.586-1.151-.917-.282-.324-.441-.673-.427-1.039.008-.279.145-.532.338-.775.3-.378.765-.702 1.336-.989 1.176-.593 2.789-.993 4.583-1.023 1.817-.05 3.474.26 4.685.82 1.083.498 1.827 1.155 1.853 1.967.029.838-.67 1.583-1.752 2.171-1.215.66-2.904 1.1-4.786 1.168z"/></g><path fill="#009ec9" d="M70.453 64.933a3.532 3.532 0 0 0 2-1.953c.392-.925.34-1.997-.087-2.993-.238-.502-.677-1.01-1.235-1.479a8.643 8.643 0 0 0-.953-.689 15.883 15.883 0 0 0-1.884-1c-1.088-.494-1.967-.777-1.967-.777a.71.71 0 0 0-.938.5s-.452 2.163-.432 4.193c.01 1.121.165 2.196.574 2.886a3.653 3.653 0 0 0 2.24 1.695 3.52 3.52 0 0 0 2.682-.383zm-3.89-7.23c-.18.755-.421 1.928-.508 3.07-.072.934-.065 1.845.222 2.452a2.943 2.943 0 0 0 1.667 1.526 3.073 3.073 0 0 0 2.358-.103c.685-.482 1.07-1.19 1.22-1.953a2.77 2.77 0 0 0-.398-2.047c-.163-.275-.445-.52-.763-.773a11.3 11.3 0 0 0-1.03-.705c-.98-.614-2.07-1.147-2.768-1.468zM82.739 69.34c.769-.666 1.163-1.58 1.212-2.52.05-1.004-.364-1.993-1.106-2.783-.396-.39-.982-.717-1.667-.968a8.578 8.578 0 0 0-1.13-.32 15.823 15.823 0 0 0-2.113-.296c-1.191-.093-2.114-.058-2.114-.058a.712.712 0 0 0-.711.79s.315 2.188 1.029 4.09c.393 1.048.906 2.006 1.526 2.515a3.65 3.65 0 0 0 2.685.825 3.514 3.514 0 0 0 2.389-1.276zm-6.13-5.466c.09.772.266 1.957.574 3.06.252.902.57 1.756 1.048 2.228a2.943 2.943 0 0 0 2.088.864c.79-.002 1.578-.3 2.18-.903.479-.687.6-1.486.479-2.253a2.775 2.775 0 0 0-1.074-1.788c-.247-.202-.596-.336-.982-.465-.373-.125-.787-.22-1.21-.31-1.13-.242-2.336-.37-3.102-.433zM71.716 77.087a3.528 3.528 0 0 0 2.362-1.494c.576-.823.748-1.882.537-2.945-.13-.54-.453-1.129-.901-1.705a8.587 8.587 0 0 0-.788-.87 15.94 15.94 0 0 0-1.635-1.37c-.962-.71-1.762-1.17-1.762-1.17a.711.711 0 0 0-1.022.293s-.892 2.023-1.295 4.013c-.222 1.098-.295 2.182-.038 2.942a3.65 3.65 0 0 0 1.839 2.123 3.519 3.519 0 0 0 2.703.183zm-2.302-7.882c-.333.703-.813 1.8-1.135 2.898-.265.9-.448 1.792-.293 2.445.187.795.67 1.44 1.313 1.84a3.078 3.078 0 0 0 2.328.39c.77-.33 1.296-.943 1.599-1.657.274-.644.305-1.38.037-2.086-.102-.302-.327-.6-.586-.914-.25-.304-.551-.604-.861-.904-.831-.804-1.786-1.552-2.402-2.012zM82.637 83.236c1.004-.156 1.823-.722 2.363-1.495.575-.823.747-1.882.536-2.945-.128-.54-.452-1.128-.9-1.704a8.717 8.717 0 0 0-.79-.872 15.84 15.84 0 0 0-1.634-1.369c-.961-.71-1.762-1.17-1.762-1.17a.712.712 0 0 0-1.022.293s-.892 2.024-1.294 4.013c-.222 1.1-.295 2.183-.04 2.943.328.96.996 1.71 1.84 2.123a3.52 3.52 0 0 0 2.703.183zm-2.302-7.882c-.333.702-.813 1.8-1.135 2.897-.265.9-.447 1.793-.292 2.446.186.795.67 1.44 1.312 1.84a3.07 3.07 0 0 0 2.328.39c.77-.33 1.296-.944 1.6-1.658a2.77 2.77 0 0 0 .036-2.085c-.102-.303-.327-.6-.585-.915a11.256 11.256 0 0 0-.862-.903c-.831-.805-1.786-1.553-2.402-2.012zM29.5 63.933a3.519 3.519 0 0 0 2.68.383 3.65 3.65 0 0 0 2.24-1.695c.41-.69.564-1.765.576-2.886.02-2.03-.432-4.194-.432-4.194a.71.71 0 0 0-.939-.499s-.88.283-1.967.777a16.04 16.04 0 0 0-1.884 1 8.725 8.725 0 0 0-.952.69c-.558.468-.997.976-1.235 1.478-.428.996-.48 2.068-.088 2.993.368.867 1.05 1.591 2 1.953zm3.89-7.23c-.698.32-1.788.853-2.768 1.467a11.3 11.3 0 0 0-1.03.705c-.32.253-.601.498-.764.773a2.775 2.775 0 0 0-.397 2.047c.148.762.535 1.471 1.22 1.953a3.073 3.073 0 0 0 2.358.103 2.941 2.941 0 0 0 1.666-1.526c.288-.607.294-1.518.223-2.453-.087-1.14-.33-2.314-.508-3.07zM17.214 68.34a3.51 3.51 0 0 0 2.389 1.275 3.647 3.647 0 0 0 2.684-.825c.62-.509 1.133-1.467 1.527-2.516.713-1.9 1.029-4.09 1.029-4.09a.713.713 0 0 0-.712-.789s-.922-.035-2.114.058c-.66.051-1.402.14-2.112.295a8.593 8.593 0 0 0-1.131.321c-.685.251-1.271.578-1.666.968-.743.79-1.158 1.78-1.106 2.782a3.531 3.531 0 0 0 1.212 2.52zm6.129-5.466c-.767.063-1.973.191-3.104.433-.422.09-.835.185-1.21.31-.385.13-.733.263-.98.465a2.775 2.775 0 0 0-1.074 1.788c-.121.767-.001 1.566.478 2.253.602.603 1.39.901 2.18.903a2.945 2.945 0 0 0 2.089-.864c.477-.472.795-1.326 1.048-2.229.308-1.102.482-2.287.573-3.059zM28.237 76.087a3.52 3.52 0 0 0 2.703-.183 3.654 3.654 0 0 0 1.839-2.123c.256-.76.183-1.844-.04-2.942-.401-1.99-1.293-4.013-1.293-4.013a.709.709 0 0 0-1.022-.293s-.801.46-1.762 1.17c-.533.392-1.115.861-1.635 1.37a8.6 8.6 0 0 0-.79.87c-.447.576-.771 1.164-.9 1.705-.211 1.063-.038 2.122.537 2.945.54.772 1.358 1.338 2.363 1.494zm2.302-7.882c-.617.46-1.572 1.208-2.403 2.012-.31.3-.61.6-.861.904-.26.314-.483.612-.585.914a2.773 2.773 0 0 0 .036 2.086c.304.714.83 1.327 1.6 1.657.83.192 1.656.027 2.327-.39a2.944 2.944 0 0 0 1.313-1.84c.155-.653-.028-1.545-.292-2.445-.322-1.098-.803-2.195-1.135-2.898zM17.316 82.236a3.517 3.517 0 0 0 2.702-.183 3.65 3.65 0 0 0 1.839-2.123c.257-.76.184-1.844-.038-2.943-.402-1.989-1.295-4.013-1.295-4.013a.71.71 0 0 0-1.021-.293s-.801.46-1.763 1.17c-.532.393-1.114.862-1.635 1.37a8.828 8.828 0 0 0-.788.871c-.448.576-.772 1.163-.901 1.704-.211 1.063-.04 2.122.537 2.945.54.773 1.358 1.34 2.363 1.495zm2.3-7.882c-.615.46-1.57 1.207-2.401 2.012-.31.3-.611.6-.861.903-.26.314-.483.612-.586.915a2.775 2.775 0 0 0 .037 2.085c.304.714.829 1.328 1.599 1.657a3.07 3.07 0 0 0 2.328-.39 2.939 2.939 0 0 0 1.313-1.839c.155-.653-.028-1.546-.292-2.446-.323-1.097-.803-2.195-1.136-2.897z"/></g></svg>