<svg data-id="104-bc256409fe36880-back" xmlns="http://www.w3.org/2000/svg" viewBox="0 0 100 100"><g fill="none" fill-rule="evenodd"><g fill="#a9c0dd"><path d="M27.617 74.944c0 4.46.137 12.18 9.166 12.252l5.458-.073c6.631 0 10.625-5.333 10.625-12.542 4.23.71 5.914-.56 3.869-4.302 6.948-2.515 1.785-5.684-6.36-5.359-3.206 2.36-14.072-8.283-19.376-2.927s-8.028 12.588-3.382 12.95zM8.837 9.152c-9.757 11.559 0 30.57 0 30.57l23.029-16.968S26.642 10.538 8.836 9.152zM48.41 26.35S45.587 8.852 60.71 5.82c16.138 7.276 12.171 25.356 12.5 29.91z"/><path d="M40.516 65.912c24.54 0 35.33-10.458 35.33-23.358s-10.79-23.358-35.33-23.358S5.845 29.495 5.845 42.395c0 12.9 10.13 23.517 34.67 23.517zM44.763 81.161c9.829-.415 27.765-5.488 32.526 11.187-11.44 9.502-27.53.12-33.174-9.65z"/></g><path fill="#fff" d="M71.893 83.647c2.134 1.756 3.946 4.113 5.455 8.51-3.535 3.297-7.324 3.749-10.496 4.087-1.322.141-3.317-.4-6.174-6.414 4.152 2.42 7.283-.541 7.283-.541s-5.532-1.349-6.672-4.62c2.067.238 7.741 2.804 10.604-1.022z"/><path fill="#414e62" d="M51.84 65.552c4.682-.157 7.479.645 7.714 2.135.161 1.024-1.797 2.042-3.42 2.345l.244.667c1.914-.235 4.494-1.521 4.465-3.102-.044-1.406-1.225-2.34-2.953-2.791-.652-.171-1.816-.18-2.569-.21-.7-.03-4.903.886-3.48.956z"/><path fill="#414e62" d="M50.372 65.938s.767.663 1.829 1.613c.37.333.773.691 1.193 1.07.479.432.964.891 1.433 1.349.474.463.93.921 1.3 1.384.409.512.74 1.001.836 1.489.059.294.049.581-.118.844-.55.876-2.272.706-3.229.462l-.222.667c1.414.533 3.536.86 4.51-.388.85-1.12.52-2.589-.539-4.027-.4-.543-.901-1.087-1.467-1.586-.525-.462-1.1-.887-1.674-1.266-.49-.324-.97-.611-1.427-.853-1.285-.681-2.262-1.037-2.262-1.037a.163.163 0 0 0-.22.058.162.162 0 0 0 .057.221z"/><path fill="#4d504f" d="M61.924 67.966c.115.34 1.071 2.217.115 4.801-.554 1.498-2.32 2.633-3.286 3.46a.161.161 0 1 0 .207.246c1.883-1.183 3.466-2.633 3.864-4.667.399-2.035-.349-3.536-.588-3.922a.161.161 0 0 0-.312.082z"/><path fill="#4d504f" d="M63.073 65.435c.073.168 2.511 2.067 1.697 5.68-.297 1.317-1.46 3.459-2.469 4.494a.161.161 0 1 0 .207.246c1-.677 3.139-4.229 2.954-6.735s-1.698-3.574-2.142-3.892a.161.161 0 0 0-.247.207z"/><path fill="#414e62" d="M28.248 64.957c-.326.401-1.279 1.635-1.604 2.124-.38.573-1.472 2.45-1.777 3.853-.385 1.773-.142 3.219 1.079 3.917.637.354 1.26.451 1.855.351l.026-.878c-2.253.104-1.724-1.795-1.57-3 .145-1.135 1.544-4.243 2.768-6.213z"/><path fill="#414e62" d="M61.185 5.435c2.432 1.095 4.429 2.423 6.052 3.921a19.671 19.671 0 0 1 4.317 5.798c2.045 4.139 2.58 8.647 2.62 12.512.016 1.56-.05 3.01-.125 4.284 1.872 3.233 2.755 6.873 2.744 10.714-.055 6.559-2.708 12.506-8.45 16.79-4.04 3.014-9.62 5.21-16.894 6.187.304.563.582 1.152.833 1.771.955 2.353 1.509 5.135 1.543 8.482.011 1.631-.178 3.126-.55 4.468l-1.657.153c.477-1.35.733-2.897.745-4.621.032-3.149-.433-5.776-1.283-8.009a16.645 16.645 0 0 0-.96-2.083l-.581.063c-2.633.266-5.472.373-8.526.318-3.683.024-7.053-.19-10.12-.614-.536.76-.988 1.588-1.364 2.442-1.11 2.518-1.57 5.265-1.599 7.265.075 2.127.24 5.626 1.936 8.252 1.255 1.945 3.389 3.376 7.06 3.316l5.467-.151c1.596-.006 3.03-.28 4.28-.8l1.077 1.244c-1.54.714-3.335 1.087-5.347 1.08l-5.474-.006c-4.205-.136-6.567-1.897-7.868-4.196-.91-1.606-1.295-3.473-1.43-5.202-.105-1.33-.06-2.571-.023-3.537-.035-2.419.517-5.924 2.07-8.874.168-.317.346-.628.537-.93-7.042-1.06-12.454-3.246-16.387-6.209-5.651-4.258-8.274-10.121-8.315-16.599-.013-2.286.297-4.498.948-6.595a47.322 47.322 0 0 1-.962-3.022 40.804 40.804 0 0 1-1.02-4.609c-.36-2.249-.54-4.659-.376-7.08.203-3.017.923-6.052 2.467-8.806.623-1.112 1.86-2.9 2.421-3.315 5.672.363 10.103 1.922 13.5 3.763 3.707 2.009 6.202 4.459 7.776 6.416 3.233-.519 6.81-.804 10.746-.823 2.585-.008 5.017.1 7.3.313.262-1.778.76-3.675 1.632-5.481.957-1.98 2.37-3.843 4.395-5.326 1.107-.81 4.78-2.664 6.845-2.664zM41.013 20.019c-12.276-.062-21.004 2.526-26.63 6.773-5.398 4.077-7.91 9.678-7.945 15.872-.039 6.229 2.427 11.889 7.808 16.051 5.621 4.349 14.39 7.066 26.767 7.146a73.998 73.998 0 0 0 8.453-.617c7.98-1.061 13.962-3.435 18.168-6.72 5.292-4.133 7.724-9.712 7.673-15.86-.018-6.115-2.495-11.637-7.803-15.69-5.584-4.264-14.255-6.918-26.491-6.955zM9.062 9.652a17.295 17.295 0 0 0-1.943 3.184c-1.3 2.736-1.817 5.671-1.869 8.571-.04 2.331.223 4.634.637 6.783.303 1.577.687 3.07 1.092 4.428.117.395.237.779.357 1.15 1.34-2.96 3.439-5.632 6.355-7.883 3.75-2.896 8.869-5.093 15.488-6.286-1.476-1.845-3.74-4.083-7.033-5.983-3.276-1.89-7.558-3.445-13.084-3.964zm51.732-3.03c-2.262.46-4.127 1.623-5.622 2.65-1.884 1.293-3.224 2.933-4.182 4.69-.896 1.644-1.462 3.384-1.814 5.03 8.48.909 14.843 3.312 19.297 6.712 1.796 1.37 3.285 2.902 4.484 4.562.012-.814.01-1.676-.018-2.574-.117-3.679-.695-7.961-2.71-11.869a18.689 18.689 0 0 0-4.061-5.3c-1.469-1.338-3.214-2.9-5.374-3.901z"/><path fill="#227fbb" fill-rule="nonzero" d="M72.871 73.017c.24.087.399.025.475-.187.026-.07.056-.175.09-.314s.066-.244.091-.314a.92.92 0 0 1 .143-.26l.919.765c.394.32.726.528.994.626 1.057.384 2.029.083 2.915-.904.64-.708 1.185-1.676 1.63-2.903.298-.818.485-1.484.56-2a4.01 4.01 0 0 0-.345-2.209c-.359-.77-.884-1.28-1.574-1.53-.41-.15-.801-.148-1.175.003-.207.084-.48.264-.82.54-.271.22-.471.331-.6.333l.293-.804c.19-.522.539-1.273 1.047-2.254s.858-1.731 1.048-2.253c.077-.211.064-.452-.038-.72s-.251-.439-.449-.51l-.296-.108-4.695 11.655-.047.127c-.118.324-.26.783-.429 1.377-.21.753-.284 1.198-.221 1.332a.768.768 0 0 0 .484.512zm2.685-.532c-.72-.262-1.114-.845-1.184-1.749-.072-.68.041-1.43.339-2.247a7.924 7.924 0 0 1 1.52-2.536c.868-.978 1.689-1.326 2.464-1.044.635.23.906.889.815 1.973-.047.701-.23 1.489-.548 2.363-.329.903-.743 1.67-1.245 2.302-.722.887-1.442 1.2-2.161.938zm5.725 8.597c.958.349 1.825.348 2.598 0s1.333-.997 1.676-1.942l2.43-6.612c.21-.578.5-1.175.868-1.792.324-.584.656-1.166.994-1.746.126-.257-.058-.5-.55-.727-.427-.187-.717-.1-.872.258l-.384.89-.856 2.419a7.032 7.032 0 0 1-1.344 2.313c-.794.909-1.536 1.237-2.227.986-1.128-.41-1.333-1.603-.615-3.577.929-2.552 1.66-4.146 2.195-4.781.123-.163-.083-.342-.619-.537-.437-.159-.766-.023-.986.408a122.523 122.523 0 0 0-1.84 4.79c-.364 1.002-.445 1.906-.244 2.714.221.927.812 1.565 1.77 1.914.367.133.741.157 1.123.073.206-.037.572-.167 1.1-.39a3.813 3.813 0 0 0-.296.946 8.562 8.562 0 0 1-.223.876c-.39 1.072-.751 1.779-1.083 2.121-.546.536-1.285.634-2.215.296-.733-.267-1.26-.706-1.58-1.318-.153-.326-.303-.66-.45-1.001a.596.596 0 0 0-.245-.185c-.394-.144-.666-.011-.815.398a.828.828 0 0 0-.033.419c.113.568.487 1.143 1.121 1.725.546.518 1.08.872 1.602 1.062zm10.081-1.865c.663.241 1.45.272 2.362.093 1.011-.19 1.63-.596 1.855-1.217.144-.395.054-.651-.27-.769-.085-.03-.326.081-.722.336-.502.329-.933.547-1.292.656-.599.197-1.173.196-1.723-.004-1.071-.39-1.312-1.396-.722-3.017.04-.113.153-.136.336-.07.099.036.26.175.484.416s.378.377.462.408c.888.323 1.803.288 2.744-.104s1.57-1.025 1.889-1.9c.246-.676.092-1.502-.463-2.479s-1.171-1.587-1.848-1.833c-.79-.288-1.725.266-2.808 1.66-.821 1.074-1.425 2.14-1.81 3.198-.872 2.397-.363 3.939 1.526 4.626zm1.368-3.957c-.409-.148-.693-.408-.854-.778s-.167-.759-.018-1.168a4.327 4.327 0 0 1 1.113-1.678c.61-.577 1.196-.763 1.76-.557.465.169.76.52.886 1.052s.099 1.046-.081 1.54a2.629 2.629 0 0 1-1.098 1.372c-.56.355-1.13.428-1.708.217z"/><g fill="#414e62"><path d="M39.912 18.965c.396 0 .788.004 1.175.01.04.17.077.342.114.516 1.033 4.862.736 9.044-.664 9.342-1.4.297-2.365-3.512-3.399-8.374-.102-.482-.201-.955-.295-1.418.993-.05 2.016-.076 3.07-.076zm-4.624 6.871c-.884.188-2.236-2.607-3.109-6.347 1.1-.16 2.244-.284 3.431-.371.655 3.614.536 6.536-.322 6.718zm7.151-6.82c1.234.051 2.423.14 3.567.265.621 3.54.493 6.376-.352 6.555-.91.194-2.317-2.775-3.185-6.682zM76.613 92.362c-.937-2.963-2.296-5.177-3.94-6.831-1.36-1.367-2.916-2.341-4.6-3.037-1.932-.798-4.027-1.231-6.183-1.441a42.004 42.004 0 0 0-4.324-.178c-1.473.009-2.94.073-4.369.153-2.356.132-4.605.302-6.605.358-.243.005-.793.067-1.397-.035a3.076 3.076 0 0 1-.913-.295.161.161 0 0 1 .137-.292c.273.115.556.167.825.189.576.047 1.087-.059 1.315-.083 1.988-.2 4.212-.551 6.55-.834a68.198 68.198 0 0 1 4.419-.407 37.574 37.574 0 0 1 4.477-.001c2.319.15 4.582.568 6.664 1.401 1.887.755 3.627 1.853 5.131 3.391 1.865 1.907 3.364 4.502 4.33 7.992a.718.718 0 0 1-.232.749c-4.492 3.642-9.619 4.478-14.58 3.518-7.432-1.437-14.472-6.909-18.256-12.635-.167-.253-.51-.573-.932-.858a4.716 4.716 0 0 0-1.16-.581.161.161 0 0 1 .094-.309c.442.128.883.342 1.266.584.483.305.873.656 1.07.933 3.217 4.568 8.63 8.902 14.566 10.914 5.553 1.883 11.579 1.722 16.647-2.365zM14.412 53.684s-.114-.013-.374-.005a8.67 8.67 0 0 0-.843.065 5.64 5.64 0 0 0-1.13.265 5.871 5.871 0 0 0-.588.249c-.286.136-.566.296-.849.456-.453.256-.886.517-1.295.766-1.101.671-1.92 1.204-1.92 1.204a.16.16 0 1 0 .126.296s.952-.226 2.196-.56c.463-.125.95-.258 1.449-.41.31-.095.619-.187.915-.3.204-.077.402-.161.587-.255a5.343 5.343 0 0 0 .97-.636c.283-.23.47-.41.628-.565.186-.182.255-.274.255-.274a.162.162 0 0 0 .085-.212.161.161 0 0 0-.212-.084zM14.373 56.708s-.117.023-.367.109a8.7 8.7 0 0 0-.805.316 5.957 5.957 0 0 0-1.029.594c-.171.126-.34.268-.506.418-.24.218-.47.456-.702.695a48.24 48.24 0 0 0-1.051 1.129c-.888.978-1.54 1.739-1.54 1.739a.161.161 0 0 0 .206.248s.867-.505 1.988-1.202c.417-.259.857-.534 1.3-.83.277-.185.553-.367.81-.565a5.363 5.363 0 0 0 .907-.851c.143-.167.258-.321.366-.477.212-.306.346-.538.456-.734.13-.231.173-.341.173-.341a.161.161 0 0 0-.206-.248z"/></g></g></svg>