<svg data-id="107-c95acf277e6c520-chicken" xmlns="http://www.w3.org/2000/svg" viewBox="0 0 100 100"><g fill="none" fill-rule="evenodd"><path fill="#a67b6c" d="M58.567 39.756c-.276-1.3 6.836-19.121 17.12-20.059 7.855-.716 15.383 5.252 11.948 9.661-3.434 4.41-10.456-6.46-16.275.788-.525.653 5.546 3.09 2.499 5.408-3.048 2.318-4.688-3.593-8.336-.25-2.507 2.298-4.234 4.792-5.52 5.894-1.542 1.32-1.388-1.218-1.436-1.442zM40.74 39.149c.161-1.319-8.464-18.442-18.781-18.482-7.88-.031-14.854 6.563-11.053 10.655 3.801 4.092 9.846-7.34 16.267-.63.579.605-5.251 3.558-2.017 5.601 3.234 2.043 4.353-3.983 8.275-.972 2.694 2.07 4.629 4.402 6.006 5.388 1.648 1.18 1.275-1.333 1.303-1.56z"/><path fill="#e99c00" d="M66.623 45.572c3.148 1.828 6.254 5.097 8.688 2.406C77.745 45.286 73.403 38 67.449 38 63.406 38 59 40.584 59 42.314s4.475 1.43 7.623 3.258zM33.377 45.572c-3.148 1.828-6.254 5.097-8.688 2.406C22.255 45.286 26.597 38 32.551 38 36.594 38 41 40.584 41 42.314s-4.475 1.43-7.623 3.258z"/><g fill="#ffd800"><path d="M49.9 93c14.723 0 22.876-4.762 21.903-24.631C70.829 48.5 63.674 37 49.9 37c-13.774 0-20.929 11.5-21.902 31.369C27.026 88.238 35.179 93 49.901 93z"/><path d="M29.444 61.71c-6.476 6.719-6.36 15.69-2.633 16.995 3.727 1.304 5.877-4.455 5.91-9.061.456-2.917-2.815-9.307-3.277-7.933zM70.025 61.717c6.477 6.719 6.36 15.69 2.633 16.995s-5.877-4.455-5.91-9.061c-.455-2.917 2.816-9.307 3.277-7.934z"/></g><path fill="#fff" d="M42.123 45.998c2.673-4.5 7.946-5.184 7.946-5.184s-2.61 1.999-1.931 5.611c2.76-3.612 7.521-1.549 8.913-5.212C58.21 38.166 55.128 36 51.621 36s-8.284 2.989-9.498 9.998z"/><g fill-rule="nonzero"><g fill="#7f4331"><path d="M75.532 19.13c8.317-.76 16.332 5.674 12.474 10.628-.88 1.13-2.031 1.497-3.455 1.247-.95-.167-2.328-.692-4.135-1.576-3.433-1.511-5.309-1.71-7.298-.242-.211.156-.597.518-1.157 1.087l1.317 1.041c1.203.97 1.86 1.768 1.935 2.71.059.753-.312 1.444-1.091 2.037-1.348 1.025-2.454.861-4.057-.125l-.544-.338c-1.621-.987-2.378-1.025-3.691.178-.764.7-2.298 2.402-3.572 3.81l-1.292.517-.527-.297c1.317-1.423 3.152-3.646 4.58-4.914 1.964-1.746 3.172-1.547 5.33-.193l.534.328c1.104.65 1.697.698 2.512.079.476-.362.645-.678.62-.988-.038-.494-.538-1.101-1.49-1.87-.111-.088-.57-.453-1.38-1.093-.548-.488-.752-.858-.353-1.355a8.745 8.745 0 0 1 1.614-1.58c2.516-1.857 4.823-1.549 8.83.26 3.812 1.72 4.974 1.562 5.823.54 3.1-3.737-3.946-9.377-11.418-8.696-4.308.393-8.463 3.985-12.066 9.62-2.417 3.779-3.594 7.387-4.077 9.397l-1.02-.432c.512-2.485 1.844-6.108 4.086-9.612 3.784-5.917 8.197-9.733 12.968-10.168zM36.89 39.2l2.2.91.252-.3c-1.476-1.28-3.842-3.714-5.524-4.965-2.107-1.567-3.292-1.264-5.324.272l-.502.373c-1.042.742-1.629.842-2.494.296-.505-.32-.701-.619-.704-.93-.004-.495.441-1.142 1.323-1.99.102-.098.528-.5 1.278-1.208.503-.534.674-.92.234-1.38a8.738 8.738 0 0 0-1.744-1.433c-2.666-1.63-4.935-1.122-8.768 1.026-3.645 2.044-4.816 1.987-5.75 1.043-3.41-3.45 3.115-9.677 10.612-9.648 4.323.017 8.77 3.232 12.846 8.528 3 3.896 4.794 7.525 5.338 9.423l1.088-.54c-.518-2.105-2.315-5.51-5.475-9.615-4.28-5.56-9.006-8.977-13.793-8.995-8.345-.033-15.765 7.067-11.494 11.663.974 1.049 2.152 1.314 3.548.941.93-.249 2.257-.89 3.98-1.927 3.285-1.803 5.135-2.163 7.243-.875.224.137.64.464 1.246.981l-1.22 1.151c-1.114 1.07-1.699 1.922-1.691 2.866.006.755.436 1.41 1.262 1.933 1.431.904 2.518.644 4.028-.476l.512-.384c1.528-1.124 2.279-1.227 3.69-.143.805.618 2.43 2.129 3.803 3.403z"/><path d="M32.603 37.407c-6.008 0-11.373 7.59-8.307 10.98 1.076 1.19 2.366 1.475 3.852 1.005.898-.285 1.56-.648 3.055-1.646 1.35-.898 2.09-1.388 2.225-1.47.043-.026.142-.078.279-.148.5-.733.933-1.37 1.302-1.914-.7.244-1.32.519-1.882.846-.47.273-1.263.788-2.38 1.545-3.152 2.094-4.303 2.369-5.561.977-2.256-2.494 2.325-8.975 7.417-8.975 2.152 0 4.58.847 6.157 1.828l1.195-.79c-1.797-1.342-4.735-2.238-7.352-2.238zM67.422 37.402c6.008 0 11.373 7.59 8.307 10.98-1.076 1.19-2.366 1.475-3.852 1.005-.899-.285-1.56-.648-3.056-1.646a166.44 166.44 0 0 0-2.224-1.47 5.272 5.272 0 0 0-.28-.148l-1.301-1.914c.7.244 1.32.519 1.882.846.47.273 1.263.788 2.38 1.545 3.152 2.094 4.303 2.369 5.561.977 2.256-2.494-2.325-8.975-7.417-8.975-2.152 0-4.58.847-6.157 1.828l-1.195-.79c1.797-1.342 4.735-2.238 7.352-2.238z"/><path d="M29.08 78.337c1.777 10.322 8.275 14.04 20.873 14.04 12.483 0 18.97-3.759 20.82-13.828l1.208.095c-1.918 10.858-8.88 14.932-22.028 14.932-13.127 0-20.081-4.177-22.014-14.954zm27.162-41.065c8.993 2.77 14.349 11.907 15.874 26.566l-1.322-1.032c-1.575-13.118-6.36-21.325-14.186-24.138zm-7.808-.849-1.373 1.34c-9.806 1.311-15.82 9.5-17.8 23.886l-1.407 1.603c1.876-16.722 8.834-26.094 20.58-26.829z"/><path d="M28.997 61.306a.6.6 0 1 1 .864.833c-5.674 5.886-6.531 14.73-2.867 16.011 2.741.96 5.075-3.33 5.113-8.499a.6.6 0 0 1 1.2.01c-.044 5.874-2.822 10.982-6.71 9.622-4.742-1.66-3.783-11.563 2.4-17.977zM70.44 61.305a.6.6 0 1 0-.864.833c5.673 5.885 6.53 14.729 2.866 16.011-2.741.96-5.075-3.33-5.112-8.499a.6.6 0 1 0-1.2.009c.043 5.875 2.821 10.983 6.708 9.623 4.743-1.66 3.784-11.563-2.399-17.977zM51.588 35.422c-4.555 0-8.968 4.014-10.09 10.496-.114.656.767.98 1.107.408.76-1.28 2.67-3.457 5.755-4.448-.846 1.166-1.164 2.991-.846 4.68a.6.6 0 0 0 1.066.254c.757-.99 1.993-1.76 4.605-2.362 2.612-.6 3.71-1.203 4.393-3.002 1.27-3.338-1.83-6.026-5.99-6.026zm0 1.2c3.436 0 5.771 2.025 4.869 4.4-.457 1.202-1.165 1.666-3.028 2.136-1.864.47-3.608.75-4.835 1.905 0-1.905 1.318-3.377 1.805-3.75s.167-1.15-.442-1.071-3.71.6-6.566 3.204c1.751-4.424 4.917-6.824 8.197-6.824zM54.146 63.9h-8.372c-3.08 0-2.564 3.024.583 3.581l.192.03c.876.123 1.58.293 2.377.555l.97.34.463.164c.841.292 1.495.452 2.28.527 2.013.193 3.435-.813 3.718-2.352.272-1.48-.662-2.845-2.211-2.845zM39 50.7c-2.391 0-4.3 2.386-4.3 5.3s1.909 5.3 4.3 5.3 4.3-2.386 4.3-5.3-1.909-5.3-4.3-5.3z"/></g><path fill="#fff" d="M39 51.3c2.027 0 3.7 2.091 3.7 4.7s-1.673 4.7-3.7 4.7-3.7-2.091-3.7-4.7 1.673-4.7 3.7-4.7z"/><path fill="#7f4331" d="M61 50.7c-2.391 0-4.3 2.386-4.3 5.3s1.909 5.3 4.3 5.3 4.3-2.386 4.3-5.3-1.909-5.3-4.3-5.3z"/><path fill="#fff" d="M61 51.3c2.027 0 3.7 2.091 3.7 4.7s-1.673 4.7-3.7 4.7-3.7-2.091-3.7-4.7 1.673-4.7 3.7-4.7z"/></g><g fill="#7f4331" transform="translate(8 17)"><circle cx="31" cy="39" r="1"/><circle cx="53" cy="39" r="1"/><path fill-rule="nonzero" d="M33.377 30.254c-1.279-.5-2.631-.588-3.91.011a4.54 4.54 0 0 0-.698.409.4.4 0 0 0 .462.652 3.74 3.74 0 0 1 .576-.336c1.05-.493 2.185-.419 3.278.009.331.13.574.258.7.338a.4.4 0 1 0 .43-.674 5.042 5.042 0 0 0-.838-.41zM54.377 30.254c-1.279-.5-2.631-.588-3.91.011a4.54 4.54 0 0 0-.698.409.4.4 0 0 0 .462.652 3.74 3.74 0 0 1 .576-.336c1.05-.493 2.185-.419 3.278.009.331.13.574.258.7.338a.4.4 0 1 0 .43-.674 5.042 5.042 0 0 0-.838-.41z"/></g></g></svg>