<svg data-id="12-153eb642530c695-dog" xmlns="http://www.w3.org/2000/svg" viewBox="0 0 100 100"><g fill="none" fill-rule="evenodd"><path fill="#222" d="M68.33 67.884c3.303 2.49 3.422 7.905.264 12.095a11.86 11.86 0 0 1-1.995 2.075c1.943 1.147 3.061 2.694 2.643 3.908-.55 1.595-3.544 2.01-6.689.928-2.088-.72-3.718-1.919-4.416-3.11a6.058 6.058 0 0 1-.897-.48c-1.72 1.667-4.105 2.7-6.74 2.7a9.661 9.661 0 0 1-6.652-2.616 5.82 5.82 0 0 1-.761.396c-.698 1.191-2.327 2.39-4.416 3.11-3.145 1.082-6.14.667-6.689-.928-.418-1.214.7-2.761 2.644-3.909a11.803 11.803 0 0 1-1.996-2.074c-3.157-4.19-3.039-9.605.265-12.095 3.097-2.333 7.893-1.268 11.082 2.325a9.66 9.66 0 0 1 6.523-2.498c2.588 0 4.934.996 6.648 2.612 3.188-3.684 8.052-4.797 11.181-2.439z"/><path fill="#333" d="M53.821 72.432c.196 4.952 1 17.392 4.126 17.392 3.902 0 2.74-17.343 4.56-20.54 1.136-1.997 1.895-5.844 1.895-8.284 0-7.732-4.703-18-13.902-18s-14.19 9.832-14.19 18c0 2.167.89 6.453 1.8 8.285.959 1.929-.386 20.539 3.917 20.539 3.46 0 4.473-12.544 4.737-17.454.032-.582.945-3.085 3.736-3.085s3.296 2.517 3.321 3.147z"/><path fill="#404040" d="M55.146 17.916c.26-.47.922-.811 1.467-.74l8.922 1.156 1.698 2.997s.592 5.264-.248 6.858c-.478.908-2.465 2.702-4.086 4.077.004 4.851-1 13.026-1.04 13.818-.251 4.882-3.089 8.791-7.943 9.824l-1.787.38c-4.861 1.034-9.131-1.323-11.253-5.742-.362-.753-4.72-7.497-6.681-12.26-1.99-.6-4.417-1.406-5.275-1.999-1.545-1.067-3.014-6.159-3.014-6.159l.33-3.426 7.675-4.685c.468-.286 1.212-.243 1.64.08l2.735 2.063c1.933-.89 4.409-1.6 7.465-2.25 3.054-.65 5.603-1.008 7.729-.982z"/><path fill="#593a30" d="m32.77 23.318 4.336 3.007c-3.063 2.859-3.611 7.136-3.316 10.009l-3.824-1.446c-.464-.176-1.01-.664-1.275-1.132l-2.706-6.023zm25.222-5.035 7.865 1.47v6.882c-.027.553-.417 1.27-.855 1.589l-2.603 2.16c-.8-3.483-2.47-6.478-6.998-7.895z"/><path fill="#000" d="M63.666 65.73c.493-.32.982-.68 1.475-1.07.313-.24.624-.5.932-.76.373-.32.737-.67 1.091-1.02.346-.35.681-.72.996-1.1.81-.99 1.49-2.12 1.911-3.41a.45.45 0 0 1 .454-.32c.205.01.377.16.416.36a8.928 8.928 0 0 1-.525 5.01c-.647 1.59-1.692 2.95-2.829 4.08-.63-.457-1.97-.742-4.022-.855.04-.593.074-.898.101-.915z"/><path fill="#000" d="M33.818 81.99a16.25 16.25 0 0 1-.594-.58c-.338-.36-.66-.74-.963-1.15-1.498-2.03-2.268-4.32-2.318-6.45-.06-2.51.87-4.8 2.754-6.19.656-.48 1.38-.82 2.148-1.03.752-.2 1.545-.27 2.353-.21.153.01.271.14.262.29a.28.28 0 0 1-.295.27c-.743-.04-1.47.04-2.157.24s-1.334.52-1.915.97c-1.67 1.29-2.449 3.37-2.35 5.63.085 1.97.837 4.07 2.256 5.92.286.37.59.72.907 1.05.328.34.67.65 1.024.93l.541.44-.599.35c-.927.55-1.653 1.2-2.083 1.85-.338.52-.495 1.02-.339 1.48.116.35.424.62.847.81.386.18.86.3 1.402.35.552.06 1.17.05 1.831-.03.855-.1 1.78-.3 2.732-.65.143-.06.306.01.364.15.058.15-.01.31-.153.37-.975.44-1.933.74-2.827.91-.723.13-1.404.17-2.015.14-.824-.05-1.526-.24-2.052-.53-.53-.3-.89-.71-1.064-1.2-.249-.72-.092-1.54.443-2.34.411-.62 1.05-1.24 1.86-1.79zm33.497.02c.82.56 1.461 1.19 1.868 1.82.505.78.661 1.57.417 2.25-.338.95-1.675 1.74-3.626 1.76-1.559.02-3.517-.44-5.599-1.64a.28.28 0 0 1-.105-.38.288.288 0 0 1 .38-.11c1.987 1.1 3.84 1.5 5.31 1.45.836-.02 1.542-.19 2.068-.46.438-.23.743-.52.857-.86.162-.49 0-1.03-.366-1.57-.443-.66-1.189-1.3-2.137-1.85l-.528-.31.476-.39c.351-.29.69-.6 1.013-.95.313-.33.611-.68.892-1.06 1.383-1.86 2.093-3.97 2.153-5.93.033-1.09-.14-2.14-.513-3.08-.385-.96-.979-1.82-1.81-2.46a5.449 5.449 0 0 0-2.003-1.03c-.728-.21-1.5-.3-2.292-.25a.283.283 0 0 1-.304-.25.283.283 0 0 1 .25-.31 7.363 7.363 0 0 1 2.527.09 6.34 6.34 0 0 1 2.351 1.04 6.587 6.587 0 0 1 2.193 2.8c.44 1.05.634 2.24.59 3.48-.079 2.14-.887 4.43-2.423 6.44a12.6 12.6 0 0 1-1.639 1.76zm-12.32 2.59c-.434.17-.879.29-1.337.41-.265.07-.532.14-.803.2-.177.04-.356.08-.537.11-.588.12-1.194.21-1.818.22a9.33 9.33 0 0 1-2.604-.28 9.417 9.417 0 0 1-2.45-.99c-.13-.08-.303-.04-.385.09s-.042.3.087.38a9.93 9.93 0 0 0 2.54 1.25 10.386 10.386 0 0 0 4.073.43c.424-.05.841-.12 1.243-.23.41-.12.806-.26 1.181-.45.381-.19.731-.41 1.074-.65a.28.28 0 0 0 .113-.38.285.285 0 0 0-.377-.11z"/><path fill="#000" d="M39.602 48.96c-1.186 1.73-2.098 3.7-2.718 5.75-.63 2.08-.958 4.23-.976 6.29-.008 1.09.201 2.72.528 4.31.336 1.63.8 3.23 1.265 4.18.08.16.126.46.173.86.11.96.157 2.42.21 4.12.117 3.86.253 8.92 1.076 12.2.331 1.31.786 2.35 1.363 2.96.431.45.932.69 1.504.69.666 0 1.276-.34 1.805-.99.668-.82 1.224-2.17 1.666-3.79 1.131-4.13 1.572-10.1 1.73-13.14.016-.31.34-1.24 1.132-1.91.503-.43 1.201-.75 2.14-.75.928-.01 1.567.31 2 .73.692.69.867 1.64.881 1.98.127 3.04.49 8.87 1.464 12.96.38 1.59.857 2.93 1.437 3.76.481.69 1.046 1.05 1.665 1.05.542 0 1.014-.25 1.414-.73.517-.62.918-1.65 1.22-2.95.76-3.27.945-8.27 1.293-12.13.203-2.26.448-4.11.925-4.96.587-1.04 1.077-2.56 1.413-4.13.325-1.53.507-3.1.504-4.32-.005-1.91-.294-3.97-.862-6-.545-1.94-1.347-3.84-2.403-5.55a.27.27 0 0 0-.383-.09.276.276 0 0 0-.092.38c1.018 1.67 1.787 3.53 2.307 5.42.542 1.98.811 3.98.806 5.84-.003 1.18-.19 2.71-.513 4.18-.329 1.5-.798 2.95-1.363 3.94-.509.89-.81 2.84-1.039 5.22-.366 3.83-.57 8.79-1.34 12.02-.229.96-.503 1.76-.853 2.32-.287.46-.612.75-1.034.75-.389 0-.708-.28-1.008-.72-.533-.77-.952-2.01-1.296-3.49-.942-4.05-1.27-9.81-1.38-12.81-.017-.43-.237-1.68-1.134-2.57-.568-.57-1.403-1.01-2.629-1.01-1.199 0-2.087.41-2.732.96-1.058.89-1.444 2.15-1.467 2.56-.167 3-.619 8.87-1.744 12.94-.404 1.45-.885 2.68-1.488 3.41-.314.38-.649.63-1.042.63-.46 0-.808-.33-1.112-.82-.565-.93-.928-2.42-1.19-4.17-.576-3.84-.61-8.87-.776-12.07-.08-1.6-.219-2.77-.43-3.19-.454-.9-.9-2.41-1.239-3.95-.333-1.52-.56-3.08-.569-4.13-.018-1.99.265-4.08.835-6.1.563-2 1.404-3.93 2.52-5.63a.283.283 0 0 0-.077-.39.283.283 0 0 0-.387.08zM34.187 38.02c-.34-.14-.684-.3-1.042-.44-.347-.15-.697-.29-1.044-.42-.284-.12-.563-.22-.835-.33-.448-.17-.87-.32-1.236-.47-.39-.17-.715-.32-.93-.46-.52-.34-1.037-1.2-1.514-2.14-.914-1.8-1.626-3.94-1.626-3.94a.277.277 0 0 0-.348-.18.273.273 0 0 0-.187.34s.597 2.23 1.435 4.12c.503 1.14 1.114 2.14 1.705 2.57.422.3 1.202.68 2.146 1.02.512.18 1.071.36 1.641.5.564.15 1.133.25 1.674.36.147.05.303-.04.348-.18a.28.28 0 0 0-.187-.35zm32.734-16.88s-.016.5-.029 1.24c-.006.37-.01.79-.014 1.24-.003.32-.004.65-.006.99 0 .49 0 .99-.026 1.46-.042.79-.122 1.5-.33 1.92-.205.41-.73 1.01-1.38 1.68-.756.78-1.676 1.64-2.5 2.39-.118.09-.133.27-.033.39s.276.13.393.03c1.04-.83 2.225-1.82 3.096-2.67.564-.55.995-1.05 1.198-1.42.337-.61.515-1.76.565-2.98.015-.37.022-.73.012-1.1a17.139 17.139 0 0 0-.165-1.94c-.11-.77-.226-1.29-.226-1.29a.284.284 0 0 0-.305-.25.289.289 0 0 0-.25.31zm-13.705-.56 2.213-3.29c.084-.13.257-.16.386-.08s.165.26.081.38l-2.21 3.52a.35.35 0 0 1-.294.16 23 23 0 0 0-3.064.23 53.6 53.6 0 0 0-4.567.85c-1.367.31-2.616.63-3.752.96a39.4 39.4 0 0 0-1.83.59c-.637.22-1.233.44-1.783.68a.444.444 0 0 1-.445-.03s-.876-.58-1.74-1.18c-.867-.61-1.719-1.23-1.719-1.23-.13-.08-.168-.25-.086-.38s.254-.17.384-.09c0 0 .924.51 1.841 1.03.637.36 1.27.74 1.594.93.394-.19.808-.36 1.248-.53.474-.18.976-.35 1.504-.51 1.356-.42 2.887-.78 4.596-1.12 1.706-.34 3.255-.6 4.662-.74a22.52 22.52 0 0 1 2.981-.15z"/><path fill="#484848" d="m59.367 52.727-.844-4.636a7.353 7.353 0 0 0-3.064-4.734 7.444 7.444 0 0 0-5.564-1.19c-.006.011-.246.058-.246.058a7.433 7.433 0 0 0-4.617 3.18 7.363 7.363 0 0 0-1.071 2.655c-.17.92-.157 1.885.048 2.854l1 4.28c.029.147 3.739 1.742 7.56 1.012 3.823-.73 6.827-3.331 6.798-3.479z"/><g fill="#000" transform="translate(20.673 15.807)"><path d="M41.051 13.623c.527 1.08.682 2.86.672 4.86-.01 1.89-.183 3.98-.385 5.87-.31 2.89-.69 5.33-.736 5.89-.169 2.33-.893 4.42-2.152 6.07-1.265 1.65-3.07 2.84-5.39 3.34l-1.786.39c-2.323.51-4.509.2-6.37-.76-1.872-.96-3.416-2.59-4.448-4.71-.233-.48-3.132-4.7-5.186-8.94-1.137-2.35-2.02-4.7-2.006-6.41.002-.15-.12-.28-.275-.28s-.28.12-.283.28c-.035 1.77.833 4.23 1.986 6.68 2.002 4.27 4.852 8.52 5.08 9 1.087 2.3 2.74 4.06 4.746 5.12 2.02 1.07 4.403 1.43 6.943.9l1.79-.37c2.563-.53 4.563-1.84 5.97-3.65 1.38-1.78 2.183-4.06 2.377-6.59.035-.5.345-2.52.59-5.03.156-1.59.288-3.38.314-5.1.043-2.78-.193-5.4-.955-6.81a.277.277 0 0 0-.376-.12.275.275 0 0 0-.12.37zM51.872 7.867c.099.04.216.03.3-.04a.28.28 0 0 0 .089-.29s-.582-2.46-1.561-4.5c-.573-1.19-1.31-2.23-2.08-2.65-.292-.15-.753-.27-1.34-.33-.766-.08-1.77-.07-2.872-.01-3.99.23-9.313 1.19-9.313 1.19a.436.436 0 0 0-.366.41c-.01.21.129.4.33.45 0 0 2.868.71 5.647 1.49 1.38.38 2.74.78 3.71 1.12.869.3 1.945.73 3.007 1.18 2.258.95 4.449 1.98 4.449 1.98zM.737 19.338c.022.11.105.2.211.22a.3.3 0 0 0 .284-.1s1.586-2.05 3.175-3.99c.8-.98 1.6-1.93 2.199-2.57.814-.88 1.836-1.81 2.861-2.67 2.326-1.97 4.668-3.61 4.668-3.61a.44.44 0 0 0 .145-.54.452.452 0 0 0-.501-.25s-5.282 1.21-9.092 2.55c-1.039.37-1.971.75-2.662 1.12-.501.26-.883.53-1.115.78-.33.35-.571.87-.714 1.49-.15.65-.208 1.42-.194 2.22.045 2.53.735 5.35.735 5.35z"/><path d="M28.164 37.253s.266.32.761.64c.246.17.551.32.896.44.603.2 1.323.27 2.042.11 1.021-.23 2.08-.94 2.853-2.62a.283.283 0 0 0-.12-.38.286.286 0 0 0-.376.12c-.77 1.33-1.665 1.86-2.523 1.99-.468.07-.918 0-1.329-.1-.2-.05-.393-.11-.573-.16-.24-.08-.458-.15-.645-.22-.394-.15-.644-.26-.644-.26a.284.284 0 0 0-.39.05c-.095.12-.073.3.048.39z"/><ellipse cx="30.002" cy="30.122" rx="3" ry="2" transform="rotate(-12.04 29.967 30.126)"/><circle cx="22.708" cy="27.072" r="1.5" transform="rotate(-12.04 22.68 27.072)"/><circle cx="35.424" cy="24.369" r="1.5" transform="rotate(-12.04 35.392 24.383)"/></g></g></svg>