<svg data-id="122-8a10ce12586de92-open" xmlns="http://www.w3.org/2000/svg" viewBox="0 0 100 100"><g fill="none" fill-rule="evenodd"><path fill="#a67b6c" d="M57.324 39.934c1.312-.208 15.4-13.223 12.594-23.157C67.776 9.19 59.512 4.3 56.625 9.083s9.772 7.447 5.09 15.473c-.422.722-4.868-4.071-5.942-.397-1.073 3.673 5.03 3.089 3.216 7.69-1.247 3.162-2.957 5.666-3.525 7.262-.68 1.91 1.633.86 1.86.823zM42.227 40.215c-1.313-.208-15.4-13.222-12.596-23.154C31.773 9.475 40.036 4.586 42.923 9.37c2.887 4.783-9.771 7.444-5.088 15.469.421.723 4.867-4.07 5.94-.397s-5.03 3.089-3.214 7.69c1.247 3.16 2.957 5.664 3.525 7.26.68 1.91-1.633.859-1.86.823z"/><path fill="#e99c00" d="M65.139 42.016c3.635.2 7.886 1.702 8.833-1.8.946-3.504-6.23-8.025-11.535-5.322-3.602 1.836-6.355 6.138-5.57 7.68s4.637-.758 8.272-.558zM34.322 42.64c-3.595.58-7.666 2.522-8.975-.863-1.31-3.385 5.354-8.636 10.915-6.505 3.776 1.447 6.966 5.438 6.346 7.054s-4.691-.267-8.286.314z"/><g fill="#ffd800"><path d="M48.9 94c14.723 0 22.876-4.762 21.903-24.631C69.829 49.5 62.674 38 48.9 38c-13.774 0-20.929 11.5-21.902 31.369C26.026 89.238 34.179 94 48.901 94z"/><path d="M30.735 71.318c-9.262 1.146-14.818 8.193-12.742 11.552 2.076 3.36 7.372.236 10.297-3.323 2.188-1.98 3.667-9.006 2.445-8.23zM67.094 70.034c9.189 1.634 14.364 8.965 12.114 12.21-2.25 3.244-7.374-.154-10.107-3.863-2.081-2.094-3.187-9.188-2.007-8.347z"/></g><path fill="#fff" d="M41.123 46.998c2.673-4.5 7.946-5.184 7.946-5.184s-2.61 1.999-1.931 5.611c2.76-3.612 7.521-1.549 8.913-5.212C57.21 39.166 54.128 37 50.621 37s-8.284 2.989-9.498 9.998z"/><path fill="#d55847" d="M43.854 62.732c.11-.404.537-.732.945-.732h8.64c.41 0 .832.322.945.732l2.653 9.686c.11.403-.139.731-.55.731H41.751c-.415 0-.663-.322-.55-.731z"/><path fill="#ff608b" d="m17.202 44.771 6.597 4.295s-2.345 2.404-3.361 4.798c-1.016 2.393-1.117 5.75-1.117 5.75l-7.337-1.365 3.875-2.96-3.983-5.06 6.394-.62z"/><g fill-rule="nonzero"><g fill="#7f4331"><path d="M29.095 16.838C31.363 8.804 40.235 3.626 43.479 9c.74 1.225.67 2.432-.073 3.67-.496.827-1.48 1.926-2.95 3.296-2.64 2.663-3.496 4.343-2.838 6.724.07.254.27.744.6 1.47l1.443-.857c1.336-.775 2.316-1.103 3.221-.836.725.215 1.237.808 1.511 1.747.475 1.625-.074 2.599-1.568 3.742l-.51.387c-1.502 1.16-1.808 1.853-1.155 3.509.548 1.389 2.465 5.017 3.234 6.614l-1.237.2c-.827-1.737-2.395-4.467-3.113-6.374-.926-2.458-.308-3.514 1.729-5.045l.497-.38c1-.798 1.259-1.334.972-2.316-.168-.574-.402-.845-.7-.933-.475-.14-1.22.109-2.278.723-.123.071-.627.37-1.514.896-.653.337-1.07.395-1.392-.156a8.741 8.741 0 0 1-.897-2.071c-.832-3.013.28-5.056 3.403-8.149 2.97-2.942 3.238-4.083 2.587-5.241-2.378-4.231-10.164.327-12.202 7.545-1.175 4.161.691 9.324 4.66 14.703a32.7 32.7 0 0 0 3.528 4.035l-2.252-.609a32.453 32.453 0 0 1-2.242-2.713c-4.167-5.65-6.15-11.134-4.848-15.743zM70.51 16.564C68.243 8.53 59.37 3.352 56.128 8.725c-.74 1.226-.67 2.432.073 3.672.495.826 1.479 1.924 2.95 3.295 2.64 2.663 3.496 4.343 2.838 6.724-.07.254-.27.743-.6 1.47l-1.444-.857c-1.336-.776-2.316-1.104-3.22-.836-.725.214-1.237.808-1.512 1.747-.475 1.625.075 2.599 1.568 3.742l.51.386c1.502 1.16 1.808 1.853 1.155 3.51-.56 1.42-2.556 5.188-3.286 6.723l1.053.607c.721-1.665 2.555-4.781 3.35-6.89.925-2.458.308-3.515-1.73-5.045l-.496-.38c-1-.798-1.26-1.334-.972-2.317.168-.573.401-.844.7-.932.475-.141 1.22.109 2.278.723.122.07.627.37 1.514.896.652.337 1.07.395 1.391-.156.414-.708.711-1.398.897-2.071.833-3.013-.28-5.056-3.402-8.149-2.97-2.942-3.239-4.084-2.588-5.242 2.378-4.23 10.164.328 12.202 7.545 1.175 4.162-.69 9.325-4.66 14.704a32.619 32.619 0 0 1-3.042 3.553l2.287-.707a32.264 32.264 0 0 0 1.721-2.134c4.168-5.649 6.15-11.133 4.849-15.742z"/><path d="M36.51 34.723c-5.612-2.151-13.34 3.017-11.69 7.281.579 1.497 1.682 2.225 3.238 2.318.941.056 1.69-.047 3.443-.444 1.581-.355 2.45-.547 2.604-.575.155-.029.906-.105 1.653-.136l1.213-1.193-.082-.005c-.967-.063-1.825-.04-2.63.09-.536.086-1.461.283-2.775.59-3.695.828-4.867.672-5.545-1.078-1.214-3.137 5.386-7.55 10.141-5.728 1.92.736 3.798 2.284 4.94 3.712l1.342-.43c-1.257-1.786-3.545-3.518-5.852-4.402zM60.603 42.084c.81-.2 1.548-.404 1.898-.464.954-.164 1.81-.232 2.624-.187.542.03 1.483.129 2.821.296 3.76.435 4.91.157 5.4-1.654.877-3.247-6.147-6.941-10.684-4.63-2.134 1.088-4.094 3.264-4.948 4.951-.353-.107-.778-.234-1.274-.382.91-2.098 3.227-4.39 5.677-5.638 5.353-2.727 13.58 1.6 12.387 6.012-.419 1.549-1.439 2.388-2.976 2.644-.93.155-1.685.131-3.47-.08-1.61-.187-2.492-.286-2.65-.298-.235-.018-1.832-.001-2.704.149-.178.03-.51.126-.936.244l-1.158-.958z"/><path d="m69.824 79.013 1 1.235c-2.078 10.374-9.021 14.287-21.906 14.287-12.67 0-19.59-3.892-21.795-13.854l1.011-.894c1.898 9.95 8.388 13.548 20.784 13.548 12.685 0 19.18-3.88 20.906-14.322zM47.98 37.353l-1.515 1.315c-11.521 1.285-17.929 11.863-18.85 30.665a66.652 66.652 0 0 0-.081 2.824l-1.198.282c0-1.014.027-2.069.08-3.164.99-20.187 8.314-31.42 21.564-31.922zm7.619 1.004c9.629 3.203 14.984 13.866 15.82 30.918.035.72.059 1.424.071 2.109l-1.207-.336c-.014-.56-.035-1.13-.063-1.715-.795-16.21-5.667-26.308-14.38-29.607z"/><path d="M50.567 36.452c-4.555 0-8.968 4.013-10.09 10.495-.114.656.767.981 1.107.409.76-1.281 2.67-3.457 5.755-4.448-.846 1.165-1.163 2.99-.846 4.68a.6.6 0 0 0 1.066.253c.757-.99 1.993-1.76 4.605-2.361 2.612-.601 3.71-1.203 4.393-3.003 1.27-3.338-1.83-6.025-5.99-6.025zm0 1.2c3.437 0 5.772 2.024 4.869 4.399-.457 1.202-1.164 1.666-3.028 2.136-1.864.47-3.608.751-4.835 1.906 0-1.906 1.318-3.378 1.806-3.75s.166-1.151-.442-1.072-3.71.601-6.567 3.205c1.751-4.424 4.917-6.824 8.197-6.824zM30.657 70.734a.6.6 0 0 1 .147 1.19C22.69 72.93 16.458 79.264 18.5 82.566c1.527 2.471 6.041.605 9.323-3.389a.6.6 0 0 1 .927.762c-3.73 4.54-9.105 6.762-11.27 3.258-2.642-4.275 4.336-11.37 13.178-12.463zM67.155 69.453a.6.6 0 1 0-.21 1.182c8.05 1.431 13.938 8.086 11.725 11.276-1.655 2.387-6.064.285-9.13-3.876a.6.6 0 1 0-.966.712c3.485 4.73 8.735 7.233 11.082 3.848 2.864-4.13-3.73-11.582-12.501-13.142zM38.5 53.7a3.8 3.8 0 1 0 0 7.6 3.8 3.8 0 0 0 0-7.6z"/></g><path fill="#fff" d="M38.5 54.3a3.2 3.2 0 1 1 0 6.4 3.2 3.2 0 0 1 0-6.4z"/><path fill="#7f4331" d="M59.5 53.7a3.8 3.8 0 1 0 0 7.6 3.8 3.8 0 0 0 0-7.6z"/><path fill="#fff" d="M59.5 54.3a3.2 3.2 0 1 1 0 6.4 3.2 3.2 0 0 1 0-6.4z"/><g fill="#7f4331"><path d="M61.26 47.191a.4.4 0 0 0-.505-.013l-.059.056-6 7a.4.4 0 0 0 .55.577l.058-.056 6-7a.4.4 0 0 0-.044-.564zM36.74 47.191a.4.4 0 0 1 .505-.013l.059.056 6 7a.4.4 0 0 1-.55.577l-.058-.056-6-7a.4.4 0 0 1 .044-.564zM56.487 73.599H41.751c-.715 0-1.175-.607-.985-1.3l2.654-9.686c.164-.597.766-1.063 1.38-1.063h8.638c.617 0 1.214.46 1.38 1.063l2.653 9.686c.189.688-.273 1.3-.984 1.3zm-14.736-.9h14.736c.114 0 .148-.045.116-.163l-2.653-9.685c-.059-.213-.302-.4-.512-.4H44.8c-.205 0-.454.191-.51.4l-2.655 9.685c-.033.123-.002.163.117.163z"/></g><path fill="#b3303d" d="m24.574 49.05-8.133-5.294 1.21 5.48-6.743.654 4.234 5.38-4.365 3.336 9.018 1.678.017-.584c.002-.078.009-.213.02-.395l.01-.146c.032-.43.078-.898.143-1.385.124-.93.3-1.816.537-2.61.111-.373.233-.718.367-1.034s.298-.644.489-.982c.407-.722.923-1.465 1.505-2.2.229-.288.457-.562.679-.817l.218-.247c.172-.192.3-.328.368-.398zm-6.63-3.121 5.077 3.304.015-.017c-.302.335-.619.709-.937 1.111a18.255 18.255 0 0 0-1.593 2.33c-.208.369-.388.73-.538 1.082s-.284.732-.405 1.139c-.253.85-.439 1.786-.57 2.763l-.047.378c-.044.373-.077.731-.1 1.07l-5.673-1.056 3.384-2.583-3.731-4.742 6.045-.584z"/></g></g></svg>