<svg data-id="123-d81bf4914e5966c-chicken" xmlns="http://www.w3.org/2000/svg" viewBox="0 0 100 100"><g fill="none" fill-rule="evenodd"><path fill="#a67b6c" d="M7.697 78.434c-.186 1.316 8.136 18.6 18.458 18.827 7.884.173 14.981-6.298 11.252-10.46-3.73-4.162-9.984 7.165-16.288.336-.568-.615 5.318-3.463 2.12-5.566-3.2-2.102-4.428 3.907-8.298.823-2.658-2.118-4.552-4.487-5.912-5.497-1.628-1.21-1.3 1.31-1.332 1.537zM67.04 36.074c-1.3.276-19.121-6.834-20.06-17.115-.716-7.854 5.252-15.38 9.662-11.947 4.41 3.434-6.46 10.454.788 16.273.653.524 3.089-5.545 5.407-2.499 2.319 3.047-3.592 4.687-.249 8.335 2.297 2.506 4.792 4.232 5.894 5.519 1.32 1.54-1.218 1.387-1.442 1.434z"/><path fill="#e99c00" d="M59.377 40.572c-3.148 1.828-6.254 5.097-8.688 2.406C48.255 40.286 52.597 33 58.551 33 62.594 33 67 35.584 67 37.314s-4.475 1.43-7.623 3.258z"/><path fill="#ffd800" d="M72.9 88c14.723 0 22.876-4.762 21.903-24.631C93.829 43.5 86.674 32 72.9 32c-13.774 0-20.929 11.5-21.902 31.369C50.026 83.238 58.179 88 72.901 88z"/><path fill="#ffd800" d="M52.585 58.668c-7.273 2.938-11.756 8.56-10.586 11.306 1.17 2.748 8.336 1.597 11.706-2.64 0 0 .328-8.6-1.12-8.666z"/><path fill="#e99c00" d="M84.475 40.816c2.07 1.872 4.494 4.243 6.928 1.551 2.434-2.691-.93-8.944-6.928-8.944-4.043 0-5.13 1.155-5.13 2.885s3.06 2.635 5.13 4.508z"/><path fill="#fff" d="M61.123 43.998c2.673-4.5 7.946-5.184 7.946-5.184s-2.61 1.999-1.931 5.611c2.76-3.612 7.521-1.549 8.913-5.212C77.21 36.166 74.128 34 70.621 34s-8.284 2.989-9.498 9.998z"/><g fill-rule="nonzero"><g fill="#7f4331"><path d="M46.424 19.027c-.759-8.318 5.674-16.332 10.628-12.475 1.13.88 1.498 2.032 1.247 3.456-.167.95-.692 2.327-1.575 4.135-1.512 3.432-1.71 5.308-.243 7.297.157.212.519.598 1.087 1.157l1.042-1.316c.97-1.203 1.768-1.86 2.71-1.935.753-.06 1.444.312 2.036 1.09 1.026 1.348.862 2.455-.124 4.058l-.338.543c-.988 1.621-1.025 2.379.178 3.692.736.803 2.579 2.457 4.023 3.766l-1.15.583c-1.292-1.145-2.798-2.458-3.758-3.538-1.745-1.965-1.547-3.172-.192-5.331l.328-.533c.649-1.104.698-1.698.078-2.513-.362-.475-.678-.645-.988-.62-.494.039-1.1.539-1.869 1.491-.089.11-.453.57-1.093 1.38-.489.548-.858.752-1.356.353a8.745 8.745 0 0 1-1.58-1.614c-1.856-2.516-1.548-4.823.26-8.83 1.72-3.812 1.562-4.975.54-5.823-3.737-3.1-9.377 3.946-8.695 11.418.393 4.308 3.985 8.462 9.619 12.065a32.55 32.55 0 0 0 3.607 1.995l-2.385.124c-.622-.34-1.247-.71-1.869-1.107-5.916-3.784-9.733-8.198-10.168-12.968zM26.168 97.858c8.348.183 15.898-6.785 11.709-11.46-.955-1.067-2.13-1.354-3.532-1.006-.936.232-2.274.85-4.016 1.856-3.32 1.745-5.177 2.071-7.262.745-.222-.141-.632-.476-1.229-1.005l1.241-1.129c1.134-1.05 1.734-1.892 1.743-2.836.008-.755-.41-1.42-1.228-1.956-1.415-.93-2.507-.69-4.038.403l-.519.375c-1.549 1.097-2.301 1.186-3.694.077-1.392-1.11-5.258-5.013-5.927-5.51-.663-.493-1.28-.606-1.76-.21-.355.236-.805 1.325-.408 2.853.635 2.45 2.709 6.082 5.284 9.555 4.182 5.64 8.847 9.143 13.636 9.248zm10.815-10.66c3.35 3.513-3.29 9.625-10.789 9.46-4.324-.095-8.715-3.392-12.698-8.763-3.982-5.37-5.65-9.936-5.1-10.705 1.146.71 4.12 4.065 6.2 5.67 2.079 1.606 3.27 1.324 5.33-.175l.508-.364c1.057-.724 1.646-.814 2.501-.251.5.328.69.63.687.942-.004.495-.461 1.135-1.359 1.967-.103.096-.537.491-1.3 1.185-.513.525-.691.908-.259 1.377a8.743 8.743 0 0 0 1.719 1.464c2.638 1.679 4.917 1.213 8.79-.868 3.683-1.978 4.853-1.9 5.77-.939z"/><path d="M58.51 32.392c-6.007 0-11.373 7.59-8.307 10.98 1.076 1.19 2.367 1.475 3.852 1.005.472-.15.878-.32 1.374-.594l1.337-2.268-.11.075c-3.154 2.094-4.304 2.369-5.563.977-2.255-2.494 2.326-8.975 7.417-8.975 1.495 0 3.121.408 4.504.986l1.325-.857c-1.709-.822-3.86-1.33-5.829-1.33z"/><path d="M90.866 42.797c2.615 5.186 4.145 12.08 4.56 20.55.916 18.688-5.803 25.26-22.5 25.26-14.533 0-21.5-5.12-22.465-18.644l1.143-.794c.692 13.53 7.144 18.238 21.321 18.238 16.03 0 22.175-6.198 21.303-24.002-.4-8.161-1.833-14.773-4.27-19.748zm-17.94-11.39c3.28 0 6.211.633 8.79 1.875l-.982.88c-2.316-1.032-4.92-1.555-7.809-1.555-12.072 0-19.182 9.137-20.97 26.383l-1.264.606c1.722-18.27 9.254-28.19 22.234-28.19z"/><path d="M73.435 61.075a.6.6 0 1 0-.74.945c6.44 5.04 8.518 13.682 5.067 15.462-2.582 1.331-5.49-2.594-6.247-7.708a.6.6 0 1 0-1.187.175c.86 5.814 4.323 10.487 7.984 8.6 4.467-2.305 2.14-11.981-4.877-17.474zM70.725 33.371c-4.555 0-8.968 4.014-10.09 10.496-.114.656.767.981 1.107.408.76-1.28 2.67-3.457 5.755-4.448-.846 1.166-1.164 2.991-.846 4.68a.6.6 0 0 0 1.066.254c.757-.99 1.993-1.76 4.605-2.362 2.612-.6 3.71-1.202 4.393-3.002 1.27-3.338-1.83-6.026-5.99-6.026zm0 1.2c3.436 0 5.771 2.025 4.869 4.4-.457 1.202-1.164 1.666-3.028 2.136-1.864.47-3.608.751-4.835 1.905 0-1.905 1.318-3.377 1.805-3.75.488-.373.167-1.15-.442-1.071-.608.079-3.71.6-6.566 3.204 1.751-4.424 4.917-6.824 8.197-6.824zM84.475 32.823c-3.99 0-5.73 1.131-5.73 3.485 0 .973.602 1.702 1.81 2.534.934.6 1.586 1.017 1.957 1.251.583.37 1.292.93 2.126 1.68 3.053 2.746 5.043 3.393 7.21.997 3.082-3.408-1.347-9.947-7.373-9.947zm0 1.2c5.099 0 8.767 5.416 6.483 7.942-1.503 1.662-2.826 1.292-5.302-.892-.962-.892-1.696-1.49-2.203-1.795a69.388 69.388 0 0 1-2.217-1.424c-.91-.627-1.29-1.089-1.29-1.546 0-1.555 1.122-2.285 4.529-2.285zM53.139 58.448a.6.6 0 0 1-.332.782c-6.594 2.663-11.334 7.987-10.258 10.514.994 2.333 7.686.989 10.683-2.78a.6.6 0 1 1 .94.748c-3.47 4.362-11.268 5.93-12.728 2.502C40.011 66.85 45.219 61 52.357 58.116a.6.6 0 0 1 .782.332zM40.155 56.211c2.629-3.13 6.534-5.12 10.3-4.834a.25.25 0 0 1-.037.499c-3.59-.272-7.348 1.642-9.88 4.657-2.342 2.788-2.877 5.652-1.176 6.776a.25.25 0 0 1-.276.417c-2.033-1.343-1.438-4.53 1.07-7.515z"/><path d="M50.079 54.457a.25.25 0 1 1 .022.5c-3.521.159-6.49 1.636-8.127 3.738-1.451 1.864-1.445 3.726.026 4.467a.25.25 0 1 1-.225.447c-1.808-.912-1.816-3.14-.195-5.221 1.73-2.22 4.834-3.765 8.499-3.931zM18.982 68.097c3.775-3.836 9.303-5.017 15.333-2.719a.25.25 0 1 1-.178.468c-5.845-2.229-11.163-1.093-14.798 2.601-3.328 3.382-4.67 8.429-3.342 12.74a.25.25 0 0 1-.478.147c-1.383-4.49.01-9.727 3.463-13.237z"/><path d="M14.374 76.601c-.723-10.736 7.198-17.328 19.545-14.406a.25.25 0 1 1-.115.487c-12.021-2.845-19.631 3.488-18.932 13.886a.25.25 0 1 1-.498.033zM77.826 48.755l-.634.438a58.398 58.398 0 0 1-2.245 1.449 36.75 36.75 0 0 1-.94.553c-.473.27-.914.503-1.314.696a16.262 16.262 0 0 1-3.509 1.217l-.198.04c-.152.03-.257.048-.31.055a.3.3 0 0 0-.258.297c0 2.933 2.971 4.656 5.783 3.493C76.647 55.982 78.3 52.333 78.3 49a.3.3 0 0 0-.474-.245z"/></g><path fill="#fff" d="m77.682 49.585-.018.245c-.242 2.87-1.706 5.788-3.692 6.609l-.179.07c-2.258.821-4.536-.446-4.758-2.653l-.008-.105.074-.014c.269-.053.573-.122.906-.211.95-.255 1.947-.613 2.946-1.095.414-.199.866-.439 1.35-.714.309-.175.628-.364.955-.563a54.27 54.27 0 0 0 2.045-1.312z"/><path fill="#7f4331" d="m56.294 48.087.162.267a29.966 29.966 0 0 0 1.241 1.842c.278.375.546.712.8 1 .176.198.344.372.501.517.288.265.632.505 1.02.718.448.246.93.445 1.412.6l.266.081c.16.046.287.077.37.094a.3.3 0 0 1 .239.294 3.509 3.509 0 0 1-4.881 3.316c-1.928-.814-2.732-5.455-1.673-8.67a.3.3 0 0 1 .543-.059z"/><path fill="#fff" d="m56.141 48.978-.015.06c-.66 2.894.089 6.616 1.531 7.225l.155.06a2.9 2.9 0 0 0 3.873-2.452l.011-.137-.3-.085-.15-.047a8.646 8.646 0 0 1-1.517-.645 5.77 5.77 0 0 1-1.138-.803 7.773 7.773 0 0 1-.543-.561 15.382 15.382 0 0 1-.833-1.04 25.594 25.594 0 0 1-.688-.98z"/><path fill="#7f4331" d="M66.08 61.022c-.798 1.188-1.337 1.449-2.331 1.424l-.16-.006c-.922-.047-1.334.054-1.681.715-.357.678.002 1.287.716 1.628.502.24 1.222.382 2.028.413 1.799.072 3.61-.383 4.605-1.327 1.096-1.038 1.159-2.607.298-3.571-.912-1.022-2.331-.833-3.359.559z"/></g></g></svg>