<svg data-id="124-e08cb9c8b83a3bf-smile" xmlns="http://www.w3.org/2000/svg" xmlns:xlink="http://www.w3.org/1999/xlink" viewBox="0 0 100 100"><defs><path id="a" d="M6.632 55.391c.5 0 .75-.162.75-.487a.362.362 0 0 0-.056-.188c-.287-.3-.431-.925-.431-1.875 0-1.187-.025-1.862-.075-2.025.85-.162 1.706-.325 2.569-.487 1-.188 1.862-.294 2.587-.319.05.325.106 2.744.131 3.019.088.775.144 1.212.17 1.312.15.5.462.75.937.75.25 0 .468-.103.656-.309s.281-.434.281-.684c0-.1-.05-.307-.15-.62-.137-.374-.219-.943-.244-1.705l-.037-1.782c.566-.104.873-.247.919-.43.069-.276-.085-.407-.253-.62s-.347-.318-.535-.318c-.033 0-.083-.238-.15-.713-.025-1.8.125-3.006.45-3.619.025-.062.563-.562.563-.675 0-.387-.125-.728-.375-1.021s-.569-.441-.957-.441c-.65 0-1.08.9-1.293 2.7-.063.537-.113 1.725-.15 3.562-1.3 0-2.688.15-4.163.45-.475.088-.769.138-.881.15.112-2.087.281-3.48.506-4.18.013-.05.375-.938.375-1.088 0-.288-.131-.528-.394-.722s-.543-.29-.843-.29c-.488 0-.832.243-1.032.73-.237.6-.356 2-.356 4.2 0 .213-.019.5-.056.863-.038.425-.063.719-.075.881-.15.05-.306.103-.469.16s-.244.159-.244.309c0 .262.07.512.207.75s.325.381.562.431c.15 2.425.306 3.725.469 3.9.262.288.625.431 1.087.431zm11.38-9.85a.882.882 0 0 0 .281-.674c0-.338-.13-.616-.393-.834s-1.429-.241-1.622-.066-.29.4-.29.675c0 .325.14.6.421.825s1.416.25 1.603.075zm-.6 9.282c.225 0 .431-.144.619-.431-.138-.513-.206-.888-.206-1.125v-3.863c0-.225.3-1.687.3-1.912 0-.263-.2-.463-.6-.6a2.508 2.508 0 0 0-.938-.188c-.35 0-.525.113-.525.338 0 .062.006.125.019.187-.1.838-.15 1.875-.15 3.113 0 .737.062 1.837.187 3.3.075.787.507 1.181 1.294 1.181zm4.991-3.593c.175-.175.3-.312.375-.412-.137-.538-.206-.97-.206-1.294 0-.1.094-.725.094-.788.125-1.487.219-2.425.281-2.812.138-1.1.35-2.006.638-2.719.025-.037.262-.456.262-.544 0-.237-.15-.437-.45-.6a1.818 1.818 0 0 0-.787-.187c-.45 0-.832.131-1.144.394a1.173 1.173 0 0 0-.038.318c0 .225.041.566.122 1.022s.122.797.122 1.022c0 .575-.115 1.428-.347 2.56-.231 1.357-.347 2.21-.347 2.559 0 .55.094 1 .282 1.35.212.125 1.006.169 1.143.131zm-.73 3.525c1.087 0 1.63-.475 1.63-1.425 0-.25-.225-.456-.675-.619a2.85 2.85 0 0 0-.993-.187c-.888 0-1.332.362-1.332 1.087 0 .25.075.513.225.788.563.237.944.356 1.144.356z"/></defs><g fill="none" fill-rule="evenodd"><path fill="#a67b6c" d="M68.091 43.152c1.223.52 20.064-3.05 22.95-12.958 2.205-7.568-2.21-16.093-7.193-13.567-4.982 2.526 4.339 11.491-3.884 15.814-.74.39-1.97-6.03-4.827-3.485-2.857 2.546 2.628 5.285-1.35 8.225-2.732 2.02-5.508 3.236-6.836 4.288-1.589 1.26.93 1.594 1.14 1.683zM50.917 38.864c-1.324-.116-16.28-12.116-14.174-22.216C38.35 8.932 46.253 3.48 49.465 8.05s-9.228 8.105-3.999 15.783c.471.691 4.572-4.398 5.898-.81 1.327 3.59-4.802 3.43-2.671 7.894 1.463 3.065 3.343 5.444 4.021 6.996.812 1.857-1.57.97-1.797.95z"/><path fill="#e99c00" d="M74.895 47.976c2.611 2.535 4.833 6.457 7.845 4.436 3.012-2.022.564-10.14-5.212-11.582-3.921-.978-8.82.462-9.24 2.14s3.996 2.47 6.607 5.006zM42.608 39.947c-3.515.951-7.361 3.305-9.015.074-1.654-3.23 4.427-9.144 10.179-7.602 3.905 1.047 7.492 4.684 7.044 6.356s-4.694.222-8.208 1.172z"/><g fill="#ffd800"><path d="M54.9 93c14.723 0 22.876-4.762 21.903-24.631a80.419 80.419 0 0 0-.408-5.11c1.499-11.768 0-22.563-16.617-25.884-16.617-3.321-23.274 7.655-25.796 21.887-.496 2.8-.823 5.84-.983 9.107C32.026 88.238 40.179 93 54.901 93z"/><path d="M34.547 61.966c-7.35 5.754-8.482 14.658-4.971 16.468 3.51 1.81 6.44-3.595 7.114-8.154.856-2.825-1.495-9.61-2.143-8.314zM73.642 73.76c9.093-2.104 13.884-9.692 11.47-12.817s-7.356.533-9.895 4.377c-1.97 2.198-2.71 9.34-1.575 8.44z"/></g><path fill="#fff" d="M51.123 44.998c2.673-4.5 7.946-5.184 7.946-5.184s-2.61 1.999-1.931 5.611c2.76-3.612 7.521-1.549 8.913-5.212C67.21 37.166 64.128 35 60.621 35s-8.284 2.989-9.498 9.998z"/><g fill="#7f4331" fill-rule="nonzero"><path d="M36.248 16.558c1.704-8.171 10.192-13.953 13.8-8.82.824 1.172.839 2.38.184 3.668-.437.858-1.342 2.022-2.713 3.492-2.448 2.839-3.185 4.574-2.363 6.904.087.247.321.722.701 1.423l1.38-.954c1.278-.867 2.233-1.262 3.154-1.059.738.164 1.29.72 1.629 1.638.587 1.587.106 2.597-1.304 3.841l-.482.42c-1.417 1.262-1.674 1.975-.907 3.58.56 1.175 2.278 3.975 3.29 5.693l-1.258.222c-.979-1.64-2.383-3.801-3.115-5.397-1.094-2.387-.552-3.484 1.373-5.152l.47-.413c.942-.866 1.162-1.419.808-2.379-.208-.56-.46-.814-.763-.881-.484-.107-1.21.193-2.222.88-.117.08-.6.412-1.448.999-.627.381-1.04.468-1.399-.059a8.74 8.74 0 0 1-1.038-2.003c-1.04-2.947-.072-5.062 2.826-8.364 2.758-3.141 2.946-4.299 2.216-5.408-2.666-4.055-10.114 1.034-11.644 8.374-.883 4.232 1.338 9.252 5.67 14.34.43.505.863.982 1.296 1.432l-2.097-.523-.112-.13c-4.451-5.228-6.805-10.445-5.99-15.057zM91.654 30.393c2.334-8.013-2.444-17.105-8.04-14.268-1.277.647-1.858 1.706-1.884 3.151-.018.963.233 2.416.754 4.357.827 3.656.663 5.535-1.157 7.205-.194.178-.623.487-1.288.927l-.77-1.49c-.721-1.366-1.378-2.164-2.287-2.416-.728-.202-1.477.03-2.207.68-1.264 1.126-1.314 2.243-.653 4.004l.227.598c.659 1.779.551 2.529-.88 3.586-.91.673-3.172 2.02-4.865 3.045l.946.832c1.543-.913 3.414-1.983 4.632-2.912 2.087-1.593 2.123-2.816 1.208-5.193l-.22-.585c-.426-1.207-.36-1.799.403-2.48.446-.397.788-.503 1.088-.42.477.133.977.74 1.548 1.821.066.125.336.646.809 1.562.374.631.698.902 1.262.606a8.74 8.74 0 0 0 1.858-1.281c2.302-2.114 2.441-4.435 1.433-8.712-.958-4.068-.58-5.178.585-5.815 4.258-2.327 8.443 5.664 6.346 12.863-1.21 4.15-5.527 7.539-11.743 9.996-.507.2-1.008.384-1.5.55l1.678.668.264-.102c6.385-2.524 10.913-6.024 12.36-10.478z"/><path d="M43.87 31.884C38.065 30.328 30.916 36.271 33 40.34c.732 1.428 1.905 2.037 3.461 1.968.942-.042 1.676-.222 3.379-.798 1.535-.518 2.378-.8 2.53-.844.064-.018.239-.058.475-.105l1.866-1.497c-.851.048-1.61.158-2.318.35-.524.141-1.424.433-2.698.875-3.588 1.207-4.77 1.174-5.626-.496-1.533-2.994 4.571-8.068 9.49-6.75 2.548.684 5.166 2.705 6.193 4.256l1.368-.172c-.963-2.175-4.165-4.415-7.25-5.243zM77.679 40.178c5.827 1.454 9.194 10.114 5.4 12.66-1.332.895-2.652.859-3.98.043-.802-.493-1.356-1.006-2.565-2.336l-.814-.891-.856-2.59c.159.133.31.27.454.41.39.379 1.034 1.07 1.934 2.075 2.551 2.795 3.6 3.34 5.159 2.294 2.791-1.874-.084-9.27-5.023-10.501-2.314-.578-5.208-.227-6.961.48l-1.067-.943c2.034-1.132 5.501-1.404 8.319-.701zM60.573 34.356c-4.555 0-8.968 4.013-10.09 10.495-.114.656.767.981 1.107.409.76-1.28 2.67-3.457 5.755-4.448-.846 1.165-1.163 2.99-.846 4.68a.6.6 0 0 0 1.067.253c.756-.99 1.992-1.76 4.604-2.361 2.612-.601 3.71-1.203 4.394-3.002 1.268-3.339-1.832-6.026-5.991-6.026zm0 1.2c3.437 0 5.772 2.024 4.869 4.4-.457 1.201-1.164 1.665-3.028 2.135-1.864.47-3.608.751-4.835 1.906 0-1.906 1.318-3.378 1.806-3.75.487-.374.166-1.15-.442-1.072-.609.079-3.71.601-6.567 3.205 1.752-4.424 4.917-6.824 8.197-6.824zM34.177 61.494a.6.6 0 0 1 .74.944c-6.44 5.042-8.518 13.683-5.066 15.463 2.581 1.331 5.49-2.594 6.246-7.708a.6.6 0 1 1 1.187.175c-.86 5.813-4.322 10.487-7.984 8.599-4.467-2.304-2.14-11.98 4.877-17.473zM73.734 74.334a.6.6 0 0 1-.27-1.169c7.966-1.843 13.504-8.793 11.13-11.865-1.776-2.299-6.071.027-8.92 4.34a.6.6 0 1 1-1-.66c3.237-4.904 8.351-7.673 10.87-4.414 3.072 3.977-3.13 11.76-11.81 13.768z"/><path d="M77.476 72.468c-.26 15.54-7.171 21.132-22.575 21.132-13.34 0-20.306-4.314-22.105-15.484l1.077-.756C35.399 88.444 41.903 92.4 54.9 92.4c14.585 0 20.986-5.13 21.365-19.465zM66.162 38.593c9.73 3.914 12.38 11.712 10.837 24.672l.015-.14-1.098 1.314a74.59 74.59 0 0 0-.013-.131l-.104-.98v-.144c1.543-12.11-.864-19.56-9.831-23.352zM33.484 58.647c2.856-15.429 10.031-23.535 22.94-22.37l-1.4 1.112c-11.514-.457-17.854 7.318-20.45 21.978a63.278 63.278 0 0 0-.52 3.516l-1.234.547c.222-1.978.48-3.79.664-4.783z"/></g><g fill="#e65765" fill-rule="nonzero" transform="rotate(-31.02 20.557 44.415)"><use xlink:href="#a"/><use xlink:href="#a"/></g><path fill="#7f4331" fill-rule="nonzero" d="M64.686 59.258c-3.744 0-6.868-.345-9.373-1.034-3.757-1.033-8.628-3.417-8.76-3.49a.6.6 0 0 0-.832.27c-.193.77-.318 1.414-.375 1.932-.135 1.237-.108 2.5.141 3.732.71 3.499 3.056 6.082 7.427 7.173 4.463 1.114 7.788-.138 10.056-3.007a12.243 12.243 0 0 0 1.731-3.027c.165-.408.358-1.019.581-1.83a.6.6 0 0 0-.596-.719z"/><path fill="#f56d7b" d="M54.632 60.954c3.65.91 6.32 2.888 6.09 4.475-1.873 1.52-4.332 2.043-7.518 1.248-3.185-.795-5.11-2.411-6.05-4.636.547-1.507 3.83-1.997 7.478-1.087z"/><g fill="#7f4331" transform="rotate(14 -173.11 200.905)"><circle cx="2" cy="2" r="2"/><circle cx="26" cy="2" r="2"/></g></g></svg>