<svg data-id="125-d363e4ea0a8df7f-chicken" xmlns="http://www.w3.org/2000/svg" xmlns:xlink="http://www.w3.org/1999/xlink" viewBox="0 0 100 100"><defs><path id="a" d="M3.164 53.88c.25 0 .5-.091.75-.273s.375-.39.375-.628c0-.112-.096-.287-.29-.525s-.29-1.156-.29-2.756c0-.725.13-2.15.393-4.275.3.975.594 1.95.881 2.925.5 1.5.994 2.675 1.481 3.525.675 1.15 1.357 1.725 2.044 1.725.463 0 .85-.362 1.163-1.087a4.685 4.685 0 0 0 .375-1.688l.056-5.381c0-.725.181-1.656.544-2.794.025-.062.106-.231.243-.506.113-.213.17-.388.17-.525a.869.869 0 0 0-.02-.169c-.312-.225-.556-.337-.73-.337-.55 0-.988.518-1.313 1.556a9.237 9.237 0 0 0-.394 2.25l-.188 5.081c0 .125.016.3.047.525s.047.388.047.488c0 .35-.069.525-.206.525-.375 0-.944-1.157-1.706-3.47-.638-1.962-1.032-3.387-1.182-4.274-.037-.313-.075-.619-.112-.919-.063-.437-.131-.725-.206-.862-.275-.413-.732-.62-1.37-.62-.274 0-.55.07-.824.207-.338.163-.506.369-.506.619 0 .025.01.062.028.112s.028.088.028.113v2.287c0 .513-.063 1.275-.188 2.288s-.187 1.775-.187 2.287c0 .213-.006.528-.019.947s-.019.735-.019.947c0 .475.088 1 .263 1.575.225.738.512 1.106.862 1.106zm13.874-.181c1.725 0 3.08-.706 4.068-2.119.888-1.25 1.332-2.775 1.332-4.575 0-1.637-.394-3.075-1.182-4.312-.912-1.438-2.137-2.157-3.675-2.157-1.75 0-3.137.832-4.162 2.494-.888 1.413-1.331 3.044-1.331 4.894 0 1.425.23 2.562.693 3.412.538.988 1.432 1.682 2.682 2.082.562.187 1.087.28 1.575.28zM17 52.274c-.937 0-1.65-.25-2.137-.75-.425-.425-.744-1.119-.957-2.081-.1-.425-.15-.757-.15-.994 0-2.6.557-4.406 1.67-5.419.7-.625 1.4-.937 2.1-.937.224 0 .424.025.6.075 1.674.512 2.512 2.068 2.512 4.668 0 1.413-.25 2.607-.75 3.582-.65 1.237-1.613 1.856-2.888 1.856z"/></defs><g fill="none" fill-rule="evenodd"><path fill="#a67b6c" d="M56.66 37.316c1.305.254 18.99-7.154 19.752-17.445.582-7.86-5.508-15.28-9.856-11.774s6.633 10.337-.51 16.275c-.644.535-3.181-5.489-5.446-2.405-2.265 3.084 3.669 4.622.39 8.324-2.252 2.544-4.715 4.311-5.794 5.616-1.293 1.562 1.24 1.366 1.465 1.41zM46.025 38.061c-1.3.276-19.121-6.834-20.06-17.115-.716-7.854 5.252-15.38 9.662-11.947 4.41 3.434-6.46 10.454.788 16.273.653.524 3.089-5.545 5.407-2.499 2.319 3.047-3.592 4.687-.249 8.335 2.297 2.506 4.792 4.232 5.894 5.519 1.32 1.54-1.218 1.387-1.442 1.434z"/><path fill="#e99c00" d="M38.377 42.572c-3.148 1.828-6.254 5.097-8.688 2.406C27.255 42.286 31.597 35 37.551 35 41.594 35 46 37.584 46 39.314s-4.475 1.43-7.623 3.258z"/><path fill="#ffd800" d="M51.9 90c14.723 0 22.876-4.762 21.903-24.631C72.829 45.5 65.674 34 51.9 34c-13.774 0-20.929 11.5-21.902 31.369C29.026 85.238 37.179 90 51.901 90z"/><path fill="#ffd800" d="M31.832 62.15c-6.459 4.907-7.526 13.536-4.016 15.346 3.51 1.81 5.598-3.058 5.598-7.999.856-2.826-.934-8.644-1.582-7.348z"/><path fill="#e99c00" d="M63.475 42.816c2.07 1.872 4.494 4.243 6.928 1.551 2.434-2.691-.93-8.944-6.928-8.944-4.043 0-5.13 1.155-5.13 2.885s3.06 2.635 5.13 4.508z"/><path fill="#fff" d="M40.123 45.998c2.673-4.5 7.946-5.184 7.946-5.184s-2.61 1.999-1.931 5.611c2.76-3.612 7.521-1.549 8.913-5.212C56.21 38.166 53.128 36 49.621 36s-8.284 2.989-9.498 9.998z"/><g fill-rule="nonzero"><g fill="#7f4331"><path d="M25.41 21.015c-.759-8.318 5.674-16.332 10.628-12.475 1.13.88 1.498 2.032 1.247 3.456-.167.95-.692 2.327-1.575 4.135-1.512 3.432-1.71 5.308-.243 7.297.157.212.519.598 1.087 1.157l1.042-1.316c.97-1.203 1.768-1.86 2.71-1.935.753-.06 1.444.312 2.036 1.09 1.026 1.348.862 2.455-.124 4.058l-.338.543c-.988 1.621-1.025 2.379.178 3.692.736.803 2.579 2.457 4.023 3.766l-1.15.583c-1.292-1.145-2.798-2.458-3.758-3.538-1.745-1.965-1.547-3.172-.192-5.331l.328-.533c.649-1.104.698-1.698.078-2.513-.362-.475-.678-.645-.988-.62-.494.039-1.1.539-1.869 1.491-.089.11-.453.57-1.093 1.38-.489.548-.858.752-1.356.353a8.745 8.745 0 0 1-1.58-1.614c-1.856-2.516-1.548-4.823.26-8.83 1.72-3.812 1.562-4.975.54-5.823-3.737-3.1-9.377 3.946-8.695 11.418.393 4.308 3.985 8.462 9.619 12.065a32.55 32.55 0 0 0 3.607 1.995l-2.385.124c-.622-.34-1.247-.71-1.869-1.107-5.916-3.784-9.733-8.198-10.168-12.968zM77.049 19.916c.617-8.323-5.947-16.221-10.83-12.283-1.115.898-1.462 2.055-1.188 3.474.183.945.731 2.314 1.644 4.104 1.569 3.404 1.799 5.275.366 7.287-.152.214-.508.606-1.066 1.175l-1.063-1.298c-.99-1.186-1.798-1.83-2.74-1.887-.753-.047-1.438.336-2.017 1.124-1.001 1.364-.818 2.467.194 4.051l.347.538c1.014 1.603 1.064 2.359-.116 3.69-.837.946-3.142 3.06-4.6 4.438l1.324.4c1.36-1.26 3.112-2.805 4.174-4.042 1.71-1.992 1.491-3.195.102-5.33l-.337-.526c-.667-1.092-.726-1.684-.12-2.509.353-.481.665-.656.975-.637.495.03 1.11.52 1.893 1.459.09.108.463.561 1.116 1.36.497.539.87.736 1.36.329a8.738 8.738 0 0 0 1.551-1.64c1.813-2.545 1.466-4.844-.41-8.817-1.783-3.78-1.644-4.944-.637-5.81 3.68-3.16 9.436 3.785 8.881 11.261-.32 4.312-3.838 8.523-9.406 12.219a32.75 32.75 0 0 1-6.73 3.415l1.81.549a32.636 32.636 0 0 0 5.584-2.965c5.847-3.88 9.585-8.355 9.939-13.129z"/><path d="M37.51 34.392c-6.007 0-11.373 7.59-8.307 10.98 1.076 1.19 2.367 1.475 3.852 1.005.472-.15.878-.32 1.374-.594l1.337-2.268-.11.075c-3.154 2.094-4.304 2.369-5.563.977-2.255-2.494 2.326-8.975 7.417-8.975 1.495 0 3.121.408 4.504.986l1.325-.857c-1.709-.822-3.86-1.33-5.829-1.33z"/><path d="M69.763 44.595c2.678 5.209 4.243 12.171 4.663 20.751.916 18.69-5.803 25.26-22.5 25.26-12.257 0-19.132-3.64-21.564-12.895l1.068-.528c2.214 8.946 8.665 12.224 20.495 12.224 16.03 0 22.175-6.198 21.303-24.002-.407-8.295-1.88-14.99-4.391-19.992zM51.925 33.407c3.325 0 6.292.65 8.895 1.925l-.933.9c-2.353-1.079-5.009-1.625-7.962-1.625-12.639 0-19.839 10.015-21.186 28.865l-1.227.348c1.31-19.687 8.916-30.413 22.413-30.413z"/><path d="M49.725 35.371c-4.555 0-8.968 4.014-10.09 10.496-.114.656.767.981 1.107.408.76-1.28 2.67-3.457 5.755-4.448-.846 1.166-1.164 2.991-.846 4.68a.6.6 0 0 0 1.066.254c.757-.99 1.993-1.76 4.605-2.362 2.612-.6 3.71-1.202 4.393-3.002 1.27-3.338-1.83-6.026-5.99-6.026zm0 1.2c3.436 0 5.771 2.025 4.869 4.4-.457 1.202-1.164 1.666-3.028 2.136-1.864.47-3.608.751-4.835 1.905 0-1.905 1.318-3.377 1.805-3.75.488-.373.167-1.15-.442-1.071-.608.079-3.71.6-6.566 3.204 1.751-4.424 4.917-6.824 8.197-6.824zM63.475 34.823c-3.99 0-5.73 1.131-5.73 3.485 0 .973.602 1.702 1.81 2.534.934.6 1.586 1.017 1.957 1.251.583.37 1.292.93 2.126 1.68 3.053 2.746 5.043 3.393 7.21.997 3.082-3.408-1.347-9.947-7.373-9.947zm0 1.2c5.099 0 8.767 5.416 6.483 7.942-1.503 1.662-2.826 1.292-5.302-.892-.962-.892-1.696-1.49-2.203-1.795a69.388 69.388 0 0 1-2.217-1.424c-.91-.627-1.29-1.089-1.29-1.546 0-1.555 1.122-2.285 4.529-2.285zM31.47 61.672a.6.6 0 1 1 .725.955c-5.707 4.337-7.46 12.605-4.104 14.336 1.338.69 2.437.245 3.325-1.242.88-1.472 1.398-3.797 1.398-6.224a.6.6 0 0 1 1.2 0c0 2.627-.565 5.161-1.567 6.839-1.19 1.99-2.95 2.703-4.906 1.694-4.35-2.244-2.373-11.57 3.928-16.358zM60.023 62.061a.6.6 0 0 0-.399 1.131l.507.19.644.255c.224.091.459.19.701.293a34.856 34.856 0 0 1 3.973 1.993c3.734 2.212 5.394 4.405 4.28 6.377-1.042 1.845-3.632 1.926-7.33.567-1.383-.509-2.829-1.188-4.265-1.968-.516-.28-1.004-.56-1.455-.829l-.693-.423a16.65 16.65 0 0 1-.309-.198.6.6 0 0 0-.66 1l.442.283.264.162c.556.34 1.174.698 1.838 1.059 1.484.806 2.98 1.509 4.424 2.04 4.194 1.542 7.35 1.442 8.788-1.103 1.574-2.786-.468-5.485-4.713-7.999a36.023 36.023 0 0 0-4.11-2.063c-.25-.107-.492-.208-.723-.302l-.665-.264a22.023 22.023 0 0 0-.539-.201zM46.104 54.003a.6.6 0 0 1 .77.098c.195.213.52.574 1.183.918 1.172.607 2.838.978 5.087.978a.6.6 0 1 1 0 1.2c-2.434 0-4.288-.413-5.64-1.113-.85-.441-1.35-.905-1.576-1.251a.6.6 0 0 1 .176-.83zM37.565 53.346c-.057.023-.178.075-.363.155-.696.304-1.916.496-3.772.496a.6.6 0 1 0 0 1.2c2.007 0 3.382-.217 4.252-.596.628-.273.952-.615 1.04-.937a.6.6 0 0 0-1.125-.408zM42 59.4c-1.034 0-1.6 1.415-1.6 3.1s.566 3.1 1.6 3.1 1.6-1.415 1.6-3.1-.566-3.1-1.6-3.1z"/></g><g fill="#e65765" transform="rotate(-31.02 25.542 41.201)"><use xlink:href="#a"/><use xlink:href="#a"/></g></g></g></svg>