<svg data-id="128-327ae8f1b072917-chicken" xmlns="http://www.w3.org/2000/svg" viewBox="0 0 100 100"><g fill="none" fill-rule="evenodd"><path fill="#a67b6c" d="M58.854 39.538c1.312.208 18.733-7.818 19.135-18.133.307-7.879-6.042-15.084-10.266-11.426-4.224 3.658 6.994 10.103.06 16.29-.625.556-3.372-5.377-5.529-2.214-2.156 3.162 3.83 4.492.682 8.308-2.163 2.622-4.563 4.475-5.596 5.818-1.238 1.607 1.288 1.321 1.514 1.357zM41.146 39.532c-1.312.208-18.733-7.816-19.135-18.13-.307-7.877 6.042-15.08 10.266-11.423s-6.994 10.1-.06 16.286c.625.557 3.372-5.375 5.529-2.213 2.156 3.161-3.83 4.491-.682 8.307 2.163 2.62 4.563 4.474 5.596 5.816 1.238 1.606-1.288 1.321-1.514 1.357z"/><path fill="#e99c00" d="M66.623 42.572c3.148 1.828 6.254 5.097 8.688 2.406C77.745 42.286 73.403 35 67.449 35 63.406 35 59 37.584 59 39.314s4.475 1.43 7.623 3.258zM33.377 42.572c-3.148 1.828-6.254 5.097-8.688 2.406C22.255 42.286 26.597 35 32.551 35 36.594 35 41 37.584 41 39.314s-4.475 1.43-7.623 3.258z"/><g fill="#ffd800"><path d="M49.9 90c14.723 0 22.876-4.762 21.903-24.631C70.829 45.5 63.674 34 49.9 34c-13.774 0-20.929 11.5-21.902 31.369C27.026 85.238 35.179 90 49.901 90z"/><path d="M29.884 61c-7.35 5.754-8.481 14.658-4.971 16.468 3.51 1.81 6.44-3.595 7.115-8.154.856-2.825-1.496-9.61-2.144-8.314zM70.143 61c7.35 5.754 8.482 14.658 4.971 16.468s-6.44-3.595-7.114-8.154c-.856-2.825 1.495-9.61 2.143-8.314z"/></g><path fill="#fff" d="M41.123 43.998c2.673-4.5 7.946-5.184 7.946-5.184s-2.61 1.999-1.931 5.611c2.76-3.612 7.521-1.549 8.913-5.212C57.21 36.166 54.128 34 50.621 34s-8.284 2.989-9.498 9.998z"/><g fill="#7f4331"><g fill-rule="nonzero"><path d="M21.495 21.389c-.325-8.343 6.513-16.01 11.258-11.901 1.083.937 1.39 2.106 1.066 3.514-.216.94-.812 2.288-1.788 4.046-1.687 3.348-1.983 5.211-.621 7.273.145.22.487.623 1.025 1.211l1.108-1.26c1.031-1.15 1.862-1.765 2.805-1.79.755-.02 1.426.386 1.977 1.194.954 1.399.733 2.495-.335 4.044l-.366.525c-1.07 1.567-1.146 2.321-.013 3.694.693.84 2.446 2.587 3.82 3.97l-1.178.522c-1.231-1.21-2.666-2.6-3.568-3.728-1.64-2.052-1.38-3.247.085-5.332l.355-.515c.706-1.068.785-1.658.209-2.504-.337-.494-.643-.68-.954-.67-.495.012-1.127.48-1.943 1.391-.095.105-.482.546-1.163 1.32-.517.522-.896.707-1.372.282a8.742 8.742 0 0 1-1.493-1.693c-1.723-2.608-1.296-4.895.718-8.802 1.915-3.716 1.818-4.885.84-5.785-3.568-3.289-9.565 3.453-9.273 10.947.169 4.321 3.539 8.655 8.976 12.545.539.385 1.075.743 1.604 1.076h-2.162l-.14-.1c-5.586-3.996-9.134-8.489-9.46-13.162zM78.648 21.328c.325-8.343-6.513-16.01-11.258-11.901-1.082.937-1.39 2.106-1.065 3.514.216.94.812 2.288 1.787 4.046 1.688 3.348 1.983 5.211.621 7.273-.144.219-.486.623-1.025 1.211l-1.108-1.26c-1.03-1.15-1.861-1.766-2.805-1.79-.755-.02-1.426.386-1.977 1.194-.954 1.398-.732 2.495.335 4.044l.366.525c1.07 1.567 1.147 2.321.014 3.694-.721.874-2.59 2.729-3.984 4.133l1.119.578c1.276-1.26 2.834-2.75 3.79-3.947 1.64-2.052 1.38-3.247-.085-5.332l-.355-.515c-.705-1.069-.785-1.659-.208-2.504.336-.494.642-.68.953-.671.495.013 1.127.48 1.944 1.392.094.105.482.545 1.163 1.32.516.522.896.706 1.371.282a8.742 8.742 0 0 0 1.494-1.693c1.723-2.609 1.295-4.895-.719-8.802-1.915-3.716-1.817-4.885-.84-5.785 3.569-3.29 9.565 3.452 9.273 10.947-.168 4.321-3.539 8.655-8.976 12.545-.571.409-1.14.787-1.7 1.136h2.171l.227-.16c5.586-3.996 9.134-8.49 9.46-13.163z"/><path d="M32.68 34.362c-6.007 0-11.372 7.59-8.306 10.98 1.076 1.19 2.366 1.475 3.852 1.005.898-.284 1.56-.647 3.056-1.645 1.348-.898 2.09-1.388 2.224-1.47.043-.026.142-.079.28-.148l1.301-1.914c-.7.244-1.32.519-1.882.846-.47.273-1.263.788-2.38 1.545-3.152 2.094-4.303 2.369-5.561.977-2.256-2.495 2.325-8.976 7.417-8.976 2.152 0 4.58.848 6.157 1.83.353-.235.752-.498 1.195-.79-1.797-1.343-4.735-2.24-7.352-2.24zM67.492 34.385c6.008 0 11.373 7.59 8.307 10.98-1.076 1.19-2.366 1.475-3.852 1.005-.898-.284-1.56-.648-3.056-1.646a166.44 166.44 0 0 0-2.224-1.47 5.272 5.272 0 0 0-.28-.148l-1.301-1.913c.7.243 1.32.518 1.882.845.47.273 1.263.788 2.38 1.545 3.152 2.095 4.303 2.37 5.561.977 2.256-2.494-2.325-8.975-7.417-8.975-2.152 0-4.58.848-6.157 1.829l-1.195-.79c1.797-1.343 4.735-2.239 7.352-2.239z"/><path d="m70.684 76.148 1.07.77c-2.235 9.893-9.154 13.644-21.77 13.644-12.475 0-19.376-3.773-21.69-13.399l1.035-.718c2.05 9.471 8.525 12.917 20.656 12.917 12.226 0 18.701-3.605 20.7-13.214zm-20.7-42.786c13.384 0 20.975 10.545 22.38 29.913l-1.304-1.239c-1.598-17.95-8.75-27.474-21.075-27.474-12.324 0-19.477 9.522-21.075 27.471l-1.304 1.243c1.404-19.368 8.996-29.914 22.379-29.914z"/><path d="M29.609 60.626a.6.6 0 1 1 .74.945c-6.44 5.041-8.518 13.682-5.067 15.462 2.582 1.332 5.49-2.593 6.247-7.708a.6.6 0 1 1 1.187.176c-.86 5.813-4.323 10.487-7.984 8.599-4.467-2.304-2.14-11.98 4.877-17.474zM70.562 60.626a.6.6 0 1 0-.74.945c6.44 5.041 8.518 13.682 5.067 15.462-2.582 1.332-5.49-2.593-6.247-7.708a.6.6 0 1 0-1.187.176c.86 5.813 4.323 10.487 7.984 8.599 4.467-2.304 2.14-11.98-4.877-17.474zM50.593 33.464c-4.555 0-8.968 4.014-10.09 10.495-.114.657.767.982 1.107.41.76-1.281 2.67-3.458 5.755-4.449-.846 1.165-1.163 2.991-.846 4.68a.6.6 0 0 0 1.066.254c.757-.99 1.993-1.76 4.605-2.362 2.612-.6 3.71-1.203 4.394-3.002 1.268-3.338-1.832-6.026-5.991-6.026zm0 1.2c3.437 0 5.772 2.025 4.869 4.4-.457 1.202-1.164 1.666-3.028 2.136-1.864.47-3.608.75-4.835 1.905 0-1.905 1.318-3.377 1.806-3.75s.166-1.15-.442-1.071-3.71.6-6.567 3.204c1.752-4.424 4.917-6.824 8.197-6.824z"/></g><path d="M41.627 54a2 2 0 1 0 0-4c-.67 0-5.627.12-5.627.837 0 .718 3.627.73 3.627 1.163a2 2 0 0 0 2 2zM59.627 54a2 2 0 1 0 0-4c-.67 0-5.627.12-5.627.837 0 .718 3.627.73 3.627 1.163a2 2 0 0 0 2 2z"/><path fill-rule="nonzero" d="M49.835 58.036c1.026-.584 2.13-.743 3.185-.175.262.142.512.326.748.554.236.228.575.556.782.667.627.338 1.32.238 2.023-.161a3.07 3.07 0 0 0 .522-.363.6.6 0 1 1 .81.884 4.2 4.2 0 0 1-.74.522c-1.026.584-2.13.743-3.185.175-.262-.142-.724-.518-.922-.733a2.34 2.34 0 0 0-.608-.488c-.627-.338-1.32-.238-2.023.161-.165.094-.926.695-1.262.885-1.026.584-2.13.743-3.185.175a3.407 3.407 0 0 1-.748-.554c-.236-.228-.575-.556-.782-.667-.627-.338-1.32-.238-2.023.161a3.07 3.07 0 0 0-.522.363.6.6 0 1 1-.81-.884 4.2 4.2 0 0 1 .74-.522c1.026-.584 2.13-.743 3.185-.175.262.142.724.518.922.733.198.216.4.377.608.488.627.338 1.32.238 2.023-.161.165-.094.926-.695 1.262-.885z"/></g></g></svg>