<svg data-id="129-d031d4dbee2628e-smile" xmlns="http://www.w3.org/2000/svg" viewBox="0 0 100 100"><g fill="none" fill-rule="evenodd"><path fill="#a67b6c" d="M58.854 42.538c1.312.208 18.733-7.818 19.135-18.133.307-7.879-6.042-15.084-10.266-11.426-4.224 3.658 6.994 10.103.06 16.29-.625.556-3.372-5.377-5.529-2.214-2.156 3.162 3.83 4.492.682 8.308-2.163 2.622-4.563 4.475-5.596 5.818-1.238 1.607 1.288 1.321 1.514 1.357zM41.146 42.532c-1.312.208-18.733-7.816-19.135-18.13-.307-7.877 6.042-15.08 10.266-11.423s-6.994 10.1-.06 16.286c.625.557 3.372-5.375 5.529-2.213 2.156 3.161-3.83 4.491-.682 8.307 2.163 2.62 4.563 4.474 5.596 5.816 1.238 1.606-1.288 1.321-1.514 1.357z"/><path fill="#e99c00" d="M66.623 45.572c3.148 1.828 6.254 5.097 8.688 2.406C77.745 45.286 73.403 38 67.449 38 63.406 38 59 40.584 59 42.314s4.475 1.43 7.623 3.258zM33.377 45.572c-3.148 1.828-6.254 5.097-8.688 2.406C22.255 45.286 26.597 38 32.551 38 36.594 38 41 40.584 41 42.314s-4.475 1.43-7.623 3.258z"/><g fill="#ffd800"><path d="M49.9 93c14.723 0 22.876-4.762 21.903-24.631C70.829 48.5 63.674 37 49.9 37c-13.774 0-20.929 11.5-21.902 31.369C27.026 88.238 35.179 93 49.901 93z"/><path d="M29.547 61.966c-7.35 5.754-8.482 14.658-4.971 16.468 3.51 1.81 6.44-3.595 7.114-8.154.856-2.825-1.495-9.61-2.143-8.314zM69.806 61.966c7.35 5.754 8.482 14.658 4.972 16.468-3.51 1.81-6.441-3.595-7.115-8.154-.856-2.825 1.495-9.61 2.143-8.314z"/></g><path fill="#fff" d="M42.123 44.998c2.673-4.5 7.946-5.184 7.946-5.184s-2.61 1.999-1.931 5.611c2.76-3.612 7.521-1.549 8.913-5.212C58.21 37.166 55.128 35 51.621 35s-8.284 2.989-9.498 9.998z"/><g fill="#7f4331" fill-rule="nonzero"><path d="M21.411 24.427c-.325-8.343 6.513-16.01 11.258-11.901 1.083.937 1.39 2.106 1.066 3.514-.216.94-.812 2.288-1.788 4.046-1.687 3.348-1.983 5.211-.621 7.273.145.22.487.623 1.025 1.211l1.108-1.26c1.031-1.15 1.862-1.765 2.805-1.79.755-.02 1.426.386 1.977 1.194.954 1.399.733 2.495-.335 4.044l-.366.525c-1.07 1.567-1.146 2.321-.013 3.694.693.84 2.446 2.587 3.82 3.97l-1.178.522c-1.231-1.21-2.666-2.6-3.568-3.728-1.64-2.052-1.38-3.247.085-5.332l.355-.515c.706-1.068.785-1.658.209-2.504-.337-.494-.643-.68-.954-.67-.495.012-1.127.48-1.943 1.391-.095.105-.482.546-1.163 1.32-.517.522-.896.707-1.372.282a8.742 8.742 0 0 1-1.493-1.693c-1.723-2.608-1.296-4.895.718-8.802 1.915-3.716 1.818-4.885.84-5.785-3.568-3.289-9.565 3.453-9.273 10.947.169 4.321 3.539 8.655 8.976 12.545.539.385 1.075.743 1.604 1.076h-2.162l-.14-.1c-5.586-3.996-9.134-8.489-9.46-13.162zM78.564 24.366c.325-8.343-6.513-16.01-11.258-11.901-1.082.937-1.39 2.106-1.065 3.514.216.94.812 2.288 1.787 4.046 1.688 3.348 1.983 5.211.621 7.273-.144.219-.486.623-1.025 1.211l-1.108-1.26c-1.03-1.15-1.861-1.766-2.805-1.79-.755-.02-1.426.386-1.977 1.194-.954 1.398-.732 2.495.335 4.044l.366.525c1.07 1.567 1.147 2.321.014 3.694-.721.874-2.59 2.729-3.984 4.133l1.119.578c1.276-1.26 2.834-2.75 3.79-3.947 1.64-2.052 1.38-3.247-.085-5.332l-.355-.515c-.705-1.069-.785-1.659-.208-2.504.336-.494.642-.68.953-.671.495.013 1.127.48 1.944 1.392.094.105.482.545 1.163 1.32.516.522.896.706 1.371.282a8.742 8.742 0 0 0 1.494-1.693c1.723-2.609 1.295-4.895-.719-8.802-1.915-3.716-1.817-4.885-.84-5.785 3.569-3.29 9.565 3.452 9.273 10.947-.168 4.321-3.539 8.655-8.976 12.545-.571.409-1.14.787-1.7 1.136h2.171l.227-.16c5.586-3.996 9.134-8.49 9.46-13.163z"/><path d="M32.597 37.4c-6.008 0-11.373 7.59-8.307 10.98 1.076 1.19 2.366 1.475 3.852 1.005.898-.284 1.56-.647 3.056-1.645 1.348-.898 2.09-1.388 2.224-1.47.043-.026.142-.079.28-.148l1.301-1.914c-.7.244-1.32.519-1.882.846-.47.273-1.263.788-2.38 1.545-3.152 2.094-4.303 2.369-5.561.977-2.256-2.495 2.325-8.976 7.417-8.976 2.152 0 4.58.848 6.157 1.83.353-.235.752-.498 1.195-.79-1.797-1.343-4.735-2.24-7.352-2.24zM67.408 37.423c6.008 0 11.373 7.59 8.307 10.98-1.076 1.19-2.366 1.475-3.852 1.005-.898-.284-1.56-.648-3.056-1.646a166.44 166.44 0 0 0-2.224-1.47 5.272 5.272 0 0 0-.28-.148l-1.301-1.913c.7.243 1.32.518 1.882.845.47.273 1.263.788 2.38 1.545 3.152 2.095 4.303 2.37 5.561.977 2.256-2.494-2.325-8.975-7.417-8.975-2.152 0-4.58.848-6.157 1.829l-1.195-.79c1.797-1.343 4.735-2.239 7.352-2.239z"/><path d="M28.859 77.26c1.5 11.16 8.004 15.14 21.042 15.14 12.906 0 19.404-4.017 20.991-14.874l1.135.547C70.26 89.377 63.287 93.6 49.901 93.6c-13.383 0-20.35-4.34-22.122-15.59zm28.46-39.575c8.313 3.17 13.284 12.143 14.744 26.177l-1.321-1.032c-1.523-12.685-6.048-20.778-13.422-23.842zM46.607 36.63l-.878 1.373c-9.05 1.834-14.626 9.922-16.52 23.67l-1.407 1.604c1.78-15.861 8.132-25.11 18.805-26.647z"/><path d="M29.177 61.494a.6.6 0 0 1 .74.945C23.477 67.48 21.399 76.12 24.85 77.9c2.581 1.332 5.49-2.594 6.246-7.708a.6.6 0 0 1 1.187.176c-.86 5.813-4.322 10.487-7.984 8.599-4.467-2.304-2.14-11.98 4.877-17.474zM70.13 61.494a.6.6 0 1 0-.74.945c6.44 5.041 8.518 13.682 5.066 15.462-2.581 1.332-5.49-2.594-6.246-7.708a.6.6 0 0 0-1.187.176c.86 5.813 4.322 10.487 7.984 8.599 4.467-2.304 2.14-11.98-4.877-17.474zM51.622 34.4c-4.555 0-8.968 4.014-10.09 10.496-.114.656.767.981 1.107.408.76-1.28 2.67-3.457 5.755-4.448-.846 1.166-1.164 2.991-.846 4.68a.6.6 0 0 0 1.066.254c.757-.99 1.993-1.76 4.605-2.361 2.612-.601 3.71-1.203 4.393-3.003 1.27-3.338-1.83-6.026-5.99-6.026zm0 1.2c3.436 0 5.771 2.025 4.869 4.4-.457 1.202-1.164 1.666-3.028 2.136-1.864.47-3.608.751-4.835 1.905 0-1.905 1.318-3.377 1.805-3.75s.167-1.15-.442-1.071-3.71.601-6.566 3.204C45.176 38 48.342 35.6 51.622 35.6z"/></g><path fill="#7f4331" fill-rule="nonzero" d="M59.347 60.92c-.37.097-5.441 1.345-9.347 1.266s-9.007-1.176-9.347-1.266a.6.6 0 0 0-.742.464c-.065.333-.001 1.19.104 1.965.168 1.233.5 2.452 1.04 3.588C42.592 70.16 45.495 72.1 50 72.1c4.602 0 7.526-2.02 9.032-5.353.484-1.07.787-2.208.947-3.357.091-.655.138-1.536.12-1.918s-.382-.65-.752-.552z"/><path fill="#f56d7b" d="M50 65c3.763 0 6.833 1.273 6.993 2.868C55.544 69.798 53.285 70.9 50 70.9c-3.283 0-5.543-1.103-6.993-3.034C43.17 66.27 46.239 65 50 65z"/><g fill="#7f4331" transform="translate(21 11)"><circle cx="17" cy="46" r="2"/><circle cx="41" cy="46" r="2"/></g></g></svg>