<svg data-id="130-0284f62e00eda2f-angle" xmlns="http://www.w3.org/2000/svg" viewBox="0 0 100 100"><g fill="none" fill-rule="evenodd"><path fill="#a67b6c" d="M58.854 44.538c1.312.208 18.733-7.818 19.135-18.133.307-7.879-6.042-15.084-10.266-11.426-4.224 3.658 6.994 10.103.06 16.29-.625.556-3.372-5.377-5.529-2.214-2.156 3.162 3.83 4.492.682 8.308-2.163 2.622-4.563 4.475-5.596 5.818-1.238 1.607 1.288 1.321 1.514 1.357zM41.146 44.532c-1.312.208-18.733-7.816-19.135-18.13-.307-7.877 6.042-15.08 10.266-11.423s-6.994 10.1-.06 16.286c.625.557 3.372-5.375 5.529-2.213 2.156 3.161-3.83 4.491-.682 8.307 2.163 2.62 4.563 4.474 5.596 5.816 1.238 1.606-1.288 1.321-1.514 1.357z"/><path fill="#e99c00" d="M66.623 47.572c3.148 1.828 6.254 5.097 8.688 2.406C77.745 47.286 73.403 40 67.449 40 63.406 40 59 42.584 59 44.314s4.475 1.43 7.623 3.258zM33.377 47.572c-3.148 1.828-6.254 5.097-8.688 2.406C22.255 47.286 26.597 40 32.551 40 36.594 40 41 42.584 41 44.314s-4.475 1.43-7.623 3.258z"/><path fill="#ffd800" d="M49.9 95c14.723 0 22.876-4.762 21.903-24.631C70.829 50.5 63.674 39 49.9 39c-13.774 0-20.929 11.5-21.902 31.369C27.026 90.238 35.179 95 49.901 95z"/><path fill="#fff" d="M42.123 50.998c2.673-4.5 7.946-5.184 7.946-5.184s-2.61 1.999-1.931 5.611c2.76-3.612 7.521-1.549 8.913-5.212C58.21 43.166 55.128 41 51.621 41s-8.284 2.989-9.498 9.998z"/><g fill="#ff608b"><path d="M8.592 33.462 3 31.032l5.592-2.43L11.022 19l2.43 9.603 5.591 2.43-5.592 2.429-2.43 9.603zM9.068 74.52 5 72.753l4.068-1.768L10.835 64l1.767 6.985 4.068 1.768-4.068 1.767-1.767 6.985zM17.546 91.172 14 89.631l3.546-1.54L19.087 82l1.541 6.09 3.547 1.541-3.547 1.541-1.54 6.09zM86.546 56.172 83 54.631l3.546-1.54L88.087 47l1.541 6.09 3.547 1.541-3.547 1.541-1.54 6.09zM33.546 12.172 30 10.631l3.546-1.54L35.087 3l1.541 6.09 3.547 1.541-3.547 1.541-1.54 6.09zM88.546 20.172 85 18.631l3.546-1.54L90.087 11l1.541 6.09 3.547 1.541-3.547 1.541-1.54 6.09zM82.068 90.52 78 88.753l4.068-1.768L83.835 80l1.767 6.985 4.068 1.768-4.068 1.767-1.767 6.985z"/></g><g transform="translate(1)"><g fill="#7f4331"><g fill-rule="nonzero"><path d="M20.434 26.503c-.325-8.343 6.513-16.01 11.258-11.901 1.083.937 1.39 2.106 1.066 3.514-.216.94-.812 2.288-1.788 4.046-1.687 3.348-1.983 5.211-.621 7.273.145.22.487.623 1.025 1.211l1.108-1.26c1.031-1.15 1.862-1.765 2.805-1.79.755-.02 1.426.386 1.977 1.194.954 1.399.733 2.495-.335 4.044l-.366.525c-1.07 1.567-1.146 2.321-.013 3.694.693.84 2.446 2.587 3.82 3.97l-1.178.522c-1.231-1.21-2.666-2.6-3.568-3.728-1.64-2.052-1.38-3.247.085-5.332l.355-.515c.706-1.068.785-1.658.209-2.504-.337-.494-.643-.68-.954-.67-.495.012-1.127.48-1.943 1.391-.095.105-.482.546-1.163 1.32-.517.522-.896.707-1.372.282a8.742 8.742 0 0 1-1.493-1.693c-1.723-2.608-1.296-4.895.718-8.802 1.915-3.716 1.818-4.885.84-5.785-3.568-3.289-9.565 3.453-9.273 10.947.169 4.321 3.539 8.655 8.976 12.545.539.385 1.075.743 1.604 1.076H30.05l-.14-.1c-5.586-3.996-9.134-8.489-9.46-13.162zM77.587 26.442c.325-8.343-6.513-16.01-11.258-11.901-1.082.937-1.39 2.106-1.065 3.514.216.94.812 2.288 1.787 4.046 1.688 3.348 1.983 5.211.621 7.273-.144.219-.486.623-1.025 1.211l-1.108-1.26c-1.03-1.15-1.861-1.766-2.805-1.79-.755-.02-1.426.386-1.977 1.194-.954 1.398-.732 2.495.335 4.044l.366.525c1.07 1.567 1.147 2.321.014 3.694-.721.874-2.59 2.729-3.984 4.133l1.119.578c1.276-1.26 2.834-2.75 3.79-3.947 1.64-2.052 1.38-3.247-.085-5.332l-.355-.515c-.705-1.069-.785-1.659-.208-2.504.336-.494.642-.68.953-.671.495.013 1.127.48 1.944 1.392.094.105.482.545 1.163 1.32.516.522.896.706 1.371.282a8.742 8.742 0 0 0 1.494-1.693c1.723-2.609 1.295-4.895-.719-8.802-1.915-3.716-1.817-4.885-.84-5.785 3.569-3.29 9.565 3.452 9.273 10.947-.168 4.321-3.539 8.655-8.976 12.545-.571.409-1.14.787-1.7 1.136h2.171l.227-.16c5.586-3.996 9.134-8.49 9.46-13.163z"/><path d="M31.62 39.476c-6.008 0-11.373 7.59-8.307 10.98 1.076 1.19 2.366 1.475 3.852 1.005.898-.284 1.56-.647 3.056-1.645 1.348-.898 2.09-1.388 2.224-1.47.043-.026.142-.079.28-.148l1.301-1.914c-.7.244-1.32.519-1.882.846-.47.273-1.263.788-2.38 1.545-3.152 2.094-4.303 2.369-5.561.977-2.256-2.495 2.325-8.976 7.417-8.976 2.152 0 4.58.848 6.157 1.83.353-.235.752-.498 1.195-.79-1.797-1.343-4.735-2.24-7.352-2.24zM66.431 39.499c6.008 0 11.373 7.59 8.307 10.98-1.076 1.19-2.366 1.475-3.852 1.005-.898-.284-1.56-.648-3.056-1.646a166.44 166.44 0 0 0-2.224-1.47 5.272 5.272 0 0 0-.28-.148l-1.301-1.913c.7.243 1.32.518 1.882.845.47.273 1.263.788 2.38 1.545 3.152 2.095 4.303 2.37 5.561.977 2.256-2.494-2.325-8.975-7.417-8.975-2.152 0-4.58.848-6.157 1.829l-1.195-.79c1.797-1.343 4.735-2.239 7.352-2.239z"/><path d="M48.924 38.476c13.842 0 21.489 11.282 22.5 31.94.916 18.689-5.803 25.26-22.5 25.26-16.698 0-23.408-6.758-22.501-25.26 1.012-20.658 8.658-31.94 22.5-31.94zm0 1.2c-13.065 0-20.318 10.701-21.303 30.799-.88 17.984 5.272 24.001 21.303 24.001 16.03 0 22.175-6.197 21.302-24.001-.984-20.098-8.237-30.799-21.302-30.799z"/><path d="M50.645 40.476c-4.555 0-8.968 4.014-10.09 10.496-.114.656.767.981 1.107.408.76-1.28 2.67-3.457 5.755-4.448-.846 1.166-1.164 2.991-.846 4.68a.6.6 0 0 0 1.066.254c.757-.99 1.993-1.76 4.605-2.361 2.612-.601 3.71-1.203 4.393-3.003 1.27-3.338-1.83-6.026-5.99-6.026zm0 1.2c3.436 0 5.771 2.025 4.869 4.4-.457 1.202-1.164 1.666-3.028 2.136-1.864.47-3.608.751-4.835 1.905 0-1.905 1.318-3.377 1.805-3.75s.167-1.15-.442-1.071-3.71.601-6.566 3.204c1.751-4.424 4.917-6.824 8.197-6.824z"/></g><path fill-rule="nonzero" d="M34.468 68.528a.6.6 0 0 0-.74.944c6.439 5.042 8.518 13.683 5.066 15.463-2.582 1.331-5.49-2.594-6.246-7.708a.6.6 0 1 0-1.187.175c.86 5.813 4.322 10.487 7.983 8.599 4.468-2.304 2.14-11.98-4.876-17.473zM62.514 68.528a.6.6 0 0 1 .74.944c-6.439 5.042-8.518 13.683-5.066 15.463 2.582 1.331 5.49-2.594 6.246-7.708a.6.6 0 1 1 1.187.175c-.86 5.813-4.322 10.487-7.983 8.599-4.468-2.304-2.14-11.98 4.876-17.473z"/><circle cx="38" cy="61" r="5"/></g><circle cx="37" cy="59" r="2" fill="#fff"/><circle cx="41" cy="61" r="1" fill="#fff"/><circle cx="37.5" cy="63.5" r="1.5" fill="#fff"/><circle cx="60" cy="61" r="5" fill="#7f4331"/><circle cx="59" cy="59" r="2" fill="#fff"/><circle cx="63" cy="61" r="1" fill="#fff"/><circle cx="59.5" cy="63.5" r="1.5" fill="#fff"/><g fill-rule="nonzero"><path fill="#7f4331" d="M49 70.1c1.456 0 2.7-.413 3.726-1.102.622-.418 1.038-.842 1.26-1.145a.6.6 0 0 0-.971-.706c-.195.268-.668.66-.958.855-.836.561-1.85.898-3.057.898s-2.221-.337-3.057-.898c-.29-.195-.763-.587-.958-.855a.6.6 0 0 0-.97.706c.22.303.637.727 1.259 1.145C46.3 69.687 47.544 70.1 49 70.1z"/><g fill="#b3303d"><path d="m12.875 28.242-2.853-11.28-2.855 11.28-6.422 2.79 6.422 2.79 2.855 11.281 2.853-11.281 6.423-2.79zm-4.859.721 2.005-7.924 2.006 7.924 4.761 2.069-4.761 2.07-2.006 7.923-2.005-7.924-4.762-2.069zM12.027 70.624l-2.192-8.662-2.193 8.662-4.897 2.129 4.897 2.127 2.193 8.663 2.192-8.663 4.898-2.127zm-3.535.722 1.343-5.309 1.343 5.309 3.236 1.406-3.236 1.407-1.343 5.308-1.343-5.308-3.237-1.407zM20.053 87.729l-1.966-7.767-1.966 7.767-4.376 1.902 4.376 1.901 1.966 7.768 1.966-7.768 4.376-1.901zm-3.082.722 1.116-4.412 1.117 4.412 2.716 1.18-2.716 1.18-1.117 4.411-1.116-4.41-2.717-1.181zM89.053 52.729l-1.966-7.767-1.966 7.767-4.376 1.902 4.376 1.901 1.966 7.768 1.966-7.768 4.376-1.901zm-3.082.722 1.116-4.412 1.117 4.412 2.716 1.18-2.716 1.18-1.117 4.411-1.116-4.41-2.717-1.182zM36.053 8.729 34.087.962l-1.966 7.767-4.376 1.902 4.376 1.901 1.966 7.768 1.966-7.768 4.376-1.901zm-3.082.722 1.116-4.412 1.117 4.412 2.716 1.18-2.716 1.18-1.117 4.411-1.116-4.41-2.717-1.181zM91.053 16.729l-1.966-7.767-1.966 7.767-4.376 1.902 4.376 1.901 1.966 7.768 1.966-7.768 4.376-1.901zm-3.082.722 1.116-4.412 1.117 4.412 2.716 1.18-2.716 1.18-1.117 4.411-1.116-4.41-2.717-1.181zM85.027 86.624l-2.192-8.662-2.193 8.662-4.897 2.129 4.897 2.127 2.193 8.663 2.192-8.663 4.898-2.127zm-3.535.722 1.343-5.309 1.343 5.309 3.236 1.406-3.236 1.407-1.343 5.308-1.343-5.308-3.237-1.407z"/></g></g></g></g></svg>