<svg data-id="131-d4762e5df32dee4-happy" xmlns="http://www.w3.org/2000/svg" viewBox="0 0 100 100"><g fill="none" fill-rule="evenodd"><path fill="#a67b6c" d="M58.854 42.538c1.312.208 18.733-7.818 19.135-18.133.307-7.879-6.042-15.084-10.266-11.426-4.224 3.658 6.994 10.103.06 16.29-.625.556-3.372-5.377-5.529-2.214-2.156 3.162 3.83 4.492.682 8.308-2.163 2.622-4.563 4.475-5.596 5.818-1.238 1.607 1.288 1.321 1.514 1.357zM41.146 42.532c-1.312.208-18.733-7.816-19.135-18.13-.307-7.877 6.042-15.08 10.266-11.423s-6.994 10.1-.06 16.286c.625.557 3.372-5.375 5.529-2.213 2.156 3.161-3.83 4.491-.682 8.307 2.163 2.62 4.563 4.474 5.596 5.816 1.238 1.606-1.288 1.321-1.514 1.357z"/><path fill="#e99c00" d="M66.623 45.572c3.148 1.828 6.254 5.097 8.688 2.406C77.745 45.286 73.403 38 67.449 38 63.406 38 59 40.584 59 42.314s4.475 1.43 7.623 3.258zM33.377 45.572c-3.148 1.828-6.254 5.097-8.688 2.406C22.255 45.286 26.597 38 32.551 38 36.594 38 41 40.584 41 42.314s-4.475 1.43-7.623 3.258z"/><path fill="#ffd800" d="M49.9 93c14.723 0 22.876-4.762 21.903-24.631C70.829 48.5 63.674 37 49.9 37c-13.774 0-20.929 11.5-21.902 31.369C27.026 88.238 35.179 93 49.901 93z"/><path fill="#fff" d="M42.123 44.998c2.673-4.5 7.946-5.184 7.946-5.184s-2.61 1.999-1.931 5.611c2.76-3.612 7.521-1.549 8.913-5.212C58.21 37.166 55.128 35 51.621 35s-8.284 2.989-9.498 9.998z"/><path fill="#ffd800" d="M30.233 60.568c-3.117-3.241-9.544-7.509-12.39-4.418-2.452 2.664 5.075 10.904 11.122 12.974 0 0 1.916-9.853 1.268-8.556zM68.768 60.568c3.116-3.241 9.543-7.509 12.39-4.418 2.451 2.664-4.297 10.463-10.344 12.533-.971.333-2.694-9.412-2.046-8.115z"/><g fill="#ff608b" transform="translate(0 3)"><path d="M7.968 38.446c.04-.078.083-.156.127-.233.961-1.665 2.558-2.542 3.566-1.96 1.008.582 1.046 2.403.085 4.067a5.817 5.817 0 0 1-.139.228c.088.015.176.032.264.05 1.895.409 3.239 1.655 3.002 2.785-.237 1.13-1.965 1.714-3.86 1.306a5.969 5.969 0 0 1-.261-.062c.014.087.025.175.035.265.21 1.916-.555 3.564-1.71 3.68-1.154.117-2.26-1.343-2.47-3.26a5.87 5.87 0 0 1-.023-.266c-.08.04-.16.077-.243.113-1.764.777-3.582.549-4.058-.51-.477-1.057.568-2.544 2.333-3.32.082-.037.164-.07.247-.102a5.969 5.969 0 0 1-.185-.196c-1.3-1.436-1.658-3.225-.798-3.995.86-.77 2.61-.23 3.912 1.207.06.067.119.135.176.203zM88.072 15.213c.05-.097.103-.194.16-.291 1.196-2.073 3.175-3.172 4.418-2.453 1.244.718 1.282 2.98.085 5.054a7.314 7.314 0 0 1-.172.283c.108.018.217.039.326.062 2.342.498 3.998 2.04 3.699 3.445-.299 1.405-2.439 2.14-4.78 1.642a7.313 7.313 0 0 1-.323-.076c.016.108.03.218.042.33.25 2.38-.705 4.432-2.134 4.582-1.428.15-2.789-1.658-3.039-4.04a7.314 7.314 0 0 1-.027-.33c-.098.05-.198.096-.3.142-2.187.973-4.433.7-5.018-.613s.716-3.165 2.902-4.139c.102-.045.204-.088.307-.128a7.314 7.314 0 0 1-.228-.241c-1.602-1.78-2.035-4-.968-4.962s3.231-.298 4.833 1.481c.075.083.147.167.217.252zM82.997 80.874c.038-.072.077-.145.119-.217.894-1.549 2.373-2.37 3.302-1.833.93.536.958 2.227.064 3.776a5.465 5.465 0 0 1-.13.212c.082.013.163.029.244.046 1.75.372 2.987 1.524 2.764 2.574s-1.822 1.6-3.572 1.227a5.465 5.465 0 0 1-.241-.057c.012.081.023.163.032.246.186 1.78-.527 3.312-1.594 3.424-1.068.112-2.084-1.239-2.271-3.018a5.465 5.465 0 0 1-.02-.247 5.465 5.465 0 0 1-.225.106c-1.634.728-3.312.523-3.749-.458-.436-.98.534-2.365 2.168-3.092.077-.034.153-.066.23-.096a5.464 5.464 0 0 1-.17-.18c-1.198-1.33-1.521-2.989-.724-3.707.798-.718 2.414-.223 3.611 1.106.056.062.11.125.162.188z"/><circle cx="17.193" cy="76.334" r="2"/><circle cx="67.25" cy="2.25" r="2.25"/><circle cx="88.193" cy="69.5" r="2.5"/><circle cx="12.693" cy="15" r="2"/><circle cx="17.193" cy="23" r="2.5"/><circle cx="5.943" cy="71.25" r="1.25"/><circle cx="9.071" cy="84.579" r="2.878"/></g><g fill="#7f4331" fill-rule="nonzero"><path d="M21.415 24.432c-.325-8.343 6.513-16.01 11.258-11.901 1.083.937 1.39 2.106 1.066 3.514-.216.94-.812 2.288-1.788 4.046-1.687 3.348-1.983 5.211-.621 7.273.145.22.487.623 1.025 1.211l1.108-1.26c1.031-1.15 1.862-1.765 2.805-1.79.755-.02 1.426.386 1.977 1.194.954 1.399.733 2.495-.335 4.044l-.366.525c-1.07 1.567-1.146 2.321-.013 3.694.693.84 2.446 2.587 3.82 3.97l-1.178.522c-1.231-1.21-2.666-2.6-3.568-3.728-1.64-2.052-1.38-3.247.085-5.332l.355-.515c.706-1.068.785-1.658.209-2.504-.337-.494-.643-.68-.954-.67-.495.012-1.127.48-1.943 1.391-.095.105-.482.546-1.163 1.32-.517.522-.896.707-1.372.282a8.742 8.742 0 0 1-1.493-1.693c-1.723-2.608-1.296-4.895.718-8.802 1.915-3.716 1.818-4.885.84-5.785-3.568-3.289-9.565 3.453-9.273 10.947.169 4.321 3.539 8.655 8.976 12.545.539.385 1.075.743 1.604 1.076h-2.162l-.14-.1c-5.586-3.996-9.134-8.489-9.46-13.162zM78.568 24.37c.325-8.342-6.513-16.009-11.258-11.9-1.082.937-1.39 2.106-1.065 3.514.216.94.812 2.288 1.787 4.046 1.688 3.348 1.983 5.211.621 7.273-.144.219-.486.623-1.025 1.211l-1.108-1.26c-1.03-1.15-1.861-1.766-2.805-1.79-.755-.02-1.426.386-1.977 1.194-.954 1.398-.732 2.495.335 4.044l.366.525c1.07 1.567 1.147 2.321.014 3.694-.721.874-2.59 2.729-3.984 4.133l1.119.578c1.276-1.26 2.834-2.75 3.79-3.947 1.64-2.052 1.38-3.247-.085-5.332l-.355-.515c-.705-1.069-.785-1.659-.208-2.504.336-.494.642-.68.953-.671.495.013 1.127.48 1.944 1.392.094.105.482.545 1.163 1.32.516.522.896.706 1.371.282a8.742 8.742 0 0 0 1.494-1.693c1.723-2.609 1.295-4.895-.719-8.802-1.915-3.716-1.817-4.885-.84-5.785 3.569-3.29 9.565 3.452 9.273 10.947-.168 4.321-3.539 8.655-8.976 12.545-.571.409-1.14.787-1.7 1.136h2.171l.227-.16c5.586-3.996 9.134-8.49 9.46-13.163z"/><path d="M32.6 37.405c-6.007 0-11.372 7.59-8.306 10.98 1.076 1.19 2.366 1.475 3.852 1.005.898-.284 1.56-.647 3.056-1.645 1.348-.898 2.09-1.388 2.224-1.47.043-.026.142-.079.28-.148l1.301-1.914c-.7.244-1.32.519-1.882.846-.47.273-1.263.788-2.38 1.545-3.152 2.094-4.303 2.369-5.561.977-2.256-2.495 2.325-8.976 7.417-8.976 2.152 0 4.58.848 6.157 1.83.353-.235.752-.498 1.195-.79-1.797-1.343-4.735-2.24-7.352-2.24zM67.412 37.428c6.008 0 11.373 7.59 8.307 10.98-1.076 1.19-2.366 1.475-3.852 1.005-.898-.284-1.56-.648-3.056-1.646a166.44 166.44 0 0 0-2.224-1.47 5.272 5.272 0 0 0-.28-.148l-1.301-1.913c.7.243 1.32.518 1.882.845.47.273 1.263.788 2.38 1.545 3.152 2.095 4.303 2.37 5.561.977 2.256-2.494-2.325-8.975-7.417-8.975-2.152 0-4.58.848-6.157 1.829l-1.195-.79c1.797-1.343 4.735-2.239 7.352-2.239z"/><path d="m72.383 67.918.023.427c.915 18.689-5.804 25.26-22.501 25.26-16.698 0-23.408-6.758-22.501-25.26l.004-.09 1.175.566c-.765 17.66 5.416 23.584 21.322 23.584 16.03 0 22.175-6.197 21.302-24.001l.004.107zM46.61 36.634l-.878 1.373c-8.64 1.75-14.114 9.203-16.24 21.84l-1.097-.676c2.365-13.349 8.5-21.138 18.215-22.537zm10.715 1.056c7.179 2.74 11.866 9.806 13.95 20.725l-1.092.667c-1.917-10.538-6.24-17.34-12.86-20.09z"/><path d="M51.626 34.405c-4.555 0-8.968 4.014-10.09 10.496-.114.656.767.981 1.107.408.76-1.28 2.67-3.457 5.755-4.448-.846 1.166-1.164 2.991-.846 4.68a.6.6 0 0 0 1.066.254c.757-.99 1.993-1.76 4.605-2.361 2.612-.601 3.71-1.203 4.393-3.003 1.27-3.338-1.83-6.026-5.99-6.026zm0 1.2c3.436 0 5.771 2.025 4.869 4.4-.457 1.202-1.164 1.666-3.028 2.136-1.864.47-3.608.751-4.835 1.905 0-1.905 1.318-3.377 1.805-3.75s.167-1.15-.442-1.071-3.71.601-6.566 3.204c1.751-4.424 4.917-6.824 8.197-6.824z"/></g><path fill="#7f4331" fill-rule="nonzero" d="M59.347 58.92c-3.125.844-6.241 1.266-9.347 1.266-4.66 0-9.201-1.228-9.347-1.266a.6.6 0 0 0-.742.464c-.065.333-.001 1.19.104 1.965.168 1.233.5 2.452 1.04 3.588C42.592 68.16 45.495 70.1 50 70.1c4.602 0 7.526-2.02 9.032-5.353.484-1.07.787-2.208.947-3.357.091-.655.138-1.536.12-1.918a.6.6 0 0 0-.752-.552z"/><path fill="#f56d7b" d="M50 63c3.763 0 6.833 1.273 6.993 2.868C55.544 67.798 53.285 68.9 50 68.9c-3.283 0-5.543-1.103-6.993-3.034C43.17 64.27 46.239 63 50 63z"/><g fill-rule="nonzero"><path fill="#7f4331" d="M59.404 51.651c1.659-.64 3.405-.69 5.02-.397.29.05.54.108.752.172a.6.6 0 0 1-.352 1.148c-.317-.098-.416-.103-.614-.14-1.417-.256-2.951-.212-4.375.337-.9.347-1.703.883-2.393 1.635a.6.6 0 1 1-.884-.812 7.46 7.46 0 0 1 2.846-1.943z"/><path fill="#7f4331" d="M61.784 48.44a.6.6 0 0 1 .432 1.12c-.31.119-.566.261-.768.372a9.884 9.884 0 0 0-1.743 1.209c-.988.86-1.731 1.877-2.138 3.055a.6.6 0 0 1-1.134-.392c.48-1.393 1.347-2.578 2.484-3.568a11.073 11.073 0 0 1 1.955-1.357c.402-.213.706-.36.912-.439z"/><path fill="#7f4331" d="M56.801 53.434c2.107-.74 4.204-.51 6.124.311.659.283 1.146.568 1.425.767a.6.6 0 1 1-.7.976c-.269-.193-.862-.496-1.198-.64-1.666-.713-3.465-.91-5.253-.282a.6.6 0 1 1-.398-1.132zM40.596 51.651c-1.659-.64-3.405-.69-5.02-.397a17.23 17.23 0 0 0-.752.172.6.6 0 1 0 .352 1.148c.278-.07.482-.115.615-.14 1.416-.256 2.95-.212 4.374.337.9.347 1.703.883 2.393 1.635a.6.6 0 0 0 .884-.812 7.46 7.46 0 0 0-2.846-1.943z"/><path fill="#7f4331" d="M38.216 48.44a.6.6 0 0 0-.432 1.12c.378.174.634.298.768.372.595.325 1.19.727 1.743 1.209.988.86 1.731 1.877 2.138 3.055a.6.6 0 1 0 1.134-.392c-.48-1.393-1.347-2.578-2.484-3.568a11.073 11.073 0 0 0-1.955-1.357 18.98 18.98 0 0 0-.912-.439z"/><path fill="#7f4331" d="M43.198 53.434c-2.106-.74-4.203-.51-6.123.311-.66.283-1.146.568-1.425.767a.6.6 0 0 0 .7.976c.575-.33.974-.544 1.197-.64 1.667-.713 3.466-.91 5.254-.282a.6.6 0 1 0 .397-1.132z"/><g fill="#7f4331"><path d="M17.401 55.744c2.776-3.015 8.8-.235 13.264 4.408a.6.6 0 1 1-.865.832c-4.018-4.178-9.44-6.681-11.516-4.427-1.944 2.112 4.972 9.979 10.875 12a.6.6 0 0 1-.388 1.135c-6.597-2.258-14.185-10.89-11.37-13.948zM81.62 55.744c-2.776-3.015-8.799-.235-13.263 4.408a.6.6 0 1 0 .865.832c4.017-4.178 9.44-6.681 11.515-4.427 1.975 2.145-4.258 9.56-10.096 11.559a.6.6 0 0 0 .388 1.135c6.526-2.234 13.42-10.434 10.59-13.507z"/></g><g fill="#b3303d"><path d="M11.778 38.75c-1.16-.55-2.704.207-3.764 1.67l-.135.194-.027-.026c-1.428-1.374-3.267-1.855-4.306-.925l-.107.104c-.88.928-.621 2.63.457 4.096l.143.188-.024.013c-1.746.918-2.764 2.512-2.188 3.791l.07.138c.617 1.112 2.304 1.407 4.02.86l.25-.086.006.039c.351 1.94 1.563 3.404 2.954 3.264l.153-.022c1.254-.233 2.046-1.742 2.042-3.542l-.007-.254.017.003c1.967.287 3.743-.398 4.03-1.77l.025-.151c.162-1.312-1.146-2.586-2.979-3.115l-.036-.01.008-.016c.868-1.772.748-3.67-.47-4.373zm-.367.936c.71.41.742 1.928-.098 3.384l-.063.105-.472.74.746.126.242.046c1.66.358 2.784 1.4 2.618 2.193-.166.79-1.606 1.278-3.265.92a5.469 5.469 0 0 1-.24-.057l-.739-.194.118.755.032.242c.184 1.677-.453 3.048-1.263 3.129-.815.082-1.74-1.138-1.923-2.817l-.021-.244-.048-.75-.673.334a5.37 5.37 0 0 1-.222.104c-1.546.68-3.065.49-3.401-.258-.335-.742.534-1.979 2.078-2.658l.113-.048.826-.32-.538-.543a5.469 5.469 0 0 1-.17-.18c-1.139-1.257-1.436-2.748-.835-3.287.604-.54 2.068-.089 3.208 1.17l.161.187.482.583.348-.672c.037-.071.076-.143.116-.213.841-1.456 2.171-2.188 2.883-1.777zM92.758 14.96c-1.439-.692-3.417.353-4.71 2.309l-.065.1-.094-.095c-1.727-1.691-3.96-2.282-5.201-1.165l-.115.112c-1.104 1.154-.721 3.359.739 5.194l.076.091-.12.061c-2.142 1.12-3.394 3.062-2.715 4.586l.073.149c.758 1.4 2.962 1.717 5.152.902l.125-.049.02.133c.403 2.383 1.863 4.174 3.523 4l.164-.024c1.565-.288 2.548-2.287 2.45-4.62l-.008-.136.118.02c2.397.36 4.56-.475 4.907-2.111l.028-.163c.21-1.578-1.387-3.13-3.637-3.759l-.13-.034.055-.106c1.082-2.168.956-4.483-.493-5.32zm-.358.942c.946.546.98 2.506-.098 4.37-.051.09-.105.178-.16.265l-.409.639.748.123c.102.017.203.036.304.058 2.107.448 3.541 1.784 3.314 2.852-.227 1.068-2.08 1.705-4.187 1.257a6.814 6.814 0 0 1-.301-.07l-.734-.192.113.75.04.306c.225 2.142-.603 3.92-1.689 4.033-1.086.115-2.265-1.452-2.49-3.593l-.014-.155-.056-.91-.678.339c-.092.046-.185.09-.28.132-1.967.876-3.913.638-4.357-.36-.444-.997.681-2.602 2.649-3.478l.285-.12.706-.276-.532-.54a6.814 6.814 0 0 1-.212-.225c-1.442-1.6-1.817-3.524-1.005-4.255.812-.73 2.686-.156 4.127 1.444l.102.116.58.704.35-.673c.047-.09.096-.181.148-.271 1.077-1.865 2.79-2.816 3.736-2.27zM86.54 81.325c-1.087-.513-2.526.198-3.52 1.564l-.11.157c-1.328-1.276-3.041-1.717-4.02-.837l-.103.102c-.823.876-.592 2.464.4 3.83l.116.154c-1.625.869-2.574 2.362-2.039 3.565l.067.134c.603 1.09 2.28 1.338 3.946.736.325 1.814 1.452 3.178 2.76 3.04l.15-.022c1.221-.236 1.976-1.754 1.919-3.527l.19.025c1.747.183 3.29-.466 3.554-1.709l.025-.148c.153-1.235-1.058-2.423-2.76-2.916l.082-.173c.713-1.605.573-3.273-.528-3.908zm-.37.933c.63.364.654 1.752-.12 3.093l-.058.097-.468.734.748.124c.074.012.148.026.221.042 1.515.322 2.53 1.268 2.38 1.981s-1.465 1.164-2.98.842l-.11-.024-.843-.219.114.75c.01.074.02.148.028.224.162 1.54-.424 2.798-1.149 2.874s-1.56-1.033-1.721-2.573l-.019-.224-.045-.757-.678.34a4.965 4.965 0 0 1-.203.096c-1.415.63-2.793.461-3.09-.205-.296-.666.501-1.802 1.916-2.432l.208-.087.706-.277-.533-.54a4.965 4.965 0 0 1-.154-.164c-1.036-1.15-1.302-2.513-.76-3s1.869-.082 2.905 1.069l.074.085.554.672.349-.673c.034-.067.07-.133.108-.198.774-1.341 1.988-2.015 2.62-1.65zM17.193 76.834a2.5 2.5 0 1 0 0 5 2.5 2.5 0 0 0 0-5zm0 1a1.5 1.5 0 1 1 0 3 1.5 1.5 0 0 1 0-3zM67.25 2.5a2.75 2.75 0 1 0 0 5.5 2.75 2.75 0 0 0 0-5.5zm0 1a1.75 1.75 0 1 1 0 3.5 1.75 1.75 0 0 1 0-3.5zM88.193 69.5a3 3 0 1 0 0 6 3 3 0 0 0 0-6zm0 1a2 2 0 1 1 0 4 2 2 0 0 1 0-4zM12.693 15.5a2.5 2.5 0 1 0 0 5 2.5 2.5 0 0 0 0-5zm0 1a1.5 1.5 0 1 1 0 3 1.5 1.5 0 0 1 0-3zM17.193 23a3 3 0 1 0 0 6 3 3 0 0 0 0-6zm0 1a2 2 0 1 1 0 4 2 2 0 0 1 0-4zM5.943 72.5a1.75 1.75 0 1 0 0 3.5 1.75 1.75 0 0 0 0-3.5zm0 1a.75.75 0 1 1 0 1.5.75.75 0 0 1 0-1.5zM9.07 84.2a3.378 3.378 0 1 0 0 6.757 3.378 3.378 0 0 0 0-6.756zm0 1a2.378 2.378 0 1 1 0 4.757 2.378 2.378 0 0 1 0-4.756z"/></g></g></g></svg>