<svg data-id="132-8d8a1591025b6a4-smile" xmlns="http://www.w3.org/2000/svg" viewBox="0 0 100 100"><g fill="none" fill-rule="evenodd"><path fill="#a67b6c" d="M64.854 42.538c1.312.208 18.733-7.818 19.135-18.133.307-7.879-6.042-15.084-10.266-11.426-4.224 3.658 6.994 10.103.06 16.29-.625.556-3.372-5.377-5.529-2.214-2.156 3.162 3.83 4.492.682 8.308-2.163 2.622-4.563 4.475-5.596 5.818-1.238 1.607 1.288 1.321 1.514 1.357zM47.146 42.532c-1.312.208-18.733-7.816-19.135-18.13-.307-7.877 6.042-15.08 10.266-11.423s-6.994 10.1-.06 16.286c.625.557 3.372-5.375 5.529-2.213 2.156 3.161-3.83 4.491-.682 8.307 2.163 2.62 4.563 4.474 5.596 5.816 1.238 1.606-1.288 1.321-1.514 1.357z"/><path fill="#e99c00" d="M72.623 45.572c3.148 1.828 6.254 5.097 8.688 2.406C83.745 45.286 79.403 38 73.449 38 69.406 38 65 40.584 65 42.314s4.475 1.43 7.623 3.258zM39.377 45.572c-3.148 1.828-6.254 5.097-8.688 2.406C28.255 45.286 32.597 38 38.551 38 42.594 38 47 40.584 47 42.314s-4.475 1.43-7.623 3.258z"/><path fill="#ffd800" d="M55.9 93c14.723 0 22.876-4.762 21.903-24.631C76.829 48.5 69.674 37 55.9 37c-13.774 0-20.929 11.5-21.902 31.369C33.026 88.238 41.179 93 55.901 93z"/><path fill="#ffd800" d="M73.17 65.248c6.57 8.62-2.163 18.509-6.06 15.44-3.897-3.07.698-5.256.33-9.889-.147-2.948 5.415-6.965 5.73-5.55z"/><path fill="#fff" d="M48.123 44.998c2.673-4.5 7.946-5.184 7.946-5.184s-2.61 1.999-1.931 5.611c2.76-3.612 7.521-1.549 8.913-5.212C64.21 37.166 61.128 35 57.621 35s-8.284 2.989-9.498 9.998z"/><g fill="#ffd800"><path d="M36.06 63.168c-3.808-2.39-11.075-4.973-13.087-1.286-1.374 2.517 5.47 8.03 11.984 9.877 6.515 1.847 1.417-10.005 1.102-8.59z"/><path d="M32.706 68.633c-4.382 1.002-11.35 4.312-10.166 8.343 1.02 3.473 11.958 1.266 16.846-2.85 0 0-7.457-6.716-6.68-5.493z"/></g><g fill="#7f4331" fill-rule="nonzero"><path d="M27.37 24.352c-.326-8.343 6.512-16.01 11.257-11.901 1.083.937 1.39 2.106 1.066 3.514-.216.94-.812 2.288-1.788 4.046-1.687 3.348-1.983 5.211-.621 7.273.145.22.487.623 1.025 1.211l1.108-1.26c1.031-1.15 1.862-1.765 2.805-1.79.755-.02 1.426.386 1.977 1.194.954 1.399.733 2.495-.335 4.044l-.366.525c-1.07 1.567-1.146 2.321-.013 3.694.693.84 2.446 2.587 3.82 3.97l-1.178.522c-1.231-1.21-2.666-2.6-3.568-3.728-1.64-2.052-1.38-3.247.085-5.332l.355-.515c.706-1.068.785-1.658.209-2.504-.337-.494-.643-.68-.954-.67-.495.012-1.127.48-1.943 1.391-.095.105-.482.546-1.163 1.32-.517.522-.896.707-1.372.282a8.742 8.742 0 0 1-1.493-1.693c-1.723-2.608-1.296-4.895.718-8.802 1.915-3.716 1.818-4.885.84-5.785-3.568-3.289-9.565 3.453-9.273 10.947.169 4.321 3.539 8.655 8.976 12.545.539.385 1.075.743 1.604 1.076h-2.162l-.14-.1c-5.586-3.996-9.134-8.489-9.46-13.162zM84.522 24.29c.325-8.342-6.513-16.009-11.258-11.9-1.082.937-1.39 2.106-1.065 3.514.216.94.812 2.288 1.787 4.046 1.688 3.348 1.983 5.211.621 7.273-.144.219-.486.623-1.025 1.211l-1.108-1.26c-1.03-1.15-1.861-1.766-2.805-1.79-.755-.02-1.426.386-1.977 1.194-.954 1.398-.732 2.495.335 4.044l.366.525c1.07 1.567 1.147 2.321.014 3.694-.721.874-2.59 2.729-3.984 4.133l1.119.578c1.276-1.26 2.834-2.75 3.79-3.947 1.64-2.052 1.38-3.247-.085-5.332l-.355-.515c-.705-1.069-.785-1.659-.208-2.504.336-.494.642-.68.953-.671.495.013 1.127.48 1.944 1.392.094.105.482.545 1.163 1.32.516.522.896.706 1.371.282a8.742 8.742 0 0 0 1.494-1.693c1.723-2.609 1.295-4.895-.719-8.802-1.915-3.716-1.817-4.885-.84-5.785 3.569-3.29 9.565 3.452 9.273 10.947-.168 4.321-3.539 8.655-8.976 12.545-.571.409-1.14.787-1.7 1.136h2.171l.227-.16c5.586-3.996 9.134-8.49 9.46-13.163z"/><path d="M38.555 37.325c-6.008 0-11.373 7.59-8.307 10.98 1.076 1.19 2.366 1.475 3.852 1.005.898-.284 1.56-.647 3.056-1.645 1.348-.898 2.09-1.388 2.224-1.47.043-.026.142-.079.28-.148l1.301-1.914c-.7.244-1.32.519-1.882.846-.47.273-1.263.788-2.38 1.545-3.152 2.094-4.303 2.369-5.561.977-2.256-2.495 2.325-8.976 7.417-8.976 2.152 0 4.58.848 6.157 1.83.353-.235.752-.498 1.195-.79-1.797-1.343-4.735-2.24-7.352-2.24zM73.366 37.348c6.008 0 11.373 7.59 8.307 10.98-1.076 1.19-2.366 1.475-3.852 1.005-.898-.284-1.56-.648-3.056-1.646a166.44 166.44 0 0 0-2.224-1.47 5.272 5.272 0 0 0-.28-.148l-1.301-1.913c.7.243 1.32.518 1.882.845.47.273 1.263.788 2.38 1.545 3.152 2.095 4.303 2.37 5.561.977 2.256-2.494-2.325-8.975-7.417-8.975-2.152 0-4.58.848-6.157 1.829l-1.195-.79c1.797-1.343 4.735-2.239 7.352-2.239z"/><path d="M63.278 37.61c9.165 3.496 14.268 14.044 15.082 30.655.915 18.689-5.804 25.26-22.501 25.26-13.383 0-20.35-4.34-22.122-15.59l1.08-.75c1.5 11.16 8.004 15.14 21.042 15.14 16.03 0 22.175-6.197 21.302-24.001-.779-15.902-5.482-25.92-13.883-29.411zm-10.715-1.056-.877 1.373c-9.272 1.879-14.898 10.323-16.652 24.692l-1.14-.54c1.95-15.175 8.251-24.024 18.67-25.525z"/><path d="M57.58 34.325c-4.555 0-8.968 4.014-10.09 10.496-.114.656.767.981 1.107.408.76-1.28 2.67-3.457 5.755-4.448-.846 1.166-1.164 2.991-.846 4.68a.6.6 0 0 0 1.066.254c.757-.99 1.993-1.76 4.605-2.361 2.612-.601 3.71-1.203 4.393-3.003 1.27-3.338-1.83-6.026-5.99-6.026zm0 1.2c3.436 0 5.771 2.025 4.869 4.4-.457 1.202-1.164 1.666-3.028 2.136-1.864.47-3.608.751-4.835 1.905 0-1.905 1.318-3.377 1.805-3.75s.167-1.15-.442-1.071-3.71.601-6.566 3.204c1.751-4.424 4.917-6.824 8.197-6.824z"/></g><path fill="#7f4331" fill-rule="nonzero" d="M73.624 64.88a.6.6 0 1 0-.954.727c2.802 3.677 2.893 7.945.853 11.437-1.745 2.987-4.53 4.376-6.065 3.167-1.667-1.313-1.71-2.008-.635-4.435l.104-.233c.884-1.961 1.217-3.161 1.087-4.796a.6.6 0 0 0-1.196.094c.104 1.301-.145 2.295-.848 3.9l-.344.778c-1.168 2.726-1.067 3.936 1.09 5.634 2.26 1.78 5.782.025 7.843-3.504 2.276-3.896 2.174-8.69-.935-12.77zM65.347 58.92c-3.235.844-6.35 1.266-9.347 1.266-4.494 0-9.201-1.228-9.347-1.266a.6.6 0 0 0-.742.464c0 .793.034 1.448.104 1.965.168 1.233.5 2.452 1.04 3.588C48.592 68.16 51.495 70.1 56 70.1c4.602 0 7.526-2.02 9.032-5.353.484-1.07.787-2.208.947-3.357.091-.655.138-1.536.12-1.918a.6.6 0 0 0-.752-.552z"/><path fill="#f56d7b" d="M56 63c3.763 0 6.833 1.273 6.993 2.868C61.544 67.798 59.285 68.9 56 68.9c-3.283 0-5.543-1.103-6.993-3.034C49.17 64.27 52.239 63 56 63z"/><g fill="#7f4331" fill-rule="nonzero"><path d="M65.404 51.651c1.659-.64 3.405-.69 5.02-.397.29.05.54.108.752.172a.6.6 0 0 1-.352 1.148c-.317-.098-.416-.103-.614-.14-1.417-.256-2.951-.212-4.375.337-.9.347-1.703.883-2.393 1.635a.6.6 0 1 1-.884-.812 7.46 7.46 0 0 1 2.846-1.943z"/><path d="M67.784 48.44a.6.6 0 0 1 .432 1.12c-.31.119-.566.261-.768.372a9.884 9.884 0 0 0-1.743 1.209c-.988.86-1.731 1.877-2.138 3.055a.6.6 0 0 1-1.134-.392c.48-1.393 1.347-2.578 2.484-3.568a11.073 11.073 0 0 1 1.955-1.357c.402-.213.706-.36.912-.439z"/><path d="M62.801 53.434c2.107-.74 4.204-.51 6.124.311.659.283 1.146.568 1.425.767.278.2.33.568.138.838a.6.6 0 0 1-.838.138c-.269-.193-.862-.496-1.198-.64-1.666-.713-3.465-.91-5.253-.282a.6.6 0 1 1-.398-1.132zM46.596 51.651c-1.659-.64-3.405-.69-5.02-.397-.29.05-.54.108-.752.172a.6.6 0 1 0 .352 1.148c.317-.098.416-.103.615-.14 1.416-.256 2.95-.212 4.374.337.9.347 1.703.883 2.393 1.635a.6.6 0 0 0 .884-.812 7.46 7.46 0 0 0-2.846-1.943z"/><path d="M44.216 48.44a.6.6 0 0 0-.432 1.12c.31.119.566.261.768.372.595.325 1.19.727 1.743 1.209.988.86 1.731 1.877 2.138 3.055a.6.6 0 1 0 1.134-.392c-.48-1.393-1.347-2.578-2.484-3.568a11.073 11.073 0 0 0-1.955-1.357 9.333 9.333 0 0 0-.912-.439z"/><path d="M49.198 53.434c-2.106-.74-4.203-.51-6.123.311-.66.283-1.146.568-1.425.767a.6.6 0 0 0 .7.976c.269-.193.862-.496 1.197-.64 1.667-.713 3.466-.91 5.254-.282a.6.6 0 1 0 .397-1.132zM22.442 61.596C24.405 58 30.92 59.24 36.374 62.662a.6.6 0 0 1-.637 1.016c-4.908-3.08-10.774-4.196-12.242-1.507-1.076 1.972 5.369 7.24 11.622 9.013a.6.6 0 0 1-.327 1.154c-6.927-1.964-13.988-7.736-12.348-10.742zM17.93 73.934a.25.25 0 1 0 .226-.446c-3.927-1.981-4.435-9.594.546-12.72a.25.25 0 1 0-.266-.424c-5.315 3.337-4.775 11.437-.505 13.59z"/><path d="M15.701 75.51a.25.25 0 1 0 .225-.446c-1.647-.83-3.223-3.318-3.698-5.95-.55-3.048.391-5.734 2.95-7.34a.25.25 0 0 0-.265-.424c-2.747 1.725-3.76 4.617-3.177 7.852.5 2.776 2.164 5.4 3.965 6.309zM29.28 69.06l1.217.843c-4.582 1.57-8.108 4.4-7.367 6.92.808 2.754 11.114.878 15.886-3.142a.6.6 0 0 1 .773.918c-5.332 4.491-16.64 6.55-17.81 2.562-.946-3.218 2.556-6.301 7.3-8.102z"/></g></g></svg>