<svg data-id="133-603cbedf818efc7-smile" xmlns="http://www.w3.org/2000/svg" viewBox="0 0 100 100"><g fill="none" fill-rule="evenodd"><path fill="#a67b6c" d="M58.854 42.538c1.312.208 18.733-7.818 19.135-18.133.307-7.879-6.042-15.084-10.266-11.426-4.224 3.658 6.994 10.103.06 16.29-.625.556-3.372-5.377-5.529-2.214-2.156 3.162 3.83 4.492.682 8.308-2.163 2.622-4.563 4.475-5.596 5.818-1.238 1.607 1.288 1.321 1.514 1.357zM41.146 42.532c-1.312.208-18.733-7.816-19.135-18.13-.307-7.877 6.042-15.08 10.266-11.423s-6.994 10.1-.06 16.286c.625.557 3.372-5.375 5.529-2.213 2.156 3.161-3.83 4.491-.682 8.307 2.163 2.62 4.563 4.474 5.596 5.816 1.238 1.606-1.288 1.321-1.514 1.357z"/><path fill="#e99c00" d="M66.623 45.572c3.148 1.828 6.254 5.097 8.688 2.406C77.745 45.286 73.403 38 67.449 38 63.406 38 59 40.584 59 42.314s4.475 1.43 7.623 3.258zM33.377 45.572c-3.148 1.828-6.254 5.097-8.688 2.406C22.255 45.286 26.597 38 32.551 38 36.594 38 41 40.584 41 42.314s-4.475 1.43-7.623 3.258z"/><path fill="#ffd800" d="M49.9 93c14.723 0 22.876-4.762 21.903-24.631C70.829 48.5 63.674 37 49.9 37c-13.774 0-20.929 11.5-21.902 31.369C27.026 88.238 35.179 93 49.901 93z"/><path fill="#fff" d="M42.123 44.998c2.673-4.5 7.946-5.184 7.946-5.184s-2.61 1.999-1.931 5.611c2.76-3.612 7.521-1.549 8.913-5.212C58.21 37.166 55.128 35 51.621 35s-8.284 2.989-9.498 9.998z"/><g fill="#ffd800"><path d="M30.233 60.568c-3.117-3.241-9.544-7.509-12.39-4.418-2.452 2.664 5.075 10.904 11.122 12.974 0 0 1.916-9.853 1.268-8.556zM68.768 60.568c3.116-3.241 9.543-7.509 12.39-4.418 2.451 2.664-4.297 10.463-10.344 12.533-.971.333-2.694-9.412-2.046-8.115z"/></g><g fill="#7f4331" fill-rule="nonzero"><path d="M21.456 24.377c-.325-8.343 6.513-16.01 11.258-11.901 1.083.937 1.39 2.106 1.066 3.514-.216.94-.812 2.288-1.788 4.046-1.687 3.348-1.983 5.211-.621 7.273.145.22.487.623 1.025 1.211l1.108-1.26c1.031-1.15 1.862-1.765 2.805-1.79.755-.02 1.426.386 1.977 1.194.954 1.399.733 2.495-.335 4.044l-.366.525c-1.07 1.567-1.146 2.321-.013 3.694.693.84 2.446 2.587 3.82 3.97l-1.178.522c-1.231-1.21-2.666-2.6-3.568-3.728-1.64-2.052-1.38-3.247.085-5.332l.355-.515c.706-1.068.785-1.658.209-2.504-.337-.494-.643-.68-.954-.67-.495.012-1.127.48-1.943 1.391-.095.105-.482.546-1.163 1.32-.517.522-.896.707-1.372.282a8.742 8.742 0 0 1-1.493-1.693c-1.723-2.608-1.296-4.895.718-8.802 1.915-3.716 1.818-4.885.84-5.785-3.568-3.289-9.565 3.453-9.273 10.947.169 4.321 3.539 8.655 8.976 12.545.539.385 1.075.743 1.604 1.076h-2.162l-.14-.1c-5.586-3.996-9.134-8.489-9.46-13.162zM78.61 24.316c.324-8.343-6.514-16.01-11.259-11.901-1.082.937-1.39 2.106-1.065 3.514.216.94.812 2.288 1.787 4.046 1.688 3.348 1.983 5.211.621 7.273-.144.219-.486.623-1.025 1.211l-1.108-1.26c-1.03-1.15-1.861-1.766-2.805-1.79-.755-.02-1.426.386-1.977 1.194-.954 1.398-.732 2.495.335 4.044l.366.525c1.07 1.567 1.147 2.321.014 3.694-.721.874-2.59 2.729-3.984 4.133l1.119.578c1.276-1.26 2.834-2.75 3.79-3.947 1.64-2.052 1.38-3.247-.085-5.332l-.355-.515c-.705-1.069-.785-1.659-.208-2.504.336-.494.642-.68.953-.671.495.013 1.127.48 1.944 1.392.094.105.482.545 1.163 1.32.516.522.896.706 1.371.282a8.742 8.742 0 0 0 1.494-1.693c1.723-2.609 1.295-4.895-.719-8.802-1.915-3.716-1.817-4.885-.84-5.785 3.569-3.29 9.565 3.452 9.273 10.947-.168 4.321-3.539 8.655-8.976 12.545-.571.409-1.14.787-1.7 1.136h2.171l.227-.16c5.586-3.996 9.134-8.49 9.46-13.163z"/><path d="M32.642 37.35c-6.008 0-11.373 7.59-8.307 10.98 1.076 1.19 2.366 1.475 3.852 1.005.898-.284 1.56-.647 3.056-1.645 1.348-.898 2.09-1.388 2.224-1.47.043-.026.142-.079.28-.148l1.301-1.914c-.7.244-1.32.519-1.882.846-.47.273-1.263.788-2.38 1.545-3.152 2.094-4.303 2.369-5.561.977-2.256-2.495 2.325-8.976 7.417-8.976 2.152 0 4.58.848 6.157 1.83.353-.235.752-.498 1.195-.79-1.797-1.343-4.735-2.24-7.352-2.24zM67.453 37.373c6.008 0 11.373 7.59 8.307 10.98-1.076 1.19-2.366 1.475-3.852 1.005-.898-.284-1.56-.648-3.056-1.646a166.44 166.44 0 0 0-2.224-1.47 5.272 5.272 0 0 0-.28-.148l-1.301-1.913c.7.243 1.32.518 1.882.845.47.273 1.263.788 2.38 1.545 3.152 2.095 4.303 2.37 5.561.977 2.256-2.494-2.325-8.975-7.417-8.975-2.152 0-4.58.848-6.157 1.829l-1.195-.79c1.797-1.343 4.735-2.239 7.352-2.239z"/><path d="m72.428 67.933.019.357c.915 18.689-5.804 25.26-22.501 25.26-16.698 0-23.408-6.758-22.501-25.26l-.014.281 1.183.425C27.92 86.3 33.984 92.23 49.468 92.35l.478.001c16.03 0 22.175-6.197 21.302-24.001l.007.174zm-25.933-31.33-1.153 1.441c-8.39 1.91-13.717 9.32-15.807 21.74l-1.124-.525c2.333-13.365 8.425-21.192 18.084-22.657zm10.87 1.032c7.171 2.736 11.856 9.79 13.944 20.686l-1.04.952c-1.895-10.678-6.234-17.564-12.904-20.335z"/><path d="M51.667 34.35c-4.555 0-8.968 4.014-10.09 10.496-.114.656.767.981 1.107.408.76-1.28 2.67-3.457 5.755-4.448-.846 1.166-1.164 2.991-.846 4.68a.6.6 0 0 0 1.066.254c.757-.99 1.993-1.76 4.605-2.361 2.612-.601 3.71-1.203 4.393-3.003 1.27-3.338-1.83-6.026-5.99-6.026zm0 1.2c3.436 0 5.771 2.025 4.869 4.4-.457 1.202-1.164 1.666-3.028 2.136-1.864.47-3.608.751-4.835 1.905 0-1.905 1.318-3.377 1.805-3.75s.167-1.15-.442-1.071-3.71.601-6.566 3.204c1.751-4.424 4.917-6.824 8.197-6.824zM17.401 55.744c2.776-3.015 8.8-.235 13.264 4.408a.6.6 0 1 1-.865.832c-4.018-4.178-9.44-6.681-11.516-4.427-1.944 2.112 4.972 9.979 10.875 12a.6.6 0 1 1-.388 1.135c-6.597-2.258-14.185-10.89-11.37-13.948zM81.62 55.744c-2.775-3.015-8.798-.235-13.262 4.408a.6.6 0 1 0 .864.832c4.018-4.178 9.44-6.681 11.516-4.427 1.975 2.145-4.258 9.56-10.097 11.559a.6.6 0 0 0 .39 1.135c6.525-2.234 13.419-10.434 10.59-13.507z"/></g><path fill="#7f4331" fill-rule="nonzero" d="M59.347 58.92c-3.284.844-6.4 1.266-9.347 1.266-4.42 0-9.201-1.228-9.347-1.266a.6.6 0 0 0-.742.464l-.011.11a11.4 11.4 0 0 0 .115 1.855c.168 1.233.5 2.452 1.04 3.588C42.592 68.16 45.495 70.1 50 70.1c4.602 0 7.526-2.02 9.032-5.353.484-1.07.787-2.208.947-3.357.091-.655.125-1.224.125-1.67l-.005-.248a.6.6 0 0 0-.752-.552z"/><path fill="#f56d7b" d="M50 63c3.763 0 6.833 1.273 6.993 2.868C55.544 67.798 53.285 68.9 50 68.9c-3.283 0-5.543-1.103-6.993-3.034C43.17 64.27 46.239 63 50 63z"/><g fill="#7f4331" fill-rule="nonzero"><path d="M38.5 51.4c1.479 0 2.584.67 3.33 1.761.438.64.668 1.273.758 1.72a.6.6 0 0 1-1.176.238c-.066-.325-.378-.997-.572-1.28-.536-.784-1.287-1.239-2.34-1.239s-1.804.455-2.34 1.239c-.194.283-.506.955-.572 1.28a.6.6 0 0 1-1.176-.238c.09-.447.32-1.08.758-1.72.746-1.091 1.851-1.761 3.33-1.761zM61.5 51.4c1.416 0 2.502.668 3.27 1.753.449.633.702 1.26.812 1.701a.6.6 0 1 1-1.164.292c-.08-.322-.423-1.012-.627-1.3-.56-.79-1.302-1.246-2.291-1.246s-1.731.457-2.291 1.247c-.204.287-.546.977-.627 1.299a.6.6 0 1 1-1.164-.292c.11-.44.363-1.068.812-1.7.768-1.086 1.854-1.754 3.27-1.754zM14.21 65.044a.25.25 0 0 0 .226-.446c-3.927-1.98-4.435-9.594.546-12.72a.25.25 0 0 0-.266-.424C9.4 54.791 9.94 62.891 14.21 65.044z"/><path d="M11.981 66.621a.25.25 0 1 0 .225-.446c-1.647-.831-3.223-3.319-3.698-5.952-.55-3.047.391-5.732 2.95-7.339a.25.25 0 1 0-.265-.423c-2.747 1.724-3.76 4.617-3.177 7.851.5 2.776 2.164 5.4 3.965 6.31zM84.874 65.045a.25.25 0 1 1-.24-.439c3.895-2.129 4.132-10.888-1.037-14.674a.25.25 0 1 1 .296-.404c5.455 3.997 5.206 13.207.981 15.517z"/><path d="M87.045 66.623a.25.25 0 1 1-.24-.438c1.628-.89 3.132-3.682 3.519-6.685.448-3.487-.607-6.62-3.262-8.56a.25.25 0 0 1 .295-.403c2.816 2.058 3.933 5.372 3.462 9.027-.404 3.147-1.985 6.083-3.774 7.06z"/></g></g></svg>