<svg data-id="137-3da4e7e8e052ec6-happy" xmlns="http://www.w3.org/2000/svg" viewBox="0 0 100 100"><g fill="none" fill-rule="evenodd"><path fill="#a67b6c" d="M60.837 39.76c-1.264-.41-13.143-15.47-8.82-24.84C55.32 7.76 64.248 4.225 66.352 9.402c2.103 5.176-10.817 5.824-7.447 14.483.304.78 5.445-3.258 5.93.538.487 3.796-5.451 2.264-4.378 7.092.737 3.318 2.034 6.058 2.346 7.723.373 1.994-1.747.593-1.965.522zM97.426 22.292c.031-7.882-6.563-14.857-10.655-11.055-4.092 3.802 7.34 9.848.63 16.27-.605.58-3.557-5.252-5.6-2.017-2.044 3.235 3.983 4.354.971 8.276-2.069 2.695-4.402 4.63-5.387 6.008-1.18 1.648 1.333 1.275 1.56 1.303 1.318.162 18.44-8.466 18.481-18.785z"/><path fill="#e99c00" d="M57.684 39.561c-3.115 1.771-6.775 4.095-7.712.845-.954-3.31 4.886-6.318 10.559-4.58 1.593.489 1.448 2.1 1.448 2.1s-2.16 1.444-4.295 1.635z"/><path fill="#ffd800" d="M65.9 92c14.723 0 22.876-4.762 21.903-24.631C86.829 47.5 79.674 36 65.9 36c-13.774 0-20.929 11.5-21.902 31.369C43.026 87.238 51.179 92 65.901 92z"/><path fill="#e99c00" d="M80.478 45.802c1.753 2.173 2.963 6.156 5.787 3.877s.467-8.935-5.45-9.918c-2.64-.439-4.047.36-4.046 1.422 0 1.062 1.956 2.447 3.71 4.62z"/><g transform="translate(1 23)"><g transform="rotate(32 -38.28 91.22)"><path fill="#ff80b0" d="M3.668 19.059c2.836 0 25.677-9.53 25.677-9.53S6.505 0 3.668 0z"/><ellipse cx="3.668" cy="9.529" fill="#ec7b9b" rx="3.668" ry="9.529"/></g><ellipse cx="11.727" cy="25.71" fill="#7bcaff" rx="2.727" ry="2.71"/><ellipse cx="21.5" cy="50.981" fill="#7bcaff" rx="1.5" ry="2.981" transform="rotate(-64.02 21.482 50.967)"/><path fill="#eed050" d="m27.109 48.395 2.769-1.293-3.865-3.189-.88 2.52z"/><path fill="#7bcaff" d="m10.902 34.11 2.623-.77L6 29v2.493z"/><g fill="#eed050"><path d="m11.064 37.896-.662-2.102L1.4 33.43l1.918 4.253zM39.397 20.332l1.443-1.193-4.479-5.708-1.716 3.605zM34.249 8.642l1.841-.344-1.15-7.166-3.25 2.322zM24.752 18.9l1.443-1.192L21.715 12 20 15.605z"/><ellipse cx="4.856" cy="18.777" rx="2.317" ry="2.302"/></g><ellipse cx="26.32" cy="5.305" fill="#75c8fe" rx="2.32" ry="2.305"/><g fill="#ff80b0"><path d="m36.942 33.386 3.417-.982-5.438-6.054-1.189 2.736zM25.32 34.523h4.322L24.958 30 21 31.377zM16.135 52.03l-2.38-1.002-7.084 3.276 4.744 1.045zM12.936 12.63l2.935-1.481L12.088 7 10 9.074z"/></g></g><path fill="#fff" d="M54.679 41.721c3.616-3.78 8.905-3.26 8.905-3.26s-2.991 1.359-3.143 5.03c3.5-2.898 7.674.183 9.855-3.071 1.813-2.708-.7-5.51-4.116-6.3s-8.742 1.048-11.501 7.601z"/><g transform="translate(1 2)"><g fill-rule="nonzero"><g fill="#7f4331"><path d="M59.877 32.998c-.394-1.2-.77-2.416-.973-3.401-.53-2.573.245-3.52 2.496-4.713l.55-.297c1.114-.632 1.453-1.121 1.323-2.136-.076-.593-.264-.897-.545-1.031-.447-.213-1.222-.083-2.363.358-.132.05-.678.267-1.636.648-.697.23-1.119.223-1.35-.372a8.742 8.742 0 0 1-.562-2.186c-.35-3.106 1.068-4.95 4.636-7.516 3.394-2.442 3.837-3.528 3.376-4.773-1.687-4.551-10.09-1.267-13.233 5.543-1.812 3.927-.777 9.319 2.302 15.253a39.411 39.411 0 0 0 3.057 4.982h-1.524a46.652 46.652 0 0 1-2.598-4.43C49.6 22.697 48.5 16.969 50.506 12.62 54.004 5.039 63.578 1.312 65.94 7.127c.54 1.327.282 2.507-.646 3.615-.619.739-1.762 1.67-3.43 2.794-3.023 2.217-4.132 3.742-3.855 6.197.03.262.15.777.363 1.545l1.56-.62c1.44-.557 2.46-.727 3.312-.321.682.324 1.095.991 1.22 1.961.214 1.68-.48 2.556-2.135 3.451l-.565.302c-1.664.91-2.075 1.548-1.689 3.285.156.7.541 1.957.957 3.263zM97.08 20.318c.033-8.346-7.067-15.766-11.664-11.495-1.048.974-1.314 2.152-.94 3.548.248.93.89 2.257 1.926 3.98 1.804 3.285 2.164 5.136.876 7.243-.138.224-.465.64-.982 1.246l-1.151-1.22c-1.07-1.114-1.922-1.699-2.865-1.69-.755.006-1.411.435-1.933 1.262-.904 1.43-.645 2.518.476 4.028l.384.512c1.123 1.528 1.227 2.278.143 3.69-1.084 1.41-4.915 5.344-5.4 6.022a3.46 3.46 0 0 0-.086.127l1.787-.26c1.288-1.442 3.465-3.565 4.65-5.159 1.567-2.107 1.264-3.292-.271-5.323l-.373-.502c-.742-1.043-.843-1.63-.296-2.495.319-.505.618-.7.929-.703.495-.004 1.143.44 1.99 1.322.098.102.5.528 1.208 1.278.534.504.92.675 1.38.234a8.738 8.738 0 0 0 1.433-1.744c1.63-2.666 1.123-4.935-1.026-8.767-2.043-3.646-1.987-4.817-1.042-5.75 3.45-3.411 9.677 3.114 9.647 10.61-.017 4.324-3.232 8.771-8.528 12.848-2.698 2.077-5.256 3.471-7.19 4.309l1.45.685c1.983-.953 4.253-2.335 6.472-4.044 5.561-4.28 8.977-9.005 8.996-13.792z"/><path d="M84.277 48.01c1.756 4.7 2.808 10.484 3.141 17.285.916 18.69-5.803 25.26-22.5 25.26-13.252 0-20.213-4.256-22.069-15.262l1.22.164c1.811 10.215 8.307 13.899 20.848 13.899 16.03 0 22.175-6.198 21.303-24.002-.328-6.689-1.35-12.337-3.05-16.896zM57.434 34.664l-1.502 2.028c-5.896 3.215-9.74 10.02-11.434 20.148l-1.266.325c1.895-11.91 6.672-19.595 14.202-22.5zM68.63 33.65c3.377.556 6.31 1.9 8.795 3.993l-.977.764c-2.13-1.737-4.597-2.895-7.396-3.456z"/><path d="M65.3 31.608c-4.437-1.025-9.638 1.891-12.19 7.952-.258.613.526 1.128.986.647 1.03-1.076 3.378-2.766 6.607-3.037-1.087.944-1.807 2.65-1.878 4.368a.6.6 0 0 0 .982.487c.96-.795 2.337-1.267 5.016-1.265 2.68.003 3.884-.337 4.955-1.935 1.987-2.966-.428-6.281-4.479-7.217zm-.27 1.169c3.346.773 5.165 3.27 3.751 5.38-.715 1.068-1.508 1.36-3.43 1.4-1.92.038-3.682-.08-5.137.767.429-1.856 2.044-2.992 2.602-3.246.559-.254.421-1.083-.19-1.143-.61-.06-3.748-.25-7.116 1.644 2.701-3.915 6.324-5.54 9.52-4.802z"/><path d="M58.935 33.043c-5.641-1.308-11.641 1.663-10.527 5.53.294 1.02.864 1.675 1.67 1.935l1.055-1.073a1.995 1.995 0 0 1-.556-.034c-.48-.102-.809-.442-1.016-1.16-.723-2.508 3.494-4.794 7.996-4.227zM79.892 37.132c-2.755-.458-4.745.352-4.744 2.014 0 .626.342 1.188 1.11 2.033l.957 1.005.346.357.457.484c.214.231.41.449.596.666l.376.451.153.196c.152.2.303.417.492.707l.766 1.207c.794 1.246 1.344 1.918 2.051 2.332.98.574 2.05.429 3.17-.475 3.568-2.88.219-9.988-5.73-10.977zm-.197 1.184c5.042.838 7.816 6.726 5.172 8.859-.751.607-1.286.68-1.808.373-.418-.244-.82-.697-1.362-1.506l-.481-.747-.484-.765a12.36 12.36 0 0 0-.808-1.141l-.204-.249a23.63 23.63 0 0 0-.818-.927l-1.597-1.667-.265-.292c-.484-.55-.692-.897-.692-1.109 0-.687 1.217-1.183 3.347-.829z"/></g><path fill="#e75d84" d="m57.728 78.454-1.047-.177a621.97 621.97 0 0 1-6.914-1.246l-.642-.12-1.966-.374c-6.654-1.281-10.86-2.268-11.862-2.894a.45.45 0 0 1-.143-.62l.006-.012 2.746.6c1.854.498 4.764 1.132 8.477 1.859l.468.09 2.44.466 2.337.434c2.28.417 4.63.833 6.955 1.233l-1.534-.267c.167.258.393.6.679 1.028zM45.875 56.718c1.024.64 3.852 4.12 8.067 9.75l1.32 1.772a597.833 597.833 0 0 1 3.257 4.44l-.673.604a598.46 598.46 0 0 0-3.307-4.508l-1.6-2.144c-3.046-4.057-5.382-6.996-6.68-8.366l-1.01-1.398a.454.454 0 0 1 .554-.187z"/><path fill="#e75d84" d="M45.875 56.718c-2.028-1.268-5.87 1.62-8.781 6.28-2.912 4.659-3.825 9.377-1.797 10.645 2.028 1.267 5.87-1.621 8.781-6.28 2.912-4.66 3.825-9.378 1.797-10.645zm-.477.763c1.408.88.584 5.138-2.083 9.405-2.667 4.266-6.133 6.873-7.541 5.993s-.584-5.138 2.083-9.405c2.667-4.266 6.133-6.873 7.541-5.993z"/><path fill="#2c97de" d="M41.658 68.718a.6.6 0 0 1-.787.906C31.196 61.22 22.127 56.537 15.5 58.467c-3.437 1.002-5.042 3.59-4.048 6.224.702 1.86 2.699 2.94 4.188 2.51.669-.192 1.528-1.141 1.692-1.96.179-.897-.468-1.539-2.43-1.742a.6.6 0 1 1 .124-1.194c2.595.269 3.82 1.483 3.483 3.17-.25 1.256-1.434 2.562-2.537 2.88-2.106.606-4.726-.81-5.643-3.24-1.26-3.34.77-6.616 4.835-7.8 7.172-2.09 16.516 2.736 26.493 11.403z"/><path fill="#eed050" d="M32.088 56.128c2.825 2.49 6.1 4.73 9.295 6.59l.487.28.953.528.123.066a.6.6 0 0 0 .556-1.063l-.4-.217c-.328-.18-.702-.39-1.116-.632-3.134-1.823-6.348-4.022-9.105-6.452-4.245-3.741-6.65-7.399-6.578-10.728.051-2.383 1.413-3.834 3.242-3.652 1.28.127 2.287 1.192 2.269 2.17-.008.413-.45 1.097-.908 1.324-.459.227-.897-.029-1.35-1.216a.6.6 0 0 0-1.121.428c.68 1.782 1.822 2.447 3.002 1.863.858-.423 1.56-1.512 1.576-2.378.03-1.618-1.464-3.198-3.35-3.385-2.58-.256-4.494 1.784-4.56 4.82-.08 3.777 2.499 7.7 6.985 11.654z"/><path fill="#4f9fd3" d="M11.727 43.55c-1.754 0-3.177 1.414-3.177 3.16s1.423 3.16 3.177 3.16 3.177-1.415 3.177-3.16-1.423-3.16-3.177-3.16zm0 .9c1.258 0 2.277 1.012 2.277 2.26s-1.019 2.26-2.277 2.26-2.277-1.013-2.277-2.26 1.019-2.26 2.277-2.26zM18.418 70.454c-.508 1.044.556 2.44 2.23 3.256s3.43.794 3.94-.25-.556-2.44-2.231-3.256-3.43-.793-3.939.25zm.81.395c.217-.446 1.45-.462 2.735.164s2.032 1.607 1.815 2.053-1.45.461-2.735-.165-2.033-1.607-1.815-2.052z"/><path fill="#e3b55c" d="m25.588 64.765-.88 2.519a.45.45 0 0 0 .108.467l1.976 1.963a.45.45 0 0 0 .507.088l2.77-1.293a.45.45 0 0 0 .095-.754l-3.865-3.19a.45.45 0 0 0-.711.2zm.636.906 2.817 2.324-1.839.858-1.551-1.541z"/><path fill="#4f9fd3" d="M5.55 50v2.493a.45.45 0 0 0 .238.397l4.903 2.617a.45.45 0 0 0 .338.035l2.623-.77a.45.45 0 0 0 .098-.822l-7.525-4.34a.45.45 0 0 0-.675.39zm.9.778 5.939 3.426-1.438.421-4.501-2.401z"/><g fill="#e3b55c"><path d="m.99 54.614 1.918 4.253a.45.45 0 0 0 .398.265l7.745.213a.45.45 0 0 0 .442-.584l-.661-2.102a.45.45 0 0 0-.315-.3l-9.003-2.365a.45.45 0 0 0-.525.62zm1.207.49 7.85 2.062.397 1.262-6.832-.188zM35.955 34.238l-1.716 3.605a.45.45 0 0 0 .15.563l4.751 3.296a.45.45 0 0 0 .544-.023l1.443-1.193a.45.45 0 0 0 .067-.625l-4.479-5.707a.45.45 0 0 0-.76.084zm.5 1.042 3.76 4.792-.842.696-4.158-2.884zM34.678 21.766l-3.25 2.322a.45.45 0 0 0-.142.565l2.56 5.189a.45.45 0 0 0 .486.243l1.84-.344a.45.45 0 0 0 .363-.514l-1.151-7.166a.45.45 0 0 0-.706-.295zm-.068 1.154.965 6.016-1.073.2-2.24-4.538zM21.31 32.807l-1.716 3.605a.45.45 0 0 0 .15.563l4.751 3.296a.45.45 0 0 0 .543-.023l1.443-1.194a.45.45 0 0 0 .068-.624l-4.48-5.708a.45.45 0 0 0-.76.085zm.5 1.042 3.759 4.791-.842.696-4.157-2.883zM4.856 37.025a2.76 2.76 0 0 0-2.767 2.752 2.76 2.76 0 0 0 2.767 2.752 2.76 2.76 0 0 0 2.767-2.752 2.76 2.76 0 0 0-2.767-2.752zm0 .9a1.86 1.86 0 0 1 1.867 1.852c0 1.023-.835 1.852-1.867 1.852S2.99 40.8 2.99 39.777a1.86 1.86 0 0 1 1.867-1.852z"/></g><path fill="#61a2cc" d="M26.32 23.5c-1.557 0-2.82 1.255-2.82 2.805s1.263 2.805 2.82 2.805 2.82-1.255 2.82-2.805-1.263-2.805-2.82-2.805zm0 1c1.006 0 1.82.809 1.82 1.805s-.814 1.805-1.82 1.805c-1.006 0-1.82-.809-1.82-1.805s.814-1.805 1.82-1.805z"/><g fill="#e75d84"><path d="m34.51 47.17-1.19 2.737a.45.45 0 0 0 .053.448l3.21 4.3a.45.45 0 0 0 .484.163l3.417-.981a.45.45 0 0 0 .21-.733l-5.437-6.055a.45.45 0 0 0-.747.122zm.545 1.002 4.49 4.998-2.428.697-2.867-3.84zM24.81 50.575l-3.958 1.377a.45.45 0 0 0-.117.789l4.32 3.145a.45.45 0 0 0 .266.087h4.32a.45.45 0 0 0 .313-.774l-4.683-4.523a.45.45 0 0 0-.46-.101zm.034.941 3.683 3.556h-3.06l-3.507-2.553zM6.575 75.745l4.745 1.045a.45.45 0 0 0 .355-.072l4.72-3.32a.45.45 0 0 0-.084-.783l-2.38-1.001a.45.45 0 0 0-.363.006l-7.085 3.277a.45.45 0 0 0 .092.848zm1.499-.591 5.691-2.632 1.446.608-3.893 2.738zM11.77 27.68l-2.087 2.075a.45.45 0 0 0-.03.606l2.936 3.556a.45.45 0 0 0 .55.116l2.935-1.483a.45.45 0 0 0 .13-.705l-3.784-4.148a.45.45 0 0 0-.65-.016zm.301.97 3.068 3.363-2.086 1.054-2.445-2.963z"/></g><g fill="#7f4331"><path d="M70.33 64.427a.6.6 0 0 0-.752.394c-.7 2.244-2.41 3.499-5.958 4.868l-1.693.63c-4.622 1.706-6.31 3.057-6.004 6.17.34 3.45 3.588 4.105 7.852 2.618 3.624-1.264 6.976-3.71 6.976-5.416a.6.6 0 0 0-1.192-.097l-.008.097c0 .983-3.01 3.18-6.172 4.283-3.64 1.27-6.026.787-6.262-1.603-.225-2.286 1.022-3.345 4.92-4.813l1.656-.613c4.108-1.543 6.163-2.985 7.03-5.766a.6.6 0 0 0-.393-.752zM64.125 45.749a7.582 7.582 0 0 1 5.116.31 7.77 7.77 0 0 1 1.188.634.6.6 0 1 1-.652 1.006 6.571 6.571 0 0 0-1.005-.535 6.414 6.414 0 0 0-4.315-.262c-.18.057-.274.088-.286.093a.6.6 0 0 1-.45-1.112 9.1 9.1 0 0 1 .404-.134z"/><path d="M64.165 45.288c1.207-1.02 2.997-1.425 5.408-.834a.6.6 0 0 1-.286 1.165c-2.041-.5-3.436-.185-4.347.585-.15.126-.305.299-.466.518a.6.6 0 1 1-1.057-.567c.122-.227.363-.541.748-.867z"/></g></g><circle cx="54" cy="44" r="3" fill="#7f4331"/><circle cx="55" cy="43" r="1" fill="#fff"/><path fill="#7f4331" fill-rule="nonzero" d="M68.05 52.635c-2.36.99-5.428 1.539-9.761 1.174-3.138-.265-5.292-1.032-6.92-2.173a36.34 36.34 0 0 1-1.284-1.04.6.6 0 0 0-.935.206l-.016.034c-.21.464-.458 1.125-.679 1.923-.346 1.252-.525 2.516-.466 3.732.169 3.475 2.228 5.929 6.608 6.703 4.616.815 8.012-.075 10.415-2.41 1.814-1.764 2.885-4.044 3.848-7.431a.6.6 0 0 0-.81-.718z"/><path fill="#f56d7b" d="M57.354 55.306c3.675.185 7.28 1.145 8.385 2.634-2.13 3.648-5.351 5.058-10.933 4.072-3.17-.56-4.852-2.02-5.412-4.175 1.002-1.684 3.999-2.73 7.96-2.53z"/></g></g></svg>