<svg data-id="138-126c4838ec52608-happy" xmlns="http://www.w3.org/2000/svg" viewBox="0 0 100 100"><g fill="none" fill-rule="evenodd"><path fill="#a67b6c" d="M37.733 33.042c-.455-1.249 4.097-19.889 14.148-22.253 7.677-1.807 15.963 3.052 13.178 7.899-2.784 4.846-11.254-4.939-16.003 3.052-.428.72 5.922 2.285 3.229 5.006s-5.143-2.903-8.288.917c-2.16 2.625-3.522 5.336-4.642 6.607-1.342 1.522-1.544-1.012-1.622-1.228zM55.372 35.741c.024-1.329 10.96-17.092 21.19-15.693 7.815 1.068 13.807 8.576 9.469 12.1-4.338 3.524-8.734-8.646-16.035-2.893-.657.518 4.71 4.257 1.219 5.83-3.49 1.574-3.759-4.554-8.066-2.117-2.958 1.675-5.201 3.716-6.703 4.5-1.799.94-1.078-1.498-1.074-1.727z"/><path fill="#e99c00" d="M35.675 33.58c-3.115 1.771-6.775 4.095-7.712.845-.954-3.31 4.886-6.318 10.559-4.58 1.593.489 1.448 2.1 1.448 2.1s-2.16 1.444-4.295 1.635z"/><path fill="#ffd800" d="M43.9 86c14.723 0 22.876-4.762 21.903-24.631C64.829 41.5 57.674 30 43.9 30c-13.774 0-20.929 11.5-21.902 31.369C21.026 81.238 29.179 86 43.901 86z"/><path fill="#ffd800" d="M27.199 63.977c1.302 1.26 5.108 3.793 3.225 7.231-1.883 3.44-8.223.704-9.559-3.604-1.554-5.01 1.188-9.264 1.93-9.904.856-2.826 5.052 4.98 4.404 6.277z"/><path fill="#e99c00" d="M58.46 39.816c1.753 2.173 2.963 6.156 5.787 3.877s.467-8.935-5.45-9.918c-2.64-.439-4.047.36-4.046 1.422 0 1.062 1.956 2.447 3.71 4.62z"/><path fill="#fff" d="M31.695 34.723c3.616-3.78 8.905-3.26 8.905-3.26s-2.991 1.359-3.143 5.03c3.5-2.898 7.674.183 9.855-3.071 1.813-2.708-.7-5.51-4.116-6.3s-8.742 1.048-11.501 7.601z"/><g fill="#ff608b"><path d="M42.837 50.805c1.792.798 10.873-3.581 10.297-7.318-.577-3.736-5.354-1.572-6.176-1.937-.822-.366-2.381-5.352-5.572-3.293-3.191 2.059-.34 11.75 1.451 12.548M36.208 38.22c-1.518-2.945-4.25.607-4.938.595-.69-.012-3.273-3.656-4.915-.766-1.643 2.89 3.251 10.038 4.754 10.064 1.503.026 6.617-6.95 5.1-9.894z"/></g><g fill-rule="nonzero"><g fill="#7f4331"><path d="M76.541 19.497c8.274 1.131 14.636 9.201 9.764 13.16-1.112.903-2.316 1.002-3.647.438-.888-.376-2.113-1.198-3.675-2.465-3.004-2.245-4.787-2.86-7.055-1.877-.241.105-.699.37-1.372.799l1.049 1.31c.954 1.216 1.415 2.142 1.275 3.075-.111.748-.628 1.338-1.52 1.74-1.544.696-2.585.287-3.925-1.034l-.454-.452c-1.357-1.326-2.086-1.533-3.636-.656-.45.255-1.143.709-1.918 1.235l-1.367-.548c.943-.66 1.889-1.292 2.694-1.732 2.306-1.258 3.438-.793 5.237 1.012l.445.44c.93.88 1.497 1.061 2.43.64.545-.245.781-.515.827-.822.073-.49-.277-1.194-1.033-2.157-.087-.11-.453-.57-1.098-1.375-.424-.6-.54-1.005-.039-1.4a8.744 8.744 0 0 1 1.928-1.176c2.869-1.243 5.047-.425 8.545 2.239 3.327 2.533 4.495 2.64 5.552 1.835 3.86-2.944-1.737-10.023-9.17-11.04-4.285-.586-9.14 1.98-13.918 6.659a32.726 32.726 0 0 0-4.981 6.255l-1.426.184c1.167-2.162 3.061-4.843 5.567-7.297 5.017-4.913 10.175-7.639 14.921-6.99zM51.745 10.247c8.13-1.913 16.965 3.338 13.837 8.783-.713 1.242-1.802 1.766-3.247 1.717-.964-.033-2.402-.36-4.315-.982-3.61-1.018-5.496-.952-7.26.779-.188.184-.52.596-.994 1.238l1.449.847c1.327.793 2.09 1.49 2.294 2.413.164.737-.107 1.474-.795 2.17-1.191 1.203-2.31 1.195-4.035.443l-.586-.26c-1.586-.683-2.354-.688-3.332.352l-1.116-.548c1.645-1.875 2.866-1.827 5.143-.81l.574.251c1.184.489 1.778.454 2.499-.273.42-.425.544-.761.476-1.065-.107-.484-.687-1.015-1.738-1.642-.121-.073-.628-.37-1.518-.89-.611-.408-.865-.745-.54-1.294.42-.705.879-1.3 1.378-1.79 2.233-2.19 4.56-2.207 8.78-.975 4.016 1.171 5.145.852 5.842-.28 2.549-4.132-5.217-8.733-12.52-7.015-4.212.99-7.824 5.128-10.606 11.21a32.653 32.653 0 0 0-1.673 4.524l-1.345.436a32.697 32.697 0 0 1 1.927-5.459c2.92-6.387 6.758-10.783 11.421-11.88z"/><path d="M63.41 44.397c1.68 4.64 2.691 10.31 3.016 16.95.916 18.688-5.803 25.26-22.5 25.26-14.13 0-21.107-4.84-22.37-17.538l1.329 1.203c1.502 11.156 8.006 15.135 21.04 15.135 16.03 0 22.175-6.198 21.303-24.002-.325-6.632-1.332-12.24-3.006-16.779zM26.115 40.54l.643 1.394c-1.96 4.113-3.25 9.317-3.854 15.565l-1.377 2.093c.54-7.809 2.078-14.196 4.588-19.052zm6.256-7.598-.67 2.11a19.102 19.102 0 0 0-2.417 2.666l-1.082-.562c1.228-1.669 2.619-3.076 4.169-4.214zm14.92-3.296c3.442.508 6.432 1.82 8.963 3.9l-.974.77c-2.145-1.704-4.628-2.83-7.441-3.358z"/><path d="M58.926 33.232c-2.756-.458-4.745.352-4.744 2.014 0 .626.342 1.189 1.109 2.033 1.289 1.283 2.2 2.271 2.733 2.964a18.34 18.34 0 0 1 1.41 2.11c.795 1.245 1.345 1.917 2.052 2.331.98.574 2.05.429 3.169-.475 3.569-2.88.22-9.988-5.729-10.977zm-.197 1.184c5.042.838 7.816 6.726 5.172 8.86-.752.606-1.286.678-1.808.373-.418-.245-.82-.698-1.362-1.507-.94-1.454-1.531-2.339-1.773-2.653-.242-.315-1.203-1.36-2.884-3.135-.484-.55-.692-.897-.692-1.109 0-.687 1.217-1.183 3.347-.829zM43.345 26.532c-4.436-1.025-9.638 1.892-12.19 7.952-.257.614.527 1.129.987.648 1.03-1.077 3.378-2.767 6.606-3.038-1.086.945-1.806 2.651-1.877 4.368a.6.6 0 0 0 .982.487c.96-.795 2.337-1.266 5.016-1.264 2.68.002 3.884-.337 4.955-1.936 1.987-2.966-.428-6.281-4.48-7.217zm-.27 1.169c3.347.773 5.166 3.27 3.752 5.38-.715 1.068-1.508 1.361-3.43 1.4-1.92.038-3.682-.08-5.137.768.429-1.856 2.044-2.993 2.602-3.247.558-.253.421-1.083-.19-1.143-.61-.06-3.748-.249-7.116 1.644 2.701-3.915 6.324-5.54 9.519-4.802zM22.432 57.298a.6.6 0 1 1 .784.908c-.427.369-1.185 1.645-1.648 3.047-.658 1.996-.754 4.12-.1 6.226 1.24 3.999 6.938 6.27 8.46 3.494.947-1.732.35-3.26-1.456-5.011l-.422-.391c-.48-.434-1.127-1.002-1.24-1.111a.6.6 0 0 1 .836-.862l1.255 1.125c.164.149.31.283.407.377 2.148 2.083 2.945 4.124 1.672 6.449-2.152 3.93-9.154 1.138-10.659-3.715-1.303-4.202.26-8.938 2.11-10.536zM50.358 59.48a.6.6 0 0 0-.751.394c-.7 2.243-2.41 3.498-5.959 4.867l-1.693.63c-4.621 1.706-6.31 3.057-6.003 6.17.34 3.45 3.587 4.105 7.851 2.618 3.625-1.263 6.977-3.71 6.977-5.416a.6.6 0 0 0-1.193-.097l-.007.097c0 .983-3.01 3.181-6.172 4.283-3.64 1.27-6.027.788-6.262-1.603-.225-2.286 1.021-3.345 4.92-4.813l1.655-.612c4.108-1.544 6.164-2.986 7.031-5.767a.6.6 0 0 0-.394-.752z"/><path d="M35.916 28.818c-4.962-.309-9.52 2.406-8.536 5.82.323 1.122.98 1.801 1.919 2l-.14-.034 1.05-1.115c-.2.022-.383.02-.55-.004l-.11-.02c-.48-.102-.81-.442-1.017-1.16-.636-2.208 2.554-4.243 6.398-4.312z"/></g><g fill="#b3303d"><path d="M41.115 37.836c1.863-1.202 3.349-.532 4.739 1.355.39.53 1.124 1.84 1.307 1.902.123.041.558-.013 1.306-.164.622-.1 1.069-.153 1.528-.17 2.004-.078 3.328.679 3.633 2.652.556 3.601-8.073 8.87-10.87 7.9l-.129-.052-.125-.063c-2.552-1.428-4.397-11.05-1.539-13.254zm4.844 3.319-.487-.755-.302-.447c-1.16-1.647-2.166-2.145-3.513-1.276-1.206.778-1.512 3.188-.923 6.232.51 2.638 1.623 5.135 2.307 5.44 1.982.882 10.032-3.978 9.599-6.786-.214-1.385-1.055-1.865-2.606-1.805-.41.015-.823.065-1.409.159l-.942.146c-.604.085-.677.055-.928-.057-.271-.12-.47-.358-.796-.851zM27.477 36.485c-.616.142-1.138.583-1.556 1.318-1.606 2.826 2.848 10.77 5.18 10.811 2.326.04 7.038-7.742 5.553-10.623-.694-1.346-1.741-1.709-2.944-1.253-.383.146-.759.36-1.19.659-.43.3-1.096.858-1.258.858s-.66-.559-1.05-.798c-1.036-.802-1.866-1.172-2.735-.972zm.225.975c.443-.102.992.12 1.714.65.6.478.934.744 1.002.796.36.28.577.406.844.41.223.004.414-.079.684-.258l.943-.696c.46-.335.83-.557 1.176-.688.74-.28 1.246-.105 1.7.775 1.14 2.214-3.084 9.192-4.646 9.165-1.57-.027-5.561-7.148-4.328-9.317.288-.508.591-.763.91-.837z"/></g></g><path fill="#7f4331" fill-rule="nonzero" d="M46.145 52.208c-2.438.78-5.541 1.06-9.826.32-3.103-.537-5.181-1.488-6.704-2.766a37.139 37.139 0 0 1-1.188-1.148.6.6 0 0 0-.925.084c-.256.422-.437.738-.544.948-.698 1.365-1.173 2.86-1.234 4.382-.133 3.3 1.726 5.965 6.055 7.512 4.633 1.656 8.137 1.154 10.743-1.145 1.875-1.653 2.938-3.652 4.366-7.402a.6.6 0 0 0-.743-.785z"/><path fill="#f56d7b" d="M35.257 53.938c3.774.521 7.402 1.865 8.217 3.522a9.709 9.709 0 0 1-1.745 2.035c-2.261 1.994-5.306 2.43-9.546.915-3.008-1.075-4.598-2.653-5.094-4.615 1.128-1.61 4.217-2.403 8.168-1.857z"/></g></svg>