<svg data-id="14-9d2f2c62da53875-dog" xmlns="http://www.w3.org/2000/svg" viewBox="0 0 100 100"><g fill="none" fill-rule="evenodd"><g fill="#633500"><path d="M68.32 69.52s-50.194-2.514-50.194 8.287c0 6.345 3.745 7.286 8.37 7.286h44.612c4.622 0 8.37-1.418 8.37-7.286 0-4.025-6.534-8.287-11.159-8.287z"/><path d="M62.475 57.375s-38.015-.443-38.015 7.073c0 6.072 3.421 6.072 7.603 6.072l33.453-1c4.2 0 7.603-2.695 7.603-6.072 0-3.354-6.463-6.073-10.644-6.073z"/><path d="M55.632 39.093c-3.312 8.188-23.563 3.54-23.563 12.905 0 5.377 3.742 6.377 8.359 6.377l16.748-1c4.616 0 8.358-2.862 8.358-6.377 0-3.522-.88-9.359-9.902-11.905z"/></g><g fill="#2a1700"><path d="M68.094 68.962c2.741-.01 6.131 1.398 8.552 3.392 1.927 1.587 3.218 3.556 3.228 5.453.017 3.093-.97 5.042-2.515 6.254-1.627 1.276-3.93 1.726-6.495 1.74l-44.612.213c-2.68.01-5.078-.33-6.758-1.626-1.549-1.194-2.568-3.193-2.58-6.581-.006-1.795 1.064-3.341 3.042-4.581 2.441-1.53 6.351-2.645 10.943-3.381 5.688-.91 12.434-1.292 18.612-1.375 9.861-.132 18.264.469 18.583.492zm-.033 1.116c2.113.01 4.614.957 6.663 2.346 2.178 1.476 3.88 3.442 3.87 5.383-.014 2.562-.771 4.199-2.061 5.189-1.424 1.093-3.443 1.402-5.669 1.39l-44.612-.214c-2.214-.008-4.218-.197-5.599-1.277-1.175-.92-1.812-2.501-1.803-5.088.003-1.181.841-2.103 2.146-2.913 2.282-1.415 5.947-2.37 10.224-3.077 5.604-.927 12.247-1.367 18.335-1.593 9.991-.372 18.492-.147 18.492-.147z"/><path d="M62.237 56.818c2.391-.016 5.502.817 7.821 2.15 2.054 1.18 3.455 2.784 3.467 4.48.013 2.02-1.053 3.836-2.778 5.086-1.448 1.049-3.366 1.693-5.453 1.707l-33.447 1.202h-.028c-2.429.01-4.612-.05-6.14-1.037-1.436-.93-2.424-2.644-2.438-5.958-.004-1.366.874-2.603 2.554-3.593 1.885-1.11 4.85-1.984 8.319-2.602 4.305-.767 9.396-1.19 14.058-1.383 7.577-.316 14.009-.054 14.065-.052zM31.81 69.597l33.462-.798c1.794.012 3.435-.504 4.678-1.38 1.376-.97 2.265-2.376 2.276-3.971.009-1.321-1.2-2.48-2.786-3.42-2.13-1.264-4.998-2.08-7.212-2.095h-.003s-6.409.116-13.954.668c-4.577.335-9.571.825-13.799 1.613-3.191.594-5.939 1.327-7.679 2.343-.947.552-1.599 1.123-1.602 1.89-.01 2.382.501 3.69 1.527 4.368 1.257.829 3.083.773 5.092.782z"/><path d="m56.968 58.175-16.729 1.12-.055.003c-3.116.018-5.848-.471-7.524-2.144-1.113-1.111-1.81-2.745-1.821-5.156-.005-2.602 1.286-4.314 3.361-5.494 1.264-.72 2.839-1.236 4.568-1.64 2.139-.5 4.52-.843 6.811-1.265 2.349-.433 4.6-.937 6.367-1.856 1.31-.682 2.356-1.573 2.925-2.86l.187-.463.481.136c3.642.993 6.011 2.526 7.559 4.226 2.492 2.736 2.877 5.933 2.896 8.216.018 2.143-1.185 4.09-3.136 5.42-1.569 1.07-3.629 1.732-5.89 1.757zm-1.26-18.402c-.784 1.687-2.269 2.878-4.152 3.768-1.642.776-3.595 1.319-5.627 1.774-2.248.504-4.594.9-6.7 1.437-1.526.388-2.92.843-4.039 1.485-1.43.82-2.374 1.964-2.378 3.76-.011 2.26.709 3.627 1.982 4.4 1.374.839 3.276 1.042 5.37 1.056l16.72-.876.048-.002c1.944.016 3.726-.512 5.089-1.408 1.542-1.014 2.551-2.494 2.565-4.17.018-2.033-.254-4.895-2.431-7.371-1.334-1.517-3.369-2.884-6.447-3.853z"/></g><path fill="#939393" d="M47.879 32.225s.574-.36 1.264-1.045c.347-.345.71-.774 1.037-1.282.573-.888 1.01-2.012 1.036-3.273.036-1.744-.742-3.775-3.077-5.838-1.807-1.558-2.5-3.001-2.555-4.28-.114-2.627 2.271-4.428 2.271-4.428a.559.559 0 0 0-.647-.908s-3.051 2.085-3.104 5.356c-.026 1.608.663 3.51 2.82 5.593 1.735 1.633 2.289 3.158 2.299 4.492.007.923-.232 1.747-.556 2.449-.63 1.366-1.483 2.29-1.483 2.29a.559.559 0 0 0 .695.874zM56.129 36.158s.628-.254 1.426-.81a7.685 7.685 0 0 0 1.245-1.081c.717-.776 1.343-1.807 1.588-3.044.338-1.711-.075-3.846-2.017-6.283-1.509-1.848-1.941-3.391-1.773-4.66.344-2.607 3.006-3.966 3.006-3.966a.557.557 0 1 0-.48-1.007s-3.366 1.525-3.987 4.736c-.304 1.579.043 3.573 1.806 5.997 1.425 1.91 1.706 3.509 1.485 4.824-.154.91-.532 1.68-.973 2.315-.859 1.236-1.859 1.999-1.859 1.999a.558.558 0 0 0 .533.98zM42.348 39.894s.469-.488.973-1.32a7.67 7.67 0 0 0 .697-1.494c.34-1.001.493-2.197.213-3.427-.387-1.701-1.633-3.483-4.398-4.92-2.13-1.074-3.152-2.308-3.515-3.535-.746-2.522 1.133-4.846 1.133-4.846a.558.558 0 0 0-.848-.725s-2.455 2.762-1.716 5.949c.364 1.566 1.493 3.246 4.089 4.744 2.079 1.165 2.986 2.51 3.318 3.803.23.893.198 1.75.053 2.51-.281 1.479-.885 2.582-.885 2.582a.559.559 0 0 0 .886.679z"/></g></svg>