<svg data-id="140-09774664b52cb57-victory" xmlns="http://www.w3.org/2000/svg" viewBox="0 0 100 100"><g fill="none" fill-rule="evenodd"><path fill="#a67b6c" d="M58.854 39.538c1.312.208 18.733-7.818 19.135-18.133.307-7.879-6.042-15.084-10.266-11.426-4.224 3.658 6.994 10.103.06 16.29-.625.556-3.372-5.377-5.529-2.214-2.156 3.162 3.83 4.492.682 8.308-2.163 2.622-4.563 4.475-5.596 5.818-1.238 1.607 1.288 1.321 1.514 1.357zM41.146 39.532c-1.312.208-18.733-7.816-19.135-18.13-.307-7.877 6.042-15.08 10.266-11.423s-6.994 10.1-.06 16.286c.625.557 3.372-5.375 5.529-2.213 2.156 3.161-3.83 4.491-.682 8.307 2.163 2.62 4.563 4.474 5.596 5.816 1.238 1.606-1.288 1.321-1.514 1.357z"/><path fill="#e99c00" d="M66.623 42.572c3.148 1.828 6.254 5.097 8.688 2.406C77.745 42.286 73.403 35 67.449 35 63.406 35 59 37.584 59 39.314s4.475 1.43 7.623 3.258zM33.377 42.572c-3.148 1.828-6.254 5.097-8.688 2.406C22.255 42.286 26.597 35 32.551 35 36.594 35 41 37.584 41 39.314s-4.475 1.43-7.623 3.258z"/><path fill="#ffd800" d="M49.9 90c14.723 0 22.876-4.762 21.903-24.631C70.829 45.5 63.674 34 49.9 34c-13.774 0-20.929 11.5-21.902 31.369C27.026 85.238 35.179 90 49.901 90z"/><path fill="#ffd800" d="M70.143 61c7.35 5.754 8.482 14.658 4.971 16.468s-6.44-3.595-7.114-8.154c-.856-2.825 1.495-9.61 2.143-8.314z"/><path fill="#fff" d="M41.123 43.998c2.673-4.5 7.946-5.184 7.946-5.184s-2.61 1.999-1.931 5.611c2.76-3.612 7.521-1.549 8.913-5.212C57.21 36.166 54.128 34 50.621 34s-8.284 2.989-9.498 9.998z"/><path fill="#ffd800" d="M31.236 67.094c-9.015 0-16.096-8.931-14.596-10.786s4.283.817 4.906 1.394c-.884-2.205-2.432-3.492-.738-4.408 1.133-.613 2.7.597 4.413 1.886.511.384 4.384 1.68 5.154 2.522 1.862 2.037 9.877 9.392.861 9.392z"/><g transform="translate(15 8)"><g fill="#7f4331"><g fill-rule="nonzero"><path d="M6.452 13.436C6.127 5.093 12.965-2.574 17.71 1.535c1.083.937 1.39 2.106 1.066 3.514-.216.94-.812 2.288-1.788 4.046-1.687 3.348-1.983 5.211-.621 7.273.145.22.487.623 1.025 1.211l1.108-1.26c1.031-1.15 1.862-1.765 2.805-1.79.755-.02 1.426.386 1.977 1.194.954 1.399.733 2.495-.335 4.044l-.366.525c-1.07 1.567-1.146 2.321-.013 3.694.693.84 2.446 2.587 3.82 3.97l-1.178.522c-1.231-1.21-2.666-2.6-3.568-3.728-1.64-2.052-1.38-3.247.085-5.332l.355-.515c.706-1.068.785-1.658.209-2.504-.337-.494-.643-.68-.954-.67-.495.012-1.127.48-1.943 1.391-.095.105-.482.546-1.163 1.32-.517.522-.896.707-1.372.282a8.742 8.742 0 0 1-1.493-1.693c-1.723-2.608-1.296-4.895.718-8.802 1.915-3.716 1.818-4.885.84-5.785C13.357-.847 7.36 5.895 7.652 13.39c.169 4.321 3.539 8.655 8.976 12.545.539.385 1.075.743 1.604 1.076h-2.162l-.14-.1c-5.586-3.996-9.134-8.489-9.46-13.162zM63.605 13.375c.325-8.343-6.513-16.01-11.258-11.901-1.082.937-1.39 2.106-1.065 3.514.216.94.812 2.288 1.787 4.046 1.688 3.348 1.983 5.211.621 7.273-.144.219-.486.623-1.025 1.211l-1.108-1.26c-1.03-1.15-1.861-1.766-2.805-1.79-.755-.02-1.426.386-1.977 1.194-.954 1.398-.732 2.495.335 4.044l.366.525c1.07 1.567 1.147 2.321.014 3.694-.721.874-2.59 2.729-3.984 4.133l1.119.578c1.276-1.26 2.834-2.75 3.79-3.947 1.64-2.052 1.38-3.247-.085-5.332l-.355-.515c-.705-1.069-.785-1.659-.208-2.504.336-.494.642-.68.953-.671.495.013 1.127.48 1.944 1.392.094.105.482.545 1.163 1.32.516.522.896.706 1.371.282a8.742 8.742 0 0 0 1.494-1.693c1.723-2.609 1.295-4.895-.719-8.802-1.915-3.716-1.817-4.885-.84-5.785 3.569-3.29 9.565 3.452 9.273 10.947-.168 4.321-3.539 8.655-8.976 12.545-.571.409-1.14.787-1.7 1.136H53.9l.227-.16c5.586-3.996 9.134-8.49 9.46-13.163z"/><path d="M17.638 26.41C11.63 26.41 6.265 34 9.33 37.39c1.076 1.19 2.366 1.474 3.852 1.004.898-.284 1.56-.647 3.056-1.645 1.348-.898 2.09-1.388 2.224-1.47.043-.026.142-.079.28-.148l1.301-1.914c-.7.244-1.32.519-1.882.846-.47.273-1.263.788-2.38 1.545-3.152 2.094-4.303 2.369-5.561.977-2.256-2.495 2.325-8.976 7.417-8.976 2.152 0 4.58.848 6.157 1.83.353-.235.752-.498 1.195-.79-1.797-1.343-4.735-2.24-7.352-2.24zM52.45 26.432c6.007 0 11.372 7.59 8.306 10.98-1.076 1.19-2.366 1.475-3.852 1.005-.898-.284-1.56-.648-3.056-1.646a166.44 166.44 0 0 0-2.224-1.47 5.272 5.272 0 0 0-.28-.148l-1.301-1.913c.7.243 1.32.518 1.882.845.47.273 1.263.788 2.38 1.545 3.152 2.095 4.303 2.37 5.561.977 2.256-2.494-2.325-8.975-7.417-8.975-2.152 0-4.58.848-6.157 1.829l-1.195-.79c1.797-1.343 4.735-2.239 7.352-2.239z"/><path d="m12.391 58.578 1.192.272c-.482 16.865 5.765 22.56 21.359 22.56 12.226 0 18.701-3.606 20.7-13.215l1.069.77c-2.235 9.893-9.154 13.644-21.77 13.644-16.322 0-23.1-6.458-22.55-24.031zm22.55-33.169c13.384 0 20.975 10.545 22.38 29.913l-1.304-1.239c-1.598-17.95-8.75-27.474-21.075-27.474-11.18 0-18.104 7.836-20.486 22.689l-1.116-.593c2.542-15.14 9.832-23.296 21.602-23.296z"/><path d="M55.52 52.673a.6.6 0 1 0-.74.945c6.438 5.041 8.517 13.682 5.066 15.462-2.582 1.332-5.49-2.593-6.247-7.708a.6.6 0 1 0-1.187.176c.86 5.813 4.323 10.487 7.984 8.599 4.467-2.304 2.14-11.98-4.877-17.474zM35.55 25.511c-4.555 0-8.968 4.014-10.09 10.495-.114.657.767.982 1.107.41.76-1.281 2.67-3.458 5.755-4.449-.846 1.165-1.163 2.991-.846 4.68a.6.6 0 0 0 1.066.254c.757-.99 1.993-1.76 4.605-2.362 2.612-.6 3.71-1.203 4.394-3.002 1.268-3.338-1.832-6.026-5.991-6.026zm0 1.2c3.437 0 5.772 2.025 4.869 4.4-.457 1.202-1.164 1.666-3.028 2.136-1.864.47-3.608.75-4.835 1.905 0-1.905 1.318-3.377 1.806-3.75s.166-1.15-.442-1.071-3.71.6-6.567 3.204c1.752-4.424 4.917-6.824 8.197-6.824zM44.404 41.651c1.659-.64 3.405-.69 5.02-.397l.316.062c.19.041.337.08.436.11a.6.6 0 0 1-.352 1.148 11.038 11.038 0 0 0-.614-.14c-1.417-.256-2.951-.212-4.375.337-.9.347-1.703.883-2.393 1.635a.6.6 0 1 1-.884-.812 7.46 7.46 0 0 1 2.846-1.943z"/><path d="M46.784 38.44a.6.6 0 0 1 .432 1.12c-.378.174-.634.298-.768.372a9.884 9.884 0 0 0-1.743 1.209c-.988.86-1.731 1.877-2.138 3.055a.6.6 0 0 1-1.134-.392c.48-1.393 1.347-2.578 2.484-3.568a11.073 11.073 0 0 1 1.955-1.357c.517-.257.821-.404.912-.439z"/><path d="M41.801 43.434c2.107-.74 4.204-.51 6.124.311.659.283 1.146.568 1.425.767a.6.6 0 1 1-.7.976c-.575-.33-.974-.544-1.198-.64-1.666-.713-3.465-.91-5.253-.282a.6.6 0 1 1-.398-1.132zM5.523 44.766c1.272-.688 2.24-.186 5.059 1.934 2.46 1.1 4.414 1.82 5.236 2.597a.6.6 0 0 1-.886.81c-.108-.118-1.544-.803-4.308-2.055-.397-.172-.621-.286-.764-.393l-.67-.497c-1.807-1.32-2.543-1.64-3.097-1.34-.424.229-.494.379-.416.7.04.159 1.282 2.597 1.426 2.957.238.594-.495 1.098-.965.663-1.446-1.099-2.326-1.695-2.64-1.79-.611-.185-1.047-.092-1.391.333-.168.207-.06.88.44 1.805.585 1.08 1.592 2.317 2.852 3.463 3.052 2.776 6.94 4.541 10.837 4.541a.6.6 0 1 1 0 1.2c-4.223 0-8.387-1.89-11.645-4.854-2.874-2.614-4.484-5.591-3.417-6.91.68-.84 1.83-1.327 3.656-.298-.799-1.495-.202-2.382.693-2.866z"/><path d="M9.158 48.368a.6.6 0 0 1 .684.986c-1 .694-1.025 1.167-.496 1.463.65.362 1.574.162 2.016-.584a.6.6 0 0 1 1.032.612c-.788 1.33-2.437 1.686-3.632 1.02-1.369-.764-1.283-2.332.396-3.497z"/></g><circle cx="24" cy="42" r="3"/><path fill-rule="nonzero" d="M25.73 47.464a.6.6 0 0 1 .806.266c.3.54 1.126 1.385 1.67 1.79 1.532 1.143 3.601 1.846 6.302 1.88 2.74.035 4.825-.675 6.357-1.872.517-.404 1.334-1.273 1.595-1.79a.6.6 0 0 1 1.08.524c-.28.577-.897 1.4-1.936 2.212-1.747 1.364-4.097 2.164-7.112 2.126-2.954-.037-5.268-.824-7.004-2.118-1.087-.81-1.732-1.634-2.024-2.212a.6.6 0 0 1 .266-.806z"/></g><circle cx="25" cy="41" r="1" fill="#fff"/></g></g></svg>