<svg data-id="142-fc078c9ee359e8a-chicken" xmlns="http://www.w3.org/2000/svg" viewBox="0 0 100 100"><g fill="none" fill-rule="evenodd"><path fill="#a67b6c" d="M42.733 34.042c-.455-1.249 4.097-19.889 14.148-22.253 7.677-1.807 15.963 3.052 13.178 7.899-2.784 4.846-11.254-4.939-16.003 3.052-.428.72 5.922 2.285 3.229 5.006s-5.143-2.903-8.288.917c-2.16 2.625-3.522 5.336-4.642 6.607-1.342 1.522-1.544-1.012-1.622-1.228zM60.37 36.741c.025-1.329 10.961-17.092 21.191-15.693 7.815 1.068 13.807 8.576 9.469 12.1-4.338 3.524-8.734-8.646-16.035-2.893-.657.518 4.71 4.257 1.219 5.83-3.49 1.574-3.759-4.554-8.066-2.117-2.958 1.675-5.201 3.716-6.703 4.5-1.799.94-1.078-1.498-1.074-1.727z"/><path fill="#e99c00" d="M40.675 34.58c-3.115 1.771-6.775 4.095-7.712.845-.954-3.31 4.886-6.318 10.559-4.58 1.593.489 1.448 2.1 1.448 2.1s-2.16 1.444-4.295 1.635z"/><path fill="#ffd800" d="M48.9 87c14.723 0 22.876-4.762 21.903-24.631C69.829 42.5 62.674 31 48.9 31c-12.992 0-20.095 10.231-21.676 28.066-.096 1.074-1.17 1.87-1.225 2.999-.045.916.929 2.105.922 2.958C26.792 82.667 34.858 87 48.901 87z"/><path fill="#e99c00" d="M63.46 40.817c1.753 2.173 2.963 6.156 5.787 3.877s.467-8.935-5.45-9.918c-2.64-.439-4.047.36-4.046 1.422 0 1.062 1.956 2.447 3.71 4.62z"/><path fill="#fff" d="M36.695 35.723c3.616-3.78 8.905-3.26 8.905-3.26s-2.991 1.359-3.143 5.03c3.5-2.898 7.674.183 9.855-3.071 1.813-2.708-.7-5.51-4.116-6.3s-8.742 1.048-11.501 7.601z"/><g fill="#7f4331" fill-rule="nonzero"><path d="M81.541 20.497c8.274 1.131 14.636 9.201 9.764 13.16-1.112.903-2.316 1.002-3.647.438-.888-.376-2.113-1.198-3.675-2.465-3.004-2.245-4.787-2.86-7.055-1.877-.241.105-.699.37-1.372.799l1.049 1.31c.954 1.216 1.415 2.142 1.275 3.075-.111.748-.628 1.338-1.52 1.74-1.544.696-2.585.287-3.925-1.034l-.454-.452c-1.357-1.326-2.086-1.533-3.636-.656-.45.255-1.143.709-1.918 1.235l-1.367-.548c.943-.66 1.889-1.292 2.694-1.732 2.306-1.258 3.438-.793 5.237 1.012l.445.44c.93.88 1.497 1.061 2.43.64.545-.245.781-.515.827-.822.073-.49-.277-1.194-1.033-2.157-.087-.11-.453-.57-1.098-1.375-.424-.6-.54-1.005-.039-1.4a8.744 8.744 0 0 1 1.928-1.176c2.869-1.243 5.047-.425 8.545 2.239 3.327 2.533 4.495 2.64 5.552 1.835 3.86-2.944-1.737-10.023-9.17-11.04-4.285-.586-9.14 1.98-13.918 6.659a32.726 32.726 0 0 0-4.981 6.255l-1.426.184c1.167-2.162 3.061-4.843 5.567-7.297 5.017-4.913 10.175-7.639 14.921-6.99zM56.745 11.247c8.13-1.913 16.965 3.338 13.837 8.783-.713 1.242-1.802 1.766-3.247 1.717-.964-.033-2.402-.36-4.315-.982-3.61-1.018-5.496-.952-7.26.779-.188.184-.52.596-.994 1.238l1.449.847c1.327.793 2.09 1.49 2.294 2.413.164.737-.107 1.474-.795 2.17-1.191 1.203-2.31 1.195-4.035.443l-.586-.26c-1.586-.683-2.354-.688-3.332.352l-1.116-.548c1.645-1.875 2.866-1.827 5.143-.81l.574.251c1.184.489 1.778.454 2.499-.273.42-.425.544-.761.476-1.065-.107-.484-.687-1.015-1.738-1.642-.121-.073-.628-.37-1.518-.89-.611-.408-.865-.745-.54-1.294.42-.705.879-1.3 1.378-1.79 2.233-2.19 4.56-2.207 8.78-.975 4.016 1.171 5.145.852 5.842-.28 2.549-4.132-5.217-8.733-12.52-7.015-4.212.99-7.824 5.128-10.606 11.21a32.653 32.653 0 0 0-1.673 4.524l-1.345.436a32.697 32.697 0 0 1 1.927-5.459c2.92-6.387 6.758-10.783 11.421-11.88z"/><path d="M68.41 45.397c1.68 4.64 2.691 10.31 3.016 16.95.916 18.688-5.803 25.26-22.5 25.26-15.98 0-22.813-6.19-22.576-22.94l1.191 1.191c.07 15.31 6.427 20.549 21.384 20.549 16.03 0 22.175-6.198 21.303-24.002-.325-6.632-1.332-12.24-3.006-16.779zM37.37 33.943l-.67 2.11c-4.821 4.378-7.78 11.935-8.796 22.446l-1.377 2.094c.898-12.978 4.551-22.032 10.843-26.65zm14.922-3.297c3.44.508 6.43 1.82 8.962 3.9l-.974.77c-2.145-1.704-4.628-2.83-7.441-3.358z"/><path d="M63.926 34.232c-2.756-.458-4.745.352-4.744 2.014 0 .626.342 1.189 1.109 2.033 1.289 1.283 2.2 2.271 2.733 2.964a18.34 18.34 0 0 1 1.41 2.11c.795 1.245 1.345 1.917 2.052 2.331.98.574 2.05.429 3.169-.475 3.569-2.88.22-9.988-5.729-10.977zm-.197 1.184c5.042.838 7.816 6.726 5.172 8.86-.752.606-1.286.678-1.808.373-.418-.245-.82-.698-1.362-1.507-.94-1.454-1.531-2.339-1.773-2.653-.242-.315-1.203-1.36-2.884-3.135-.484-.55-.692-.897-.692-1.109 0-.687 1.217-1.183 3.347-.829zM48.345 27.532c-4.436-1.025-9.638 1.892-12.19 7.952-.257.614.527 1.129.987.648 1.03-1.077 3.378-2.767 6.606-3.038-1.086.945-1.806 2.651-1.877 4.368a.6.6 0 0 0 .982.487c.96-.795 2.337-1.266 5.016-1.264 2.68.002 3.884-.337 4.955-1.936 1.987-2.966-.428-6.281-4.48-7.217zm-.27 1.169c3.347.773 5.166 3.27 3.752 5.38-.715 1.068-1.508 1.361-3.43 1.4-1.92.038-3.682-.08-5.137.768.429-1.856 2.044-2.993 2.602-3.247.558-.253.421-1.083-.19-1.143-.61-.06-3.748-.249-7.116 1.644 2.701-3.915 6.324-5.54 9.519-4.802z"/><path d="M40.916 29.818c-4.962-.309-9.52 2.406-8.536 5.82.323 1.122.98 1.801 1.919 2l-.14-.034 1.05-1.115c-.2.022-.383.02-.55-.004l-.11-.02c-.48-.102-.81-.442-1.017-1.16-.636-2.208 2.554-4.243 6.398-4.312zM28.249 58.308a.6.6 0 0 1-.062.846c-.576.497-1.356 1.81-1.512 3.019-.23 1.78.733 3.352 3.394 4.612 2.928 1.387 6.83.683 9.467-.792l1.077.74c-2.998 1.9-7.61 2.77-11.058 1.136-3.11-1.473-4.369-3.53-4.07-5.85.196-1.522 1.13-3.093 1.917-3.773a.6.6 0 0 1 .847.062zm3.703 1.918c.178.119.563.164 1.465.035v1.238c-1.352.221-1.747.11-2.216-.343a.6.6 0 0 1 .75-.93z"/><path d="M43.91 59.996c-5.104-2.026-7.835-2.246-10.97.309l-.288.241a.6.6 0 0 0 .05.947c.343.238 1.67 1.29 3.98 3.155 6.675 5.556 10.798 7.16 17.43 4.81a.6.6 0 0 0-.4-1.13c-6.014 2.13-9.74.763-15.91-4.31-1.917-1.592-3.173-2.607-3.766-3.046 2.647-1.67 4.681-1.67 8.744-.127l1.349.526c4.287 1.657 6.054 1.82 8.242.1a.6.6 0 0 0-.741-.943c-1.725 1.356-3.193 1.222-7.07-.277zM50.153 42.352a.6.6 0 0 1-.37.763c-.624.233-.965.362-1.025.385-.77.306-1.536.64-2.241.993-1.281.64-2.214 1.264-2.621 1.794a.6.6 0 1 1-.951-.73c.55-.717 1.601-1.422 3.036-2.138.74-.369 1.535-.717 2.335-1.034l1.074-.404a.6.6 0 0 1 .763.37zM33.587 41.512a.6.6 0 1 0-.666.997c.53.354 1.03.818 1.49 1.363.35.414.659.849.92 1.277.185.32.288.503.31.549a.6.6 0 0 0 1.078-.526 15.788 15.788 0 0 0-.364-.65 11.495 11.495 0 0 0-1.028-1.425 8.461 8.461 0 0 0-1.74-1.585zM38.724 51.128c-.96-.796-2.022-1.264-3.155-1.18a.6.6 0 0 0 .088 1.196c.769-.057 1.557.29 2.3.907.14.116.548.487.75.75a.6.6 0 1 0 .95-.734c-.183-.236-.5-.58-.933-.94zM14.845 46.736c1.27-.727 2.618-.877 3.882-.068.283.181.555.409.817.685.888.936 1.442 1.087 2.56.9l.3-.055c1.312-.244 2.078-.05 3.11 1.129a.25.25 0 0 1-.376.329c-.853-.975-1.425-1.162-2.455-.999l-.295.053c-1.33.251-2.06.131-3.049-.851l-.158-.162a3.9 3.9 0 0 0-.724-.608c-1.08-.692-2.239-.563-3.363.08a4.32 4.32 0 0 0-.76.539.25.25 0 0 1-.341-.366c.415-.317.7-.519.852-.606z"/><path d="M15.934 43.897c-1.864 0-3.343 1.972-3.343 4.375s1.479 4.375 3.343 4.375c1.865 0 3.344-1.972 3.344-4.375s-1.479-4.375-3.344-4.375zm0 .5c1.553 0 2.844 1.722 2.844 3.875s-1.291 3.875-2.844 3.875c-1.552 0-2.843-1.722-2.843-3.875s1.291-3.875 2.843-3.875z"/><path d="M14.297 41.682c-1.64 0-2.919 1.976-2.919 4.375s1.278 4.375 2.919 4.375 2.919-1.976 2.919-4.375-1.279-4.375-2.919-4.375zm0 .5c1.307 0 2.419 1.718 2.419 3.875s-1.112 3.875-2.419 3.875-2.419-1.718-2.419-3.875 1.112-3.875 2.419-3.875z"/><path d="M12.84 48.313c-2.401 0-4.374 1.426-4.374 3.231s1.973 3.231 4.375 3.231 4.375-1.425 4.375-3.23-1.973-3.232-4.375-3.232zm0 .5c2.155 0 3.876 1.244 3.876 2.731 0 1.488-1.721 2.731-3.875 2.731s-3.875-1.243-3.875-2.73c0-1.488 1.72-2.732 3.875-2.732z"/><path d="M11.903 44.72c-1.865 0-3.343 1.972-3.343 4.375s1.478 4.374 3.343 4.374 3.344-1.971 3.344-4.374c0-2.403-1.48-4.375-3.344-4.375zm0 .5c1.552 0 2.844 1.722 2.844 3.875s-1.292 3.874-2.844 3.874c-1.552 0-2.843-1.721-2.843-3.874s1.29-3.875 2.843-3.875z"/><path d="M15.753 41.682c-2.41 0-4.375 1.74-4.375 3.903 0 2.163 1.965 3.903 4.375 3.903s4.375-1.74 4.375-3.903c0-2.163-1.965-3.903-4.375-3.903zm0 .5c2.146 0 3.875 1.53 3.875 3.403 0 1.872-1.729 3.403-3.875 3.403s-3.875-1.53-3.875-3.403c0-1.872 1.729-3.403 3.875-3.403z"/><path d="M11.903 39.835c-1.865 0-3.343 1.972-3.343 4.375s1.478 4.375 3.343 4.375 3.344-1.972 3.344-4.375-1.48-4.375-3.344-4.375zm0 .5c1.552 0 2.844 1.722 2.844 3.875s-1.292 3.875-2.844 3.875c-1.552 0-2.843-1.722-2.843-3.875s1.29-3.875 2.843-3.875z"/><path d="M10.872 42.712c-1.723 0-3.069 2.06-3.069 4.563 0 2.504 1.346 4.564 3.069 4.564 1.723 0 3.069-2.06 3.069-4.564 0-2.503-1.346-4.563-3.07-4.563zm0 .5c1.39 0 2.569 1.803 2.569 4.063 0 2.261-1.178 4.064-2.57 4.064s-2.568-1.803-2.568-4.064c0-2.26 1.178-4.063 2.569-4.063zM79.426 53.08a.25.25 0 0 1 .306.178c3.154 11.78-8.63 21.224-17.549 12.955a.25.25 0 0 1 .34-.367c8.513 7.893 19.761-1.122 16.726-12.459a.25.25 0 0 1 .177-.306z"/><path d="M81.852 56.761a.25.25 0 0 1 .286.207c.757 4.727-2.097 10.372-6.654 13.589-4.982 3.516-10.64 3.293-14.963-1.437a.25.25 0 0 1 .37-.337c4.142 4.532 9.517 4.744 14.304 1.365 4.411-3.113 7.174-8.577 6.45-13.1a.25.25 0 0 1 .207-.287z"/></g></g></svg>