<svg data-id="143-0c9c420bfd41ef3-chicken" xmlns="http://www.w3.org/2000/svg" viewBox="0 0 100 100"><g fill="none" fill-rule="evenodd"><path fill="#a67b6c" d="M54.854 38.538c1.312.208 18.733-7.818 19.135-18.133.307-7.879-6.042-15.084-10.266-11.426-4.224 3.658 6.994 10.103.06 16.29-.625.556-3.372-5.377-5.529-2.214-2.156 3.162 3.83 4.492.682 8.308-2.163 2.622-4.563 4.475-5.596 5.818-1.238 1.607 1.288 1.321 1.514 1.357zM37.146 38.532c-1.312.208-18.733-7.816-19.135-18.13-.307-7.877 6.042-15.08 10.266-11.423s-6.994 10.1-.06 16.286c.625.557 3.372-5.375 5.529-2.213 2.156 3.161-3.83 4.491-.682 8.307 2.163 2.62 4.563 4.474 5.596 5.816 1.238 1.606-1.288 1.321-1.514 1.357z"/><path fill="#e99c00" d="M62.623 41.572c3.148 1.828 6.254 5.097 8.688 2.406C73.745 41.286 69.403 34 63.449 34 59.406 34 55 36.584 55 38.314s4.475 1.43 7.623 3.258zM29.377 41.572c-3.148 1.828-6.254 5.097-8.688 2.406C18.255 41.286 22.597 34 28.551 34 32.594 34 37 36.584 37 38.314s-4.475 1.43-7.623 3.258z"/><path fill="#ffd800" d="M45.9 89c14.723 0 22.876-4.762 21.903-24.631C66.829 44.5 59.674 33 45.9 33c-13.774 0-20.929 11.5-21.902 31.369C23.026 84.238 31.179 89 45.901 89z"/><path fill="#fff" d="M38.123 41.998c2.673-4.5 7.946-5.184 7.946-5.184s-2.61 1.999-1.931 5.611c2.76-3.612 7.521-1.549 8.913-5.212C54.21 34.166 51.128 32 47.621 32s-8.284 2.989-9.498 9.998z"/><path fill="#ffd800" d="M64.94 61.055c2.596 1.93 2.51 2.495 5.187 2.02-1.415-6.332 4.155-8.563 6.194-7.508 5.905 3.055 3.048 13.11-1.213 15.271-4.26 2.16-8.612 1.442-11.543-1.51-.678-.684.727-9.57 1.375-8.273zM27.05 61.41c-2.597 1.93-2.5 2.14-5.178 1.665.513-1.353 1.106-3.163.41-4.408-1.374-2.456-5.25-3.8-6.604-3.1-5.905 3.055-3.048 13.11 1.213 15.271 4.261 2.16 8.603 1.797 11.534-1.156.678-.683-.727-9.569-1.375-8.273z"/><g fill="#fff" transform="translate(12 8)"><circle cx="22" cy="42" r="1"/><circle cx="46" cy="42" r="1"/></g><g fill="#7f4331" transform="translate(11 7)"><g fill-rule="nonzero"><path d="M6.404 13.45C6.08 5.109 12.917-2.557 17.662 1.55c1.083.937 1.39 2.106 1.066 3.514-.216.94-.812 2.288-1.788 4.046-1.687 3.348-1.983 5.211-.621 7.273.145.22.487.623 1.025 1.211l1.108-1.26c1.031-1.15 1.862-1.765 2.805-1.79.755-.02 1.426.386 1.977 1.194.954 1.399.733 2.495-.335 4.044l-.366.525c-1.07 1.567-1.146 2.321-.013 3.694.693.84 2.446 2.587 3.82 3.97l-1.178.522c-1.231-1.21-2.666-2.6-3.568-3.728-1.64-2.052-1.38-3.247.085-5.332l.355-.515c.706-1.068.785-1.658.209-2.504-.337-.494-.643-.68-.954-.67-.495.012-1.127.48-1.943 1.391-.095.105-.482.546-1.163 1.32-.517.522-.896.707-1.372.282a8.742 8.742 0 0 1-1.493-1.693c-1.723-2.608-1.296-4.895.718-8.802 1.915-3.716 1.818-4.885.84-5.785C13.309-.832 7.312 5.91 7.604 13.404c.169 4.321 3.539 8.655 8.976 12.545.539.385 1.075.743 1.604 1.076H16.02l-.14-.1c-5.586-3.996-9.134-8.489-9.46-13.162zM63.557 13.39C63.882 5.047 57.044-2.62 52.3 1.489c-1.082.937-1.39 2.106-1.065 3.514.216.94.812 2.288 1.787 4.046 1.688 3.348 1.983 5.211.621 7.273-.144.219-.486.623-1.025 1.211l-1.108-1.26c-1.03-1.15-1.861-1.766-2.805-1.79-.755-.02-1.426.386-1.977 1.194-.954 1.398-.732 2.495.335 4.044l.366.525c1.07 1.567 1.147 2.321.014 3.694-.721.874-2.59 2.729-3.984 4.133l1.119.578c1.276-1.26 2.834-2.75 3.79-3.947 1.64-2.052 1.38-3.247-.085-5.332l-.355-.515c-.705-1.069-.785-1.659-.208-2.504.336-.494.642-.68.953-.671.495.013 1.127.48 1.944 1.392.094.105.482.545 1.163 1.32.516.522.896.706 1.371.282a8.742 8.742 0 0 0 1.494-1.693c1.723-2.609 1.295-4.895-.719-8.802-1.915-3.716-1.817-4.885-.84-5.785 3.569-3.29 9.565 3.452 9.273 10.947-.168 4.321-3.539 8.655-8.976 12.545-.571.409-1.14.787-1.7 1.136h2.171l.227-.16c5.586-3.996 9.134-8.49 9.46-13.163z"/><path d="M17.59 26.424c-6.008 0-11.373 7.59-8.307 10.98 1.076 1.19 2.366 1.475 3.852 1.005.898-.284 1.56-.647 3.056-1.645 1.348-.898 2.09-1.388 2.224-1.47.043-.026.142-.079.28-.148l1.301-1.914c-.7.244-1.32.519-1.882.846-.47.273-1.263.788-2.38 1.545-3.152 2.094-4.303 2.369-5.561.977-2.256-2.495 2.325-8.976 7.417-8.976 2.152 0 4.58.848 6.157 1.83.353-.235.752-.498 1.195-.79-1.797-1.343-4.735-2.24-7.352-2.24zM52.401 26.447c6.008 0 11.373 7.59 8.307 10.98-1.076 1.19-2.366 1.475-3.852 1.005-.898-.284-1.56-.648-3.056-1.646a166.44 166.44 0 0 0-2.224-1.47 5.272 5.272 0 0 0-.28-.148l-1.301-1.913c.7.243 1.32.518 1.882.845.47.273 1.263.788 2.38 1.545 3.152 2.095 4.303 2.37 5.561.977 2.256-2.494-2.325-8.975-7.417-8.975-2.152 0-4.58.848-6.157 1.829l-1.195-.79c1.797-1.343 4.735-2.239 7.352-2.239z"/><path d="m56.144 64.204 1.166.48c-1.136 13.121-8.117 17.94-22.416 17.94-14.102 0-21.08-4.82-22.363-17.464l1.143-.486c1.086 12.39 7.574 16.75 21.22 16.75 13.796 0 20.27-4.59 21.25-17.22zM41.69 26.484c9.373 3.187 14.667 13.488 15.653 29.905l-1.255-.798c-1.06-15.095-5.861-24.545-14.193-27.746zm-8.906-.968-1.217 1.358c-10.73 1.678-16.807 11.771-17.908 29.355h-1.202c1.168-18.879 8.061-29.627 20.327-30.713z"/><path d="M36.642 24.332c-4.555 0-8.968 4.014-10.09 10.495-.114.656.767.982 1.107.41.76-1.281 2.67-3.458 5.755-4.449-.846 1.165-1.164 2.99-.846 4.68a.6.6 0 0 0 1.066.254c.757-.991 1.993-1.76 4.605-2.362 2.612-.6 3.71-1.203 4.393-3.002 1.27-3.338-1.83-6.026-5.99-6.026zm0 1.2c3.436 0 5.771 2.024 4.869 4.4-.457 1.201-1.164 1.665-3.028 2.135-1.864.47-3.608.752-4.835 1.906 0-1.906 1.318-3.377 1.805-3.75.488-.373.167-1.15-.442-1.072-.608.08-3.71.602-6.566 3.205 1.751-4.424 4.917-6.824 8.197-6.824zM65.63 48.034c5.657 2.453 4.112 13.636-1.218 16.339-4.405 2.233-9.06 1.58-12.24-1.623a.6.6 0 0 1 .851-.846c2.806 2.827 6.897 3.401 10.846 1.399 4.367-2.214 5.87-11.491 1.744-13.882-1.787-1.035-5.547-.217-6.076 3.737-.27 2.024.394 3.164 1.827 3.88.766.383 2.038.478 2.323.526a.6.6 0 0 1-.008 1.185c-.286.044-2.135-.247-2.82-.622-.73-.4-1.366-.823-1.808-1.425-1.345.222-2.073.172-2.821-.218-.499-.26-1.37-.909-2.616-1.948a.6.6 0 0 1 .716-.963c1.359 1.087 2.177 1.703 2.454 1.847.417.217.847.27 1.693.156-1.276-6.596 4.429-8.724 7.152-7.542zM4.573 48.034C-1.085 50.487.46 61.67 5.79 64.373c4.405 2.233 9.06 1.58 12.24-1.623a.6.6 0 0 0-.851-.846c-2.806 2.827-6.897 3.401-10.846 1.399C1.966 61.089.463 51.812 4.589 49.42c1.787-1.035 5.547-.217 6.076 3.737.27 2.024-.394 3.164-1.827 3.88-.766.383-2.038.478-2.323.526a.6.6 0 0 0 .008 1.185c.286.044 2.135-.247 2.82-.622.73-.4 1.366-.823 1.808-1.425 1.345.222 2.073.172 2.821-.218.499-.26 1.37-.909 2.616-1.948a.6.6 0 0 0-.716-.963c-1.359 1.087-2.177 1.703-2.454 1.847-.417.217-.847.27-1.693.156C13 48.98 7.296 46.852 4.573 48.034z"/></g><circle cx="22" cy="44" r="3"/><circle cx="46" cy="44" r="3"/><path fill-rule="nonzero" d="M34 53.6c2.347 0 4.1-.827 5.311-2.204.73-.83 1.118-1.662 1.27-2.245a.6.6 0 0 0-1.13-.394 5.044 5.044 0 0 1-1.041 1.847C37.422 51.727 35.995 52.4 34 52.4s-3.422-.673-4.41-1.796c-.345-.392-.901-1.198-1.01-1.755a.6.6 0 1 0-1.16.302c.15.583.539 1.415 1.269 2.245C29.9 52.773 31.653 53.6 34 53.6z"/></g><g fill="#fff" transform="translate(11 7)"><circle cx="23" cy="43" r="1"/><circle cx="47" cy="43" r="1"/></g></g></svg>