<svg data-id="145-c020bc97a06572a-chicken" xmlns="http://www.w3.org/2000/svg" viewBox="0 0 100 100"><g fill="none" fill-rule="evenodd"><path fill="#a67b6c" d="M58.854 39.538c1.312.208 18.733-7.818 19.135-18.133.307-7.879-6.042-15.084-10.266-11.426-4.224 3.658 6.994 10.103.06 16.29-.625.556-3.372-5.377-5.529-2.214-2.156 3.162 3.83 4.492.682 8.308-2.163 2.622-4.563 4.475-5.596 5.818-1.238 1.607 1.288 1.321 1.514 1.357zM41.146 39.532c-1.312.208-18.733-7.816-19.135-18.13-.307-7.877 6.042-15.08 10.266-11.423s-6.994 10.1-.06 16.286c.625.557 3.372-5.375 5.529-2.213 2.156 3.161-3.83 4.491-.682 8.307 2.163 2.62 4.563 4.474 5.596 5.816 1.238 1.606-1.288 1.321-1.514 1.357z"/><path fill="#e99c00" d="M66.623 42.572c3.148 1.828 6.254 5.097 8.688 2.406C77.745 42.286 73.403 35 67.449 35 63.406 35 59 37.584 59 39.314s4.475 1.43 7.623 3.258zM33.377 42.572c-3.148 1.828-6.254 5.097-8.688 2.406C22.255 42.286 26.597 35 32.551 35 36.594 35 41 37.584 41 39.314s-4.475 1.43-7.623 3.258z"/><path fill="#ffd800" d="M49.9 90c14.723 0 22.876-4.762 21.903-24.631C70.829 45.5 63.674 34 49.9 34c-13.774 0-20.929 11.5-21.902 31.369C27.026 85.238 35.179 90 49.901 90z"/><path fill="#ffd800" d="M30.884 61c-7.35 5.754-8.481 14.658-4.971 16.468 3.51 1.81 6.44-3.595 7.115-8.154.856-2.825-1.496-9.61-2.144-8.314z"/><path fill="#fff" d="M41.123 46.998c2.673-4.5 7.946-5.184 7.946-5.184s-2.61 1.999-1.931 5.611c2.76-3.612 7.521-1.549 8.913-5.212C57.21 39.166 54.128 37 50.621 37s-8.284 2.989-9.498 9.998z"/><path fill="#75c8fe" d="M35.505 50a6.505 6.505 0 0 0 6.506-6.505C42.01 39.282 35.505 32 35.505 32S29 39.282 29 43.495A6.505 6.505 0 0 0 35.505 50z"/><g fill-rule="nonzero"><g fill="#7f4331"><path d="M21.49 21.369c-.326-8.343 6.512-16.01 11.257-11.901 1.083.937 1.39 2.106 1.066 3.514-.216.94-.812 2.288-1.788 4.046-1.687 3.348-1.983 5.211-.621 7.273.145.22.487.623 1.025 1.211l1.108-1.26c1.031-1.15 1.862-1.765 2.805-1.79.755-.02 1.426.386 1.977 1.194.954 1.399.733 2.495-.335 4.044l-.366.525c-1.07 1.567-1.146 2.321-.013 3.694.693.84 2.446 2.587 3.82 3.97l-1.178.522c-1.231-1.21-2.666-2.6-3.568-3.728-1.64-2.052-1.38-3.247.085-5.332l.355-.515c.706-1.068.785-1.658.209-2.504-.337-.494-.643-.68-.954-.67-.495.012-1.127.48-1.943 1.391-.095.105-.482.546-1.163 1.32-.517.522-.896.707-1.372.282a8.742 8.742 0 0 1-1.493-1.693c-1.723-2.608-1.296-4.895.718-8.802 1.915-3.716 1.818-4.885.84-5.785-3.568-3.289-9.565 3.453-9.273 10.947.169 4.321 3.539 8.655 8.976 12.545.539.385 1.075.743 1.604 1.076h-2.162l-.14-.1c-5.586-3.996-9.134-8.489-9.46-13.162zM78.642 21.308c.325-8.343-6.513-16.01-11.258-11.901-1.082.937-1.39 2.106-1.065 3.514.216.94.812 2.288 1.787 4.046 1.688 3.348 1.983 5.211.621 7.273-.144.219-.486.623-1.025 1.211l-1.108-1.26c-1.03-1.15-1.861-1.766-2.805-1.79-.755-.02-1.426.386-1.977 1.194-.954 1.398-.732 2.495.335 4.044l.366.525c1.07 1.567 1.147 2.321.014 3.694-.721.874-2.59 2.729-3.984 4.133l1.119.578c1.276-1.26 2.834-2.75 3.79-3.947 1.64-2.052 1.38-3.247-.085-5.332l-.355-.515c-.705-1.069-.785-1.659-.208-2.504.336-.494.642-.68.953-.671.495.013 1.127.48 1.944 1.392.094.105.482.545 1.163 1.32.516.522.896.706 1.371.282A8.742 8.742 0 0 0 69.73 24.9c1.723-2.609 1.295-4.895-.719-8.802-1.915-3.716-1.817-4.885-.84-5.785 3.569-3.29 9.565 3.452 9.273 10.947-.168 4.321-3.539 8.655-8.976 12.545-.571.409-1.14.787-1.7 1.136h2.171l.227-.16c5.586-3.996 9.134-8.49 9.46-13.163z"/><path d="M32.675 34.342c-6.008 0-11.373 7.59-8.307 10.98 1.076 1.19 2.366 1.475 3.852 1.005a7.044 7.044 0 0 0 1.21-.505l-.348-1.203c-1.902 1.058-2.83.999-3.824-.101-2.256-2.495 2.325-8.976 7.417-8.976l.177.002.714-1.168a11.89 11.89 0 0 0-.891-.034zM67.486 34.365c6.008 0 11.373 7.59 8.307 10.98-1.076 1.19-2.366 1.475-3.852 1.005-.898-.284-1.56-.648-3.056-1.646a166.44 166.44 0 0 0-2.224-1.47 5.272 5.272 0 0 0-.28-.148l-1.301-1.913c.7.243 1.32.518 1.882.845.47.273 1.263.788 2.38 1.545 3.152 2.095 4.303 2.37 5.561.977 2.256-2.494-2.325-8.975-7.417-8.975-2.152 0-4.58.848-6.157 1.829l-1.195-.79c1.797-1.343 4.735-2.239 7.352-2.239z"/><path d="M49.979 33.342c13.842 0 21.489 11.282 22.5 31.94.916 18.689-5.803 25.26-22.5 25.26-12.365 0-19.253-3.706-21.627-13.143l1.118-.336c2.201 8.988 8.654 12.28 20.509 12.28 16.03 0 22.175-6.198 21.302-24.002-.984-20.098-8.237-30.799-21.302-30.799-4.005 0-7.464 1.006-10.364 2.98l-.607-1.054c3.066-2.065 6.727-3.126 10.97-3.126zM30.575 48.114l1.017.695c-1.447 4.015-2.38 8.853-2.791 14.482l-1.27 1c.381-6.318 1.4-11.73 3.044-16.177z"/><path d="M50.581 36.372c4.16 0 7.26 2.687 5.99 6.026-.683 1.799-1.78 2.4-4.392 3.002-2.613.6-3.848 1.37-4.605 2.361a.6.6 0 0 1-1.067-.253c-.317-1.69 0-3.515.847-4.68-3.086.99-4.995 3.167-5.756 4.448-.215.362-.645.365-.905.153l.818-1.43.5-2.335-.277-.826c1.899-4.074 5.33-6.466 8.847-6.466zm0 1.2c-3.28 0-6.445 2.4-8.196 6.824 2.856-2.604 5.958-3.126 6.566-3.205.608-.079.93.698.442 1.071-.487.373-1.805 1.845-1.805 3.75 1.227-1.154 2.97-1.435 4.834-1.905 1.864-.47 2.571-.934 3.028-2.136.903-2.375-1.432-4.4-4.869-4.4zM30.514 60.528a.6.6 0 0 1 .74.944c-6.439 5.042-8.518 13.683-5.066 15.463 2.582 1.331 5.49-2.594 6.246-7.708a.6.6 0 1 1 1.187.175c-.86 5.813-4.322 10.487-7.983 8.599-4.468-2.304-2.14-11.98 4.876-17.473zM67.526 72.432a.6.6 0 0 1-.959-.72c4.914-6.538 4.684-15.424.89-16.25-2.84-.617-4.632 3.928-4.038 9.064a.6.6 0 0 1-1.192.138c-.676-5.838 1.459-11.25 5.485-10.374 4.912 1.069 5.17 11.019-.186 18.142zM50 58.9c1.456 0 2.7.413 3.726 1.102.622.418 1.038.842 1.26 1.145a.6.6 0 0 1-.971.706c-.195-.268-.668-.66-.958-.855-.836-.561-1.85-.898-3.057-.898s-2.221.337-3.057.898c-.29.195-.763.587-.958.855a.6.6 0 0 1-.97-.706c.22-.303.637-.727 1.259-1.145C47.3 59.313 48.544 58.9 50 58.9zM43.185 52.99a.6.6 0 1 1 .63 1.02c-.399.247-.816.47-1.248.673-1.327.621-2.743 1.019-4.158 1.24-.495.077-1.578.177-1.909.177a.6.6 0 0 1 0-1.2c.331 0 1.265-.091 1.724-.163 1.31-.204 2.619-.572 3.834-1.141.392-.183.768-.385 1.127-.607z"/><path d="M55.815 52.99a.6.6 0 1 0-.63 1.02c.399.247.816.47 1.248.673 1.327.621 2.743 1.019 4.158 1.24.495.077 1.578.177 1.909.177a.6.6 0 0 0 0-1.2c-.331 0-1.265-.091-1.724-.163-1.31-.204-2.619-.572-3.834-1.141a11.147 11.147 0 0 1-1.127-.607z"/></g><path fill="#61a2cc" d="m35.505 31.25-.515.579-.144.167a48.625 48.625 0 0 0-3.005 3.887 30.905 30.905 0 0 0-1.906 3.09c-.924 1.745-1.435 3.266-1.435 4.522a7.005 7.005 0 0 0 14.01 0c0-1.256-.51-2.777-1.434-4.522a30.905 30.905 0 0 0-1.907-3.09 48.625 48.625 0 0 0-2.26-2.995l-.389-.472-.642-.75zm0 1.513.248.295a47.64 47.64 0 0 1 2.594 3.395 29.931 29.931 0 0 1 1.845 2.988c.855 1.614 1.319 2.996 1.319 4.054a6.005 6.005 0 0 1-12.011 0c0-1.058.464-2.44 1.319-4.054a29.931 29.931 0 0 1 1.845-2.989 47.64 47.64 0 0 1 2.213-2.933l.38-.461z"/></g></g></svg>