<svg data-id="146-e12ee17c7aea18c-sticker" xmlns="http://www.w3.org/2000/svg" viewBox="0 0 100 100"><g fill="none" fill-rule="evenodd"><path fill="#fff0d6" d="M35.741 60.679s-13.397-6.31-21.855 6.904c4.395-1.512 5.69 4.084 5.69 4.084s2.849-8.627 6.863-2.899c.253-6.083 9.302-8.09 9.302-8.09zM60.86 60.156s13.981-4.884 21.022 9.137c-4.215-1.96-6.083 3.472-6.083 3.472s-1.938-8.877-6.526-3.596c.38-6.078-8.412-9.013-8.412-9.013z"/><g fill="#ffaf54"><path d="M45.375 92.841c-19.654-.996-23.826-8.815-24.26-20.21-.031-.822 1.415-2.875 2.847 0 2.292 4.605 7.107 6.392 11.983 6.392z"/><path d="M40.01 91.848C42.459 92.62 45.16 93 48 93c11.046 0 20-5.754 20-17.905S59.046 49 48 49 28 62.945 28 75.095c0 2.32.326 4.406.931 6.264z"/><path d="M55.104 89.784c-1.518 5.379.956 7.542 3.122 6.33 2.818-1.578 6.197-6.78 6.131-10.868-.943-2.588-9.253 4.538-9.253 4.538zM40.737 89.787c1.518 5.38-.956 7.542-3.121 6.33-2.82-1.578-6.197-6.779-6.132-10.867.943-2.589 9.253 4.537 9.253 4.537zM68.192 43.796c.312.902 10.107-3.952 11.062-10.63-5.66 1.584-11.064 2-11.064 2s10.079-5.292 10.078-15.058C68.189 25.9 64.03 25.724 64.03 25.724zM27.373 42.798c-.312.902-10.107-2.951-11.063-9.63 5.661 1.584 11.064 1.001 11.064 1.001s-10.078-4.292-10.077-14.058c10.078 5.791 14.237 4.615 14.237 4.615z"/><path d="M47.5 15C59.822 15 68 23.507 68 34c0 .74-.046 1.47-.135 2.189C69.235 38.255 70 40.564 70 43c0 8.837-8.074 16-22.5 16S25 51.837 25 43c0-2.436.766-4.745 2.135-6.811A17.766 17.766 0 0 1 27 34c0-10.493 8.178-19 20.5-19z"/></g><path fill="#fff0d6" d="M66.986 18.306c.984-4.764-.187-10.226-3.444-10.281-2.77-.047-2.478 4.374-3.502 8.04-1.023 3.664-3.213 4.433-3.248 6.495-.045 2.65 3.268 4.34 5.721 3.267 2.454-1.071 4.102-5.728 4.473-7.521zM29.191 18.293c-.984-4.764.187-10.226 3.444-10.281 2.77-.047 2.116 4.149 3.502 8.04 1.386 3.89 3.213 4.433 3.248 6.495.045 2.65-3.268 4.34-5.721 3.267-2.454-1.071-4.102-5.728-4.473-7.521z"/><path fill="#ffaf54" d="M34.356 65.731c-1.15 4.732-5.344 8.251-7.94 6.337-2.598-1.914 0-9.595 7.94-12.447 2.717-1.38 1.149 1.378 0 6.11zM61.597 65.722c1.149 4.732 5.344 8.251 7.94 6.337 2.597-1.915 0-9.595-7.94-12.447-2.717-1.38-1.15 1.378 0 6.11z"/><path fill="#872e00" fill-rule="nonzero" d="m63.657 58.814.067-.01a20.557 20.557 0 0 1 2.601-.18c6.592-.037 12.305 2.962 15.957 10.238a.5.5 0 0 1-.658.678c-1.432-.667-2.612-.435-3.64.48-.577.514-1.06 1.207-1.44 1.968a7.837 7.837 0 0 0-.25.55l-.07.181c-.164.478-.853.438-.96-.056a5.687 5.687 0 0 0-.036-.15l-.094-.357a14.37 14.37 0 0 0-.406-1.237c-.27-.71-.582-1.345-.931-1.86-.858-1.265-1.783-1.658-2.944-.912.498 1.818.223 3.434-1.032 4.359-.455.336-.95.53-1.464.601.043.62.065 1.242.065 1.863 0 4.743-1.362 8.672-3.802 11.664-.613 3.777-3.456 8.191-6.263 9.763-2.346 1.313-4.227-.42-4.299-3.652-1.902.416-3.956.63-6.136.63-1.25 0-2.468-.073-3.648-.217a67.625 67.625 0 0 1-2.677-.22c-.14 3.107-1.992 4.746-4.292 3.459-1.724-.965-3.461-3.003-4.687-5.307-8.397-2.93-11.71-8.864-12.08-18.565-.025-.66.485-1.535 1.158-1.857.935-.447 1.89.118 2.636 1.615l.144.28a10.082 10.082 0 0 0 2.967 3.409c-.014-.33-.021-.664-.021-1.002 0-.681.026-1.363.076-2.043a3.163 3.163 0 0 1-1.393-.59c-1.27-.936-1.536-2.579-1.014-4.421-1.2-1.181-2.247-.947-3.323.329-.4.475-.777 1.075-1.12 1.753-.202.4-.38.803-.533 1.187l-.16.427a4.271 4.271 0 0 0-.022.064c-.159.48-.848.448-.962-.045l-.05-.187a7.837 7.837 0 0 0-.191-.573c-.299-.797-.706-1.536-1.227-2.109-.926-1.017-2.075-1.37-3.569-.857a.5.5 0 0 1-.583-.743c4.391-6.854 10.387-9.24 16.939-8.514.625.07 1.233.166 1.822.286a29.2 29.2 0 0 1 1.958-2.781l.914.462a28.015 28.015 0 0 0-1.838 2.558c.128.031.253.065.377.1a15.4 15.4 0 0 1 .646-.25.5.5 0 1 1 .338.941c-3.524 1.266-6.224 3.622-7.644 6.334-1.213 2.317-1.218 4.457-.165 5.234 2.182 1.608 6.06-1.541 7.154-6.05a.5.5 0 1 1 .972.237 11.805 11.805 0 0 1-1.75 3.908c.216.073.444.136.683.189.615.138.629 1.01.018 1.167-.825.211-1.562.335-2.214.38-.595.537-1.227.957-1.866 1.233l-.097-.066c.748.533 1.807.9 3.242 1.011.637.05.766.929.169 1.158-2.067.795-3.569.922-4.584.614l-.003-.343c0 .392.01.779.028 1.16.373.224.866.473 1.141.583.971.39 2.218.584 3.763.47.635-.048.897.796.347 1.116-2.142 1.25-3.669 1.739-4.673 1.747.09.35.19.695.3 1.033a.5.5 0 0 1-.95.31 19.436 19.436 0 0 1-.849-4.148 11.129 11.129 0 0 1-4.093-4.512l-.092-.18c-.49-.915-.892-1.134-1.216-.979-.309.148-.601.65-.59.917.338 8.9 3.174 14.424 10.462 17.318-.69-1.6-1.102-3.255-1.079-4.716a.5.5 0 0 1 1 .016c-.059 3.654 2.989 8.805 5.873 10.419 2.048 1.147 3.655-1.29 2.395-5.755a.5.5 0 1 1 .962-.272c.215.761.35 1.484.412 2.159.904.218 1.842.387 2.809.506.313.02.63.038.95.054a.498.498 0 0 1 .218.062c.778.065 1.573.097 2.382.097 2.206 0 4.272-.224 6.172-.66.06-.692.196-1.435.417-2.218a.5.5 0 0 1 .963.272c-1.26 4.465.346 6.902 2.395 5.755 2.883-1.614 5.931-6.765 5.872-10.42a.5.5 0 0 1 .942-.242c.938-1.41 1.652-3.006 2.115-4.779-1.137.197-2.743-.166-4.85-1.395-.55-.321-.289-1.164.346-1.117 1.515.112 2.788-.13 3.823-.6.413-.188 1.005-.697 1.283-.946.006-.173.012-.349.016-.525-1.495.186-3.264.004-5.362-.803-.597-.23-.469-1.109.169-1.158a8.77 8.77 0 0 0 3.484-1.034c-.655-.365-1.294-.876-1.884-1.504a16.882 16.882 0 0 1-1.98-.394c-.612-.157-.596-1.032.021-1.167.226-.05.443-.104.65-.164a11.84 11.84 0 0 1-1.411-3.388.5.5 0 0 1 .972-.236c1.094 4.508 4.971 7.657 7.153 6.05 1.053-.777 1.048-2.917-.165-5.235-1.42-2.712-4.12-5.067-7.643-6.333a.5.5 0 0 1 .338-.941c.438.157.864.333 1.28.527a27.99 27.99 0 0 0-2.44-3.423l.942-.433c.756.923 1.464 1.91 2.117 2.95zm2.674.81c-.724.004-1.43.049-2.11.127.168.29.33.582.49.877 2.808 1.749 4.877 4.246 5.817 6.564 1.516-.853 2.89-.372 3.986 1.147l.11.159c.399.587.743 1.289 1.038 2.066l.124.337.079.235.131-.228a7.267 7.267 0 0 1 1.073-1.397l.25-.238c.985-.877 2.132-1.273 3.409-1.06l.083.015-.213-.367c-3.466-5.856-8.489-8.27-14.267-8.237zm-51.2 6.718-.252.343.085-.006c1.292-.078 2.391.435 3.279 1.41l.224.263c.363.45.668.958.92 1.501l.107.24.104-.225.158-.322c.375-.742.79-1.404 1.248-1.946l.127-.146c1.317-1.472 2.82-1.765 4.316-.549.962-2.287 3.015-4.735 5.783-6.456.11-.202.222-.403.336-.602-.45-.083-.913-.152-1.387-.205-5.742-.636-10.99 1.238-15.049 6.7z"/><path fill="#fff" d="M39.488 77.29c0-5.524.816-16.635 8.182-16.635 7.365 0 8.634 9.838 8.634 16.634s-2.257 15.063-8.634 15.063c-6.766 0-8.182-9.54-8.182-15.063z"/><g fill="#872e00" fill-rule="nonzero"><path d="M32.637 7.383c1.865-.032 2.465 1.1 3.028 4.246.366 1.877.61 3.023.734 3.439.111.377.377 1.066.644 1.686 3.022-1.521 6.569-2.373 10.47-2.373 4.35 0 8.26 1.059 11.492 2.922.22-.467.405-.964.56-1.518.206-.738.43-1.832.669-3.283.657-3.809 1.295-5.154 3.326-5.119 3.48.061 5.049 5.425 3.919 10.883-.35 1.686-1.072 3.577-2.013 5.108.28.427.54.867.784 1.319 2.845-.529 6.878-2.343 11.785-5.089.333-.186.75.01.77.394.21 3.986-1.922 9.674-8.554 14.326 4.056-.585 6.319-.95 8.846-1.777a.525.525 0 0 1 .688.516c-.134 3.265-3.751 7.845-9.289 10.552-.446 9.281-9.353 15.766-22.982 15.766-13.987 0-23-6.829-23-16.5 0-.092 0-.183.003-.275a19.454 19.454 0 0 1-2.694-1.466c-3.277-2.118-5.552-4.885-6-8.009a.5.5 0 0 1 .63-.552c2.579.72 5.026 1.021 9.088 1.078-6.974-4.206-8.737-9.668-8.737-13.66a.5.5 0 0 1 .749-.433c4.967 2.854 8.782 4.218 11.545 4.56.34-.581.71-1.142 1.11-1.68a16.836 16.836 0 0 1-1.49-4.178c-1.13-5.458.439-10.822 3.919-10.883zm14.877 7.998c-3.755 0-7.159.819-10.05 2.279l.059.113c.243.442.854 1.366 1.831 2.772.357.61.535 1.179.547 1.859.052 2.975-3.586 4.973-6.419 3.737-1.002-.437-1.943-1.46-2.733-2.736-2.072 2.94-3.235 6.527-3.235 10.476 0 .715.043 1.425.13 2.127a.5.5 0 0 1-.079.338 12.412 12.412 0 0 0-1.692 3.734c.317.919.927 1.804 1.212 2.107.608.645 1.46 1.17 2.606 1.523.594.184.55 1.04-.06 1.162-1.561.313-2.816.16-3.77-.299a6.914 6.914 0 0 1-.262-.132c.038.328.087.652.147.973.448.662 1.045 1.294 1.503 1.719.684.633 1.579 1.149 2.721 1.501.595.184.551 1.04-.06 1.162-.958.192-1.755.217-2.403.104 3.266 5.184 10.367 8.481 20.007 8.481 9.638 0 16.738-3.296 20.004-8.48-.646.112-1.44.086-2.392-.105-.61-.122-.654-.978-.06-1.162 1.143-.352 2.038-.868 2.722-1.501.34-.316 1.065-1.116 1.537-1.963.035-.208.065-.418.09-.63l-.065.033c-.953.46-2.208.612-3.77.299-.61-.123-.654-.978-.06-1.162 1.147-.354 1.999-.878 2.607-1.523a3.92 3.92 0 0 0 .83-1.31c.092-.247.154-.525.201-.785a12.43 12.43 0 0 0-1.696-3.746.5.5 0 0 1-.08-.338c.088-.702.132-1.412.132-2.127 0-3.568-.95-6.84-2.66-9.607-.652.864-1.378 1.535-2.14 1.867-2.833 1.236-6.47-.762-6.419-3.737.012-.676.214-1.258.613-1.895.209-.334 1.13-1.563 1.326-1.853.105-.156.205-.313.3-.47-3.089-1.789-6.837-2.805-11.02-2.805zm31.131 18.358c-3.405 1.04-8.06 1.772-10.223 1.894l-.027.315c1.412 2.093 2.119 4.404 2.119 6.933l-.008-.396c2.213-1.159 6.925-4.163 8.139-8.746zm-61.679.007c.587 2.367 2.659 4.782 5.4 6.554.741.48 1.508.9 2.233 1.235.247-2.062 1.033-4.109 2.033-5.588a14.834 14.834 0 0 1-.104-1.3c-1.985.101-6.112-.041-9.562-.901zm60.807-12.9c-4.668 2.645-8.487 4.281-11.043 4.803 1.155 2.476 1.784 5.257 1.784 8.232 0 .106-.002.221-.006.344 2.676-1.9 8.804-6.926 9.265-13.38zm-59.94.024c.55 5.129 3.449 9.184 8.698 12.164.117-2.883.83-5.567 2.041-7.95-2.505-.341-5.625-1.434-10.739-4.214zm45.71-12.487c-1.234-.021-1.726.936-2.272 3.996-.269 1.64-.517 2.864-.744 3.676a10.508 10.508 0 0 1-1.464 3.16c-.779 1.067-1.214 1.675-1.307 1.824-.31.494-.453.907-.461 1.382-.038 2.198 2.815 3.765 5.02 2.803 1.812-.79 3.602-4.347 4.184-7.161 1.02-4.929-.356-9.634-2.957-9.68zm-30.889 0c-2.6.046-3.978 4.751-2.957 9.68.582 2.814 2.372 6.37 4.185 7.161 2.204.962 5.058-.605 5.02-2.803-.01-.497-.136-.902-.41-1.371-.081-.138-1.383-1.956-1.845-2.795-.36-.654-.982-1.956-1.207-2.903-.15-.63-.403-1.813-.759-3.547-.478-2.672-.886-3.442-2.027-3.422z"/><path d="M52.455 48.997c-.724.078-1.327.273-2.292.695l-.89.393c-.848.364-1.214.464-1.673.464-.268 0-.546-.053-.867-.162l-.393-.15a11.427 11.427 0 0 1-.466-.213l-.387-.184c-1.09-.519-1.762-.75-2.623-.812-1.034-.074-1.977.297-2.805.949-.444.349-.763.7-.944.948-.413.567.307 1.235.833.843l.067-.057c.098-.094.313-.256.627-.423a3.777 3.777 0 0 1 2.112-.436c.626.052 1.148.234 1.96.647l.74.385c.197.102.364.183.527.256.58.258 1.088.392 1.619.392.706 0 1.26-.16 1.931-.506l.259-.139.494-.282c.836-.476 1.407-.688 2.252-.753 1.291-.1 2.056.203 2.458.628l.071.082c.473.582 1.34-.05.998-.659l-.067-.1c-.867-1.133-2.058-1.964-3.54-1.806zM33.552 44.223a.5.5 0 0 0 .67.224l.265-.116.104-.042c.315-.126.682-.253 1.097-.37a14.445 14.445 0 0 1 5.533-.458c.502.054.76-.584.36-.893-.823-.636-1.906-1.11-3.185-1.453a18.825 18.825 0 0 0-3.164-.538c-.282-.025-.55-.044-.798-.057l-.242-.01c-.19-.008-.328-.01-.404-.01a.5.5 0 0 0 0 1l.366.009.472.024c.165.01.338.024.517.04a17.85 17.85 0 0 1 2.995.508c.232.062.457.129.673.2l.289.1a15.296 15.296 0 0 0-3.303.472l-.383.103c-.448.128-.848.266-1.194.404l-.312.131a3.612 3.612 0 0 0-.131.061.5.5 0 0 0-.225.67zM61.513 44.223a.5.5 0 0 1-.67.224l-.265-.116a11.459 11.459 0 0 0-1.201-.412 14.445 14.445 0 0 0-5.533-.458c-.502.054-.76-.584-.36-.893.823-.636 1.906-1.11 3.185-1.453 1.01-.27 2.088-.442 3.164-.538.282-.025.55-.044.798-.057l.242-.01c.19-.008.328-.01.404-.01a.5.5 0 1 1 0 1l-.366.009-.472.024c-.165.01-.338.024-.517.04a17.85 17.85 0 0 0-2.995.508c-.232.062-.457.129-.673.2l-.289.1c1.168.04 2.271.207 3.303.472l.383.103c.448.128.848.266 1.194.404l.312.131c.054.024.098.045.131.061a.5.5 0 0 1 .225.67z"/></g></g></svg>