<svg data-id="147-7a33acf13671f36-surprised" xmlns="http://www.w3.org/2000/svg" viewBox="0 0 100 100"><g fill="none" fill-rule="evenodd"><path fill="#ffaf54" d="M35.039 62.038s-10.402 2.747-12.314-.229c-1.912-2.975 8.372-3.916 8.372-3.916zM36.175 86.02c-15.187 9.288 4.577 7.053 8.833 1.212.805-2.634-8.833-1.212-8.833-1.212z"/><path fill="#fff0d6" d="M55.174 58.823s5.543-10.718 19.95-4.506c-4.488 1.208-2.426 6.57-2.426 6.57s-7.192-5.553-7.311 1.441c-3.616-4.9-10.213-3.505-10.213-3.505z"/><path fill="#ffaf54" d="M55.048 90.083c11.343 0 22.864-.723 28.148-5.564 1.007-.923.289-2.89-1.943-2.28-7.871 2.154-16.275-.975-20.756-7.756-5.072-7.677 4.801-24.19-14.482-27.274-6.315-1.01-8.218 1.818-11.552 4.847-5.013 7.468-9.637 14.817-6.37 25.162 3.268 10.344 15.612 12.865 26.955 12.865z"/><path fill="#fff0d6" d="M55.028 61.058s9.7-10.167 21.48.206c-4.644-.241-5.614 4.23-5.614 4.23s-4.812-6.617-7.092-.001c-1.922-5.78-8.774-4.435-8.774-4.435z"/><path fill="#ffaf54" d="M46.082 88.444c-15.187 9.287 4.577 7.053 8.833 1.212.804-2.634-8.833-1.212-8.833-1.212zM61.423 38.812c.502.64 7.705-6.715 7.036-12.557-4.833 4.136-9.054 5.426-9.054 5.426s8.408-6.949 6.124-15.02c-8.058 8.187-12.216 8.619-12.216 8.619z"/><path fill="#fff0d6" d="M62 15.507c.987-4.76-.179-10.22-3.434-10.277-2.769-.05-2.118 4.145-3.506 8.032-1.388 3.888-3.214 4.43-3.25 6.49-.048 2.648 3.262 4.34 5.715 3.27S61.629 17.3 62 15.507z"/><path fill="#ffaf54" d="M43.688 12.242c-12.322 0-20.5 8.507-20.5 19 0 .74.045 1.471.134 2.19-1.369 2.066-2.134 4.374-2.134 6.81 0 8.837 8.073 16 22.5 16 14.426 0 22.5-7.163 22.5-16 0-2.436-.766-4.744-2.135-6.811.089-.718.135-1.448.135-2.189 0-10.493-8.179-19-20.5-19z"/><path fill="#fff" d="M53.32 46.692v9.203l10.818-3.318-3.972-7.341z"/><path fill="#ffaf54" d="M27.821 41.724s-8.339-4.743-9.683-11.9c5.425 2.263 9.831 3.32 9.831 3.32s-8.451-6.466-7.258-16.159c9.296 6.978 13.444 7.31 13.444 7.31z"/><path fill="#fff0d6" d="M27.693 18.362c-2.259-4.306-2.64-9.875.474-10.826 2.649-.809 3.586 3.52 5.58 6.758 1.994 3.238 4.31 3.373 4.911 5.344.774 2.533-1.943 5.07-4.595 4.717-2.653-.353-5.52-4.372-6.37-5.993z"/><path fill="#c7e9ff" d="m80.457 36.005-7.87.005s.657 3.293.204 5.853c-.452 2.56-2.196 5.43-2.196 5.43l6.893 2.852-1.635-4.592 6.095-2.072-5.022-4.002z"/><path fill="#fff" d="m32.921 60.56-.065.048-.134.109c-.773.666-.966 1.504-.41 2.37.497.772 1.423 1.236 2.7 1.458.918.159 2.01.192 3.243.12.677 2.962.414 6.907.414 9.685 0 4.723 2.147 11.474 6.186 14.215-11.073-2.123-15.87-7.127-17.111-15.238-1.003-6.558 1.592-11.942 5.177-12.767z"/><g fill-rule="nonzero"><g fill="#872e00"><path d="M45.715 34.11a.5.5 0 0 0-.576.812l.074.052 6.517 3.79a.5.5 0 0 0 .576-.812l-.073-.052zM61.08 32.23a.5.5 0 0 1 .897.434l-.04.08-3 5a.5.5 0 0 1-.896-.434l.04-.081zM62.555 36.632a3 3 0 1 1-.522 5.976 3 3 0 0 1 .522-5.976zM49.558 39.633a3 3 0 1 1-.522 5.976 3 3 0 0 1 .522-5.976zM53.476 56.371a.5.5 0 0 1-.647-.478V46.69a.5.5 0 0 1 .395-.489l6.846-1.456a.5.5 0 0 1 .544.251l3.972 7.34a.5.5 0 0 1-.293.717zm.353-1.154 9.587-2.94-3.504-6.475-6.084 1.293z"/></g><path fill="#872e00" d="M63.887 52.206c3.255-.63 7.069-.149 11.46 1.747a.5.5 0 0 1-.07.942c-1.524.41-2.28 1.345-2.478 2.706a4.878 4.878 0 0 0-.04.388c1.37.74 2.746 1.708 4.125 2.921a.5.5 0 0 1-.357.875c-1.589-.082-2.797.415-3.706 1.345a5.585 5.585 0 0 0-1.365 2.399l-.048.172a.5.5 0 0 1-.869.108 3.096 3.096 0 0 0-.03-.042l-.225-.282a11.27 11.27 0 0 0-.705-.778c-.516-.517-1.047-.945-1.568-1.235-1.584-.88-2.786-.397-3.682 2.206a.5.5 0 0 1-.948-.005c-.463-1.393-1.249-2.405-2.305-3.097a6.462 6.462 0 0 0-1.728-.786c.015.275.028.553.039.834l.069 2.55c.14 5.464.527 7.684 2.083 9.676 5.631 7.214 11.578 9.187 19.639 6.982 2.499-.684 3.986 1.689 2.412 3.13-4.549 4.168-13.011 5.61-27.181 5.692l-1.304.004h-.169c-2.41 2.473-7.615 4.435-11.496 4.574-2.196.079-3.563-.533-3.258-1.955.207-.961 1.334-2.172 3.427-3.661a17.379 17.379 0 0 1-.227-.047c-2.692 1.793-6.679 3.089-9.806 3.2-2.196.079-3.564-.533-3.258-1.955.241-1.12 1.733-2.581 4.55-4.427-3.507-2.113-5.968-5.058-7.195-8.944-1.556-4.926-1.452-9.432.083-13.97l-.072.218c-1 .033-1.898-.012-2.671-.146-1.278-.222-2.204-.686-2.7-1.459-.557-.865-.364-1.703.409-2.369l.134-.11c.654-.505 1.664-.924 2.966-1.281a25.374 25.374 0 0 1 1.83-.423 37.776 37.776 0 0 1 2.384-.384l.504-.062a75.355 75.355 0 0 1 1.893-3.072l.89.466c-2.302 3.562-3.574 5.95-4.514 8.636l-.106.306c-1.468 4.341-1.567 8.63-.077 13.349 2.024 6.406 7.715 10.14 16.15 11.68a47.28 47.28 0 0 1 1.26-.795.5.5 0 0 1 .522.853l-.643.399c-3.005 1.9-4.572 3.357-4.755 4.208-.103.48.619.804 2.244.746 3.962-.142 9.495-2.355 11.321-4.862a.5.5 0 0 1 .905.286c14.37-.033 22.912-1.426 27.285-5.432.768-.704.052-1.846-1.473-1.428-7.59 2.076-13.494.584-18.878-5.198-.33.263-.892.54-1.536.842-2.037.956-4.51 1.351-7.379.873-.628-.104-.682-.986-.071-1.167 1.457-.43 2.694-1 3.73-1.672.651-.423 1.86-1.466 2.55-2.39a7.169 7.169 0 0 1-.227-.469c-.426.212-1.219.595-1.577.733-1.87.721-3.782 1.055-5.593.775a7.58 7.58 0 0 1-.734-.15c-.57-.148-.61-.944-.055-1.145a20.274 20.274 0 0 0 3.122-1.437 16.203 16.203 0 0 0 2.792-1.986c.226-.202.692-.582 1.095-.97-.016-.153-.03-.309-.044-.47a8.78 8.78 0 0 1-1.253.625c-1.792.736-3.765.99-5.793.467-.575-.148-.609-.952-.048-1.147a15.477 15.477 0 0 0 3.733-1.896 14.428 14.428 0 0 0 2.257-1.922c.175-.185.534-.652.892-1.153l-.014-.558-.039-1.083a43.52 43.52 0 0 0-.039-.734c-.564-.09-1.149-.125-1.745-.114a10.232 10.232 0 0 0-1.224.095l-.181.03a.5.5 0 0 1-.459-.836c.057-.06.162-.163.313-.303l.194-.175c.202-.18.427-.37.676-.566.626-.495 1.314-.97 2.06-1.403-.224-1.29-.54-2.447-.97-3.48l.96-.296c.047.117.093.236.138.356.314-.248.635-.48.964-.696l5.297-1.633zM35.85 86.943l-.106.068c-2.806 1.804-4.272 3.192-4.45 4.014-.103.48.62.803 2.245.745 2.644-.094 5.988-1.112 8.463-2.523-2.283-.579-4.341-1.342-6.152-2.304zm5.754-28.089a.5.5 0 0 1-.453.543l-.325.034a36.791 36.791 0 0 0-2.983.453 24.39 24.39 0 0 0-1.758.406c-1.187.326-2.091.701-2.619 1.109-.503.389-.593.712-.313 1.147.315.491 1.001.835 2.03 1.014 1.197.207 2.776.18 4.611-.038 1.183-.141 2.4-.352 3.581-.602l.87-.193.676-.166a.5.5 0 1 1 .255.967l-.319.08-.117.029a42.82 42.82 0 0 1-1.157.261 41.456 41.456 0 0 1-3.67.617c-1.924.228-3.59.257-4.901.03-1.278-.222-2.204-.686-2.7-1.459-.557-.865-.364-1.703.409-2.369l.134-.11c.654-.505 1.664-.924 2.966-1.281a25.374 25.374 0 0 1 1.83-.423 37.776 37.776 0 0 1 2.384-.384l.514-.063.511-.054a.5.5 0 0 1 .544.452zm33.354 1.765c-5.359-4.122-10.567-4.381-15.386-2.049a16.55 16.55 0 0 0-3.046 1.91l.038-.03h.344c1.488.013 2.912.3 4.155.959l.283.159.277.172a6.48 6.48 0 0 1 2.196 2.418l.032.066c1.093-2.154 2.69-2.628 4.477-1.715l.168.09c.613.34 1.214.824 1.79 1.402.094.095.185.19.273.284l.193.213.08-.186a6.495 6.495 0 0 1 1.066-1.66l.206-.22a5.352 5.352 0 0 1 2.997-1.567l.145-.021zM29.93 58.544l.234-.033c-.759.098-1.546.222-2.32.373a24.39 24.39 0 0 0-1.758.406c-1.187.326-2.091.701-2.619 1.109-.503.389-.593.712-.313 1.147.315.491 1.001.835 2.03 1.014.794.137 1.758.172 2.852.115a31.099 31.099 0 0 1 1.894-4.131zm43.43-4.306c-6.465-2.35-11.421-1.352-15.082 1.778l.155-.13c.18.603.33 1.239.457 1.908l.248-.124c4.003-1.938 8.288-2.196 12.665-.161l.006-.052c.19-1.304.815-2.345 1.93-3.003l.079-.045z"/><path fill="#872e00" d="M58.426 4.744c3.48 0 5.143 5.336 4.109 10.812a16.866 16.866 0 0 1-1.538 4.445c.02.026.04.053.058.08l.136-.119a60.294 60.294 0 0 0 3.827-3.711.5.5 0 0 1 .841.2c1.054 3.485.293 7.023-1.738 10.442.128.566.233 1.143.311 1.73a32.754 32.754 0 0 0 3.718-2.858.5.5 0 0 1 .827.309c.362 2.731-.843 5.97-3.009 9.115l-.151.217c.668 1.507.921 2.88.95 4.556.07 3.94-1.367 7.435-4.04 10.21l-.514-.913c2.362-2.56 3.617-5.731 3.555-9.28-.04-2.285-.784-4.49-2.166-6.498a.5.5 0 0 1-.085-.337c.075-.703.106-1.413.094-2.129-.184-10.542-8.617-18.352-20.32-18.148-3.116.055-5.98.669-8.504 1.74a9.448 9.448 0 0 0 1.623 1.659l.188.145c.443.338 1.37 1.02 1.622 1.239.567.493.931.99 1.14 1.633.92 2.83-1.975 5.804-5.046 5.45a3.634 3.634 0 0 1-.557-.11c-.636-.105-1.65-.394-3.064-.978l-.34-.143c-2.278-.978-4.971-2.482-8.098-4.611l-1.002-.694-.258-.183-.015.353c-.109 4.446 1.76 8.447 4.804 11.866.63.708 1.259 1.328 1.858 1.856.268.237.484.415.635.534l.13.098c.434.321.122 1.008-.406.891a21.044 21.044 0 0 1-.365-.085l-.814-.204a62.428 62.428 0 0 1-.836-.223l-.911-.256-.85-.25a77.621 77.621 0 0 1-4.393-1.464l-.891-.335.035.122c.856 2.747 2.804 5.292 5.46 7.566.916.784 1.85 1.477 2.75 2.07.315.207.603.387.857.539l.31.178a.5.5 0 1 1-.524.853l-.504-.297-.218-.135-.47-.303a28.49 28.49 0 0 1-2.852-2.146 26.052 26.052 0 0 1-1.641-1.528c-.231.87-.355 1.758-.37 2.655.99.903 2.725 2.001 3.55 2.374 2.546 1.15 5.456 1.468 8.714.617.687-.18 1.06.772.436 1.109-3.376 1.817-6.612 2.381-9.529 2.072a11.75 11.75 0 0 1-1.919-.353c.086.181.176.36.27.537.976.52 3.198 1.29 4.12 1.478 2.484.508 5.247.495 8.244-.224.65-.156 1.03.708.475 1.081-2.695 1.813-5.357 2.601-7.754 2.681-.189.007-.364.008-.525.006 3.865 2.7 9.412 4.232 16.185 4.114 3.405-.06 6.485-.525 9.186-1.333l.077 1.016c-2.742.799-5.843 1.257-9.245 1.316-13.984.245-23.116-6.426-23.285-16.096.004-1.338.176-2.594.517-3.767l.573.428c-2.116-2.23-3.588-4.688-4.136-7.346a.5.5 0 0 1 .674-.565 75.48 75.48 0 0 0 4.215 1.526c.015-1.011.104-1.998.262-2.958-2.13-3.281-3.24-6.99-2.814-11.044a.5.5 0 0 1 .79-.352 71.9 71.9 0 0 0 5.287 3.506c.402-.561.838-1.1 1.304-1.613l.01.017c-2.677-4.89-2.745-10.478.565-11.553 1.828-.594 2.824.358 4.401 3.384l.88 1.729c.068.128.131.25.195.368.249.467.48.874.713 1.245 2.683-1.172 5.74-1.844 9.064-1.902 4.072-.07 7.773.793 10.908 2.386.143-.336.278-.691.406-1.072.178-.526.326-1.085.458-1.703l.086-.438c.184-.995.474-2.8.535-3.108.432-2.159 1.156-3.188 2.76-3.188zm9.613 22.434-.204.172a33.1 33.1 0 0 1-3.285 2.388c.033.415.053.835.06 1.26a13.1 13.1 0 0 1-.082 2.067c.295.46.554.894.782 1.313l.057-.086c1.606-2.415 2.592-4.856 2.669-6.969zm-44.315 2.115-.011.108a19.41 19.41 0 0 0-.1 1.96c.588.183 1.168.358 1.739.522l.457.13.402.11-.191-.185a24.447 24.447 0 0 1-2.296-2.645zm41.394-11.705-.188.194a57.756 57.756 0 0 1-3.308 3.132 18.472 18.472 0 0 1 2.13 4.592c1.348-2.58 1.894-5.196 1.398-7.765zM28.33 7.994c-2.474.804-2.415 5.706.002 10.121 1.38 2.52 4.131 5.399 6.097 5.625 2.389.275 4.66-2.058 3.98-4.148-.147-.452-.405-.805-.845-1.187l-.31-.246c-.463-.356-1.24-.927-1.473-1.116a10.508 10.508 0 0 1-2.325-2.594c-.222-.347-.44-.719-.669-1.134l-.27-.505-.711-1.394C30.3 8.434 29.54 7.601 28.33 7.994zm-.348 11.487-.045.05c-.326.376-.636.765-.928 1.166a38.484 38.484 0 0 0 3.348 1.715 16.984 16.984 0 0 1-2.375-2.93zM58.426 5.744c-.98 0-1.43.638-1.778 2.384l-.428 2.509c-.075.431-.146.816-.196 1.05a15.594 15.594 0 0 1-.96 3.043 19.096 19.096 0 0 1 5.245 4.387c.573-1.206 1.016-2.545 1.243-3.746.935-4.946-.524-9.627-3.126-9.627z"/><path fill="#8fb5ce" d="M80.544 35.513a.5.5 0 0 1 .264.85l-3.127 3.077 4.58 3.65.069.067a.5.5 0 0 1-.22.798l-5.614 1.909 1.464 4.114a.5.5 0 0 1-.662.63l-6.894-2.853a.5.5 0 0 1-.236-.722l.136-.231.133-.239c.209-.378.425-.795.636-1.239a17.28 17.28 0 0 0 .972-2.48c.11-.373.195-.73.255-1.067.06-.337.101-.701.125-1.089a17.28 17.28 0 0 0-.063-2.663c-.046-.49-.106-.956-.172-1.382l-.079-.466a5.947 5.947 0 0 0-.013-.068.5.5 0 0 1 .49-.598l7.87-.005zm-1.308.992-6.054.006-.004-.022c.07.445.132.931.18 1.442.092.98.121 1.935.066 2.82-.027.423-.073.824-.14 1.2s-.16.769-.28 1.175a18.25 18.25 0 0 1-1.028 2.627l-.166.342c-.166.337-.334.656-.498.953l5.33 2.205-1.259-3.531-.023-.089a.5.5 0 0 1 .333-.553l5.23-1.778-4.308-3.431a.5.5 0 0 1-.039-.748z"/></g></g></svg>