<svg data-id="150-6a48f1cca28245a-smile" xmlns="http://www.w3.org/2000/svg" viewBox="0 0 100 100"><g fill="none" fill-rule="evenodd"><path fill="#ffaf54" d="M37.175 88.02c-15.187 9.288 4.577 7.054 8.833 1.212.805-2.633-8.833-1.211-8.833-1.211z"/><path fill="#fff0d6" d="M55.195 65.655s2.511-14.596 18.19-13.95c-3.76 2.734.085 7.004.085 7.004s-8.704-2.612-6.312 3.962c-5.13-3.281-11.963 2.984-11.963 2.984z"/><path fill="#ffaf54" d="M41.662 58.51c-4.423 4.125-13.792-.177-13.718-2.678.074-2.5 3.698-2.975 9.8-1.088 1.872.46 4.857 3.84 3.918 3.767z"/><path fill="#ffaf54" d="M57.009 92.612c17.435.49 25.726-13.246 26.715-24.715.068-.784-1.334-1.75-2.236-.144-2.43 4.325-8.184 11.324-16.058 9.383-12.22-3.014 4.796-20.527-14.455-27.398-5.858-2.091-11.218 1.818-14.552 4.848-5.012 7.467-9.636 14.816-6.369 25.16 3.267 10.345 14.001 12.502 26.955 12.866z"/><path fill="#fff0d6" d="M57.08 66.157s4.76-14.027 20.147-10.94c-4.141 2.115-1.01 6.933-1.01 6.933s-8.19-3.94-6.854 2.928c-4.555-4.043-12.284 1.079-12.284 1.079z"/><path fill="#ffaf54" d="M48.082 90.444c-15.187 9.288 4.577 7.053 8.833 1.212.804-2.634-8.833-1.212-8.833-1.212zM29.589 38.826c-.503.64-7.705-6.715-7.037-12.557 4.833 4.136 9.055 5.425 9.055 5.425s-8.409-6.948-6.124-15.02c8.057 8.188 12.215 8.62 12.215 8.62z"/><path fill="#fff0d6" d="M29.007 15.518c-.987-4.76.18-10.22 3.434-10.278 2.77-.049 2.118 4.145 3.506 8.033 1.388 3.887 3.215 4.429 3.251 6.489.047 2.648-3.262 4.34-5.715 3.27-2.453-1.07-4.104-5.722-4.476-7.514z"/><path fill="#ffaf54" d="M47.313 12.242c12.321 0 20.5 8.507 20.5 19 0 .74-.046 1.471-.135 2.19 1.37 2.066 2.135 4.374 2.135 6.81 0 8.837-8.074 16-22.5 16-14.427 0-22.5-7.163-22.5-16 0-2.436.765-4.744 2.134-6.811a17.766 17.766 0 0 1-.134-2.189c0-10.493 8.178-19 20.5-19z"/><path fill="#ffaf54" d="M63.168 41.712s8.339-4.743 9.683-11.9c-5.425 2.263-9.83 3.32-9.83 3.32s8.45-6.466 7.258-16.158c-9.296 6.977-13.445 7.31-13.445 7.31z"/><path fill="#fff0d6" d="M63.3 18.354c2.26-4.305 2.64-9.875-.473-10.826-2.65-.809-3.587 3.52-5.58 6.758-1.995 3.239-4.31 3.374-4.912 5.345-.774 2.533 1.943 5.07 4.596 4.716 2.652-.353 5.52-4.372 6.37-5.993z"/><path fill="#ffaf54" d="M40.502 59.112s-9.339-6.808-11.149-2.018C27.543 61.885 41.256 65 41.256 65z"/><g fill="#ff608b"><path d="M32.613 40.276c-.325.585-1.029.88-1.556.642 0 0-4.95-1.794-5.922-5.596-.745-2.914 1.718-5.75 4.39-3.756 1.24-3.608 4.545-3.153 5.29-.24.972 3.802-2.202 8.95-2.202 8.95zM40.835 42.57c-.778.002-1.613-.608-1.84-1.356 0 0-2.512-6.742 0-10.25 1.925-2.69 6.423-1.696 6.886 2.593 4.164-.88 6.488 3.15 4.563 5.84-2.512 3.508-9.61 3.172-9.61 3.172z"/></g><path fill="#872e00" fill-rule="nonzero" d="M32.434 4.746c1.603-.028 2.345.988 2.814 3.14.067.306.389 2.105.59 3.097l.093.437c.143.616.301 1.172.488 1.694.127.359.26.694.401 1.012 3.028-1.528 6.582-2.384 10.493-2.384 3.572 0 6.846.714 9.693 2.001.195-.332.392-.694.6-1.103.062-.119.124-.241.188-.371l.85-1.744c1.524-3.053 2.504-4.022 4.342-3.46 3.328 1.017 3.358 6.606.767 11.54l-.04.077c.405.465.787.95 1.144 1.453a71.785 71.785 0 0 0 5.132-3.54.5.5 0 0 1 .797.339c.503 4.1-.578 7.873-2.705 11.225.153 1 .232 2.03.232 3.083l-.003-.206a75.548 75.548 0 0 0 4.357-1.658.5.5 0 0 1 .684.554c-.463 2.46-1.716 4.764-3.538 6.886.333 1.124.5 2.265.5 3.424 0 6.542-4.124 11.783-11.12 14.49.262.372.5.759.712 1.16 3.204-3.164 7.637-4.931 13.489-4.691a.5.5 0 0 1 .274.904c-.864.628-1.313 1.355-1.42 2.175 1.583-.051 3.268.094 5.058.453a.5.5 0 0 1 .13.936c-1.407.718-1.952 1.79-1.863 3.163.05.772.299 1.579.664 2.347.105.22.202.402.28.536l.1.166c.275.424-.18.942-.636.723a5.687 5.687 0 0 0-.14-.065l-.34-.145a14.37 14.37 0 0 0-1.224-.442c-.726-.224-1.418-.37-2.04-.412-2.033-.137-2.92.775-2.4 3.444a.5.5 0 0 1-.823.47c-1.38-1.225-3.171-1.625-5.281-1.344-.783.104-1.582.298-2.381.563l-.043.703-.145 2.023c-.407 6.071.234 8.095 3.959 9.139l.427.112c6.254 1.542 11.867-2.674 15.502-9.142.516-.918 1.296-1.292 2.064-1.058.665.203 1.162.845 1.107 1.49-1.232 14.27-11.558 25.612-27.228 25.172l-.737-.023c-2.569 2.262-7.385 4.003-11.033 4.134-2.196.078-3.563-.534-3.257-1.955.192-.894 1.179-2.003 2.997-3.35-.338-.07-.671-.141-.999-.217-2.688 1.74-6.58 2.989-9.648 3.098-2.195.079-3.563-.533-3.257-1.955.244-1.134 1.768-2.616 4.65-4.492-2.968-2.016-4.97-4.772-6.134-8.455-1.556-4.926-1.451-9.432.083-13.97a29.724 29.724 0 0 1 1.793-4.21c-1.778-1.156-2.777-2.414-2.764-3.78-.793-.689-1.26-1.424-1.24-2.108.059-1.957 1.751-2.848 4.638-2.712-4.946-2.932-7.774-7.457-7.774-12.875 0-1.544.264-2.95.808-4.348l.73.928a11.162 11.162 0 0 0-.538 3.42c0 9.05 8.515 15.5 22 15.5 6.475 0 11.804-1.487 15.595-4.035h.01c-2.397-.038-5.072-.78-7.798-2.545-.561-.364-.197-1.234.456-1.09 3.009.667 5.771.632 8.246.08.837-.186 2.438-.671 3.761-1.332.132-.23.257-.46.374-.696-.454.124-1.023.24-1.693.323-2.911.36-6.157-.147-9.564-1.905-.63-.325-.273-1.283.417-1.116 3.272.794 6.176.426 8.702-.769.74-.35 2.508-1.445 3.493-2.468a11.086 11.086 0 0 0-.295-2.49 26.833 26.833 0 0 1-1.563 1.5 28.49 28.49 0 0 1-2.814 2.195l-.465.311-.216.14-.498.305-.045.026a.5.5 0 0 1-.494-.87l.306-.184c.252-.156.537-.34.848-.553a27.497 27.497 0 0 0 2.714-2.118c2.616-2.32 4.52-4.898 5.327-7.66l.033-.122-.885.35a77.62 77.62 0 0 1-4.366 1.54l-.846.265-.906.272c-.29.085-.568.164-.833.238l-.81.218c-.16.041-.283.072-.364.091-.525.126-.85-.555-.42-.883l.127-.101c.15-.121.362-.304.626-.544.59-.54 1.208-1.17 1.825-1.889 2.983-3.471 4.783-7.504 4.596-11.948l-.02-.353-.256.188-.99.71c-3.089 2.185-5.755 3.735-8.016 4.752l-.338.15c-.864.375-1.579.635-2.149.807-.38.168-.757.282-1.123.33-3.064.408-6.01-2.516-5.14-5.361.198-.646.553-1.15 1.111-1.653.248-.223 1.163-.921 1.601-1.267l.185-.149a9.5 9.5 0 0 0 1.704-1.837c-2.69-1.192-5.779-1.853-9.15-1.853-11.705 0-20 7.957-20 18.5l.001-.188-1 .3-.001-.112c0-.52.019-1.034.057-1.542a32.961 32.961 0 0 1-3.154-2.223l-.207-.168.006.145c.094 1.744.812 3.701 1.988 5.675l.001 1.846-.019-.026c-2.074-3.003-3.236-6.089-2.933-8.728a.5.5 0 0 1 .822-.323 32.868 32.868 0 0 0 3.61 2.692c.08-.618.189-1.225.325-1.82-2.007-3.325-2.782-6.785-1.808-10.225a.5.5 0 0 1 .838-.215 59.935 59.935 0 0 0 3.987 3.726c.059-.084.119-.166.18-.248a16.887 16.887 0 0 1-1.491-4.18c-1.13-5.458.44-10.821 3.919-10.882zm25.782 50.34-.035.012c-3.133 1.063-6.789 1.644-10.868 1.644-3.996 0-7.586-.557-10.676-1.579l-.408.614-.117.176c.214.095.432.198.652.306a29.419 29.419 0 0 1 3.3 1.913l.41.277.326.23a.5.5 0 1 1-.59.807 10.63 10.63 0 0 0-.147-.105l-.552-.377-.443-.288a28.44 28.44 0 0 0-2.745-1.56c-3.424-1.683-5.773-1.82-6.493.085-.545 1.444.671 2.916 3.378 4.341.954.503 2.057.978 3.267 1.423a44.546 44.546 0 0 0 4.499 1.378l.396.096a.5.5 0 1 1-.222.975 22.516 22.516 0 0 1-.416-.1l-.524-.135-.58-.156a45.531 45.531 0 0 1-3.497-1.12c-1.25-.458-2.392-.95-3.39-1.476-.146-.077-.289-.155-.428-.233a29.061 29.061 0 0 0-1.38 3.1l-.22.607-.106.306c-1.467 4.341-1.567 8.63-.076 13.349 2.053 6.5 6.943 9.963 15.573 11.52a46.58 46.58 0 0 1 1.717-1.099.5.5 0 1 1 .522.854l-.642.399c-3.006 1.899-4.572 3.357-4.756 4.208-.103.48.619.804 2.244.746 3.962-.142 9.495-2.356 11.322-4.863a.5.5 0 1 1 .808.59l-.125.165c14.994.338 24.848-10.533 26.032-24.262.013-.146-.165-.375-.402-.447-.29-.089-.603.061-.9.591-3.729 6.635-9.492 11.064-16.079 9.742-.555.625-1.535 1.468-1.983 1.786-2.025 1.44-4.472 2.134-7.297 1.664-.575-.096-.69-.872-.167-1.13 2.113-1.042 3.642-2.098 4.682-3.108.445-.431.724-.774.878-1.005a5.09 5.09 0 0 1-.39-.401c-.426.21-1.214.59-1.57.728-1.87.721-3.782 1.055-5.593.775a7.58 7.58 0 0 1-.734-.15c-.571-.147-.61-.944-.055-1.145.942-.343 4.77-2.454 5.52-3.128.242-.217.638-.611.942-.97a8.357 8.357 0 0 1-.035-.465c-.208.105-.448.215-.716.325-1.791.737-3.764.99-5.792.467-.575-.148-.609-.952-.048-1.147a15.477 15.477 0 0 0 3.733-1.896 14.428 14.428 0 0 0 2.256-1.922c.206-.217.505-.6.786-.999l.028-.396c.014-.202.027-.393.038-.575-.428.175-.855.367-1.277.574a19.22 19.22 0 0 0-1.578.868l-.13.083a.5.5 0 0 1-.75-.577l.02-.057.144-.371c.135-.331.3-.702.499-1.105a20.524 20.524 0 0 1 2.945-4.417c-.292-1.891-.924-3.533-1.985-4.96zM36.64 88.943l-.153.098c-2.806 1.804-4.273 3.191-4.45 4.013-.103.48.62.804 2.245.746 2.591-.093 5.855-1.072 8.314-2.44-2.28-.618-4.259-1.414-5.956-2.417zm38.84-33.5c-6.749-.874-11.743 1.599-15.274 6.172a19.53 19.53 0 0 0-2.054 3.29l-.034.07.136-.072.356-.178c1.634-.802 3.33-1.385 4.99-1.606 1.86-.248 3.538-.017 4.956.784l.15.089-.006-.164c-.048-2.32 1.25-3.377 3.411-3.296l.193.01c.708.048 1.473.21 2.267.455l.341.11.235.082-.1-.244a7.267 7.267 0 0 1-.44-1.705l-.033-.344c-.085-1.315.31-2.463 1.263-3.338l.063-.056zm-3.354-3.263-.425.008c-4.886.138-8.608 1.84-11.345 4.667.3.719.528 1.477.695 2.277 2.7-2.717 6.077-4.437 10.185-4.794a3.804 3.804 0 0 1 .836-2.092zm-37.241 2.332c-4.077-.88-6.387-.327-6.437 1.346-.008.27.166.594.482.938.908-2.25 3.18-2.432 6.244-1.24l.215-.323.275-.413a24.782 24.782 0 0 1-.531-.206zM28.343 44.27c-.018-.638.84-.86 1.133-.293l.082.14.096.148c.162.238.36.483.592.72.657.67 1.455 1.14 2.399 1.307.944.167 1.854-.003 2.701-.408a5.27 5.27 0 0 0 .943-.58l.198-.161c.467-.325 1.116.156.892.72a4.92 4.92 0 0 1-.175.383l-.137.26a7.404 7.404 0 0 1-.929 1.33c-1.08 1.222-2.436 1.857-4.043 1.574-1.606-.284-2.664-1.344-3.26-2.863a7.404 7.404 0 0 1-.418-1.567 7.122 7.122 0 0 1-.064-.53zm38.884-14.863-.14.19a24.76 24.76 0 0 1-1.995 2.338l-.188.189.4-.117.455-.139c.51-.156 1.028-.321 1.55-.494l.004-.132c0-.62-.03-1.233-.086-1.835zM25.763 17.67l-.03.153c-.442 2.52.115 5.068 1.444 7.57a18.556 18.556 0 0 1 2.084-4.505 58.135 58.135 0 0 1-3.307-3.028zm36.93-9.649c-1.217-.372-1.962.474-3.415 3.482l-.686 1.406-.262.51c-.221.419-.433.794-.65 1.145a10.508 10.508 0 0 1-2.278 2.634c-.23.194-.997.778-1.454 1.142l-.306.251c-.433.39-.684.747-.824 1.202-.642 2.102 1.669 4.395 4.053 4.078 1.96-.26 4.661-3.186 5.997-5.73 2.34-4.457 2.313-9.36-.175-10.12zm.487 11.578-.022.037a17.14 17.14 0 0 1-1.981 2.568c.88-.435 1.821-.949 2.823-1.546a16.874 16.874 0 0 0-.82-1.06zM32.451 5.746c-2.6.045-3.977 4.75-2.957 9.68a15.89 15.89 0 0 0 1.203 3.509 19.206 19.206 0 0 1 5.24-4.336c-.162-.36-.315-.741-.46-1.149-.2-.561-.369-1.153-.52-1.804a33.374 33.374 0 0 1-.214-1.047l-.472-2.5c-.38-1.74-.84-2.37-1.82-2.353z"/><path fill="#fff" d="M36.13 63.944c1.087.398 2.198.752 3.282 1.058 1.647 2.876 1.218 8.329 1.218 11.877 0 4.723 1.224 11.114 5.264 13.855-8.794-2.26-14.358-7.163-15.333-14.42-.76-5.653.978-11.529 4.068-12.962.48.204.982.4 1.502.592z"/><g fill="#b3303d" fill-rule="nonzero"><path d="m29.285 30.82-.075-.04c-2.762-1.413-5.395 1.4-4.56 4.666.418 1.631 1.512 3.019 3.064 4.18a13.737 13.737 0 0 0 2.664 1.552l.318.135.191.075c.7.316 1.603-.023 2.079-.732l.084-.138c.068-.11.204-.343.376-.666.287-.535.573-1.125.84-1.755.615-1.448 1.038-2.884 1.182-4.239.1-.956.058-1.846-.149-2.655-.85-3.325-4.343-3.654-5.913-.589zm5.045.63c.176.685.213 1.458.123 2.303-.132 1.244-.528 2.59-1.107 3.953-.191.45-.393.88-.597 1.282l-.204.392c-.163.304-.288.52-.358.633-.218.392-.651.572-.924.449l-.205-.08a11.694 11.694 0 0 1-.731-.331 12.75 12.75 0 0 1-2.013-1.225c-1.386-1.037-2.342-2.25-2.695-3.628-.689-2.694 1.502-4.801 3.607-3.232l.55.41.222-.648c1.017-2.959 3.664-2.892 4.332-.278zM46.297 32.988l-.02-.102c-.856-4.025-5.476-5.3-7.69-2.207-1.081 1.51-1.386 3.608-1.123 6.077.116 1.1.34 2.201.628 3.255.076.277.152.536.227.774l.187.562.019.049c.264.873 1.19 1.594 2.132 1.673l.346.013a21.477 21.477 0 0 0 2.942-.16c1.773-.222 3.377-.654 4.685-1.354.927-.497 1.677-1.117 2.219-1.873 2.198-3.07-.384-7.098-4.392-6.724zm3.739 6.125c-.446.622-1.079 1.145-1.878 1.573-1.183.634-2.676 1.035-4.337 1.243-.586.073-1.161.118-1.71.14l-.407.012c-.285.006-.516.005-.681.001l-.167-.005c-.54 0-1.125-.398-1.339-.88l-.135-.377-.039-.117c-.093-.283-.19-.604-.286-.956a19.732 19.732 0 0 1-.599-3.096c-.239-2.25.033-4.12.942-5.39 1.771-2.475 5.59-1.271 5.982 2.357l.06.55.54-.115c3.515-.743 5.83 2.577 4.054 5.06z"/></g></g></svg>