<svg data-id="152-47f069f0113106b-angry" xmlns="http://www.w3.org/2000/svg" viewBox="0 0 100 100"><g fill="none" fill-rule="evenodd"><path fill="#ffaf54" d="M59.825 88.02c15.188 9.288-4.577 7.053-8.833 1.212-.804-2.634 8.833-1.212 8.833-1.212z"/><path fill="#fff0d6" d="M41.812 65.668s-2.512-14.596-18.19-13.95c3.76 2.734-.085 7.004-.085 7.004s8.704-2.612 6.312 3.962c5.13-3.281 11.963 2.984 11.963 2.984z"/><path fill="#ffaf54" d="M60.368 58.043c6.046.002 9.96 9.536 8.2 11.313-1.758 1.777-4.566-1.006-5.842-3.737-1.054-1.613-2.994-8.269-2.358-7.576z"/><path fill="#ffaf54" d="M39.991 92.612c-17.434.49-25.726-13.246-26.715-24.715-.068-.784 1.334-1.75 2.237-.144 2.43 4.325 8.184 11.324 16.058 9.382 12.22-3.013-4.796-20.526 14.454-27.398 5.858-2.09 11.218 1.819 14.552 4.848 5.012 7.468 9.636 14.817 6.37 25.162-3.268 10.344-14.002 12.5-26.956 12.865z"/><path fill="#fff0d6" d="M39.922 66.177s-4.76-14.027-20.148-10.94c4.141 2.115 1.01 6.933 1.01 6.933s8.19-3.94 6.854 2.928c4.555-4.043 12.284 1.079 12.284 1.079z"/><path fill="#ffaf54" d="M48.918 90.444c15.187 9.287-4.577 7.053-8.833 1.212-.804-2.634 8.833-1.212 8.833-1.212zM69.411 42.704c.422.697 8.468-5.735 8.513-11.618-5.303 3.521-9.652 4.29-9.652 4.29s9.195-5.882 7.906-14.175c-8.997 7.154-13.18 7.078-13.18 7.078z"/><path fill="#fff0d6" d="M72.942 19.251c1.233-4.704.352-10.217-2.896-10.443-2.764-.193-2.33 4.03-3.919 7.84-1.588 3.811-3.44 4.257-3.584 6.313-.185 2.642 3.033 4.504 5.539 3.563s4.396-5.502 4.86-7.273z"/><path fill="#ffaf54" d="M54.647 14.056c-12.26-1.294-21.29 6.311-22.392 16.752A17.823 17.823 0 0 0 32.159 33c-1.58 1.912-2.583 4.13-2.84 6.553-.927 8.792 6.354 16.768 20.708 18.283 14.355 1.514 23.14-4.766 24.068-13.558.256-2.424-.264-4.801-1.41-7.001.165-.705.287-1.427.365-2.164 1.102-10.44-6.143-19.764-18.403-21.057z"/><path fill="#ffaf54" d="M35.464 41.452s-7.6-5.863-7.934-13.141c5.06 2.998 9.278 4.66 9.278 4.66s-7.473-7.586-4.939-17.023c8.238 8.21 12.302 9.118 12.302 9.118z"/><path fill="#fff0d6" d="M38.586 18.57c-2.032-4.418-2.123-10 1.036-10.789 2.687-.67 3.4 3.702 5.222 7.04 1.824 3.338 4.13 3.593 4.628 5.593.641 2.57-2.204 4.962-4.835 4.472-2.63-.49-5.285-4.654-6.05-6.317z"/><g fill="#fff"><path d="M53.894 45.61c-2.807-1.536-2.288-4.028-.744-6.808 0 0 4.472 4.283 10.412 5.668-2.168 2.758-6.861 2.675-9.668 1.14zM71.093 35.984s-.548 4.444-3.567 7.424c3.646.989 9.519-4.351 3.567-7.424z"/></g><path fill="#872e00" fill-rule="nonzero" d="m44.024 11.03.632 1.834.14.392c.157.429.307.81.46 1.164 2.98-.929 6.314-1.237 9.856-.802 3.878.476 7.3 1.757 10.116 3.638.178-.296.35-.611.52-.95.25-.496.474-1.028.691-1.622l.092-.261c.31-.91.907-2.85 1.017-3.164.727-2.078 1.588-2.996 3.176-2.773 3.446.484 4.35 6 2.563 11.278a16.886 16.886 0 0 1-1.984 3.962c.051.09.103.182.153.274a59.915 59.915 0 0 0 4.41-3.211.5.5 0 0 1 .805.314c.548 3.534-.643 6.874-3.04 9.93.063.607.097 1.222.102 1.843a32.584 32.584 0 0 0 3.91-2.23.5.5 0 0 1 .777.42c-.022 2.756-1.666 5.795-4.249 8.609l-.091.098a3.359 3.359 0 0 1-.008.042c.491 1.645.606 3.175.395 4.893-.75 6.112-4.987 10.634-11.549 12.674.22.35.433.694.64 1.034 1.657.888 3.13 2.437 4.273 4.403 1.627 2.798 2.193 5.821 1.098 6.927-.18.183-.372.33-.572.44.435 3.104.093 6.193-1.018 9.711-1.158 3.667-3.149 6.415-6.095 8.43 2.907 1.888 4.444 3.378 4.69 4.517.305 1.422-1.063 2.034-3.258 1.955-3.075-.11-6.98-1.364-9.67-3.11a39.21 39.21 0 0 1-.995.216c1.83 1.354 2.823 2.466 3.015 3.363.306 1.421-1.061 2.033-3.257 1.955-3.65-.13-8.468-1.873-11.037-4.137-.267.01-.538.018-.811.026-15.67.44-25.997-10.902-27.228-25.172-.055-.645.442-1.287 1.107-1.49.767-.234 1.548.14 2.064 1.058 3.635 6.468 9.248 10.684 15.502 9.142 4.176-1.03 4.832-3.025 4.362-9.592l-.1-1.376c-.027-.378-.048-.72-.065-1.036a12.944 12.944 0 0 0-2.298-.536c-2.11-.28-3.902.119-5.281 1.343a.5.5 0 0 1-.823-.47c.52-2.668-.367-3.58-2.4-3.443-.622.042-1.314.188-2.04.412a14.37 14.37 0 0 0-1.225.442l-.418.18-.06.03c-.456.219-.912-.3-.637-.723l.1-.166c.078-.134.175-.316.28-.536.365-.768.614-1.575.664-2.347.089-1.373-.456-2.445-1.862-3.163a.5.5 0 0 1 .128-.936c1.791-.36 3.476-.504 5.058-.454-.106-.82-.555-1.546-1.419-2.174a.5.5 0 0 1 .274-.904c5.82-.239 10.236 1.507 13.437 4.638.216-.405.458-.795.727-1.172-6.41-3.55-9.742-9.175-8.958-15.565l.058-.41c.169-1.073.421-1.978.857-2.926-1.55-2.328-2.513-4.768-2.672-7.267a.5.5 0 0 1 .746-.467 75.547 75.547 0 0 0 4.12 2.176l-.027.205c.128-1.047.332-2.06.607-3.034-1.703-3.586-2.316-7.461-1.316-11.47a.5.5 0 0 1 .831-.239 72.264 72.264 0 0 0 4.663 4.14c.417-.459.857-.895 1.319-1.31l-.027-.072c-1.97-5.214-1.259-10.757 2.168-11.362 1.893-.333 2.747.748 3.887 3.964zm-5.363 44.11-.046.063c-.996 1.379-1.599 2.957-1.889 4.765a20.524 20.524 0 0 1 3.016 4.496c.149.301.28.585.392.848l.192.47c.035.093.062.165.078.214a.5.5 0 0 1-.75.577l-.22-.139-.233-.14a19.507 19.507 0 0 0-2.614-1.278c.02.328.043.685.072 1.081.344.382.71.757.864.92.62.655 1.372 1.31 2.257 1.923a15.477 15.477 0 0 0 3.733 1.896c.56.195.527 1-.048 1.147-2.028.523-4 .27-5.792-.467-.303-.124-.57-.25-.798-.367-.007.156-.017.305-.03.45.355.427.78.813 1.018 1.027.75.674 1.72 1.353 2.931 1.99.785.414 1.648.795 2.59 1.138.555.201.516.998-.055 1.145a7.58 7.58 0 0 1-.734.15c-1.81.28-3.722-.054-5.593-.775-.373-.144-1.219-.554-1.631-.759-.094.113-.195.221-.3.325.17.38.466.74.849 1.112 1.04 1.01 2.57 2.066 4.682 3.108.523.258.408 1.034-.167 1.13-2.824.47-5.272-.224-7.297-1.664-.44-.313-1.513-1.212-1.934-1.814-6.642 1.41-12.458-3.034-16.212-9.714-.297-.53-.61-.68-.9-.591-.238.072-.415.301-.402.447 1.186 13.753 11.072 24.637 26.11 24.26l-.125-.164a.5.5 0 1 1 .808-.589c1.827 2.507 7.36 4.72 11.322 4.863 1.625.058 2.347-.266 2.244-.746-.183-.851-1.75-2.309-4.755-4.208l-.643-.4a.5.5 0 1 1 .522-.853c.616.377 1.183.74 1.7 1.088 8.592-1.562 13.464-5.023 15.512-11.509l.124-.401c2.261-7.506.797-13.018-4.592-21.526-3.536.932-7.687 1.178-12.29.613-4.221-.518-7.91-1.607-10.966-3.143zm15.92 36.148-.21.057c2.462 1.376 5.74 2.362 8.34 2.455 1.626.058 2.348-.265 2.245-.746-.184-.85-1.75-2.309-4.756-4.208l.115.073c-1.641.976-3.546 1.756-5.734 2.369zm-2.774-31.05a.5.5 0 0 1-.083.703c-1.562 1.232-3.255 4.513-3.915 7.595-.715 3.332-.096 5.479 1.816 5.678 1.991.207 2.682-.895 3.304-4.333l.13-.74c.48-2.772.9-3.94 2.054-4.598a.5.5 0 1 1 .496.869c-.746.425-1.111 1.376-1.515 3.613l-.126.727c-.722 4.162-1.633 5.749-4.446 5.456-2.716-.282-3.513-3.048-2.691-6.881.705-3.29 2.502-6.774 4.273-8.171a.5.5 0 0 1 .703.083zm12.991.309.19.346c1.607 2.95 2.666 5.597 3.182 8.196l.049-.046c.656-.663.165-3.282-1.253-5.721-.63-1.085-1.364-2.025-2.168-2.775zm-43.28-5.103-.421.058.063.056c.953.875 1.348 2.023 1.263 3.338l-.033.344a7.267 7.267 0 0 1-.44 1.705l-.1.244.235-.082c.112-.038.226-.074.341-.11.794-.245 1.56-.407 2.267-.454l.193-.01c2.16-.082 3.459.976 3.41 3.295l-.005.164.15-.089c1.418-.801 3.097-1.032 4.956-.784 1.66.22 3.356.804 4.99 1.606l.355.178.137.071-.034-.068a19.53 19.53 0 0 0-2.054-3.29c-3.532-4.574-8.525-7.047-15.274-6.172zm3.354-3.263.053.065c.504.634.775 1.34.836 2.093 4.073.353 7.429 2.048 10.118 4.726.17-.797.402-1.553.703-2.27-2.73-2.79-6.434-4.47-11.286-4.607zm20.835-36.855-.015.007a9.5 9.5 0 0 0 1.47 2.034l1.17 1.175c.19.191.35.356.429.448.493.567.784 1.11.901 1.776.517 2.93-2.764 5.472-5.755 4.695-.349-.091-.7-.245-1.05-.452-.55-.24-1.24-.59-2.07-1.078l-.316-.189c-2.343-1.42-5.099-3.548-8.274-6.52l-.23-.218-.063.349c-.727 4.388.567 8.61 3.105 12.42.525.787 1.062 1.49 1.582 2.096.193.226.357.407.483.541l.185.191c.386.378-.018 1.015-.524.826l-.241-.093-.887-.358c-.507-.21-1.064-.45-1.663-.717l-.808-.366a77.621 77.621 0 0 1-4.145-2.061l-.837-.456.018.126c.465 2.84 2.04 5.63 4.354 8.252a27.497 27.497 0 0 0 2.842 2.783l.368.302.281.22a.5.5 0 0 1-.596.803l-.311-.243a23.46 23.46 0 0 1-.809-.682 28.49 28.49 0 0 1-2.525-2.521 26.14 26.14 0 0 1-1.368-1.682 11.037 11.037 0 0 0-.593 2.395c.224.37.595.76.845 1.022.637.672 1.41 1.322 2.316 1.896 2.361 1.493 5.199 2.212 8.543 1.823.705-.082.944.913.278 1.159-3.596 1.33-6.88 1.438-9.724.725a12.264 12.264 0 0 1-1.642-.526c.076.211.156.422.242.63 1.006.73 2.83 1.608 3.615 1.887 2.39.848 5.127 1.22 8.195.925.665-.064.92.844.32 1.137-2.922 1.42-5.667 1.83-8.052 1.576l.012.001c3.452 2.991 8.56 5.117 14.987 5.906 13.384 1.643 22.622-3.722 23.725-12.703a11.141 11.141 0 0 0-.08-3.242l-.095.135c-1.34 1.813-3.938 2.911-5.913 2.376a.5.5 0 0 1-.221-.838c.948-.937 1.708-2.09 2.296-3.391a15.04 15.04 0 0 0 1.076-3.45l.017-.098.029-.19a.5.5 0 0 1 .725-.383c.437.225.822.468 1.156.726.047-.272.087-.546.121-.822 1.285-10.465-5.978-19.373-17.596-20.8-3.337-.41-6.475-.133-9.283.716zm23.7 33.77a.5.5 0 0 1-.557.83c-.975-.653-1.88-.285-2.767.825a6.595 6.595 0 0 0-.74 1.166.5.5 0 1 1-.906-.422l.068-.137a7.582 7.582 0 0 1 .797-1.23c1.17-1.466 2.594-2.045 4.105-1.032zm-15.87-10.65.29.263c.245.215.532.455.857.712.932.738 1.986 1.47 3.14 2.144 1.9 1.11 3.879 1.948 5.89 2.417a.5.5 0 0 1 .28.796c-2.158 2.747-6.951 3.101-10.297 1.272-2.82-1.542-2.88-3.997-.943-7.486a.5.5 0 0 1 .783-.118zm-.204 1.157-.085.169c-1.302 2.64-1.1 4.292.928 5.4l.243.127c2.615 1.308 6.128 1.17 8.118-.459l.117-.101-.221-.061c-1.75-.515-3.462-1.285-5.113-2.25a28.035 28.035 0 0 1-3.735-2.611zm18.115-2.866-.055.257-.055.236a16.03 16.03 0 0 1-.965 2.81 12.968 12.968 0 0 1-1.624 2.704l-.203.245.139-.004c1.306-.08 2.77-.827 3.666-1.915l.144-.184c1.075-1.455.832-2.947-1.035-4.142zm5.889-4.706-.226.14a33.182 33.182 0 0 1-3.402 1.824 20.19 20.19 0 0 1-.13 1.537 16.18 16.18 0 0 1-.248 1.534c.33.407.558.835.684 1.277 1.754-2.06 2.948-4.203 3.299-6.17zm-44.144-3.309-.037.174a19.659 19.659 0 0 0-.271 1.64l-.014.13c.498.235.992.462 1.48.68l.436.193.383.166-.165-.212a24.586 24.586 0 0 1-1.813-2.771zm42.586-6.595-.213.166a57.944 57.944 0 0 1-3.653 2.603 18.438 18.438 0 0 1 1.52 4.725c1.624-2.322 2.487-4.782 2.356-7.338zM40.31 8.05c-2.562.452-3.186 5.315-1.407 10.023 1.016 2.688 3.34 5.921 5.255 6.419 2.327.605 4.9-1.39 4.518-3.554-.082-.469-.289-.853-.67-1.293-.225-.259-1.31-1.312-1.577-1.597a10.508 10.508 0 0 1-1.941-2.893 19.513 19.513 0 0 1-.505-1.216l-.198-.537-.51-1.48C42.2 8.762 41.564 7.83 40.311 8.052zm28.18 3.538-.839 2.63c-.108.332-.205.62-.274.808-.229.628-.468 1.195-.735 1.728a15.7 15.7 0 0 1-.595 1.08 19.19 19.19 0 0 1 4.674 4.938 15.848 15.848 0 0 0 1.618-3.33c1.614-4.767.82-9.605-1.756-9.967-.97-.136-1.504.433-2.093 2.113zm-30.079 7.886-.01.01c-.325.303-.639.62-.94.947a40.38 40.38 0 0 0 2.635 1.892 17.048 17.048 0 0 1-1.685-2.849z"/><g fill="#754038" fill-rule="nonzero"><path d="M48.313 50.452c.294.173.584.398.864.656.221.203.39.383.487.497a.25.25 0 0 1-.38.324l-.135-.148a6.509 6.509 0 0 0-.31-.305 4.731 4.731 0 0 0-.78-.594c-.4-.236-.754-.328-1.036-.255-.313.082-.624.306-.919.643a4.65 4.65 0 0 0-.631.943l-.082.17a.252.252 0 0 1-.332.137.25.25 0 0 1-.147-.274l.017-.055.006-.013c.165-.367.433-.827.793-1.237.355-.406.744-.687 1.169-.798.435-.113.912.011 1.416.309zm-5.893-3.494.025.011c.393.175.871.443 1.301.79.47.378.791.787.907 1.231.094.363.083.765-.013 1.195-.107.48-.304.945-.528 1.344l-.083.141a.25.25 0 0 1-.423-.267l.07-.119c.201-.36.381-.782.476-1.208.08-.358.09-.683.017-.96-.084-.321-.343-.65-.737-.968a5.528 5.528 0 0 0-1.005-.635l-.203-.095a.25.25 0 0 1 .196-.46zm6.801-1.713.052.025a.25.25 0 0 1 .08.344l-.125.213a7.336 7.336 0 0 0-.568 1.26c-.168.51-.221.942-.14 1.255.071.273.201.536.38.787.168.235.368.447.582.631l.14.115c.062.049.112.084.146.106a.25.25 0 0 1-.271.42l-.11-.077a4.074 4.074 0 0 1-.894-.906 2.901 2.901 0 0 1-.457-.95c-.11-.425-.046-.945.149-1.537.152-.463.37-.927.607-1.348l.112-.194.025-.04a.25.25 0 0 1 .238-.116zm-1.375-.219-.032.18a8.19 8.19 0 0 1-.087.386 6.655 6.655 0 0 1-.365 1.089c-.3.672-.678 1.12-1.173 1.25-.407.106-.847.022-1.304-.206a4.49 4.49 0 0 1-.93-.639 4.954 4.954 0 0 1-.415-.4.25.25 0 0 1 .372-.335l.111.116c.069.069.157.152.26.242.267.232.547.43.825.568.358.179.682.24.955.17.31-.081.599-.424.842-.97.136-.304.247-.648.337-1.006l.059-.254c.024-.113.04-.205.05-.268a.25.25 0 1 1 .495.077zM63.321 28.443c.294.173.584.399.864.656.22.204.39.383.487.497a.25.25 0 1 1-.381.324l-.135-.148a6.509 6.509 0 0 0-.31-.305 4.731 4.731 0 0 0-.78-.593c-.4-.237-.754-.329-1.035-.255-.314.081-.624.306-.92.642a4.65 4.65 0 0 0-.63.944l-.082.17a.252.252 0 0 1-.333.136.25.25 0 0 1-.146-.274l.017-.055.006-.013c.165-.367.432-.826.792-1.237.356-.406.744-.687 1.17-.798.435-.113.912.011 1.416.309zm-4.567-2.693c.47.378.791.787.907 1.232.094.362.083.765-.013 1.194-.107.481-.305.945-.528 1.344l-.083.141a.25.25 0 1 1-.423-.267l.07-.118c.201-.36.38-.783.476-1.209.08-.358.089-.682.017-.96-.084-.32-.343-.65-.737-.968a5.528 5.528 0 0 0-1.006-.635l-.203-.095a.25.25 0 0 1 .141-.476l.08.027c.394.175.872.443 1.302.79zm5.475-2.514.052.025a.25.25 0 0 1 .079.345l-.125.212a7.336 7.336 0 0 0-.568 1.261c-.167.508-.22.941-.14 1.255.072.272.202.535.38.786.168.235.369.447.583.631l.14.115c.062.049.112.085.146.106a.25.25 0 1 1-.272.42l-.11-.076a4.074 4.074 0 0 1-.894-.906 2.901 2.901 0 0 1-.456-.95c-.111-.426-.047-.946.148-1.537.153-.464.37-.928.607-1.35l.081-.14.056-.093a.25.25 0 0 1 .238-.116zm-1.375-.219-.033.18a8.19 8.19 0 0 1-.086.386 6.655 6.655 0 0 1-.365 1.09c-.3.671-.678 1.12-1.173 1.249-.408.106-.848.022-1.305-.205a4.49 4.49 0 0 1-.93-.64 4.954 4.954 0 0 1-.414-.4.25.25 0 0 1 .372-.334l.11.115c.07.069.157.152.261.242.267.232.547.43.824.569.359.178.682.24.956.169.31-.08.599-.423.842-.97.135-.303.247-.648.336-1.006l.06-.254c.024-.113.04-.205.05-.268a.25.25 0 1 1 .495.077z"/></g><path fill="#fff" d="M51.107 90.734c4.039-2.74 5.263-9.132 5.263-13.855 0-4.51-.694-12.099 3.07-13.565 4.833-1.884 7.974 5.742 7 13-.976 7.257-6.54 12.16-15.333 14.42z"/></g></svg>