<svg data-id="155-8eb6ee85a95bd15-smile" xmlns="http://www.w3.org/2000/svg" viewBox="0 0 100 100"><g fill="none" fill-rule="evenodd"><path fill="#fff0d6" d="M33.673 64.46s-7.348-12.855-21.857-6.89c4.467 1.285 2.314 6.61 2.314 6.61s7.284-5.43 7.284 1.565c3.698-4.837 12.259-1.286 12.259-1.286zM62.19 67.279s9.265-11.554 22.67-3.397c-4.614.573-3.318 6.17-3.318 6.17s-6.35-6.5-7.441.41c-2.9-5.356-11.91-3.183-11.91-3.183z"/><path fill="#ffaf54" d="M40.678 93.612c-15.216 0-20.726-8.246-21.715-19.715-.068-.784 1.334-1.75 2.236-.144 2.43 4.325 5.893 8.114 10.503 8.114-3.411-6.327-3.575-18.026 7.502-28.23 0 0 16.726-1.081 20.06 1.948 5.012 7.468 9.636 14.817 6.369 25.162-3.267 10.344-11.994 12.865-24.955 12.865z"/><path fill="#ffaf54" d="M55.5 86.71c-6.07 5.298-3.258 8.346-.63 7.28 3.132-1.27 7.397-6.326 9.51-10.185-.43-2.72-8.88 2.905-8.88 2.905z"/><g fill="#ffaf54"><path d="M69.095 50.172c.15.943 10.643-2.133 12.747-8.545-5.852.575-11.246.046-11.246.046s10.848-3.46 12.546-13.08c-10.935 3.951-15 3.054-15 3.054zM29.063 42.087c-.465.834-9.442-4.666-9.222-11.41 5.3 2.544 10.724 2.91 10.724 2.91s-9.18-5.981-7.48-15.6c8.92 7.458 13.22 7.023 13.22 7.023z"/><path d="M53.724 18.208c12.138 2.144 18.713 11.946 16.887 22.282-.129.73-.3 1.44-.513 2.133.989 2.273 1.34 4.68.917 7.08-1.538 8.704-10.736 14.355-24.947 11.845S25.152 50.577 26.69 41.873c.424-2.4 1.58-4.54 3.288-6.338.037-.722.12-1.45.248-2.179 1.826-10.336 11.361-17.292 23.498-15.148z"/></g><path fill="#fff0d6" d="M72.343 24.855c1.798-4.522 1.595-10.105-1.603-10.726-2.721-.529-3.202 3.878-4.848 7.31-1.646 3.431-3.937 3.807-4.33 5.832-.506 2.602 2.463 4.843 5.067 4.214 2.603-.629 5.037-4.928 5.714-6.63zM35.118 18.266c-.14-4.864 1.962-10.04 5.18-9.528 2.737.436 1.363 4.455 2.05 8.528.689 4.074 2.394 4.927 2.07 6.963-.417 2.618-3.974 3.706-6.204 2.224-2.23-1.483-3.043-6.356-3.096-8.187z"/><path fill="#ffaf54" d="M37.27 58.841c-3.699-1.71-11.796-9.134-13.726-3.77-1.93 5.364 11.537 9.167 11.537 9.167s2.905-6.007 2.188-5.397zM60.38 61.036c3.698-1.71 11.796-9.134 13.725-3.77s-11.537 9.167-11.537 9.167-2.905-6.008-2.188-5.397z"/><g fill="#c7e9ff" transform="translate(0 4)"><path d="M7.968 38.446c.04-.078.083-.156.127-.233.961-1.665 2.558-2.542 3.566-1.96 1.008.582 1.046 2.403.085 4.067a5.817 5.817 0 0 1-.139.228c.088.015.176.032.264.05 1.895.409 3.239 1.655 3.002 2.785-.237 1.13-1.965 1.714-3.86 1.306a5.969 5.969 0 0 1-.261-.062c.014.087.025.175.035.265.21 1.916-.555 3.564-1.71 3.68-1.154.117-2.26-1.343-2.47-3.26a5.87 5.87 0 0 1-.023-.266c-.08.04-.16.077-.243.113-1.764.777-3.582.549-4.058-.51-.477-1.057.568-2.544 2.333-3.32.082-.037.164-.07.247-.102a5.969 5.969 0 0 1-.185-.196c-1.3-1.436-1.658-3.225-.798-3.995.86-.77 2.61-.23 3.912 1.207.06.067.119.135.176.203zM88.072 15.213c.05-.097.103-.194.16-.291 1.196-2.073 3.175-3.172 4.418-2.453 1.244.718 1.282 2.98.085 5.054a7.314 7.314 0 0 1-.172.283c.108.018.217.039.326.062 2.342.498 3.998 2.04 3.699 3.445-.299 1.405-2.439 2.14-4.78 1.642a7.313 7.313 0 0 1-.323-.076c.016.108.03.218.042.33.25 2.38-.705 4.432-2.134 4.582-1.428.15-2.789-1.658-3.039-4.04a7.314 7.314 0 0 1-.027-.33c-.098.05-.198.096-.3.142-2.187.973-4.433.7-5.018-.613s.716-3.165 2.902-4.139c.102-.045.204-.088.307-.128a7.314 7.314 0 0 1-.228-.241c-1.602-1.78-2.035-4-.968-4.962s3.231-.298 4.833 1.481c.075.083.147.167.217.252zM82.997 80.874c.038-.072.077-.145.119-.217.894-1.549 2.373-2.37 3.302-1.833.93.536.958 2.227.064 3.776a5.465 5.465 0 0 1-.13.212c.082.013.163.029.244.046 1.75.372 2.987 1.524 2.764 2.574s-1.822 1.6-3.572 1.227a5.465 5.465 0 0 1-.241-.057c.012.081.023.163.032.246.186 1.78-.527 3.312-1.594 3.424-1.068.112-2.084-1.239-2.271-3.018a5.465 5.465 0 0 1-.02-.247 5.465 5.465 0 0 1-.225.106c-1.634.728-3.312.523-3.749-.458-.436-.98.534-2.365 2.168-3.092.077-.034.153-.066.23-.096a5.464 5.464 0 0 1-.17-.18c-1.198-1.33-1.521-2.989-.724-3.707.798-.718 2.414-.223 3.611 1.106.056.062.11.125.162.188z"/><circle cx="15.193" cy="76.334" r="2"/><circle cx="67.25" cy="2.25" r="2.25"/><circle cx="88.193" cy="69.5" r="2.5"/><circle cx="12.693" cy="15" r="2"/><circle cx="17.193" cy="23" r="2.5"/><circle cx="5.943" cy="71.25" r="1.25"/><circle cx="9.071" cy="84.579" r="2.878"/></g><path fill="#872e00" fill-rule="nonzero" d="M34.546 18.435c-.166-5.572 2.311-10.581 5.749-10.037 1.842.292 2.237 1.511 2.245 4.707.034 1.912.076 3.084.125 3.514.042.36.166 1.006.306 1.62 3.273-1.006 6.959-1.244 10.852-.557 4.297.757 7.972 2.487 10.835 4.894.25-.374.48-.778.697-1.228.331-.69.741-1.73 1.229-3.117 1.308-3.637 2.17-4.85 4.164-4.463 3.416.664 4.03 6.219 1.97 11.397a16.723 16.723 0 0 1-2.752 4.548c.216.51.41 1.033.58 1.565 2.89-.061 7.118-1.141 12.335-2.962.36-.125.738.14.69.522C83.086 32.8 80 38.031 72.66 41.461c4.095.128 6.387.162 9.02-.214a.525.525 0 0 1 .588.627c-.697 3.183-5.032 7.052-10.93 8.765a13.973 13.973 0 0 1-2.042 4.653c2.482-.91 4.237-.568 5.111 1.296.588 1.254.556 2.584-.328 3.935 3.466-.258 7.15.641 10.99 2.981a.5.5 0 0 1-.198.923c-1.568.194-2.446 1.015-2.832 2.336s-.176 2.729-.062 3.222c.114.492-.492.823-.845.461a15.52 15.52 0 0 0-1.378-1.194c-.606-.46-1.207-.833-1.776-1.085-1.864-.824-3.008-.271-3.434 2.415a.5.5 0 0 1-.933.16c-.877-1.623-2.466-2.536-4.503-3.07-.905-.236-1.932-.31-2.913-.3 1.37 4.362 1.409 8.709-.087 13.445-.351 1.11-.76 2.14-1.232 3.091a.44.44 0 0 1-.04.096l-.108.195a16.658 16.658 0 0 1-1.416 2.277c-2.446 3.577-5.776 6.943-8.232 7.94-1.5.61-3.047.07-3.531-1.283-3.09.62-6.695.899-10.873.899-14.23 0-21.08-7.036-22.214-20.172-.055-.645.442-1.287 1.107-1.49.767-.233 1.548.14 2.064 1.058l.171.3c2.462 4.243 4.868 6.84 9.057 7.588-1.426-2.74-2.292-7.999-1.426-12.268a25.75 25.75 0 0 1 1.517-4.88c-1.288-.31-2.864-.565-4.234-.43-2.096.208-3.807.862-4.927 2.327a.5.5 0 0 1-.897-.304c0-2.719-1.044-3.444-3.014-2.922-.602.16-1.254.435-1.923.794a15.52 15.52 0 0 0-1.549.964c-.405.302-.952-.12-.762-.588s.617-1.828.443-3.192c-.175-1.365-.914-2.313-2.432-2.75a.5.5 0 0 1-.052-.943c4.132-1.699 7.888-2.018 11.254-1.24a3.68 3.68 0 0 1 .173-.923c.591-1.843 1.941-2.55 3.815-2.296.707.095 1.648.466 2.66.965-2.853-3.4-4.053-7.508-3.283-11.875.018-.104.038-.208.06-.311a19.302 19.302 0 0 1-2.394-1.907c-2.86-2.654-4.62-5.774-4.518-8.928a.5.5 0 0 1 .716-.435c2.414 1.158 4.772 1.878 8.763 2.64-6.138-5.354-6.926-11.038-6.233-14.969a.5.5 0 0 1 .813-.297c4.404 3.679 7.928 5.686 10.592 6.5.392-.462.806-.9 1.24-1.319a16.875 16.875 0 0 1-.717-4.294zM23.985 55.266c-.645 2.01 1.334 4.146 4.965 5.98 2.57 1.3 5.504 2.301 6.255 2.46.268.057.433.337.367.605s-.338.419-.605.366c-.43-.084-1.475-.424-2.743-.912a25.506 25.506 0 0 0-.682 1.618c1.081 2.164 2.933 2.86 4.01 3.1.615.138.63 1.01.018 1.167-2.108.54-4 .69-5.185-.246l.03-.157c-.06.3-.112.605-.154.914.733 2.026 3.39 2.386 4.636 2.483.637.05.765.929.168 1.158-1.74.67-3.528.945-4.889.547.02.24.043.48.07.72 1.213 1.177 3.903 1.338 5.173 1.244.634-.047.892.78.346 1.117-1.598.988-3.427 1.65-4.636 1.875.303.94.652 1.743 1.016 2.334a.683.683 0 0 1 .071.152l2.034 3.36c2.286 3.513 4.288 5.342 6.065 5.078 1.402-.208 1.977-1.09 1.713-2.388-.283-1.395-1.486-2.924-3.198-3.918a.5.5 0 0 1 .501-.865c1.948 1.13 3.334 2.892 3.677 4.584.375 1.846-.561 3.282-2.546 3.576-2.333.346-4.55-1.68-7.05-5.522-.254-.39-.93-1.505-2.032-3.346-4.594-.23-7.8-3.417-10.619-8.432-.297-.53-.61-.68-.9-.591-.238.072-.415.302-.402.447 1.09 12.641 7.533 19.258 21.217 19.258l.98-.005c3.73-.04 6.958-.317 9.739-.88.025-1.626 1.287-3.66 3.794-5.85a.5.5 0 0 1 .658.752c-2.613 2.283-3.685 4.265-3.413 5.548.197.929 1.19 1.331 2.27.893 2.697-1.096 6.764-5.554 9.09-9.67.259-.49.499-1.004.72-1.54a10.29 10.29 0 0 1-4.571-1.653c-.53-.353-.227-1.178.404-1.097 1.332.169 4.135-.112 5.416-1.313.04-.194.079-.387.114-.58-1.377.077-3.059-.16-4.818-.945-.584-.26-.406-1.22.229-1.148 1.21.139 3.945-.743 4.929-2.254-.007-.225-.018-.449-.032-.673-1.12.42-2.737.354-4.771-.282-.602-.189-.543-1.06.079-1.165 1.062-.179 2.84-.8 4.006-2.62a23.33 23.33 0 0 0-.422-1.383l-.325-.912-.026-.066a76.302 76.302 0 0 1-2.004.677.5.5 0 1 1-.289-.957c.264-.08 3.48-1.109 4.797-1.76 1.317-.651 2.357-1.161 3.274-1.73 2.6-1.61 3.957-3.497 2.994-5.413-.907-1.807-3.115-1.566-7.1.876-.79.483-4.01 2.674-5.264 3.283l.032.077c-4.148 1.452-9.32 1.785-15.157.756-5.712-1.007-10.379-3.023-13.764-5.717-1.949-1.19-4.241-2.447-5.541-2.627-1.418-.195-2.286.262-2.72 1.612zm59.501 8.48c-3.187-1.756-6.793-2.545-10.39-2.05-.572.559-1.299 1.118-2.197 1.674-.958.594-1.894 1.05-3.26 1.691-.487.23-1.218.514-1.97.79.06.16.12.323.178.486 2.525-.134 5.336.244 7.975 2.926 1.006-3.661 4.154-2.751 7.011-.43-.132-1.6.26-4.364 2.653-5.087zm-70.371-6.155c2.25 1.089 2.205 3.88 1.825 5.44 3.185-1.846 6.437-2.253 6.857 1.521 3.041-2.247 5.89-2.17 8.37-1.634a38.54 38.54 0 0 1-1.652-.77c-3.007-1.495-5.042-3.255-5.542-5.156-3.26-.817-6.673-.55-9.858.6zM53.65 18.667c-3.753-.662-7.296-.43-10.432.54.03.104.058.194.085.271.163.477.603 1.493 1.322 3.048.245.663.322 1.254.216 1.926-.466 2.938-4.395 4.275-6.97 2.566-.927-.615-1.686-1.815-2.245-3.24-2.486 2.52-4.21 5.806-4.885 9.634a17.266 17.266 0 0 0-.24 2.118.5.5 0 0 1-.137.319c-1.038 1.093-1.847 2.297-2.407 3.59.157.955.6 1.924.827 2.27.487.74 1.235 1.405 2.302 1.952.553.284.362 1.12-.26 1.134-1.593.037-2.802-.33-3.661-.949a8.039 8.039 0 0 1-.156-.114c-.016.385-.016.767 0 1.145.32.653.739 1.284 1.078 1.73.563.743 1.355 1.407 2.419 1.952.553.284.362 1.12-.26 1.134-.874.02-1.598-.069-2.183-.248.997 2.302 2.675 4.4 4.966 6.187 1.587.985 2.858 1.857 3.084 1.953.09.037.163.098.215.173 2.748 1.466 6.055 2.585 9.855 3.255 5.41.954 10.194.71 14.07-.516 1.07-.46 4.761-2.934 5.642-3.48.48-.296.943-.565 1.39-.804l.113-.125c-.628-.011-1.365-.162-2.219-.479-.583-.216-.492-1.068.124-1.156 1.183-.17 2.148-.539 2.922-1.058a9.2 9.2 0 0 0 1.716-1.562c.067-.187.13-.377.19-.568l-.027.006c-1.023.269-2.284.18-3.757-.426-.576-.237-.455-1.085.163-1.152 1.193-.129 2.129-.48 2.849-.998a3.92 3.92 0 0 0 1.064-1.127c.102-.166.19-.351.268-.536-.077-1.426-.427-2.854-1.036-4.255a.5.5 0 0 1-.02-.346c.208-.677.374-1.368.498-2.073.615-3.484.259-6.843-.921-9.846-.828.796-1.704 1.377-2.554 1.582-3.005.725-6.24-1.875-5.672-4.795.129-.664.43-1.202.932-1.76.264-.293 1.385-1.343 1.627-1.595.18-.186.35-.375.512-.568-2.738-2.315-6.267-3.98-10.407-4.71zM40.776 47.574c.07-.4.51-.615.869-.427s1.685.778 2.142.96c1.627.654 3.284 1.166 4.866 1.445s3.313.364 5.066.307c.615-.02 1.939-.117 2.341-.17s.74.299.67.699c-.208 1.182-1.067 2.79-1.646 3.518-1.665 2.1-4.187 3.1-7.639 2.492-3.451-.609-5.48-2.411-6.326-4.954-.502-1.51-.413-3.47-.343-3.87zm40.252-5.231c-3.514.43-8.19.346-10.358.094l-.028.11c1.028 2.307 1.322 4.706.883 7.196l.034-.221c2.41-.776 7.495-2.916 9.469-7.18zM62.434 45.22l.149.008a2 2 0 1 1-.349 3.984 2 2 0 0 1 .349-3.984zm-24.696-4.295.15.007a2 2 0 1 1-.35 3.985 2 2 0 0 1 .35-3.985zm44.67-11.432c-4.967 1.764-8.958 2.71-11.57 2.809.667 2.586.785 5.369.28 8.23-.026.151-.06.318-.1.501 2.996-1.428 9.826-5.304 11.39-11.54zm-62.017 1.92c.166 2.433 1.788 5.171 4.18 7.391.645.6 1.327 1.147 1.981 1.603.606-1.975 1.728-3.838 2.962-5.113.02-.417.063-.862.128-1.335-1.975-.246-6.008-1.103-9.251-2.546zm3.09-12.53c-.35 5.144 1.8 9.64 6.448 13.485.621-2.817 1.794-5.335 3.407-7.468-2.41-.768-5.295-2.386-9.856-6.017zm44.146-.593c-.55 1.567-1.006 2.73-1.37 3.49a10.508 10.508 0 0 1-1.992 2.858c-.952.916-1.486 1.44-1.604 1.57-.39.433-.603.814-.694 1.281-.419 2.157 2.119 4.196 4.456 3.632 1.923-.464 4.303-3.656 5.366-6.326 1.86-4.677 1.322-9.55-1.232-10.046-1.21-.235-1.861.622-2.93 3.54zM40.138 9.386c-2.569-.407-4.742 3.988-4.593 9.019.085 2.872 1.23 6.686 2.878 7.78 2.004 1.33 5.086.281 5.43-1.89.078-.49.023-.911-.166-1.422-.055-.149-1.021-2.166-1.33-3.072-.242-.707-.628-2.097-.685-3.068-.039-.648-.083-1.856-.132-3.625-.007-2.715-.275-3.544-1.402-3.722z"/><path fill="#fff" d="M41.895 48.6c.726.319 1.208.526 1.445.621 1.698.682 3.432 1.217 5.104 1.512 1.673.295 3.484.385 5.314.325.255-.008.778-.038 1.569-.09a6.76 6.76 0 0 1-1.044 2.012c-1.138.327-3.082.529-6.211-.023-3.186-.562-4.95-1.442-5.894-2.149l.08.257c-.244-.733-.365-1.555-.363-2.466zM41.4 92.97c7.89-2.643-.261-14.32-.858-18.615-.913-6.573.78-10.984 5.733-12.293 1.087.207 5.217.703 7.448.529 4.376 2.408 4.595 8.856 4.17 12.013-.974 7.258-6.476 18.365-16.493 18.365z"/><g fill="#8fb5ce" fill-rule="nonzero"><path d="M11.778 39.75c-1.16-.55-2.704.207-3.764 1.67l-.135.194-.027-.026c-1.428-1.374-3.267-1.855-4.306-.925l-.107.104c-.88.928-.621 2.63.457 4.096l.143.188-.024.013c-1.746.918-2.764 2.512-2.188 3.791l.07.138c.617 1.112 2.304 1.407 4.02.86l.25-.086.006.039c.351 1.94 1.563 3.404 2.954 3.264l.153-.022c1.254-.233 2.046-1.742 2.042-3.542l-.007-.254.017.003c1.967.287 3.743-.398 4.03-1.77l.025-.151c.162-1.312-1.146-2.586-2.979-3.115l-.036-.01.008-.016c.868-1.772.748-3.67-.47-4.373zm-.367.936c.71.41.742 1.928-.098 3.384-.041.07-.083.14-.127.208a.5.5 0 0 0 .338.763l.242.046c1.66.358 2.784 1.4 2.618 2.193-.166.79-1.606 1.278-3.265.92a5.469 5.469 0 0 1-.24-.057.5.5 0 0 0-.621.56l.032.243c.184 1.677-.453 3.048-1.263 3.129-.815.082-1.74-1.138-1.923-2.817l-.021-.244a.5.5 0 0 0-.721-.416 5.37 5.37 0 0 1-.222.104c-1.546.68-3.065.49-3.401-.258-.335-.742.534-1.979 2.078-2.658.075-.033.15-.064.226-.093a.5.5 0 0 0 .175-.818 5.469 5.469 0 0 1-.17-.18c-1.139-1.257-1.436-2.748-.835-3.287.604-.54 2.068-.089 3.208 1.17l.161.187a.5.5 0 0 0 .83-.089l.116-.213c.841-1.456 2.171-2.188 2.883-1.777zM92.758 15.96c-1.439-.692-3.417.353-4.71 2.309l-.065.1-.094-.095c-1.727-1.691-3.96-2.282-5.201-1.165l-.115.112c-1.104 1.154-.721 3.359.739 5.194l.076.091-.12.061c-2.142 1.12-3.394 3.062-2.715 4.586l.073.149c.758 1.4 2.962 1.717 5.152.902l.125-.049.02.133c.403 2.383 1.863 4.174 3.523 4l.164-.024c1.565-.288 2.548-2.287 2.45-4.62l-.008-.136.118.02c2.397.36 4.56-.475 4.907-2.111l.028-.163c.21-1.578-1.387-3.13-3.637-3.759l-.13-.034.055-.106c1.082-2.168.956-4.483-.493-5.32zm-.358.942c.946.546.98 2.506-.098 4.37-.051.09-.105.178-.16.265a.5.5 0 0 0 .34.762c.1.017.202.036.303.058 2.107.448 3.541 1.784 3.314 2.852-.227 1.068-2.08 1.705-4.187 1.257a6.814 6.814 0 0 1-.301-.07.5.5 0 0 0-.62.558l.039.306c.225 2.142-.603 3.92-1.689 4.033-1.086.115-2.265-1.452-2.49-3.593a6.814 6.814 0 0 1-.025-.309.5.5 0 0 0-.723-.417c-.092.046-.185.09-.28.132-1.967.876-3.913.638-4.357-.36-.444-.997.681-2.602 2.649-3.478l.285-.12a.5.5 0 0 0 .174-.816 6.814 6.814 0 0 1-.212-.225c-1.442-1.6-1.817-3.524-1.005-4.255.812-.73 2.686-.156 4.127 1.444.069.077.136.155.201.234a.5.5 0 0 0 .83-.087c.048-.09.097-.181.15-.271 1.076-1.865 2.79-2.816 3.735-2.27zM86.54 82.325c-1.087-.513-2.526.198-3.52 1.564l-.11.157c-1.328-1.276-3.041-1.717-4.02-.837l-.103.102c-.823.876-.592 2.464.4 3.83l.116.154c-1.625.869-2.574 2.362-2.039 3.565l.067.134c.603 1.09 2.28 1.338 3.946.736.325 1.814 1.452 3.178 2.76 3.04l.15-.022c1.221-.236 1.976-1.754 1.919-3.527l.19.025c1.747.183 3.29-.466 3.554-1.709l.025-.148c.153-1.235-1.058-2.423-2.76-2.916l.082-.173c.713-1.605.573-3.273-.528-3.908zm-.37.933c.63.364.654 1.752-.12 3.093-.038.065-.077.13-.117.193a.5.5 0 0 0 .34.762c.073.012.147.026.22.042 1.515.322 2.53 1.268 2.38 1.981s-1.465 1.164-2.98.842a4.965 4.965 0 0 1-.219-.052.5.5 0 0 0-.62.56l.028.223c.162 1.54-.424 2.798-1.149 2.874s-1.56-1.033-1.721-2.573l-.019-.224a.5.5 0 0 0-.723-.418l-.203.097c-1.415.63-2.793.461-3.09-.205-.296-.666.501-1.802 1.916-2.432l.208-.087a.5.5 0 0 0 .173-.817 4.965 4.965 0 0 1-.154-.164c-1.036-1.15-1.302-2.513-.76-3s1.869-.082 2.905 1.069c.05.056.1.113.147.17a.5.5 0 0 0 .83-.086c.034-.067.07-.133.108-.198.774-1.341 1.988-2.015 2.62-1.65zM15.193 77.834a2.5 2.5 0 1 0 0 5 2.5 2.5 0 0 0 0-5zm0 1a1.5 1.5 0 1 1 0 3 1.5 1.5 0 0 1 0-3zM67.25 3.5a2.75 2.75 0 1 0 0 5.5 2.75 2.75 0 0 0 0-5.5zm0 1a1.75 1.75 0 1 1 0 3.5 1.75 1.75 0 0 1 0-3.5zM88.193 70.5a3 3 0 1 0 0 6 3 3 0 0 0 0-6zm0 1a2 2 0 1 1 0 4 2 2 0 0 1 0-4zM12.693 16.5a2.5 2.5 0 1 0 0 5 2.5 2.5 0 0 0 0-5zm0 1a1.5 1.5 0 1 1 0 3 1.5 1.5 0 0 1 0-3zM17.193 24a3 3 0 1 0 0 6 3 3 0 0 0 0-6zm0 1a2 2 0 1 1 0 4 2 2 0 0 1 0-4zM5.943 73.5a1.75 1.75 0 1 0 0 3.5 1.75 1.75 0 0 0 0-3.5zm0 1a.75.75 0 1 1 0 1.5.75.75 0 0 1 0-1.5zM9.07 85.2a3.378 3.378 0 1 0 0 6.757 3.378 3.378 0 0 0 0-6.756zm0 1a2.378 2.378 0 1 1 0 4.757 2.378 2.378 0 0 1 0-4.756z"/></g></g></svg>