<svg data-id="156-1c79a0a0a498ce6-happy" xmlns="http://www.w3.org/2000/svg" viewBox="0 0 100 100"><g fill="none" fill-rule="evenodd"><path fill="#ffaf54" d="M38.175 87.02c-15.187 9.288 4.577 7.054 8.833 1.212.805-2.633-8.833-1.211-8.833-1.211z"/><path fill="#fff0d6" d="M58.153 59.822s5.543-10.718 19.95-4.505c-4.488 1.208-2.426 6.57-2.426 6.57s-7.192-5.553-7.31 1.44c-3.616-4.898-10.214-3.505-10.214-3.505z"/><path fill="#ffaf54" d="M58.048 91.083c11.343 0 22.864-.723 28.148-5.564 1.007-.923.289-2.89-1.943-2.28-7.871 2.154-14.165.53-20.165-7.156-5.767-7.387 4.21-24.79-15.073-27.874-6.315-1.01-8.218 1.818-11.552 4.848-5.013 7.467-9.637 14.817-6.37 25.16 3.268 10.345 15.612 12.866 26.955 12.866z"/><path fill="#fff0d6" d="M58.04 62.033s9.7-10.168 21.48.205c-4.644-.241-5.614 4.231-5.614 4.231s-4.812-6.618-7.092-.002c-1.921-5.78-8.774-4.434-8.774-4.434z"/><path fill="#ffaf54" d="M49.082 89.444c-15.187 9.288 4.577 7.053 8.833 1.212.804-2.634-8.833-1.212-8.833-1.212zM38.686 53.247c-5.412-5.805-14.042-7.076-13.87-1.948.155 4.632 11.399 4.734 14.357 8.566-.37 2.487 4.925-.814-.487-6.618zM30.589 37.826c-.503.64-7.705-6.715-7.037-12.557 4.833 4.136 9.055 5.425 9.055 5.425s-8.409-6.948-6.124-15.02c8.057 8.188 12.215 8.62 12.215 8.62z"/><path fill="#fff0d6" d="M30.007 14.518c-.987-4.76.18-10.22 3.434-10.278 2.77-.049 2.118 4.145 3.506 8.033 1.388 3.887 3.215 4.429 3.251 6.489.047 2.648-3.262 4.34-5.715 3.27-2.453-1.07-4.104-5.722-4.476-7.514z"/><path fill="#ffaf54" d="M48.313 11.242c12.321 0 20.5 8.507 20.5 19 0 .74-.046 1.471-.135 2.19 1.37 2.066 2.135 4.374 2.135 6.81 0 8.837-8.074 16-22.5 16-14.427 0-22.5-7.163-22.5-16 0-2.436.765-4.744 2.134-6.811a17.766 17.766 0 0 1-.134-2.189c0-10.493 8.178-19 20.5-19z"/><path fill="#ffaf54" d="M64.168 40.712s8.339-4.743 9.683-11.9c-5.425 2.263-9.83 3.32-9.83 3.32s8.45-6.466 7.258-16.158c-9.296 6.977-13.445 7.31-13.445 7.31z"/><path fill="#fff0d6" d="M64.3 17.354c2.26-4.305 2.64-9.875-.473-10.826-2.65-.809-3.587 3.52-5.58 6.758-1.995 3.239-4.31 3.374-4.912 5.345-.774 2.533 1.943 5.07 4.596 4.716 2.652-.353 5.52-4.372 6.37-5.993z"/><path fill="#ffaf54" d="M39.686 55.247c-5.412-5.805-14.042-7.076-13.87-1.948.155 4.632 11.399 4.734 14.357 8.566-.37 2.487 4.925-.814-.487-6.618z"/><g fill="#ff608b"><path d="M23.936 50.42c2.106-.808 6.147-11.19 2.73-13.53-3.416-2.34-5.652 3.019-6.617 3.389s-6.176-2.134-7.187 1.903c-1.01 4.037 8.968 9.045 11.074 8.237zM15.426 34.49c1.877-.33 6.898-8.297 4.44-10.787-2.46-2.49-5.176 1.596-6.036 1.748s-4.782-2.762-6.27.425c-1.487 3.188 5.99 8.946 7.866 8.615z"/></g><path fill="#fff" d="M47.918 89.66c-4.04-2.741-6.186-9.492-6.186-14.215 0-4.51.694-12.099-3.069-13.565-4.833-1.884-9.097 4.43-7.857 12.542s6.039 13.115 17.112 15.237z"/><g fill-rule="nonzero"><path fill="#872e00" d="m28.58 47.557 1.067 1.09a9.496 9.496 0 0 0-.05-.008c-2.733-.39-4.34.555-4.271 2.614.009.273.054.526.14.765.537-1.913 2.542-2.76 5.272-2.369 3.111.445 6.682 2.394 9.325 5.228a.5.5 0 0 1-.732.682c-2.491-2.672-5.856-4.508-8.734-4.92-2.733-.39-4.34.555-4.271 2.614.059 1.76 1.61 2.71 6.313 4.3l1.028.343c3.99 1.323 5.779 2.166 6.912 3.634a.5.5 0 0 1-.791.612c-.893-1.157-2.423-1.93-5.669-3.039-1.1 1.92-1.858 3.552-2.475 5.313l-.105.306c-1.468 4.341-1.567 8.63-.077 13.35 2.02 6.393 7.695 10.125 16.105 11.671.36-.234.743-.475 1.146-.722a.5.5 0 1 1 .522.854l-.642.399c-3.006 1.9-4.572 3.357-4.756 4.208-.103.48.62.804 2.245.746 3.961-.142 9.494-2.356 11.32-4.863a.5.5 0 0 1 .9.221h.292c14.294-.04 22.797-1.438 27.157-5.432.767-.703.052-1.845-1.474-1.428-7.589 2.076-13.493.584-18.877-5.197-.33.263-.892.539-1.537.841-2.036.956-4.509 1.351-7.378.874-.628-.105-.682-.987-.071-1.168 1.457-.43 2.694-1 3.73-1.671.651-.424 1.86-1.467 2.55-2.39a7.169 7.169 0 0 1-.227-.47c-.426.212-1.22.595-1.577.733-1.87.721-3.782 1.055-5.593.775a7.58 7.58 0 0 1-.734-.15c-.571-.147-.61-.944-.055-1.145a20.274 20.274 0 0 0 3.122-1.437 16.203 16.203 0 0 0 2.792-1.985c.225-.203.692-.583 1.095-.972-.016-.151-.03-.307-.044-.466a9.01 9.01 0 0 1-1.254.622c-1.791.737-3.764.99-5.792.467-.575-.148-.609-.952-.048-1.147a15.477 15.477 0 0 0 3.733-1.896 14.428 14.428 0 0 0 2.257-1.922c.175-.185.534-.651.892-1.152l-.014-.56-.039-1.082a43.52 43.52 0 0 0-.039-.734c-.564-.09-1.149-.125-1.745-.114a10.232 10.232 0 0 0-1.224.095l-.182.03a.5.5 0 0 1-.458-.835c.057-.06.162-.164.313-.304l.194-.175c.202-.18.427-.37.675-.565.627-.496 1.315-.97 2.06-1.403-.335-1.934-.878-3.568-1.703-4.938l.927-.406c.348.596.648 1.236.905 1.923 4.204-3.308 9.923-4.084 17.251-.92a.5.5 0 0 1-.068.942c-1.526.41-2.28 1.345-2.48 2.707a4.878 4.878 0 0 0-.04.388c1.37.74 2.747 1.707 4.125 2.92a.5.5 0 0 1-.356.875c-1.59-.082-2.798.415-3.707 1.345a5.585 5.585 0 0 0-1.364 2.399l-.048.173a.5.5 0 0 1-.869.108 3.097 3.097 0 0 0-.031-.043l-.224-.282a11.27 11.27 0 0 0-.706-.778c-.515-.517-1.046-.945-1.567-1.234-1.584-.88-2.787-.398-3.683 2.205a.5.5 0 0 1-.947-.005c-.463-1.393-1.249-2.405-2.305-3.097a6.462 6.462 0 0 0-1.728-.785c.015.274.028.551.038.834l.07 2.55c.139 5.463.527 7.683 2.082 9.675 5.632 7.214 11.579 9.188 19.64 6.982 2.498-.683 3.985 1.69 2.412 3.13-4.549 4.168-13.012 5.611-27.182 5.692l-1.304.004h-.26c-2.384 2.503-7.646 4.5-11.563 4.64-2.196.078-3.563-.534-3.257-1.955.21-.978 1.371-2.213 3.532-3.736-.326-.07-.649-.14-.967-.216-2.685 1.938-6.925 3.366-10.214 3.483-2.196.079-3.564-.533-3.258-1.955.26-1.207 1.97-2.808 5.225-4.86-3.228-2.086-5.504-4.928-6.67-8.616-1.555-4.926-1.45-9.432.084-13.97.64-1.896 1.42-3.614 2.559-5.623l-1.159-.389c-4.658-1.592-6.385-2.63-6.636-4.707-.695-.67-.997-1.422-1.03-2.396-.082-2.451 1.624-3.761 4.254-3.73zm9.557 40.013.191-.12c-3.425 2.095-5.202 3.699-5.397 4.608-.104.48.618.804 2.244.746 2.823-.101 6.444-1.254 8.953-2.816-2.231-.616-4.235-1.418-5.991-2.418zm39.658-26.022c-5.36-4.122-10.567-4.38-15.386-2.049a16.55 16.55 0 0 0-3.046 1.911l.037-.03.345-.001c1.487.014 2.912.3 4.154.96l.284.158.277.172a6.48 6.48 0 0 1 2.196 2.419l.032.066c1.093-2.154 2.69-2.629 4.476-1.716l.168.09c.614.34 1.215.824 1.79 1.403.095.094.186.188.274.283l.193.213.08-.186a6.495 6.495 0 0 1 1.066-1.659l.206-.222a5.352 5.352 0 0 1 2.996-1.566l.145-.02zm-1.599-6.38c-6.466-2.35-11.422-1.353-15.082 1.777l.155-.13c.18.604.33 1.24.457 1.91l.248-.126c4.003-1.938 8.288-2.196 12.665-.16l.006-.053c.19-1.304.815-2.345 1.93-3.002l.079-.046z"/><path fill="#872e00" d="M33.456 3.676c1.604-.028 2.346.988 2.815 3.14.067.306.388 2.106.59 3.098l.093.437c.142.615.3 1.171.487 1.694.128.358.261.693.402 1.011 3.027-1.528 6.582-2.383 10.492-2.383 3.572 0 6.846.713 9.693 2 .196-.331.392-.694.601-1.102.061-.12.123-.242.187-.372l.85-1.744c1.524-3.052 2.504-4.022 4.342-3.46 3.328 1.017 3.358 6.606.767 11.54l-.04.078c.406.465.788.95 1.144 1.452a71.785 71.785 0 0 0 5.133-3.54.5.5 0 0 1 .796.339c.503 4.1-.577 7.873-2.705 11.225.153 1 .232 2.03.232 3.084l-.002-.207a75.548 75.548 0 0 0 4.356-1.658.5.5 0 0 1 .684.554c-.463 2.461-1.716 4.764-3.538 6.887.333 1.123.5 2.264.5 3.424 0 9.67-9.014 16.5-23 16.5-3.546 0-6.773-.44-9.614-1.252-.275-.358-.631-.817-1.066-1.379 3.051 1.052 6.643 1.63 10.68 1.63 6.475 0 11.804-1.487 15.595-4.035h.011c-2.398-.038-5.073-.78-7.799-2.545-.561-.364-.197-1.234.456-1.09 3.01.668 5.772.632 8.246.08.837-.186 2.438-.671 3.762-1.332.132-.229.256-.46.373-.696-.454.124-1.022.24-1.693.323-2.91.36-6.157-.147-9.563-1.905-.631-.325-.274-1.283.416-1.116 3.273.794 6.177.426 8.702-.769.74-.35 2.509-1.445 3.494-2.468a11.086 11.086 0 0 0-.296-2.49 26.833 26.833 0 0 1-1.563 1.5 28.49 28.49 0 0 1-2.813 2.196l-.465.31-.216.14-.5.306-.043.025a.5.5 0 1 1-.494-.87l.306-.183a27.497 27.497 0 0 0 3.562-2.671c2.615-2.32 4.519-4.9 5.326-7.66l.033-.123-.885.35a77.621 77.621 0 0 1-4.366 1.54l-.846.266-.906.271c-.29.085-.568.164-.832.238l-.811.218c-.16.042-.282.072-.364.091-.525.126-.849-.555-.42-.883l.128-.1c.149-.122.362-.304.625-.545.59-.539 1.209-1.17 1.826-1.889 2.983-3.471 4.782-7.504 4.595-11.948l-.02-.353-.255.188-.99.71c-3.09 2.185-5.756 3.736-8.017 4.753l-.337.149c-.865.375-1.58.635-2.15.807-.38.168-.757.282-1.122.33-3.064.408-6.01-2.516-5.14-5.36.197-.647.552-1.151 1.11-1.654.249-.223 1.164-.921 1.601-1.267l.185-.149a9.5 9.5 0 0 0 1.704-1.837c-2.69-1.192-5.778-1.852-9.15-1.852-11.705 0-20 7.956-20 18.5 0 .715.044 1.425.131 2.127a.5.5 0 0 1-.08.337c-.883 1.334-1.49 2.746-1.803 4.206l-.98-.235c.167-.765.411-1.512.736-2.26l-.097-.136c-2.22-3.107-3.482-6.324-3.168-9.061a.5.5 0 0 1 .822-.323 32.868 32.868 0 0 0 3.61 2.693c.08-.619.19-1.225.325-1.82-2.007-3.326-2.782-6.786-1.807-10.226a.5.5 0 0 1 .837-.214 59.935 59.935 0 0 0 3.987 3.725l.18-.248a16.887 16.887 0 0 1-1.49-4.18c-1.13-5.457.439-10.821 3.918-10.882zm-6.068 40.725c1.006 2.342 2.712 4.38 5.022 6.009l-1.806-.133c-1.537-1.296-2.764-2.793-3.647-4.455zm-3.356-18.162.005.145c.114 2.111 1.143 4.535 2.79 6.922l.007.012c.188-.357.395-.716.62-1.08a17.686 17.686 0 0 1-.119-2.065c0-.52.02-1.035.057-1.543a32.961 32.961 0 0 1-3.154-2.223zm44.218 2.098-.14.19a24.76 24.76 0 0 1-1.995 2.338l-.189.189.4-.117.456-.138c.51-.157 1.027-.322 1.55-.495l.003-.131c0-.622-.029-1.234-.085-1.836zM26.785 16.6l-.03.153c-.441 2.52.116 5.068 1.444 7.57a18.556 18.556 0 0 1 2.084-4.505 58.135 58.135 0 0 1-3.307-3.028zm36.93-9.649c-1.216-.372-1.961.474-3.414 3.483l-.687 1.405-.262.51c-.221.42-.433.794-.649 1.145a10.508 10.508 0 0 1-2.279 2.634c-.23.194-.997.778-1.454 1.142l-.305.251c-.433.39-.685.747-.824 1.203-.643 2.101 1.668 4.394 4.052 4.077 1.96-.26 4.661-3.186 5.997-5.73 2.34-4.457 2.313-9.36-.175-10.12zm.488 11.578-.023.038a17.14 17.14 0 0 1-1.981 2.567c.88-.435 1.822-.948 2.823-1.546a16.874 16.874 0 0 0-.82-1.06zM33.473 4.676c-2.6.045-3.977 4.75-2.956 9.68a15.89 15.89 0 0 0 1.203 3.509 19.206 19.206 0 0 1 5.238-4.336c-.16-.36-.314-.741-.459-1.148-.2-.562-.369-1.154-.52-1.804a33.374 33.374 0 0 1-.214-1.048l-.471-2.5c-.38-1.74-.84-2.37-1.82-2.353z"/><path fill="#872e00" d="M26.21 35.26c1.899-3.118 5.498-1.996 5.829 1.096a.5.5 0 0 1-.995.106c-.234-2.193-2.609-2.934-3.98-.681a.5.5 0 1 1-.855-.52zM36.183 37.298c2.545-4.067 7.57-2.792 8.173 1.292a.5.5 0 1 1-.989.146c-.471-3.19-4.3-4.162-6.337-.907a.5.5 0 0 1-.847-.53zM32.143 42.5l-.123.004a2.637 2.637 0 0 0-.916.225c-.692.31-1.13.9-1.13 1.768 0 .866.438 1.458 1.128 1.77a2.6 2.6 0 0 0 1.04.233.5.5 0 0 0 .002-1c-.145 0-.394-.038-.63-.145-.353-.159-.54-.412-.54-.858s.186-.697.538-.855c.189-.084.386-.125.531-.137l.099-.005a.5.5 0 0 0 .091-.992z"/><path fill="#872e00" d="m32.13 45.58-.124.004a2.637 2.637 0 0 0-.916.226c-.691.31-1.13.9-1.13 1.768 0 .866.438 1.458 1.129 1.77a2.6 2.6 0 0 0 1.04.233.5.5 0 0 0 .001-1c-.144 0-.393-.038-.63-.145-.353-.16-.54-.412-.54-.858s.187-.697.539-.855c.188-.084.385-.125.53-.138l.1-.004.089-.008a.5.5 0 0 0 .002-.984z"/><path fill="#b3303d" d="M12.377 42.06c-.984 3.933 8.665 10.004 11.738 8.826 3.062-1.173 6.164-12.127 2.834-14.408-1.283-.878-2.548-.876-3.747-.154-.623.375-1.183.903-1.8 1.638l-.234.286c-.175.218-.756.973-.872 1.116l-.157.186c-.141.162-.236.25-.269.262-.038.014-.206.01-.486-.03l-.314-.052c-.34-.061-.981-.18-1.201-.217-1.153-.191-2.047-.231-2.867-.06-1.333.28-2.253 1.123-2.625 2.607zm14.007-4.757c1.298.89 1.435 3.512.507 6.79-.81 2.863-2.29 5.536-3.134 5.86-.845.323-3.742-.675-6.26-2.26-2.888-1.816-4.533-3.857-4.15-5.39.277-1.103.893-1.667 1.86-1.87.604-.127 1.301-.11 2.194.02l.304.047c.26.043 1.196.218 1.394.25.537.086.859.1 1.129-.004.236-.09.443-.274.72-.602l.125-.15c.127-.156.709-.914.875-1.12.644-.802 1.193-1.346 1.77-1.693.873-.526 1.717-.527 2.666.122zM17.055 22.603c-.66.242-1.281.657-2.02 1.284l-.903.786c-.224.187-.37.282-.39.286a1.256 1.256 0 0 1-.253-.065l-.207-.07c-.144-.053-.89-.348-1.112-.43-.934-.347-1.677-.526-2.397-.515-1.18.018-2.106.586-2.666 1.786-1.478 3.17 5.612 9.812 8.406 9.318 2.786-.492 7.155-9.154 4.708-11.632-.945-.957-2.028-1.164-3.166-.748zm2.454 1.451c1.808 1.831-2.1 9.579-4.17 9.944-2.078.367-8.417-5.571-7.325-7.91.393-.844.968-1.197 1.775-1.21.504-.007 1.065.114 1.764.356l.27.097c.207.077.956.373 1.116.432.445.162.718.227.978.18.226-.04.435-.162.727-.396l.13-.108c.132-.11.737-.645.907-.79.657-.556 1.193-.914 1.717-1.106.782-.286 1.45-.158 2.111.511z"/></g></g></svg>