<svg data-id="159-f0c1dc5aa29cf05-smile" xmlns="http://www.w3.org/2000/svg" viewBox="0 0 100 100"><g fill="none" fill-rule="evenodd"><path fill="#fff0d6" d="M52.134 52.109S47.992 37.893 62.36 31.6c-2.179 4.105 3.147 6.256 3.147 6.256s-8.965 1.468-3.934 6.327c-6.048-.7-9.44 7.925-9.44 7.925z"/><g fill="#ffaf54"><path d="M46.303 68.37c0 6.049-9.537 9.967-11.315 8.208-1.778-1.76 1.005-4.569 3.737-5.846zM76.437 68.838c15.939 7.929-3.945 7.425-8.694 1.977z"/><path d="M54.226 77.12C74.38 79.37 77.37 66.204 82.483 61.356c6.812-6.458 14.779-3.428 16.46-5.844 1.725-2.478-6.79-2.727-16.46-4.758-14.502-3.046-35.284-5.763-42.634 3.973-2.233 2.958-5.779 20.145 14.377 22.395z"/></g><path fill="#fff0d6" d="M52.805 51.818s1.742-14.703 17.428-14.88c-3.61 2.926.452 6.987.452 6.987s-8.826-2.151-6.094 4.287c-5.293-3.007-11.786 3.606-11.786 3.606z"/><path fill="#ffaf54" d="M74.437 69.838c15.939 7.929-3.945 7.425-8.694 1.977zM11.315 62.828c-.294.76-9.334-4.173-10.402-9.958 5.833 2.545 10.249 2.545 10.249 2.545S1.086 51.225.913 42.835c10.102 5.479 14.206 4.676 14.206 4.676z"/><path fill="#fff0d6" d="M3.95 40.7c-2.336-4.267-2.816-9.831.281-10.837 2.635-.857 3.238 3.346 5.702 6.66s4.37 3.298 5.007 5.259c.819 2.52-1.853 5.105-4.513 4.799-2.66-.306-5.598-4.276-6.478-5.882z"/><path fill="#ffaf54" d="M20.484 32.215c11.78-3.598 22.082 2.146 25.146 12.178.216.708.386 1.42.51 2.132 1.913 1.576 3.319 3.56 4.03 5.888 2.58 8.448-3.046 17.654-16.838 21.866C19.54 78.492 9.73 74.001 7.15 65.553c-.711-2.329-.654-4.76.052-7.135a17.76 17.76 0 0 1-.768-2.053c-3.064-10.032 2.27-20.552 14.05-24.15z"/><path fill="#ffaf54" d="M44.284 55.781s6.592-6.975 5.787-14.214c-4.53 3.75-8.436 6.048-8.436 6.048s6.197-8.656 2.223-17.58c-6.855 9.392-10.727 10.922-10.727 10.922z"/><path fill="#fff0d6" d="M37.587 33.395c.903-4.78-.36-10.22-3.617-10.22-2.771 0-2.403 4.416-3.365 8.097-.96 3.68-3.137 4.487-3.137 6.548 0 2.65 3.34 4.283 5.776 3.17 2.434-1.113 4.003-5.796 4.343-7.595z"/><path fill="#ffaf54" d="M46.298 69s-10.792 4.12-7.761 8.246c3.03 4.126 13.106-5.673 13.106-5.673z"/><path fill="#872e00" fill-rule="nonzero" d="M62.16 31.143a.5.5 0 0 1 .643.692c-.957 1.803-.398 3.28 1.18 4.532a7.92 7.92 0 0 0 1.187.772l-.105-.059c1.573-.401 3.292-.622 5.162-.643a.5.5 0 0 1 .32.888c-.663.539-1.055 1.127-1.22 1.761-.265 1.03.068 2.177.805 3.325a8.231 8.231 0 0 0 .768 1.012l.138.149c.358.357.02.959-.471.839a8.499 8.499 0 0 0-.407-.086l-.452-.079a12.009 12.009 0 0 0-2.313-.16c-1.138.046-1.986.313-2.433.81-.478.533-.55 1.394-.083 2.683 4.935.37 10.43 1.2 16.423 2.42l1.284.265c2.48.52 9.41 1.682 11.075 1.952l.359.055.338.063c1.967.367 3.229.695 4.061 1.09 1.192.566 1.605 1.41.935 2.372-.605.87-1.503 1.147-3.783 1.358l-1.428.123c-3.845.344-5.725.773-8.189 2.137a15.306 15.306 0 0 0-3.127 2.304c-.504.477-1.013 1.064-1.585 1.813-.418.548-2.45 3.465-3.469 4.847l-.314.418.246.129c3.174 1.67 4.893 3.05 5.243 4.186.36 1.167-.506 1.868-2.094 2.13-.403.662-1.487 1.024-2.98 1.101-2.257.117-5.014-.343-7.441-1.192-4.179 2.377-9.325 3.242-16.263 2.468-2.685-.3-5.028-.868-7.04-1.675a25.537 25.537 0 0 1-2.222 1.412c-3.064 1.714-5.45 1.99-6.774.187a4.242 4.242 0 0 1-.164-.24c-1.466.338-2.707.251-3.334-.369-.81-.802-.902-1.816-.411-2.873l1.745-.766a6 6 0 0 0-.405.48c-.76 1.009-.843 1.837-.225 2.448.334.33 1.164.37 2.216.147-.507-1.955 1.222-3.91 4.337-5.769a29.419 29.419 0 0 1 2.902-1.505l.499-.221c.16-.07.312-.134.457-.193l.368-.148a.5.5 0 1 1 .357.934l-.344.138-.441.187a28.44 28.44 0 0 0-3.286 1.667l-.502.308c-2.915 1.846-4.105 3.629-2.963 5.183.913 1.244 2.81 1.026 5.48-.468.941-.527 1.94-1.193 2.973-1.966a44.546 44.546 0 0 0 2.78-2.273l.437-.391.685-.637a.5.5 0 0 1 .697.716l-.311.295a45.736 45.736 0 0 1-3.591 3.017c1.79.653 3.85 1.12 6.191 1.38 6.314.706 11.054.027 14.924-1.947-1.61-.69-2.987-1.555-3.839-2.532a.5.5 0 1 1 .754-.657c2.038 2.338 7.743 4.06 11.702 3.857 1.624-.084 2.316-.47 2.17-.939-.274-.89-2.183-2.331-5.778-4.12a.5.5 0 0 1 .445-.895l.7.355.017.009a31.02 31.02 0 0 0 1.287-1.563l.093-.122c.89-1.176 3.222-4.53 3.691-5.145l.255-.328a14.94 14.94 0 0 1 1.437-1.604 16.305 16.305 0 0 1 3.331-2.453c2.616-1.448 4.596-1.9 8.564-2.257l.882-.075c2.359-.192 3.216-.405 3.617-.982.255-.365.156-.566-.543-.898-.778-.369-2.088-.699-4.187-1.078l-.13-.018c-1.137-.182-7.553-1.252-10.595-1.848l-1.957-.401a191.44 191.44 0 0 0-1.069-.214c-1.062.863-2.564 2.553-3.077 3.266-1.623 2.255-2.676 4.833-2.893 7.707-.05.681-1.018.761-1.18.098-.905-3.691-.218-7.055 1.475-9.962.271-.467.867-1.319 1.337-1.91-.372-.063-.742-.124-1.109-.184-1.18.912-2.514 2.472-3.046 3.228a16.292 16.292 0 0 0-2.869 7.523c-.08.663-1.018.72-1.178.073-.953-3.867-.33-7.19 1.294-9.904.24-.403.759-1.111 1.129-1.597a66.15 66.15 0 0 0-.778-.096c-.945.528-2.218 1.763-2.743 2.454-1.477 1.946-2.484 4.588-2.794 8.043-.062.685-1.04.745-1.184.072-.925-4.327-.387-7.618 1.093-9.973.267-.425.513-.748.742-1l-.128-.067a70.652 70.652 0 0 0-5.094-.163c-1.067.36-2.16.928-3.253 1.662a19.608 19.608 0 0 0-2.409 1.912l-.225.219a.5.5 0 0 1-.853-.41c.015-.128.05-.358.112-.676l.066-.321a19.161 19.161 0 0 1 .545-1.993 30.37 30.37 0 0 0-4.24.868 46.574 46.574 0 0 1-.8-.821c.973-.3 2.002-.553 3.085-.758-.083-2.595.335-5.29 1.473-7.873 1.69-3.837 4.814-6.942 9.61-9.042zm14.665 38.451-.122.147c-.14.167-.279.332-.42.494 2.806 1.532 4.337 2.811 4.665 3.876l.028.095c.794-.17 1.12-.463 1.017-.8-.259-.838-1.968-2.166-5.168-3.812zm-7.811-32.113-.474.035c-5.743.48-9.785 3.075-12.441 7.135a18.968 18.968 0 0 0-2.29 4.984c-.07.238-.134.47-.192.692l-.028.114a21.2 21.2 0 0 1 1.217-.933l.433-.3c2.307-1.548 4.638-2.424 6.855-2.261.537.04 1.06.14 1.565.307l.082.029-.019-.07c-.3-1.198-.164-2.152.387-2.855l.109-.13c.668-.743 1.755-1.086 3.138-1.14.538-.022 1.098.002 1.662.06l.438.051-.165-.248c-.822-1.28-1.231-2.598-.985-3.876l.054-.239c.119-.462.326-.901.624-1.314zm-7.568-4.898-.165.082c-3.843 1.966-6.38 4.665-7.815 7.923-1.051 2.384-1.451 4.882-1.394 7.297.441-.07.89-.133 1.347-.189a19.451 19.451 0 0 1 1.843-3.593c2.032-3.105 4.84-5.409 8.516-6.644l-.09-.064-.326-.244c-1.546-1.226-2.33-2.743-1.935-4.489z"/><path fill="#fff" d="M66.36 73.074c.591.542 1.504 1.045 2.74 1.511-2.869 1.569-6.906 2.232-11.1 2.232-3.451 0-7.154-.666-9.85-1.638.582-.456 1.344-1.075 2.285-1.854 2.097.292 4.575.485 7.565.485 3.314 0 5.914-.227 8.225-.706z"/><g fill-rule="nonzero"><path fill="#872e00" d="M3.974 29.394c1.524-.495 2.53.26 3.607 2.18.154.273.986 1.9 1.468 2.79l.217.39c.316.547.63 1.032.96 1.477.227.305.453.586.68.85 2.448-2.345 5.596-4.201 9.335-5.343 3.414-1.043 6.753-1.317 9.85-.918.09-.374.173-.778.253-1.23.024-.131.047-.266.07-.41l.304-1.915c.566-3.363 1.22-4.576 3.14-4.575 3.479 0 5.14 5.335 4.104 10.809l-.017.085c.524.326 1.03.678 1.519 1.054a71.756 71.756 0 0 0 3.872-4.883.5.5 0 0 1 .86.092c1.68 3.773 1.748 7.695.693 11.521a20.4 20.4 0 0 1 1.122 2.88l-.063-.197a75.518 75.518 0 0 0 3.681-2.857.5.5 0 0 1 .815.33c.276 2.488-.249 5.056-1.371 7.617.647.976 1.14 2.019 1.478 3.127 2.824 9.246-3.8 18.406-17.17 22.49-13.371 4.084-23.982.188-26.806-9.058a11.788 11.788 0 0 1-.45-4.906 17.775 17.775 0 0 1-.132-.1C2.963 58.37.818 55.663.32 52.955a.5.5 0 0 1 .691-.549 32.854 32.854 0 0 0 4.238 1.52 19.436 19.436 0 0 1-.22-1.834C2.137 49.499.385 46.417.312 42.844a.5.5 0 0 1 .738-.45c1.76.956 3.393 1.75 4.9 2.398a10.5 10.5 0 0 1 .1-.29 16.88 16.88 0 0 1-2.646-3.56C.73 36.054.665 30.468 3.974 29.394zm16.559 3.3C9.343 36.112 3.736 46.14 6.815 56.22c.209.684.458 1.35.746 1.995a.5.5 0 0 1 .023.346c-.694 2.336-.72 4.662-.053 6.847 2.642 8.65 12.666 12.332 25.558 8.394 6.19-1.89 10.85-4.869 13.73-8.412l.01-.003c-2.303.664-5.076.736-8.198-.156-.643-.183-.549-1.122.118-1.174 3.071-.241 5.702-1.082 7.906-2.331.746-.423 2.135-1.355 3.207-2.373.06-.257.11-.515.154-.774-.398.25-.907.528-1.524.803-2.678 1.195-5.929 1.657-9.7.972-.697-.127-.635-1.148.073-1.19 3.36-.196 6.03-1.396 8.094-3.275.606-.552 1.977-2.114 2.62-3.38-.25-.803-.588-1.57-1.01-2.294-.32.632-.672 1.263-1.056 1.89a28.478 28.478 0 0 1-2.049 2.92l-.353.434-.166.196-.388.438a.5.5 0 1 1-.761-.65l.24-.265a27.486 27.486 0 0 0 2.625-3.594c1.822-2.981 2.89-6.002 2.855-8.878l-.004-.127-.745.593c-1.25.982-2.5 1.9-3.724 2.748l-.73.5-.788.525c-.252.166-.495.322-.726.47l-.711.445c-.141.087-.25.151-.321.194-.466.273-.974-.283-.66-.722l.092-.134c.108-.16.258-.396.44-.703.406-.687.813-1.471 1.193-2.338 1.838-4.19 2.381-8.57.905-12.765l-.123-.33-.189.253-.738.969c-2.316 2.99-4.413 5.25-6.277 6.883l-.279.241a19.893 19.893 0 0 1-1.819 1.4 4.163 4.163 0 0 1-.977.644c-2.81 1.284-6.48-.651-6.48-3.625 0-.676.193-1.261.58-1.905.172-.285.843-1.22 1.16-1.679l.134-.196a9.497 9.497 0 0 0 1.093-2.254c-2.92-.354-6.066-.083-9.29.901zM1.552 53.716l.048.137c.725 1.985 2.416 4.002 4.688 5.803l.01.01c.076-.396.168-.8.277-1.214a17.678 17.678 0 0 1-.716-1.94 20.725 20.725 0 0 1-.396-1.491 32.948 32.948 0 0 1-3.664-1.204zM44.437 42.81l-.079.223a24.75 24.75 0 0 1-1.224 2.818l-.125.235.349-.229.394-.265c.443-.299.89-.607 1.339-.925l-.036-.127a19.606 19.606 0 0 0-.618-1.73zm-43.067.887.016.155c.314 2.54 1.59 4.812 3.591 6.816.006-1.684.236-3.332.677-4.916a58.112 58.112 0 0 1-4.046-1.929zM33.858 23.69c-1.272 0-1.737 1.026-2.248 4.327l-.246 1.544-.102.564c-.088.465-.181.886-.286 1.284a10.504 10.504 0 0 1-1.41 3.184c-.163.252-.725 1.035-1.056 1.516l-.218.33c-.3.499-.437.913-.437 1.39 0 2.196 2.878 3.713 5.065 2.714 1.798-.821 3.526-4.407 4.06-7.23.935-4.943-.522-9.622-3.122-9.623zm3.846 10.926-.01.043a17.134 17.134 0 0 1-1.145 3.033 40.915 40.915 0 0 0 2.248-2.302c-.354-.273-.718-.53-1.093-.774zm-33.422-4.27c-2.473.803-2.415 5.703 0 10.117a15.884 15.884 0 0 0 2.175 3.004 19.198 19.198 0 0 1 3.742-5.675 15.69 15.69 0 0 1-.775-.964c-.355-.478-.689-.995-1.023-1.573-.12-.208-.306-.551-.51-.938l-1.182-2.254c-.87-1.552-1.494-2.02-2.427-1.717z"/><g fill="#872e00"><path d="M22.063 65.98a.5.5 0 0 1 .892.45c-.219.435-.668 1.057-1.383 1.674-1.186 1.026-2.703 1.643-4.563 1.643s-3.376-.617-4.563-1.643c-.715-.617-1.164-1.24-1.383-1.673a.5.5 0 0 1 .892-.451l.068.12a5.643 5.643 0 0 0 1.077 1.248c1.012.875 2.301 1.4 3.91 1.4s2.896-.525 3.908-1.4c.354-.306.648-.634.884-.96.138-.192.224-.336.26-.408zM9.377 60.73a.5.5 0 0 0 .614-.351l.06-.18a3.74 3.74 0 0 1 .341-.707c.318-.508.69-.787 1.117-.787s.8.28 1.117.786c.122.195.225.407.308.619l.06.164.033.105a.5.5 0 0 0 .964-.264 4.499 4.499 0 0 0-.518-1.155c-.482-.769-1.13-1.255-1.964-1.255-.834 0-1.482.486-1.964 1.255-.27.432-.437.857-.518 1.155a.5.5 0 0 0 .35.614zM25.036 60.409a.5.5 0 0 0 .946-.324 4.157 4.157 0 0 0-.654-1.167c-.586-.75-1.358-1.213-2.319-1.213s-1.732.463-2.32 1.213c-.339.433-.55.863-.653 1.167a.5.5 0 0 0 .946.324c.071-.207.235-.543.495-.875.413-.527.916-.83 1.532-.83s1.12.303 1.532.83c.26.332.424.668.495.875z"/></g><path fill="#4d504f" d="m79 84.11 16.989.009a.25.25 0 0 1 .066.49l-.066.01-16.99-.009a.25.25 0 0 1-.065-.49zm-4-2 16.989.009a.25.25 0 0 1 .066.49l-.066.01-16.99-.009a.25.25 0 0 1-.065-.49zm4-2 16.989.009a.25.25 0 0 1 .066.49l-.066.01-16.99-.009a.25.25 0 0 1-.065-.49zm-67-56 16.989.009a.25.25 0 0 1 .066.49l-.066.01-16.99-.009a.25.25 0 0 1-.065-.49zm-4-2 16.989.009a.25.25 0 0 1 .066.49l-.066.01-16.99-.009a.25.25 0 0 1-.065-.49zm4-2 16.989.009a.25.25 0 0 1 .066.49l-.066.01-16.99-.009a.25.25 0 0 1-.065-.49z"/></g></g></svg>