<svg data-id="16-41177d651c990dc-dog" xmlns="http://www.w3.org/2000/svg" viewBox="0 0 100 100"><g fill="none" fill-rule="evenodd"><path fill="#222" d="M73.665 59.068s2.635 17.133-.348 17.494c-2.983.36.115-10.142-7.361-14.077-.464-.738 7.71-3.417 7.71-3.417z"/><path fill="#404040" d="M35.49 40.19c-.041-.798 2.168-7.087 6.676-9.515 4.508-2.429 10.599-.295 10.599-.295s-.009 6.544-4.976 9.364c-3.67 2.085-12.758 4.394-12.299.446z"/><path fill="#393939" d="M44.877 35.3c3.153 0 5.505.857 7.342 2.199 3.852-1.932 8.209-1.458 12.947-1.862 1.952-.167 4.482 1.982 4.482 1.982-4.288 8.13-8.545 11.527-11.972 12.893-.417 1.672-1.105 3.411-1.927 5.002 6.815-2.536 7.825-11.819 19.49-8.25 13.456 4.117 9.31 32.977 4.865 32.977-2.33 0 .335-8.097-1.666-12.525-1.992-4.408-4.735-3.305-5.798-3.305-4.183 0-8.488 9.879-13.862 9.879.12 1.618-.271 3.81-1.468 5.125-2.258 2.483-10.779 4.194-11.608 1.8-.81-2.34 6.743-2.77 7.4-4.947.053-.171.212-1.948.212-1.948-2.336 0-4.182-.992-4.182-.992s-.843 2.177-3.43 3.201c-3.375 1.336-10.91 2.478-10.91.288 0-2.19 4.857-1.692 7.555-3.743 1.882-1.431 1.666-3.636 1.516-3.886-.529-.884-1.75-2.902-2.61-5.426l.093-.006c-1.31 0-3.284 1.386-4.675 1.779-1.047.295-1.762-.345-1.63-.482 1.01-1.042 4.085-3.378 5.026-5.557-3.676 1.326-7.978.484-9.841 0-7.87-2.047-10.423-6.765-9.567-11.313 1.106-5.881 7.506-1.526 10.185-3.473 1.503-1.092 6.598-9.41 14.033-9.41z"/><path fill="#ff7180" d="M17.426 69.976c2.32 1.183 3.232 4.104 2.172 6.703l1.619 1.509c1.54-1.18 3.57-1.486 5.282-.613 2.46 1.253 3.337 4.464 1.958 7.17-1.379 2.707-4.491 3.884-6.952 2.63-2.33-1.187-3.24-4.13-2.158-6.736l-1.603-1.497c-1.544 1.199-3.588 1.514-5.312.636-2.46-1.254-3.337-4.464-1.958-7.17 1.379-2.707 4.491-3.885 6.952-2.632z"/><path fill="#593a30" d="M54.942 39.913c4.666-4.636 7.355-1.09 14.044-3.629-5.287 10.85-11.112 12.341-11.112 12.341s-.247-4.64-2.932-8.712z"/><path fill="#000" d="M74.344 46.7c1.766-.66 3.523-1.62 5.162-2.78 1.588-1.13 3.054-2.46 4.277-3.95 2.44-2.99 3.91-6.64 3.262-10.7a.453.453 0 0 1 .874-.22c1.41 4.33.65 8.25-1.145 11.57-1.966 3.64-5.173 6.54-8.053 8.46-.127.09-4.522-2.33-4.377-2.38zM74.111 64.44c.036.71.057 1.45.084 2.21.026.73.05 1.47.066 2.2.014.6.024 1.19.027 1.76.005.93-.007 1.82-.069 2.61-.08 1.02-.222 1.87-.49 2.42-.127.26-.257.45-.466.48-.254.03-.428-.08-.562-.29-.153-.24-.264-.58-.362-.98-.527-2.14-.615-6.01-2.556-9.12-.08-.14-.25-.18-.383-.1s-.174.25-.094.38c1.327 2.28 1.644 4.93 1.907 7.01.182 1.44.358 2.61.75 3.26.321.54.77.8 1.408.73.477-.05.883-.38 1.184-.96.32-.62.531-1.58.638-2.75.075-.81.108-1.73.091-2.7a32.92 32.92 0 0 0-.08-1.79c-.054-.74-.127-1.49-.217-2.22-.093-.76-.209-1.5-.32-2.21a.287.287 0 0 0-.307-.25.287.287 0 0 0-.249.31zM52.4 30.63c-.68-.2-2.673-.72-4.977-.7-1.637.01-3.435.28-5.02 1.16-.954.52-1.79 1.23-2.533 2.01-.51.54-.976 1.11-1.396 1.69-.577.8-1.066 1.61-1.466 2.35-.56 1.04-.95 1.95-1.133 2.53-.039.15-.192.23-.34.2a.288.288 0 0 1-.199-.35c.135-.62.436-1.61.945-2.74.363-.81.833-1.68 1.408-2.54.425-.63.911-1.25 1.455-1.83a10.92 10.92 0 0 1 2.802-2.17c1.742-.92 3.701-1.2 5.481-1.17 2.991.05 5.463.95 5.463.95.145.05.243.19.243.34 0 0-.016 1.46-.556 3.3a12.21 12.21 0 0 1-1.344 3.06.28.28 0 0 1-.476-.29c.58-.99.955-2.02 1.2-2.94.342-1.29.424-2.38.443-2.86z"/><path fill="#e45555" d="M32.58 59.86c-.71.41-1.382.88-1.992 1.41-.628.55-1.19 1.15-1.682 1.78-.31.4-.59.81-.837 1.22-.667 1.11-1.103 2.24-1.285 3.23-.274 1.51.051 2.74.99 3.34.714.46 1.825 1.031 3.38.368.5-.213 1.01-.738 1.354-1.158.448-.55.768-1.27 1.1-2.04.405-.95.703-2.007 1.496-2.797.22-.218 1.806-2.003 4.76-5.353-4.77-.054-7.199-.054-7.285 0z"/><path fill="#b64444" d="M34.162 60.06c-.238.08-.47.17-.712.28-.226.1-.445.23-.665.37-.167.11-.33.23-.49.37-.228.19-.447.4-.662.63-.907.96-1.73 2.2-2.386 3.8a.277.277 0 0 0 .135.37c.14.06.306 0 .371-.14.483-.91 1.024-1.68 1.586-2.34.403-.48.823-.88 1.24-1.25.191-.17.386-.33.571-.49l.635-.55c.227-.19.426-.39.646-.56a.278.278 0 0 0 .11-.38.288.288 0 0 0-.379-.11z"/><g fill="#000" transform="translate(9.519 28.745)"><path d="M34.052 40.615c-.296-.42-.678-1.11-1.139-2.06-.415-.86-.898-1.93-1.448-3.21a.28.28 0 0 1 .51-.23 68.49 68.49 0 0 0 1.504 3.15c.47.92.85 1.58 1.142 1.98.055.07.135.29.162.6a4.35 4.35 0 0 1-.292 1.89 4.377 4.377 0 0 1-1.429 1.9c-1.127.87-2.623 1.32-4.006 1.69-.996.27-1.929.49-2.586.82-.433.23-.737.49-.733.93.002.27.245.4.57.51.708.25 1.805.27 3.037.18 1.081-.08 2.261-.27 3.385-.5 1.24-.25 2.41-.56 3.292-.89a6.127 6.127 0 0 0 1.935-1.13c.997-.87 1.397-1.76 1.397-1.76a.271.271 0 0 1 .361-.16c.144.05.215.22.16.36 0 0-.359 1.05-1.415 2.1a6.832 6.832 0 0 1-2.114 1.41c-1.047.43-2.487.86-3.99 1.16-1.423.28-2.9.44-4.138.44-1.113-.01-2.043-.17-2.614-.49-.522-.29-.799-.7-.795-1.23.007-.8.466-1.34 1.26-1.73.707-.35 1.706-.58 2.776-.84 1.29-.32 2.691-.69 3.751-1.48a3.688 3.688 0 0 0 1.222-1.56c.252-.61.302-1.2.278-1.57-.008-.12-.038-.25-.043-.28z"/><path d="M26.04 36.365c.228.07.643.11.992 0 .937-.28 2.027-1.02 3.084-1.46.554-.23 1.103-.38 1.617-.38.48 0 1.13-.04 1.83-.15a8.152 8.152 0 0 0 1.754-.44c.734-.28 1.431-.67 1.935-1.32a.292.292 0 0 1 .388-.07c.126.09.158.27.07.39-.494.81-1.23 1.39-2.053 1.79-.755.37-1.579.57-2.327.68-.607.09-1.165.11-1.597.11-.398-.01-.82.12-1.254.29-1.094.43-2.238 1.15-3.208 1.41-.673.18-1.232.05-1.592-.14-.39-.21-.565-.51-.58-.67s.031-.29.128-.38c.641-.64 2.094-1.77 3.335-3.06.722-.74 1.374-1.54 1.73-2.32a.274.274 0 0 1 .366-.15c.142.06.207.23.146.37-.35.85-1.01 1.73-1.754 2.56-1.07 1.19-2.317 2.26-3.01 2.94zM43.785 45.295c-.222-.04-.42-.11-.638-.15-.212-.05-.417-.1-.626-.14l-.565-.09c-.47-.09-.917-.19-1.322-.3-1.2-.35-2.034-.77-2.034-.77a.28.28 0 0 0-.383.09.287.287 0 0 0 .092.39s.585.41 1.515.85c.47.22 1.023.45 1.635.62.222.06.452.12.69.16.153.03.311.04.471.05.2 0 .395 0 .596-.03.202-.02.388-.07.588-.12a.285.285 0 0 0 .27-.29.285.285 0 0 0-.289-.27z"/><path d="M46.988 26.035c1.726-.87 3.054-2.2 4.358-3.54 1.617-1.67 3.198-3.36 5.351-4.35 2.223-1.03 5.056-1.34 9.166-.1 5.025 1.54 7.725 6.38 8.844 11.98 1.293 6.47.484 13.93-1.046 18.2-.47 1.31-1.014 2.32-1.579 2.94-.482.53-.995.79-1.497.78-.66 0-1.09-.4-1.3-1.17-.278-1.02-.144-2.83-.052-4.84.106-2.31.151-4.89-.7-6.79-.639-1.42-1.35-2.24-2.064-2.69-1.36-.86-2.696-.38-3.348-.38-1.103 0-2.2.76-3.344 1.82-2.209 2.04-4.526 5.17-7.058 6.83-.992.66-2.018 1.09-3.08 1.17a9.03 9.03 0 0 1-.284 2.45c-.25.96-.677 1.87-1.306 2.56-1.262 1.38-4.398 2.54-7.157 2.91-1.427.19-2.75.17-3.665-.12-.69-.22-1.162-.6-1.34-1.12-.26-.76.131-1.38.944-1.89 1.201-.76 3.373-1.31 4.921-2.02.765-.36 1.38-.73 1.56-1.24.084-.23.16-.66.232-1.28.063-.54.122-1.22.177-2.03.01-.16.143-.28.296-.27.154.01.271.15.261.3a38.062 38.062 0 0 1-.21 2.41c-.065.5-.138.85-.212 1.06-.218.62-.922 1.14-1.856 1.58-1.52.71-3.659 1.26-4.837 2.01-.517.33-.85.68-.682 1.16.123.35.47.58.94.72.844.27 2.066.27 3.383.08 2.591-.36 5.551-1.43 6.73-2.73.552-.61.916-1.42 1.133-2.27.226-.89.291-1.81.231-2.59-.008-.1.027-.2.095-.28a.373.373 0 0 1 .266-.11c1.06-.01 2.072-.43 3.05-1.08 2.493-1.65 4.756-4.77 6.928-6.79 1.313-1.23 2.611-2.05 3.884-2.06.74 0 2.241-.47 3.79.5.818.51 1.658 1.42 2.395 3.04.36.79.58 1.69.705 2.65.39 2.95-.142 6.41.03 8.4.031.35.083.66.18.89.076.18.18.31.364.31.284 0 .55-.19.821-.49.502-.56.967-1.47 1.382-2.64 1.472-4.15 2.22-11.41.952-17.7-1.05-5.22-3.479-9.79-8.164-11.23-3.802-1.17-6.429-.95-8.499-.01-2.062.93-3.573 2.54-5.137 4.11-1.617 1.62-3.286 3.19-5.584 4.02a.337.337 0 0 1-.397-.1.352.352 0 0 1-.05-.4c.517-.98 1.41-2.77 1.813-4.67.231-1.09.304-2.21.037-3.24a.287.287 0 0 1 .196-.35.28.28 0 0 1 .342.2c.313 1.11.27 2.33.044 3.52-.285 1.49-.863 2.92-1.353 3.97z"/><path d="M34.048 28.775c-2.073 1.35-4.346 1.92-6.433 2.1-3.048.27-5.709-.3-6.787-.59-3.186-.83-5.472-2.11-6.995-3.64-2.063-2.08-2.695-4.62-2.233-7.12.261-1.42.85-2.18 1.653-2.55 1.33-.6 3.131-.23 4.772-.09 1.377.11 2.651.07 3.544-.58.332-.25.838-.83 1.494-1.6 1.338-1.57 3.358-3.97 5.957-5.7 1.835-1.22 3.96-2.11 6.338-2.13 1.433 0 2.71.17 3.864.48 1.33.37 2.496.92 3.55 1.59a.28.28 0 0 0 .385-.08.282.282 0 0 0-.083-.39 13.673 13.673 0 0 0-3.69-1.7c-1.2-.34-2.53-.54-4.026-.54-2.517-.02-4.779.89-6.735 2.17-3.88 2.52-6.529 6.5-7.542 7.23-.382.27-.853.39-1.373.43-.744.06-1.582-.03-2.436-.13-1.554-.17-3.152-.33-4.39.22-1.033.45-1.853 1.38-2.203 3.2-.534 2.79.147 5.65 2.453 7.98 1.62 1.64 4.056 3 7.453 3.88 1.134.29 3.933.85 7.113.47 2.184-.25 4.543-.95 6.663-2.45.127-.09.16-.26.074-.39a.272.272 0 0 0-.387-.07zm24.553-17.74c-.365.52-.735 1-1.085 1.47-.373.51-.732 1-1.08 1.46-.338.45-.658.89-.979 1.3-.857 1.1-1.688 2.05-2.506 2.84-1.743 1.7-3.394 2.76-4.897 3.4a.286.286 0 0 0-.156.37c.057.14.22.21.363.15 1.91-.71 4.091-2.01 6.392-4.38.823-.84 1.68-1.81 2.498-2.97.358-.51.706-1.05 1.04-1.64.31-.54.594-1.11.89-1.71a.287.287 0 0 0-.098-.39.29.29 0 0 0-.382.1z"/><circle cx="26.981" cy="16.755" r="1.5"/><path d="M13.89 16.376c.91.429 1.369 1.745.963 2.773-.286.724-.822 1.031-1.814.52-1.562-.804-2.184-1.687-1.824-2.732s1.767-.99 2.676-.56zM28.005 12.895s.228-.01.566.01c.114.01.24.02.373.04.145.02.298.05.455.08.144.04.291.08.437.13.351.12.7.32.967.65.351.42.445.92.431 1.38-.026.81-.376 1.5-.376 1.5-.036.07-.01.16.056.19.068.04.153.01.19-.05 0 0 .541-.94.51-1.97a2.318 2.318 0 0 0-.455-1.34 2.602 2.602 0 0 0-1.49-.93 3.848 3.848 0 0 0-.863-.09c-.499.02-.849.12-.849.12-.076.02-.127.09-.113.16.013.08.086.13.161.12zM81.422 8.035s-.077.57-.343 1.47c-.122.41-.285.89-.496 1.42-.32.8-.752 1.73-1.386 2.67-.95 1.42-2.329 2.9-4.353 4.17a.17.17 0 0 0-.058.23c.048.08.151.1.23.06 2.13-1.24 3.611-2.71 4.63-4.15.686-.97 1.174-1.92 1.494-2.77.211-.55.35-1.07.44-1.51.2-.96.177-1.57.177-1.57a.178.178 0 0 0-.16-.18c-.092 0-.17.07-.175.16zM42.7 8.485a.271.271 0 0 0-.115.28c.022.11.105.2.213.22 0 0 1.745.4 4.362.83 1.29.22 2.79.43 4.397.61 4.194.47 8.637 1.44 11.722 1.76 1.296.14 2.362.16 3.091 0 .14-.03.255-.13.312-.26s.047-.28-.025-.4c-.553-.96-1.484-1.93-2.497-2.82-2.077-1.81-4.492-3.22-4.492-3.22a.762.762 0 0 0-.153-.05s-1.785-.36-4.363-.39c-1.295-.02-2.79.05-4.358.29-1.388.21-2.832.55-4.24 1.08-1.344.5-2.652 1.18-3.855 2.07z"/></g><path fill="#b64444" d="M17.64 69.56c1.314.66 2.231 1.82 2.646 3.19.36 1.18.337 2.52-.112 3.8l1.077 1.012c.34-.225.698-.414 1.068-.562 1.417-.56 3.001-.55 4.386.17 1.375.72 2.296 1.99 2.646 3.47.323 1.35.166 2.88-.562 4.27-.724 1.39-1.873 2.39-3.163 2.89-1.376.54-2.908.53-4.247-.18-1.386-.64-2.342-1.86-2.74-3.3-.315-1.139-.266-2.41.168-3.633L17.71 79.65c-.76.51-1.614.84-2.486.95a4.989 4.989 0 0 1-2.949-.51c-1.349-.71-2.25-1.95-2.597-3.4-.32-1.33-.167-2.84.547-4.21.67-1.41 1.784-2.44 3.055-2.99 1.39-.61 2.964-.61 4.36.07zm8.654 8.42c-1.149-.57-2.449-.56-3.61-.08a5.33 5.33 0 0 0-2.693 2.53 5.39 5.39 0 0 0-.517 3.68c.277 1.26 1.005 2.38 2.158 3.02 1.195.59 2.546.57 3.748.07a5.453 5.453 0 0 0 2.746-2.62c.61-1.23.725-2.56.42-3.74-.316-1.23-1.094-2.28-2.252-2.86zm-12.718-7.76c-1.15.43-2.19 1.3-2.854 2.51-.623 1.25-.745 2.61-.437 3.81.322 1.26 1.117 2.34 2.304 2.93.805.4 1.683.52 2.538.4.847-.12 1.67-.48 2.378-1.04l.262-.2 1.38 1.269a6.465 6.465 0 0 1 1.335-1.735l-1.219-1.124-.248-.23.128-.32c.47-1.15.508-2.38.188-3.46-.333-1.12-1.053-2.08-2.118-2.64-1.144-.6-2.453-.62-3.637-.17z"/></g></svg>