<svg data-id="160-18884f7f0ef335f-angry" xmlns="http://www.w3.org/2000/svg" viewBox="0 0 100 100"><g fill="none" fill-rule="evenodd"><path fill="#ffaf54" d="M55.825 85.02c15.188 9.288-4.577 7.053-8.833 1.212-.804-2.634 8.833-1.212 8.833-1.212z"/><path fill="#fff0d6" d="M36.831 57.837s-5.543-10.718-19.95-4.506c4.488 1.209 2.426 6.57 2.426 6.57s7.192-5.553 7.31 1.442c3.616-4.9 10.214-3.506 10.214-3.506z"/><g fill="#ffaf54"><path d="M36.951 89.083c-11.343 0-22.864-.723-28.148-5.564-1.007-.923-.288-2.89 1.943-2.28 7.872 2.154 16.275-.975 20.756-7.756 5.073-7.677-4.8-24.19 14.483-27.274 6.314-1.01 8.218 1.818 11.552 4.847 5.012 7.468 9.636 14.817 6.37 25.162-3.268 10.344-15.613 12.865-26.956 12.865z"/><path d="M45.918 87.444c15.187 9.287-4.577 7.053-8.833 1.212-.804-2.634 8.833-1.212 8.833-1.212zM67.426 37.807c.502.64 7.705-6.715 7.036-12.557-4.833 4.136-9.054 5.426-9.054 5.426s8.408-6.949 6.124-15.02c-8.058 8.187-12.216 8.619-12.216 8.619z"/></g><path fill="#fff0d6" d="M68.004 14.503c.987-4.76-.179-10.22-3.434-10.277-2.769-.05-2.118 4.145-3.506 8.032-1.388 3.888-3.214 4.43-3.25 6.49-.048 2.648 3.262 4.34 5.715 3.27s4.104-5.722 4.475-7.515z"/><path fill="#ffaf54" d="M49.688 11.242c-12.322 0-20.5 8.507-20.5 19 0 .74.045 1.471.134 2.19-1.369 2.066-2.134 4.374-2.134 6.81 0 8.837 8.073 16 22.5 16 14.426 0 22.5-7.163 22.5-16 0-2.436-.766-4.744-2.135-6.811.089-.718.135-1.448.135-2.189 0-10.493-8.179-19-20.5-19z"/><path fill="#ffaf54" d="M33.825 40.72s-8.339-4.743-9.683-11.9c5.425 2.263 9.831 3.32 9.831 3.32s-8.451-6.466-7.258-16.159c9.296 6.978 13.444 7.31 13.444 7.31z"/><path fill="#fff0d6" d="M33.696 17.358c-2.259-4.306-2.64-9.875.474-10.826 2.649-.809 3.586 3.52 5.58 6.758 1.994 3.238 4.31 3.373 4.911 5.344.774 2.533-1.943 5.07-4.595 4.717-2.653-.353-5.52-4.372-6.37-5.993zM36.518 60.054s-9.833-8.383-20.668.456c3.565-.168 5.235 4.156 5.235 4.156s5.103-5.58 7.158 0c2.092-4.81 8.275-4.612 8.275-4.612z"/><path fill="#754038" fill-rule="nonzero" d="M40.03 33.715a5.211 5.211 0 0 0-.937.546 6.051 6.051 0 0 0-.544.434.25.25 0 1 0 .338.368l.152-.131c.092-.077.21-.168.345-.265.282-.202.569-.373.845-.493.426-.186.789-.234 1.06-.127.3.119.58.38.833.75.228.335.4.702.511 1.012l.063.187a.25.25 0 0 0 .489-.086l-.014-.07a5.13 5.13 0 0 0-.636-1.325c-.303-.445-.654-.772-1.063-.933-.418-.165-.906-.1-1.443.133zm6.033-2.67a5.994 5.994 0 0 0-1.174.555c-.513.318-.881.685-1.05 1.112-.138.348-.176.749-.133 1.186.048.49.187.975.36 1.398l.065.15a.25.25 0 0 0 .452-.214l-.054-.125a4.573 4.573 0 0 1-.325-1.257c-.036-.365-.005-.688.1-.954.122-.31.419-.604.849-.872.354-.22.74-.39 1.075-.507l.213-.07a.25.25 0 0 0-.082-.489l-.057.01zm-6.354-2.588a.25.25 0 0 0-.12.333l.097.226c.172.42.322.878.41 1.32.104.525.105.96-.014 1.261a2.406 2.406 0 0 1-.473.734 3.58 3.58 0 0 1-.655.556l-.152.096c-.068.041-.122.07-.158.088a.25.25 0 0 0 .218.45l.118-.063a4.072 4.072 0 0 0 .998-.79 2.9 2.9 0 0 0 .568-.887c.162-.409.162-.932.04-1.543a7.81 7.81 0 0 0-.437-1.412l-.088-.206a2.973 2.973 0 0 0-.02-.042.25.25 0 0 0-.332-.12zm1.446-.067.01.181c.008.109.02.242.039.394.048.393.122.776.229 1.125.215.703.536 1.195 1.011 1.383.392.155.838.125 1.32-.045.336-.119.674-.3 1-.52l.225-.16c.1-.075.18-.139.235-.187a.25.25 0 1 0-.328-.377l-.124.101c-.077.06-.174.131-.289.208-.293.198-.594.36-.886.464-.378.133-.706.155-.969.051-.297-.118-.542-.493-.717-1.064a6.169 6.169 0 0 1-.211-1.04l-.037-.366a4.162 4.162 0 0 1-.009-.165.25.25 0 0 0-.5.017z"/><g fill="#872e00"><path d="M69.813 40.16a2 2 0 1 0-.348-3.984c-.653.057-4.499.465-4.704 1.306-.205.84 2.847.412 2.886.86a2 2 0 0 0 2.166 1.817zM57.073 41.161a2 2 0 1 0-.348-3.983c-.563.049-6.02.31-6.02.965s4.155.663 4.202 1.2a2 2 0 0 0 2.166 1.818z"/><path fill-rule="nonzero" d="m59.876 48.073.264-.299a22.493 22.493 0 0 1 1.333-1.347 14.26 14.26 0 0 1 1.273-1.057c.706-.513 1.356-.853 1.954-.98 1.024-.218 1.845.19 2.413.99.337.474.537 1 .643 1.457l.009.039c.153.692-.811 1.03-1.124.394a2.225 2.225 0 0 0-.445-.58c-.339-.321-.704-.459-1.127-.369-.403.086-1.063.407-1.875.902-.248.15-.506.316-.77.491-.279.184-.555.374-.825.565l-.611.441a20.92 20.92 0 0 0-.29.217c-.571.438-1.288-.317-.822-.864z"/></g><path fill="#872e00" fill-rule="nonzero" d="m52.242 62.894.25.047c1.311.228 2.978.199 4.901-.03a41.456 41.456 0 0 0 3.67-.616c.424-.09.812-.178 1.157-.262l.118-.028.319-.08a.498.498 0 0 0 .275-.188c.117.3.228.603.336.91l.105.306c1.468 4.341 1.567 8.63.077 13.35-2.023 6.405-7.715 10.138-16.15 11.68a47.28 47.28 0 0 0-1.26-.796.5.5 0 0 0-.521.853l.642.4c3.005 1.898 4.572 3.356 4.755 4.208.104.48-.618.803-2.244.745-3.962-.142-9.495-2.355-11.321-4.862a.5.5 0 0 0-.904.286c-14.371-.032-22.913-1.426-27.285-5.432-.768-.703-.052-1.845 1.473-1.428 7.589 2.076 13.493.584 18.877-5.197.33.263.892.539 1.537.841 2.036.956 4.509 1.351 7.378.874.628-.105.682-.987.072-1.168-1.458-.43-2.695-1-3.73-1.671-.652-.424-1.86-1.467-2.55-2.39.08-.153.156-.31.226-.47.427.212 1.22.595 1.577.733 1.87.721 3.782 1.055 5.594.775a7.58 7.58 0 0 0 .733-.15c.571-.147.61-.944.056-1.145a20.274 20.274 0 0 1-3.123-1.437 16.203 16.203 0 0 1-2.792-1.985c-.225-.203-.691-.583-1.094-.971.015-.152.03-.308.043-.468.292.18.717.402 1.254.623 1.791.737 3.764.99 5.792.468.575-.149.609-.953.048-1.148a15.477 15.477 0 0 1-3.733-1.895 14.428 14.428 0 0 1-2.256-1.923c-.176-.185-.534-.65-.892-1.151l.013-.56.039-1.083c.011-.248.024-.493.039-.734.564-.09 1.15-.125 1.745-.114a10.232 10.232 0 0 1 1.224.095l.182.03a.5.5 0 0 0 .458-.835 7.551 7.551 0 0 0-.313-.304l-.194-.175c-.202-.18-.427-.369-.675-.565a17.585 17.585 0 0 0-2.06-1.404c.341-1.972.9-3.632 1.752-5.017l-.843-.547a12.297 12.297 0 0 0-1.038 2.144c-4.204-3.308-9.923-4.083-17.25-.92a.5.5 0 0 0 .067.942c1.526.41 2.281 1.345 2.48 2.707.018.127.032.257.04.389-1.37.739-2.747 1.706-4.125 2.92a.5.5 0 0 0 .356.874c1.59-.082 2.798.415 3.707 1.345a5.585 5.585 0 0 1 1.364 2.399l.048.173a.5.5 0 0 0 .869.108l.031-.043.225-.282c.21-.254.447-.519.705-.777.515-.518 1.046-.946 1.568-1.235 1.583-.88 2.786-.397 3.682 2.205a.5.5 0 0 0 .947-.005c.463-1.393 1.249-2.405 2.305-3.097a6.462 6.462 0 0 1 1.728-.785c-.015.274-.028.551-.038.834l-.07 2.55c-.139 5.463-.527 7.683-2.082 9.675-5.632 7.214-11.579 9.188-19.64 6.982-2.498-.683-3.985 1.69-2.412 3.13 4.55 4.168 13.012 5.611 27.182 5.692l1.304.004h.168c2.411 2.473 7.615 4.436 11.497 4.574 2.195.079 3.563-.533 3.257-1.955-.207-.961-1.333-2.171-3.425-3.66l.227-.048c2.692 1.793 6.677 3.089 9.805 3.2 2.195.08 3.563-.533 3.257-1.954-.241-1.122-1.733-2.582-4.55-4.427 3.507-2.113 5.968-5.06 7.195-8.945 1.556-4.926 1.452-9.432-.082-13.97-.957-2.829-2.221-5.26-4.526-8.852l-.89.465c1.724 2.683 2.856 4.698 3.707 6.703a.475.475 0 0 0-.21.009l-.676.165-.87.194c-1.18.25-2.398.46-3.581.601-1.67.199-3.128.24-4.28.088.18-.238.35-.491.52-.762l.18-.287.347-.528c.718-1.03 1.491-1.697 2.854-2.313a.499.499 0 0 0 .17-.127l.578-.082c.26-.033.484-.06.663-.08l.325-.033a.5.5 0 0 0-.091-.996l-.512.055-.513.063c-.284.036-.572.077-.862.12-1.348-.8-3.262-.908-5.596-.488-1.27.228-2.613.605-3.974 1.085a34.295 34.295 0 0 0-2.333.92l-.503.23a.5.5 0 0 0 .432.901c.098-.047.26-.12.475-.216l.656-.278a33.44 33.44 0 0 1 1.606-.614c1.314-.463 2.606-.826 3.818-1.044l.323-.055c1.6-.256 2.94-.225 3.945.126l.111.043-.239.141c-.994.614-1.676 1.336-2.322 2.32l-.485.763c-1.433 2.216-3.013 3.064-8.049 3.42l-.725.046a.5.5 0 1 0 .058.998c4.63-.269 6.834-.924 8.38-2.442zm3.983 23.21.106.067c2.806 1.805 4.273 3.192 4.45 4.014.103.48-.62.803-2.245.745-2.644-.094-5.988-1.112-8.463-2.523 2.284-.578 4.341-1.342 6.152-2.304zM17.117 59.778c5.36-4.122 10.567-4.38 15.386-2.049a16.55 16.55 0 0 1 3.046 1.911l-.038-.03-.344-.001c-1.487.014-2.911.3-4.154.96l-.284.158-.277.172a6.48 6.48 0 0 0-2.196 2.419l-.032.066c-1.093-2.154-2.69-2.629-4.476-1.716l-.168.09c-.614.34-1.215.824-1.79 1.403a12.04 12.04 0 0 0-.274.283l-.193.213-.08-.186a6.495 6.495 0 0 0-1.066-1.659l-.206-.222a5.352 5.352 0 0 0-2.996-1.566l-.145-.02zm1.599-6.38c6.466-2.35 11.422-1.353 15.082 1.777l-.155-.13c-.18.604-.33 1.239-.457 1.908l-.247-.124c-4.004-1.937-8.288-2.196-12.665-.16l-.007-.053c-.19-1.304-.815-2.345-1.93-3.002l-.079-.046z"/><path fill="#fff" d="M62.484 61.938c-2.853.753-5.837 1.13-8.951 1.13l.46-.005c-.857 3.01-.558 7.292-.558 10.25 0 4.724-2.147 11.474-6.186 14.215 11.073-2.122 15.87-7.126 17.111-15.237.636-4.157-.174-7.842-1.765-10.194z"/><g fill-rule="nonzero"><path fill="#872e00" d="M64.57 4c-1.604-.027-2.346.989-2.815 3.14-.067.307-.388 2.106-.59 3.098l-.093.437a15.303 15.303 0 0 1-.487 1.694c-.128.358-.261.693-.402 1.011-3.027-1.527-6.582-2.383-10.492-2.383-3.572 0-6.846.714-9.693 2a21.044 21.044 0 0 1-.601-1.102c-.061-.12-.123-.242-.187-.372l-.85-1.744c-1.525-3.052-2.504-4.022-4.342-3.46-3.328 1.018-3.358 6.606-.768 11.541l.041.077c-.406.465-.788.95-1.144 1.452a71.785 71.785 0 0 1-5.133-3.54.5.5 0 0 0-.796.34c-.504 4.1.577 7.872 2.705 11.225-.153 1-.232 2.029-.232 3.083l.002-.207a75.548 75.548 0 0 1-4.356-1.657.5.5 0 0 0-.684.553c.463 2.461 1.716 4.765 3.538 6.887a11.977 11.977 0 0 0-.5 3.424c0 9.67 9.014 16.5 23 16.5s23-6.83 23-16.5c0-1.72-.328-3.268-1.004-4.826l.097-.134c2.22-3.107 3.482-6.324 3.168-9.062a.5.5 0 0 0-.822-.322 32.868 32.868 0 0 1-3.61 2.692c-.08-.619-.19-1.225-.325-1.82 2.007-3.326 2.782-6.786 1.807-10.226a.5.5 0 0 0-.837-.214 59.935 59.935 0 0 1-3.987 3.725 10.504 10.504 0 0 0-.18-.247 16.887 16.887 0 0 0 1.49-4.18C69.619 9.425 68.05 4.06 64.57 4zM49.69 11.998c11.705 0 20 7.956 20 18.5 0 .715-.044 1.425-.131 2.127a.5.5 0 0 0 .08.338c1.346 2.032 2.051 4.25 2.051 6.535 0 9.049-8.515 15.5-22 15.5-6.475 0-11.804-1.488-15.595-4.036h-.011c2.398-.038 5.073-.779 7.799-2.545.561-.363.197-1.234-.456-1.09-3.01.668-5.772.632-8.246.081-.837-.186-2.438-.672-3.762-1.333-.132-.229-.256-.46-.373-.695.454.123 1.022.24 1.693.323 2.91.36 6.157-.147 9.563-1.905.631-.326.274-1.284-.416-1.117-3.273.794-6.177.426-8.702-.768-.74-.35-2.509-1.446-3.494-2.469.004-.84.104-1.673.296-2.49.49.512 1.012 1.012 1.563 1.5a28.49 28.49 0 0 0 2.813 2.196l.465.31.216.14.5.306.043.025a.5.5 0 1 0 .494-.869l-.306-.184a27.497 27.497 0 0 1-3.562-2.671c-2.615-2.32-4.519-4.899-5.326-7.66l-.033-.123.885.35a77.62 77.62 0 0 0 4.366 1.54l.846.266.906.272c.29.085.568.164.832.237l.811.218c.16.042.282.072.364.092.525.126.849-.556.42-.884l-.128-.1c-.149-.122-.362-.304-.625-.545a21.866 21.866 0 0 1-1.826-1.888c-2.983-3.472-4.782-7.505-4.595-11.949l.02-.352.255.187.99.711c3.09 2.184 5.756 3.735 8.017 4.752l.337.15c.865.374 1.58.635 2.15.806.38.168.757.282 1.122.331 3.064.407 6.01-2.517 5.14-5.361-.197-.647-.552-1.15-1.11-1.653-.249-.224-1.164-.922-1.601-1.268l-.185-.148a9.5 9.5 0 0 1-1.704-1.837c2.69-1.193 5.778-1.853 9.15-1.853zm24.303 14.566-.005.145c-.114 2.112-1.143 4.535-2.79 6.922l-.007.013a18.428 18.428 0 0 0-.62-1.08c.08-.672.119-1.36.119-2.066 0-.52-.02-1.035-.057-1.543a32.961 32.961 0 0 0 3.154-2.222zm-44.218 2.098.14.19a24.76 24.76 0 0 0 1.995 2.338l.189.19-.4-.118-.456-.138a76.386 76.386 0 0 1-1.55-.494l-.003-.132c0-.621.029-1.234.085-1.836zm41.465-11.737.03.153c.441 2.521-.116 5.068-1.444 7.57a18.556 18.556 0 0 0-2.084-4.505 58.135 58.135 0 0 0 3.307-3.028zM34.31 7.276c1.216-.372 1.961.474 3.414 3.482l.687 1.406.262.51c.221.419.433.794.649 1.145a10.508 10.508 0 0 0 2.279 2.634c.23.193.997.778 1.454 1.142l.305.25c.433.39.685.748.824 1.203.643 2.101-1.668 4.395-4.052 4.078-1.96-.26-4.661-3.187-5.997-5.73-2.34-4.457-2.313-9.36.174-10.12zm-.488 11.577.023.038a17.14 17.14 0 0 0 1.98 2.567 40.932 40.932 0 0 1-2.823-1.545c.26-.364.533-.717.82-1.06zM64.553 5c2.6.046 3.977 4.751 2.956 9.68a15.89 15.89 0 0 1-1.203 3.51 19.206 19.206 0 0 0-5.239-4.337c.162-.36.314-.74.46-1.148.2-.562.369-1.153.52-1.804.054-.234.13-.617.214-1.047l.471-2.501c.38-1.74.84-2.37 1.82-2.353z"/><g fill="#7f4331"><path d="M81.155 45.736c-1.27-.727-2.618-.877-3.882-.068a4.398 4.398 0 0 0-.817.685c-.888.936-1.442 1.087-2.56.9l-.3-.055c-1.312-.244-2.078-.05-3.11 1.129a.25.25 0 0 0 .376.329c.853-.975 1.425-1.162 2.455-.999l.295.053c1.33.251 2.06.131 3.049-.851l.158-.162a3.9 3.9 0 0 1 .724-.608c1.08-.692 2.239-.563 3.363.08.356.205.62.408.76.539a.25.25 0 0 0 .341-.366l-.092-.08a5.463 5.463 0 0 0-.76-.526z"/><path d="M80.066 42.897c1.864 0 3.343 1.972 3.343 4.375s-1.479 4.375-3.343 4.375c-1.865 0-3.344-1.972-3.344-4.375s1.479-4.375 3.344-4.375zm0 .5c-1.553 0-2.844 1.722-2.844 3.875s1.291 3.875 2.844 3.875c1.552 0 2.843-1.722 2.843-3.875s-1.291-3.875-2.843-3.875z"/><path d="M81.703 40.682c1.64 0 2.919 1.976 2.919 4.375s-1.278 4.375-2.919 4.375-2.919-1.976-2.919-4.375 1.279-4.375 2.919-4.375zm0 .5c-1.307 0-2.419 1.718-2.419 3.875s1.112 3.875 2.419 3.875 2.419-1.718 2.419-3.875-1.112-3.875-2.419-3.875z"/><path d="M83.16 47.313c2.401 0 4.374 1.426 4.374 3.231s-1.973 3.231-4.375 3.231-4.375-1.425-4.375-3.23 1.973-3.232 4.375-3.232zm0 .5c-2.155 0-3.876 1.244-3.876 2.731 0 1.488 1.721 2.731 3.875 2.731s3.875-1.243 3.875-2.73c0-1.488-1.72-2.732-3.875-2.732z"/><path d="M84.097 43.72c1.865 0 3.343 1.972 3.343 4.375s-1.478 4.374-3.343 4.374-3.344-1.971-3.344-4.374c0-2.403 1.48-4.375 3.344-4.375zm0 .5c-1.552 0-2.844 1.722-2.844 3.875s1.292 3.874 2.844 3.874c1.552 0 2.843-1.721 2.843-3.874s-1.29-3.875-2.843-3.875z"/><path d="M80.247 40.682c2.41 0 4.375 1.74 4.375 3.903 0 2.163-1.965 3.903-4.375 3.903s-4.375-1.74-4.375-3.903c0-2.163 1.965-3.903 4.375-3.903zm0 .5c-2.146 0-3.875 1.53-3.875 3.403 0 1.872 1.729 3.403 3.875 3.403s3.875-1.53 3.875-3.403c0-1.872-1.729-3.403-3.875-3.403z"/><path d="M84.097 38.835c1.865 0 3.343 1.972 3.343 4.375s-1.478 4.375-3.343 4.375-3.344-1.972-3.344-4.375 1.48-4.375 3.344-4.375zm0 .5c-1.552 0-2.844 1.722-2.844 3.875s1.292 3.875 2.844 3.875c1.552 0 2.843-1.722 2.843-3.875s-1.29-3.875-2.843-3.875z"/><path d="M85.128 41.712c1.723 0 3.069 2.06 3.069 4.563 0 2.504-1.346 4.564-3.069 4.564-1.723 0-3.069-2.06-3.069-4.564 0-2.503 1.346-4.563 3.07-4.563zm0 .5c-1.39 0-2.569 1.803-2.569 4.063 0 2.261 1.178 4.064 2.57 4.064s2.568-1.803 2.568-4.064c0-2.26-1.178-4.063-2.569-4.063z"/></g></g></g></svg>