<svg data-id="161-0b7700e22b8a56b-smile" xmlns="http://www.w3.org/2000/svg" viewBox="0 0 100 100"><g fill="none" fill-rule="evenodd"><path fill="#fff0d6" d="M34.975 63.74s-4.513-14.1-19.943-11.284c4.1 2.185.888 6.945.888 6.945s8.253-3.794 6.798 3.046c4.623-3.961 12.257 1.292 12.257 1.292zM65.681 63.168S68.952 48.734 84.565 50.2c-3.895 2.532-.283 6.994-.283 6.994s-8.549-3.063-6.506 3.624c-4.948-3.544-12.095 2.35-12.095 2.35z"/><g fill="#ffaf54"><path d="M47.375 91.841c-19.654-.996-23.826-8.815-24.26-20.21-.031-.822 1.415-2.875 2.847 0 2.292 4.605 7.107 6.392 11.983 6.392z"/><path d="M42.01 90.848C44.459 91.62 47.16 92 50 92c11.046 0 20-5.754 20-17.905S61.046 48 50 48 30 61.945 30 74.095c0 2.32.326 4.406.931 6.264"/><path d="M56.096 88.768c-1.518 5.379.956 7.542 3.122 6.33 2.818-1.578 6.197-6.78 6.131-10.868-.943-2.588-9.253 4.538-9.253 4.538zM43.744 88.772c1.518 5.38-.956 7.542-3.121 6.33-2.82-1.578-6.197-6.779-6.132-10.867.943-2.589 9.253 4.537 9.253 4.537z"/></g><g fill="#ffaf54"><path d="M71.192 39.796c.312.902 10.107-3.952 11.062-10.63-5.66 1.584-11.064 2-11.064 2s10.079-5.292 10.078-15.058C71.189 21.9 67.03 21.724 67.03 21.724zM30.373 38.798c-.312.902-10.107-2.951-11.063-9.63 5.661 1.584 11.064 1.001 11.064 1.001s-10.078-4.292-10.077-14.058c10.078 5.791 14.237 4.615 14.237 4.615z"/><path d="M50.5 11C62.822 11 71 19.507 71 30c0 .74-.046 1.47-.135 2.189C72.235 34.255 73 36.564 73 39c0 8.837-8.074 16-22.5 16S28 47.837 28 39c0-2.436.766-4.745 2.135-6.811A17.766 17.766 0 0 1 30 30c0-10.493 8.178-19 20.5-19z"/></g><path fill="#fff0d6" d="M69.986 14.306c.984-4.764-.187-10.226-3.444-10.281-2.77-.047-2.478 4.374-3.502 8.04-1.023 3.664-3.213 4.433-3.248 6.495-.045 2.65 3.268 4.34 5.721 3.267 2.454-1.071 4.102-5.728 4.473-7.521zM32.191 14.293c-.984-4.764.187-10.226 3.444-10.281 2.77-.047 2.116 4.149 3.502 8.04 1.386 3.89 3.213 4.433 3.248 6.495.045 2.65-3.268 4.34-5.721 3.267-2.454-1.071-4.102-5.728-4.473-7.521z"/><g fill="#ffaf54"><path d="M40.67 59.63c.961-3.368 6.682-9.204 1.1-10.328-5.582-1.124-6.73 10.893-6.73 10.893s6.359-.008 5.63-.566zM59.58 59.25c-.888-3.092-6.68-7.815-1.106-8.967 5.574-1.152 6.471 9.928 6.471 9.928s-6.102-.432-5.365-.962z"/></g><path fill="#872e00" fill-rule="nonzero" d="M41.875 48.817c1.981.398 2.902 1.434 2.808 2.986-.064 1.05-.518 2.155-1.5 3.94l-1.037 1.855c-.583 1.064-.822 1.59-.988 2.172a.5.5 0 0 1-.962-.274l.07-.232c.197-.612.479-1.2 1.093-2.31l.783-1.396c1.023-1.83 1.488-2.912 1.543-3.815.062-1.022-.488-1.64-2.007-1.946-2.084-.42-3.684 1.28-4.841 4.57-.504 1.432-.87 3.022-1.118 4.592l-.075.497-.098.791a.5.5 0 0 1-.995-.095l.042-.37.061-.465.049-.335a30.755 30.755 0 0 0-2.983 6.737c.295.662.974 1.494 1.296 1.785.699.634 1.607 1.113 2.76 1.37.616.138.63 1.01.018 1.167-2.304.59-3.914.492-4.948-.072l-.087-.05c-.036.23-.068.462-.098.693.25.336.624.74.957.976.748.533 1.807.9 3.242 1.011.637.05.765.929.168 1.158-2.067.795-3.569.922-4.584.614l-.003-.343c0 .393.01.78.029 1.16.373.224.866.473 1.14.583.972.39 2.219.584 3.764.47.634-.048.896.796.346 1.116-2.141 1.25-3.667 1.738-4.671 1.747.089.35.189.695.299 1.033a.5.5 0 1 1-.95.31 19.437 19.437 0 0 1-.85-4.148 11.123 11.123 0 0 1-4.092-4.512l-.093-.18c-.489-.915-.892-1.133-1.216-.979-.308.148-.6.65-.59.917.356 9.372 3.482 15 11.658 17.756-.806-1.733-1.3-3.559-1.274-5.154a.5.5 0 1 1 1 .016c-.06 3.654 2.989 8.805 5.872 10.42 2.049 1.146 3.655-1.291 2.395-5.756a.5.5 0 0 1 .963-.272c.238.845.377 1.643.43 2.38.584.116 1.182.21 1.79.285.313.02.63.038.95.054.08.004.156.027.221.064.777.063 1.571.095 2.38.095 1.806 0 3.519-.15 5.123-.444l.032-.007c.05-.75.19-1.564.434-2.427a.5.5 0 1 1 .962.272c-.312 1.107-.448 2.09-.445 2.923l.04.051-.039.009c.028 2.488 1.31 3.628 2.84 2.772 2.883-1.614 5.93-6.765 5.872-10.42a.5.5 0 0 1 1-.015 8.35 8.35 0 0 1-.059 1.102c1.442-1.709 2.5-3.753 3.115-6.107-1.137.196-2.742-.167-4.85-1.396-.55-.32-.288-1.164.347-1.117 1.515.112 2.787-.13 3.822-.6.413-.188 1.004-.696 1.283-.945.006-.173.012-.348.016-.526-1.495.186-3.263.004-5.362-.803-.596-.23-.468-1.109.17-1.158 1.282-.1 3.124-.538 4.973-2.025-.033-.258-.07-.516-.11-.774l-.04.02-.146.059c-1.044.397-2.683.397-5.057-.212-.612-.157-.597-1.032.02-1.167 1.316-.289 2.29-.746 2.975-1.318.296-.247.844-.97 1.222-1.727a30.823 30.823 0 0 0-2.757-6.23l.023.177.052.429.034.344a.5.5 0 1 1-.996.08l-.032-.314a21.77 21.77 0 0 0-.05-.411l-.063-.456c-.214-1.441-.545-2.898-1.015-4.206-1.078-3-2.619-4.523-4.71-4.091-1.562.323-2.08.865-1.982 1.716.078.683.44 1.418 1.343 2.822l.849 1.306c.755 1.179 1.071 1.785 1.275 2.494a.5.5 0 0 1-.961.276c-.17-.593-.467-1.154-1.178-2.264l-.985-1.519c-.88-1.39-1.24-2.16-1.337-3.002-.163-1.431.752-2.39 2.774-2.808 2.722-.562 4.627 1.32 5.853 4.732.24.664.443 1.361.615 2.073.611.87 1.183 1.786 1.709 2.738.268-.541.568-1.085.901-1.624 3.461-5.61 9.033-8.866 17.138-8.106a.5.5 0 0 1 .226.917c-1.324.86-1.753 1.984-1.522 3.34.13.763.462 1.539.906 2.265.128.208.243.378.334.504l.117.154c.318.393-.081.956-.557.785a5.687 5.687 0 0 0-.146-.05l-.352-.108a14.37 14.37 0 0 0-1.265-.311c-.745-.147-1.449-.22-2.07-.197-2.037.077-2.824 1.075-2.029 3.676a.5.5 0 0 1-.769.553c-1.5-1.074-3.323-1.284-5.392-.784-1.508.364-3.041 1.078-4.498 1.993l.348-.213c1.602 3.718 2.53 7.818 2.53 11.895 0 5.546-1.861 9.977-5.13 13.1-.993 3.398-3.478 6.952-5.934 8.327-2.299 1.287-4.15-.35-4.292-3.455a29.486 29.486 0 0 1-5.144.433c-1.249 0-2.468-.073-3.648-.217a69.266 69.266 0 0 1-1.682-.126c-.173 3.046-2.01 4.639-4.286 3.365-1.625-.91-3.262-2.772-4.472-4.913-9.295-2.775-12.909-8.803-13.296-18.959-.025-.66.485-1.535 1.159-1.857.935-.447 1.89.118 2.635 1.616l.144.279a10.082 10.082 0 0 0 2.967 3.409c-.014-.33-.02-.664-.02-1.002 0-3.92.858-7.862 2.348-11.465-1.168-.508-2.353-.877-3.506-1.051-2.105-.318-3.904.05-5.304 1.25a.5.5 0 0 1-.814-.483c.565-2.66-.305-3.586-2.34-3.485-.622.031-1.317.165-2.047.376-.431.125-.847.27-1.232.42l-.421.174-.062.028c-.46.21-.906-.315-.623-.734l.103-.164c.08-.133.18-.313.288-.531.38-.762.642-1.564.705-2.335.113-1.371-.412-2.453-1.806-3.195a.5.5 0 0 1 .145-.934c8.008-1.462 13.842 1.296 17.779 6.582.228.307.445.616.65.926a30.141 30.141 0 0 1 1.906-3.032c.192-.803.419-1.59.683-2.34 1.303-3.706 3.245-5.769 5.98-5.218zm-25.186 3.825-.422.05.063.058c.938.891 1.312 2.046 1.204 3.36l-.038.343a7.267 7.267 0 0 1-.471 1.697l-.104.242.236-.078.344-.104c.798-.232 1.566-.38 2.274-.415l.193-.007c2.162-.044 3.441 1.037 3.353 3.355l-.008.163.15-.085c1.433-.777 3.115-.978 4.97-.698 1.248.188 2.513.583 3.754 1.121.185-.41.38-.817.582-1.219a18.78 18.78 0 0 0-.916-1.346c-3.451-4.634-8.401-7.194-15.164-6.437zm66.15-2.136c-6.804-.165-11.512 2.817-14.546 7.734-.451.731-.84 1.47-1.17 2.2.127.257.253.514.375.774 1.4-.831 2.864-1.48 4.328-1.833 1.823-.44 3.516-.387 5.011.262l.158.072-.023-.162c-.29-2.301.89-3.49 3.048-3.634l.193-.01c.709-.027 1.487.054 2.302.215l.351.074.242.057-.124-.232a7.267 7.267 0 0 1-.617-1.65l-.068-.339c-.222-1.3.05-2.482.907-3.451l.057-.063z"/><path fill="#872e00" fill-rule="nonzero" d="M43.668 53.818c2.123.413 4.436.631 6.918.631 2.144 0 4.162-.163 6.04-.473l.403.943c-2.003.348-4.156.53-6.443.53-2.621 0-5.067-.24-7.312-.693zm-7.96-50.366c1.866-.033 2.467 1.1 3.03 4.246.365 1.877.61 3.023.733 3.438.112.377.377 1.066.644 1.686 3.022-1.52 6.569-2.373 10.47-2.373 4.35 0 8.26 1.06 11.492 2.922.22-.467.405-.964.56-1.517.206-.739.43-1.833.67-3.283.656-3.81 1.294-5.155 3.325-5.12 3.48.062 5.049 5.425 3.919 10.883-.35 1.687-1.072 3.577-2.013 5.108.28.427.541.868.785 1.32 2.844-.53 6.877-2.343 11.784-5.09.333-.186.75.01.77.394.21 3.986-1.922 9.674-8.553 14.326 4.055-.584 6.318-.95 8.845-1.777a.525.525 0 0 1 .688.516c-.133 3.265-3.751 7.845-9.288 10.553-.289 6-4.115 10.833-10.468 13.498l-.307-.95c3.478-1.474 6.134-3.624 7.796-6.263-.646.112-1.439.087-2.392-.105-.61-.122-.653-.978-.059-1.161 1.142-.353 2.038-.869 2.721-1.502.341-.316 1.065-1.115 1.537-1.963.035-.208.065-.418.09-.63l-.065.034c-.953.459-2.208.611-3.77.298-.61-.122-.653-.978-.059-1.162 1.146-.353 1.998-.877 2.606-1.523a3.92 3.92 0 0 0 .83-1.31c.093-.246.154-.524.201-.784a12.43 12.43 0 0 0-1.696-3.747.5.5 0 0 1-.079-.337c.087-.703.13-1.413.13-2.128 0-3.568-.949-6.84-2.66-9.607-.65.865-1.377 1.535-2.139 1.867-2.833 1.236-6.47-.762-6.419-3.737.012-.675.215-1.258.613-1.895.209-.334 1.13-1.563 1.326-1.853.105-.156.205-.312.3-.47-3.089-1.788-6.837-2.805-11.02-2.805-3.755 0-7.159.82-10.05 2.28l.059.112c.243.442.854 1.366 1.832 2.772.356.61.535 1.179.546 1.86.052 2.974-3.585 4.972-6.418 3.736-1.003-.437-1.944-1.46-2.734-2.736-2.071 2.94-3.235 6.527-3.235 10.476 0 .716.044 1.426.13 2.127a.5.5 0 0 1-.079.338 12.412 12.412 0 0 0-1.692 3.735c.317.918.927 1.803 1.213 2.106.607.646 1.46 1.17 2.605 1.523.595.184.551 1.04-.059 1.162-1.562.313-2.816.16-3.77-.298a6.914 6.914 0 0 1-.263-.133c.038.328.087.653.147.973.449.663 1.045 1.294 1.503 1.719.684.633 1.58 1.149 2.721 1.502.595.183.551 1.039-.059 1.161-.959.193-1.755.217-2.403.104 1.501 2.383 3.813 4.367 6.809 5.816l-.293.963c-6.015-2.855-9.51-7.775-9.51-13.798l.003-.275a19.454 19.454 0 0 1-2.694-1.466c-3.276-2.118-5.552-4.884-6-8.009a.5.5 0 0 1 .63-.552c2.579.72 5.026 1.021 9.088 1.079-6.974-4.207-8.737-9.668-8.737-13.66a.5.5 0 0 1 .75-.433c4.966 2.853 8.781 4.217 11.545 4.559.338-.58.71-1.141 1.11-1.68a16.836 16.836 0 0 1-1.491-4.178c-1.13-5.458.44-10.821 3.919-10.882zm46.01 26.356c-3.406 1.04-8.062 1.771-10.224 1.894l-.027.314c1.413 2.094 2.119 4.405 2.119 6.933l-.008-.395c2.213-1.16 6.925-4.164 8.14-8.746zm-61.68.006c.587 2.368 2.66 4.783 5.4 6.554.742.48 1.509.9 2.233 1.235.248-2.062 1.033-4.108 2.033-5.588a14.834 14.834 0 0 1-.104-1.3c-1.985.102-6.112-.041-9.561-.9zm60.808-12.9c-4.668 2.646-8.487 4.282-11.043 4.803 1.155 2.477 1.783 5.257 1.783 8.232 0 .107-.002.221-.005.344 2.675-1.899 8.804-6.925 9.265-13.38zm-59.94.024c.549 5.13 3.448 9.184 8.697 12.164.117-2.883.83-5.567 2.042-7.95-2.505-.34-5.626-1.433-10.74-4.214zM66.613 4.452c-1.233-.022-1.725.935-2.27 3.995-.27 1.64-.517 2.865-.744 3.676a10.508 10.508 0 0 1-1.465 3.16c-.778 1.067-1.214 1.675-1.307 1.824-.309.494-.452.907-.46 1.383-.04 2.197 2.814 3.765 5.018 2.803 1.814-.791 3.603-4.348 4.186-7.162 1.02-4.928-.357-9.634-2.958-9.68zm-30.888 0c-2.6.045-3.977 4.75-2.957 9.68.583 2.813 2.372 6.37 4.185 7.16 2.205.963 5.058-.605 5.02-2.802-.01-.498-.136-.902-.41-1.372-.081-.137-1.383-1.956-1.845-2.794-.36-.654-.981-1.957-1.207-2.903-.15-.631-.403-1.814-.759-3.547-.478-2.673-.886-3.442-2.027-3.422z"/><path fill="#872e00" fill-rule="nonzero" d="m59.832 43.425-.363.1-.426.109c-.636.16-1.347.318-2.113.467-2.187.425-4.38.68-6.43.68s-4.242-.255-6.429-.68a41.449 41.449 0 0 1-1.723-.372l-.39-.095c-.38-.095-.65-.168-.79-.21A.6.6 0 0 0 40.4 44c0 .285.04.758.16 1.357a9.146 9.146 0 0 0 1.113 2.917c1.594 2.661 4.462 4.258 8.827 4.258 4.366 0 7.234-1.597 8.828-4.258a9.146 9.146 0 0 0 1.112-2.917c.12-.6.16-1.072.16-1.357a.6.6 0 0 0-.768-.575z"/><path fill="#ff5038" d="M46.054 45.53s2.18.352 4.446.352 4.554-.352 4.554-.352-.054 2.569-.142 4.993c-.017.482-.872 5.282-4.412 5.282-3.539 0-4.396-4.847-4.414-5.34-.086-2.394-.032-4.935-.032-4.935z"/><g fill="#872e00" fill-rule="nonzero"><path d="M61.582 37.16c1.239-.276 2.553-.228 3.819.018l.338.07c.26.06.462.115.594.158a.5.5 0 0 1-.308.951l-.16-.047a8.96 8.96 0 0 0-.655-.15c-1.142-.223-2.326-.265-3.411-.024a5.865 5.865 0 0 0-.29.072l-.109.032h.08c1.547.018 2.797.356 3.772.938l.192.12c.656.428 1.045.874 1.223 1.2a.5.5 0 1 1-.878.48c-.104-.19-.384-.511-.892-.843-1.223-.8-3.05-1.134-5.622-.714a.5.5 0 0 1-.424-.856c.753-.715 1.678-1.172 2.73-1.406zM40.012 37.274c-1.204-.404-2.516-.495-3.8-.383l-.345.035c-.264.03-.471.065-.607.094a.5.5 0 0 0 .206.979l.164-.03c.163-.027.39-.057.668-.082 1.16-.1 2.341-.018 3.396.335.095.032.189.067.281.103l.104.043L40 38.36c-1.541-.145-2.82.06-3.852.536l-.203.099c-.697.357-1.13.76-1.342 1.066a.5.5 0 1 0 .823.57c.122-.178.435-.469.976-.746 1.3-.666 3.152-.807 5.667-.119a.5.5 0 0 0 .512-.807c-.674-.79-1.546-1.342-2.57-1.685z"/></g><path fill="#fff" d="M41.52 76.29c0-5.523.817-16.634 8.183-16.634s8.634 9.838 8.634 16.634c0 6.797-2.257 15.063-8.634 15.063-6.765 0-8.182-9.54-8.182-15.063z"/></g></svg>