<svg data-id="163-42011ba61515a4c-unhappy" xmlns="http://www.w3.org/2000/svg" viewBox="0 0 100 100"><g fill="none" fill-rule="evenodd"><path fill="#ffaf54" d="M44.175 89.02c-15.555 7.026 6.747 6.525 9.833 1.212.805-2.633-9.833-1.211-9.833-1.211z"/><path fill="#fff0d6" d="M58.735 60.121s13.277-6.549 21.97 6.507c-4.42-1.432-5.613 4.186-5.613 4.186s-3.004-8.573-6.913-2.775c-.362-6.076-9.444-7.918-9.444-7.918z"/><path fill="#ffaf54" d="M34.058 61.081c-5.808 4.044-3.705 14.396-.733 12.844 2.972-1.552 2.997-3.136 3.29-6.473-.295-1.905-2.548-7.312-2.557-6.37z"/><path fill="#ffaf54" d="M62.009 93.612c11.343 0 22.864-.723 28.148-5.564 1.007-.923.289-2.89-1.943-2.28-7.872 2.154-14.165.53-20.165-7.156-5.767-7.388-.79-24.79-20.074-27.874-6.314-1.01-8.218 1.818-11.552 4.848-5.012 7.467-4.98 17.39-1.369 25.16 3.611 7.772 15.612 12.866 26.955 12.866z"/><path fill="#fff0d6" d="M58.767 61.71s14.284-3.892 20.324 10.583c-4.066-2.25-6.31 3.036-6.31 3.036s-1.311-8.988-6.256-4.043c.805-6.034-7.758-9.576-7.758-9.576z"/><path fill="#ffaf54" d="M51.59 90.72c-16.327 7.084 3.55 7.62 8.575 2.428 1.163-2.495-8.576-2.427-8.576-2.427z"/><path fill="#fff0d6" d="M25.788 20.256c-1.397-4.658-.709-10.2 2.53-10.54 2.755-.289 2.47 3.947 4.19 7.7s3.589 4.135 3.804 6.185c.276 2.635-2.875 4.608-5.412 3.755-2.538-.853-4.586-5.346-5.112-7.1z"/><g fill="#ffaf54"><path d="M27.01 43.686s-8.208-3.281-9.542-9.302c5.339 1.427 9.673 1.915 9.673 1.915s-8.322-4.75-7.166-13.192c9.154 5.11 13.234 5 13.234 5z"/><path d="M43.721 15.4c12.27-1.07 21.15 6.692 22.06 17.14.064.737.082 1.468.056 2.191 1.542 1.939 2.505 4.171 2.716 6.597.766 8.798-6.651 16.631-21.016 17.883-14.364 1.25-23.024-5.182-23.79-13.98-.212-2.426.35-4.791 1.534-6.968-.15-.707-.26-1.43-.324-2.167-.91-10.448 6.495-19.628 18.764-20.696z"/><path d="M62.515 41.44S70.3 36.52 70.9 29.822c-5.149 2.44-9.41 3.7-9.41 3.7s7.72-6.518 5.546-15.395c-8.506 7.046-12.586 7.621-12.586 7.621z"/></g><path fill="#fff" d="M66.269 49.481c-2.804.897-13.68-2.4-20.838-12.367-7.157-9.968-7.347-19.686-7.347-19.686s10.415-1.638 10.137-.338c-.444 2.079-.3 6.115 3.443 13.052 5.974 11.07 16.644 14.825 16.644 14.825z"/><path fill="#fff" d="M65.269 51.481c-2.804.897-13.402-3.21-23.101-12.13S31.084 21.427 31.084 21.427l7.35-2.125s5.59 10.792 14.572 18.117c5.99 4.885 15.44 7.607 15.44 7.607s-.357 1.888-1.156 3.247-2.021 3.209-2.021 3.209z"/><path fill="#fff" d="M49.736 15.408c4.222.898 6.855 2.833 6.855 2.833-15.838 2.538-21.17-.003-31.787 16.166.001-11.236 8.04-19.874 24.932-19z"/><path fill="#fff0d6" d="M60.205 20.109c1.877-4.487 1.773-10.07-1.412-10.747-2.71-.576-3.269 3.818-4.974 7.219-1.706 3.4-4.002 3.735-4.43 5.752-.552 2.591 2.376 4.883 4.988 4.3 2.613-.581 5.121-4.835 5.828-6.524z"/><g fill="#872e00" fill-rule="nonzero"><path d="M48.554 19.516c.135 2.616 1.209 6.044 3.553 10.389a31.165 31.165 0 0 0 4.283 6.063 33.955 33.955 0 0 0 8.17 6.616c1.016.59 2.853 1.473 3.898 1.635-.15.75-.423 1.09-.82 1.021-.801-.231-2.533-1.183-3.581-1.792a34.946 34.946 0 0 1-8.41-6.811 32.163 32.163 0 0 1-4.42-6.258c-2.447-4.535-3.566-8.158-3.678-10.97-.024-.612.96-.753 1.005.107z"/><path d="M39.74 20.622c.095.166.449.745 1.06 1.736a70.676 70.676 0 0 0 5.41 7.507c2.244 2.71 4.621 5.132 7.115 7.165 1.276 1.04 2.775 2.034 4.459 2.975 2.299 1.286 4.82 2.414 7.378 3.374.477.18 1.41.504 2.797.973.3.303.45.662.45 1.078-.788-.045-3.404-1.042-3.599-1.115-2.601-.976-5.167-2.124-7.514-3.437-1.732-.969-3.279-1.993-4.603-3.073-2.548-2.077-4.97-4.545-7.252-7.302a71.666 71.666 0 0 1-5.488-7.614c-.463-.74-.626-1.276-.99-1.908zM32.743 25.197c1.177 2.983 2.95 6.097 5.438 9.182a42.54 42.54 0 0 0 4.328 4.605c8.09 7.438 18.511 12.605 22.177 12.115.315.621.423.94.325.957-4.028.685-14.804-4.635-23.179-12.336a43.54 43.54 0 0 1-4.43-4.713c-2.554-3.167-4.376-6.369-5.589-9.444z"/><path d="m51.02 19.51-6.45.821c-6.856 1.075-10.55 3.034-15.143 8.586-1.947 2.541-3.347 4.463-4.202 5.764-.182.277-.478.068-.889-.627.42-.606 1.67-2.299 3.754-5.078 5.12-6.405 9.106-8.558 16.75-9.697l4.418-.555 2.66-.339z"/><path d="M54.743 12.959c1.31-3.39 2.198-4.513 4.132-4.102 3.404.723 3.92 6.288 1.77 11.43a13.79 13.79 0 0 1-.02.046c.381.371.746.758 1.093 1.16 2.081-1.391 3.746-2.646 4.994-3.765a.5.5 0 0 1 .823.268c.846 3.981.318 7.727-1.82 11.256.17.69.306 1.396.405 2.12a74.985 74.985 0 0 0 4.561-1.99c.355-.17.768.096.73.491-.278 2.803-1.492 5.023-3.456 7.363.569 1.181.854 2.234 1.011 3.522l.043.411c.843 9.634-7.541 17.223-21.474 18.442s-23.508-4.798-24.35-14.433a11.984 11.984 0 0 1 .138-3.175l-.192-.123c-3.103-2.023-5.295-4.475-5.991-7.376a.5.5 0 0 1 .606-.602 76.68 76.68 0 0 0 6.82 1.364l-.229-.036a20.542 20.542 0 0 1-.022-.695c-3.427-3.055-5.426-6.914-4.876-11.527a.5.5 0 0 1 .732-.382c2.292 1.228 4.361 2.192 6.213 2.926.215-.42.446-.829.692-1.229a16.853 16.853 0 0 1-1.849-4.033c-1.601-5.338-.506-10.818 2.956-11.182 1.594-.167 2.422.78 3.077 2.882.093.3.57 2.064.857 3.035l.131.427c.196.601.402 1.141.634 1.645.158.346.32.669.488.974 2.882-1.786 6.348-2.948 10.243-3.289 3.594-.314 6.95.123 9.92 1.18.154-.328.308-.685.47-1.082l.153-.387zm-1.673 3.9c-2.806-.977-5.973-1.378-9.37-1.08-11.66 1.02-19.23 9.669-18.312 20.172.063.713.168 1.416.316 2.108a.5.5 0 0 1-.05.343c-1.164 2.142-1.673 4.412-1.473 6.69l-.027-.37.088.018c1.382.41 2.476.43 3.319.185l.177-.057c.4-.14.638-.301.729-.396l.067-.06a.5.5 0 0 1 .656.75c-.195.204-.563.455-1.122.65-1.068.375-2.434.385-4.11-.113l.3.084a12.929 12.929 0 0 0 2.98 6.697l-.269.1c2.36-.943 4.437-.551 6.106.59.396.27.674.52.829.687a.5.5 0 0 1-.737.677 4.068 4.068 0 0 0-.657-.539c-1.26-.862-2.779-1.215-4.526-.708 3.977 3.995 10.81 6.085 19.464 5.328 6.45-.565 11.63-2.51 15.184-5.38-2.383.17-5.112-.335-7.982-1.856-.59-.314-.303-1.213.36-1.125 1.916.252 3.712.237 5.38.003 1.845.643 3.354.924 4.529.842.833-1.112 1.493-2.19 1.98-3.234l.011-.007c.094-.206.182-.414.265-.625.257-.636.449-1.26.574-1.87a48.826 48.826 0 0 1-3.353-1.201 12.145 12.145 0 0 0 2.728-2.01c.307-.301.67-.812.869-1.098a11.128 11.128 0 0 0-.75-2.999c-.251.28-.512.562-.783.848-.86.908-3.502 2.842-3.73 2.999a.5.5 0 1 1-.567-.823c.227-.157 7.05-4.68 8.093-10.242-3.01 1.253-8.083 3.02-8.595 3.19-.513.172-.895-.479-.496-.843s6.8-5.721 5.547-14.134c-1.925 1.79-6.857 4.929-9.867 6.703-.78.687-1.594 1.18-2.38 1.355-3.017.673-6.206-1.983-5.588-4.893.141-.661.45-1.194.963-1.743.207-.222.929-.883 1.363-1.289l.292-.277a9.514 9.514 0 0 0 1.5-1.913zM34.424 44.84a.5.5 0 0 1 .684.182c.476.821 1.455 1.406 2.82 1.768.931.246 1.968.37 3.014.402.301.01.58.01.83.004l.303-.01a.5.5 0 1 1 .063.997c-.066.004-.182.01-.344.013l-.276.004c-.19 0-.393-.002-.606-.008-1.116-.034-2.226-.167-3.24-.436-1.597-.422-2.794-1.138-3.43-2.233a.5.5 0 0 1 .182-.683zm-16.069-9.762.017.048c.827 2.248 2.72 4.23 5.305 5.917l-.12-.08c.26-.967.64-1.923 1.133-2.877a17.272 17.272 0 0 1-.298-2.048l.022.217-.834-.133a77.864 77.864 0 0 1-5.19-1.035zm2.013-11.217-.015.344c-.09 3.484 1.438 6.486 3.987 8.984.126-2.392.68-4.66 1.609-6.735a58.694 58.694 0 0 1-5.201-2.395zm44.58 6.551-.06.084c-.458.631-.97 1.255-1.536 1.872a35.36 35.36 0 0 0 1.806-.625 18.12 18.12 0 0 0-.21-1.33zM58.666 9.835c-1.17-.249-1.83.537-2.889 3.223l-.771 2.004-.217.53c-.183.437-.362.83-.547 1.198-.566 1.13-1.217 1.999-2.04 2.823-.234.233-1.073.996-1.467 1.376l-.164.165c-.398.426-.617.803-.716 1.269-.457 2.15 2.044 4.233 4.392 3.71 1.93-.431 4.366-3.581 5.475-6.232 1.942-4.644 1.488-9.525-1.056-10.066zm-28.362 2.452c-.53-1.7-1.043-2.287-2.018-2.184-2.587.272-3.548 5.08-2.102 9.9a15.89 15.89 0 0 0 1.504 3.39 19.2 19.2 0 0 1 4.842-4.776 15.288 15.288 0 0 1-1.233-2.855 33.375 33.375 0 0 1-.305-1.024zm29.87 9.01-.033.068c-.321.624-.693 1.25-1.102 1.848a99.422 99.422 0 0 0 1.835-1.166c-.226-.256-.459-.507-.7-.75z"/><path d="M59.575 55.702a16.45 16.45 0 0 1 2.013 2.825c.783-.2 1.606-.362 2.462-.472 6.538-.84 12.574 1.44 17.085 8.217a.5.5 0 0 1-.57.753c-1.388-.45-2.469-.166-3.341.694.882 1.25 1.668 2.678 2.344 4.298a.5.5 0 0 1-.704.63c-1.382-.765-2.575-.617-3.663.224-.613.474-1.142 1.131-1.575 1.864-.186.315-.31.566-.37.707-.197.465-.881.377-.954-.123a5.687 5.687 0 0 0-.025-.153l-.07-.362a14.37 14.37 0 0 0-.318-1.262c-.22-.727-.486-1.383-.799-1.921-1.024-1.763-2.275-1.988-4.197-.065a.5.5 0 0 1-.85-.42c.23-1.715-.347-3.326-1.586-4.833l.028.123.04.17.827 3.704c.946 4.172 1.657 6.165 3.005 7.893 5.632 7.214 11.579 9.187 19.64 6.982 2.498-.684 3.985 1.689 2.412 3.13-4.55 4.168-13.012 5.61-27.182 5.692l-1.304.004c-.696 0-1.392-.019-2.086-.055-2.706 2.153-8.204 3.401-12.106 2.994-2.186-.228-3.455-1.024-2.954-2.39l.015-.036c-.943.103-1.884.148-2.788.128-2.422-.054-3.944-.611-3.874-1.86.06-1.075 1.537-2.29 4.515-3.747-3.745-2.192-6.647-4.998-8.13-8.189a28.172 28.172 0 0 1-2.076-6.362c-1.418-.147-2.472-2.246-2.631-4.959-.194-3.312.934-6.553 3.324-8.539a23.56 23.56 0 0 1 1.422-3.458l.936.366c-3.396 6.607-3.43 14.963-.26 22.107l.192.424c2.134 4.594 7.483 8.394 14.062 10.575a45.726 45.726 0 0 1 1.82-.834.5.5 0 0 1 .398.918c-3.683 1.597-5.666 2.937-5.986 3.811-.17.461.5.882 2.118 1.05 3.943.412 9.73-1.01 11.888-3.239a.5.5 0 0 1 .853.27c.448.017.898.025 1.348.025 14.689 0 23.385-1.378 27.81-5.433.768-.704.052-1.846-1.473-1.428-7.814 2.138-13.843.493-19.355-5.724a7.118 7.118 0 0 1-1.32.942c-1.844 1.046-4.196 1.493-7.06 1.016-.593-.098-.688-.913-.132-1.145.581-.243 1.129-.497 1.644-.762 1.526-.784 2.7-1.618 3.567-2.446a7.99 7.99 0 0 0 .83-.982c-.099-.192-.195-.39-.288-.597-.483.262-1.122.567-1.477.715-1.992.833-4.075 1.148-6.084.63-.57-.146-.61-.943-.055-1.144.938-.341 1.795-.72 2.572-1.131 1.206-.637 2.165-1.315 2.902-1.989.331-.303.67-.733.858-.986-.071-.268-.14-.548-.211-.84-.313.186-.75.413-1.291.637-1.874.778-3.891 1.059-5.911.538-.575-.148-.609-.952-.048-1.147a14.078 14.078 0 0 0 3.526-1.797 11.54 11.54 0 0 0 2.09-1.88c.13-.153.384-.48.634-.8l-.078-.336-.4-1.594a41.21 41.21 0 0 0-.12-.44 17.265 17.265 0 0 0-2.72-1.907 19.22 19.22 0 0 0-1.603-.823l-.14-.06a.5.5 0 0 1 .059-.945l.057-.015.389-.09c.35-.073.75-.143 1.194-.203.417-.057.845-.102 1.283-.133-.748-1.66-1.64-3.09-2.728-4.31zm-15.86 33.931-.044.02c-3.018 1.419-4.507 2.562-4.542 3.185-.022.376 1.035.763 2.897.804a21.007 21.007 0 0 0 3.611-.252c.588-.549 1.456-1.133 2.61-1.758a34.647 34.647 0 0 1-4.531-1.999zm20.586-27.944a19.53 19.53 0 0 0-3.877.137l-.076.01.136.073.346.195c1.579.906 3.01 1.987 4.122 3.24 1.245 1.402 1.992 2.923 2.121 4.547l.01.174.133-.097c1.896-1.336 3.5-.852 4.64.985l.099.166c.356.613.65 1.338.89 2.133l.1.345.064.24.146-.218c.343-.491.732-.94 1.167-1.32l.267-.219c1.043-.806 2.215-1.12 3.474-.82l.082.022-.187-.382c-3.048-6.084-7.891-8.84-13.657-9.211zm-18.349 1.805a.5.5 0 0 1 .663-.247c1.428.654 3.342 2.67 4.43 4.673 1.345 2.48 1.272 4.58-.76 5.425-2.703 1.123-4.747-.9-7.24-5.732l-.328-.646a48.842 48.842 0 0 1-.128-.258l-1.358-2.784a.5.5 0 1 1 .895-.446c.175.352.878 1.804 1.278 2.62l.531 1.059c2.242 4.338 3.995 6.083 5.966 5.263 1.317-.547 1.367-1.993.265-4.024-.992-1.828-2.758-3.687-3.967-4.24a.5.5 0 0 1-.247-.663zm-13.384-.464c-1.299 1.742-1.901 4.062-1.762 6.437.117 1.995.733 3.435 1.428 3.865-.54-3.457-.435-6.976.334-10.302zm46.774 2.453c-4.153-5.39-9.433-7.172-15.164-6.436-.727.093-1.43.226-2.103.388.199.393.388.8.568 1.218.56-.012 1.136 0 1.722.038 4.843.31 9.097 2.231 12.256 6.222.803-.75 1.772-1.144 2.893-1.096l.085.005z"/></g><path fill="#fff" d="M33.972 76.166c-1.653-7.203-.339-14.036 4.589-12.852 4.352 1.045 4.48 8.4 5.069 13.565.499 4.386 3.518 10.28 6.89 13.639l-1.131.535c-9.405-3.468-13.914-8.336-15.417-14.887z"/></g></svg>