<svg data-id="167-ae1d89c4db3cf4e-eating" xmlns="http://www.w3.org/2000/svg" viewBox="0 0 100 100"><g fill="none" fill-rule="evenodd"><path fill="#ffaf54" d="M54.427 63.388s-17.784 2.331-17.312-2.765c.473-5.096 13.63-2.898 13.63-2.898zM50.175 88.02c-15.187 9.288 4.577 7.053 8.833 1.212.805-2.634-8.833-1.212-8.833-1.212z"/><path fill="#fff0d6" d="M68.199 65.67s2.51-14.597 18.19-13.951c-3.76 2.734.084 7.004.084 7.004s-8.704-2.612-6.312 3.962C75.031 59.404 68.2 65.67 68.2 65.67z"/><path fill="#ffaf54" d="M70.009 92.612c17.435.49 25.726-13.246 26.715-24.715.068-.784-1.334-1.75-2.236-.144-2.43 4.325-8.185 11.324-16.058 9.382-12.22-3.013 4.796-20.526-14.455-27.398-5.858-2.09-11.218 1.819-14.552 4.848-5.012 7.468-9.636 14.817-6.369 25.162 3.267 10.344 14.001 12.5 26.955 12.865z"/><path fill="#fff0d6" d="M70.093 66.17s4.76-14.027 20.148-10.94c-4.141 2.115-1.01 6.933-1.01 6.933s-8.19-3.94-6.855 2.928c-4.555-4.043-12.283 1.079-12.283 1.079z"/><g fill="#ffaf54"><path d="M61.082 90.444c-15.187 9.287 4.577 7.053 8.833 1.212.804-2.634-8.833-1.212-8.833-1.212zM53.897 68.202s-17.894-1.414-16.372-6.305c1.521-4.89 13.944-.004 13.944-.004zM34.589 39.826c-.503.64-7.705-6.715-7.037-12.557 4.833 4.136 9.055 5.425 9.055 5.425s-8.409-6.948-6.124-15.02c8.057 8.188 12.215 8.62 12.215 8.62z"/></g><path fill="#fff0d6" d="M34.007 16.518c-.987-4.76.18-10.22 3.434-10.278 2.77-.049 2.118 4.145 3.506 8.033 1.388 3.887 3.215 4.429 3.251 6.489.047 2.648-3.262 4.34-5.715 3.27-2.453-1.07-4.104-5.722-4.476-7.514z"/><path fill="#ffaf54" d="M52.313 13.242c12.321 0 20.5 8.507 20.5 19 0 .74-.046 1.471-.135 2.19 1.37 2.066 2.135 4.374 2.135 6.81 0 8.837-8.074 16-22.5 16-14.427 0-22.5-7.163-22.5-16 0-2.436.765-4.744 2.134-6.811a17.766 17.766 0 0 1-.134-2.189c0-10.493 8.178-19 20.5-19z"/><path fill="#ffaf54" d="M68.168 42.712s8.339-4.743 9.683-11.9c-5.425 2.263-9.83 3.32-9.83 3.32s8.45-6.466 7.258-16.158c-9.296 6.977-13.445 7.31-13.445 7.31z"/><path fill="#fff0d6" d="M68.3 19.354c2.26-4.305 2.64-9.875-.473-10.826-2.65-.809-3.587 3.52-5.58 6.758-1.995 3.239-4.31 3.374-4.912 5.345-.774 2.533 1.943 5.07 4.596 4.716 2.652-.353 5.52-4.372 6.37-5.993z"/><path fill="#872e00" fill-rule="nonzero" d="M37.434 5.746c1.603-.028 2.345.988 2.814 3.14.067.306.389 2.105.59 3.097l.093.437c.143.616.301 1.172.488 1.694.127.359.26.694.401 1.012 3.028-1.528 6.582-2.384 10.493-2.384 3.572 0 6.846.714 9.693 2.001.195-.332.392-.694.6-1.103.062-.119.124-.241.188-.371l.85-1.744c1.524-3.053 2.504-4.022 4.342-3.46 3.328 1.017 3.358 6.606.767 11.54l-.04.077c.405.465.787.95 1.144 1.453a71.785 71.785 0 0 0 5.132-3.54.5.5 0 0 1 .797.339c.503 4.1-.578 7.873-2.705 11.225.153 1 .232 2.03.232 3.083l-.003-.206a75.548 75.548 0 0 0 4.357-1.658.5.5 0 0 1 .684.554c-.463 2.46-1.714 4.761-3.535 6.882.29.983.455 1.991.49 3.015l.007.413c0 4.446-1.905 8.29-5.322 11.148 1.262 1.029 2.22 2.193 2.914 3.501 3.204-3.163 7.637-4.93 13.489-4.69a.5.5 0 0 1 .274.904c-.864.628-1.313 1.355-1.42 2.175 1.583-.051 3.268.094 5.058.453a.5.5 0 0 1 .13.936c-1.407.718-1.952 1.79-1.863 3.163.05.772.299 1.579.664 2.347.105.22.202.402.28.536l.1.166c.275.424-.18.942-.636.723a5.687 5.687 0 0 0-.14-.065l-.34-.145a14.37 14.37 0 0 0-1.224-.442c-.726-.224-1.418-.37-2.04-.412-2.033-.137-2.92.775-2.4 3.444a.5.5 0 0 1-.823.47c-1.38-1.225-3.171-1.625-5.281-1.344-.783.104-1.582.298-2.381.563l-.043.703-.145 2.023c-.407 6.071.234 8.095 3.959 9.139l.427.112c6.254 1.542 11.867-2.674 15.502-9.142.516-.918 1.296-1.292 2.064-1.058.665.203 1.162.845 1.107 1.49-1.232 14.27-11.558 25.612-27.228 25.172l-.737-.023c-2.569 2.262-7.385 4.003-11.033 4.134-2.196.078-3.563-.534-3.257-1.955.192-.894 1.179-2.003 2.997-3.35-.338-.07-.671-.141-.999-.217-2.688 1.74-6.58 2.989-9.648 3.098-2.195.079-3.563-.533-3.257-1.955.244-1.134 1.768-2.616 4.65-4.492-2.968-2.016-4.97-4.772-6.134-8.455-1.465-4.64-1.458-8.907-.17-13.179a20.01 20.01 0 0 1-2.271-.834c-2.284-1.02-3.473-2.284-3.163-3.825-.27-.43-.388-.926-.336-1.491.204-2.203 2.306-3.341 5.687-3.7a21.77 21.77 0 0 1 1.417-.102c-8.987-2.211-14.428-8.01-14.428-15.524 0-1.66.34-3.285 1-4.833a4.423 4.423 0 0 1-.094-.127c-2.22-3.107-3.482-6.324-3.167-9.061a.5.5 0 0 1 .822-.323 32.868 32.868 0 0 0 3.61 2.692c.08-.618.189-1.225.325-1.82-2.007-3.325-2.782-6.785-1.808-10.225a.5.5 0 0 1 .838-.215 59.935 59.935 0 0 0 3.987 3.726c.059-.084.119-.166.18-.248a16.887 16.887 0 0 1-1.491-4.18c-1.13-5.458.44-10.821 3.919-10.882zm31.753 47.277-.13.096c-4.001 2.916-9.751 4.623-16.744 4.623-1.465 0-2.876-.075-4.227-.22-.551.86-1.043 1.65-1.484 2.393.146.032.292.068.439.104 1.114.279 2.214.609 3.251.96l.52.18.783.288.047.018a.5.5 0 0 1-.366.93l-.346-.13a40.865 40.865 0 0 0-4.131-1.275c-1.255-.314-2.443-.538-3.526-.65-2.958-.308-4.806.237-5.274 1.739-.319 1.025.532 1.993 2.544 2.891 1.462.653 3.434 1.214 5.772 1.687 1.7.343 3.493.62 5.264.834l.72.084.67.072.953.09a.5.5 0 1 1-.079.996l-.656-.06-.652-.066c-.34-.036-.7-.077-1.076-.123a69.679 69.679 0 0 1-5.342-.847c-.98-.198-1.9-.412-2.748-.642-1.236 4.087-1.243 8.153.162 12.601 2.053 6.5 6.943 9.963 15.573 11.52a46.58 46.58 0 0 1 1.717-1.099.5.5 0 1 1 .522.854l-.642.399c-3.006 1.899-4.572 3.357-4.756 4.208-.103.48.619.804 2.244.746 3.962-.142 9.495-2.356 11.322-4.863a.5.5 0 1 1 .808.59l-.125.165c14.994.338 24.848-10.533 26.032-24.262.013-.146-.165-.375-.402-.447-.29-.089-.603.061-.9.591-3.749 6.67-9.553 11.111-16.183 9.72-.423.553-1.425 1.486-1.879 1.808-2.025 1.44-4.472 2.134-7.297 1.664-.575-.096-.69-.872-.167-1.13 2.113-1.042 3.642-2.098 4.682-3.108.445-.431.724-.774.878-1.005a5.077 5.077 0 0 1-.378-.388 16.76 16.76 0 0 1-1.582.715c-1.87.721-3.782 1.055-5.593.775a7.58 7.58 0 0 1-.734-.15c-.571-.147-.61-.944-.055-1.145a20.868 20.868 0 0 0 2.59-1.137c1.1-.58 2.838-1.8 3.873-2.954a7.423 7.423 0 0 1-.034-.425c-2.345 1.024-4.524 1.257-6.51.745-.575-.148-.609-.952-.048-1.147a15.477 15.477 0 0 0 3.733-1.896 14.428 14.428 0 0 0 3.033-2.801l.037-.516c.014-.202.027-.393.038-.575-.428.175-.855.367-1.277.574a19.22 19.22 0 0 0-1.578.868l-.13.083a.5.5 0 0 1-.75-.577l.02-.057.144-.371c.135-.331.3-.702.499-1.105a20.524 20.524 0 0 1 2.945-4.417c-.445-2.879-1.675-5.18-4.014-7.023zM49.64 88.943l-.153.098c-2.806 1.804-4.273 3.191-4.45 4.013-.103.48.62.804 2.245.746 2.591-.093 5.855-1.072 8.314-2.44-2.28-.618-4.259-1.414-5.956-2.417zm38.84-33.5c-6.749-.874-11.743 1.599-15.274 6.172a19.53 19.53 0 0 0-2.054 3.29l-.034.07.136-.072.356-.178c1.634-.802 3.33-1.385 4.99-1.606 1.86-.248 3.538-.017 4.956.784l.15.089-.006-.164c-.048-2.32 1.25-3.377 3.411-3.296l.193.01c.708.048 1.473.21 2.267.455l.341.11.235.082-.1-.244a7.267 7.267 0 0 1-.44-1.705l-.033-.344c-.085-1.315.31-2.463 1.263-3.338l.063-.056zM42.43 57.863c-2.958.314-4.652 1.231-4.797 2.798l-.003.024c1.032-1.244 3.04-1.62 5.747-1.34.697.073 1.433.19 2.197.343.35-.596.732-1.223 1.152-1.889a31.412 31.412 0 0 0-.713-.033c-1.292-.046-2.5-.018-3.583.097zm42.697-5.682-.425.008c-4.886.138-8.608 1.84-11.345 4.667.3.719.528 1.477.695 2.277 2.7-2.717 6.077-4.437 10.185-4.794a3.804 3.804 0 0 1 .836-2.092zM52.313 13.742c-11.705 0-20 7.957-20 18.5 0 .716.044 1.426.13 2.127a.5.5 0 0 1-.079.338c-1.346 2.032-2.051 4.25-2.051 6.535 0 3.237 1.09 6.142 3.107 8.538l.012.086c-.16-.909.069-1.585.573-2.031-.598-.394-.953-1.054-.953-1.99 0-1.382.778-2.093 1.955-2.178a4.3 4.3 0 0 1 1.247.112l.215.053c.096.026.174.05.23.07a.5.5 0 1 1-.33.943l-.131-.04a4.307 4.307 0 0 0-.205-.051 3.342 3.342 0 0 0-.954-.09c-.686.05-1.027.362-1.027 1.18 0 .844.378 1.24 1.087 1.383l.176.028.026-.005c.27-.047.538-.065.804-.063l.339.012h.024l.01.001.024.002.026.003a.507.507 0 0 1 .034.005l.025.007.017.004.012.004.056.016c.088.027.138.058.165.132l.015.014.078.137.001.35-.072.115v.013l-.018.014-.017.03-.032.014-.084.076a.112.112 0 0 1-.03.016l-.104.036-.089.017c-.016.007-.02.007-.024.007l-.033.006a4.446 4.446 0 0 1-1.106.049l-.049.01c-.727.18-1.045.572-.896 1.416.15.845.552 1.161 1.213 1.173.47.007.98-.144 1.329-.31a.5.5 0 0 1 .428.904c-.477.226-1.119.416-1.774.405l-.045-.001c3.827 3.06 9.585 4.878 16.745 4.878 6.475 0 11.804-1.487 15.595-4.035h.01c-2.397-.038-5.072-.78-7.798-2.545-.561-.364-.197-1.234.456-1.09 3.009.667 5.771.632 8.246.08.828-.184 2.426-.726 3.91-1.6.079-.142.153-.284.225-.428-.454.124-1.023.24-1.693.323-2.911.36-6.157-.147-9.564-1.905-.63-.325-.273-1.283.417-1.116 3.272.794 6.176.426 8.702-.769.97-.459 1.815-1.01 2.53-1.6.282-.231.68-.608.963-.922a11.114 11.114 0 0 0-.295-2.436 26.833 26.833 0 0 1-1.563 1.5 28.49 28.49 0 0 1-2.814 2.195l-.465.311-.216.14-.498.305-.045.026a.5.5 0 0 1-.494-.87l.306-.184c.252-.156.537-.34.848-.553a27.497 27.497 0 0 0 2.714-2.118c2.616-2.32 4.52-4.898 5.327-7.66l.033-.122-.885.35a77.62 77.62 0 0 1-4.366 1.54l-.846.265-.906.272c-.29.085-.568.164-.833.238l-.81.218c-.16.041-.283.072-.364.091-.525.126-.85-.555-.42-.883l.127-.101c.15-.121.362-.304.626-.544.59-.54 1.208-1.17 1.825-1.889 2.983-3.471 4.783-7.504 4.596-11.948l-.02-.353-.256.188-.99.71c-3.089 2.185-5.755 3.735-8.016 4.752l-.338.15c-.864.375-1.579.635-2.149.807-.38.168-.757.282-1.123.33-3.064.408-6.01-2.516-5.14-5.361.198-.646.553-1.15 1.111-1.653.248-.223 1.163-.921 1.601-1.267l.185-.149a9.5 9.5 0 0 0 1.704-1.837c-2.69-1.192-5.779-1.853-9.15-1.853zm-6.32 23.432a2 2 0 1 1 .348 3.985 2 2 0 0 1-.349-3.985zm-12-2a2 2 0 1 1 .348 3.985 2 2 0 0 1-.349-3.985zm-5.984-6.865.006.145c.114 2.111 1.142 4.535 2.79 6.921.218-.412.46-.82.726-1.22l-.1.153-.04-.374a18.262 18.262 0 0 1-.07-1.125l-.008-.567c0-.52.019-1.034.057-1.542a32.961 32.961 0 0 1-3.154-2.223zm44.218 2.098-.14.19a24.76 24.76 0 0 1-1.995 2.338l-.188.189.4-.117.455-.139c.51-.156 1.028-.321 1.55-.494l.004-.132c0-.62-.03-1.233-.086-1.835zM30.763 18.67l-.03.153c-.442 2.52.115 5.068 1.444 7.57a18.556 18.556 0 0 1 2.084-4.505 58.135 58.135 0 0 1-3.307-3.028zm36.93-9.649c-1.217-.372-1.962.474-3.415 3.482l-.686 1.406-.262.51c-.221.419-.433.794-.65 1.145a10.508 10.508 0 0 1-2.278 2.634c-.23.194-.997.778-1.454 1.142l-.306.251c-.433.39-.684.747-.824 1.202-.642 2.102 1.669 4.395 4.053 4.078 1.96-.26 4.661-3.186 5.997-5.73 2.34-4.457 2.313-9.36-.175-10.12zm.487 11.578-.022.037a17.14 17.14 0 0 1-1.981 2.568c.88-.435 1.821-.949 2.823-1.546a16.874 16.874 0 0 0-.82-1.06zM37.451 6.746c-2.6.045-3.977 4.75-2.957 9.68a15.89 15.89 0 0 0 1.203 3.509 19.206 19.206 0 0 1 5.24-4.336c-.162-.36-.315-.741-.46-1.149-.2-.561-.369-1.153-.52-1.804a33.374 33.374 0 0 1-.214-1.047l-.472-2.5c-.38-1.74-.84-2.37-1.82-2.353z"/><path fill="#fff" d="M44.465 67.345c3.15.6 6.044 1.082 8.534 1.29.09 2.717-.37 5.897-.37 8.244 0 4.723 2.225 11.114 6.265 13.855-8.794-2.26-14.358-7.163-15.333-14.42-.425-3.164-.068-6.397.87-8.883z"/><path fill="#872e00" d="M11.272 26.033c2.833 16.893 20.054 30.186 26.949 34.898l-.88 1.373c-7.14-4.623-24.724-17.787-26.463-36.27 0 0 .22-.741.394 0z"/><g fill-rule="nonzero"><path fill="#ff4e21" d="m11.182 33.598-.223 2.948c-.097 2.519 1.113 5.165 2.995 7.197-3.188-1.9-7.192-1.875-10.897-.446L-.631 44.72l3.92.503c2.197.281 3.673.944 5.11 2.118 1.438 1.174 2.922 3.515 6.541 4.245-1.289.94-1.55 1.272-2.092 1.87-.189.208-.67.824-1.444 1.847-1.01 1.372-1.831 2.063-3.831 2.954L4.778 59.5l2.99.646c7.107 1.534 10.76-.015 15.738-5.139l1.525-1.605c2.617-2.729 4.115-3.895 6.39-4.73l2.368-.722-1.292-1.182c-.585-.535-1.784-1.347-3.527-1.956s-2.378-1.877-2.919-3.646c-.99-3.537-2.23-5.319-6.004-7.074l-1.156-.537-.246 1.25c-.231 1.257.73 3.138 1.923 5.251-1.362-.99-2.633-1.588-4.379-2.12-1.746-.531-2.517-.975-3.414-2.186z"/><path fill="#ffae1d" d="M11.971 36.344c2.909 3.929 6.152 1.13 10.217 7.044 1.244-2.024-2.942-6.458-2.562-8.39 7.704 3.583 3.55 8.628 8.743 10.657 1.599.512 2.75 1.13 3.453 1.85-.251.078-.5.153-.745.228C22.46 50.898 21.508 62.09 7.98 59.17c5.693-2.535 2.977-4.522 10.406-8.562-8.376.94-6.919-5.346-14.969-6.377 8.492-3.275 12.396 3.411 14.347 1.161-3.107-1.532-6.079-5.341-5.792-9.047z"/><path fill="#ffc75e" d="M13.687 39.345c.346 1.354 2.427 3.794 4.32 4.822l1.68.836-1.018 1.174a2.515 2.515 0 0 1-1.128.765c-.756.246-1.484.128-2.457-.265-1.5-.697-2.456-1.129-2.867-1.296-1.353-.548-2.66-.859-4.02-.881.89.494 1.957 1.359 3.203 2.596 2.163 2.048 3.478 2.65 6.548 2.35l6.399-.716-5.389 2.93c-4.73 2.206-4.79 5.404-7.482 6.818 2.766.51 6.992-1.38 10.724-5.285l1.25-1.319c2.21-2.305 3.811-3.297 5.706-4.618-2.385-.98-4.337-2.457-5.142-5.216-.805-2.758-1.67-3.86-2.143-4.233.927 1.6 2.125 4.791 1.425 6.063l-1.052 1.718-1.044-1.52c-1.401-2.038-2.649-2.993-4.301-3.596-.2-.073-1.968-.644-3.212-1.127z"/></g><path fill="#8f3faf" d="M25.929 53.455c2.95-1.917 2.936-5.54 1.019-8.491-.834-1.285-2.876-3.093-5.896-5.888s-4.09-8.345-8.165-5.698c-4.075 2.646.606 6.231 1.864 9.79 1.259 3.56 2.213 6.22 3.155 7.67 1.916 2.95 5.072 4.533 8.023 2.617z"/><path fill="#1aaf5d" d="M11.11 33.67c-.49.983.055 3.038.055 3.038s.877-.863 1.234-1.36c.236-.328.624-1.075.624-1.075s.425.626.68.956c.276.358.916 1.106.916 1.106s.224-.908.275-1.517c.024-.287-.048-1.173-.048-1.173s.861.417 1.312.6c.512.206 1.575.565 1.575.565s-.598-1.897-1.533-2.462c-.934-.565-2.308-.437-2.308-.437s-.246-.438-.225-1.13.135-1.173.135-1.173l-.954.05s.013.625.063.953c.076.495.317 1.515.317 1.515s-1.628.56-2.118 1.544z"/><g fill-rule="nonzero"><path fill="#a37539" d="m11.17 33.59 1.241 1.675-.048.072c-.335.466-1.127 1.252-1.224 1.349l-.01.01s-.073-.277-.142-.676z"/><path fill="#c74667" d="m11.76 34.367 1.02 1.378c.899 1.212 1.67 1.655 3.417 2.187 1.746.531 3.019 1.13 4.38 2.12-.803-1.424-1.502-2.742-1.802-3.835.669 1.006 1.38 2.047 2.255 2.857 3.018 2.794 5.059 4.602 5.892 5.885 1.167 1.796 1.628 3.842 1.145 5.6-.896.705-1.846 1.616-3.02 2.842l-.704.74c-2.456.625-4.879-.878-6.46-3.312-.94-1.449-1.894-4.108-3.151-7.665-1.107-3.131-4.862-6.283-2.971-8.797z"/><path fill="#e37941" d="M11.977 36.34c2.91 3.93 6.154 1.128 10.223 7.044.593-.965-.05-2.478-.842-4.007 2.084 1.926 3.674 3.366 4.69 4.485.175.271.384.528.64.767a5.1 5.1 0 0 1 .234.33c.876 1.349 1.355 2.838 1.334 4.24-2.083 1.415-3.712 3.294-5.407 5.07-1.916-.156-3.708-1.503-4.965-3.44l.029.046c.156-.088.318-.178.484-.269-.213.024-.42.044-.62.059-.677-1.11-1.368-2.842-2.181-5.08.92.363 1.627.44 2.177-.196-1.091-.538-2.166-1.357-3.09-2.354-.553-1.475-1.67-2.953-2.483-4.364a7.086 7.086 0 0 1-.223-2.33z"/><path fill="#f1a04f" d="M13.694 39.342c1.245.483 3.013 1.053 3.214 1.126 1.653.603 2.901 1.558 4.303 3.596l1.046 1.52 1.05-1.718c.334-.606.237-1.645-.055-2.74.243.226.475.442.698.652l.076.257c.64 2.189 2 3.571 3.727 4.538.18.458.312.923.397 1.385-1.484 1.025-2.882 2.033-4.686 3.915l-1.25 1.32c-.248.26-.499.511-.75.753-1.046-.403-2.017-1.146-2.84-2.117l.347-.168 5.39-2.934-6.401.719c-.28.027-.545.047-.797.06A36.142 36.142 0 0 1 16.12 47c.51.105.965.09 1.43-.06a2.516 2.516 0 0 0 1.129-.766L19.698 45l-1.68-.835c-1.894-1.03-3.978-3.47-4.324-4.823z"/></g></g></svg>