<svg data-id="168-08285c5ea926153-unhappy" xmlns="http://www.w3.org/2000/svg" viewBox="0 0 100 100"><g fill="none" fill-rule="evenodd"><path fill="#ffaf54" d="M36.175 86.02c-15.187 9.288 4.577 7.053 8.833 1.212.805-2.634-8.833-1.212-8.833-1.212z"/><path fill="#fff0d6" d="M55.174 58.823s5.543-10.718 19.95-4.506c-4.488 1.208-2.426 6.57-2.426 6.57s-7.192-5.553-7.311 1.441c-3.616-4.9-10.213-3.505-10.213-3.505z"/><path fill="#ffaf54" d="M55.048 90.083c11.343 0 22.864-.723 28.148-5.564 1.007-.923.289-2.89-1.943-2.28-7.871 2.154-16.275-.975-20.756-7.756-5.072-7.677 4.801-24.19-14.482-27.274-6.315-1.01-8.218 1.818-11.552 4.847-5.013 7.468-9.637 14.817-6.37 25.162 3.268 10.344 15.612 12.865 26.955 12.865z"/><path fill="#fff0d6" d="M55.028 61.058s9.7-10.167 21.48.206c-4.644-.241-5.614 4.23-5.614 4.23s-4.812-6.617-7.092-.001c-1.922-5.78-8.774-4.435-8.774-4.435z"/><path fill="#ffaf54" d="M46.082 88.444c-15.187 9.287 4.577 7.053 8.833 1.212.804-2.634-8.833-1.212-8.833-1.212zM61.423 38.812c.502.64 7.705-6.715 7.036-12.557-4.833 4.136-9.054 5.426-9.054 5.426s8.408-6.949 6.124-15.02c-8.058 8.187-12.216 8.619-12.216 8.619z"/><path fill="#fff0d6" d="M62 15.507c.987-4.76-.179-10.22-3.434-10.277-2.769-.05-2.118 4.145-3.506 8.032-1.388 3.888-3.214 4.43-3.25 6.49-.048 2.648 3.262 4.34 5.715 3.27S61.629 17.3 62 15.507z"/><path fill="#ffaf54" d="M43.688 12.242c-12.322 0-20.5 8.507-20.5 19 0 .74.045 1.471.134 2.19-1.369 2.066-2.134 4.374-2.134 6.81 0 8.837 8.073 16 22.5 16 14.426 0 22.5-7.163 22.5-16 0-2.436-.766-4.744-2.135-6.811.089-.718.135-1.448.135-2.189 0-10.493-8.179-19-20.5-19z"/><path fill="#ffaf54" d="M27.821 41.724s-8.339-4.743-9.683-11.9c5.425 2.263 9.831 3.32 9.831 3.32s-8.451-6.466-7.258-16.159c9.296 6.978 13.444 7.31 13.444 7.31z"/><path fill="#fff0d6" d="M27.693 18.362c-2.259-4.306-2.64-9.875.474-10.826 2.649-.809 3.586 3.52 5.58 6.758 1.994 3.238 4.31 3.373 4.911 5.344.774 2.533-1.943 5.07-4.595 4.717-2.653-.353-5.52-4.372-6.37-5.993z"/><path fill="#872e00" fill-rule="nonzero" d="m39.545 63.747-.25.048c-1.311.227-2.978.198-4.9-.03a41.456 41.456 0 0 1-3.672-.617 42.82 42.82 0 0 1-1.156-.261l-.118-.029-.319-.08a.498.498 0 0 1-.275-.188c-.116.3-.228.603-.336.91l-.105.307c-1.468 4.34-1.567 8.629-.077 13.348 2.023 6.406 7.715 10.14 16.15 11.681a47.28 47.28 0 0 1 1.26-.796.5.5 0 0 1 .521.853l-.642.4c-3.005 1.899-4.572 3.357-4.755 4.208-.104.48.618.803 2.244.745 3.962-.141 9.495-2.355 11.321-4.862a.5.5 0 0 1 .904.287c14.371-.033 22.913-1.426 27.286-5.433.767-.703.052-1.845-1.474-1.428-7.589 2.076-13.493.585-18.877-5.197-.33.263-.892.539-1.537.841-2.036.956-4.509 1.352-7.378.874-.628-.105-.682-.987-.071-1.167 1.457-.431 2.694-1 3.73-1.672.651-.423 1.86-1.466 2.55-2.39a7.169 7.169 0 0 1-.227-.47c-.426.212-1.22.595-1.577.733-1.87.722-3.782 1.055-5.593.775a7.58 7.58 0 0 1-.734-.15c-.571-.147-.61-.943-.055-1.145a20.274 20.274 0 0 0 3.122-1.437 16.203 16.203 0 0 0 2.792-1.985c.225-.202.691-.583 1.094-.971-.015-.152-.03-.308-.043-.468-.292.18-.717.403-1.254.624-1.791.736-3.764.99-5.792.467-.575-.148-.609-.953-.048-1.148a15.477 15.477 0 0 0 3.733-1.895 14.428 14.428 0 0 0 2.257-1.923c.175-.185.533-.65.891-1.151l-.013-.56-.039-1.083a43.52 43.52 0 0 0-.039-.734c-.564-.089-1.15-.124-1.745-.113a10.232 10.232 0 0 0-1.224.095l-.182.03a.5.5 0 0 1-.458-.836c.057-.06.162-.163.313-.303l.194-.176c.202-.18.427-.369.675-.565.627-.496 1.315-.97 2.06-1.403-.277-1.602-.697-2.997-1.302-4.207l.847-.548c.215.423.41.868.584 1.334 4.204-3.307 9.923-4.083 17.251-.92a.5.5 0 0 1-.068.942c-1.526.41-2.281 1.346-2.48 2.707a4.879 4.879 0 0 0-.04.389c1.37.74 2.747 1.706 4.125 2.92a.5.5 0 0 1-.356.874c-1.59-.082-2.798.415-3.707 1.346a5.585 5.585 0 0 0-1.364 2.398l-.048.173a.5.5 0 0 1-.869.108 3.096 3.096 0 0 0-.031-.042l-.224-.282a11.27 11.27 0 0 0-.706-.778c-.515-.517-1.046-.945-1.567-1.235-1.584-.88-2.787-.397-3.683 2.205a.5.5 0 0 1-.947-.004c-.463-1.393-1.249-2.406-2.305-3.097a6.462 6.462 0 0 0-1.728-.786c.015.274.028.552.038.834l.07 2.55c.139 5.463.527 7.683 2.082 9.675 5.632 7.214 11.579 9.188 19.64 6.983 2.498-.684 3.985 1.688 2.412 3.13-4.55 4.168-13.012 5.61-27.182 5.692l-1.304.003h-.168c-2.411 2.474-7.615 4.436-11.496 4.575-2.196.078-3.564-.534-3.258-1.955.207-.962 1.333-2.172 3.425-3.66l-.227-.049c-2.692 1.794-6.677 3.09-9.805 3.201-2.195.078-3.563-.534-3.257-1.955.241-1.121 1.733-2.582 4.55-4.427-3.507-2.113-5.968-5.059-7.195-8.944-1.556-4.927-1.452-9.432.083-13.97.977-2.89 2.275-5.366 4.677-9.089l.89.466c-1.81 2.8-2.983 4.875-3.859 6.939a.475.475 0 0 1 .21.008l.677.165.869.194c1.18.25 2.398.46 3.581.601 1.67.199 3.128.24 4.28.089-.18-.238-.35-.492-.52-.762l-.18-.288-.347-.528c-.717-1.03-1.491-1.697-2.854-2.313a.499.499 0 0 1-.17-.126l-.578-.082c-.26-.034-.484-.06-.663-.08l-.325-.034a.5.5 0 1 1 .091-.995l.512.054.513.063c.284.037.572.077.862.12 1.349-.8 3.262-.908 5.596-.488 1.27.228 2.613.605 3.974 1.086a34.295 34.295 0 0 1 2.333.92l.503.228a.5.5 0 1 1-.432.902c-.098-.047-.26-.12-.475-.215l-.656-.279a33.44 33.44 0 0 0-1.606-.613c-1.314-.464-2.606-.827-3.818-1.045l-.323-.055c-1.6-.255-2.94-.225-3.945.127l-.11.042.238.142c.994.613 1.676 1.335 2.322 2.319l.485.764c1.433 2.215 3.013 3.063 8.049 3.419l.725.046a.5.5 0 1 1-.058.999c-4.63-.27-6.834-.924-8.38-2.443zm-3.983 23.21-.106.068c-2.806 1.804-4.273 3.191-4.45 4.013-.103.48.62.804 2.245.746 2.644-.095 5.988-1.112 8.463-2.524-2.284-.578-4.341-1.342-6.152-2.303zM74.67 60.632c-5.36-4.122-10.567-4.38-15.386-2.048a16.55 16.55 0 0 0-3.046 1.91l.038-.03h.344c1.487.013 2.912.3 4.154.958l.284.159.277.172a6.48 6.48 0 0 1 2.196 2.419l.032.066c1.093-2.154 2.69-2.628 4.476-1.716l.168.09c.614.341 1.215.825 1.79 1.403.095.094.186.189.274.283l.193.214.08-.186a6.495 6.495 0 0 1 1.066-1.66l.206-.221a5.352 5.352 0 0 1 2.996-1.567l.145-.02zm-1.599-6.38c-6.466-2.35-11.422-1.353-15.082 1.777l.155-.13c.18.604.33 1.24.457 1.908l.247-.124c4.004-1.937 8.288-2.196 12.665-.16l.007-.052c.19-1.305.815-2.345 1.93-3.003l.079-.045z"/><path fill="#fff" d="M29.533 62.87c2.852.753 5.836 1.13 8.95 1.13l-.459-.005c.856 3.01.558 7.293.558 10.25 0 4.724 2.146 11.475 6.186 14.215-11.074-2.122-15.871-7.126-17.112-15.237-.636-4.157.174-7.842 1.766-10.194z"/><path fill="#7f4331" fill-rule="nonzero" d="M15.419 37.71a.25.25 0 0 1 .005.354c-4.363 4.48-4.937 9.935-2.368 15.012 2.213 4.376 6.484 7.63 9.876 7.63a.25.25 0 1 1 0 .5c-3.603 0-8.031-3.374-10.323-7.904-2.66-5.26-2.062-10.947 2.456-15.587a.25.25 0 0 1 .354-.004zm1.298 1.829a.25.25 0 0 1 .012.353c-5.95 6.36.674 19.96 9.416 18.395a.25.25 0 1 1 .088.492c-9.23 1.653-16.137-12.529-9.87-19.228a.25.25 0 0 1 .354-.012zm56.87-12.348a.25.25 0 0 1 .344-.083c5.376 3.287 7.227 8.654 5.837 14.28-1.208 4.888-4.712 8.835-7.942 8.835a.25.25 0 1 1 0-.5c2.955 0 6.298-3.766 7.457-8.455 1.34-5.425-.433-10.566-5.613-13.734a.25.25 0 0 1-.083-.343zm-.76 2.792a.25.25 0 0 1 .35-.052c6.066 4.478 3.258 16.805-4.6 19.565a.25.25 0 0 1-.165-.472c7.498-2.633 10.193-14.465 4.469-18.691a.25.25 0 0 1-.053-.35z"/><g fill="#872e00"><path fill-rule="nonzero" d="M58.439 4.738c3.48 0 5.143 5.336 4.108 10.813a16.866 16.866 0 0 1-1.538 4.444l.059.08.136-.119a60.294 60.294 0 0 0 3.826-3.71.5.5 0 0 1 .842.199c1.053 3.486.292 7.024-1.739 10.442.129.566.233 1.143.312 1.73a32.754 32.754 0 0 0 3.717-2.857.5.5 0 0 1 .828.308c.361 2.731-.844 5.97-3.01 9.115l-.15.217c.668 1.507.92 2.881.95 4.556.168 9.67-8.725 16.655-22.709 16.899-13.984.244-23.116-6.427-23.284-16.096.003-1.339.176-2.595.516-3.767l.574.427c-2.116-2.23-3.589-4.687-4.137-7.345a.5.5 0 0 1 .674-.566 75.48 75.48 0 0 0 4.215 1.526c.015-1.01.104-1.998.263-2.957-2.13-3.282-3.24-6.99-2.814-11.044a.5.5 0 0 1 .79-.353 71.9 71.9 0 0 0 5.286 3.507c.403-.562.838-1.1 1.304-1.614l.01.017c-2.677-4.889-2.744-10.477.566-11.553 1.827-.593 2.824.359 4.4 3.384l.881 1.729c.067.129.13.25.194.368.249.467.48.874.713 1.245 2.684-1.171 5.74-1.843 9.064-1.901 4.072-.071 7.774.792 10.908 2.385.143-.335.278-.69.407-1.072.177-.526.325-1.084.457-1.702l.086-.439c.184-.995.474-2.8.536-3.108.431-2.159 1.155-3.188 2.759-3.188zm-15.136 8.124c-3.116.054-5.98.668-8.503 1.74a9.448 9.448 0 0 0 1.623 1.658l.187.145c.444.338 1.37 1.02 1.622 1.24.568.492.931.99 1.14 1.633.92 2.829-1.975 5.804-5.046 5.45a3.634 3.634 0 0 1-.557-.11c-.636-.106-1.65-.395-3.063-.979l-.34-.143c-2.278-.977-4.972-2.482-8.099-4.611l-1.002-.694-.258-.183-.014.353c-.11 4.447 1.76 8.447 4.803 11.867.63.707 1.26 1.327 1.858 1.856.268.236.484.414.635.533l.13.099c.434.32.122 1.007-.405.89a21.043 21.043 0 0 1-.365-.085l-.815-.204a62.426 62.426 0 0 1-.836-.223l-.911-.256-.85-.25a77.621 77.621 0 0 1-4.392-1.464l-.892-.334.035.121c.856 2.747 2.804 5.292 5.46 7.566.916.785 1.85 1.477 2.75 2.07.315.208.603.387.858.539l.31.179a.5.5 0 1 1-.524.853l-.504-.297-.219-.136-.47-.302a28.49 28.49 0 0 1-2.852-2.146 26.052 26.052 0 0 1-1.641-1.529c-.23.87-.355 1.758-.37 2.656.99.903 2.725 2 3.55 2.374 2.546 1.15 5.456 1.467 8.714.616.687-.179 1.061.773.436 1.11-3.376 1.816-6.612 2.38-9.529 2.071a11.75 11.75 0 0 1-1.919-.352c.086.18.176.36.27.536.976.52 3.198 1.29 4.12 1.479 2.484.508 5.247.495 8.244-.225.65-.156 1.03.708.475 1.082-2.695 1.813-5.357 2.6-7.754 2.68-.189.007-.364.008-.525.006 3.865 2.7 9.413 4.232 16.186 4.114 13.483-.235 21.884-6.834 21.726-15.882-.04-2.285-.784-4.49-2.165-6.498a.5.5 0 0 1-.086-.336c.075-.704.107-1.414.094-2.13-.184-10.541-8.617-18.352-20.32-18.147zm24.748 14.31-.204.172a33.1 33.1 0 0 1-3.284 2.388c.032.415.053.836.06 1.26a13.1 13.1 0 0 1-.082 2.068c.294.459.554.894.78 1.313l.059-.086c1.605-2.416 2.59-4.856 2.668-6.97zm-44.315 2.116-.011.107a19.41 19.41 0 0 0-.099 1.96c.587.184 1.167.358 1.738.522l.457.13.402.11-.191-.185a24.447 24.447 0 0 1-2.296-2.645zM65.13 17.583l-.188.193a57.756 57.756 0 0 1-3.308 3.132 18.472 18.472 0 0 1 2.13 4.592c1.348-2.58 1.895-5.195 1.398-7.765zM28.343 7.988c-2.474.804-2.415 5.707.002 10.122 1.38 2.52 4.13 5.398 6.096 5.625 2.39.275 4.66-2.058 3.98-4.148-.147-.453-.405-.806-.845-1.188l-.31-.246c-.463-.355-1.24-.927-1.473-1.116a10.508 10.508 0 0 1-2.324-2.594c-.223-.347-.441-.718-.67-1.134l-.27-.505-.711-1.393c-1.506-2.983-2.265-3.816-3.475-3.423zm-.349 11.488-.044.05c-.327.376-.636.765-.929 1.166a38.484 38.484 0 0 0 3.349 1.714 16.984 16.984 0 0 1-2.376-2.93zM58.439 5.738c-.98 0-1.43.639-1.779 2.384l-.428 2.509c-.075.432-.145.816-.196 1.05-.14.654-.297 1.249-.488 1.814-.147.437-.304.844-.47 1.23a19.096 19.096 0 0 1 5.243 4.386c.574-1.206 1.016-2.545 1.243-3.746.935-4.946-.524-9.627-3.125-9.627z"/><g transform="matrix(-1 0 0 1 63.881 30.752)"><path fill-rule="nonzero" d="M.202.098a.5.5 0 0 1 .7.104l.568.763C4.417 4.89 5.026 5.18 6.541 4.33a.5.5 0 0 1 .49.872l-.243.131C4.72 6.403 3.682 5.635.098.798a.5.5 0 0 1 .104-.7zM23.188 2.58a.5.5 0 0 0-.7-.104l-.895.656-.57.41c-4.815 3.427-6.34 3.661-7.753 1.91a.5.5 0 1 0-.778.628c2.035 2.523 4.203 1.925 10.591-2.8a.5.5 0 0 0 .105-.7z"/><circle cx="3.048" cy="8.414" r="2" transform="rotate(-5.13 3.037 8.438)"/><circle cx="15.048" cy="10.414" r="2" transform="rotate(-5.13 15.048 10.462)"/><path fill-rule="nonzero" d="M11.1 17.697c-.134-.316-.42-.776-.893-1.268-.777-.81-1.813-1.416-3.13-1.696-1.359-.289-2.403-.092-3.138.472-.467.358-.713.772-.81 1.1-.163.543.439.968.889.683l.077-.057c.063-.055.243-.159.544-.25.546-.166 1.231-.194 2.07-.016.863.184 1.699.547 2.471 1.022.204.126.391.252.561.375l.293.222.117.097c.478.426 1.201-.094.95-.684z"/></g></g></g></svg>