<svg data-id="169-087f0585d98eb65-smile" xmlns="http://www.w3.org/2000/svg" viewBox="0 0 100 100"><g fill="none" fill-rule="evenodd"><path fill="#ffaf54" d="M39.175 88.02c-15.187 9.288 4.577 7.053 8.833 1.212.805-2.634-8.833-1.212-8.833-1.212z"/><path fill="#fff0d6" d="M55.174 60.825s5.543-10.718 19.95-4.506c-4.488 1.208-2.426 6.57-2.426 6.57s-7.192-5.553-7.311 1.441c-3.616-4.9-10.213-3.505-10.213-3.505z"/><path fill="#ffaf54" d="M33.654 62.317s-4.83 8.5-7.137 7.535c-2.307-.965-3.794-7.536 4.902-10.55 1.1-1.582 2.235 3.015 2.235 3.015z"/><path fill="#ffaf54" d="M55.048 92.083c11.343 0 22.864-.723 28.148-5.564 1.007-.923.289-2.89-1.943-2.28-7.871 2.154-14.165.53-20.165-7.156-5.767-7.388 4.21-24.79-15.073-27.874-6.315-1.01-8.218 1.818-11.552 4.847-5.013 7.468-9.637 14.817-6.37 25.162 3.268 10.344 15.612 12.865 26.955 12.865z"/><path fill="#fff0d6" d="M55.026 63.057s9.7-10.167 21.48.206c-4.644-.241-5.614 4.23-5.614 4.23s-4.812-6.617-7.092-.001c-1.922-5.78-8.774-4.435-8.774-4.435z"/><path fill="#ffaf54" d="M46.082 90.444c-15.187 9.287 4.577 7.053 8.833 1.212.804-2.634-8.833-1.212-8.833-1.212zM27.589 38.826c-.503.64-7.705-6.715-7.037-12.557 4.833 4.136 9.055 5.425 9.055 5.425s-8.409-6.948-6.124-15.02c8.057 8.188 12.215 8.62 12.215 8.62z"/><path fill="#fff0d6" d="M27.007 15.518c-.987-4.76.18-10.22 3.434-10.278 2.77-.049 2.118 4.145 3.506 8.033 1.388 3.887 3.215 4.429 3.251 6.489.047 2.648-3.262 4.34-5.715 3.27-2.453-1.07-4.104-5.722-4.476-7.514z"/><path fill="#ffaf54" d="M45.313 12.242c12.321 0 20.5 8.507 20.5 19 0 .74-.046 1.471-.135 2.19 1.37 2.066 2.135 4.374 2.135 6.81 0 8.837-8.074 16-22.5 16-14.427 0-22.5-7.163-22.5-16 0-2.436.765-4.744 2.134-6.811a17.766 17.766 0 0 1-.134-2.189c0-10.493 8.178-19 20.5-19z"/><path fill="#ffaf54" d="M61.168 41.712s8.339-4.743 9.683-11.9c-5.425 2.263-9.83 3.32-9.83 3.32s8.45-6.466 7.258-16.158c-9.296 6.977-13.445 7.31-13.445 7.31z"/><path fill="#fff0d6" d="M61.3 18.354c2.26-4.305 2.64-9.875-.473-10.826-2.65-.809-3.587 3.52-5.58 6.758-1.995 3.239-4.31 3.374-4.912 5.345-.774 2.533 1.943 5.07 4.596 4.716 2.652-.353 5.52-4.372 6.37-5.993z"/><path fill="#fff" d="M44.855 90.565c-4.04-2.741-6.186-9.492-6.186-14.215 0-3.487.415-8.813-1.135-11.729-4.936 3.71-5.937 5.202-9.847 5.572-.223 1.572-.223 3.307.057 5.134 1.24 8.111 6.038 13.115 17.111 15.238z"/><g fill="#872e00" fill-rule="nonzero"><path d="M57.958 56.724c4.202-3.306 9.921-4.081 17.249-.918a.5.5 0 0 1-.069.942c-1.525.41-2.28 1.346-2.479 2.707a4.878 4.878 0 0 0-.04.388c1.37.74 2.747 1.707 4.125 2.92a.5.5 0 0 1-.356.875c-1.59-.082-2.798.415-3.707 1.345a5.585 5.585 0 0 0-1.364 2.399l-.048.173a.5.5 0 0 1-.87.108 3.097 3.097 0 0 0-.03-.042l-.225-.283a11.27 11.27 0 0 0-.705-.777c-.515-.518-1.046-.945-1.568-1.235-1.584-.88-2.786-.397-3.682 2.205a.5.5 0 0 1-.947-.005c-.464-1.392-1.25-2.405-2.305-3.096a6.462 6.462 0 0 0-1.728-.786c.015.274.028.552.038.834l.07 2.55c.139 5.463.527 7.683 2.082 9.675 5.632 7.214 11.579 9.188 19.64 6.982 2.498-.683 3.985 1.69 2.412 3.13-4.55 4.169-13.012 5.611-27.182 5.692l-1.304.004h-.148c-2.385 2.502-7.643 4.496-11.557 4.636-2.196.078-3.563-.534-3.257-1.955.073-.343.264-.717.573-1.123-1.46.416-2.93.673-4.248.72-2.196.08-3.564-.533-3.258-1.955.206-.958 1.328-2.165 3.41-3.649-4.445-2.145-7.524-5.385-8.947-9.888-.977-3.095-1.3-6.024-1.023-8.899a1.347 1.347 0 0 1-.204-.067c-1.5-.628-2.415-2.854-1.974-5.068.504-2.529 2.566-4.729 6.187-6.155a89.525 89.525 0 0 1 2.533-4.031l.522-.785.889.467c-1.94 2.907-3.276 5.064-4.274 7.03a30.016 30.016 0 0 1 2.48-1.492l.439-.232.354-.18a.5.5 0 1 1 .437.9l-.162.081-.592.31-.463.256a28.44 28.44 0 0 0-2.665 1.692c-3.094 2.233-4.317 4.243-2.974 5.772 1.02 1.16 2.89.777 5.42-.944.891-.606 1.829-1.357 2.79-2.217a44.546 44.546 0 0 0 3.328-3.325l.27-.304a.5.5 0 1 1 .758.653l-.46.515-.189.205-.41.438c-.823.867-1.71 1.74-2.63 2.563-.992.888-1.963 1.665-2.895 2.3-2.2 1.496-4.085 2.135-5.511 1.626-.279 2.771.027 5.593.973 8.59 2.026 6.416 7.734 10.15 16.191 11.688a48.8 48.8 0 0 1 1.178-.743.5.5 0 0 1 .522.854l-.643.399c-3.005 1.899-4.572 3.357-4.755 4.208-.103.48.619.804 2.244.746 3.962-.142 9.495-2.356 11.322-4.863a.5.5 0 0 1 .899.225c14.399-.03 22.953-1.421 27.33-5.432.768-.703.052-1.845-1.473-1.428-7.589 2.076-13.494.585-18.877-5.197-.33.263-.892.539-1.537.841-2.037.956-4.509 1.351-7.378.874-.628-.105-.682-.987-.072-1.168 1.458-.43 2.695-1 3.73-1.671.652-.424 1.86-1.467 2.551-2.392a6.583 6.583 0 0 1-.227-.467c-.427.211-1.22.594-1.577.732-1.871.722-3.782 1.055-5.594.775a7.58 7.58 0 0 1-.733-.15c-.571-.147-.61-.944-.056-1.145a20.274 20.274 0 0 0 3.123-1.437 16.203 16.203 0 0 0 2.792-1.985c.225-.202.691-.583 1.094-.971-.016-.152-.03-.308-.043-.468-.292.18-.717.403-1.254.623-1.791.737-3.764.99-5.793.468-.575-.148-.608-.953-.047-1.148a15.477 15.477 0 0 0 3.733-1.895 14.428 14.428 0 0 0 2.256-1.923c.176-.185.534-.651.893-1.152l-.014-.56-.04-1.082a43.52 43.52 0 0 0-.038-.734c-.564-.089-1.15-.125-1.745-.114a10.232 10.232 0 0 0-1.224.096l-.182.03a.5.5 0 0 1-.458-.836c.057-.06.161-.163.313-.303l.194-.176c.201-.18.427-.369.675-.565.627-.496 1.314-.97 2.06-1.403-.355-2.05-.943-3.761-1.854-5.179l.948-.381a12.3 12.3 0 0 1 1.034 2.139zM37.54 89.666l-.165.113c-2.078 1.441-3.177 2.561-3.328 3.266-.104.48.618.803 2.244.745 1.805-.064 3.937-.56 5.896-1.316.386-.318.825-.65 1.316-.997-2.175-.449-4.169-1.05-5.963-1.81zm-7.84-29.103-.123.06c-2.495 1.27-3.893 2.967-4.265 4.836a4.656 4.656 0 0 0 .177 2.49c-.243-1.557.906-3.23 3.013-4.929a32.94 32.94 0 0 1 1.198-2.457zm45.119 1.91c-5.36-4.123-10.568-4.382-15.386-2.05a16.55 16.55 0 0 0-3.047 1.911l.04-.03.343-.001c1.487.014 2.911.3 4.154.96l.284.158.276.172a6.48 6.48 0 0 1 2.196 2.419l.033.066c1.093-2.154 2.69-2.629 4.476-1.716l.168.09c.614.34 1.214.825 1.79 1.403.094.094.186.189.274.283l.193.213.08-.186a6.495 6.495 0 0 1 1.065-1.659l.207-.221a5.352 5.352 0 0 1 2.996-1.567l.145-.02zm-1.6-6.381c-6.465-2.35-11.42-1.353-15.082 1.777l.156-.13c.18.604.33 1.24.457 1.909l.247-.125c4.004-1.937 8.289-2.196 12.666-.16l.006-.053c.19-1.304.814-2.345 1.929-3.002l.08-.045z"/><path d="M30.425 4.87c1.603-.028 2.345.988 2.814 3.14.067.306.388 2.106.59 3.097l.093.437c.143.616.3 1.172.487 1.695.128.358.261.693.402 1.011 3.028-1.528 6.582-2.384 10.492-2.384 3.572 0 6.847.714 9.694 2.001.195-.332.392-.694.6-1.103l.188-.371.85-1.744c1.524-3.053 2.503-4.022 4.341-3.46 3.328 1.017 3.358 6.606.768 11.54l-.041.078c.406.465.788.95 1.144 1.452a71.785 71.785 0 0 0 5.133-3.54.5.5 0 0 1 .796.339c.504 4.1-.577 7.873-2.704 11.225.152 1 .231 2.03.231 3.083l-.002-.206a75.548 75.548 0 0 0 4.356-1.658.5.5 0 0 1 .684.554c-.463 2.46-1.715 4.764-3.538 6.886.334 1.124.5 2.265.5 3.424 0 9.671-9.013 16.5-23 16.5-13.986 0-23-6.829-23-16.5 0-1.72.329-3.267 1.004-4.825l-.097-.135c-2.22-3.107-3.482-6.324-3.168-9.061a.5.5 0 0 1 .822-.323 32.868 32.868 0 0 0 3.61 2.692c.08-.618.19-1.224.325-1.82-2.006-3.325-2.782-6.785-1.807-10.225a.5.5 0 0 1 .837-.215 59.935 59.935 0 0 0 3.988 3.726c.058-.084.118-.166.179-.248a16.887 16.887 0 0 1-1.49-4.18c-1.13-5.457.439-10.821 3.919-10.882zm14.878 7.996c-11.705 0-20 7.957-20 18.5 0 .716.044 1.426.131 2.128a.5.5 0 0 1-.08.337c-1.346 2.033-2.05 4.25-2.05 6.535 0 9.05 8.514 15.5 22 15.5 6.474 0 11.804-1.487 15.594-4.035h.011c-2.398-.038-5.072-.78-7.799-2.545-.56-.364-.196-1.234.456-1.09 3.01.667 5.772.632 8.246.08.838-.186 2.439-.671 3.762-1.332.132-.23.256-.46.373-.696-.454.124-1.022.24-1.693.323-2.91.36-6.156-.147-9.563-1.905-.63-.325-.273-1.283.417-1.116 3.272.794 6.176.426 8.701-.769.74-.35 2.509-1.445 3.494-2.468a11.086 11.086 0 0 0-.296-2.49 26.833 26.833 0 0 1-1.563 1.5 28.49 28.49 0 0 1-2.813 2.196l-.465.31-.216.14-.499.305-.044.026a.5.5 0 1 1-.494-.87l.306-.184c.252-.156.536-.34.848-.553a27.497 27.497 0 0 0 2.714-2.118c2.615-2.32 4.519-4.898 5.327-7.66l.033-.122-.886.35a77.62 77.62 0 0 1-4.366 1.54l-.846.265-.906.272c-.29.085-.568.164-.832.238l-.811.218c-.16.041-.282.072-.363.091-.526.126-.85-.555-.42-.883l.127-.101c.149-.121.362-.304.625-.544.59-.539 1.209-1.17 1.826-1.889 2.983-3.471 4.782-7.504 4.595-11.948l-.02-.353-.255.188-.99.71c-3.089 2.185-5.756 3.735-8.016 4.752l-.338.15c-.864.375-1.58.635-2.15.807-.38.168-.757.282-1.122.33-3.064.408-6.01-2.516-5.14-5.361.197-.646.552-1.15 1.111-1.653.248-.223 1.163-.921 1.6-1.267l.185-.149a9.5 9.5 0 0 0 1.705-1.837c-2.69-1.192-5.78-1.853-9.15-1.853zM21 27.433l.005.145c.115 2.111 1.143 4.535 2.79 6.922l.007.012c.189-.357.395-.716.62-1.08a17.686 17.686 0 0 1-.119-2.066c0-.52.02-1.034.057-1.542a32.961 32.961 0 0 1-3.153-2.223zm44.218 2.098-.14.19a24.76 24.76 0 0 1-1.995 2.338l-.188.189.4-.117.455-.139c.51-.156 1.028-.321 1.55-.494l.003-.132c0-.62-.029-1.233-.085-1.835zM23.753 17.794l-.03.153c-.441 2.52.116 5.068 1.445 7.57a18.556 18.556 0 0 1 2.084-4.505 58.135 58.135 0 0 1-3.308-3.028zm36.93-9.649c-1.216-.372-1.961.474-3.414 3.482l-.687 1.406-.262.51c-.22.42-.433.794-.649 1.145a10.508 10.508 0 0 1-2.279 2.634c-.23.194-.997.778-1.454 1.142l-.305.251c-.433.39-.685.747-.824 1.202-.642 2.102 1.668 4.395 4.052 4.078 1.961-.26 4.662-3.186 5.997-5.73 2.34-4.457 2.313-9.36-.174-10.12zm.488 11.578-.023.037a17.14 17.14 0 0 1-1.98 2.568c.88-.435 1.82-.948 2.823-1.546a16.874 16.874 0 0 0-.82-1.06zM30.442 5.87c-2.6.045-3.978 4.75-2.957 9.68a15.89 15.89 0 0 0 1.203 3.509 19.206 19.206 0 0 1 5.239-4.336c-.162-.36-.314-.741-.46-1.148-.2-.562-.368-1.154-.52-1.805a33.374 33.374 0 0 1-.213-1.047l-.472-2.5c-.38-1.74-.84-2.37-1.82-2.353z"/><path d="M27.5 33.4c-1.203 0-2.1 1.195-2.1 2.6s.897 2.6 2.1 2.6 2.1-1.195 2.1-2.6-.897-2.6-2.1-2.6zM34.436 44.009c-.168.123-.513.318-1.003.497-.826.302-1.741.424-2.722.286s-1.826-.507-2.537-1.024c-.422-.308-.7-.59-.827-.755-.374-.485-1.15-.163-1.07.444.059.453.254 1.109.674 1.797.706 1.158 1.82 1.957 3.39 2.177 1.49.21 2.735-.197 3.717-1.035a5.02 5.02 0 0 0 1.18-1.453l.1-.202c.257-.563-.404-1.1-.902-.732zM37.922 37.223c1.266-.1 2.561.129 3.78.548.41.141.717.27.893.356a.5.5 0 0 1-.438.9 7.549 7.549 0 0 0-.78-.31c-1.1-.378-2.267-.584-3.376-.497-.1.008-.2.019-.297.032l-.111.017.077.01c1.532.233 2.722.741 3.608 1.453l.173.145c.59.516.914 1.012 1.045 1.36a.5.5 0 0 1-.937.353c-.076-.202-.309-.56-.766-.96-1.1-.96-2.863-1.546-5.47-1.487a.5.5 0 0 1-.302-.907c.846-.603 1.826-.928 2.901-1.013z"/></g></g></svg>