<svg data-id="172-df15739d9e2d95f-cold" xmlns="http://www.w3.org/2000/svg" viewBox="0 0 100 100"><g fill="none" fill-rule="evenodd"><path fill="#ffaf54" d="M55.946 87.02c15.556 7.025-6.747 6.525-9.832 1.212-.805-2.634 9.832-1.212 9.832-1.212z"/><path fill="#fff0d6" d="M41.378 58.123s-13.277-6.548-21.97 6.507c4.42-1.432 5.613 4.186 5.613 4.186s3.004-8.572 6.914-2.774c.362-6.077 9.443-7.919 9.443-7.919z"/><path fill="#ffaf54" d="M66.064 59.048c5.808 4.043 3.705 14.396.733 12.844-2.972-1.552-2.997-3.136-3.29-6.474z"/><path fill="#ffaf54" d="M38.114 91.612c-11.344 0-22.864-.723-28.148-5.564-1.008-.923-.29-2.89 1.943-2.28 7.871 2.154 14.165.53 20.165-7.156 5.767-7.388.79-24.79 20.073-27.875 6.314-1.01 8.218 1.819 11.552 4.848 5.013 7.468 4.98 17.39 1.37 25.162-3.612 7.77-15.612 12.865-26.955 12.865z"/><path fill="#fff0d6" d="M41.348 59.708s-14.283-3.893-20.323 10.583c4.066-2.25 6.31 3.036 6.31 3.036s1.31-8.988 6.256-4.043c-.805-6.034 7.757-9.576 7.757-9.576z"/><g fill="#ffaf54"><path d="M48.528 88.707c16.327 7.084-3.55 7.619-8.576 2.428-1.162-2.496 8.576-2.428 8.576-2.428zM76.187 41.795c.312.902 10.107-3.952 11.062-10.63-5.66 1.584-11.064 2-11.064 2s10.079-5.292 10.078-15.058c-10.079 5.792-14.237 5.616-14.237 5.616zM35.377 40.797c-.312.902-10.107-2.951-11.063-9.63 5.661 1.584 11.064 1.001 11.064 1.001S25.3 27.876 25.301 18.11c10.078 5.791 14.237 4.615 14.237 4.615z"/><path d="M55.5 13C67.822 13 76 21.507 76 32c0 .74-.046 1.47-.135 2.189C77.235 36.255 78 38.564 78 41c0 8.837-8.074 16-22.5 16S33 49.837 33 41c0-2.436.766-4.745 2.135-6.811A17.766 17.766 0 0 1 35 32c0-10.493 8.178-19 20.5-19z"/></g><path fill="#fff0d6" d="M74.984 16.31c.984-4.763-.187-10.225-3.444-10.28-2.77-.047-2.478 4.374-3.502 8.04-1.023 3.664-3.213 4.433-3.248 6.495-.045 2.65 3.268 4.34 5.721 3.267 2.454-1.071 4.102-5.728 4.473-7.521zM37.192 16.298c-.984-4.764.187-10.226 3.444-10.281 2.77-.047 2.116 4.149 3.502 8.04 1.386 3.89 3.213 4.433 3.248 6.495.045 2.65-3.268 4.34-5.721 3.267-2.454-1.071-4.102-5.728-4.473-7.521z"/><path fill="#fff" d="M44.432 42.006c0-1.108.9-2.006 1.99-2.006H64.51c1.099 0 1.99.897 1.99 2.006v9.988c0 1.108-.9 2.006-1.99 2.006H46.423c-1.1 0-1.99-.897-1.99-2.006zM56.505 74.828c.588-5.166.717-12.52 5.069-13.565 4.928-1.184 6.241 5.65 4.589 12.852-1.516 6.606-6.088 11.5-15.656 14.974 0 0 5.493-9.826 5.998-14.261z"/><g fill="#872e00" fill-rule="nonzero"><path d="M40.43 53.767a16.45 16.45 0 0 0-2.014 2.824c-.782-.2-1.606-.362-2.462-.472-6.537-.84-12.574 1.44-17.085 8.217a.5.5 0 0 0 .57.753c1.388-.45 2.47-.166 3.342.695-.883 1.249-1.669 2.677-2.344 4.297a.5.5 0 0 0 .703.63c1.382-.765 2.575-.617 3.664.225.612.473 1.142 1.13 1.574 1.863.186.315.31.567.37.707.197.465.882.377.955-.123.005-.038.013-.09.024-.153l.07-.362c.083-.405.189-.832.319-1.262.22-.727.486-1.383.798-1.921 1.024-1.763 2.275-1.988 4.198-.065a.5.5 0 0 0 .849-.42c-.229-1.715.348-3.326 1.587-4.833l-.028.123-.04.17-.827 3.704c-.946 4.172-1.657 6.166-3.006 7.893-5.631 7.214-11.578 9.188-19.639 6.982-2.499-.683-3.986 1.69-2.412 3.13 4.549 4.168 13.011 5.611 27.181 5.692l1.304.004c.697 0 1.393-.018 2.087-.055 2.706 2.153 8.203 3.401 12.106 2.994 2.185-.227 3.454-1.024 2.953-2.39l-.015-.036c.943.103 1.884.148 2.788.128 2.422-.054 3.945-.611 3.874-1.86-.06-1.075-1.537-2.29-4.515-3.747 3.745-2.191 6.648-4.997 8.13-8.189a28.172 28.172 0 0 0 2.076-6.362c1.418-.147 2.472-2.246 2.632-4.959.194-3.312-.934-6.553-3.325-8.538a23.56 23.56 0 0 0-1.422-3.459l-.936.367c3.396 6.606 3.431 14.962.261 22.106l-.192.424c-2.135 4.594-7.483 8.394-14.062 10.575a45.726 45.726 0 0 0-1.82-.834.5.5 0 0 0-.399.918c3.684 1.597 5.666 2.937 5.987 3.811.169.462-.501.882-2.119 1.05-3.943.412-9.73-1.01-11.888-3.238a.5.5 0 0 0-.853.27c-.448.016-.898.024-1.348.024-14.689 0-23.384-1.378-27.81-5.433-.768-.703-.052-1.845 1.473-1.428 7.814 2.138 13.843.493 19.356-5.723.305.283.744.615 1.32.942 1.843 1.045 4.195 1.492 7.059 1.016.594-.1.688-.914.133-1.146a23.076 23.076 0 0 1-1.644-.762c-1.526-.783-2.7-1.618-3.568-2.446a7.99 7.99 0 0 1-.83-.982c.1-.192.195-.39.289-.597.482.262 1.121.567 1.476.715 1.992.833 4.075 1.148 6.084.63.571-.146.61-.943.056-1.144a20.522 20.522 0 0 1-2.573-1.131c-1.206-.637-2.165-1.315-2.902-1.989-.331-.302-.67-.733-.857-.986.07-.267.14-.548.21-.84.313.186.75.413 1.292.638 1.873.778 3.89 1.058 5.91.538.576-.148.609-.953.048-1.148a14.078 14.078 0 0 1-3.526-1.797 11.54 11.54 0 0 1-2.089-1.88c-.13-.153-.384-.48-.634-.8l.078-.335.399-1.595.12-.439c.81-.703 1.734-1.34 2.721-1.907a19.22 19.22 0 0 1 1.602-.823l.141-.062a.5.5 0 0 0-.06-.944 3.598 3.598 0 0 0-.057-.015l-.388-.089a16.95 16.95 0 0 0-1.195-.204 20.328 20.328 0 0 0-1.283-.133c.749-1.66 1.641-3.09 2.728-4.31zm15.859 33.93.044.02c3.018 1.42 4.508 2.563 4.543 3.185.021.376-1.035.763-2.898.804a21.007 21.007 0 0 1-3.61-.252c-.589-.549-1.457-1.133-2.61-1.758a34.647 34.647 0 0 0 4.53-1.999zM35.704 59.753a19.53 19.53 0 0 1 3.876.137l.077.01-.136.074-.347.194c-1.578.907-3.01 1.987-4.122 3.24-1.244 1.402-1.992 2.923-2.12 4.547l-.011.174-.132-.096c-1.897-1.337-3.5-.853-4.64.984l-.1.166c-.356.613-.65 1.338-.89 2.133l-.1.345-.063.24-.147-.218a7.267 7.267 0 0 0-1.167-1.32l-.267-.219c-1.043-.806-2.215-1.12-3.473-.82l-.083.022.188-.382c3.048-6.083 7.89-8.84 13.657-9.211zm18.348 1.805a.5.5 0 0 0-.663-.246c-1.428.653-3.342 2.668-4.43 4.672-1.345 2.48-1.271 4.58.76 5.425 2.703 1.123 4.747-.9 7.24-5.732l.329-.646.127-.258 1.359-2.784a.5.5 0 1 0-.895-.446c-.176.352-.879 1.804-1.279 2.62l-.53 1.059c-2.242 4.338-3.995 6.083-5.967 5.263-1.316-.547-1.367-1.993-.264-4.024.992-1.828 2.757-3.687 3.966-4.24a.5.5 0 0 0 .247-.663zm13.385-.464c1.298 1.742 1.9 4.063 1.761 6.437-.117 1.995-.732 3.435-1.427 3.865.54-3.457.434-6.976-.334-10.302zm-46.774 2.454c4.153-5.39 9.433-7.173 15.164-6.437.727.094 1.43.226 2.102.389-.198.393-.387.799-.568 1.217-.56-.011-1.136 0-1.721.038-4.844.311-9.098 2.232-12.256 6.222-.804-.75-1.772-1.144-2.893-1.096l-.085.005zM72.109 36.267a.75.75 0 0 1-1.014.31c-3.235-1.722-5.968-2.222-7.986-2.043l-.499.064a.75.75 0 0 1-.326-1.464c.202-.035.342-.057.42-.066 2.332-.273 5.457.248 9.095 2.185a.75.75 0 0 1 .31 1.014zM37.69 36.267a.75.75 0 0 0 1.014.31c3.235-1.722 5.968-2.222 7.986-2.043l.499.064a.75.75 0 0 0 .326-1.464 9.439 9.439 0 0 0-.42-.066c-2.332-.273-5.457.248-9.095 2.185a.75.75 0 0 0-.31 1.014z"/><path d="m77.235 37.085.237 1.225-10.523 5.383v5.345l7.688.969-.833 1.105-6.855-.864.001 1.769a2.6 2.6 0 0 1-2.438 2.6l-.166.006H46.354a2.604 2.604 0 0 1-2.604-2.606v-1.678l-6.376.803-1.182-1.06 7.557-.953v-5.442l-10.21-5.223.236-1.226 9.974 5.1.001-.31a2.6 2.6 0 0 1 2.438-2.6l.166-.005h17.992a2.604 2.604 0 0 1 2.604 2.606v.315zm-12.889 3.538H46.354a1.4 1.4 0 0 0-1.404 1.406v9.988c0 .777.628 1.406 1.404 1.406h17.992a1.4 1.4 0 0 0 1.404-1.406v-9.988c0-.778-.628-1.406-1.404-1.406z"/><path d="M40.728 5.65c1.865-.033 2.465 1.1 3.028 4.245.366 1.877.61 3.023.734 3.439.112.377.377 1.066.644 1.686 3.022-1.521 6.569-2.373 10.47-2.373 4.35 0 8.26 1.059 11.492 2.922.22-.467.405-.965.56-1.518.206-.738.43-1.832.669-3.283.657-3.809 1.295-5.154 3.326-5.119 3.48.061 5.049 5.425 3.919 10.883-.35 1.686-1.072 3.577-2.013 5.108.28.427.541.867.784 1.319 2.845-.529 6.878-2.343 11.785-5.089.333-.186.75.01.77.394.21 3.986-1.922 9.674-8.554 14.326 4.056-.585 6.319-.95 8.846-1.777a.525.525 0 0 1 .688.516c-.134 3.264-3.751 7.844-9.289 10.552-.446 9.281-9.353 15.766-22.982 15.766-13.987 0-23-6.829-23-16.5 0-.092 0-.183.003-.275a19.454 19.454 0 0 1-2.694-1.466c-3.277-2.118-5.552-4.885-6-8.01a.5.5 0 0 1 .63-.552c2.579.721 5.026 1.022 9.088 1.08-6.974-4.208-8.737-9.669-8.737-13.66a.5.5 0 0 1 .749-.434c4.967 2.854 8.782 4.218 11.545 4.56.34-.581.71-1.142 1.11-1.68a16.836 16.836 0 0 1-1.49-4.178c-1.13-5.458.439-10.822 3.919-10.883zm14.877 7.997c-3.755 0-7.159.819-10.05 2.279l.059.113c.243.441.854 1.365 1.831 2.772.357.61.535 1.179.547 1.859.052 2.974-3.586 4.973-6.419 3.737-1.002-.437-1.943-1.46-2.733-2.737-2.072 2.941-3.235 6.528-3.235 10.477 0 .715.044 1.425.13 2.127a.5.5 0 0 1-.079.338 12.412 12.412 0 0 0-1.692 3.734c.317.918.927 1.804 1.212 2.107.608.645 1.46 1.17 2.606 1.523.595.184.551 1.04-.059 1.162-1.562.313-2.817.16-3.77-.299a6.914 6.914 0 0 1-.263-.132c.038.328.087.652.147.973.449.662 1.045 1.294 1.503 1.719.684.633 1.579 1.149 2.721 1.501.595.184.551 1.04-.059 1.162-.959.192-1.755.217-2.403.104 3.266 5.184 10.366 8.481 20.006 8.481 9.638 0 16.738-3.296 20.004-8.48-.646.112-1.439.086-2.392-.105-.61-.122-.654-.978-.06-1.162 1.143-.352 2.038-.868 2.722-1.501.34-.316 1.065-1.116 1.537-1.963.035-.208.065-.418.09-.63l-.065.033c-.953.46-2.208.612-3.77.299-.61-.123-.653-.978-.059-1.162 1.146-.354 1.998-.878 2.606-1.523a3.92 3.92 0 0 0 .83-1.31c.092-.247.154-.525.201-.785a12.43 12.43 0 0 0-1.696-3.746.5.5 0 0 1-.08-.338c.088-.702.132-1.412.132-2.127 0-3.568-.95-6.84-2.66-9.607-.652.864-1.378 1.535-2.14 1.867-2.833 1.236-6.47-.763-6.419-3.737.012-.676.215-1.258.613-1.895.209-.334 1.13-1.563 1.326-1.853.105-.157.205-.313.3-.47-3.089-1.789-6.837-2.805-11.02-2.805zm31.131 18.358c-3.405 1.04-8.06 1.772-10.223 1.894l-.027.315c1.412 2.093 2.119 4.404 2.119 6.933l-.008-.396c2.213-1.159 6.925-4.163 8.14-8.746zm-61.679.007c.587 2.367 2.659 4.782 5.4 6.554.741.479 1.509.9 2.233 1.235.247-2.062 1.033-4.109 2.033-5.588a14.834 14.834 0 0 1-.104-1.301c-1.985.102-6.112-.04-9.562-.9zM85.864 19.11c-4.667 2.646-8.486 4.282-11.043 4.804 1.156 2.476 1.784 5.257 1.784 8.232 0 .106-.002.221-.006.344 2.676-1.9 8.804-6.926 9.265-13.38zm-59.94.025c.55 5.129 3.449 9.184 8.698 12.164.117-2.883.83-5.567 2.041-7.95-2.504-.341-5.625-1.434-10.739-4.214zm45.71-12.487c-1.234-.021-1.726.936-2.272 3.996-.269 1.64-.517 2.864-.744 3.676a10.508 10.508 0 0 1-1.464 3.16c-.779 1.067-1.214 1.675-1.307 1.824-.31.494-.453.907-.461 1.382-.038 2.198 2.815 3.765 5.02 2.803 1.812-.79 3.602-4.347 4.184-7.161 1.021-4.929-.356-9.634-2.957-9.68zm-30.889 0c-2.6.046-3.978 4.751-2.957 9.68.583 2.814 2.372 6.37 4.185 7.161 2.205.962 5.058-.605 5.02-2.803-.01-.497-.136-.902-.41-1.371-.081-.138-1.383-1.956-1.845-2.795-.36-.654-.982-1.956-1.207-2.903-.15-.63-.403-1.813-.759-3.547-.478-2.672-.886-3.442-2.027-3.422z"/></g></g></svg>