<svg data-id="174-4931d801e40cec9-smile" xmlns="http://www.w3.org/2000/svg" viewBox="0 0 100 100"><g fill="none" fill-rule="evenodd"><path fill="#ffaf54" d="M40.175 87.02c-15.187 9.288 4.577 7.053 8.833 1.212.805-2.634-8.833-1.212-8.833-1.212z"/><path fill="#fff0d6" d="M58.199 64.67s2.51-14.597 18.19-13.951c-3.76 2.734.084 7.004.084 7.004s-8.704-2.612-6.312 3.962C65.031 58.404 58.2 64.67 58.2 64.67z"/><path fill="#ffaf54" d="M36.643 60.054c-6.046.002-9.96 9.536-8.2 11.313 1.759 1.777 4.566-1.006 5.842-3.737 1.054-1.613 2.994-8.27 2.358-7.576z"/><path fill="#ffaf54" d="M60.009 91.612c17.435.49 25.726-13.246 26.715-24.715.068-.784-1.334-1.75-2.236-.144-2.43 4.325-8.185 11.324-16.058 9.382-12.22-3.013 4.796-20.526-14.455-27.398-5.858-2.09-11.218 1.819-14.552 4.848-5.012 7.468-9.636 14.817-6.369 25.162 3.267 10.344 14.001 12.5 26.955 12.865z"/><path fill="#fff0d6" d="M60.094 65.17s4.76-14.027 20.148-10.94c-4.141 2.115-1.01 6.933-1.01 6.933s-8.19-3.94-6.855 2.928c-4.555-4.043-12.283 1.079-12.283 1.079z"/><g fill="#ffaf54"><path d="M51.082 89.444c-15.187 9.287 4.577 7.053 8.833 1.212.804-2.634-8.833-1.212-8.833-1.212zM69.192 40.796c.312.902 10.107-3.952 11.062-10.63-5.66 1.584-11.064 2-11.064 2s10.079-5.292 10.078-15.058C69.189 22.9 65.03 22.724 65.03 22.724zM28.373 39.798c-.312.902-10.107-2.951-11.063-9.63 5.661 1.584 11.064 1.001 11.064 1.001s-10.078-4.292-10.077-14.058c10.078 5.791 14.237 4.615 14.237 4.615z"/><path d="M48.5 12C60.822 12 69 20.507 69 31c0 .74-.046 1.47-.135 2.189C70.235 35.255 71 37.564 71 40c0 8.837-8.074 16-22.5 16S26 48.837 26 40c0-2.436.766-4.745 2.135-6.811A17.766 17.766 0 0 1 28 31c0-10.493 8.178-19 20.5-19z"/></g><path fill="#fff0d6" d="M67.986 15.306c.984-4.764-.187-10.226-3.444-10.281-2.77-.047-2.478 4.374-3.502 8.04-1.023 3.664-3.213 4.433-3.248 6.495-.045 2.65 3.268 4.34 5.721 3.267 2.454-1.071 4.102-5.728 4.473-7.521zM30.191 15.293c-.984-4.764.187-10.226 3.444-10.281 2.77-.047 2.116 4.149 3.502 8.04 1.386 3.89 3.213 4.433 3.248 6.495.045 2.65-3.268 4.34-5.721 3.267-2.454-1.071-4.102-5.728-4.473-7.521z"/><path fill="#fff" d="M41.5 43s3.724.801 7.5.801S56.5 43 56.5 43s0 1.03-.147 1.802c-.03.154-1.454 2.003-7.353 2.003s-7.327-1.864-7.357-2.022C41.5 44.021 41.5 43 41.5 43z"/><path fill="#872e00" fill-rule="nonzero" d="M33.623 4.502c1.865-.032 2.466 1.1 3.029 4.246.365 1.877.61 3.023.733 3.439.112.377.378 1.066.644 1.686C41.051 12.352 44.6 11.5 48.5 11.5c4.35 0 8.259 1.059 11.492 2.922.22-.467.404-.964.559-1.518.206-.738.43-1.832.67-3.283.656-3.809 1.294-5.154 3.325-5.119 3.48.061 5.05 5.425 3.919 10.883-.35 1.686-1.072 3.577-2.013 5.108.28.427.541.867.785 1.319 2.844-.529 6.877-2.343 11.784-5.089.333-.186.75.01.77.394.21 3.986-1.921 9.674-8.553 14.326 4.055-.585 6.318-.95 8.845-1.777a.525.525 0 0 1 .688.516c-.133 3.265-3.751 7.845-9.288 10.552-.27 5.626-3.65 10.225-9.306 12.974.258.365.492.744.702 1.135 3.193-3.083 7.585-4.799 13.356-4.562a.5.5 0 0 1 .274.904c-.836.609-1.284 1.31-1.408 2.098 1.626-.063 3.36.08 5.205.45a.5.5 0 0 1 .13.936c-1.407.718-1.952 1.79-1.863 3.163.089 1.373.768 2.625 1.044 3.049.275.424-.18.942-.636.723a15.52 15.52 0 0 0-1.704-.652c-.726-.224-1.418-.37-2.04-.412-2.033-.137-2.92.775-2.4 3.444a.5.5 0 0 1-.823.47c-1.38-1.225-3.184-1.54-5.281-1.344-.787.073-1.616.286-2.408.559-.046.932-.107 1.935-.16 2.73-.408 6.071.233 8.095 3.958 9.139l.427.112c6.254 1.542 11.867-2.674 15.502-9.142.516-.918 1.296-1.292 2.064-1.058.665.203 1.162.845 1.107 1.49-1.232 14.27-11.558 25.612-27.228 25.172l-.738-.023c-2.568 2.262-7.384 4.003-11.032 4.134-2.196.078-3.563-.534-3.257-1.955.192-.894 1.179-2.003 2.997-3.35-.338-.07-.67-.141-.998-.216-2.687 1.739-6.581 2.987-9.649 3.097-2.195.079-3.563-.533-3.257-1.955.244-1.134 1.768-2.616 4.65-4.492-2.968-2.016-4.97-4.772-6.134-8.455-.766-2.426-1.13-4.75-1.118-7.026-1.239.789-2.458.819-3.391-.125-1.095-1.106-.529-4.129 1.098-6.927 1.477-2.54 3.504-4.383 5.77-5.008.784-1.426 1.749-2.986 2.979-4.86C30.135 52.41 25.5 46.936 25.5 40c0-.092.001-.183.004-.275a19.454 19.454 0 0 1-2.695-1.466c-3.276-2.118-5.552-4.885-6-8.01a.5.5 0 0 1 .63-.551c2.579.72 5.026 1.021 9.088 1.078-6.974-4.206-8.737-9.668-8.737-13.66a.5.5 0 0 1 .75-.433c4.966 2.854 8.781 4.218 11.545 4.56.339-.581.71-1.142 1.11-1.68a16.836 16.836 0 0 1-1.491-4.178c-1.13-5.458.44-10.822 3.919-10.883zm15.26 52.804a28.44 28.44 0 0 0-1.452 2.803l-.214.483-.097.226-.228.56a.5.5 0 0 1-.934-.357l.148-.37.193-.456a29.419 29.419 0 0 1 1.905-3.697c-3.42-.023-6.538-.457-9.293-1.243-2.546 3.83-3.893 5.821-5.304 9.992-1.467 4.341-1.567 8.63-.076 13.349 2.053 6.501 6.943 9.964 15.573 11.52a45.933 45.933 0 0 1 1.717-1.099.5.5 0 1 1 .522.854l-.642.399c-3.006 1.899-4.572 3.357-4.756 4.208-.103.48.619.804 2.244.746 3.962-.142 9.495-2.356 11.322-4.863a.5.5 0 1 1 .808.59l-.127.165c14.995.338 24.85-10.532 26.034-24.262.013-.146-.165-.375-.402-.447-.29-.089-.603.061-.9.591-3.738 6.651-9.52 11.085-16.126 9.733a8.039 8.039 0 0 1-.496.555c-.406.424-.886.846-1.44 1.24-2.025 1.44-4.472 2.134-7.297 1.664-.575-.096-.69-.872-.167-1.13 2.113-1.042 3.642-2.098 4.682-3.108.407-.395.683-.77.848-1.033a4.842 4.842 0 0 1-.353-.366c-.475.247-1.175.566-1.577.72-1.87.722-3.782 1.056-5.593.776a7.58 7.58 0 0 1-.734-.15c-.571-.147-.61-.944-.055-1.145a20.868 20.868 0 0 0 2.59-1.137c1.21-.638 2.18-1.317 2.93-1.991.233-.21.679-.7.94-.991a8.949 8.949 0 0 1-.033-.444 10.34 10.34 0 0 1-.716.325c-1.791.737-3.764.99-5.792.467-.575-.148-.609-.952-.048-1.147a15.477 15.477 0 0 0 3.733-1.896 14.428 14.428 0 0 0 2.256-1.922c.22-.232.535-.6.763-.935.018-.342.034-.681.05-1.019-1.51.63-2.714 1.355-2.946 1.51-.397.262-.902-.127-.75-.578s1.005-2.639 2.822-4.992c.255-.33.517-.65.786-.958-.289-1.87-.91-3.497-1.95-4.913a27.082 27.082 0 0 1-5.058 1.595c-.047 1.153-.546 2.53-1.413 4.081-.55.984-1.24 2.02-2.039 3.085a45.531 45.531 0 0 1-2.324 2.843l-.4.447-.66.71a.5.5 0 1 1-.718-.698l.28-.296.55-.6a46.784 46.784 0 0 0 2.472-3.006c.773-1.032 1.44-2.031 1.966-2.973 1.493-2.67 1.712-4.566.468-5.48-1.64-1.205-3.537.188-5.491 3.465zm-9.24 30.638-.155.097c-2.806 1.804-4.273 3.191-4.45 4.013-.103.48.62.804 2.245.746 2.591-.093 5.855-1.072 8.314-2.44-2.28-.618-4.258-1.414-5.955-2.416zM34.24 61.137l-.07.032c-1.582.764-3.022 2.232-4.14 4.153-1.418 2.439-1.908 5.058-1.252 5.721.612.618 1.44.535 2.448-.225.093-.07.187-.146.28-.226.127-1.906.518-3.783 1.154-5.665.439-1.297.942-2.51 1.58-3.79zm44.661-6.635c-6.9-1.075-14.035 1.725-17.782 9.472 2.718-1.383 6.109-3.115 10.588-.982-.308-3.785 2.962-4.006 6.44-2.803-.67-1.457-1.246-4.189.754-5.687zm-3.933-3.242c-4.31.011-8.479 1.495-11.623 4.565.305.728.538 1.497.707 2.308 2.653-2.67 5.96-4.378 9.972-4.775.059-.74.333-1.469.944-2.098zM48.5 12.5c-3.755 0-7.159.819-10.05 2.279l.06.113c.242.441.853 1.366 1.83 2.772.357.61.536 1.179.548 1.859.051 2.974-3.586 4.973-6.42 3.737-1.001-.437-1.943-1.46-2.732-2.737C29.664 23.464 28.5 27.051 28.5 31c0 .715.044 1.425.131 2.127a.5.5 0 0 1-.08.338 12.412 12.412 0 0 0-1.692 3.734c.318.919.927 1.804 1.213 2.107.607.645 1.46 1.17 2.605 1.523.595.184.551 1.04-.059 1.162-1.562.313-2.816.16-3.77-.299a6.914 6.914 0 0 1-.262-.132c.038.328.086.652.147.973.448.662 1.044 1.294 1.502 1.719.684.633 1.58 1.149 2.721 1.501.595.184.551 1.04-.059 1.162-.958.192-1.755.217-2.403.104C31.76 52.203 38.86 55.5 48.5 55.5c.12 0 .241 0 .361-.002 1.982-2.821 4.054-3.97 6.106-2.463.609.447.98 1.016 1.14 1.691 5.774-1.262 10.064-4.002 12.397-7.707-.646.113-1.439.087-2.392-.104-.61-.122-.653-.978-.059-1.162 1.142-.352 2.038-.868 2.721-1.501.341-.316 1.065-1.116 1.537-1.963.035-.208.065-.418.09-.63l-.064.033c-.954.46-2.209.612-3.77.299-.61-.123-.654-.978-.06-1.162 1.146-.354 1.998-.878 2.606-1.523a3.92 3.92 0 0 0 .83-1.31c.093-.247.154-.525.202-.785a12.43 12.43 0 0 0-1.696-3.746.5.5 0 0 1-.08-.338c.087-.702.131-1.412.131-2.127 0-3.568-.95-6.84-2.66-9.607-.651.864-1.378 1.535-2.14 1.867-2.833 1.236-6.47-.763-6.418-3.737.011-.676.214-1.258.612-1.895.209-.334 1.13-1.563 1.326-1.853.105-.156.205-.313.3-.47-3.088-1.789-6.836-2.805-11.02-2.805zm7.819 29.928A.6.6 0 0 1 57.1 43c0 1.201-.567 2.932-1.01 3.751-1.275 2.357-3.585 3.78-7.09 3.78s-5.815-1.423-7.09-3.78c-.758-1.4-1.01-3.345-1.01-3.751s.394-.694.781-.572 1.795.473 2.276.574c1.717.361 3.438.577 5.043.577s3.326-.216 5.043-.577a37.51 37.51 0 0 0 2.276-.574zm4.673-5.254a2 2 0 1 1 .35 3.985 2 2 0 0 1-.35-3.985zm-25 0a2 2 0 1 1 .35 3.985 2 2 0 0 1-.35-3.985zm43.64-6.316c-3.406 1.04-8.061 1.772-10.224 1.894l-.027.315C70.794 35.16 71.5 37.471 71.5 40l-.008-.396c2.214-1.159 6.925-4.163 8.14-8.746zm-61.68.007c.587 2.367 2.66 4.782 5.4 6.554.742.48 1.509.9 2.233 1.235.248-2.062 1.033-4.109 2.033-5.588a14.834 14.834 0 0 1-.104-1.3c-1.985.101-6.112-.041-9.561-.901zm60.808-12.9c-4.668 2.645-8.487 4.281-11.043 4.803C68.872 25.244 69.5 28.025 69.5 31c0 .106-.002.221-.005.344 2.676-1.9 8.804-6.926 9.265-13.38zm-59.94.024c.549 5.129 3.448 9.184 8.698 12.164.116-2.883.829-5.567 2.04-7.95-2.504-.341-5.625-1.434-10.739-4.214zM64.528 5.502c-1.234-.021-1.725.936-2.272 3.996-.268 1.64-.516 2.864-.743 3.676a10.508 10.508 0 0 1-1.465 3.16c-.778 1.067-1.214 1.675-1.307 1.824-.309.494-.452.907-.46 1.382-.039 2.198 2.814 3.765 5.018 2.803 1.814-.79 3.603-4.347 4.186-7.161 1.02-4.929-.356-9.634-2.957-9.68zm-30.889 0c-2.6.046-3.977 4.751-2.957 9.68.583 2.814 2.372 6.37 4.186 7.161 2.204.962 5.057-.605 5.019-2.803-.009-.497-.136-.902-.41-1.371-.08-.138-1.383-1.956-1.845-2.795-.36-.654-.981-1.956-1.207-2.903-.15-.63-.403-1.813-.759-3.547-.478-2.672-.886-3.442-2.027-3.422z"/><g fill="#fff"><path d="M55.819 43.815a6.664 6.664 0 0 1-.529 1.847c-1.028.545-2.935 1.143-6.29 1.143-3.352 0-5.26-.602-6.29-1.151a8.219 8.219 0 0 1-.53-1.839c.77.189 1.28.31 1.53.362 1.792.376 3.592.602 5.29.602s3.498-.226 5.29-.602c.25-.053.76-.173 1.529-.362zM48.894 89.734c-4.04-2.74-5.264-9.132-5.264-13.855 0-4.51.694-12.099-3.069-13.565-4.834-1.884-7.975 5.742-7 13s6.539 12.16 15.333 14.42z"/></g></g></svg>