<svg data-id="176-2c8ee82f6a06ed1-tired" xmlns="http://www.w3.org/2000/svg" viewBox="0 0 100 100"><g fill="none" fill-rule="evenodd"><path fill="#fff0d6" d="M52.042 52.061s8.226-12.313 22.286-5.352c-4.546.97-2.769 6.433-2.769 6.433s-6.89-5.923-7.376 1.055c-3.353-5.083-12.14-2.136-12.14-2.136z"/><g fill="#ffaf54"><path d="M43.303 71.37c0 6.049-9.537 9.967-11.315 8.208-1.778-1.76 1.005-4.569 3.737-5.846zM79.437 71.838c15.939 7.929-3.945 7.425-8.694 1.977z"/><path d="M54.163 49.182C72.09 46.06 78.04 60.053 83.153 64.901c6.812 6.458 15.79 2.162 15.79 6.9s-68.712 7.372-64.915.6c-2.233-2.958 2.209-20.097 20.135-23.219z"/><path d="M76.464 72.654c16.882 5.633-4.069 7.512-8.732 2.536zM12.315 64.828c-.294.76-9.334-4.173-10.402-9.958 5.833 2.545 10.249 2.545 10.249 2.545s-10.076-4.19-10.249-12.58c10.102 5.479 14.206 4.676 14.206 4.676z"/></g><path fill="#fff0d6" d="M4.95 42.7c-2.336-4.267-2.816-9.831.281-10.837 2.635-.857 3.238 3.346 5.702 6.66s4.37 3.298 5.007 5.259c.819 2.52-1.853 5.105-4.513 4.799-2.66-.306-5.598-4.276-6.478-5.882z"/><path fill="#ffaf54" d="M21.484 34.215c11.78-3.598 22.082 2.146 25.146 12.178.216.708.386 1.42.51 2.132 1.913 1.576 3.319 3.56 4.03 5.888 2.58 8.448-3.046 17.654-16.838 21.866-13.792 4.213-23.602-.278-26.182-8.726-.711-2.329-.654-4.76.052-7.135a17.76 17.76 0 0 1-.768-2.053c-3.064-10.032 2.27-20.552 14.05-24.15z"/><path fill="#ffaf54" d="M45.284 57.781s6.592-6.975 5.787-14.214c-4.53 3.75-8.436 6.048-8.436 6.048s6.197-8.656 2.223-17.58c-6.855 9.392-10.727 10.922-10.727 10.922z"/><path fill="#fff0d6" d="M38.587 35.395c.903-4.78-.36-10.22-3.617-10.22-2.771 0-2.403 4.416-3.365 8.097-.96 3.68-3.137 4.487-3.137 6.548 0 2.65 3.34 4.283 5.776 3.17 2.434-1.113 4.003-5.796 4.343-7.595z"/><path fill="#ffaf54" d="M44.591 71.649s-11.058 3.357-8.323 7.686 13.478-4.744 13.478-4.744z"/><path fill="#fff0d6" d="M75.79 54.48c-4.59-.723-5.347 3.16-5.347 3.16s-3.685-6.24-7.24-1.768c-1.474-6.383-10.13-4.384-10.13-4.384s12.09-8.543 22.717 2.993z"/><path fill="#fff" d="M2.947 74.652a4.504 4.504 0 0 1 5.515.909l1.834-1.059a.976.976 0 0 1 1.288.276l.063.1c.267.483.1 1.096-.381 1.374l-1.821 1.052a4.504 4.504 0 0 1-8.253 3.468 4.502 4.502 0 0 1 1.755-6.12z"/><g fill-rule="nonzero"><path fill="#872e00" d="M34.97 24.675c3.48 0 5.143 5.336 4.108 10.812l-.016.083c.524.327 1.031.679 1.52 1.056a72.202 72.202 0 0 0 3.872-4.887.5.5 0 0 1 .86.092c1.681 3.774 1.75 7.698.697 11.525.438.912.814 1.873 1.122 2.881l-.062-.197a75.548 75.548 0 0 0 3.681-2.859.5.5 0 0 1 .816.33c.217 1.948-.058 3.946-.725 5.95a29.643 29.643 0 0 1 3.234-.748l.367-.062c1.936-1.733 4.27-3.146 6.983-3.936 4.026-1.171 8.411-.774 13.104 1.55a.5.5 0 0 1-.118.938c-1.79.381-2.596 1.528-2.703 3.212 1.536.95 3.025 2.188 4.455 3.74a.5.5 0 0 1-.446.833 6.721 6.721 0 0 0-.833-.08l.25.012a38.05 38.05 0 0 1 1.975 2.052l.3.34c.707.805 5.018 6.237 6.086 7.25a13.011 13.011 0 0 0 3.986 2.594c1.839.769 3.146 1.032 6.193 1.366l.766.082c3.745.39 5.002.978 5.002 3.22 0 1.61-5.36 2.944-13.686 3.861.085.146.148.287.19.426.429 1.39-.88 2.118-3.074 2.231-.65.034-1.341.02-2.054-.038-.173.034-.352.064-.538.092-3.572.532-8.237-.09-11.108-1.579-1.342.049-2.711.09-4.1.124l-1.592.034c-5.79.109-11.212.037-15.779-.217-.608.44-1.235.87-1.87 1.28-1.119.722-2.2 1.338-3.22 1.819-2.936 1.383-5.209 1.58-6.48.108-1.954.685-3.71.747-4.497-.032-.654-.648-.84-1.433-.63-2.267-11.701 2.45-20.743-1.532-23.319-9.958a11.965 11.965 0 0 1-.466-4.915l-.12-.093c-3.033-2.322-5.18-5.03-5.68-7.739a.5.5 0 0 1 .692-.549 32.865 32.865 0 0 0 4.245 1.52 19.177 19.177 0 0 1-.222-1.833c-2.894-2.594-4.649-5.677-4.723-9.254a.5.5 0 0 1 .738-.45 59.926 59.926 0 0 0 4.906 2.399c.032-.099.066-.197.1-.294a16.867 16.867 0 0 1-2.646-3.56c-2.677-4.89-2.744-10.478.566-11.553 1.525-.496 2.532.26 3.61 2.18.153.273.986 1.9 1.469 2.79l.217.39c.316.547.63 1.032.961 1.478.227.305.453.587.68.85 2.448-2.346 5.596-4.203 9.336-5.346 3.416-1.044 6.757-1.319 9.856-.92l.056-.249a23.677 23.677 0 0 0 .265-1.39l.255-1.623c.576-3.588 1.211-4.872 3.188-4.872zm20.942 24.776-.265.033c-.459.06-.924.132-1.398.214-1.34.234-2.622.55-3.844.943-.062.154-.127.308-.194.46.6.87.975 1.706 1.339 2.764l.127.394c1.935 6.328-.555 12.617-6.604 17.268l-.012-.053a.5.5 0 0 1-.333.623l-.353.114-.453.156a28.44 28.44 0 0 0-3.394 1.434c-3.406 1.72-4.928 3.515-3.84 5.235.825 1.305 2.732 1.22 5.5-.084.976-.46 2.019-1.055 3.102-1.754a44.546 44.546 0 0 0 2.933-2.073l.463-.36.213-.169.514-.42a.5.5 0 0 1 .645.764l-.33.273-.423.337-.346.27c4.49.213 9.734.259 15.296.14l1.847-.046a289 289 0 0 0 1.634-.05 4.807 4.807 0 0 1-.342-.33.5.5 0 0 1 .73-.684c1.964 2.095 7.831 3.18 12.01 2.557 1.694-.252 2.453-.718 2.307-1.103-.292-.774-2.321-1.913-6.106-3.176a.5.5 0 0 1 .316-.948l.744.254c2.549.891 4.273 1.728 5.213 2.53 9.316-.842 15.836-2.055 15.836-3.14 0-1.402-.751-1.835-3.556-2.165l-1.666-.181c-2.903-.328-4.243-.613-6.124-1.4a14.01 14.01 0 0 1-4.289-2.79c-.678-.643-2.516-2.875-4.022-4.722-.104.255-.235.549-.396.874a14.677 14.677 0 0 1-2.382 3.448 14.675 14.675 0 0 1-3.458 2.757c-.565.326-1.17-.356-.78-.879a18.61 18.61 0 0 0 3.173-6.67c.126-.504.443-1.972.48-3.294l.002-.16c-.155.445-.395.92-.524 1.203a20.342 20.342 0 0 1-2.156 3.672c-1.217 1.636-2.639 2.98-4.283 3.929-.565.325-1.17-.357-.78-.88a18.94 18.94 0 0 0 1.733-2.822 25.203 25.203 0 0 0 1.786-4.718l-.042.085a3.251 3.251 0 0 0-.22.64.5.5 0 0 1-.921.158 5.137 5.137 0 0 0-.134-.21l-.142-.21-.129-.18c-.315.493-.648.979-1 1.453-1.338 1.808-2.817 3.297-4.439 4.35-.547.354-1.188-.296-.825-.838a25.906 25.906 0 0 0 1.868-3.337 37.233 37.233 0 0 0 1.607-4.019c-1.113-.4-2.175-.044-3.227 1.279a.5.5 0 0 1-.878-.2c-.674-2.92-2.992-4.19-6.315-4.287a14.43 14.43 0 0 0-3.033.24l-.183.038c-.534.123-.849-.58-.401-.896.07-.05.18-.123.328-.215l.25-.154c.458-.274.985-.56 1.575-.84.317-.151.641-.296.97-.432zM35.722 76.37l-.371.125a42.263 42.263 0 0 1-3.183.909c-.366.727-.313 1.339.172 1.818.436.432 1.72.368 3.24-.131-.427-.942-.351-1.85.143-2.721zm9.011-43.325-.19.255c-2.61 3.477-4.955 6.051-7.015 7.857l-.28.241a19.936 19.936 0 0 1-1.813 1.396 4.17 4.17 0 0 1-.983.65c-2.811 1.286-6.484-.649-6.484-3.624 0-.676.193-1.261.58-1.905.156-.26.725-1.057 1.065-1.544l.228-.332a9.5 9.5 0 0 0 1.093-2.256c-2.92-.355-6.068-.083-9.292.902-11.193 3.423-16.8 13.456-13.717 23.54.209.684.458 1.35.747 1.995a.5.5 0 0 1 .023.346 12.569 12.569 0 0 0-.537 3.57c1.463.095 2.539-.152 3.295-.612.363-.22.561-.428.63-.54l.054-.072a.5.5 0 0 1 .797.597c-.148.24-.456.562-.962.87-.967.588-2.3.882-4.044.743l.273.018c.068.771.215 1.532.443 2.276 2.645 8.653 12.674 12.333 25.57 8.39a39.693 39.693 0 0 0 2.87-.996c.778-.66 1.79-1.294 2.993-1.902.961-.486 1.983-.92 3-1.299l.384-.138c1.79-1.239 3.292-2.612 4.487-4.083-2.295.661-5.07.735-8.193-.157-.643-.184-.55-1.123.117-1.175 3.073-.242 5.704-1.084 7.91-2.334.805-.457 2.393-1.525 3.232-2.477.049-.223.092-.447.13-.672-.398.25-.908.528-1.525.804-2.679 1.195-5.93 1.66-9.703.974-.698-.127-.636-1.148.072-1.19 3.362-.197 6.031-1.398 8.097-3.279a12.145 12.145 0 0 0 1.952-2.269c.187-.282.46-.758.663-1.126a11.04 11.04 0 0 0-1.006-2.282 26.621 26.621 0 0 1-1.056 1.893 28.49 28.49 0 0 1-2.402 3.355l-.324.378c-.124.142-.214.24-.264.294a.5.5 0 1 1-.727-.687l.239-.266c.195-.223.413-.483.649-.777a27.497 27.497 0 0 0 1.976-2.819c1.823-2.983 2.89-6.006 2.855-8.883l-.005-.126-.744.594c-1.25.982-2.5 1.9-3.725 2.75l-.731.5c-.544.368-1.05.7-1.514.995l-.898.56-.134.08c-.466.274-.975-.283-.66-.722.102-.144.289-.428.53-.837.407-.688.815-1.473 1.195-2.34 1.837-4.192 2.38-8.575.901-12.77zm39.896 42.76-.083.009c-.387.04-.78.078-1.177.115l.008.02c.206.545.095 1.003-.27 1.376 1.42-.112 2.022-.479 1.886-.92-.055-.178-.176-.379-.364-.6zm-67.872-5.097c1.64 0 2.843.257 2.843 1.292 0 1.069-.902 1.912-2.335 1.912-1.613 0-3.865-.888-3.865-1.912 0-.706.586-.966 1.618-1.145a11.326 11.326 0 0 1 1.74-.147zm2.417-7.834a.5.5 0 0 1 .706.036c.626.692 1.569 1.182 2.75 1.489 1.24.321 2.551.406 3.658.358l.182-.01a.5.5 0 1 1 .078.997l-.217.012c-1.197.052-2.6-.039-3.952-.39-1.354-.35-2.466-.928-3.24-1.785a.5.5 0 0 1 .035-.707zM2.656 55.722l.047.136c.727 1.986 2.418 4.003 4.692 5.804.08-.395.176-.796.29-1.204a15.601 15.601 0 0 1-.716-1.941 20.734 20.734 0 0 1-.396-1.49 33.03 33.03 0 0 1-3.67-1.205zm71.585-2.092c-4.202-3.951-8.837-5.22-13.634-4.478-1.87.29-3.635.872-5.236 1.634l.158-.073.403-.008.502.005c3.344.098 5.891 1.316 6.955 4.061l.045.122.038-.036c1.61-1.506 3.383-1.39 5.08-.097l.175.138c.5.407.959.885 1.368 1.394l.215.277.025-.053c.73-1.487 2.045-2.514 4.063-2.605l.132-.004zM2.47 45.7l.017.155c.315 2.541 1.594 4.816 3.598 6.821.005-1.686.235-3.336.675-4.921l-.323-.139a58.883 58.883 0 0 1-3.729-1.79zm70.33.871c-3.977-1.68-7.675-1.889-11.093-.894-2.012.585-3.81 1.54-5.378 2.72a27.635 27.635 0 0 1 3.668-.154l.457-.078c3.549-.55 7.026-.057 10.308 1.702.2-1.416.875-2.537 2.133-3.186l.074-.036zM45.558 44.8l-.064.18a24.728 24.728 0 0 1-1.239 2.861l-.125.237.744-.495c.442-.3.889-.608 1.338-.927l-.036-.126a19.614 19.614 0 0 0-.618-1.73zM7.814 34.055c-.871-1.553-1.496-2.021-2.428-1.718-2.474.804-2.415 5.706.002 10.121a15.89 15.89 0 0 0 2.176 3.004 19.206 19.206 0 0 1 3.744-5.679 15.05 15.05 0 0 1-.776-.963c-.356-.478-.69-.995-1.025-1.573-.12-.208-.305-.551-.51-.939zm27.156-8.38c-1.196 0-1.678.905-2.155 3.752l-.338 2.12-.102.565c-.089.465-.182.886-.286 1.285a10.508 10.508 0 0 1-1.41 3.185c-.18.278-.841 1.198-1.147 1.652l-.127.195c-.3.5-.437.914-.437 1.39 0 2.198 2.88 3.715 5.068 2.715 1.799-.822 3.526-4.41 4.06-7.233.934-4.946-.525-9.627-3.126-9.627zm3.852 10.927-.012.044a17.142 17.142 0 0 1-1.143 3.032 40.886 40.886 0 0 0 2.247-2.302c-.353-.273-.718-.53-1.092-.774z"/><path fill="#2c97de" d="M2.827 74.433a4.752 4.752 0 1 0 4.607 8.313l.193-.113a4.755 4.755 0 0 0 2.165-4.975l-.055-.234 1.655-.955a1.269 1.269 0 0 0 .474-1.713l-.07-.111-.08-.1a1.226 1.226 0 0 0-1.544-.26l-1.664.96-.166-.16a4.755 4.755 0 0 0-5.515-.652zm.242.438a4.253 4.253 0 0 1 5.209.858.25.25 0 0 0 .31.049l1.834-1.06c.33-.19.74-.1.96.206l.054.087a.766.766 0 0 1-.294 1.025L9.32 77.087a.25.25 0 0 0-.115.288 4.253 4.253 0 0 1-7.794 3.276 4.252 4.252 0 0 1 1.657-5.78z"/></g></g></svg>