<svg data-id="177-bf02c6a615d027b-smile" xmlns="http://www.w3.org/2000/svg" viewBox="0 0 100 100"><g fill="none" fill-rule="evenodd"><path fill="#fff0d6" d="M29.532 67.046s-4.513-14.1-19.943-11.283c4.1 2.185.888 6.945.888 6.945s8.253-3.794 6.799 3.046c4.622-3.96 12.256 1.292 12.256 1.292zM60.225 65.468S63.496 51.034 79.108 52.5c-3.895 2.532-.282 6.994-.282 6.994s-8.549-3.063-6.507 3.624c-4.947-3.544-12.094 2.35-12.094 2.35z"/><g fill="#ffaf54"><path d="M37.678 93.612c-15.216 0-20.726-8.246-21.715-19.715-.068-.784 1.334-1.75 2.236-.144 2.43 4.325 6.142 7.82 10.058 6.382-3.064-3.96-3.13-16.294 7.947-26.498 0 0 16.726-1.081 20.06 1.948 5.012 7.468 9.636 14.817 6.369 25.162-3.267 10.344-11.994 12.865-24.955 12.865z"/><path d="M52.498 86.707c-9.586 15.002 7.204 4.336 8.471-2.78-.43-2.72-8.471 2.78-8.471 2.78zM58.4 62.088s11.203 2.819 11.09-2.3c-.115-5.117-13.992-2.876-13.992-2.876zM64.458 41.932c.434.851 9.468-5.316 9.489-12.067-5.39 2.354-10.687 3.517-10.687 3.517s9.254-6.642 7.899-16.32c-9.185 7.137-13.33 7.539-13.33 7.539zM23.877 46.583c-.184.937-10.422-1.513-12.3-7.994 5.827.779 11.097-.552 11.097-.552s-10.58-2.846-11.94-12.518c10.788 4.33 14.743 2.586 14.743 2.586z"/><path d="M39.919 16.253c12.199-1.712 21.477 5.572 22.936 15.96.103.734.16 1.463.171 2.186 1.643 1.856 2.721 4.035 3.06 6.447 1.228 8.748-5.769 16.962-20.051 18.967s-23.27-3.964-24.499-12.712c-.339-2.412.098-4.804 1.167-7.04a17.761 17.761 0 0 1-.438-2.148c-1.459-10.389 5.455-19.947 17.654-21.66z"/></g><path fill="#fff0d6" d="M59.702 16.69c.23-4.856-1.777-10.066-5.001-9.614-2.743.386-1.765 4.706-2.205 8.484-.44 3.777-2.482 4.878-2.196 6.919.369 2.623 3.903 3.775 6.158 2.335 2.256-1.44 3.158-6.295 3.244-8.123zM22.257 22.06c-1.637-4.581-1.238-10.153 1.98-10.661 2.737-.432 2.673 3.814 4.587 7.474s3.8 3.944 4.12 5.98c.414 2.619-2.632 4.754-5.21 4.034s-4.86-5.103-5.477-6.827z"/><path fill="#ffaf54" d="M35.367 60.622c-3.782-1.51-12.259-8.495-13.902-3.038-1.643 5.457 12.003 8.542 12.003 8.542s2.583-6.151 1.899-5.504z"/><path fill="#872e00" fill-rule="nonzero" d="M60.209 16.792c-.111 1.716-.562 3.685-1.279 5.33.312.36.61.733.893 1.118 2.744-.918 6.485-3.276 10.962-6.678.304-.231.745-.095.818.282.762 3.919-.557 9.848-6.477 15.377 3.935-1.143 6.125-1.819 8.512-2.99a.525.525 0 0 1 .753.415c.322 3.252-2.623 8.291-7.73 11.743.545 5.922-2.503 11.192-8.306 14.716a45.582 45.582 0 0 1 2.239-.168c1.33-.043 2.574-.014 3.696.099.314.032.618.07.91.115 3.387-3.12 7.975-4.73 13.931-4.172a.5.5 0 0 1 .226.917c-1.324.86-1.753 1.984-1.521 3.34.232 1.356 1.038 2.53 1.356 2.923.319.393-.08.956-.557.785a15.52 15.52 0 0 0-1.762-.47c-.746-.146-1.45-.219-2.071-.196-2.037.077-2.823 1.076-2.028 3.676a.5.5 0 0 1-.77.553c-1.02-.731-2.192-1.022-3.488-1.003-.912.56-2.226.825-3.847.851a18.59 18.59 0 0 0-2.502 1.335c.319.736.6 1.472.858 2.237 1.535 4.538 1.64 9.044.083 13.97-.56 1.775-1.27 3.342-2.147 4.717-1.364 3.126-4.868 6.714-8.04 8.403-1.938 1.033-3.436 1.082-3.784-.33a2.232 2.232 0 0 1-.057-.584c-3.206.698-6.983 1.009-11.403 1.009-14.23 0-21.08-7.037-22.214-20.172-.056-.645.441-1.287 1.107-1.49.767-.234 1.548.14 2.064 1.058l.17.3c2.463 4.242 5.537 6.598 8.466 6.078l.186-.037-.035-.057c-1.417-2.396-1.851-6.395-.985-10.664.19-.933.436-1.866.739-2.795-1.231-.607-2.828-1.252-4.285-1.413-2.094-.233-3.904.05-5.304 1.25a.5.5 0 0 1-.814-.483c.565-2.66-.305-3.587-2.341-3.485-.621.03-1.316.165-2.046.376a15.52 15.52 0 0 0-1.715.622c-.46.21-.906-.315-.623-.734s.984-1.66 1.096-3.03c.113-1.372-.413-2.453-1.806-3.195a.5.5 0 0 1 .145-.934c4.635-.846 8.541-.279 11.773 1.374.665-1.31 1.87-1.826 3.48-1.621l.251.037c-2.142-2.153-3.517-4.873-3.962-8.036-.012-.09-.024-.182-.034-.273-.895-.25-1.89-.621-2.873-1.077-3.539-1.641-6.177-4.064-7.055-7.096a.5.5 0 0 1 .546-.635c2.654.356 5.12.313 9.15-.196-7.492-3.195-9.998-8.358-10.553-12.31a.5.5 0 0 1 .681-.534c5.316 2.134 9.284 2.954 12.067 2.908.255-.622.545-1.228.866-1.818a16.848 16.848 0 0 1-2.057-3.93c-1.88-5.247-1.071-10.777 2.366-11.322 1.842-.291 2.595.746 3.59 3.783.623 1.808 1.025 2.91 1.205 3.303.163.358.522 1.004.873 1.581 2.78-1.927 6.174-3.265 10.038-3.808 4.34-.61 8.388-.093 11.866 1.327.145-.477.253-.978.326-1.527.102-.76.17-1.874.207-3.344.12-3.863.564-5.284 2.58-5.532 3.455-.424 5.755 4.67 5.396 10.231zm2.462 60.935c-1.337.042-2.94-.21-4.612-.955-.584-.26-.405-1.221.23-1.148 1.21.139 3.944-.744 4.928-2.254-.007-.225-.017-.45-.032-.674-1.12.422-2.736.355-4.77-.281-.603-.189-.544-1.06.078-1.165 1.062-.179 2.84-.8 4.006-2.62a23.33 23.33 0 0 0-.421-1.383l-.325-.912a29.364 29.364 0 0 0-1.497-3.325l.237.005a33.23 33.23 0 0 1-.848-.148 97.738 97.738 0 0 1-1.408-.3.5.5 0 0 1 .244-.969c.718.157 1.167.252 1.348.286a28.44 28.44 0 0 0 3.13.418c3.805.278 6.034-.476 5.988-2.511-.035-1.543-1.715-2.452-4.758-2.76-1.073-.109-2.274-.136-3.563-.095-.964.031-3.473.283-4.574.405-2.833 1.344-6.175 2.327-9.955 2.858-3.852.542-7.396.506-10.535-.032l-.04-.02a.5.5 0 0 1-.371.928 36.972 36.972 0 0 1-2.779-1.44c-.902-.518-1.837-1.05-2.803-1.599-2.13-1.168-3.702-1.824-4.96-1.984-1.424-.181-2.281.301-2.69 1.659-.61 2.02 1.259 3.943 4.963 5.652 1.613.744 3.411 1.373 5.196 1.878l1.468.383a.5.5 0 0 1-.221.976c-.744-.189-1.25-.32-1.52-.397a42.377 42.377 0 0 1-2.605-.826c1.072 1.476 2.572 2.072 3.514 2.283.616.137.63 1.01.019 1.166-2.116.543-3.977.712-5.155-.233-.031.128-.06.257-.089.386.755 1.517 3.138 2.018 4.405 2.116.637.05.765.929.169 1.158-1.83.704-3.681.98-5.06.488a24.83 24.83 0 0 0-.008.295c.951 1.02 3.61 1.318 4.982 1.216.635-.047.89.757.347 1.116-1.745 1.156-3.674 1.773-4.858 1.926a8.9 8.9 0 0 0 .54 1.472c.126-.369.27-.745.429-1.128a.5.5 0 0 1 .923.383c-.27.652-.492 1.277-.663 1.878l-.044-.07a.5.5 0 0 1-.122.725c-.722 3.173.091 5.718 2.919 8.3 1.76 1.607 4.07 1.83 5.087.821 1.026-1.018.227-2.956-2.892-5.049a.5.5 0 1 1 .557-.83c3.567 2.393 4.642 5 3.04 6.59-1.437 1.425-4.344 1.144-6.466-.794-2.96-2.702-3.918-5.449-3.33-8.719-3.507.642-7.004-2.11-9.682-6.875-.298-.53-.61-.68-.9-.591-.238.072-.415.301-.403.447 1.09 12.641 7.533 19.258 21.218 19.258l.98-.005c4.119-.045 7.626-.378 10.594-1.065.361-1.355 1.303-3.223 2.845-5.64a.5.5 0 1 1 .843.539l-.402.64c-1.869 3.025-2.638 5.022-2.43 5.867.118.477.909.451 2.344-.314 3.5-1.864 7.502-6.279 8.045-9.333a.5.5 0 0 1 .555-.408c.163-.333.317-.678.465-1.034a10.289 10.289 0 0 1-4.573-1.652c-.53-.353-.226-1.178.405-1.097 1.332.169 4.135-.112 5.415-1.313.041-.195.08-.387.115-.58zM10.86 56.078c1.975 1.533 1.351 4.254.655 5.7 3.499-1.143 6.764-.865 6.39 2.914 3.995-1.817 7.086-.625 9.61.664.065-.18.134-.36.205-.54a30.584 30.584 0 0 1-1.258-.545c-3.988-1.84-6.173-4.017-5.57-6.596-3.082-1.583-6.578-2.073-10.031-1.597zm50.653 7.083-.026.062c.09.181.177.361.261.54.258-.165.524-.33.797-.494a23.119 23.119 0 0 1-1.032-.108zm16.3-10.27c-4.086-.204-8.114.923-11.336 3.52 2.17.565 3.43 1.638 3.468 3.357.017.719-.141 1.317-.454 1.806.65.091 1.335.257 2.055.511-.702-3.731 2.527-4.293 6.112-3.46-.82-1.38-1.678-4.036.155-5.735zM51.362 17.904c-3.327-1.366-7.21-1.865-11.389-1.277-3.718.522-6.975 1.807-9.635 3.655l.074.103c.303.404 1.036 1.234 2.2 2.49.438.555.694 1.094.8 1.766.466 2.938-2.859 5.423-5.836 4.594-1.053-.294-2.128-1.175-3.088-2.33-1.642 3.2-2.295 6.914-1.745 10.825.1.708.241 1.405.425 2.088a.5.5 0 0 1-.031.346 12.412 12.412 0 0 0-1.156 3.934c.442.864 1.169 1.656 1.493 1.917.692.554 1.609.954 2.793 1.145.614.1.69.953.103 1.159-1.503.527-2.767.551-3.775.229a6.916 6.916 0 0 1-.278-.095c.083.32.176.634.28.942.536.595 1.215 1.138 1.728 1.494.765.533 1.723.919 2.903 1.109.615.099.69.952.103 1.158-.922.324-1.708.46-2.365.438.7.826 1.509 1.578 2.42 2.248.795.334 1.673.773 2.664 1.317.745.426 1.388.794 1.931 1.103l-.031-.048c3.824 1.35 8.584 1.756 14.008.994 9.539-1.34 16.109-5.588 18.624-11.172-.6.199-1.354.299-2.275.277-.622-.014-.813-.85-.26-1.133 1.064-.546 1.856-1.21 2.42-1.952.307-.405.966-1.462 1.255-2.461.001-.095 0-.19-.001-.286l-.033.024c-.86.618-2.068.986-3.66.949-.623-.015-.814-.85-.26-1.134 1.066-.547 1.814-1.211 2.3-1.953a3.92 3.92 0 0 0 .59-1.434c.07-.373.066-.8.06-1.143a12.498 12.498 0 0 0-2.073-3.179.5.5 0 0 1-.125-.323 17.314 17.314 0 0 0-.167-2.125c-.49-3.495-1.862-6.573-3.904-9.062-.526.949-1.153 1.716-1.862 2.152-2.634 1.618-6.514.145-6.877-2.807-.082-.671.037-1.276.343-1.962.16-.36.902-1.706 1.055-2.02l.15-.318zm.52 27.271a.6.6 0 0 1 .852.458c.167 1.19-.153 2.983-.478 3.855-.934 2.512-3.024 4.242-6.495 4.73s-5.956-.6-7.547-2.756c-.945-1.281-1.466-3.173-1.522-3.575a.6.6 0 0 1 .694-.675c.4.068 1.843.22 2.334.252 1.75.119 3.484.093 5.074-.13 1.59-.224 3.264-.677 4.913-1.273a37.51 37.51 0 0 0 2.174-.886zm-30.01-6.55-.093.016c-1.99.375-6.021.788-9.5.423.91 2.263 3.298 4.366 6.259 5.739.801.371 1.62.681 2.384.912-.042-2.077.45-4.213 1.235-5.816a14.832 14.832 0 0 1-.284-1.274zm51.485-8.152c-3.228 1.505-7.737 2.877-9.86 3.299l.016.315c1.69 1.877 2.712 4.067 3.064 6.57l-.06-.391c2.03-1.457 6.275-5.087 6.84-9.793zm-62.012-4.28c1.258 5.002 4.693 8.614 10.306 10.834-.285-2.87.047-5.628.916-8.158-2.527.013-5.77-.634-11.222-2.676zM70.7 17.827c-4.254 3.27-7.809 5.422-10.268 6.294 1.49 2.291 2.498 4.957 2.913 7.904.014.105.028.219.042.34 2.385-2.251 7.755-8.082 7.313-14.538zm-43.931-2.954c-.846-2.58-1.357-3.285-2.484-3.107-2.569.407-3.277 5.258-1.58 9.997.968 2.705 3.235 5.978 5.14 6.51 2.317.645 4.924-1.304 4.58-3.475-.077-.491-.26-.874-.597-1.301-.098-.125-1.64-1.745-2.215-2.51-.448-.598-1.244-1.802-1.599-2.708-.237-.604-.652-1.74-1.245-3.406zm28.13-7.285c-1.224.15-1.578 1.167-1.693 4.273-.038 1.661-.113 2.909-.225 3.744a10.508 10.508 0 0 1-1.01 3.333c-.622 1.165-.97 1.828-1.04 1.988-.238.533-.322.961-.264 1.433.267 2.182 3.31 3.337 5.36 2.078 1.685-1.036 2.962-4.807 3.148-7.675.324-5.023-1.694-9.49-4.276-9.174z"/><path fill="#fff" d="M51.58 46.62a6.746 6.746 0 0 1-.358 2.194c-1.609.898-3.593 1.512-5.953 1.84-2.435.34-4.528.281-6.28-.175a8.029 8.029 0 0 1-.916-1.962c.789.08 1.31.128 1.566.146 1.826.123 3.64.096 5.322-.14s3.432-.71 5.154-1.333c.24-.087.728-.277 1.464-.57z"/><path fill="#872e00" fill-rule="nonzero" d="M32.678 42.583c-2.169-.421-4.46.016-4.729.08a.5.5 0 0 0 .145.986l.715-.12c.954-.146 2.715-.308 4.517.245-3.911.466-5.052 2.815-5.176 3.173a.5.5 0 0 0 .908.409l.037-.082c.183-.472 1.004-1.37 2.127-1.895 1.19-.557 2.716-.73 4.052-.723a.5.5 0 0 0 .286-.912c-.837-.576-1.81-.953-2.882-1.161zm22.484-3.158c1.969-1.002 4.292-1.214 4.568-1.226a.5.5 0 0 1 .133.987l-.72.082c-.959.123-2.695.452-4.275 1.481 3.888-.63 5.632 1.313 5.85 1.624a.5.5 0 0 1-.76.643l-.059-.07c-.305-.403-1.342-1.038-2.567-1.234-1.297-.208-2.811.046-4.094.421a.5.5 0 0 1-.526-.798c.646-.783 1.477-1.414 2.45-1.91z"/><path fill="#fff" d="M38.4 92.97c7.89-2.643-.261-14.32-.858-18.615-1.1-7.917 1.522-12.699 9.125-12.699 8.226 0 8.754 9.02 8.226 12.948-.975 7.258-6.477 18.365-16.494 18.365z"/><g fill="#484848" fill-rule="nonzero"><path d="M87.76 33.46a.25.25 0 0 0 .49-.098C85.866 21.428 78.04 11.31 69.182 10.533a.25.25 0 0 0-.044.498c8.59.752 16.276 10.688 18.622 22.43z"/><path d="M90.76 30.46a.25.25 0 1 0 .49-.099C88.866 18.427 81.04 8.308 72.182 7.532a.25.25 0 0 0-.044.498c8.59.752 16.276 10.688 18.622 22.43z"/><path d="M71.477 16.305a.25.25 0 0 0 .3.037l.053-.041L82.2 5.698a.25.25 0 0 0-.305-.39l-.053.04-10.368 10.603a.25.25 0 0 0 .004.354zM79.738 20.152a.25.25 0 0 0 .291.083l.059-.033L94.806 9.176a.25.25 0 0 0-.241-.433l-.059.033-14.718 11.026a.25.25 0 0 0-.05.35zM81.398 28.514a.25.25 0 0 0 .257.16l.065-.014 16.058-6.074a.25.25 0 0 0-.111-.483l-.065.015-16.059 6.074a.25.25 0 0 0-.145.322zM87.76 64.54a.25.25 0 0 1 .49.098C85.866 76.572 78.04 86.69 69.182 87.467a.25.25 0 0 1-.044-.498c8.59-.752 16.276-10.688 18.622-22.43z"/><path d="M90.76 67.54a.25.25 0 1 1 .49.099C88.866 79.573 81.04 89.692 72.182 90.468a.25.25 0 0 1-.044-.498c8.59-.752 16.276-10.688 18.622-22.43z"/><path d="M71.477 81.695a.25.25 0 0 1 .3-.037l.053.041L82.2 92.302a.25.25 0 0 1-.305.39l-.053-.04-10.368-10.603a.25.25 0 0 1 .004-.354zM79.738 77.848a.25.25 0 0 1 .291-.083l.059.033 14.718 11.026a.25.25 0 0 1-.241.433l-.059-.033-14.718-11.026a.25.25 0 0 1-.05-.35zM81.398 69.486a.25.25 0 0 1 .257-.16l.065.014 16.058 6.074a.25.25 0 0 1-.111.483l-.065-.015-16.059-6.074a.25.25 0 0 1-.145-.322z"/></g></g></svg>