<svg data-id="178-55efd69a6981368-open" xmlns="http://www.w3.org/2000/svg" viewBox="0 0 100 100"><g fill="none" fill-rule="evenodd"><g transform="translate(15 3)"><path fill="#fff0d6" d="M23.418 54.782S16.07 41.928 1.561 47.893c4.467 1.284 2.314 6.61 2.314 6.61s7.285-5.43 7.285 1.565c3.697-4.837 12.258-1.286 12.258-1.286zM46.593 56.05s5.488-13.747 20.68-9.858c-4.243 1.892-1.372 6.865-1.372 6.865s-7.966-4.362-6.993 2.562c-4.333-4.274-12.315.43-12.315.43z"/><g fill="#ffaf54"><path d="M47.036 81.875s15.945-5.518 15.08-18.74c-7.54 8.87-15.081 5.094-15.081 5.094z"/><path d="M34.061 88.314c10.77 0 19.5-4.788 19.5-17.215 0-12.426-8.73-26.785-19.5-26.785s-19.5 14.359-19.5 26.785c0 12.427 8.73 17.215 19.5 17.215z"/><path d="M24.272 85.531c-1.039 3.765-4.375 6.952-6.635 5.45-2.26-1.504-.736-5.45 1.674-7.936 2.725-2.05 4.961 2.486 4.961 2.486zM43.61 85.52c1.038 3.765 4.374 6.952 6.635 5.45 2.26-1.504.735-5.45-1.675-7.936-2.725-2.05-4.96 2.486-4.96 2.486zM56.192 36.796c.312.902 10.107-3.952 11.062-10.63-5.66 1.584-11.064 2-11.064 2s10.079-5.292 10.078-15.058C56.189 18.9 52.03 18.724 52.03 18.724zM15.373 35.798c-.312.902-10.107-2.951-11.063-9.63 5.661 1.584 11.064 1.001 11.064 1.001S5.296 22.877 5.297 13.111c10.078 5.791 14.237 4.615 14.237 4.615z"/><path d="M35.5 8C47.822 8 56 16.507 56 27c0 .74-.046 1.47-.135 2.189C57.235 31.255 58 33.564 58 36c0 8.837-8.074 16-22.5 16S13 44.837 13 36c0-2.436.766-4.745 2.135-6.811A17.766 17.766 0 0 1 15 27c0-10.493 8.178-19 20.5-19z"/></g><path fill="#fff0d6" d="M54.986 11.306c.984-4.764-.187-10.226-3.444-10.281-2.77-.047-2.478 4.374-3.502 8.04-1.023 3.664-3.213 4.433-3.248 6.495-.045 2.65 3.268 4.34 5.721 3.267 2.454-1.071 4.102-5.728 4.473-7.521zM17.191 11.293c-.984-4.764.187-10.226 3.444-10.281 2.77-.047 2.116 4.149 3.502 8.04 1.386 3.89 3.213 4.433 3.248 6.495.045 2.65-3.268 4.34-5.721 3.267-2.454-1.071-4.102-5.728-4.473-7.521z"/><circle cx="24.5" cy="33.5" r="4.5" fill="#fff"/><circle cx="46.5" cy="33.5" r="4.5" fill="#fff"/><path fill="#ffaf54" d="M47.134 54.112c1.29-.595 2.374-2.186 5.792-2.876 3.418-.689 7.353 2.412 6.84 5.46-.414 2.47-4.07-.526-5.733-.499-1.665.028-5.13 2.299-5.13 2.299s-2.365-4.874-1.77-4.384zM22.11 53.16c-1.29-.597-2.326-2.295-5.78-2.904s-7.598 2.962-7.208 6.283c.317 2.69 4.171-.752 5.866-.794s5.129 2.3 5.129 2.3 2.62-5.447 1.992-4.885z"/></g><path fill="#872e00" fill-rule="nonzero" d="M35.61 3.423c1.866-.033 2.466 1.1 3.03 4.245.365 1.877.61 3.023.732 3.439.112.377.378 1.066.644 1.686 3.022-1.521 6.57-2.373 10.471-2.373 4.35 0 8.26 1.059 11.492 2.922.22-.467.404-.964.56-1.518.206-.738.429-1.832.669-3.283.656-3.809 1.294-5.154 3.325-5.118 3.48.06 5.05 5.424 3.92 10.882-.35 1.687-1.073 3.577-2.013 5.108.279.427.54.867.784 1.319 2.844-.528 6.877-2.342 11.784-5.089.333-.186.751.01.771.394.209 3.986-1.922 9.674-8.554 14.326 4.056-.585 6.319-.95 8.845-1.777a.525.525 0 0 1 .688.516c-.133 3.265-3.751 7.845-9.289 10.553-.307 6.41-4.653 11.487-11.803 14.014.489.579.96 1.187 1.41 1.82.35-.493.749-1.014 1.202-1.54 4.296-5 10.308-7.344 18.195-5.326a.5.5 0 0 1 .08.94c-1.443.644-2.043 1.686-2.026 3.062.017 1.376.63 2.661.883 3.1s-.23.93-.673.688a15.52 15.52 0 0 0-1.668-.74c-.713-.261-1.397-.443-2.015-.518-1.432-.172-2.318.21-2.58 1.404.655.962.981 2.07.794 3.18-.146.873-.67 1.353-1.453 1.39-.54.027-1.15-.142-2.024-.5l-.828-.353c-1.123-.483-1.543-.625-1.91-.619-.487.008-1.264.269-2.213.722-.311.149-.631.314-.955.49l.252-.016c1.455 3.23 2.436 6.777 2.784 10.374 2.607-.67 5.261-2.36 7.836-5.388a.5.5 0 0 1 .88.291c.366 5.623-2.13 10.311-6.609 14.105a28.858 28.858 0 0 1-3.914 2.775 14.37 14.37 0 0 1-2.512 3.482c2.364 2.892 3.089 6.422.876 7.894-2.21 1.47-5.277-.743-6.81-4.127-2.747 1.034-5.976 1.555-9.607 1.555-3.724 0-7.024-.548-9.816-1.636-1.52 3.43-4.619 5.69-6.847 4.208-2.247-1.495-1.464-5.114.99-8.031-2.794-2.925-4.327-7.018-4.327-12.256 0-4.884 1.241-9.809 3.325-14.104a4.106 4.106 0 0 0-.175-.089c-.942-.454-1.717-.703-2.204-.691-.308.007-.66.128-1.431.496l-1.403.688c-.906.43-1.532.641-2.085.636-.816-.008-1.342-.525-1.453-1.468-.14-1.187.235-2.396.935-3.463-.488-.259-1.142-.255-1.952-.04-.602.16-1.253.435-1.923.794a15.52 15.52 0 0 0-1.549.964c-.405.302-.951-.12-.762-.588.19-.47.618-1.828.443-3.192-.175-1.365-.914-2.313-2.432-2.75a.5.5 0 0 1-.052-.943c7.53-3.096 13.81-1.61 18.76 2.742.37.325.713.651 1.029.97.348-.43.707-.846 1.075-1.246-6.143-2.84-9.72-7.803-9.72-13.895 0-.092.002-.183.004-.275a19.457 19.457 0 0 1-2.694-1.466c-3.277-2.118-5.552-4.885-6-8.009a.5.5 0 0 1 .63-.552c2.578.72 5.025 1.021 9.088 1.078-6.975-4.206-8.738-9.668-8.738-13.66a.5.5 0 0 1 .75-.433c4.967 2.854 8.782 4.218 11.545 4.56.339-.581.71-1.141 1.11-1.68a16.836 16.836 0 0 1-1.49-4.178c-1.13-5.458.439-10.822 3.918-10.882zm2.572 49.817-.079.083a25.62 25.62 0 0 0-1.57 1.845l.267.201c.257.187.327.218.522.309a.5.5 0 0 1-.42.907c-.458-.266-.96-.607-1.507-1.023-1.309-.996-2.383-1.53-4.147-1.84-3.145-.555-6.968 2.765-6.62 5.729.055.46.178.581.47.584.352.003.874-.172 1.646-.54l1.263-.62c1.032-.501 1.456-.647 1.975-.66.69-.017 1.587.272 2.663.79.577.279 1.176.61 1.77.968.506.314.835.523.987.627a.5.5 0 0 1-.563.826 24.63 24.63 0 0 0-1.566-.963c-.257.531-.5 1.071-.73 1.62.818 2.11 2.538 2.661 3.61 2.9.615.138.63 1.01.018 1.167-2.148.551-3.69.588-5.003-.07-.044.156-.085.314-.126.472.639 1.718 2.697 2.143 3.989 2.243.637.05.765.928.169 1.158-1.852.712-3.495.937-4.909.52-.046.368-.085.736-.118 1.105l-.21-.14c1.476 1.058 3.81 1.149 5.027 1.058.635-.047.89.758.347 1.117-1.877 1.243-4.062 1.892-5.231 1.987.262 4.212 1.638 7.553 3.969 10.02a.5.5 0 0 1 .633.765c-2.542 2.623-3.46 6.034-1.756 7.168 1.78 1.184 4.857-1.48 5.874-5.163a.5.5 0 1 1 .964.266c-.056.2-.116.398-.182.593 2.67 1.042 5.846 1.565 9.453 1.565 3.51 0 6.61-.495 9.236-1.482a11.137 11.137 0 0 1-.21-.676.5.5 0 0 1 .964-.266c1.016 3.682 4.093 6.347 5.873 5.163 1.705-1.134.787-4.545-1.755-7.168a.5.5 0 1 1 .718-.696l.047.05c2.43-2.509 3.851-5.944 4.09-10.298-1.133.04-3.505-.68-5.32-1.775-.589-.355-.46-1.23.187-1.154 1.203.141 3.946-.187 5.146-1.03l-.091.058c-.034-.37-.074-.74-.12-1.11-1.361.41-2.947.243-4.935-.352-.625-.187-.625-1.268.067-1.268 1.21 0 3.706-.544 4.193-1.983-.064-.254-.13-.505-.198-.756-1.115.62-3.455.48-5.004.101-.633-.155-.735-.936-.145-1.158 1.061-.398 2.967-.868 3.724-3.053-.102-.24-.206-.478-.313-.715l-.074.044c-.25.146-.719.431-.95.583a.5.5 0 1 1-.548-.837c.154-.1.485-.304.992-.609a24.16 24.16 0 0 1 1.773-.95c1.071-.512 1.957-.808 2.628-.82.502-.008.913.108 1.887.515l1.463.618c.627.245 1.067.356 1.381.341.306-.015.445-.142.515-.557.448-2.663-3.137-5.511-6.245-4.885-1.753.354-2.837.886-4.168 1.85-.886.643-1.056.767-1.292.885l-.218.103a.5.5 0 0 1-.42-.908c.199-.092.27-.123.531-.305l-.027.018a27.029 27.029 0 0 0-1.805-2.324c-2.97.915-6.38 1.412-10.15 1.412-4.72 0-8.874-.778-12.306-2.18zm38.487 14.196c-2.549 2.612-5.14 4.129-7.67 4.767.041.631.062 1.264.062 1.896 0 2.738-.419 5.163-1.218 7.272a26.717 26.717 0 0 0 2.539-1.899c3.84-3.254 5.949-6.86 6.287-12.036zm-58.8-16.6c2.25 1.088 2.206 3.88 1.825 5.439 2.08-1.205 4.189-1.797 5.519-1.011 1.553-1.76 3.992-2.918 6.209-2.528 1.124.199 2.005.484 2.824.9-4.861-4.154-10.95-4.76-16.377-2.8zm63.16-1.519c-5.773-1.212-11.858.329-16.108 5.38.852-.442 1.755-.754 2.919-.988 2.108-.425 4.374.456 5.853 1.915.867-1.967 3.533-1.784 6.286-.667-.594-1.49-1.026-4.249 1.05-5.64zM50.487 11.42c-3.754 0-7.158.819-10.05 2.279l.06.113c.243.442.853 1.366 1.831 2.772.357.61.535 1.179.547 1.86.052 2.974-3.586 4.972-6.419 3.736-1.002-.437-1.944-1.46-2.734-2.737-2.07 2.94-3.235 6.527-3.235 10.477 0 .716.044 1.425.131 2.127a.5.5 0 0 1-.08.338 12.412 12.412 0 0 0-1.692 3.735c.318.918.928 1.803 1.213 2.106.608.645 1.46 1.17 2.606 1.523.594.184.55 1.04-.06 1.162-1.561.313-2.816.16-3.77-.299a6.926 6.926 0 0 1-.261-.132c.037.328.086.652.146.972.448.663 1.044 1.295 1.503 1.72.683.633 1.579 1.149 2.72 1.501.595.184.552 1.04-.058 1.162-.959.192-1.755.217-2.403.104 3.265 5.184 10.365 8.481 20.005 8.481 9.64 0 16.739-3.296 20.004-8.48-.645.112-1.438.086-2.391-.105-.61-.122-.654-.978-.06-1.162 1.143-.352 2.038-.868 2.722-1.501.34-.316 1.065-1.116 1.537-1.963.034-.208.065-.418.09-.63l-.065.033c-.954.46-2.208.612-3.77.299-.61-.123-.654-.978-.06-1.162 1.147-.354 1.999-.878 2.606-1.523a3.92 3.92 0 0 0 .83-1.31c.093-.247.155-.525.202-.785a12.43 12.43 0 0 0-1.696-3.746.5.5 0 0 1-.08-.337c.088-.703.131-1.413.131-2.128 0-3.568-.95-6.84-2.66-9.607-.651.864-1.378 1.535-2.14 1.867-2.832 1.236-6.47-.762-6.418-3.737.012-.676.214-1.258.612-1.895.21-.334 1.13-1.563 1.326-1.853.106-.157.206-.313.302-.471-3.09-1.788-6.839-2.804-11.022-2.804zM81.62 29.778c-3.406 1.041-8.061 1.772-10.223 1.894l-.028.315c1.413 2.094 2.12 4.405 2.12 6.933l-.008-.396c2.214-1.16 6.925-4.163 8.139-8.746zm-61.679.007c.587 2.367 2.659 4.783 5.4 6.554.741.48 1.508.9 2.232 1.235.248-2.062 1.034-4.109 2.033-5.588a14.834 14.834 0 0 1-.103-1.3c-1.986.101-6.112-.041-9.562-.901zm60.807-12.9c-4.668 2.646-8.488 4.282-11.044 4.803 1.156 2.476 1.784 5.257 1.784 8.232 0 .106-.001.221-.005.344 2.676-1.9 8.804-6.926 9.265-13.38zm-59.94.024c.55 5.129 3.448 9.183 8.697 12.163.118-2.882.83-5.566 2.042-7.95-2.504-.34-5.625-1.432-10.74-4.213zM66.516 4.422c-1.234-.021-1.725.936-2.271 3.996-.27 1.64-.517 2.865-.744 3.676a10.508 10.508 0 0 1-1.465 3.16c-.778 1.067-1.214 1.675-1.307 1.824-.308.494-.452.907-.46 1.383-.039 2.197 2.814 3.764 5.019 2.803 1.813-.792 3.602-4.348 4.185-7.162 1.02-4.929-.356-9.634-2.957-9.68zm-30.888 0c-2.601.046-3.978 4.751-2.957 9.68.582 2.814 2.372 6.37 4.185 7.162 2.204.961 5.057-.606 5.019-2.803-.009-.498-.135-.903-.41-1.372-.08-.138-1.382-1.956-1.844-2.795-.36-.654-.982-1.956-1.207-2.903-.15-.63-.404-1.813-.76-3.547-.478-2.672-.886-3.442-2.026-3.422z"/><path fill="#872e00" fill-rule="nonzero" d="M50.5 39.4c2.86 0 5.1 2.986 5.1 6.6s-2.24 6.6-5.1 6.6c-2.86 0-5.1-2.987-5.1-6.6s2.24-6.6 5.1-6.6zm-11-7.9a5 5 0 1 1 0 10 5 5 0 0 1 0-10zm22 0a5 5 0 1 1 0 10 5 5 0 0 1 0-10zm-22 1a4 4 0 1 0 0 8 4 4 0 0 0 0-8zm22 0a4 4 0 1 0 0 8 4 4 0 0 0 0-8zm-22 2.5a1.5 1.5 0 1 1 0 3 1.5 1.5 0 0 1 0-3zm22 0a1.5 1.5 0 1 1 0 3 1.5 1.5 0 0 1 0-3z"/><path fill="#fff" d="M49.061 90.314c5.799 0 10.5-2.653 10.5-11.178 0-8.524-4.701-21.822-10.5-21.822s-10.5 13.298-10.5 21.822c0 8.525 4.701 11.178 10.5 11.178z"/></g></svg>