<svg data-id="179-496b5dfb920533c-down" xmlns="http://www.w3.org/2000/svg" viewBox="0 0 100 100"><g fill="none" fill-rule="evenodd"><path fill="#ffaf54" d="M40.175 85.02c-15.555 7.025 6.747 6.525 9.833 1.212.805-2.634-9.833-1.212-9.833-1.212z"/><path fill="#fff0d6" d="M57.742 57.116s13.277-6.549 21.97 6.507c-4.42-1.432-5.613 4.185-5.613 4.185s-3.004-8.572-6.914-2.774c-.362-6.076-9.443-7.918-9.443-7.918z"/><path fill="#ffaf54" d="M36.17 55.163c-6.046.002-11.492 9.428-9.732 11.205 1.759 1.777 4.566-1.006 5.842-3.737 1.054-1.613 4.527-8.161 3.89-7.468z"/><path fill="#ffaf54" d="M58.009 89.612c11.343 0 22.864-.723 28.148-5.564 1.007-.923.289-2.89-1.943-2.28-7.872 2.154-14.165.53-20.165-7.156-5.767-7.388 4.21-24.79-15.074-27.875-6.314-1.01-8.218 1.819-11.552 4.848-5.012 7.468-9.636 14.817-6.369 25.162 3.267 10.344 15.612 12.865 26.955 12.865z"/><path fill="#fff0d6" d="M57.77 58.705s14.282-3.893 20.322 10.582c-4.065-2.25-6.309 3.037-6.309 3.037s-1.311-8.988-6.256-4.043c.805-6.034-7.758-9.576-7.758-9.576z"/><g fill="#ffaf54"><path d="M47.592 86.707c-16.326 7.084 3.551 7.62 8.576 2.428 1.163-2.496-8.576-2.428-8.576-2.428zM62.42 44.843c.312.902 10.107-3.952 11.063-10.63-5.661 1.583-11.064 2-11.064 2s10.078-5.292 10.077-15.058c-10.079 5.792-14.237 5.616-14.237 5.616zM21.6 43.846c-.311.902-10.106-2.952-11.062-9.63 5.66 1.583 11.064 1.001 11.064 1.001s-10.079-4.293-10.077-14.059c10.078 5.792 14.236 4.616 14.236 4.616z"/><path d="M41.416 16.072c12.321 0 20.5 7.611 20.5 17 0 .13-.002.258-.006.387 1.288 2.015 2.006 4.255 2.006 6.613 0 8.837-8.074 16-22.5 16-14.427 0-22.5-7.163-22.5-16 0-2.358.717-4.598 2.005-6.613a12.16 12.16 0 0 1-.005-.387c0-9.389 8.178-17 20.5-17z"/></g><path fill="#fff0d6" d="M61.214 19.352c.984-4.764-.186-10.225-3.443-10.28-2.77-.048-2.478 4.374-3.502 8.039-1.024 3.665-3.213 4.433-3.248 6.495-.045 2.65 3.267 4.34 5.721 3.268s4.102-5.728 4.472-7.522zM23.42 19.34c-.984-4.764.186-10.225 3.443-10.28 2.77-.048 2.116 4.148 3.502 8.039 1.386 3.89 3.213 4.433 3.248 6.495.045 2.65-3.267 4.34-5.721 3.268s-4.102-5.728-4.472-7.522z"/><path fill="#872e00" fill-rule="nonzero" d="M26.851 8.55c1.866-.033 2.466 1.1 3.03 4.246l.212 1.174c.178.967.27 1.385.421 1.922l.1.342c.07.236.143.463.222.684.088.247.18.483.274.711 2.987-1.32 6.476-2.057 10.306-2.057 4.508 0 8.545 1.02 11.846 2.81.201-.443.372-.912.517-1.43.105-.375.2-.773.293-1.218l.069-.342c.039-.197.077-.402.118-.629l.19-1.094c.657-3.81 1.294-5.155 3.326-5.12 3.48.062 5.049 5.425 3.918 10.883a16.756 16.756 0 0 1-1.868 4.869c.334.511.639 1.04.912 1.586 2.71-.684 6.518-2.275 11.533-5.156a.5.5 0 0 1 .749.433c0 3.996-1.6 7.548-4.332 10.636a23.78 23.78 0 0 1-3.584 3.28l-.476.347-.1.07.419-.055c2.787-.374 5.676-.929 8.424-1.697a.5.5 0 0 1 .63.553c-.447 3.114-2.713 6.07-5.974 8.49-1.244.924-2.558 1.699-3.66 2.187l-.37.157a7.712 7.712 0 0 1-.566.21c-.87 2.194-2.299 4.144-4.216 5.777.965 1.206 1.663 2.634 2.15 4.309a20.396 20.396 0 0 1 1.665-.285c6.538-.84 12.575 1.44 17.085 8.217a.5.5 0 0 1-.57.753c-1.388-.45-2.47-.166-3.342.695.884 1.248 1.669 2.677 2.345 4.297a.5.5 0 0 1-.704.63c-1.381-.765-2.575-.617-3.663.225-.612.473-1.142 1.13-1.575 1.863-.186.315-.31.567-.369.707-.198.465-.882.377-.955-.123a5.687 5.687 0 0 0-.025-.153l-.07-.362a14.37 14.37 0 0 0-.318-1.262c-.22-.727-.486-1.383-.799-1.921-1.023-1.763-2.274-1.988-4.197-.065a.5.5 0 0 1-.85-.42c.245-1.828-.426-3.537-1.839-5.13-.275-.309-.572-.608-.889-.897l.066 2.431c.14 5.464.528 7.684 2.083 9.676 5.631 7.214 11.578 9.187 19.639 6.982 2.499-.684 3.986 1.689 2.413 3.13-4.55 4.168-13.012 5.61-27.182 5.692l-1.304.004c-.718 0-1.425-.01-2.12-.03-2.717 2.138-8.186 3.374-12.073 2.97-2.185-.229-3.454-1.025-2.953-2.39l.015-.037c-.943.103-1.884.148-2.788.128-2.422-.054-3.945-.612-3.874-1.86.052-.928 1.16-1.96 3.376-3.162-3.411-2.105-5.809-5.015-7.015-8.834-1.124-3.559-1.381-6.898-.86-10.188l.109-.078c-1.365 1.027-2.735 1.165-3.76.13-2.079-2.1 2.116-8.73 6.81-11.157-7.435-1.821-12.448-6.093-13.972-11.76a18.46 18.46 0 0 1-2.434-1.266l-.432-.272c-3.277-2.117-5.552-4.884-6-8.009a.5.5 0 0 1 .63-.552c2.579.72 5.296 1.048 7.952 1.083l.462.003.528-.005.033-.07-.211-.126a20.782 20.782 0 0 1-4.085-3.251c-2.73-2.823-4.328-6.223-4.328-10.215a.5.5 0 0 1 .749-.433c4.487 2.578 8.035 3.94 10.715 4.431.456-.806.985-1.574 1.58-2.298-.51-1.125-.9-2.322-1.13-3.432-1.13-5.458.439-10.821 3.918-10.882zm31.578 43.2-.02.015c-4.011 3.028-9.855 4.807-16.993 4.807l.12-.002a.502.502 0 0 1-.225.742c-1.841.754-4.372 3.44-5.857 6.221-1.605 3.006-1.602 5.24.181 5.959 1.857.747 2.825-.121 4.37-3.254l.329-.676c1.226-2.532 1.951-3.538 3.242-3.853a.5.5 0 0 1 .237.971c-.834.204-1.447 1.017-2.452 3.056l-.588 1.202c-1.706 3.382-3.016 4.486-5.512 3.481-2.532-1.02-2.536-3.898-.69-7.357 1.49-2.79 3.954-5.477 5.978-6.5a37.001 37.001 0 0 1-5.433-.496c-1.475 2.4-2.437 4.281-3.183 6.269l-.22.606-.106.306c-1.467 4.341-1.567 8.63-.076 13.349 1.768 5.598 6.338 9.155 13.092 10.992.795-.419 1.717-.855 2.767-1.31a.5.5 0 0 1 .398.917c-3.683 1.597-5.666 2.937-5.986 3.811-.17.461.5.882 2.118 1.05 3.943.412 9.73-1.01 11.888-3.239a.5.5 0 0 1 .855.282c.443.009.892.013 1.346.013 14.689 0 23.385-1.378 27.81-5.433.768-.704.052-1.846-1.473-1.428-7.814 2.137-13.843.493-19.356-5.724a7.118 7.118 0 0 1-1.32.942c-1.843 1.046-4.195 1.493-7.059 1.016-.594-.098-.688-.913-.133-1.145.582-.243 1.13-.497 1.644-.762 1.526-.784 2.7-1.618 3.568-2.446.25-.238.594-.664.881-.982a8.537 8.537 0 0 1-.195-.467c-.445.199-1.072.473-1.378.59-1.87.722-3.782 1.056-5.593.776a7.58 7.58 0 0 1-.734-.15c-.571-.147-.61-.944-.055-1.145 1.074-.391 2.07-.84 2.99-1.338 1.036-.56 2.88-1.757 3.944-2.892-.016-.19-.031-.384-.046-.584-.287.17-.684.374-1.177.576-1.791.737-3.764.99-5.792.467-.575-.148-.609-.952-.048-1.147a15.477 15.477 0 0 0 3.733-1.896 14.428 14.428 0 0 0 2.256-1.922c.166-.175.508-.584.845-.964a79.76 79.76 0 0 0-.03-.938l-.032-.72-.003-.06a18.656 18.656 0 0 0-1.945-1.277 19.22 19.22 0 0 0-1.602-.823l-.14-.06a.5.5 0 0 1 .059-.945l.058-.015.388-.089c.35-.074.75-.144 1.194-.204.519-.07 1.056-.123 1.607-.154-.426-2.472-1.19-4.453-2.446-6.02zM38.617 86.322l-.242.126c-2.092 1.1-3.131 1.981-3.16 2.5-.022.376 1.034.763 2.897.804a21.007 21.007 0 0 0 3.61-.252c.416-.388.973-.794 1.672-1.22-1.742-.53-3.339-1.18-4.777-1.958zM63.28 58.777a19.53 19.53 0 0 0-3.877.137l-.076.01.136.073.346.195c1.579.907 3.01 1.987 4.122 3.24 1.245 1.402 1.992 2.923 2.121 4.547l.01.174.133-.097c1.896-1.336 3.5-.852 4.64.985l.099.166c.356.613.65 1.338.891 2.133l.1.345.063.24.146-.218c.344-.491.732-.94 1.167-1.32l.267-.219c1.043-.806 2.215-1.12 3.474-.82l.082.022-.187-.382c-3.048-6.084-7.891-8.84-13.657-9.211zm-29.396-2.61-.047.016c-1.813.732-3.599 2.25-5.072 4.252-1.793 2.436-2.603 5.001-1.989 5.622.612.618 1.44.534 2.448-.225.273-.206.547-.455.813-.737.17-.724.379-1.445.623-2.168.759-2.244 1.711-4.238 3.224-6.76zm44.437 6.405c-4.153-5.39-9.433-7.173-15.164-6.437-.528.068-1.042.156-1.542.262.101.432.19.88.267 1.341.478-.004.966.009 1.462.04 4.843.312 9.097 2.232 12.256 6.223.804-.75 1.772-1.144 2.893-1.096l.085.005zm-36.905-46c-3.688 0-7.036.704-9.892 1.962.07.139.14.273.214.405.365.663 1.366 2.083 1.716 2.598l.115.174c.357.61.535 1.18.547 1.86.052 2.974-3.586 4.972-6.419 3.736-1.183-.516-2.281-1.847-3.145-3.45-2.01 2.6-3.136 5.752-3.136 9.215l.005.37a.5.5 0 0 1-.078.286c-1.112 1.74-1.758 3.61-1.898 5.54.428 1.026 1.071 1.801 1.405 2.112.692.644 1.595 1.167 2.743 1.521.594.184.551 1.04-.06 1.162-1.463.293-2.658.178-3.587-.216.075.255.157.507.247.756.358.348 1.365 1.03 1.725 1.23.9.5 1.89.854 2.948 1 .652.091.704 1.013.067 1.176a9.682 9.682 0 0 1-1 .195c-.518.076-1.068.125-1.618.152 3.572 4.45 10.27 7.216 19.1 7.216 8.677 0 15.296-2.67 18.913-6.985-.687.07-1.465.015-2.312-.217-.675-.184-.542-1.178.158-1.178.84 0 1.792-.406 2.758-1.094a17.083 17.083 0 0 0 1.69-1.45c.084-.231.163-.466.234-.704-.878.32-2 .394-3.374.119-.61-.123-.654-.978-.06-1.162 1.13-.349 2.002-.85 2.655-1.461.314-.293.909-1.2 1.316-2.078-.126-1.963-.774-3.866-1.904-5.634a.5.5 0 0 1-.078-.283c.003-.124.005-.248.005-.373l-.003-.309a14.865 14.865 0 0 0-2.187-7.535c-.691.966-1.474 1.72-2.297 2.08-2.833 1.235-6.47-.763-6.419-3.738.012-.675.214-1.257.613-1.895.208-.334 1.13-1.563 1.325-1.853.125-.184.242-.369.352-.555-3.156-1.714-7.033-2.695-11.384-2.695zm1 32c1.524 0 2.773.416 3.755 1.113.6.425.98.858 1.17 1.167a.5.5 0 1 1-.851.524 1.4 1.4 0 0 0-.089-.122l-.108-.129a4.069 4.069 0 0 0-.7-.624c-.818-.58-1.865-.929-3.177-.929-1.313 0-2.36.35-3.177.929-.282.2-.515.413-.701.624a2.93 2.93 0 0 0-.147.18l-.05.071a.5.5 0 0 1-.851-.524c.19-.309.57-.742 1.17-1.167.983-.697 2.23-1.113 3.756-1.113zm10.492-6.326a2 2 0 1 1 .349 3.985 2 2 0 0 1-.349-3.985zm-23 0a2 2 0 1 1 .349 3.985 2 2 0 0 1-.349-3.985zm42.947-7.327-.153.042a63.8 63.8 0 0 1-6.676 1.339l-.947.133-.807.104-.372.044c.303 1.008.474 2.041.509 3.09l.007.401c0 1.41-.192 2.758-.562 4.034l.106-.046c1.034-.457 2.284-1.195 3.47-2.075 2.75-2.04 4.731-4.466 5.4-6.962zm-61.673-.006.024.1c.665 2.45 2.634 4.682 5.374 6.453.681.44 1.383.83 2.053 1.15a14.69 14.69 0 0 1-.218-2.544c0-1.436.259-2.85.775-4.241h-.107l-.477-.003-.632-.013c-2.112-.065-4.253-.312-6.334-.791zm18.79 3.927a.5.5 0 0 1 .887.464c-.59 1.127-1.503 1.949-2.641 2.506a8.108 8.108 0 0 1-2.259.703c-.462.076-.825.101-1.043.101a.5.5 0 0 1 0-1 4.9 4.9 0 0 0 .56-.041l.322-.047a7.124 7.124 0 0 0 1.98-.615c.958-.468 1.71-1.146 2.195-2.07zm23.387 0c.484.925 1.237 1.603 2.194 2.071a7.124 7.124 0 0 0 1.98.615l.323.047c.248.03.44.041.56.041a.5.5 0 1 1 0 1c-.218 0-.582-.025-1.044-.1a8.108 8.108 0 0 1-2.258-.704c-1.138-.557-2.05-1.379-2.641-2.506a.5.5 0 1 1 .886-.464zm18.63-16.8-.14.079c-4.524 2.532-8.059 4-10.687 4.69a15.972 15.972 0 0 1 1.254 6.263l-.003.248.14.228c.302.503.568 1.017.798 1.54a22.997 22.997 0 0 0 4.587-3.95c2.305-2.606 3.747-5.539 4.03-8.79zm-59.94-.003.02.3c.28 3.209 1.71 5.982 3.997 8.347a19.795 19.795 0 0 0 4.037 3.183l.086-.159.229-.387-.002-.249c0-2.511.555-4.867 1.58-6.986-2.574-.521-5.826-1.766-9.808-3.97zM26.869 9.55c-2.601.045-3.978 4.75-2.957 9.68.582 2.813 2.372 6.37 4.185 7.16 2.204.963 5.058-.605 5.02-2.802-.01-.497-.136-.902-.411-1.372-.08-.137-1.382-1.956-1.844-2.794a14.643 14.643 0 0 1-1.207-2.903c-.217-.732-.313-1.117-.507-2.157l-.347-1.9c-.441-2.262-.868-2.93-1.932-2.912zm30.888 0c-1.195-.021-1.694.877-2.22 3.715l-.335 1.9a38.01 38.01 0 0 1-.08.42c-.12.61-.24 1.14-.38 1.636a10.508 10.508 0 0 1-1.464 3.16l-.145.206c-.336.469-1.009 1.373-1.162 1.618-.31.495-.453.907-.461 1.383-.038 2.197 2.815 3.765 5.019 2.803 1.813-.791 3.603-4.348 4.185-7.162 1.02-4.928-.356-9.634-2.957-9.68z"/><path fill="#fff" d="M36.638 59.983a19.305 19.305 0 0 0-2.066 3.08c-1.847 3.458-1.843 6.337.69 7.356 2.495 1.005 3.805-.099 5.511-3.481l.588-1.202.095-.191c.366 2.738.174 5.962.174 8.334 0 4.083 1.604 9.682 4.65 12.895-.489.225-.942.445-1.363.66-9.027-2.41-13.086-7.213-14.213-14.578-1.07-6.996 1.955-12.656 5.908-12.871z"/></g></svg>