<svg data-id="18-4d3cb8eeb6faad2-dog" xmlns="http://www.w3.org/2000/svg" viewBox="0 0 100 100"><g fill="none" fill-rule="evenodd"><path fill="#222" d="M41.63 73.56s10.433-15.386 7.274-19.578-6.417-7.314-9.562-4.636c-8.662 7.378-3.786 16.343-5.287 24.214-1.047 5.488-4.675 7.024-3.377 8.746C33.836 86.5 41.63 73.56 41.63 73.56zM57.61 82.527c3.823 0 2.39-3.661 2.39-7.527s-1.567-7-3.5-7-4.908-.159-4.908 3.707c0 3.866 2.194 10.82 6.018 10.82z"/><path fill="#333" d="M55.88 71.86s-.2 5.612 1.379 10.502c1.76 5.45 5.363 9.462 7.606 9.462 3.222 0-.44-4.609-1.868-9.462-1.369-4.648-.2-12.563.058-13.616.628-2.57 1.01-8.015 1.01-9.746 0-7.732-4.703-16-13.902-16-9.2 0-14.19 7.832-14.19 16 0 1.61.49 7.491 1.116 10.133.216.915.07 8.192-1.117 13.23-1.108 4.707-3.15 9.117-1.085 9.46 1.803.3 5.363-3.926 7.091-8.495 2.196-5.806 2.363-12.306 2.363-12.306s2.97 1.965 5.675 1.965 5.864-1.126 5.864-1.126z"/><path fill="#404040" d="M61.032 16.536c.367-.423 1.084-.612 1.607-.428l9.711 3.419 1.173 3.714-1.644 6.558c-.136.542-.624 1.198-1.093 1.481l-6 3.615c-1.066 4.773-3.606 12.151-3.805 12.896-1.26 4.723-4.85 7.958-9.813 7.958H49.34c-4.97 0-8.657-3.194-9.813-7.958-.192-.79-2.9-7.902-3.903-12.954l-5.902-3.557c-.47-.283-.957-.939-1.093-1.48l-1.644-6.559 1.173-3.714 9.711-3.42c.523-.183 1.24.006 1.607.429l4.078 4.695c1.87-.314 4.092-.439 6.7-.439 2.608 0 4.83.125 6.7.439z"/><path fill="#e65765" d="M43.913 57.975a5.5 5.5 0 1 1-.012-4.974L45.179 53s1.849 2.749 4.835 2.749C53 55.749 54.812 53 54.812 53h1.789a5.5 5.5 0 1 1-.012 4.974z"/><path fill="#593a30" d="m64.248 17 7.985 4.654-1.805 7.383c-.133.53-.623 1.188-1.1 1.471l-4.609 2.755c-.01-4.746-1.983-8.202-5.917-10.366zm-28.337 0 5.744 5.695c-5.15 2.718-5.897 6.973-6.201 10.11l-4.623-2.297c-.433-.257-.878-.824-1.055-1.324l-1.814-8.087z"/><path fill="#000" d="M33.576 53.54c-1.751-1.59-3.322-3.43-4.351-5.51-1.045-2.1-1.53-4.44-1.114-6.98.04-.23.237-.39.465-.38.227 0 .417.17.446.4.288 2.15 1.079 4.01 2.127 5.65.554.87 1.178 1.68 1.858 2.43a21.2 21.2 0 0 0 2.228 2.15c.123.09-1.546 2.35-1.66 2.24zM33.937 58.31a21.191 21.191 0 0 0-.345 3.08c-.034.81-.027 1.64-.001 2.46.026.81.07 1.63.119 2.44.149 2.44.309 4.85-.12 7.17-.648 3.6-2.454 5.48-3.191 6.83-.457.84-.552 1.52-.018 2.21.727.94 1.645 1.14 2.658.82 1.019-.32 2.148-1.19 3.24-2.3.11-.11.11-.29.003-.39a.287.287 0 0 0-.395-.01c-1.035 1.01-2.086 1.8-3.034 2.08-.735.21-1.397.06-1.904-.63-.332-.45-.195-.88.109-1.41.796-1.39 2.682-3.31 3.432-7.03.3-1.52.374-3.07.344-4.65a52.76 52.76 0 0 0-.125-2.68c-.061-.88-.134-1.77-.195-2.65s-.11-1.76-.122-2.63c-.012-.88.005-1.75.097-2.63a.272.272 0 0 0-.235-.31.272.272 0 0 0-.317.23zM51.369 72.86c-.006.46-.001.95.049 1.45.047.47.128.96.239 1.44.098.42.228.84.37 1.25.342.99.78 1.95 1.293 2.78 1.007 1.65 2.313 2.84 3.835 3a.282.282 0 0 0 .075-.56c-1.327-.22-2.371-1.37-3.177-2.86-.44-.81-.796-1.73-1.092-2.66-.125-.4-.233-.8-.344-1.2-.127-.45-.25-.9-.361-1.34-.121-.47-.246-.91-.332-1.35a.275.275 0 0 0-.303-.25.276.276 0 0 0-.252.3z"/><path fill="#000" d="M44.77 71.82a47.09 47.09 0 0 1-.677 5.53c-.353 1.93-.878 4.08-1.656 6.15-.862 2.29-2.172 4.49-3.501 6.11-.856 1.04-1.725 1.84-2.49 2.29-.611.36-1.177.49-1.641.42-.948-.16-1.36-.89-1.295-2.12.094-1.78 1.252-4.8 2.004-7.95.483-1.99.799-4.34.998-6.51.294-3.2.335-5.98.212-6.52-.21-.92-.4-2.22-.555-3.61a86.176 86.176 0 0 1-.433-5.42c-.01-.15.109-.29.263-.29.153-.01.285.11.293.26.093 1.38.295 3.45.552 5.37.18 1.35.388 2.62.61 3.52.136.55.174 3.44-.084 6.77-.171 2.2-.472 4.61-.94 6.65-.598 2.58-1.477 5.07-1.808 6.84-.1.54-.151 1-.114 1.38.034.34.145.59.46.64.28.05.607-.08.974-.29.686-.4 1.457-1.13 2.225-2.06 1.272-1.55 2.525-3.65 3.352-5.83.764-2.01 1.28-4.1 1.63-5.97.649-3.47.725-6.17.725-6.17a.47.47 0 0 1 .724-.38s1.13.75 2.619 1.31c.863.33 1.848.59 2.799.59.959.01 1.978-.14 2.884-.32 1.587-.32 2.832-.76 2.832-.76.137-.05.29-.03.407.06.117.08.184.22.179.37 0 0-.087 2.3.266 5.23.193 1.62.519 3.41 1.066 5.13.839 2.62 2.112 4.9 3.45 6.55 1.33 1.63 2.696 2.65 3.764 2.66.36 0 .613-.05.764-.2.163-.15.177-.4.14-.71-.197-1.7-2.157-4.83-3.102-8.08-.465-1.6-.638-3.57-.65-5.53-.021-3.81.569-7.55.743-8.26.209-.84.392-2 .544-3.24.21-1.72.36-3.58.436-4.95a.276.276 0 0 1 .292-.26c.154 0 .272.14.264.29a77.864 77.864 0 0 1-.408 4.99c-.147 1.27-.328 2.45-.537 3.32-.166.69-.72 4.37-.675 8.11.02 1.89.194 3.8.653 5.33.978 3.29 2.965 6.47 3.176 8.19.072.59-.05 1.04-.358 1.34-.256.25-.665.41-1.282.41-1.218 0-2.844-1.06-4.368-2.92-1.403-1.7-2.742-4.07-3.63-6.79-.572-1.76-.92-3.61-1.127-5.27a39.658 39.658 0 0 1-.305-4.75c-.534.17-1.383.41-2.356.61-.961.2-2.043.36-3.062.36-.846 0-1.717-.18-2.525-.43a14.881 14.881 0 0 1-2.721-1.19zM73.41 22.84c-.108.49-.225.96-.33 1.41a183.774 183.774 0 0 1-.597 2.5 26.26 26.26 0 0 1-.451 1.64c-.3.92-.616 1.62-.984 2.08-.52.64-1.364 1.27-2.296 1.85-1.387.88-2.965 1.66-4.047 2.28a.28.28 0 0 0-.114.38c.073.13.243.18.378.11 1.118-.57 2.746-1.28 4.18-2.1 1.049-.6 1.99-1.26 2.587-1.95.542-.63 1.053-1.67 1.48-3.15a16.733 16.733 0 0 0 .522-2.48c.047-.32.089-.65.122-.99.046-.48.074-.98.104-1.5a.28.28 0 0 0-.24-.32.283.283 0 0 0-.313.24zM35.815 34.6c-.354-.23-.794-.53-1.294-.86-.41-.26-.855-.54-1.31-.82-.35-.21-.704-.43-1.051-.64-.566-.34-1.111-.66-1.563-.95-.538-.35-.95-.63-1.082-.83-.434-.63-.826-1.72-1.181-2.95-.444-1.55-.823-3.34-1.102-4.85a.284.284 0 0 0-.32-.23.284.284 0 0 0-.231.32c.213 1.54.509 3.37.892 4.96.329 1.36.73 2.55 1.174 3.25.117.19.393.45.792.75.47.36 1.12.79 1.843 1.23.26.16.532.32.809.47.41.23.83.45 1.239.66.288.14.569.28.84.41.483.22.923.41 1.277.57.135.07.304.02.379-.11a.281.281 0 0 0-.111-.38zm21.038-13.83 4.452-4.95a.276.276 0 1 1 .42.36l-4.445 5.22a.382.382 0 0 1-.316.13 69.037 69.037 0 0 0-3.355-.23 64.235 64.235 0 0 0-3.354-.06 66.48 66.48 0 0 0-3.355.13c-1.078.07-2.194.16-3.35.28a.474.474 0 0 1-.428-.17c-.57-.68-1.096-1.29-1.558-1.85-1.024-1.24-1.776-2.18-2.3-2.8a.99.99 0 0 0-.471-.333c-.174-.048-.334.048-.519.124-.154 0-.256-.47-.255-.62.002-.16.101-.296.255-.296.287-.01.585.065.845.175.234.11.453.27.664.48.416.43.982 1.01 1.676 1.76.639.69 1.38 1.54 2.248 2.52 1.08-.1 2.126-.18 3.14-.23 1.182-.06 2.318-.08 3.408-.07 1.088.01 2.222.06 3.4.14 1.032.07 2.098.17 3.198.29z"/><path fill="#484848" d="M49.34 55.75c2.44 0 4.264-.917 5.472-2.75h1.523l.944-.73.045-3.27a6.88 6.88 0 0 0-2.132-5.12c-1.328-1.27-3.17-2.04-5.207-2.06-2.044-.02-3.905.73-5.25 2a6.915 6.915 0 0 0-1.634 2.37 6.85 6.85 0 0 0-.5 2.81l.12 2.52L43.977 53l1.21.14c1.355 1.74 2.739 2.61 4.153 2.61z"/><g fill="#000" transform="translate(22.7 15.659)"><path d="M41.624 15.141c.11.51.098 1.15.035 1.91a24.67 24.67 0 0 1-.255 1.95 67.06 67.06 0 0 1-.77 3.91c-1.158 5.1-3.044 10.64-3.528 11.45-.08.13-.04.31.092.39s.303.04.383-.09c.136-.215.385-.755.702-1.528.303.407.475.73.518.97.007-.019.466.087.438 0-.188-.647-.431-1.157-.73-1.532.894-2.258 2.172-5.931 3.059-9.43.205-.81.39-1.61.536-2.39.105-.55.19-1.09.25-1.61.086-.74.129-1.44.118-2.06-.014-.84-.12-1.55-.311-2.09a.284.284 0 0 0-.345-.2.288.288 0 0 0-.192.35zm-23.792 19.05c-.067-.17-.371-1.17-.83-2.64-.15-.49-.323-1.02-.507-1.59-.111-.34-.228-.7-.35-1.06-.331-.99-.69-2.07-1.032-3.17-.494-1.6-.967-3.25-1.323-4.82-.531-2.33-.82-4.44-.538-5.79.034-.15-.06-.3-.21-.33s-.3.06-.334.21c-.435 1.77-.01 4.84.74 8.04a73.51 73.51 0 0 0 1.335 4.88 46.06 46.06 0 0 0 1.54 4.3c-.577.693-.925 1.376-1.043 2.048l.494.092c.183-.417.455-.923.814-1.518.387.887.67 1.455.738 1.578.064.14.23.21.37.14.14-.06.2-.23.136-.37z"/><ellipse cx="27.3" cy="30.341" rx="3" ry="2"/><path d="M54.38 10.07c.085.06.203.07.3.02s.156-.15.15-.26c0 0-.035-2.49-.553-4.66-.303-1.26-.798-2.4-1.462-2.97-.256-.22-.696-.44-1.28-.63-.756-.24-1.772-.46-2.902-.64C44.55.27 38.953 0 38.953 0a.447.447 0 0 0-.447.31c-.06.19.018.4.19.51 0 0 2.683 1.62 5.335 3.1 1.35.75 2.69 1.46 3.667 1.9.876.4 1.842.95 2.76 1.53 2.084 1.3 3.922 2.72 3.922 2.72zM.006 10.546c0 .11.063.21.162.26.1.04.216.03.3-.04 0 0 1.976-1.68 3.934-3.24.985-.79 1.965-1.55 2.685-2.06.98-.69 2.172-1.38 3.353-2.02 2.685-1.44 5.318-2.56 5.318-2.56a.431.431 0 0 0 .253-.49.442.442 0 0 0-.438-.35s-5.417.08-9.423.6c-1.094.14-2.084.32-2.837.54-.545.16-.974.34-1.252.53-.396.28-.739.73-1.009 1.31-.282.61-.499 1.35-.652 2.14-.482 2.48-.394 5.38-.394 5.38zM19.08 25.881c.039-.19.124-.35.205-.5.058-.12.134-.22.208-.32.073-.1.159-.18.245-.27.29-.28.66-.49 1.062-.5.417-.02.833.13 1.143.42.31.28.533.68.56 1.17 0 .15.126.28.28.28s.279-.13.279-.28a2.344 2.344 0 0 0-.585-1.69 2.414 2.414 0 0 0-1.677-.81c-.653-.02-1.32.23-1.772.72-.177.19-.321.41-.414.66-.054.14-.1.29-.117.45-.023.22-.022.43.026.67 0 .15.125.28.279.28.153 0 .278-.13.278-.28zM32.117 25.901c.038-.19.123-.34.204-.5.059-.11.134-.21.208-.31s.16-.19.246-.27c.29-.29.66-.49 1.06-.51.419-.02.834.13 1.145.42.31.29.532.69.56 1.17 0 .16.125.28.279.28s.279-.12.279-.28a2.36 2.36 0 0 0-.585-1.69 2.399 2.399 0 0 0-1.677-.8c-.652-.02-1.318.23-1.772.71-.176.19-.321.41-.414.66-.054.15-.1.29-.117.45-.022.22-.022.44.026.67 0 .16.125.28.279.28s.279-.12.279-.28z"/></g><path fill="#b64444" d="M56.407 52.69a5.874 5.874 0 0 1 2.03-2.19 5.873 5.873 0 0 1 7.276.79 5.933 5.933 0 0 1 1.776 4.21 5.94 5.94 0 0 1-1.746 4.24 5.918 5.918 0 0 1-4.243 1.75 5.858 5.858 0 0 1-3.127-.89 5.888 5.888 0 0 1-2.058-2.13l-12.172-.04a5.931 5.931 0 0 1-2.058 2.05 5.83 5.83 0 0 1-3.043.83 5.842 5.842 0 0 1-4.158-1.74 5.862 5.862 0 0 1 .03-8.29 5.83 5.83 0 0 1 4.128-1.68c1.13 0 2.184.33 3.074.89a5.86 5.86 0 0 1 2.046 2.23h1.03c.155 0 .28.13.28.28s-.125.28-.28.28l-1.206.01a.3.3 0 0 1-.256-.16A5.214 5.214 0 0 0 41.796 51c-.8-.49-1.744-.78-2.754-.77a5.167 5.167 0 0 0-3.65 1.53 5.144 5.144 0 0 0 .029 7.27c.93.92 2.21 1.49 3.62 1.48.959 0 1.855-.27 2.618-.74a5.08 5.08 0 0 0 1.86-1.97.428.428 0 0 1 .377-.23l12.704-.05c.178 0 .342.1.423.26a5.029 5.029 0 0 0 1.858 2c.763.46 1.66.73 2.619.73a5.053 5.053 0 0 0 3.536-1.47 5.022 5.022 0 0 0 1.475-3.54 5.034 5.034 0 0 0-1.446-3.57 5.096 5.096 0 0 0-3.565-1.52 5.09 5.09 0 0 0-2.682.71 5.169 5.169 0 0 0-1.94 2.02.303.303 0 0 1-.278.17l-1.651-.03c-.154 0-.28-.13-.28-.28s.126-.28.28-.28z"/><path fill="#000" d="M44.19 50.5c-.056.78.075 1.54.368 2.24.296.71.758 1.35 1.323 1.87a6.166 6.166 0 0 0 4.194 1.65c1.513-.03 2.974-.69 4.037-1.76 1.037-1.04 1.7-2.45 1.667-4 0-.15-.125-.28-.28-.28s-.278.13-.278.28c-.03 1.37-.67 2.59-1.624 3.47-.951.87-2.221 1.41-3.522 1.38-1.285-.01-2.546-.6-3.522-1.47a5.78 5.78 0 0 1-1.218-1.51c-.313-.57-.54-1.19-.588-1.87 0-.15-.124-.28-.278-.28s-.28.13-.28.28z"/></g></svg>