<svg data-id="181-8e6366aed78c4f3-down" xmlns="http://www.w3.org/2000/svg" viewBox="0 0 100 100"><g fill="none" fill-rule="evenodd"><path fill="#ffaf54" d="M41.175 87.02c-15.555 7.025 6.747 6.525 9.833 1.212.805-2.634-9.833-1.212-9.833-1.212z"/><path fill="#fff0d6" d="M58.743 59.116s13.277-6.549 21.97 6.507c-4.42-1.432-5.613 4.185-5.613 4.185s-3.004-8.572-6.914-2.774c-.362-6.076-9.443-7.918-9.443-7.918z"/><path fill="#ffaf54" d="M31.07 59.062c-5.808 4.044-3.705 14.396-.733 12.844 2.972-1.552 2.997-3.136 3.29-6.474-.295-1.904-2.548-7.311-2.557-6.37z"/><path fill="#ffaf54" d="M59.009 91.612c11.343 0 22.864-.723 28.148-5.564 1.007-.923.289-2.89-1.943-2.28-7.872 2.154-14.165.53-20.165-7.156-5.767-7.388-.79-24.79-20.074-27.875-6.314-1.01-8.218 1.819-11.552 4.848-5.012 7.468-4.98 17.39-1.369 25.162 3.611 7.77 15.612 12.865 26.955 12.865z"/><path fill="#fff0d6" d="M58.77 60.704s14.283-3.893 20.323 10.582c-4.065-2.25-6.309 3.037-6.309 3.037s-1.311-8.988-6.256-4.043c.805-6.034-7.758-9.576-7.758-9.576z"/><path fill="#ffaf54" d="M48.593 88.706c-16.326 7.084 3.551 7.62 8.576 2.428 1.163-2.496-8.576-2.428-8.576-2.428zM20.39 41.43c-.445.682-8.26-6.022-8.102-11.902 5.176 3.703 9.494 4.621 9.494 4.621s-8.982-6.194-7.406-14.435c8.74 7.46 12.92 7.528 12.92 7.528z"/><path fill="#fff0d6" d="M17.79 18.257c-1.398-4.659-.71-10.2 2.53-10.54 2.754-.29 2.47 3.946 4.19 7.7 1.72 3.753 3.588 4.134 3.803 6.184.277 2.635-2.875 4.608-5.412 3.755-2.537-.853-4.586-5.346-5.112-7.1z"/><path fill="#ffaf54" d="M35.736 13.394c12.272-1.072 21.158 6.69 22.07 17.14.065.738.083 1.47.057 2.192 1.544 1.94 2.507 4.172 2.719 6.599.769 8.8-6.65 16.638-21.018 17.893-14.369 1.255-23.033-5.177-23.802-13.978-.212-2.427.35-4.793 1.533-6.97-.15-.708-.26-1.431-.324-2.168-.913-10.452 6.492-19.636 18.765-20.708z"/><path fill="#ffaf54" d="M54.1 41.395s7.897-5.45 8.615-12.698c-5.21 2.725-9.508 4.16-9.508 4.16s7.86-7.176 5.83-16.73c-8.657 7.76-12.762 8.45-12.762 8.45z"/><path fill="#fff0d6" d="M52.205 18.108c1.877-4.487 1.774-10.07-1.412-10.747-2.71-.576-3.268 3.818-4.974 7.219-1.705 3.4-4.001 3.735-4.43 5.752-.551 2.591 2.376 4.883 4.989 4.3s5.12-4.835 5.827-6.524z"/><path fill="#872e00" fill-rule="nonzero" d="M46.772 10.971c1.31-3.389 2.198-4.513 4.131-4.102 3.405.724 3.922 6.288 1.771 11.43l-.033.079c.445.428.868.877 1.267 1.347a72.169 72.169 0 0 0 4.804-3.974.5.5 0 0 1 .823.268c.859 4.041.11 7.894-1.716 11.42.24.982.407 2 .5 3.05l-.02-.206a75.548 75.548 0 0 0 4.194-2.03.5.5 0 0 1 .73.491c-.247 2.493-1.295 4.898-2.926 7.17.402.963.623 1.876.755 2.955l.043.411c.45 5.148-1.733 9.711-5.99 13.031 1.865 1.552 3.284 3.52 4.4 5.948l.241-.088.31-.108a20.524 20.524 0 0 1 3.973-.92c6.538-.84 12.575 1.44 17.085 8.217a.5.5 0 0 1-.57.753c-1.388-.45-2.469-.166-3.341.694.883 1.25 1.668 2.678 2.344 4.298a.5.5 0 0 1-.704.63c-1.381-.765-2.575-.617-3.663.225-.612.473-1.142 1.13-1.575 1.863-.186.315-.31.567-.369.707-.198.465-.882.377-.955-.123a5.687 5.687 0 0 0-.025-.153l-.07-.362a14.37 14.37 0 0 0-.318-1.262c-.22-.727-.486-1.383-.799-1.921-1.023-1.763-2.274-1.988-4.197-.065a.5.5 0 0 1-.85-.42c.245-1.828-.426-3.537-1.839-5.13-.86-.967-1.941-1.837-3.143-2.596.137.48.267.973.393 1.479.07.286.124.503.178.73l.827 3.704c.946 4.172 1.656 6.165 3.005 7.893 5.631 7.214 11.578 9.187 19.639 6.982 2.499-.684 3.986 1.689 2.413 3.13-4.55 4.168-13.012 5.61-27.182 5.692l-1.304.004a40.08 40.08 0 0 1-2.087-.055c-2.705 2.153-8.203 3.401-12.106 2.994-2.185-.228-3.454-1.024-2.953-2.39l.015-.036c-.943.103-1.884.148-2.788.128-2.422-.054-3.945-.612-3.874-1.86.06-1.075 1.537-2.29 4.515-3.747-3.745-2.192-6.648-4.998-8.13-8.189a28.172 28.172 0 0 1-2.076-6.362c-1.419-.148-2.472-2.247-2.631-4.959-.195-3.312.933-6.553 3.324-8.538.177-.55.374-1.095.59-1.63-9.038-1.464-14.888-6.745-15.538-14.179a12.074 12.074 0 0 1 .576-4.895 13.893 13.893 0 0 1-.109-.125c-2.483-2.902-4.02-5.997-3.946-8.751a.5.5 0 0 1 .791-.393c1.286.92 2.571 1.705 3.836 2.37.026-.623.08-1.236.164-1.839-2.291-3.14-3.367-6.52-2.695-10.034a.5.5 0 0 1 .815-.287 59.926 59.926 0 0 0 4.3 3.366c.052-.09.106-.179.16-.267a16.857 16.857 0 0 1-1.85-4.033c-1.6-5.338-.505-10.818 2.956-11.182 1.595-.168 2.423.78 3.078 2.882.093.3.57 2.064.857 3.035l.131.427c.196.601.402 1.141.633 1.645.159.346.32.668.489.973 2.882-1.785 6.348-2.947 10.243-3.288 3.558-.311 6.882.115 9.83 1.149.166-.348.33-.725.502-1.15l.154-.386zm7.499 41.955-.121.086c-3.64 2.507-8.579 4.19-14.53 4.71-2.782.243-5.39.198-7.79-.107-2.635 6.32-2.432 13.922.485 20.497l.192.424c2.135 4.594 7.484 8.394 14.063 10.575a45.08 45.08 0 0 1 1.82-.834.5.5 0 0 1 .398.918c-3.683 1.597-5.666 2.937-5.986 3.811-.17.461.5.882 2.118 1.05 3.943.412 9.73-1.01 11.888-3.239a.5.5 0 0 1 .853.27c.447.017.898.025 1.348.025 14.689 0 23.385-1.378 27.81-5.433.768-.704.052-1.846-1.473-1.428-7.814 2.137-13.843.493-19.356-5.724a7.118 7.118 0 0 1-1.32.942c-1.843 1.046-4.195 1.493-7.059 1.016-.594-.098-.688-.913-.133-1.145.582-.243 1.13-.497 1.644-.762 1.526-.784 2.7-1.618 3.568-2.446.243-.232.566-.618.831-.983-.1-.192-.196-.39-.29-.596-.482.262-1.12.567-1.476.715-1.992.833-4.075 1.148-6.084.63-.571-.146-.61-.943-.055-1.144.938-.341 1.794-.72 2.572-1.131 1.206-.637 2.165-1.315 2.902-1.989.331-.302.67-.733.857-.985-.07-.268-.14-.549-.21-.841-.313.186-.75.413-1.292.637-1.873.778-3.89 1.059-5.91.538-.575-.148-.609-.952-.048-1.147a14.078 14.078 0 0 0 3.526-1.797 11.54 11.54 0 0 0 2.089-1.88c.131-.153.385-.481.635-.8l-.079-.336-.399-1.594a37.672 37.672 0 0 0-.485-1.667 18.168 18.168 0 0 0-1.065-.526l-.14-.06a.5.5 0 0 1 .059-.945l.058-.015.388-.089.118-.024c-1.167-3.051-2.72-5.412-4.921-7.177zM40.8 87.744l-.044.02c-3.018 1.419-4.508 2.562-4.543 3.185-.02.376 1.035.763 2.898.804a21.007 21.007 0 0 0 3.61-.252c.588-.548 1.456-1.133 2.61-1.758a34.77 34.77 0 0 1-4.53-2zM64.28 60.777a19.53 19.53 0 0 0-3.877.137l-.076.01.136.073.346.195c1.579.907 3.01 1.987 4.122 3.24 1.245 1.402 1.992 2.923 2.121 4.547l.01.174.133-.097c1.896-1.336 3.5-.852 4.64.985l.099.166c.356.613.65 1.338.891 2.133l.1.345.063.24.146-.218c.344-.491.732-.94 1.167-1.32l.267-.219c1.043-.806 2.215-1.12 3.474-.82l.082.022-.187-.382c-3.048-6.084-7.891-8.84-13.657-9.211zm-25.739.589a.5.5 0 0 1 .67.224c.176.352.879 1.804 1.279 2.62l.53 1.059c2.243 4.338 3.996 6.083 5.967 5.263 1.316-.547 1.367-1.993.264-4.024-.992-1.828-2.757-3.687-3.966-4.24a.5.5 0 1 1 .416-.91c1.428.654 3.342 2.67 4.43 4.673 1.345 2.48 1.272 4.58-.76 5.425-2.703 1.123-4.747-.9-7.24-5.732l-.328-.646a48.85 48.85 0 0 1-.128-.258l-1.358-2.784a.5.5 0 0 1 .224-.67zm-8.887-.227c-1.3 1.744-1.901 4.064-1.762 6.439.117 1.995.733 3.435 1.427 3.865-.54-3.458-.434-6.978.335-10.304zm49.667 3.433c-4.153-5.39-9.433-7.173-15.164-6.437a19.53 19.53 0 0 0-3.78.874l-.072.024.147.047.378.125c.485.166.962.348 1.426.546a20.549 20.549 0 0 1 2.088.028C69.187 60.09 73.44 62.01 76.6 66c.804-.75 1.772-1.144 2.893-1.096l.085.005zM45.062 14.937c-2.783-.953-5.917-1.341-9.276-1.048-11.66 1.02-19.23 9.67-18.312 20.173.063.713.168 1.416.316 2.108a.5.5 0 0 1-.05.343c-1.164 2.142-1.673 4.412-1.474 6.69l-.026-.37.088.018c1.381.41 2.476.43 3.319.185l.176-.057c.401-.14.639-.301.73-.396l.067-.06a.5.5 0 0 1 .656.75c-.195.204-.564.455-1.122.65-1.068.374-2.434.385-4.11-.113l.3.085a12.929 12.929 0 0 0 2.98 6.695l-.269.102c2.36-.944 4.437-.552 6.106.589.396.27.674.52.828.687a.5.5 0 0 1-.736.677 4.068 4.068 0 0 0-.657-.539c-1.26-.862-2.78-1.216-4.527-.708 3.977 3.995 10.81 6.085 19.464 5.328 6.45-.564 11.63-2.51 15.184-5.38h.01c-2.392.17-5.121-.335-7.99-1.856-.592-.314-.304-1.213.359-1.125 3.055.402 5.804.126 8.221-.639.813-.257 2.533-1.048 3.681-1.758.092-.205.18-.413.263-.623-.443.163-.999.328-1.66.47-2.868.612-6.145.39-9.692-1.065-.657-.27-.385-1.255.317-1.148 3.33.505 6.19-.114 8.602-1.525a12.145 12.145 0 0 0 2.381-1.813c.308-.302.67-.813.87-1.099a11.052 11.052 0 0 0-.497-2.307c-.443.553-.92 1.097-1.426 1.632a28.49 28.49 0 0 1-3.047 2.783l-.396.303c-.151.112-.26.19-.32.232a.5.5 0 1 1-.567-.823l.289-.21a27.497 27.497 0 0 0 3.315-2.971c2.403-2.54 4.075-5.275 4.639-8.096l.022-.125-.852.426c-1.427.7-2.84 1.34-4.215 1.915l-.82.338c-.608.247-1.172.466-1.687.659l-.994.36-.148.05c-.513.172-.895-.479-.496-.843.13-.119.372-.358.694-.708a21.866 21.866 0 0 0 1.654-2.04c2.669-3.719 4.11-7.893 3.537-12.304l-.05-.35-.24.21c-3.276 2.858-6.104 4.889-8.495 6.226l-.324.178c-.827.45-1.517.77-2.07.991a4.138 4.138 0 0 1-1.09.43c-3.018.672-6.207-1.984-5.589-4.894.14-.66.45-1.193.963-1.743.207-.222.929-.883 1.363-1.288l.292-.278a9.514 9.514 0 0 0 1.5-1.912zM26.51 42.951a.5.5 0 0 1 .684.182c.476.821 1.455 1.406 2.82 1.768.93.246 1.968.37 3.014.402.301.01.58.01.83.004l.303-.01a.5.5 0 1 1 .062.997c-.065.004-.182.01-.343.013l-.276.004c-.19 0-.393-.002-.607-.008-1.115-.034-2.225-.167-3.239-.436-1.597-.422-2.795-1.138-3.43-2.233a.5.5 0 0 1 .182-.683zM12.84 30.519l.019.143c.297 2.094 1.533 4.418 3.382 6.652l.006.01c.159-.376.335-.752.529-1.127a17.272 17.272 0 0 1-.298-2.048 20.734 20.734 0 0 1-.077-1.54c-1.1-.554-2.219-1.2-3.34-1.941zm44.237-1.765-.123.202a24.76 24.76 0 0 1-1.784 2.504l-.171.205.83-.33c.495-.2.996-.41 1.502-.627l-.009-.132a19.614 19.614 0 0 0-.245-1.822zm-42.334-8.078-.016.155c-.22 2.552.558 5.043 2.102 7.422a18.513 18.513 0 0 1 1.683-4.675 57.649 57.649 0 0 1-3.562-2.73zM50.696 7.847c-1.17-.248-1.83.538-2.889 3.223l-.771 2.004-.217.53c-.184.438-.362.83-.547 1.198-.566 1.13-1.217 2-2.04 2.823-.234.234-1.073.996-1.467 1.377l-.164.164c-.398.426-.618.804-.717 1.27-.456 2.149 2.045 4.232 4.393 3.709 1.93-.431 4.366-3.58 5.474-6.232 1.943-4.643 1.489-9.525-1.055-10.066zm1.495 11.49-.02.04a17.141 17.141 0 0 1-1.75 2.73c.84-.51 1.733-1.104 2.679-1.786a16.88 16.88 0 0 0-.91-.985zm-29.8-8.939c-.53-1.7-1.043-2.287-2.018-2.184-2.587.272-3.549 5.08-2.102 9.9a15.89 15.89 0 0 0 1.504 3.39 19.2 19.2 0 0 1 4.842-4.776 15.296 15.296 0 0 1-1.234-2.855 33.375 33.375 0 0 1-.304-1.024z"/><path fill="#fff" d="M30.972 74.166c-1.653-7.203-.339-14.036 4.589-12.852 4.352 1.045 4.48 8.4 5.069 13.565.504 4.43 3.579 10.4 6.992 13.739-.373.168-.727.334-1.063.497-9.52-3.472-14.074-8.358-15.587-14.949z"/></g></svg>