<svg data-id="182-0b75f5b29daef0f-sign" xmlns="http://www.w3.org/2000/svg" viewBox="0 0 100 100"><g fill="none" fill-rule="evenodd"><path fill="#fff0d6" d="M56.845 62.455s5.729-13.66 20.863-9.507c-4.278 1.82-1.491 6.845-1.491 6.845s-7.896-4.502-7.042 2.443c-4.262-4.351-12.33.219-12.33.219z"/><path fill="#ffaf54" d="M35.532 87.338C30.88 75.616 24.06 85.1 28.074 89.746c4.016 4.645 12.257 3.39 16.84-.09.805-2.634-9.382-2.318-9.382-2.318z"/><path fill="#ffaf54" d="M60.009 91.612c17.435.49 25.726-13.246 26.715-24.715.068-.784-1.334-1.75-2.236-.144-2.43 4.325-8.185 11.324-16.058 9.382-12.22-3.013 4.796-20.526-14.455-27.398-5.858-2.09-11.218 1.819-14.552 4.848-5.012 7.468-16.332 14.873-12.369 26.162 3.963 11.288 12.37 12.355 32.955 11.865z"/><path fill="#fff0d6" d="M58.71 61.213s9.474-11.383 22.727-2.983c-4.623.488-3.43 6.108-3.43 6.108s-6.23-6.615-7.447.274c-2.8-5.407-11.85-3.4-11.85-3.4z"/><g fill="#ffaf54"><path d="M46.532 88.338C41.88 76.616 35.06 86.1 39.074 90.746c4.016 4.645 12.257 3.39 16.84-.09.805-2.634-9.382-2.318-9.382-2.318zM24.285 68.75c.399-4.303 7.758-9.748 10.114-9.748.363 0-.464 7.883-3.071 10.907-2.747 3.185-7.286 1.455-7.043-1.159zM31.587 38.823c-.503.64-7.705-6.715-7.037-12.557 4.833 4.136 9.055 5.425 9.055 5.425s-8.409-6.948-6.124-15.02c8.057 8.188 12.215 8.62 12.215 8.62z"/></g><path fill="#fff0d6" d="M31.005 15.515c-.987-4.76.18-10.22 3.434-10.278 2.77-.049 2.118 4.145 3.506 8.033 1.388 3.887 3.215 4.429 3.251 6.489.047 2.648-3.262 4.34-5.715 3.27-2.453-1.07-4.104-5.722-4.476-7.514z"/><path fill="#ffaf54" d="M49.313 12.242c12.321 0 20.5 8.507 20.5 19 0 .74-.046 1.471-.135 2.19 1.37 2.066 2.135 4.374 2.135 6.81 0 8.837-8.074 16-22.5 16-14.427 0-22.5-7.163-22.5-16 0-2.436.765-4.744 2.134-6.811a17.766 17.766 0 0 1-.134-2.189c0-10.493 8.178-19 20.5-19z"/><path fill="#ffaf54" d="M65.166 41.71s8.339-4.744 9.683-11.9c-5.425 2.262-9.83 3.319-9.83 3.319s8.45-6.466 7.258-16.158c-9.296 6.977-13.445 7.31-13.445 7.31z"/><path fill="#fff0d6" d="M65.298 18.351c2.26-4.305 2.64-9.875-.473-10.826-2.65-.809-3.587 3.52-5.58 6.758-1.995 3.239-4.31 3.374-4.912 5.345-.774 2.533 1.943 5.07 4.596 4.716 2.652-.353 5.52-4.372 6.37-5.993z"/><path fill="#fff" d="M18.305 46.306a4.504 4.504 0 0 1 5.39 1.48l1.935-.861a.976.976 0 0 1 1.252.409l.052.105a1.019 1.019 0 0 1-.522 1.328l-1.921.855a4.504 4.504 0 0 1-8.571 2.588 4.503 4.503 0 0 1 2.385-5.904z"/><path fill="#872e00" fill-rule="nonzero" d="M34.434 4.746c1.603-.028 2.345.988 2.814 3.14.067.306.389 2.105.59 3.097l.093.437c.143.616.301 1.172.488 1.694.127.359.26.694.401 1.012 3.027-1.528 6.582-2.384 10.493-2.384 3.572 0 6.846.714 9.693 2.001.195-.332.392-.694.6-1.103.062-.119.124-.241.188-.371l.85-1.744c1.524-3.053 2.504-4.022 4.342-3.46 3.328 1.017 3.358 6.606.767 11.54l-.04.076c.405.466.787.95 1.144 1.454 1.57-.976 3.28-2.15 5.132-3.54a.5.5 0 0 1 .797.339c.503 4.1-.578 7.873-2.705 11.225.153 1 .232 2.03.232 3.083l-.003-.206a75.548 75.548 0 0 0 4.357-1.658.5.5 0 0 1 .684.554c-.463 2.458-1.713 4.76-3.532 6.88.285 1.048.449 2.192.494 3.43 0 6.125-3.615 11.11-9.82 13.942.081.126.159.255.234.385 3.984-2.817 8.99-3.79 15.08-2.118a.5.5 0 0 1 .063.942c-.977.416-1.576 1.018-1.866 1.786 1.861.515 3.765 1.367 5.704 2.595a.5.5 0 0 1-.215.92c-1.57.166-2.463.972-2.872 2.285-.23.739-.287 1.581-.221 2.43.019.243.044.447.068.6l.035.19c.105.495-.507.815-.853.447a5.686 5.686 0 0 0-.108-.11l-.265-.257a14.37 14.37 0 0 0-.985-.851c-.597-.47-1.191-.854-1.756-1.116-1.85-.856-3.003-.323-3.475 2.355a.5.5 0 0 1-.937.143c-.848-1.637-2.378-2.652-4.449-3.147-.413-.098-.84-.174-1.277-.23.017.9-.01 1.728-.089 2.943l-.145 2.023c-.407 6.071.234 8.095 3.959 9.139l.427.112c6.254 1.542 11.867-2.674 15.502-9.142.516-.918 1.296-1.292 2.064-1.058.665.203 1.162.845 1.107 1.49C85.99 81.21 75.665 92.552 60.02 92.112c-1.965.046-3.81.074-5.544.08-4.53 2.546-10.363 2.862-14.12.344-4.667 1.457-9.836.805-12.661-2.463-1.86-2.153-1.69-5.532-.028-7.493-.39-.822-.75-1.71-1.086-2.668-.978-2.787-1.1-5.453-.456-8.093-1.428-.111-2.474-1.188-2.297-3.098.375-4.048 7.456-10.203 10.614-10.203.1 0 .191.028.269.078l1.18-1.342c1.032-1.18 1.554-1.799 1.983-2.357-7.265-2.654-11.562-7.977-11.562-14.655 0-1.675.355-3.325.995-4.839l-.089-.12c-2.22-3.108-3.482-6.325-3.167-9.062a.5.5 0 0 1 .822-.323 32.868 32.868 0 0 0 3.61 2.692c.08-.618.189-1.225.325-1.82-2.007-3.325-2.782-6.785-1.808-10.225a.5.5 0 0 1 .838-.215 59.934 59.934 0 0 0 3.987 3.726c.059-.084.12-.167.18-.249a16.84 16.84 0 0 1-1.491-4.179c-1.13-5.458.44-10.821 3.919-10.882zm27.13 49.839-.072.029c-3.408 1.37-7.517 2.128-12.18 2.128-3.896 0-7.406-.53-10.443-1.503-.365.493-.75.969-1.434 1.764l-3.448 3.93c-1.83 2.093-3.311 3.965-4.451 5.712 1.343 1.894.577 3.872-1.471 4.795a4.522 4.522 0 0 1-.972.316c-.704 2.542-.552 5.019.433 7.825 1.928 5.492 4.636 8.577 10.332 10.164-1.022-2.307-.426-5.226 1.374-6.725 2.482-2.068 5.596-.33 7.765 5.134a.5.5 0 1 1-.93.369c-1.953-4.922-4.36-6.264-6.195-4.735-1.749 1.457-2.1 4.688-.42 6.63 3.48 4.027 11.189 3.614 16.16-.16a.5.5 0 0 1 .605.796l-.173.128a269.49 269.49 0 0 0 1.977-.028l2.002-.042c15.09.424 25.014-10.477 26.203-24.258.013-.146-.165-.375-.402-.447-.29-.089-.603.061-.9.591-3.74 6.654-9.526 11.09-16.136 9.73a6.865 6.865 0 0 1-.486.558c-.406.424-.886.846-1.44 1.24-2.025 1.44-4.472 2.134-7.297 1.664-.575-.096-.69-.872-.167-1.13 2.113-1.042 3.642-2.098 4.682-3.108.445-.431.724-.774.878-1.005a5.084 5.084 0 0 1-.386-.397c-.413.217-1.195.578-1.574.724-1.87.721-3.782 1.055-5.593.775a7.58 7.58 0 0 1-.734-.15c-.571-.147-.61-.944-.055-1.145a20.868 20.868 0 0 0 2.59-1.137c1.21-.638 2.18-1.317 2.93-1.991.245-.22.667-.701.938-1.018a8.331 8.331 0 0 1-.033-.44c-.173.098-.396.21-.714.348a8.833 8.833 0 0 1-5.792.467c-.575-.148-.609-.952-.048-1.147a15.477 15.477 0 0 0 3.733-1.896c.734-.508 1.833-1.408 3.03-2.773l.04-.544c.1-1.44.13-2.33.105-3.335l.002.055a18.21 18.21 0 0 0-2.634.055 19.22 19.22 0 0 0-1.785.244l-.15.031a.5.5 0 0 1-.493-.808l.038-.045.268-.296c.244-.26.531-.547.86-.852a20.524 20.524 0 0 1 3.28-2.47 10.316 10.316 0 0 0-1.217-2.617zM28.17 83.569l-.11.171c-.998 1.637-.983 4.09.391 5.679 2.397 2.772 6.798 3.44 10.93 2.354a7.911 7.911 0 0 1-.686-.7l-.083-.1c-5.263-1.228-8.32-3.509-10.442-7.404zm18.541-21.962a.5.5 0 0 1 .253.66c-1.288 2.89-3.433 4.857-6.758 6.74l-.404.226c-.264.144-.528.286-.83.445l-1.709.886-.508.272c-.63.343-1.081.618-1.454.892-1.042.765-1.32 1.41-.933 2.3 1.546 3.556 9.758.36 10.857-4.168a.5.5 0 1 1 .972.236c-1.289 5.31-10.725 8.982-12.746 4.331-.6-1.381-.124-2.49 1.258-3.505.465-.341 1.016-.67 1.814-1.097l1.982-1.032c.298-.156.558-.295.815-.437 3.384-1.857 5.498-3.73 6.731-6.496a.5.5 0 0 1 .66-.253zm-21.887 7.206c-.17 1.834 1.177 2.46 2.829 1.716 1.714-.773 2.158-2.336.556-3.897a.5.5 0 0 1 .623-.777c1.135-1.733 2.627-3.573 4.746-5.973l.247-.28c-2.94.72-8.698 5.937-9.001 9.211zm54.924-11.03c-5.987-3.235-11.536-2.716-16.471.288a19.53 19.53 0 0 0-3.097 2.336l-.056.052.153-.018.395-.04c1.813-.162 3.606-.099 5.234.29 1.825.435 3.31 1.252 4.347 2.508l.108.137.053-.155c.786-2.182 2.378-2.705 4.365-1.855l.176.08c.644.297 1.3.722 1.954 1.236l.28.225.189.16-.005-.262c0-.6.06-1.19.2-1.75l.092-.333c.392-1.259 1.172-2.189 2.375-2.664l.08-.03zm-3.813-4.75c-5.108-1.03-9.327-.028-12.748 2.435.183.395.342.804.48 1.225 3.516-1.904 7.332-2.618 11.36-1.753a3.797 3.797 0 0 1 1.256-1.769l.068-.051zm-26.623-40.29c-11.705 0-20 7.956-20 18.5 0 .715.044 1.425.13 2.126a.5.5 0 0 1-.079.338c-1.346 2.032-2.051 4.25-2.051 6.535 0 9.05 8.515 15.5 22 15.5 6.475 0 11.804-1.487 15.595-4.035h.01c-2.397-.038-5.072-.78-7.798-2.545-.561-.364-.197-1.234.456-1.09 3.009.667 5.771.632 8.246.08.862-.191 2.656-.818 3.81-1.415.112-.2.221-.405.324-.612-.454.123-1.022.24-1.692.322-2.911.36-6.157-.147-9.564-1.905-.63-.325-.273-1.283.417-1.116 3.272.794 6.176.426 8.702-.769.97-.459 1.815-1.01 2.53-1.6.283-.232.684-.628.962-.957-.01-.81-.109-1.613-.294-2.401a26.833 26.833 0 0 1-1.563 1.5 28.49 28.49 0 0 1-2.814 2.195l-.465.311-.216.14-.498.305-.045.026a.5.5 0 0 1-.494-.87l.306-.184c.252-.156.537-.34.848-.553a27.497 27.497 0 0 0 2.714-2.118c2.616-2.32 4.52-4.898 5.327-7.66l.033-.122-.885.35a77.62 77.62 0 0 1-4.366 1.54l-.846.265-.906.272c-.29.085-.568.164-.833.238l-.81.218c-.16.041-.283.072-.364.091-.525.126-.85-.555-.42-.883l.127-.101c.15-.121.362-.304.626-.544.59-.54 1.208-1.17 1.825-1.889 2.983-3.471 4.783-7.504 4.596-11.948l-.02-.353-.256.188-.99.71c-3.089 2.185-5.755 3.735-8.016 4.752l-.338.15c-.864.375-1.579.635-2.149.807-.38.168-.757.282-1.123.33-3.064.408-6.01-2.516-5.14-5.361.198-.646.553-1.15 1.111-1.653.248-.223 1.163-.921 1.601-1.267l.185-.149a9.501 9.501 0 0 0 1.703-1.836c-2.688-1.193-5.777-1.854-9.15-1.854zm-14.216 29.66.154.006c1.496.104 2.479 1.828 2.343 3.772s-1.35 3.515-2.845 3.41c-1.496-.104-2.479-1.828-2.343-3.772s1.35-3.515 2.845-3.41zm6.172-5.126c.708-.636 1.549-.958 2.495-.792.946.167 1.625.758 2.073 1.597.26.486.392.947.441 1.264a.5.5 0 0 1-.988.154 3.212 3.212 0 0 0-.335-.947c-.315-.59-.758-.976-1.365-1.083-.606-.107-1.155.103-1.653.55a3.212 3.212 0 0 0-.639.776.5.5 0 0 1-.875-.483c.155-.28.436-.668.846-1.036zm-10.983-1.893c.608-.674 1.33-1.04 2.152-.896.822.145 1.376.737 1.717 1.578.191.472.28.919.31 1.227a.5.5 0 0 1-.996.092 1.899 1.899 0 0 0-.014-.109l-.031-.172a3.74 3.74 0 0 0-.196-.662c-.225-.555-.543-.895-.963-.969-.42-.074-.836.137-1.237.58a3.74 3.74 0 0 0-.498.707l-.05.098a.5.5 0 0 1-.905-.427c.133-.28.37-.67.711-1.047zm-5.277-8.075.006.145c.114 2.11 1.14 4.53 2.785 6.915.194-.364.404-.719.631-1.061a16.795 16.795 0 0 1-.118-2.066c0-.52.019-1.034.057-1.542a32.961 32.961 0 0 1-3.154-2.223zm44.218 2.098-.14.19a24.76 24.76 0 0 1-1.995 2.338l-.188.189.4-.117.455-.139c.51-.156 1.028-.321 1.551-.494l.003-.132c0-.62-.03-1.233-.086-1.835zM27.763 17.67l-.03.153c-.442 2.52.115 5.068 1.444 7.57.498-1.61 1.2-3.12 2.085-4.506a57.517 57.517 0 0 1-3.308-3.027zm36.93-9.649c-1.217-.372-1.962.474-3.415 3.482l-.686 1.406-.262.51c-.221.419-.433.794-.65 1.145a10.508 10.508 0 0 1-2.278 2.634c-.23.194-.997.778-1.454 1.142l-.306.251c-.433.39-.684.747-.824 1.202-.642 2.102 1.669 4.395 4.053 4.078 1.96-.26 4.661-3.186 5.997-5.73 2.34-4.457 2.313-9.36-.175-10.12zm.487 11.578-.022.037a17.14 17.14 0 0 1-1.981 2.568A40.939 40.939 0 0 0 66 20.658a16.874 16.874 0 0 0-.82-1.06zM34.451 5.746c-2.6.045-3.977 4.75-2.957 9.68a15.89 15.89 0 0 0 1.203 3.509 19.206 19.206 0 0 1 5.24-4.337c-.162-.36-.315-.74-.46-1.148-.2-.561-.369-1.153-.52-1.804a33.374 33.374 0 0 1-.214-1.047l-.472-2.5c-.38-1.74-.84-2.37-1.82-2.353z"/><path fill="#2c97de" fill-rule="nonzero" d="M18.207 46.075a4.753 4.753 0 1 0 3.714 8.75l.204-.093a4.756 4.756 0 0 0 2.673-4.721l-.03-.24 1.745-.777c.632-.28.92-1.018.651-1.653l-.058-.119-.068-.108a1.227 1.227 0 0 0-1.51-.419l-1.755.781-.149-.177a4.755 4.755 0 0 0-5.417-1.224zm.195.46a4.254 4.254 0 0 1 5.091 1.398.25.25 0 0 0 .304.08l1.934-.86a.726.726 0 0 1 .933.304l.046.092a.766.766 0 0 1-.4.988l-1.921.856a.25.25 0 0 0-.144.275 4.254 4.254 0 0 1-8.095 2.443 4.252 4.252 0 0 1 2.252-5.576z"/><path fill="#fff" d="M29.698 66.65c2.975-3.663 7.543-5.783 10.863-4.337 1.371.598 2.013 1.981 2.277 3.716-.98.817-2.144 1.573-3.516 2.327-.258.141-.518.28-.815.437l-1.983 1.032c-.798.426-1.349.755-1.813 1.096-1.382 1.015-1.859 2.125-1.259 3.506 1.333 3.066 5.89 2.514 9.208.26-.018.414-.03.813-.03 1.192 0 2.095.411 4.772 1.222 7.343-1.548-1.322-3.189-1.394-4.62-.202-1.846 1.538-2.425 4.57-1.29 6.904-7.85-2.502-10.722-8.618-11.226-14.491a10.8 10.8 0 0 1 .331-3.67c.333-.06.675-.168 1.018-.323 2.008-.905 2.784-2.823 1.55-4.683z"/></g></svg>