<svg data-id="186-cc17f8eb7a8c90c-smile" xmlns="http://www.w3.org/2000/svg" viewBox="0 0 100 100"><g fill="none" fill-rule="evenodd"><path fill="#7e87bd" d="M74.394 49.587s8.6-8.68 18.893-.831c-3.834.071-3.254 4.775-3.254 4.775s-4.65-5.88-6.14-.305c-1.917-4.644-9.499-3.64-9.499-3.64z"/><path fill="#f8f4ff" d="M93.287 48.756c-3.834.071-3.254 4.775-3.254 4.775s-1.768-3.32.37-4.999c-5.97-3.413-12.049-1.477-16.009 1.055.94-1.378 8.936-7.686 18.893-.831z"/><path fill="#5e4a7f" fill-rule="nonzero" d="M78.762 46.056c-1.298.553-3.767 1.966-4.794 3.109a.602.602 0 0 0 .505 1.017c6.694-.516 8.409 2.168 8.865 3.273a.6.6 0 0 0 1.134-.074c.578-2.163 1.512-2.4 3.021-1.406.423.278 1.381 1.067 2.07 1.928.379.476 1.14.157 1.065-.445s-.033-2.025.519-2.956c.429-.724 1.107-1.127 2.151-1.146a.6.6 0 0 0 .353-1.077c-5.062-3.86-10.149-4.244-14.89-2.223zm13.035 2.38c-1.287.463-2.216 1.938-2.348 3.589-2.767-2.578-4.553-2.219-5.684-.232-.6-.802-2.338-2.818-7.592-2.897 5.246-3.854 11.084-3.486 15.624-.46z"/><path fill="#7e87bd" d="M74 50.353s11.049-5.216 18.038 5.68c-3.628-1.244-4.691 3.374-4.691 3.374s-2.358-7.116-5.666-2.387c-.213-5.019-7.68-6.667-7.68-6.667z"/><path fill="#f8f4ff" d="M92.038 56.033c-3.628-1.244-4.691 3.374-4.691 3.374s-.526-3.725 2.058-4.57c-4.443-5.25-10.818-5.51-15.404-4.484 1.353-.973 11.025-4.167 18.037 5.68z"/><path fill="#5e4a7f" fill-rule="nonzero" d="M79.312 48.528c-1.408.076-4.212.56-5.568 1.283-.5.266-.44.97.127 1.128 6.467 1.804 7.16 4.913 7.21 6.107a.6.6 0 0 0 1.092.318c1.283-1.834 2.241-1.738 3.32-.288.301.406.933 1.475 1.284 2.52.194.577 1.018.537 1.155-.054s.661-1.914 1.497-2.6c.651-.534 1.426-.68 2.414-.342a.6.6 0 0 0 .7-.891c-3.437-5.357-8.086-7.459-13.231-7.18zm11.435 6.694c-1.368-.004-2.745 1.064-3.433 2.57-1.72-3.368-3.52-3.641-5.263-2.161-.29-.96-1.233-3.448-6.143-5.319 6.247-1.828 11.607.515 14.84 4.91z"/><path fill="#d2e0f5" d="M33.34 9.118s-3.1 5.368 1.22 9.778c.507.518 2.445.922 3.691 0 1.247-.923 2.059-3.185.935-4.57-4.332-2.363-5.846-5.208-5.846-5.208z"/><path fill="#f8f4ff" d="M33.34 9.118s-3.1 5.368 1.22 9.778c.076.078.185.154.32.223-2.859-3.683-1.157-7.761-.662-8.767-.616-.743-.878-1.234-.878-1.234z"/><path fill="#5e4a7f" fill-rule="nonzero" d="M33.87 8.836c1.741 2.846 5.016 4.643 5.603 4.963a.6.6 0 0 1 .179.148c1.274 1.571.598 4.216-1.044 5.431-1.322.979-3.62.814-4.477-.062a8.892 8.892 0 0 1-1.594-2.195c-1.158-2.278-1.3-5.246.284-8.303.219-.423.807-.377 1.049.018zm-.426 1.508c-1.748 4.876.976 7.5 1.544 8.132.278.31 2.04.681 3.04-.169.998-.85 1.42-2.516.781-3.482-.747-.449-1.304-.8-1.672-1.052-1.371-.942-2.527-1.95-3.693-3.43z"/><path fill="#dcd5e9" fill-rule="nonzero" d="M46.495 92.768c14.673 0 35 4.515 35-18.902 0-13.473-4.71-22.062-7.453-32.506-4.038-15.374-5.256-26.243-25.547-26.243S24.86 26.182 20.857 41.71c-2.667 10.352-5.547 19.998-4.362 32.156 2.297 23.563 15.327 18.902 30 18.902z"/><path fill="#f8f4ff" d="M48.495 15.117c20.29 0 21.51 10.87 25.547 26.243 2.743 10.444 7.453 19.033 7.453 32.506 0 7.32-1.986 11.91-5.164 14.762 2.589-2.889 4.164-7.243 4.164-13.762 0-13.473-4.71-22.062-7.453-32.506-4.038-15.374-5.256-26.243-25.547-26.243-8.721 0-14.312 2.045-18.17 5.609 3.876-4.18 9.663-6.609 19.17-6.609z"/><path fill="#5e4a7f" fill-rule="nonzero" d="M48.495 14.517c-9.777 0-16.135 2.52-20.39 7.693-3.32 4.033-5.029 8.558-7.683 18.786l-1.623 6.265-.265 1.047c-2.565 10.239-3.447 17.295-2.636 25.616l.108 1.02c1.034 9.035 3.77 14.266 8.369 16.789l.406.216c3.45 1.777 6.84 2.005 15.134 1.628l2.757-.123a91.16 91.16 0 0 1 3.565-.086l1.397.007c1.014.013 2.101.046 3.812.112l4.32.163.828.025c8.118.218 13.251-.404 17.413-2.682 5.312-2.908 8.088-8.387 8.088-17.127 0-7.845-1.158-13.057-4.502-23.127l-1.109-3.337c-.717-2.185-1.194-3.738-1.632-5.339l-.311-1.168c-.37-1.42-1.223-4.766-1.385-5.388l-.267-1.013c-1.943-7.262-3.567-11.044-6.49-14.128-3.736-3.943-9.333-5.849-17.904-5.849zm0 1.2c8.268 0 13.55 1.799 17.033 5.474 2.745 2.896 4.308 6.537 6.2 13.609l1.734 6.712.31 1.153c.529 1.903 1.126 3.786 2.121 6.77l.768 2.307c3.147 9.548 4.234 14.602 4.234 22.124 0 8.328-2.566 13.393-7.465 16.074-3.733 2.044-8.415 2.688-15.693 2.56l-1.728-.043-5.969-.222a113.45 113.45 0 0 0-2.393-.06l-1.152-.007c-1.58 0-2.934.04-5.31.149l-2.24.101c-7.702.32-10.788.021-13.993-1.737-4.366-2.395-6.952-7.567-7.86-16.873-.774-7.945.027-14.726 2.41-24.416l.46-1.835 1.9-7.327c2.454-9.305 4.115-13.546 7.17-17.258 4.007-4.871 10.02-7.255 19.463-7.255z"/><path fill="#7e87bd" d="M53.574 73.583 51 70.777l.359 9.978 8.329-6.159-4.313.058c1.476-4.124 4.148-6.878 5.965-5.392 2.325 1.901 1.533 12.812 2.045 15.42.576 2.931 3.018 6.615 9.508 6.234 1.85-.109 7.513-1.1 6.887-7.213-3.473 2.391-9.957 3.107-11.726.462-2.889-4.319-2.675-15.115-4.669-17.261-4.49-4.834-9.143.324-9.81 6.68z"/><path fill="#f8f4ff" d="M53.574 73.583 51 70.777l.358 9.978c.184-.607.282-1.103.297-1.487.109-2.856.137-4.932.412-5.685.151-.413.947.156 1.428.347.172.069.318-.08.438-.445 2.058-7.948 5.847-8.998 8.519-6.052 1.939 2.138 1.845 12.109 4.3 16.732 2.003 3.774 9.697 3.774 13.028-.462-3.474 2.391-9.957 3.107-11.726.462-2.89-4.319-2.675-15.115-4.669-17.261-4.49-4.834-9.143.324-9.811 6.68z"/><path fill="#5e4a7f" fill-rule="nonzero" d="M63.821 66.495c.782.843 1.209 2.363 1.76 5.676l.556 3.472.083.499c.645 3.794 1.317 6.177 2.329 7.69 1.44 2.154 7.415 1.767 10.887-.623a.6.6 0 0 1 .937.433c.54 5.28-3.027 7.613-7.449 7.873-5.866.344-9.305-2.51-10.131-6.717l-.033-.183c-.104-.633-.149-1.522-.192-3.368l-.074-3.104c-.01-.34-.022-.646-.037-1.007l-.037-.76c-.2-3.705-.665-5.996-1.464-6.65l-.088-.065c-1.164-.788-3.134.942-4.524 4.16l-.093.221 3.425-.046c.582-.008.833.736.364 1.083l-8.329 6.159a.6.6 0 0 1-.956-.461l-.358-9.978.003-.096a.6.6 0 0 1 1.038-.331l1.724 1.877.024-.13c.546-2.753 1.81-5.171 3.477-6.535 2.215-1.814 4.846-1.577 7.158.911zm15.402 18.298.001-.046-.046.026c-3.997 2.19-9.863 2.363-11.627-.274-1.05-1.57-1.73-3.818-2.358-7.268l-.24-1.392-.55-3.44c-.506-3.028-.908-4.491-1.461-5.087-1.888-2.032-3.803-2.204-5.52-.8-1.675 1.372-2.937 4.107-3.255 7.134l-.017.093a.6.6 0 0 1-1.022.25l-1.473-1.608.259 7.214 5.915-4.374-2.45.033a.6.6 0 0 1-.573-.802c1.66-4.64 4.675-7.483 6.91-5.655 1.213.993 1.715 3.54 1.921 7.876l.052 1.285.106 4.258c.037 1.183.082 1.825.16 2.27l.015.08c.714 3.635 3.634 6.059 8.884 5.75 3.52-.206 6.29-1.846 6.369-5.523z"/><path fill="#f8f4ff" d="M29.483 50.663c-2.016-1.576-4.917-2.204-9.399 4.218 0 0 5.195-10.04 9.4-4.218z"/><g fill-rule="nonzero"><path fill="#5e4a7f" d="M23.114 49.286c1.823-1.65 3.828-1.877 5.728-.296 1.65 1.372 1.916 2.787.898 4.238-1.143 1.63-4.488 3.341-5.538 4.08-.271.191-.65.102-.83-.176a.609.609 0 0 1 .176-.83c.629-.443 4.238-2.456 5.218-3.775.645-.868.493-1.63-.691-2.615-1.401-1.165-2.745-1.012-4.155.264-1.213 1.098-2.362 2.973-3.206 5.044a.6.6 0 0 1-1.111-.453c.905-2.223 2.143-4.242 3.511-5.48z"/><path fill="#dcd5e9" d="M27.933 54.369c-1.321-2.036-.67-3.87 1.955-5.504l4.49 2.885.473 3.757c-3.291 1.277-5.597.898-6.918-1.138z"/></g><path fill="#f8f4ff" d="M29.054 49.68c-1.24 2.24-1.404 5.204 5.644 8.62 0 0-10.734-3.552-5.644-8.62z"/><path fill="#5e4a7f" fill-rule="nonzero" d="M28.637 55.98c-1.916-1.54-2.455-3.485-1.193-5.61 1.095-1.846 2.451-2.33 4.045-1.554 1.79.873 4.006 3.908 4.9 4.829.231.237.203.625-.043.847a.609.609 0 0 1-.848-.044c-.536-.551-3.092-3.8-4.548-4.56-.96-.5-1.688-.23-2.474 1.094-.93 1.567-.569 2.87.913 4.062 1.275 1.026 3.308 1.866 5.486 2.373a.6.6 0 1 1-.272 1.17c-2.338-.545-4.527-1.45-5.966-2.607z"/><path fill="#d2e0f5" d="M60.542 10.117s3.1 5.368-1.22 9.778c-.507.518-2.445.922-3.691 0-1.247-.923-2.059-3.185-.935-4.57 4.332-2.363 5.846-5.208 5.846-5.208z"/><path fill="#f8f4ff" d="M60.542 10.117s3.1 5.368-1.22 9.778a1.245 1.245 0 0 1-.32.223c2.859-3.683 1.157-7.761.662-8.767.616-.743.878-1.234.878-1.234z"/><path fill="#5e4a7f" fill-rule="nonzero" d="M60.012 9.835c-1.741 2.846-5.016 4.643-5.603 4.963a.6.6 0 0 0-.179.148c-1.274 1.571-.598 4.216 1.044 5.431 1.322.979 3.62.814 4.477-.062a8.892 8.892 0 0 0 1.594-2.195c1.158-2.278 1.3-5.246-.284-8.303-.219-.423-.807-.377-1.049.018zm.426 1.508c1.748 4.876-.976 7.5-1.544 8.132-.278.31-2.04.681-3.04-.169-.998-.85-1.42-2.516-.781-3.482.747-.449 1.304-.8 1.672-1.052 1.371-.942 2.527-1.95 3.693-3.43z"/><g fill="#5e4a7f" fill-rule="nonzero"><path d="M34.884 33.823a.6.6 0 0 0 .289-1.149l-.116-.037-.025-.006a5.05 5.05 0 0 0-1.647-.095c-1.08.123-1.91.648-2.235 1.68-.32 1.012-.002 1.945.715 2.752l.139.15.051.05-.032.012c-1.002.377-1.708 1.086-1.886 2.17l-.027.208c-.113 1.15.443 2.004 1.403 2.55.454.26.932.419 1.36.507l.264.046a.6.6 0 0 0 .25-1.17l-.116-.023a3.57 3.57 0 0 1-1.164-.402c-.581-.332-.864-.765-.803-1.39.069-.694.47-1.12 1.142-1.373.231-.087.477-.145.718-.178l.183-.02c.05-.005.089-.006.113-.007.618-.005.826-.828.284-1.126a4.238 4.238 0 0 1-.877-.689c-.538-.556-.756-1.123-.572-1.707.162-.513.572-.773 1.226-.847a3.87 3.87 0 0 1 1.067.038l.2.04zM25.08 22.315a.6.6 0 0 0 .848.003l.153-.14a9.692 9.692 0 0 1 1.491-1.047c2.18-1.245 4.626-1.636 7.225-.676a.6.6 0 1 0 .416-1.125c-2.968-1.097-5.77-.648-8.235.758-.52.297-.982.615-1.383.934-.245.195-.417.35-.513.444a.6.6 0 0 0-.003.849zM56.686 23.965a.6.6 0 0 1-.847-.058l-.09-.098a7.761 7.761 0 0 0-.325-.316c-.357-.33-.777-.67-1.257-.997-2.263-1.545-4.933-2.272-7.938-1.662a.6.6 0 0 1-.24-1.177c3.356-.681 6.343.133 8.854 1.847.531.362.998.738 1.396 1.107l.219.208c.129.127.225.228.286.3a.6.6 0 0 1-.058.846zM26.976 27.434a.75.75 0 0 0 1.06-.003c1.924-1.934 3.728-2.125 5.35-1.341.316.153.536.302.635.385a.75.75 0 1 0 .968-1.146c-.19-.16-.51-.377-.95-.59-2.167-1.047-4.662-.783-7.066 1.634a.75.75 0 0 0 .003 1.061zM51.686 29.257a.75.75 0 0 1-1.051-.142c-1.818-2.387-3.888-2.995-5.924-2.556-.397.086-.68.189-.816.254a.75.75 0 0 1-.652-1.35c.236-.115.63-.258 1.151-.37 2.57-.556 5.238.228 7.434 3.113a.75.75 0 0 1-.142 1.051z"/></g></g></svg>