<svg data-id="187-4bfdc1647d81cf1-cry" xmlns="http://www.w3.org/2000/svg" viewBox="0 0 100 100"><g fill="none" fill-rule="evenodd"><path fill="#78c9ff" d="M43.155 94.03c-13.424 1.851-33.998 5.34-33.998-1.429 0-2.877 8.939-3.262 8.014-5.812C16.247 84.239 6 85.46 6 81.196c0-4.143 11.923-3.108 14.041-4.284 3.098-1.72 2.765-4.396 5.512-5.704 2.086-.993 7.176 1.886 17.602 1.886 10.427 0 41.152 1.136 42.428 3 3.146 4.595-12.269 6.087-11.056 9.267S93 87.648 93 92.339c0 4.573-36.42-.159-49.845 1.692z"/><path fill="#4ea7e0" fill-rule="nonzero" d="M28.7 70.644c1.105.216 3.416.708 3.962.814 3.466.676 6.698 1.036 10.493 1.036l1.417.006c5.475.041 13.9.305 21.279.689l1.984.107c11.19.633 17.486 1.353 18.243 2.46.973 1.42.579 2.755-.863 3.886-.905.71-2.067 1.294-4.062 2.112l-3.515 1.43c-1.957.868-2.725 1.504-2.55 1.963.285.749 2.036 1.31 6.077 2.016l2.664.446c6.976 1.168 9.771 2.187 9.771 4.73 0 1.725-2.548 2.394-7.736 2.597l-1.156.037c-3.03.079-6.09.029-11.996-.183l-10.629-.401c-9.479-.327-14.736-.303-18.619.206l-7.328 1.026c-.915.126-2.33.312-4.244.56-6.818.85-11.865 1.19-15.695.925-4.91-.34-7.64-1.719-7.64-4.505 0-1.494 1.16-2.254 4.13-3.365l1.06-.39c2.277-.84 3.04-1.357 2.86-1.853-.199-.55-1.227-.934-3.716-1.425l-2.036-.4c-3.768-.804-5.455-1.77-5.455-3.972 0-2.383 2.49-3.38 7.373-3.923l4.081-.372c1.686-.16 2.518-.303 2.896-.513.928-.516 1.542-1.11 2.155-1.999 1.442-2.092 2.572-3.333 3.39-3.722.467-.222 1.602-.23 3.405-.023zM25.81 71.75c-.91.433-1.403.942-2.121 2.069l-.612.976c-.77 1.18-1.542 1.973-2.746 2.642-.548.304-1.366.463-3.064.63-2.505.223-3.847.343-4.025.362-4.426.463-6.643 1.303-6.643 2.767 0 1.41 1.412 2.164 4.81 2.861l2.032.397c2.811.567 3.89 1.015 4.293 2.13.52 1.433-.42 2.179-3.044 3.19l-1.286.476c-2.61.959-3.648 1.595-3.648 2.351 0 1.907 2.177 3.006 6.523 3.308 3.491.242 8.08-.037 14.18-.763 2.633-.332 4.47-.57 5.513-.714l7.805-1.086c4.316-.51 10.242-.47 21.26-.05l8.12.31c5.478.193 8.442.241 11.304.173 3.32-.18 5.402-.367 6.246-.564 1.177-.274 1.692-.613 1.692-.876 0-1.527-2.521-2.478-8.39-3.482l-3.043-.509c-4.735-.819-6.48-1.408-7-2.773-.546-1.43.617-2.382 3.422-3.591l2.622-1.063c2.321-.927 3.58-1.53 4.463-2.223.99-.776 1.184-1.433.614-2.265-.867-1.267-26.9-2.739-41.933-2.739-3.879 0-7.186-.369-10.723-1.058l-3.741-.771c-.286-.057-2.468-.311-2.88-.115z"/><path fill="#7e87bd" d="M63.073 74.595c3.029 4.998 8.078 5.002 10.308 5.032 2.937.04 4.714-.37 8.46.553 3.708.914 4.98 1.853 8.52 2.52l-1.534-3.376 8.41 3.935-8.3 4.89 1.78-4.039c-3.874 1.27-6.28-.776-9.985-1.133-6.294-.608-6.659 1.766-12.606.001-3.358-.996-8.245-4.659-5.053-8.383z"/><path fill="#f8f4ff" d="M63.073 74.595c3.029 4.998 8.078 5.002 10.308 5.032l.684.002c2.55-.019 4.33-.298 7.776.551 3.708.914 4.233 1.401 7.773 2.069l-.787-2.925 8.41 3.935c-4.095-1.33-6.442-2.002-7.042-2.019-1.603-.043 1.158 1.858.328 1.734-5.134-.768-8.433-1.952-10.224-2.125-6.295-.607-8.088.075-11.653-.777-2.815-.672-4.105-1.933-5.573-5.477z"/><path fill="#5e4a7f" fill-rule="nonzero" d="M62.62 74.205c-1.664 1.941-1.514 4.075.063 5.987 1.237 1.499 3.325 2.784 5.275 3.362 2.503.743 4.076.839 6.062.516l.556-.099c.332-.063.868-.166 1.026-.195 1.699-.31 3.084-.394 5.076-.201l.402.045c.79.101 1.514.276 2.702.622l1.2.35c.324.092.556.152.837.219l.34.077c1.109.235 2.113.302 3.136.167l.378-.06-1.283 2.912c-.235.533.352 1.055.854.76l8.301-4.89a.6.6 0 0 0-.05-1.061l-8.41-3.935-.09-.034a.6.6 0 0 0-.712.826l1.043 2.293-.177-.04c-.718-.176-1.4-.383-2.203-.657l-1.29-.454c-1.39-.49-2.368-.797-3.668-1.117-1.975-.487-3.417-.64-5.277-.626l-2.29.053c-.276.005-.527.006-.778.005l-.905-.013c-2.515-.061-4.485-.494-6.324-1.724-1.1-.737-2.048-1.726-2.825-3.008a.6.6 0 0 0-.969-.08zm.434 1.448.197.27a10.324 10.324 0 0 0 2.495 2.367c1.964 1.314 4.024 1.81 6.559 1.914l.825.02.246.004c.261.003.516.004.786.001l1.06-.022c.292-.008.848-.024 1.04-.028 2-.042 3.41.085 5.439.584 1.116.276 1.986.54 3.117.93l1.317.465c1.539.54 2.624.85 4.118 1.133l.094.01a.6.6 0 0 0 .564-.849l-.862-1.895 5.906 2.763-5.716 3.367 1.03-2.334a.6.6 0 0 0-.737-.813c-1.404.461-2.633.489-4.114.176l-.321-.073c-.378-.09-.666-.168-1.267-.344l-.401-.118c-1.655-.49-2.506-.692-3.636-.801-1.96-.19-3.388-.125-5.025.149l-.92.168-.707.134c-1.97.357-3.386.301-5.842-.427-1.732-.514-3.615-1.673-4.69-2.976-1.001-1.213-1.256-2.426-.637-3.626z"/><path fill="#7e87bd" d="M71.386 39.012s11.983-2.383 16.123 9.882c-3.218-2.087-5.369 2.137-5.369 2.137s-.563-7.476-4.918-3.69c1.01-4.92-5.836-8.33-5.836-8.33z"/><path fill="#f8f4ff" d="M87.509 48.894c-3.218-2.087-5.369 2.137-5.369 2.137s.393-3.742 3.104-3.936c-3.037-6.17-9.16-7.966-13.858-8.083 1.55-.617 11.706-1.37 16.123 9.882z"/><path fill="#5e4a7f" fill-rule="nonzero" d="M76.981 38.529c-1.384-.268-4.221-.478-5.712-.106a.602.602 0 0 0-.15 1.126c5.836 3.318 5.755 6.501 5.515 7.672a.6.6 0 0 0 .982.574c1.689-1.47 2.595-1.144 3.29.525.195.466.548 1.657.636 2.756.048.606.857.768 1.133.227s1.105-1.697 2.083-2.16c.761-.36 1.548-.314 2.424.254a.6.6 0 0 0 .895-.695c-2.035-6.03-6.036-9.196-11.096-10.173zm9.472 9.265c-1.326-.336-2.921.367-3.954 1.662-.851-3.685-2.532-4.387-4.581-3.373-.049-1-.361-3.644-4.67-6.649 6.503-.259 11.135 3.313 13.205 8.36z"/><path fill="#7e87bd" d="M16.64 38.767S4.444 38.07 2.047 50.79c2.897-2.512 5.613 1.371 5.613 1.371s-.48-7.48 4.358-4.335c-1.683-4.733 4.624-9.06 4.624-9.06z"/><path fill="#f8f4ff" d="M2.046 50.79c2.897-2.512 5.613 1.371 5.613 1.371s-.908-3.65-3.62-3.466c2.152-6.531 7.965-9.16 12.602-9.928-1.62-.396-11.783.267-14.595 12.023z"/><path fill="#5e4a7f" fill-rule="nonzero" d="M11.033 39.065c1.334-.457 4.114-1.06 5.642-.897.564.06.772.734.305 1.093-5.32 4.096-4.798 7.238-4.397 8.364a.6.6 0 0 1-.893.704c-1.876-1.22-2.729-.772-3.185.976-.128.49-.313 1.718-.247 2.818.036.607-.743.88-1.09.382s-1.331-1.526-2.364-1.85c-.803-.25-1.576-.096-2.365.588a.6.6 0 0 1-.983-.564c1.179-6.255 4.702-9.944 9.577-11.614zm-8.095 10.49c1.267-.517 2.944-.042 4.146 1.097.332-3.767 1.9-4.696 4.07-3.976-.091-.998-.149-3.659 3.703-7.232-6.477.645-10.569 4.825-11.919 10.11z"/><path fill="#dcd5e9" d="M44.495 84.767c14.673 0 33 4.516 33-18.902 0-13.472-2.71-22.062-5.453-32.505-4.038-15.374-7.256-26.243-27.547-26.243S20.859 18.182 16.857 33.709c-2.668 10.352-5.362 19.79-5.362 32.156 0 23.418 18.327 18.902 33 18.902z"/><path fill="#f8f4ff" d="M44.495 7.117c20.29 0 23.509 10.869 27.547 26.243 2.743 10.443 5.453 19.033 5.453 32.505 0 7.67-1.966 12.343-5.125 15.16 2.568-2.883 4.125-7.335 4.125-14.16 0-13.472-2.71-22.062-5.453-32.505-4.038-15.374-7.256-26.243-27.547-26.243-8.725 0-14.317 2.046-18.175 5.613l.217-.232c3.876-4.04 9.624-6.381 18.958-6.381z"/><path fill="#5e4a7f" fill-rule="nonzero" d="M44.495 6.517c-9.778 0-16.135 2.52-20.39 7.692-3.199 3.887-4.902 8.23-7.397 17.694s-5.813 21.4-5.813 33.962c0 9.287 3.09 15.163 8.293 17.61 7.639 3.595 15.028 1.89 27.312 1.89 4.995 0 16.152 1.646 23.302-1.89 5.59-2.763 8.293-8.323 8.293-17.61 0-13.624-3.14-23.9-5.763-33.755-2.623-9.857-4.278-14.125-7.507-18.02-4.226-5.098-10.552-7.573-20.33-7.573zm0 1.2c9.445 0 15.429 2.341 19.406 7.14 3.082 3.716 4.696 7.884 7.275 17.576 2.58 9.691 5.719 20.163 5.719 33.432 0 8.866-2.682 14.127-7.632 16.539-6.61 3.22-15.325 1.79-22.768 1.79-12.096 0-20.147 1.467-26.768-1.79-4.77-2.347-7.632-7.673-7.632-16.539 0-12.562 3.315-24.33 5.768-33.636 2.453-9.305 4.114-13.545 7.168-17.257 4.008-4.872 10.022-7.255 19.464-7.255z"/><path fill="#f8f4ff" d="M73.105 49.212c1.04-2.34.945-5.306-6.372-8.096 0 0 11 2.605 6.372 8.096z"/><path fill="#5e4a7f" fill-rule="nonzero" d="M72.896 42.699c2.042 1.368 2.749 3.258 1.677 5.484-.931 1.934-2.24 2.535-3.894 1.9-1.859-.715-4.33-3.544-5.302-4.384-.25-.216-.256-.606-.03-.848a.609.609 0 0 1 .848-.03c.582.503 3.41 3.516 4.927 4.146 1 .415 1.701.083 2.37-1.304.79-1.642.316-2.909-1.264-3.967-1.36-.91-3.457-1.57-5.67-1.886a.6.6 0 0 1 .169-1.188c2.376.338 4.635 1.05 6.169 2.077z"/><path fill="#f8f4ff" d="M15.887 49.123c-1.61-1.99-2.287-4.88 4.057-9.468 0 0-9.95 5.364-4.057 9.468z"/><path fill="#5e4a7f" fill-rule="nonzero" d="M14.381 42.993c-1.618 1.85-1.81 3.858-.199 5.731 1.4 1.626 2.82 1.868 4.253.826 1.61-1.17 3.264-4.544 3.985-5.606.186-.274.09-.651-.19-.827a.609.609 0 0 0-.828.19c-.431.637-2.383 4.28-3.684 5.28-.858.66-1.622.521-2.626-.646-1.189-1.38-1.06-2.727.193-4.158 1.077-1.23 2.932-2.412 4.988-3.29a.6.6 0 1 0-.472-1.104c-2.207.943-4.204 2.215-5.42 3.604z"/><path fill="#d2e0f5" d="M60.542 2.117s3.1 5.368-1.22 9.778c-.507.518-2.445.922-3.691 0-1.247-.923-2.059-3.185-.935-4.57 4.332-2.363 5.846-5.208 5.846-5.208z"/><path fill="#f8f4ff" d="M60.542 2.117s3.1 5.368-1.22 9.778a1.245 1.245 0 0 1-.32.223c2.859-3.683 1.157-7.761.662-8.767.616-.743.878-1.234.878-1.234z"/><path fill="#5e4a7f" fill-rule="nonzero" d="M60.012 1.835c-1.741 2.846-5.016 4.643-5.603 4.963a.6.6 0 0 0-.179.148c-1.274 1.571-.598 4.216 1.044 5.431 1.322.979 3.62.814 4.477-.062a8.892 8.892 0 0 0 1.594-2.195c1.158-2.278 1.3-5.246-.284-8.303-.219-.423-.807-.377-1.049.018zm.426 1.508c1.748 4.876-.976 7.5-1.544 8.132-.278.31-2.04.681-3.04-.169-.998-.85-1.42-2.516-.781-3.482.747-.449 1.304-.8 1.672-1.052 1.371-.942 2.527-1.95 3.693-3.43z"/><path fill="#d2e0f5" d="M28.34 2.118s-3.1 5.368 1.22 9.778c.507.518 2.445.922 3.691 0 1.247-.923 2.059-3.185.935-4.57-4.332-2.363-5.846-5.208-5.846-5.208z"/><path fill="#f8f4ff" d="M28.34 2.118s-3.1 5.368 1.22 9.778c.076.078.185.154.32.223-2.859-3.683-1.157-7.761-.662-8.767-.616-.743-.878-1.234-.878-1.234z"/><path fill="#5e4a7f" fill-rule="nonzero" d="M28.87 1.836c1.741 2.846 5.016 4.643 5.603 4.963a.6.6 0 0 1 .179.148c1.274 1.571.598 4.216-1.044 5.431-1.322.979-3.62.814-4.477-.062a8.892 8.892 0 0 1-1.594-2.195c-1.158-2.278-1.3-5.246.284-8.303.219-.423.807-.377 1.049.018zm-.426 1.508c-1.748 4.876.976 7.5 1.544 8.132.278.31 2.04.681 3.04-.169.998-.85 1.42-2.516.781-3.482-.747-.449-1.304-.8-1.672-1.052-1.371-.942-2.527-1.95-3.693-3.43z"/><path fill="#78c9ff" d="M33 88.722V19.705c0-2.211-1.795-2.684-4-2.684-2.21 0-4 .476-4 2.684v69.017M62.965 87.57l.092-67.937c-.032-2.207-1.808-2.737-4.013-2.737-2.21 0-4.018.53-3.986 2.732l-.027 67.942"/><g fill-rule="nonzero"><path fill="#4ea7e0" d="M25.8 18v70.4a.6.6 0 0 1-1.2 0V18zM33.8 18v70.4a.6.6 0 0 1-1.2 0V18zM55.8 18v70.4a.6.6 0 0 1-1.2 0V18zM63.8 18v70.4a.6.6 0 0 1-1.2 0V18z"/><path fill="#5e4a7f" d="M33.14 18.69a.75.75 0 1 0 .73-1.31c-.266-.148-.731-.356-1.368-.56-2.513-.802-5.367-.802-8.307.532a.75.75 0 1 0 .62 1.366c2.569-1.166 5.048-1.166 7.23-.469.537.172.912.34 1.095.441zM63.14 18.69a.75.75 0 1 0 .73-1.31c-.266-.148-.731-.356-1.368-.56-2.513-.802-5.367-.802-8.307.532a.75.75 0 1 0 .62 1.366c2.569-1.166 5.048-1.166 7.23-.469.537.172.912.34 1.095.441zM69.961 18.266a.6.6 0 0 1-.845.078c-2.487-2.07-6.819-3.633-12.142-3.862a.6.6 0 1 1 .052-1.199c5.576.24 10.161 1.894 12.858 4.138a.6.6 0 0 1 .077.845zM18.539 18.266a.6.6 0 0 0 .845.078c2.487-2.07 6.819-3.633 12.142-3.862a.6.6 0 1 0-.052-1.199c-5.576.24-10.161 1.894-12.858 4.138a.6.6 0 0 0-.077.845z"/></g><path fill="#5b4d81" fill-rule="nonzero" d="m44 22.4-.204.005a4.033 4.033 0 0 0-3.825 4.02v2.864A4.03 4.03 0 0 0 44 33.314l.204-.005a4.033 4.033 0 0 0 3.825-4.02v-2.864A4.03 4.03 0 0 0 44 22.4z"/><path fill="#fff" d="M44 23.6a2.83 2.83 0 0 1 2.828 2.76c-.556.161-1.498.354-2.828.354-1.33 0-2.272-.193-2.828-.355v.066c0-1.5 1.18-2.74 2.673-2.82z" opacity=".926"/></g></svg>