<svg data-id="191-00ddea79fbdd13f-sleep" xmlns="http://www.w3.org/2000/svg" viewBox="0 0 100 100"><g fill="none" fill-rule="evenodd"><path fill="#dcd5e9" fill-rule="nonzero" d="M5.89 75.454c-.237 4.762 10.696.854 10.696.854l-.517-2.432s-9.822-5.594-10.18 1.578z"/><path fill="#f8f4ff" d="M5.89 75.454c.834-2.42 2.926-4.525 10.18-1.577 0 0-9.822-5.595-10.18 1.577z"/><path fill="#5e4a7f" fill-rule="nonzero" d="M10.29 70.928c-2.426-.392-4.232.509-4.965 2.868-.638 2.049-.09 3.38 1.553 4.044 1.846.745 5.583.36 6.866.408.331.013.6-.269.6-.6a.609.609 0 0 0-.6-.6c-.768-.029-4.89.247-6.43-.326-1.014-.378-1.3-1.1-.844-2.57.541-1.74 1.752-2.343 3.629-2.04 1.615.261 3.599 1.208 5.434 2.486a.6.6 0 0 0 .686-.984c-1.97-1.372-4.106-2.392-5.929-2.686z"/><path fill="#d2e0f5" d="M11.814 35.517s-3.285 5.254.875 9.811c.49.535 2.41 1.007 3.688.13s2.168-3.11 1.094-4.534c-4.244-2.512-5.657-5.407-5.657-5.407z"/><path fill="#f8f4ff" d="M11.814 35.517s-3.285 5.254.875 9.811c.074.08.18.16.313.234-2.727-3.78-.884-7.794-.354-8.782-.59-.763-.834-1.263-.834-1.263z"/><path fill="#5e4a7f" fill-rule="nonzero" d="M12.353 35.254c1.64 2.905 4.848 4.814 5.423 5.154a.6.6 0 0 1 .174.155c1.218 1.614.45 4.232-1.233 5.388-1.355.932-3.644.687-4.47-.219a8.889 8.889 0 0 1-1.516-2.248c-1.077-2.316-1.115-5.286.574-8.285.234-.414.82-.348 1.048.055zm-.479 1.491c-1.916 4.81.713 7.528 1.258 8.179.267.318 2.015.751 3.043-.062 1.027-.814 1.507-2.464.902-3.452a35.51 35.51 0 0 1-1.634-1.11c-1.336-.988-2.455-2.037-3.569-3.555z"/><path fill="#f8f4ff" d="M24.8 83.63c1.319 2.195 3.804 3.819 10.287-.575 0 0-8.444 7.518-10.287.576z"/><path fill="#5e4a7f" fill-rule="nonzero" d="M30.047 87.143c-2.292.888-4.246.383-5.456-1.773-1.05-1.872-.791-3.289.679-4.28 1.65-1.113 5.387-1.514 6.632-1.829.321-.08.643.138.712.462a.609.609 0 0 1-.462.712c-.745.189-4.837.777-6.223 1.658-.913.58-1.044 1.346-.29 2.69.89 1.589 2.2 1.928 3.974 1.24 1.525-.591 3.27-1.93 4.799-3.563a.6.6 0 0 1 .876.82c-1.641 1.753-3.52 3.195-5.241 3.863z"/><path fill="#dcd5e9" d="M89.768 62.505c0-15.99-1.6-35.019-25.017-35.019-13.473 0-20.597 5.023-31.04 7.766-15.375 4.037-26.593 9.005-26.593 25.253 0 19.29 11.236 22.285 26.592 24.638s18.704 1.775 31.04 1.03c20.018-1.209 25.018-7.677 25.018-23.668z"/><path fill="#f8f4ff" d="M64.75 27.486c23.418 0 25.018 19.028 25.018 35.02 0 .16 0 .318-.002.476l-.003-.41C89.653 46.904 87.465 29 64.751 29c-13.473 0-20.597 5.023-31.04 7.766-15.153 3.98-26.27 8.863-26.586 24.56a47.78 47.78 0 0 1-.007-.82c0-16.249 11.218-21.217 26.592-25.254 10.444-2.743 17.568-7.766 31.04-7.766z"/><path fill="#5e4a7f" fill-rule="nonzero" d="M64.75 26.886c-7.338 0-12.185 1.132-20.618 4.225-2.16 1.047-6.089 2.341-11.788 3.884-8.548 2.313-13.968 4.557-18.07 7.836-5.163 4.127-7.756 9.774-7.756 17.674 0 9.32 2.574 15.35 7.784 19.155 4.212 3.077 9.48 4.427 19.317 6.076 8.77 1.47 19.159 1.815 31.168 1.036 19.364-1.17 25.58-7.106 25.58-23.759 0-12.975-.894-18.404-3.788-24.279-3.8-7.715-10.796-11.848-21.828-11.848zm0 1.2c10.586 0 17.16 3.883 20.753 11.178 2.788 5.662 3.665 12.519 3.665 23.241 0 16.226-5.404 21.814-23.89 23.033-12.336.875-22.829.546-31.477-.988-9.622-1.707-14.785-2.932-18.792-5.859-4.873-3.56-7.291-9.225-7.291-18.186 0-7.543 2.433-12.842 7.305-16.737 3.944-3.152 9.24-5.343 17.646-7.618 5.604-1.517 9.346-2.74 11.224-3.672 8.72-3.23 13.504-4.392 20.858-4.392z"/><path fill="#d2e0f5" d="M35.564 35.08s4.306 4.456 1.184 9.779c-.367.625-2.148 1.487-3.58.893-1.433-.593-2.768-2.591-2.013-4.207 3.63-3.34 4.41-6.465 4.41-6.465z"/><path fill="#f8f4ff" d="M35.564 35.08s4.306 4.456 1.184 9.779a1.245 1.245 0 0 1-.257.294c1.882-4.264-.756-7.808-1.48-8.664.419-.87.553-1.41.553-1.41z"/><path fill="#5e4a7f" fill-rule="nonzero" d="M34.982 34.934c-1 3.182-3.742 5.717-4.234 6.17a.6.6 0 0 0-.137.187c-.856 1.833.44 4.234 2.327 5.016 1.52.629 3.707-.087 4.327-1.144a8.89 8.89 0 0 0 1.016-2.515c.571-2.49-.009-5.403-2.285-7.985-.315-.357-.875-.17-1.014.271zm.778 1.36c2.876 4.307.869 7.512.47 8.262-.194.367-1.814 1.154-2.988.572-1.175-.583-1.987-2.097-1.601-3.189a35.514 35.514 0 0 0 1.367-1.426c1.102-1.245 1.979-2.503 2.752-4.22z"/><path fill="#7e87bd" d="M45.47 35.69s8.753-8.525 18.905-.493c-3.835.002-3.34 4.716-3.34 4.716s-4.542-5.963-6.133-.416c-1.833-4.677-9.431-3.808-9.431-3.808z"/><path fill="#f8f4ff" d="M64.375 35.197c-3.835.002-3.34 4.716-3.34 4.716s-1.708-3.352.46-4.992c-5.907-3.52-12.02-1.692-16.024.768.963-1.36 9.071-7.524 18.904-.492z"/><path fill="#5e4a7f" fill-rule="nonzero" d="M49.9 32.237c-1.307.53-3.8 1.898-4.848 3.023a.602.602 0 0 0 .487 1.026c6.702-.397 8.368 2.317 8.804 3.43a.6.6 0 0 0 1.135-.053c.617-2.152 1.555-2.373 3.046-1.352.418.286 1.362 1.092 2.034 1.965.371.483 1.138.177 1.074-.426-.063-.603.004-2.025.572-2.946.442-.716 1.126-1.107 2.171-1.107a.6.6 0 0 0 .372-1.07c-4.992-3.95-10.071-4.426-14.847-2.49zm12.99 2.612c-1.294.44-2.25 1.9-2.41 3.547-2.721-2.626-4.513-2.3-5.68-.333-.586-.813-2.287-2.86-7.538-3.033 5.313-3.759 11.143-3.286 15.628-.18z"/><path fill="#7e87bd" d="m67 82.38.819 9.247 7.433-6.124-3.407.223c2.67-6.398 10.968-6.095 18.157-8.844 7.771-2.972 6.477-12.885 0-16.822l-.584 8.334c0 11.128-17.52 5.507-20.052 16.307z"/><path fill="#f8f4ff" d="m67 82.38.819 9.247c-.153-3.573-.083-5.775.21-6.605.307-.874 1.084.508 1.522 0 1.804-5.732 10.678-7.21 12.924-7.808 10.482-2.794 7.891-11.615 7.527-17.154l-.584 8.334c0 11.128-17.52 5.507-20.052 16.307z"/><path fill="#5e4a7f" fill-rule="nonzero" d="M66.401 82.337a.6.6 0 0 1 1.02-.386l1.64 1.611.008-.023c1.214-3.664 4-5.369 9.618-7.02l2.046-.587c6.105-1.798 7.899-3.859 8.285-7.997.257-2.758.385-5.397.385-7.917a.6.6 0 0 1 .91-.471c7.286 4.428 7.791 14.879-.097 17.895-.967.37-1.99.701-3.16 1.031l-4.976 1.28c-5.165 1.357-7.066 2.198-9.255 5.307l2.388-.156c.581-.038.87.691.42 1.062L68.2 92.09a.6.6 0 0 1-.98-.41zm1.34 1.61.575 6.492 5.117-4.216-1.55.102a.6.6 0 0 1-.592-.83c1.587-3.803 4.312-5.315 10.89-7.008l4.05-1.03c.9-.245 2.168-.657 3.804-1.234 6.184-2.574 6.109-10.656.457-15.298 0 2.761-.092 5.112-.276 7.052-.276 2.91-1.25 5.234-3.28 6.667-1.4.99-2.857 1.566-5.828 2.43l-2.435.702c-5.48 1.648-7.843 3.31-8.723 7.062a.6.6 0 0 1-1.004.291z"/><path fill="#dcd5e9" fill-rule="nonzero" d="M24.8 83.63c-1.224-4.61 10.286-3.062 10.286-3.062v2.486s-8.444 7.519-10.287.576z"/><path fill="#f8f4ff" d="M24.8 83.63c1.319 2.195 3.804 3.819 10.287-.575 0 0-8.444 7.518-10.287.576z"/><path fill="#5e4a7f" fill-rule="nonzero" d="M30.047 87.143c-2.292.888-4.246.383-5.456-1.773-1.05-1.872-.791-3.289.679-4.28 1.65-1.113 5.387-1.514 6.632-1.829.321-.08.643.138.712.462a.609.609 0 0 1-.462.712c-.745.189-4.837.777-6.223 1.658-.913.58-1.044 1.346-.29 2.69.89 1.589 2.2 1.928 3.974 1.24 1.525-.591 3.27-1.93 4.799-3.563a.6.6 0 0 1 .876.82c-1.641 1.753-3.52 3.195-5.241 3.863zM13.586 55.343a.75.75 0 1 1 1.096 1.026 4.842 4.842 0 0 1-.898.716c-1.672 1.07-3.716 1.321-5.951.17a.75.75 0 0 1 .686-1.334c1.717.884 3.204.701 4.456-.1.309-.198.518-.378.611-.478zM30.907 57.518a.75.75 0 0 1 .516 1.41c-.285.104-.777.236-1.439.338-2.607.401-5.427-.044-8.124-1.82a.75.75 0 1 1 .826-1.254c2.356 1.553 4.805 1.94 7.07 1.591.557-.085.954-.192 1.151-.265z"/><path fill="#52437a" d="M16.969 66.118c-1.306-.45-2.584-.18-2.854.604s.57 1.784 1.876 2.234 2.584.18 2.854-.604-.57-1.784-1.876-2.234z"/><g fill="#5c4d82" fill-rule="nonzero"><path d="m41.139 10.142-.455-.204-8.995-2.115a8.548 8.548 0 0 1-.49-.085c-.387-.104-.727.076-.93.427-.18.311-.208.668-.098 1.039.089.3.246.545.472.721l.446.243 6.56 1.365-11.958 7.374c-.238.705-.265 1.17-.08 1.395.25.305.656.548 1.22.73l9.692 2.533c.34.263.603.422.791.476.344.098.675.046.939-.17.232-.192.372-.48.443-.847.032-.17.03-.649-.008-1.435l-9.693-2.356 10.518-6.27c.437-.117.802-.226 1.095-.327.403-.139.729-.43.971-.85.373-.645.205-1.271-.44-1.644zM23.493 21.742l-.308-.135-6.124-1.32a5.533 5.533 0 0 1-.335-.052c-.263-.066-.5.069-.646.321a.956.956 0 0 0-.087.738c.055.21.157.381.309.502l.3.163 4.47.837-8.342 5.46c-.177.503-.205.833-.083.989.166.211.44.375.822.492l6.594 1.604c.228.18.406.287.533.321.234.063.462.02.647-.14.163-.14.265-.345.32-.608.026-.12.034-.46.024-1.015l-6.599-1.478 7.334-4.649c.302-.091.554-.176.758-.253.279-.106.507-.319.682-.621.268-.465.166-.905-.27-1.156zM30.178 27.927l-.216-.093-4.335-.842a3.723 3.723 0 0 1-.237-.03c-.186-.043-.358.062-.467.25a.742.742 0 0 0-.079.547.631.631 0 0 0 .21.363l.21.114 3.167.52-6.062 4.208c-.137.375-.164.619-.08.731.113.152.304.268.574.346l4.664 1.04c.158.127.283.202.373.225a.494.494 0 0 0 .464-.117c.12-.107.196-.261.241-.456.021-.09.034-.34.039-.75l-4.67-.946 5.326-3.588c.218-.074.4-.141.546-.203.2-.084.368-.246.5-.473.2-.348.137-.67-.168-.846z"/></g></g></svg>