<svg data-id="192-d87085cab89f528-bandage" xmlns="http://www.w3.org/2000/svg" viewBox="0 0 100 100"><g fill="none" fill-rule="evenodd" transform="translate(12 9)"><path fill="#d2e0f5" d="M22.34 1.118s-3.1 5.368 1.22 9.778c.507.518 2.445.922 3.691 0 1.247-.923 2.059-3.185.935-4.57-4.332-2.363-5.846-5.208-5.846-5.208z"/><path fill="#f8f4ff" d="M22.34 1.118s-3.1 5.368 1.22 9.778c.076.078.185.154.32.223-2.859-3.683-1.157-7.761-.662-8.767-.616-.743-.878-1.234-.878-1.234z"/><path fill="#5e4a7f" fill-rule="nonzero" d="M22.87.836c1.741 2.846 5.016 4.643 5.603 4.963a.6.6 0 0 1 .179.148c1.274 1.571.598 4.216-1.044 5.431-1.322.979-3.62.814-4.477-.062a8.892 8.892 0 0 1-1.594-2.195c-1.158-2.278-1.3-5.246.284-8.303.219-.423.807-.377 1.049.018zm-.426 1.508c-1.748 4.876.976 7.5 1.544 8.132.278.31 2.04.681 3.04-.169.998-.85 1.42-2.516.781-3.482-.747-.449-1.304-.8-1.672-1.052-1.371-.942-2.527-1.95-3.693-3.43z"/><path fill="#7e87bd" d="M59.395 41.587s8.598-8.68 18.892-.83c-3.834.07-3.254 4.775-3.254 4.775s-4.649-5.882-6.14-.306c-1.917-4.644-9.498-3.639-9.498-3.639z"/><path fill="#f8f4ff" d="M78.287 40.756c-3.834.072-3.254 4.776-3.254 4.776s-1.768-3.322.371-5c-5.97-3.413-12.05-1.477-16.01 1.055.94-1.378 8.937-7.686 18.893-.83z"/><path fill="#5e4a7f" fill-rule="nonzero" d="M63.762 38.056c-1.298.553-3.767 1.966-4.794 3.109a.602.602 0 0 0 .506 1.017c6.694-.516 8.408 2.168 8.864 3.273a.6.6 0 0 0 1.134-.074c.579-2.162 1.512-2.4 3.021-1.406.423.278 1.382 1.067 2.07 1.929.379.475 1.14.156 1.066-.446-.075-.602-.033-2.025.518-2.956.43-.724 1.107-1.126 2.151-1.146a.6.6 0 0 0 .353-1.077c-5.061-3.86-10.149-4.244-14.89-2.223zm13.035 2.38c-1.287.463-2.216 1.938-2.347 3.589-2.768-2.577-4.554-2.218-5.685-.232-.6-.802-2.338-2.818-7.591-2.897 5.245-3.854 11.083-3.485 15.623-.46z"/><path fill="#7e87bd" d="M59.001 42.353s11.049-5.216 18.037 5.68c-3.627-1.244-4.69 3.374-4.69 3.374s-2.358-7.116-5.666-2.387c-.213-5.019-7.68-6.667-7.68-6.667z"/><path fill="#f8f4ff" d="M77.038 48.033c-3.627-1.244-4.69 3.374-4.69 3.374s-.526-3.725 2.058-4.57c-4.443-5.25-10.818-5.51-15.405-4.484 1.354-.974 11.026-4.167 18.037 5.68z"/><path fill="#5e4a7f" fill-rule="nonzero" d="M64.313 40.528c-1.409.076-4.212.56-5.568 1.283-.5.266-.44.97.127 1.128 6.467 1.804 7.16 4.913 7.21 6.107a.6.6 0 0 0 1.092.318c1.283-1.834 2.241-1.738 3.32-.288.301.406.933 1.475 1.284 2.52.194.576 1.018.537 1.154-.054.137-.591.662-1.914 1.498-2.6.651-.534 1.426-.68 2.414-.342a.6.6 0 0 0 .7-.891c-3.437-5.358-8.086-7.459-13.231-7.18zm11.435 6.694c-1.368-.004-2.746 1.064-3.433 2.57-1.72-3.368-3.52-3.641-5.263-2.162-.29-.959-1.233-3.447-6.143-5.318 6.247-1.828 11.607.515 14.839 4.91z"/><path fill="#7e87bd" d="M50.255 75.6c3.851 4.393 8.823 3.52 11.024 3.161 2.898-.471 4.576-1.184 8.425-.927 3.81.255 5.225.958 8.827 1l-2.099-3.058 8.965 2.412-7.322 6.257 1.05-4.285c-3.593 1.924-6.317.328-10.026.62-6.303.497-6.25 2.897-12.411 2.194-3.48-.396-8.927-3.153-6.433-7.374z"/><path fill="#f8f4ff" d="M50.255 75.6c3.851 4.393 8.823 3.52 11.024 3.161l.674-.117c2.506-.462 4.21-1.046 7.75-.81 3.81.255 4.411.643 8.013.685l-1.284-2.743 8.965 2.412c-4.263-.597-6.69-.851-7.284-.763-1.586.236 1.463 1.627.624 1.65-5.188.137-8.641-.455-10.435-.314-6.303.497-7.95 1.48-11.608 1.262-2.888-.173-4.377-1.19-6.44-4.423z"/><path fill="#5e4a7f" fill-rule="nonzero" d="M49.742 75.295c-1.3 2.2-.783 4.275 1.103 5.883 1.478 1.26 3.758 2.162 5.778 2.392 2.593.296 4.158.117 6.057-.546l.53-.194c.316-.12.826-.315.977-.37 1.618-.601 2.968-.925 4.962-1.082l.404-.025c.795-.038 1.539.009 2.768.142l1.241.137c.337.034.575.053.863.07l.348.016c1.133.039 2.134-.07 3.117-.38l.362-.125-.757 3.09c-.138.565.53.977.973.598l7.322-6.257a.6.6 0 0 0-.234-1.036l-8.965-2.411-.094-.018a.6.6 0 0 0-.556.937l1.425 2.077-.181-.01a25.32 25.32 0 0 1-2.284-.263l-1.349-.223c-1.453-.241-2.47-.372-3.805-.461-2.029-.136-3.475-.036-5.304.301l-2.246.45c-.27.053-.517.098-.764.14l-.893.145c-2.487.377-4.502.294-6.527-.598-1.21-.533-2.315-1.342-3.304-2.47a.6.6 0 0 0-.967.09zm.679 1.35.24.23c.882.817 1.84 1.445 2.869 1.897 2.162.953 4.275 1.083 6.79.744l.816-.123.242-.04c.258-.042.509-.085.774-.135l1.04-.206c.286-.06.83-.171 1.02-.209 1.96-.389 3.371-.51 5.455-.37 1.147.077 2.049.185 3.23.374l1.379.228c1.608.264 2.73.38 4.25.398l.095-.006a.6.6 0 0 0 .407-.933l-1.178-1.716 6.295 1.693-5.042 4.309.608-2.477a.6.6 0 0 0-.866-.672c-1.303.698-2.508.939-4.02.888l-.33-.015a22.89 22.89 0 0 1-1.306-.12l-.416-.046c-1.714-.193-2.587-.245-3.718-.156-1.962.155-3.358.466-4.922 1.02l-.876.327c-.272.103-.564.214-.673.254-1.877.694-3.281.885-5.825.595-1.795-.204-3.85-1.018-5.135-2.113-1.197-1.021-1.659-2.17-1.258-3.46z"/><path fill="#dcd5e9" fill-rule="nonzero" d="M31.495 84.768c14.673 0 35 4.515 35-18.902 0-13.473-4.71-22.062-7.453-32.506-4.038-15.374-5.256-26.243-25.547-26.243S9.86 18.182 5.857 33.71C3.19 44.062.31 53.708 1.495 65.866c2.297 23.563 15.327 18.902 30 18.902z"/><path fill="#f8f4ff" d="M33.495 7.117c20.29 0 21.51 10.87 25.547 26.243 2.743 10.444 7.453 19.033 7.453 32.506 0 7.32-1.986 11.91-5.164 14.762 2.589-2.889 4.164-7.243 4.164-13.762 0-13.473-4.71-22.062-7.453-32.506-4.038-15.374-5.256-26.243-25.547-26.243-8.721 0-14.312 2.045-18.17 5.609 3.876-4.18 9.663-6.609 19.17-6.609z"/><path fill="#5e4a7f" fill-rule="nonzero" d="M33.495 6.517c-9.777 0-16.135 2.52-20.39 7.693-3.32 4.033-5.029 8.558-7.683 18.786l-1.623 6.265-.265 1.047C.97 50.547.087 57.603.898 65.924l.108 1.02c1.034 9.035 3.77 14.266 8.369 16.789l.406.216c3.45 1.777 6.84 2.005 15.134 1.628l2.757-.123a91.16 91.16 0 0 1 3.565-.086l1.397.007c1.014.013 2.101.046 3.812.112l4.32.163.828.025c8.118.218 13.251-.404 17.413-2.682 5.312-2.908 8.088-8.387 8.088-17.127 0-7.845-1.158-13.057-4.502-23.127l-1.109-3.337c-.717-2.185-1.194-3.738-1.632-5.339l-.311-1.168c-.37-1.42-1.223-4.766-1.385-5.388l-.267-1.013c-1.943-7.262-3.567-11.044-6.49-14.128-3.736-3.943-9.333-5.849-17.904-5.849zm0 1.2c8.268 0 13.55 1.799 17.033 5.474 2.745 2.896 4.308 6.537 6.2 13.609l1.734 6.712.31 1.153c.529 1.903 1.126 3.786 2.121 6.77l.768 2.307c3.147 9.548 4.234 14.602 4.234 22.124 0 8.328-2.566 13.393-7.465 16.074-3.733 2.044-8.415 2.688-15.693 2.56l-1.728-.043-5.969-.222a113.45 113.45 0 0 0-2.393-.06l-1.152-.007c-1.58 0-2.934.04-5.31.149l-2.24.101c-7.702.32-10.788.021-13.993-1.737C5.586 80.286 3 75.114 2.092 65.808c-.774-7.945.027-14.726 2.41-24.416l.46-1.835 1.9-7.327c2.454-9.305 4.115-13.546 7.17-17.258 4.007-4.871 10.02-7.255 19.463-7.255z"/><path fill="#f8f4ff" d="M32.4 55.74c2.389-.918 4.42-3.083 1.22-10.229 0 0 5.935 9.62-1.22 10.228z"/><path fill="#5e4a7f" fill-rule="nonzero" d="M36.859 50.987c.476 2.411-.36 4.247-2.693 5.063-2.025.709-3.375.208-4.095-1.411-.81-1.819-.555-5.567-.649-6.848-.024-.33.248-.609.579-.62a.609.609 0 0 1 .62.578c.056.767-.075 4.897.552 6.415.412 1 1.143 1.262 2.597.753 1.72-.601 2.28-1.832 1.912-3.697-.317-1.605-1.333-3.555-2.675-5.343a.6.6 0 0 1 .96-.72c1.44 1.92 2.534 4.02 2.892 5.83z"/><path fill="#f8f4ff" d="M10.827 53.805c-2.172-1.357-3.754-3.87.752-10.28 0 0-7.664 8.319-.752 10.28z"/><path fill="#5e4a7f" fill-rule="nonzero" d="M7.404 48.497c-.927 2.278-.455 4.24 1.68 5.487 1.854 1.082 3.276.848 4.292-.605 1.142-1.633 1.607-5.363 1.943-6.603.086-.32-.127-.645-.45-.72a.609.609 0 0 0-.72.45c-.201.743-.86 4.825-1.765 6.196-.596.904-1.364 1.021-2.695.245-1.574-.919-1.89-2.235-1.173-3.997.618-1.515 1.988-3.237 3.647-4.738a.6.6 0 0 0-.806-.89c-1.78 1.61-3.256 3.465-3.953 5.175z"/><path fill="#d2e0f5" d="M49.542 2.117s3.1 5.368-1.22 9.778c-.507.518-2.445.922-3.691 0-1.247-.923-2.059-3.185-.935-4.57 4.332-2.363 5.846-5.208 5.846-5.208z"/><path fill="#f8f4ff" d="M49.542 2.117s3.1 5.368-1.22 9.778a1.245 1.245 0 0 1-.32.223c2.859-3.683 1.157-7.761.662-8.767.616-.743.878-1.234.878-1.234z"/><path fill="#5e4a7f" fill-rule="nonzero" d="M49.012 1.835c-1.741 2.846-5.016 4.643-5.603 4.963a.6.6 0 0 0-.179.148c-1.274 1.571-.598 4.216 1.044 5.431 1.322.979 3.62.814 4.477-.062a8.892 8.892 0 0 0 1.594-2.195c1.158-2.278 1.3-5.246-.284-8.303-.219-.423-.807-.377-1.049.018zm.426 1.508c1.748 4.876-.976 7.5-1.544 8.132-.278.31-2.04.681-3.04-.169-.998-.85-1.42-2.516-.781-3.482.747-.449 1.304-.8 1.672-1.052 1.371-.942 2.527-1.95 3.693-3.43z"/><path fill="#5b4d81" fill-rule="nonzero" d="M27.302 35.52a.6.6 0 1 0 .406-1.129c-.434-.156-.88-.295-1.336-.417-2.878-.77-5.921-.84-8.732-.496-.621.085-1.04.15-1.257.194a.6.6 0 0 0 .244 1.175 16.83 16.83 0 0 1 1.159-.178c2.67-.326 5.569-.26 8.276.464.424.113.837.242 1.24.387zM25.711 19.357a.6.6 0 0 1 .815.237c1.165 2.12 5.901 4.302 10.03 4.691a.6.6 0 0 1-.112 1.195c-4.484-.423-9.573-2.766-10.97-5.308a.6.6 0 0 1 .237-.815z"/><circle cx="14.005" cy="27.383" r="2.5" fill="#52437a"/><circle cx="31.005" cy="28.383" r="2.5" fill="#52437a"/><path fill="#fff" d="M53.608 16.14c-11.511-3.968-32.84-2.963-41.882-.775-4.4 3.47-3.388 8.984-3.388 8.984 12.07-1.733 35.68-5.263 48.57 1.534 0-2.4-2.133-8.175-3.3-9.742z"/><path fill="#5e4a7f" fill-rule="nonzero" d="M53.72 15.573c2.404 2.635 3.845 9.37 3.705 10.31-.068.45-.48.741-.88.53-5.525-2.913-13.428-4.104-23.306-3.919-9.877.185-23.915 2.308-24.899 2.449a.6.6 0 0 1-.675-.486c-.386-5.473 2.425-8.63 3.607-9.563.068-.054 16.84-5.83 42.449.68zm-41.805.344c-2.09 1.773-3.134 4.357-3.134 7.75 9.217-1.284 18.605-2.263 24.436-2.373s17.401.444 22.907 3.57c-.652-3.199-1.848-6.401-2.852-8.025-11.23-3.595-25.017-3.902-41.357-.922z"/><path fill="#fff" d="M20.65 9.658c-7.17.596-9.966 6.426-9.966 6.426 13.628 2.544 28.5 3.552 49.081 19.744 0 0 0-6.638-3.092-10.598-11.168-7.16-17.54-13.074-36.023-15.572z"/><path fill="#5e4a7f" fill-rule="nonzero" d="M20.73 9.063c11.516 1.557 18.548 4.238 27.015 9.588l9.4 6.21c1.923 2.742 2.996 6.397 3.221 10.964a.6.6 0 0 1-.971.475c-8.568-6.741-20.886-12.802-25.8-14.507s-8.72-2.584-16.384-3.946l-4.94-.865c-.61-.108-1.15-.207-1.696-.308a.6.6 0 0 1-.431-.85c.814-1.471 1.713-2.612 2.697-3.422 2.203-1.813 4.594-3.103 7.89-3.339zm-.092 1.198c-3.641.294-5.123 1.335-6.99 3.03-.496.45-1.168 1.235-2.014 2.356l5.801 1.02c8.256 1.469 12.084 2.384 17.61 4.366 5.528 1.981 17.363 7.574 24.059 13.519-.46-4.16-1.408-7.12-2.845-8.876l-8.64-5.683c-8.387-5.37-17.682-8.874-26.981-9.732z"/></g></svg>