<svg data-id="200-9bde1edec654dc3-sticker" xmlns="http://www.w3.org/2000/svg" viewBox="0 0 100 100"><g fill="none" fill-rule="evenodd"><path fill="#7e87bd" d="M78.386 42.012s11.983-2.383 16.123 9.882c-3.218-2.087-5.369 2.137-5.369 2.137s-.563-7.476-4.918-3.69c1.01-4.92-5.836-8.33-5.836-8.33z"/><path fill="#f8f4ff" d="M94.509 51.894c-3.218-2.087-5.369 2.137-5.369 2.137s.393-3.742 3.105-3.936c-3.038-6.17-9.16-7.966-13.859-8.083 1.55-.617 11.707-1.37 16.123 9.882z"/><path fill="#5e4a7f" fill-rule="nonzero" d="M83.981 41.529c-1.384-.268-4.221-.478-5.712-.106a.602.602 0 0 0-.15 1.126c5.836 3.317 5.756 6.501 5.515 7.672a.6.6 0 0 0 .982.573c1.689-1.468 2.595-1.143 3.29.525.195.467.548 1.658.636 2.757.048.606.857.767 1.133.227s1.105-1.697 2.083-2.16c.761-.36 1.548-.314 2.424.254a.6.6 0 0 0 .895-.695c-2.035-6.03-6.036-9.196-11.096-10.173zm9.472 9.265c-1.326-.336-2.921.367-3.954 1.661-.85-3.684-2.532-4.386-4.581-3.372-.048-1-.361-3.644-4.67-6.649 6.503-.259 11.135 3.313 13.205 8.36z"/><path fill="#7e87bd" d="M23.641 41.767S11.443 41.07 9.046 53.79c2.897-2.513 5.613 1.371 5.613 1.371s-.48-7.48 4.359-4.335c-1.683-4.734 4.623-9.06 4.623-9.06z"/><path fill="#f8f4ff" d="M9.046 53.79c2.897-2.513 5.613 1.371 5.613 1.371s-.908-3.65-3.62-3.466c2.152-6.531 7.965-9.16 12.602-9.928-1.62-.396-11.783.267-14.595 12.023z"/><path fill="#5e4a7f" fill-rule="nonzero" d="M18.033 42.064c1.334-.457 4.115-1.058 5.642-.896.564.06.772.734.305 1.093-5.32 4.096-4.797 7.237-4.397 8.364a.6.6 0 0 1-.892.704c-1.877-1.22-2.73-.772-3.186.976-.128.49-.313 1.718-.247 2.818.036.607-.743.88-1.09.382-.348-.497-1.331-1.527-2.363-1.85-.804-.25-1.577-.096-2.366.588a.6.6 0 0 1-.983-.564c1.18-6.255 4.702-9.944 9.577-11.615zm-8.095 10.49c1.267-.516 2.945-.041 4.147 1.097.332-3.766 1.899-4.695 4.069-3.975-.091-.998-.148-3.659 3.703-7.233-6.477.646-10.569 4.826-11.919 10.112z"/><path fill="#dcd5e9" fill-rule="nonzero" d="M51.495 87.767c14.673 0 33 4.516 33-18.902 0-13.472-2.71-22.062-5.453-32.505-4.038-15.374-7.256-26.243-27.547-26.243S27.859 21.182 23.857 36.709c-2.668 10.352-5.362 19.79-5.362 32.156 0 23.418 18.327 18.902 33 18.902z"/><path fill="#fff" d="M51.495 10.117c20.29 0 23.509 10.869 27.547 26.243 2.743 10.443 5.453 19.033 5.453 32.505 0 7.67-1.966 12.343-5.125 15.16 2.568-2.883 4.125-7.335 4.125-14.16 0-13.472-2.71-22.062-5.453-32.505-4.038-15.374-7.256-26.243-27.547-26.243-8.725 0-14.317 2.046-18.175 5.613l.217-.232c3.876-4.04 9.624-6.381 18.958-6.381z"/><path fill="#5e4a7f" fill-rule="nonzero" d="M51.495 9.517c-9.778 0-16.135 2.52-20.39 7.692-3.199 3.887-4.902 8.23-7.397 17.694s-5.813 21.4-5.813 33.962c0 9.287 3.09 15.163 8.293 17.61 7.639 3.595 15.028 1.89 27.312 1.89 4.995 0 16.152 1.646 23.302-1.89 5.59-2.763 8.293-8.323 8.293-17.61 0-13.624-3.14-23.9-5.763-33.755-2.623-9.857-4.278-14.125-7.507-18.02-4.226-5.098-10.552-7.573-20.33-7.573zm0 1.2c9.445 0 15.429 2.341 19.406 7.14 3.082 3.716 4.696 7.884 7.275 17.576 2.58 9.691 5.719 20.163 5.719 33.432 0 8.866-2.682 14.127-7.632 16.539-6.61 3.22-15.325 1.79-22.768 1.79-12.096 0-20.147 1.467-26.768-1.79-4.77-2.347-7.632-7.673-7.632-16.539 0-12.562 3.315-24.33 5.768-33.636 2.453-9.305 4.114-13.545 7.168-17.257 4.008-4.872 10.022-7.255 19.464-7.255z"/><path fill="#f8f4ff" d="M80.103 52.211c1.04-2.338.946-5.305-6.37-8.095 0 0 11 2.605 6.37 8.095z"/><path fill="#5e4a7f" fill-rule="nonzero" d="M79.896 45.698c2.042 1.368 2.749 3.258 1.676 5.485-.93 1.933-2.24 2.534-3.894 1.899-1.858-.714-4.33-3.544-5.301-4.383-.25-.217-.256-.606-.03-.848a.609.609 0 0 1 .848-.03c.582.502 3.41 3.515 4.927 4.146.999.415 1.7.083 2.369-1.305.79-1.641.317-2.908-1.263-3.966-1.36-.91-3.457-1.571-5.671-1.887a.6.6 0 0 1 .17-1.188c2.376.34 4.634 1.05 6.169 2.077z"/><path fill="#f8f4ff" d="M22.887 52.123c-1.61-1.99-2.287-4.88 4.057-9.468 0 0-9.95 5.364-4.057 9.468z"/><path fill="#5e4a7f" fill-rule="nonzero" d="M21.381 45.993c-1.618 1.85-1.81 3.858-.199 5.731 1.4 1.626 2.82 1.868 4.253.826 1.61-1.17 3.264-4.544 3.985-5.606.186-.274.09-.651-.19-.827a.609.609 0 0 0-.828.19c-.431.637-2.383 4.28-3.684 5.28-.858.66-1.622.521-2.626-.646-1.189-1.38-1.06-2.727.193-4.158 1.077-1.23 2.932-2.412 4.988-3.29a.6.6 0 1 0-.472-1.104c-2.207.943-4.204 2.215-5.42 3.604z"/><path fill="#d2e0f5" d="M67.542 5.117s3.1 5.368-1.22 9.778c-.507.518-2.445.922-3.691 0-1.247-.923-2.059-3.185-.935-4.57 4.332-2.363 5.846-5.208 5.846-5.208z"/><path fill="#f8f4ff" d="M67.542 5.117s3.1 5.368-1.22 9.778a1.245 1.245 0 0 1-.32.223c2.859-3.683 1.157-7.761.662-8.767.616-.743.878-1.234.878-1.234z"/><path fill="#5e4a7f" fill-rule="nonzero" d="M67.012 4.835c-1.741 2.846-5.016 4.643-5.603 4.963a.6.6 0 0 0-.179.148c-1.274 1.571-.598 4.216 1.044 5.431 1.322.979 3.62.814 4.477-.062a8.892 8.892 0 0 0 1.594-2.195c1.158-2.278 1.3-5.246-.284-8.303-.219-.423-.807-.377-1.049.018zm.426 1.508c1.748 4.876-.976 7.5-1.544 8.132-.278.31-2.04.681-3.04-.169-.998-.85-1.42-2.516-.781-3.482.747-.449 1.304-.8 1.672-1.052 1.371-.942 2.527-1.95 3.693-3.43z"/><path fill="#d2e0f5" d="M35.34 5.118s-3.1 5.368 1.22 9.778c.507.518 2.445.922 3.691 0 1.247-.923 2.059-3.185.935-4.57-4.332-2.363-5.846-5.208-5.846-5.208z"/><path fill="#f8f4ff" d="M35.34 5.118s-3.1 5.368 1.22 9.778c.076.078.185.154.32.223-2.859-3.683-1.157-7.761-.662-8.767-.616-.743-.878-1.234-.878-1.234z"/><path fill="#5e4a7f" fill-rule="nonzero" d="M35.87 4.836c1.741 2.846 5.016 4.643 5.603 4.963a.6.6 0 0 1 .179.148c1.274 1.571.598 4.216-1.044 5.431-1.322.979-3.62.814-4.477-.062a8.892 8.892 0 0 1-1.594-2.195c-1.158-2.278-1.3-5.246.284-8.303.219-.423.807-.377 1.049.018zm-.426 1.508c-1.748 4.876.976 7.5 1.544 8.132.278.31 2.04.681 3.04-.169.998-.85 1.42-2.516.781-3.482-.747-.449-1.304-.8-1.672-1.052-1.371-.942-2.527-1.95-3.693-3.43z"/><path fill="#7e87bd" d="M83.895 75.745c-2.398 5.324-7.407 5.94-9.615 6.24-2.909.396-4.72.205-8.325 1.575-3.568 1.355-4.716 2.44-8.147 3.532l1.113-3.535-7.866 4.923 8.827 3.844-2.255-3.79c3.997.79 6.135-1.531 9.766-2.335 6.17-1.366 6.82.945 12.506-1.526 3.21-1.396 7.614-5.622 3.996-8.928z"/><path fill="#f8f4ff" d="M83.896 75.744c-2.4 5.325-7.408 5.941-9.616 6.242l-.679.084c-2.531.29-4.33.23-7.646 1.49-3.568 1.355-4.03 1.902-7.46 2.994l.426-2.997-7.866 4.923c3.901-1.815 6.148-2.767 6.741-2.856 1.585-.237-.923 1.982-.115 1.759 5-1.384 8.129-2.958 9.885-3.347 6.17-1.365 8.032-.906 11.465-2.183 2.71-1.009 3.837-2.415 4.865-6.109z"/><path fill="#5e4a7f" fill-rule="nonzero" d="M84.297 75.303c1.886 1.724 1.996 3.858.663 5.946-1.045 1.637-2.96 3.164-4.825 3.975-2.393 1.04-3.941 1.326-5.95 1.246l-.564-.03-1.042-.07c-1.722-.102-3.106-.017-5.059.416l-.394.093c-.77.196-1.468.458-2.604.945l-1.147.492c-.312.131-.534.219-.805.32l-.327.116c-1.072.368-2.06.557-3.091.547l-.383-.014 1.626 2.733c.298.5-.221 1.09-.755.857l-8.827-3.844a.6.6 0 0 1-.079-1.059L58.6 83.05l.085-.044a.6.6 0 0 1 .805.733l-.756 2.401.17-.061a25.31 25.31 0 0 0 2.107-.92l1.225-.606c1.319-.655 2.252-1.077 3.503-1.552 1.9-.722 3.311-1.05 5.158-1.26l2.279-.226c.273-.029.523-.057.771-.09l.896-.122c2.488-.365 4.39-1.033 6.065-2.477 1.002-.863 1.822-1.96 2.437-3.326a.6.6 0 0 1 .952-.196zm-.255 1.489-.163.29a10.317 10.317 0 0 1-2.188 2.652c-1.789 1.541-3.771 2.283-6.274 2.693l-.816.12-.243.034a32.89 32.89 0 0 1-.78.096l-1.055.107-1.035.098c-1.988.2-3.372.497-5.323 1.239a32.92 32.92 0 0 0-2.98 1.3l-1.25.621c-1.46.722-2.5 1.162-3.948 1.623l-.092.021a.6.6 0 0 1-.662-.773l.625-1.985-5.523 3.457 6.078 2.647-1.304-2.19a.6.6 0 0 1 .632-.896c1.448.287 2.67.165 4.102-.325l.31-.11c.364-.135.64-.248 1.215-.495l.384-.166c1.582-.686 2.401-.99 3.509-1.236 1.92-.425 3.346-.534 5.002-.461l.934.056c.29.02.601.04.718.047 1.996.115 3.394-.112 5.742-1.132 1.656-.72 3.384-2.098 4.292-3.52.846-1.326.952-2.56.192-3.674zM58.505 27a.75.75 0 0 1 .102 1.493l-15.102.007a.75.75 0 0 1-.102-1.493zm-16-6a.75.75 0 0 1 .102 1.493l-6.102.007a.75.75 0 0 1-.102-1.493zm24 0a.75.75 0 0 1 .102 1.493l-6.102.007a.75.75 0 0 1-.102-1.493z"/></g></svg>