<svg data-id="201-2a829d38ac4767f-smile" xmlns="http://www.w3.org/2000/svg" viewBox="0 0 100 100"><g fill="none" fill-rule="evenodd"><path fill="#7e87bd" d="m8.24 73.7-2.573-2.805.359 9.978 8.328-6.16-4.312.059c1.476-4.125 4.148-6.879 5.965-5.393 2.324 1.902 1.533 12.812 2.045 15.42l.07.317c.686 2.873 3.18 6.284 9.438 5.917l.2-.014c2.027-.167 7.292-1.293 6.687-7.199-3.474 2.392-9.957 3.108-11.726.463-2.889-4.32-2.675-15.116-4.669-17.262-4.49-4.833-9.143.325-9.811 6.68z"/><path fill="#f8f4ff" d="m8.24 73.7-2.573-2.805.359 9.978c.174-3.567.345-6.101.513-7.602.06-.534 1.652 1.247 1.788.85l.143-.42c.537-1.501 3.196-9.402 7.55-7.098 4.09 2.163 1.387 11.486 6.701 17.68-2.889-4.32-2.675-15.116-4.669-17.262-4.49-4.833-9.143.325-9.811 6.68z"/><path fill="#5e4a7f" fill-rule="nonzero" d="M18.492 66.613c.782.842 1.209 2.363 1.76 5.676l.556 3.471.083.5c.645 3.793 1.317 6.177 2.329 7.69 1.44 2.153 7.415 1.767 10.886-.624a.6.6 0 0 1 .938.433c.54 5.281-3.027 7.614-7.449 7.873-5.754.338-9.172-2.4-10.081-6.476l-.05-.241c-.134-.677-.182-1.6-.232-3.835l-.062-2.67a87.707 87.707 0 0 0-.042-1.157l-.037-.76c-.2-3.705-.665-5.996-1.464-6.65l-.088-.065c-1.164-.788-3.134.943-4.524 4.16l-.093.221 3.424-.045c.583-.008.834.736.365 1.082l-8.329 6.16a.6.6 0 0 1-.956-.461l-.358-9.979.003-.095a.6.6 0 0 1 1.038-.332l1.724 1.878.023-.13c.547-2.754 1.81-5.172 3.477-6.536 2.216-1.813 4.847-1.577 7.159.912zm-6.399.017C10.417 68 9.156 70.736 8.838 73.763l-.017.093a.6.6 0 0 1-1.022.25L6.326 72.5l.259 7.213 5.916-4.375-2.45.033a.6.6 0 0 1-.574-.802c1.66-4.64 4.674-7.482 6.91-5.654 1.175.961 1.683 3.381 1.901 7.474l.051 1.115c.016.39.027.739.04 1.185l.08 3.416c.04 1.409.089 2.105.182 2.579.714 3.635 3.634 6.058 8.884 5.75l.233-.016c3.408-.264 6.058-1.912 6.136-5.507v-.046l-.045.026c-3.997 2.19-9.863 2.362-11.627-.275-1.05-1.57-1.73-3.818-2.358-7.268l-.198-1.137-.593-3.694c-.505-3.029-.907-4.492-1.46-5.087-1.888-2.033-3.803-2.205-5.52-.8z"/><path fill="#7e87bd" d="M33.606 49.587s-8.6-8.68-18.893-.831c3.834.071 3.254 4.775 3.254 4.775s4.65-5.88 6.14-.305c1.917-4.644 9.499-3.64 9.499-3.64z"/><path fill="#f8f4ff" d="M14.713 48.756c3.834.071 3.254 4.775 3.254 4.775s1.768-3.32-.37-4.999c5.97-3.413 12.049-1.477 16.009 1.055-.94-1.378-8.936-7.686-18.893-.831z"/><path fill="#5e4a7f" fill-rule="nonzero" d="M29.238 46.056c1.298.553 3.767 1.966 4.794 3.109a.602.602 0 0 1-.505 1.017c-6.694-.516-8.409 2.168-8.865 3.273a.6.6 0 0 1-1.134-.074c-.578-2.163-1.512-2.4-3.021-1.406-.423.278-1.381 1.067-2.07 1.928-.379.476-1.14.157-1.065-.445s.033-2.025-.519-2.956c-.429-.724-1.107-1.127-2.151-1.146a.6.6 0 0 1-.353-1.077c5.062-3.86 10.149-4.244 14.89-2.223zm-13.035 2.38c1.287.463 2.216 1.938 2.348 3.589 2.767-2.578 4.553-2.219 5.684-.232.6-.802 2.338-2.818 7.592-2.897-5.246-3.854-11.084-3.486-15.624-.46z"/><path fill="#7e87bd" d="M34 50.353s-11.049-5.216-18.038 5.68c3.628-1.244 4.691 3.374 4.691 3.374s2.358-7.116 5.666-2.387c.213-5.019 7.68-6.667 7.68-6.667z"/><path fill="#f8f4ff" d="M15.962 56.033c3.628-1.244 4.691 3.374 4.691 3.374s.526-3.725-2.058-4.57c4.443-5.25 10.818-5.51 15.404-4.484-1.353-.973-11.025-4.167-18.037 5.68z"/><path fill="#5e4a7f" fill-rule="nonzero" d="M28.688 48.528c1.408.076 4.212.56 5.568 1.283.5.266.44.97-.127 1.128-6.467 1.804-7.16 4.913-7.21 6.107a.6.6 0 0 1-1.092.318c-1.283-1.834-2.241-1.738-3.32-.288-.301.406-.933 1.475-1.284 2.52-.194.577-1.018.537-1.155-.054s-.661-1.914-1.497-2.6c-.651-.534-1.426-.68-2.414-.342a.6.6 0 0 1-.7-.891c3.437-5.357 8.086-7.459 13.231-7.18zm-11.435 6.694c1.368-.004 2.745 1.064 3.433 2.57 1.72-3.368 3.52-3.641 5.263-2.161.29-.96 1.233-3.448 6.143-5.319-6.247-1.828-11.607.515-14.84 4.91z"/><path fill="#d2e0f5" d="M73.66 10.118s3.1 5.368-1.22 9.778c-.507.518-2.445.922-3.691 0-1.247-.923-2.059-3.185-.935-4.57 4.332-2.363 5.846-5.208 5.846-5.208z"/><path fill="#f8f4ff" d="M73.66 10.118s3.1 5.368-1.22 9.778a1.245 1.245 0 0 1-.32.223c2.859-3.683 1.157-7.761.662-8.767.616-.743.878-1.234.878-1.234z"/><path fill="#5e4a7f" fill-rule="nonzero" d="M73.13 9.836c-1.741 2.846-5.016 4.643-5.603 4.963a.6.6 0 0 0-.179.148c-1.274 1.571-.598 4.216 1.044 5.431 1.322.979 3.62.814 4.477-.062a8.892 8.892 0 0 0 1.594-2.195c1.158-2.278 1.3-5.246-.284-8.303-.219-.423-.807-.377-1.049.018zm.426 1.508c1.748 4.876-.976 7.5-1.544 8.132-.278.31-2.04.681-3.04-.169-.998-.85-1.42-2.516-.781-3.482.747-.449 1.304-.8 1.672-1.052 1.371-.942 2.527-1.95 3.693-3.43z"/><path fill="#dcd5e9" fill-rule="nonzero" d="M60.505 93.768c-14.673 0-35 4.515-35-18.902 0-13.473 4.71-22.062 7.453-32.506 4.038-15.374 5.256-26.243 25.547-26.243S82.14 27.182 86.143 42.71c2.667 10.352 5.547 19.998 4.362 32.156-2.297 23.563-15.327 18.902-30 18.902z"/><path fill="#f8f4ff" d="M58.505 16.117c-20.29 0-21.51 10.87-25.547 26.243-2.743 10.444-7.453 19.033-7.453 32.506 0 7.32 1.986 11.91 5.164 14.762-2.589-2.889-4.164-7.243-4.164-13.762 0-13.473 4.71-22.062 7.453-32.506 4.038-15.374 5.256-26.243 25.547-26.243 8.721 0 14.312 2.045 18.17 5.609-3.876-4.18-9.663-6.609-19.17-6.609z"/><path fill="#5e4a7f" fill-rule="nonzero" d="M58.505 15.517c9.777 0 16.135 2.52 20.39 7.693 3.32 4.033 5.029 8.558 7.683 18.786l1.623 6.265.265 1.047c2.565 10.239 3.447 17.295 2.636 25.616l-.108 1.02c-1.034 9.035-3.77 14.266-8.369 16.789l-.406.216c-3.45 1.777-6.84 2.005-15.134 1.628l-2.757-.123a91.16 91.16 0 0 0-3.565-.086l-1.397.007c-1.014.013-2.101.046-3.812.112l-4.32.163-.828.025c-8.118.218-13.251-.404-17.413-2.682-5.312-2.908-8.088-8.387-8.088-17.127 0-7.845 1.158-13.057 4.502-23.127l1.109-3.337c.717-2.185 1.194-3.738 1.632-5.339l.311-1.168c.37-1.42 1.223-4.766 1.385-5.388l.267-1.013c1.943-7.262 3.567-11.044 6.49-14.128 3.736-3.943 9.333-5.849 17.904-5.849zm0 1.2c-8.268 0-13.55 1.799-17.033 5.474-2.745 2.896-4.308 6.537-6.2 13.609l-1.734 6.712-.31 1.153c-.529 1.903-1.126 3.786-2.121 6.77l-.768 2.307c-3.147 9.548-4.234 14.602-4.234 22.124 0 8.328 2.566 13.393 7.465 16.074 3.733 2.044 8.415 2.688 15.693 2.56l1.728-.043 5.969-.222c.95-.032 1.688-.051 2.393-.06l1.152-.007c1.58 0 2.934.04 5.31.149l2.24.101c7.702.32 10.788.021 13.993-1.737 4.366-2.395 6.952-7.567 7.86-16.873.774-7.945-.027-14.726-2.41-24.416l-.46-1.835-1.9-7.327c-2.454-9.305-4.115-13.546-7.17-17.258-4.007-4.871-10.02-7.255-19.463-7.255z"/><path fill="#f8f4ff" d="M59.599 64.74c-2.39-.918-4.42-3.082-1.22-10.229 0 0-5.935 9.62 1.22 10.228z"/><path fill="#5e4a7f" fill-rule="nonzero" d="M55.141 59.988c-.476 2.41.36 4.247 2.693 5.063 2.025.708 3.375.208 4.096-1.412.808-1.818.555-5.567.648-6.847.024-.33-.248-.61-.579-.62a.609.609 0 0 0-.62.578c-.056.766.075 4.897-.552 6.415-.412 1-1.143 1.261-2.597.753-1.72-.602-2.28-1.832-1.912-3.697.318-1.605 1.333-3.555 2.675-5.344a.6.6 0 0 0-.96-.72c-1.44 1.92-2.534 4.02-2.892 5.83z"/><path fill="#f8f4ff" d="M86.173 62.805c2.171-1.357 3.754-3.87-.752-10.28 0 0 7.664 8.318.752 10.28z"/><path fill="#5e4a7f" fill-rule="nonzero" d="M89.595 57.497c.928 2.278.456 4.24-1.68 5.487-1.854 1.082-3.275.848-4.291-.605-1.142-1.633-1.607-5.363-1.943-6.603-.086-.32.127-.645.45-.72a.609.609 0 0 1 .72.45c.201.742.86 4.824 1.765 6.196.596.904 1.364 1.021 2.694.245 1.575-.919 1.891-2.235 1.173-3.997-.617-1.515-1.987-3.237-3.646-4.738a.6.6 0 1 1 .806-.89c1.78 1.61 3.255 3.465 3.952 5.175z"/><path fill="#d2e0f5" d="M46.458 11.117s-3.1 5.368 1.22 9.778c.507.518 2.445.922 3.691 0 1.247-.923 2.059-3.185.935-4.57-4.332-2.363-5.846-5.208-5.846-5.208z"/><path fill="#f8f4ff" d="M46.458 11.117s-3.1 5.368 1.22 9.778c.076.078.185.154.32.223-2.859-3.683-1.157-7.761-.662-8.767-.616-.743-.878-1.234-.878-1.234z"/><path fill="#5e4a7f" fill-rule="nonzero" d="M46.988 10.835c1.741 2.846 5.016 4.643 5.603 4.963a.6.6 0 0 1 .179.148c1.274 1.571.598 4.216-1.044 5.431-1.322.979-3.62.814-4.477-.062a8.892 8.892 0 0 1-1.594-2.195c-1.158-2.278-1.3-5.246.284-8.303.219-.423.807-.377 1.049.018zm-.426 1.508c-1.748 4.876.976 7.5 1.544 8.132.278.31 2.04.681 3.04-.169.998-.85 1.42-2.516.781-3.482-.747-.449-1.304-.8-1.672-1.052-1.371-.942-2.527-1.95-3.693-3.43z"/><g fill-rule="nonzero"><path fill="#5b4d81" d="m78.053 32.785-.131.107a7.83 7.83 0 0 1-1.034.658 9.044 9.044 0 0 1-3.325 1.018 9.044 9.044 0 0 1-3.463-.302 7.83 7.83 0 0 1-.98-.35l-.234-.109a1.909 1.909 0 0 1-.086-.046.6.6 0 0 0-.878.674c.149.571.513 1.371 1.185 2.143 1.127 1.295 2.739 1.98 4.854 1.757s3.548-1.23 4.38-2.731c.496-.895.685-1.754.711-2.344a.6.6 0 0 0-.999-.475zM55.598 25.456a.6.6 0 0 0 .848-.044l.1-.105a8.626 8.626 0 0 1 1.36-1.074c1.927-1.229 4.077-1.613 6.365-.669a.6.6 0 0 0 .458-1.109c-2.692-1.111-5.238-.656-7.468.766-.804.513-1.384 1.03-1.707 1.387a.6.6 0 0 0 .044.848zM81.397 24.456a.6.6 0 0 1-.848-.044l-.175-.177a8.626 8.626 0 0 0-1.286-1.002c-1.926-1.229-4.076-1.613-6.364-.669a.6.6 0 0 1-.458-1.109c2.692-1.111 5.238-.656 7.467.766.805.513 1.385 1.03 1.708 1.387a.6.6 0 0 1-.044.848z"/><path fill="#5e4a7f" d="M59.513 29.59a.75.75 0 0 0 1.058-.084c1.61-1.889 3.057-2.068 4.381-1.32.26.147.442.29.522.368a.75.75 0 0 0 1.052-1.068 4.084 4.084 0 0 0-.837-.607c-1.923-1.085-4.161-.808-6.26 1.654a.75.75 0 0 0 .084 1.058zM80.434 28.63a.75.75 0 0 1-1.045-.177c-1.303-1.834-2.379-1.994-3.402-1.3-.207.14-.352.277-.414.35a.75.75 0 1 1-1.146-.969c.145-.17.386-.398.719-.624 1.682-1.139 3.678-.842 5.465 1.675a.75.75 0 0 1-.177 1.045z"/></g></g></svg>