<svg data-id="203-9b3a86c91f80e31-smile" xmlns="http://www.w3.org/2000/svg" viewBox="0 0 100 100"><g fill="none" fill-rule="evenodd"><path fill="#7e87bd" d="M32.107 48.822S33.442 36.68 20.866 33.62c2.357 3.024-1.664 5.533-1.664 5.533s7.496-.088 4.101 4.58c4.815-1.433 8.804 5.09 8.804 5.09z"/><path fill="#f8f4ff" d="M20.866 33.619c2.357 3.024-1.664 5.533-1.664 5.533s3.693-.716 3.652-3.434c6.408 2.492 8.73 8.434 9.253 13.104.48-1.596.35-11.78-11.241-15.203z"/><path fill="#5e4a7f" fill-rule="nonzero" d="M32.103 43.207c.387 1.356.842 4.164.6 5.68a.602.602 0 0 1-1.108.248c-3.81-5.526-6.975-5.17-8.12-4.829a.6.6 0 0 1-.657-.927c1.317-1.81.914-2.685-.808-3.233-.482-.153-1.698-.402-2.8-.394-.609.004-.84-.788-.325-1.109s1.594-1.248 1.97-2.263c.293-.789.18-1.569-.463-2.392a.6.6 0 0 1 .615-.952c6.184 1.505 9.684 5.216 11.096 10.171zm-10.05-8.632c.449 1.292-.113 2.942-1.313 4.082 3.744.53 4.589 2.143 3.757 4.272 1-.039 3.661.044 7.028 4.076-.306-6.5-4.266-10.805-9.472-12.43z"/><path fill="#7e87bd" d="m19.6 62.596-9.623.418 3.123 2.045C1.499 70.565 6.036 87.862 31.805 81.7l-2.655-4.08C10.597 82.565 5.59 73.732 14.07 66.371l.616 4.103z"/><path fill="#f8f4ff" d="m19.6 62.596-9.623.418 3.123 2.045c-7.43 3.527-8.07 12.632-1.093 15.828-3.21-2.688-7.34-9.145 1.544-15.828-.506-.727-.607-1.137-.302-1.229 1.81-.544 3.926-.955 6.35-1.234z"/><path fill="#5e4a7f" fill-rule="nonzero" d="M9.95 62.414c-.547.024-.764.696-.381 1.041L11.897 65c-4.947 2.922-6.83 8.34-4.247 12.639 2.583 4.298 9.595 8.01 24.295 4.644.249-.057-.344-.334-1.78-.83-10.937 2.49-18.472-.007-21.231-4.036s-.926-9.276 4.423-11.815a.6.6 0 0 0 .149-.984l-1.64-1.085 6.622-.288-3.449 5.532-.374-2.494c-.061-.406-.6-.706-.987-.364-4.473 3.944-5.48 8.267-2.63 11.117 2.8 2.8 8.786 3.44 16.864 1.516l1.083-1.511c-8.411 2.242-14.515 1.73-17.098-.854-2.027-2.026-1.652-5.18 1.752-8.613l.445 2.99a.603.603 0 0 0 1.09.251l4.924-7.9a.6.6 0 0 0-.44-.914z"/><path fill="#7e87bd" d="M33.06 49.47s-5.882-10.713-17.94-5.995c3.669 1.123 1.817 5.487 1.817 5.487s6.088-4.377 5.99 1.395c3.12-3.94 10.134-.888 10.134-.888z"/><path fill="#f8f4ff" d="M15.12 43.475c3.669 1.123 1.817 5.487 1.817 5.487s2.613-2.708 1.018-4.91c6.68-1.64 11.994 1.893 15.106 5.417-.524-1.583-6.48-9.849-17.94-5.994z"/><path fill="#5e4a7f" fill-rule="nonzero" d="M29.832 44.872c1.096.889 3.082 2.927 3.755 4.308a.602.602 0 0 1-.766.84c-6.295-2.337-8.682-.228-9.424.71a.6.6 0 0 1-1.07-.383c.037-2.24-.795-2.724-2.52-2.184-.482.152-1.622.647-2.52 1.286-.495.353-1.14-.163-.903-.721s.589-1.939.315-2.985c-.214-.815-.755-1.388-1.754-1.694a.6.6 0 0 1-.043-1.133c5.929-2.32 10.927-1.29 14.93 1.956zm-13.19-1.296c1.11.8 1.598 2.474 1.27 4.098 3.37-1.718 4.989-.882 5.53 1.34.798-.607 3.024-2.067 8.098-.698-3.985-5.15-9.7-6.4-14.898-4.74z"/><path fill="#d2e0f5" d="M71.66 6.118s3.1 5.368-1.22 9.778c-.507.518-2.445.922-3.691 0-1.247-.923-2.059-3.185-.935-4.57 4.332-2.363 5.846-5.208 5.846-5.208z"/><path fill="#f8f4ff" d="M71.66 6.118s3.1 5.368-1.22 9.778a1.245 1.245 0 0 1-.32.223c2.859-3.683 1.157-7.761.662-8.767.616-.743.878-1.234.878-1.234z"/><path fill="#5e4a7f" fill-rule="nonzero" d="M71.13 5.836c-1.741 2.846-5.016 4.643-5.603 4.963a.6.6 0 0 0-.179.148c-1.274 1.571-.598 4.216 1.044 5.431 1.322.979 3.62.814 4.477-.062a8.892 8.892 0 0 0 1.594-2.195c1.158-2.278 1.3-5.246-.284-8.303-.219-.423-.807-.377-1.049.018zm.426 1.508c1.748 4.876-.976 7.5-1.544 8.132-.278.31-2.04.681-3.04-.169-.998-.85-1.42-2.516-.781-3.482.747-.449 1.304-.8 1.672-1.052 1.371-.942 2.527-1.95 3.693-3.43z"/><path fill="#dcd5e9" fill-rule="nonzero" d="M62.505 89.768c-15.991 0-35.019 3.4-35.019-20.018 0-13.473 3.022-20.597 5.765-31.04 4.038-15.374 11.006-26.593 27.254-26.593 19.29 0 22.284 11.237 24.638 26.593 2.353 15.356 6.774 18.703 6.03 31.04-1.21 20.018-12.677 20.018-28.668 20.018z"/><path fill="#f8f4ff" d="M60.505 12.117c-16.248 0-23.216 11.219-27.254 26.593-2.743 10.443-5.765 17.567-5.765 31.04 0 7.673 2.043 12.467 5.353 15.445-2.717-3.017-4.353-7.578-4.353-14.445 0-13.473 3.022-20.597 5.765-31.04 4.038-15.374 11.006-26.593 27.254-26.593 7.814 0 12.954 1.844 16.46 5.058-3.51-3.829-8.868-6.058-17.46-6.058z"/><path fill="#5e4a7f" fill-rule="nonzero" d="M60.646 11.2c-14.98 0-23.083 8.953-27.834 27.04-.726 2.394-1.732 5.997-3.016 10.809-1.925 7.217-2.769 12.852-2.769 20.384 0 9.603 3.135 15.392 9.185 18.297 4.424 2.124 9.274 2.621 18.61 2.457 2.909-.064 4.608-.101 5.099-.11s2.125-.02 4.902-.032c9.917-.055 13.91-.536 17.968-2.56 5.58-2.783 8.538-8.354 9.122-18.016.29-4.82-.144-8.441-1.337-12.746-1.133-3.603-1.995-6.462-2.585-8.577-.886-3.173-1.628-6.572-2.292-10.986-1.378-9.164-2.942-14.129-5.898-18.176-3.805-5.21-9.836-7.784-19.155-7.784zm0 1.2c8.961 0 14.626 2.418 18.186 7.292 2.755 3.77 4.198 8.501 5.597 17.127l.404 2.563a82.547 82.547 0 0 0 2.23 9.892c.381 1.318 1.973 6.473 2.356 7.77.82 2.77 1.566 7.883 1.296 12.353-.56 9.268-3.309 14.445-8.46 17.014-3.836 1.914-7.738 2.38-17.471 2.434-2.444.008-3.837.015-4.181.02s-2.273.046-5.786.122c-9.155.161-13.885-.322-18.086-2.339-5.604-2.69-8.504-8.047-8.504-17.215 0-7.704 1.015-14.346 2.954-20.908 1.199-4.058 2.384-8.524 3.073-11.026C38.912 20.589 46.604 12.4 60.646 12.4z"/><path fill="#f8f4ff" d="M60.969 60.34c1.61-1.99 2.287-4.879-4.057-9.468 0 0 9.95 5.364 4.057 9.468z"/><path fill="#5e4a7f" fill-rule="nonzero" d="M62.453 53.996c1.619 1.85 1.812 3.858.2 5.731-1.4 1.626-2.82 1.868-4.253.826-1.61-1.17-3.264-4.544-3.985-5.606-.186-.274-.09-.651.19-.827a.609.609 0 0 1 .827.19c.432.637 2.384 4.28 3.685 5.28.858.66 1.621.522 2.626-.645 1.188-1.381 1.06-2.728-.193-4.159-1.077-1.23-2.932-2.412-4.988-3.29a.6.6 0 0 1 .471-1.103c2.208.942 4.205 2.214 5.42 3.603z"/><path fill="#dcd5e9" fill-rule="nonzero" d="M82.617 46.152c-1.828.63-3.032 8.416-1.204 7.786 1.787-.615 12.276-7.31 8.884-11.108-5.194-5.814-5.85 2.692-7.68 3.322z"/><path fill="#f8f4ff" d="M87.397 41.194c2.171 1.357 3.754 3.87-.752 10.28 0 0 7.664-8.318.752-10.28z"/><path fill="#5e4a7f" fill-rule="nonzero" d="M90.82 46.502c.927-2.278.455-4.24-1.68-5.487-1.855-1.082-3.276-.848-4.292.605-1.142 1.633-1.607 5.363-1.943 6.603-.086.32.127.645.45.72a.609.609 0 0 0 .72-.45c.201-.742.86-4.824 1.765-6.196.596-.904 1.364-1.021 2.694-.245 1.575.919 1.891 2.235 1.173 3.997-.617 1.515-1.987 3.237-3.646 4.738a.6.6 0 1 0 .806.89c1.78-1.61 3.255-3.465 3.952-5.175z"/><path fill="#d2e0f5" d="M46.458 7.117s-3.1 5.368 1.22 9.778c.507.518 2.445.922 3.691 0 1.247-.923 2.059-3.185.935-4.57-4.332-2.363-5.846-5.208-5.846-5.208z"/><path fill="#f8f4ff" d="M46.458 7.117s-3.1 5.368 1.22 9.778c.076.078.185.154.32.223-2.859-3.683-1.157-7.761-.662-8.767-.616-.743-.878-1.234-.878-1.234z"/><path fill="#5e4a7f" fill-rule="nonzero" d="M46.988 6.835c1.741 2.846 5.016 4.643 5.603 4.963a.6.6 0 0 1 .179.148c1.274 1.571.598 4.216-1.044 5.431-1.322.979-3.62.814-4.477-.062a8.892 8.892 0 0 1-1.594-2.195c-1.158-2.278-1.3-5.246.284-8.303.219-.423.807-.377 1.049.018zm-.426 1.508c-1.748 4.876.976 7.5 1.544 8.132.278.31 2.04.681 3.04-.169.998-.85 1.42-2.516.781-3.482-.747-.449-1.304-.8-1.672-1.052-1.371-.942-2.527-1.95-3.693-3.43z"/><path fill="#fff" d="M56.137 33.307a3.575 3.575 0 0 1 3.382-3.75l16.192-.842a3.574 3.574 0 0 1 3.754 3.378 3.575 3.575 0 0 1-3.383 3.75l-16.192.843a3.574 3.574 0 0 1-3.753-3.379z"/><g fill="#5e4a7f" fill-rule="nonzero"><path d="m75.68 28.115-16.192.843a4.175 4.175 0 0 0-3.95 4.38 4.174 4.174 0 0 0 4.384 3.947l16.19-.843a4.175 4.175 0 0 0 3.952-4.38l-.016-.205a4.178 4.178 0 0 0-4.369-3.742zm-16.13 2.042 16.192-.843a2.974 2.974 0 0 1 3.11 2.653l.014.173c.084 1.62-1.18 3.018-2.816 3.103l-16.19.843a2.973 2.973 0 0 1-3.124-2.81 2.975 2.975 0 0 1 2.815-3.12z"/><path d="m79.29 31.529.065 1.199-23.185 1.255-.065-1.199z"/><path d="m60.456 29.91.337 6.48-1.198.062-.338-6.48zM64.344 29.708l.337 6.48-1.198.062-.338-6.48zM68.232 29.505l.337 6.48-1.198.063-.338-6.48zM72.12 29.303l.337 6.48-1.198.062-.338-6.48zM76.008 29.1l.337 6.48-1.198.063-.338-6.48z"/></g><g fill="#5e4a7f" fill-rule="nonzero"><path d="M58.495 25.154a.75.75 0 0 0 .75-.75 5.54 5.54 0 0 0-.361-1.91c-.492-1.292-1.444-2.126-2.889-2.126s-2.397.834-2.888 2.126a5.54 5.54 0 0 0-.362 1.91.75.75 0 1 0 1.5 0c.1-.72.188-1.178.264-1.377.29-.761.744-1.16 1.486-1.16s1.197.399 1.487 1.16c.113.299.263.962.263 1.377 0 .414.336.75.75.75zM77.606 24.154a.75.75 0 0 0 .75-.75 5.54 5.54 0 0 0-.361-1.91c-.492-1.292-1.444-2.126-2.889-2.126s-2.397.834-2.888 2.126a5.54 5.54 0 0 0-.362 1.91.75.75 0 0 0 1.5 0c.1-.72.188-1.178.264-1.377.29-.761.744-1.16 1.486-1.16s1.197.399 1.487 1.16c.113.299.263.962.263 1.377 0 .414.336.75.75.75z"/></g></g></svg>