<svg data-id="205-5dd21501b844f52-smile" xmlns="http://www.w3.org/2000/svg" viewBox="0 0 100 100"><g fill="none" fill-rule="evenodd"><path fill="#7e87bd" d="M79.394 47.587s8.6-8.68 18.893-.831c-3.834.071-3.254 4.775-3.254 4.775s-4.65-5.88-6.14-.305c-1.917-4.644-9.499-3.64-9.499-3.64z"/><path fill="#f8f4ff" d="M98.287 46.756c-3.834.071-3.254 4.775-3.254 4.775s-1.768-3.32.37-4.999c-5.97-3.413-12.049-1.477-16.009 1.055.94-1.378 8.936-7.686 18.893-.831z"/><path fill="#5e4a7f" fill-rule="nonzero" d="M83.762 44.056c-1.298.553-3.767 1.966-4.794 3.109a.602.602 0 0 0 .505 1.017c6.694-.516 8.409 2.168 8.865 3.273a.6.6 0 0 0 1.134-.074c.578-2.163 1.512-2.4 3.021-1.406.423.278 1.381 1.067 2.07 1.928.379.476 1.14.157 1.065-.445s-.033-2.025.519-2.956c.429-.724 1.107-1.127 2.151-1.146a.6.6 0 0 0 .353-1.077c-5.062-3.86-10.149-4.244-14.89-2.223zm13.035 2.38c-1.287.463-2.216 1.938-2.348 3.589-2.767-2.578-4.553-2.219-5.684-.232-.6-.802-2.338-2.818-7.592-2.897 5.246-3.854 11.084-3.486 15.624-.46z"/><path fill="#7e87bd" d="M79 48.353s11.049-5.216 18.038 5.68c-3.628-1.244-4.691 3.374-4.691 3.374s-2.358-7.116-5.666-2.387c-.213-5.019-7.68-6.667-7.68-6.667z"/><path fill="#f8f4ff" d="M97.038 54.033c-3.628-1.244-4.691 3.374-4.691 3.374s-.526-3.725 2.058-4.57c-4.443-5.25-10.818-5.51-15.404-4.484 1.353-.973 11.025-4.167 18.037 5.68z"/><path fill="#5e4a7f" fill-rule="nonzero" d="M84.312 46.528c-1.408.076-4.212.56-5.568 1.283-.5.266-.44.97.127 1.128 6.467 1.804 7.16 4.913 7.21 6.107a.6.6 0 0 0 1.092.318c1.283-1.834 2.241-1.738 3.32-.288.301.406.933 1.475 1.284 2.52.194.577 1.018.537 1.155-.054s.661-1.914 1.497-2.6c.651-.534 1.426-.68 2.414-.342a.6.6 0 0 0 .7-.891c-3.437-5.357-8.086-7.459-13.231-7.18zm11.435 6.694c-1.368-.004-2.745 1.064-3.433 2.57-1.72-3.368-3.52-3.641-5.263-2.161-.29-.96-1.233-3.448-6.143-5.319 6.247-1.828 11.607.515 14.84 4.91z"/><path fill="#d2e0f5" d="M38.34 7.118s-3.1 5.368 1.22 9.778c.507.518 2.445.922 3.691 0 1.247-.923 2.059-3.185.935-4.57-4.332-2.363-5.846-5.208-5.846-5.208z"/><path fill="#f8f4ff" d="M38.34 7.118s-3.1 5.368 1.22 9.778c.076.078.185.154.32.223-2.859-3.683-1.157-7.761-.662-8.767-.616-.743-.878-1.234-.878-1.234z"/><path fill="#5e4a7f" fill-rule="nonzero" d="M38.87 6.836c1.741 2.846 5.016 4.643 5.603 4.963a.6.6 0 0 1 .179.148c1.274 1.571.598 4.216-1.044 5.431-1.322.979-3.62.814-4.477-.062a8.892 8.892 0 0 1-1.594-2.195c-1.158-2.278-1.3-5.246.284-8.303.219-.423.807-.377 1.049.018zm-.426 1.508c-1.748 4.876.976 7.5 1.544 8.132.278.31 2.04.681 3.04-.169.998-.85 1.42-2.516.781-3.482-.747-.449-1.304-.8-1.672-1.052-1.371-.942-2.527-1.95-3.693-3.43z"/><path fill="#dcd5e9" fill-rule="nonzero" d="M51.495 90.768c14.673 0 35 4.515 35-18.902 0-13.473-4.71-22.062-7.453-32.506-4.038-15.374-5.256-26.243-25.547-26.243S29.86 24.182 25.857 39.71c-2.667 10.352-5.547 19.998-4.362 32.156 2.297 23.563 15.327 18.902 30 18.902z"/><path fill="#f8f4ff" d="M53.495 13.117c20.29 0 21.51 10.87 25.547 26.243 2.743 10.444 7.453 19.033 7.453 32.506 0 7.32-1.986 11.91-5.164 14.762 2.589-2.889 4.164-7.243 4.164-13.762 0-13.473-4.71-22.062-7.453-32.506-4.038-15.374-5.256-26.243-25.547-26.243-8.721 0-14.312 2.045-18.17 5.609 3.876-4.18 9.663-6.609 19.17-6.609z"/><path fill="#5e4a7f" fill-rule="nonzero" d="M53.495 12.517c-9.777 0-16.135 2.52-20.39 7.693-3.32 4.033-5.029 8.558-7.683 18.786l-1.623 6.265-.265 1.047c-2.565 10.239-3.447 17.295-2.636 25.616l.108 1.02c1.034 9.035 3.77 14.266 8.369 16.789l.406.216c3.45 1.777 6.84 2.005 15.134 1.628l2.757-.123a91.16 91.16 0 0 1 3.565-.086l1.397.007c1.014.013 2.101.046 3.812.112l4.32.163.828.025c8.118.218 13.251-.404 17.413-2.682 5.312-2.908 8.088-8.387 8.088-17.127 0-7.845-1.158-13.057-4.502-23.127l-1.109-3.337c-.717-2.185-1.194-3.738-1.632-5.339l-.311-1.168c-.37-1.42-1.223-4.766-1.385-5.388l-.267-1.013c-1.943-7.262-3.567-11.044-6.49-14.128-3.736-3.943-9.333-5.849-17.904-5.849zm0 1.2c8.268 0 13.55 1.799 17.033 5.474 2.745 2.896 4.308 6.537 6.2 13.609l1.734 6.712.31 1.153c.529 1.903 1.126 3.786 2.121 6.77l.768 2.307c3.147 9.548 4.234 14.602 4.234 22.124 0 8.328-2.566 13.393-7.465 16.074-3.733 2.044-8.415 2.688-15.693 2.56l-1.728-.043-5.969-.222a113.45 113.45 0 0 0-2.393-.06l-1.152-.007c-1.58 0-2.934.04-5.31.149l-2.24.101c-7.702.32-10.788.021-13.993-1.737-4.366-2.395-6.952-7.567-7.86-16.873-.774-7.945.027-14.726 2.41-24.416l.46-1.835 1.9-7.327c2.454-9.305 4.115-13.546 7.17-17.258 4.007-4.871 10.02-7.255 19.463-7.255z"/><path fill="#7e87bd" d="M84.637 82.117c-3.851 4.393-8.823 3.52-11.024 3.161-2.898-.471-4.576-1.184-8.425-.927-3.81.255-5.225.958-8.827 1l2.099-3.058-8.965 2.412 7.322 6.257-1.05-4.285c3.593 1.924 6.317.328 10.026.62 6.303.497 6.25 2.897 12.411 2.194 3.48-.396 8.927-3.153 6.433-7.374z"/><path fill="#f8f4ff" d="M84.637 82.117c-3.851 4.393-8.823 3.52-11.024 3.161l-.674-.117c-2.506-.462-4.21-1.046-7.75-.81-3.81.255-4.411.643-8.013.685l1.284-2.743-8.965 2.412c4.263-.597 6.69-.851 7.284-.763 1.586.236-1.463 1.627-.624 1.65 5.188.137 8.641-.455 10.435-.314 6.303.497 7.95 1.48 11.608 1.262 2.888-.173 4.377-1.19 6.44-4.423z"/><path fill="#5e4a7f" fill-rule="nonzero" d="M85.15 81.812c1.3 2.2.783 4.275-1.103 5.883-1.478 1.26-3.758 2.162-5.778 2.392-2.593.296-4.158.117-6.057-.546l-.53-.194c-.316-.12-.826-.315-.977-.37-1.618-.601-2.968-.925-4.962-1.082l-.404-.025c-.795-.038-1.539.009-2.768.142l-1.241.137a18.88 18.88 0 0 1-.863.07l-.348.016c-1.133.039-2.134-.07-3.117-.38l-.362-.125.757 3.09c.138.565-.53.977-.973.598l-7.322-6.257a.6.6 0 0 1 .234-1.036l8.965-2.411.094-.018a.6.6 0 0 1 .556.937l-1.425 2.077.181-.01a25.32 25.32 0 0 0 2.284-.263l1.349-.223c1.453-.241 2.47-.372 3.805-.461 2.029-.136 3.475-.036 5.304.301l2.246.45c.27.053.517.098.764.14l.893.145c2.487.377 4.502.294 6.527-.598 1.21-.533 2.315-1.342 3.304-2.47a.6.6 0 0 1 .967.09zm-.679 1.35-.24.23a10.321 10.321 0 0 1-2.869 1.897c-2.162.953-4.275 1.083-6.79.744l-.816-.123-.242-.04a32.903 32.903 0 0 1-.774-.135l-1.04-.206c-.286-.06-.83-.171-1.02-.209-1.96-.389-3.371-.51-5.455-.37a32.934 32.934 0 0 0-3.23.374l-1.379.228c-1.608.264-2.73.38-4.25.398l-.095-.006a.6.6 0 0 1-.407-.933l1.178-1.716-6.295 1.693 5.042 4.309-.608-2.477a.6.6 0 0 1 .866-.672c1.303.698 2.508.939 4.02.888l.33-.015c.387-.023.684-.05 1.306-.12l.416-.046c1.714-.193 2.587-.245 3.718-.156 1.962.155 3.358.466 4.922 1.02l.876.327c.272.103.564.214.673.254 1.877.694 3.281.885 5.825.595 1.795-.204 3.85-1.018 5.135-2.113 1.197-1.021 1.659-2.17 1.258-3.46z"/><path fill="#f8f4ff" d="M52.401 61.74c2.39-.918 4.42-3.082 1.22-10.229 0 0 5.935 9.62-1.22 10.228z"/><path fill="#5e4a7f" fill-rule="nonzero" d="M56.859 56.988c.476 2.41-.36 4.247-2.693 5.063-2.025.708-3.375.208-4.096-1.412-.808-1.818-.555-5.567-.648-6.847-.024-.33.248-.61.579-.62a.609.609 0 0 1 .62.578c.056.766-.075 4.897.552 6.415.412 1 1.143 1.261 2.597.753 1.72-.602 2.28-1.832 1.912-3.697-.318-1.605-1.333-3.555-2.675-5.344a.6.6 0 0 1 .96-.72c1.44 1.92 2.534 4.02 2.892 5.83z"/><path fill="#f8f4ff" d="M25.827 59.805c-2.171-1.357-3.754-3.87.752-10.28 0 0-7.664 8.318-.752 10.28z"/><path fill="#5e4a7f" fill-rule="nonzero" d="M22.405 54.497c-.928 2.278-.456 4.24 1.68 5.487 1.854 1.082 3.275.848 4.291-.605 1.142-1.633 1.607-5.363 1.943-6.603.086-.32-.127-.645-.45-.72a.609.609 0 0 0-.72.45c-.201.742-.86 4.824-1.765 6.196-.596.904-1.364 1.021-2.694.245-1.575-.919-1.891-2.235-1.173-3.997.617-1.515 1.987-3.237 3.646-4.738a.6.6 0 1 0-.806-.89c-1.78 1.61-3.255 3.465-3.952 5.175z"/><path fill="#d2e0f5" d="M65.542 8.117s3.1 5.368-1.22 9.778c-.507.518-2.445.922-3.691 0-1.247-.923-2.059-3.185-.935-4.57 4.332-2.363 5.846-5.208 5.846-5.208z"/><path fill="#f8f4ff" d="M65.542 8.117s3.1 5.368-1.22 9.778a1.245 1.245 0 0 1-.32.223c2.859-3.683 1.157-7.761.662-8.767.616-.743.878-1.234.878-1.234z"/><path fill="#5e4a7f" fill-rule="nonzero" d="M65.012 7.835c-1.741 2.846-5.016 4.643-5.603 4.963a.6.6 0 0 0-.179.148c-1.274 1.571-.598 4.216 1.044 5.431 1.322.979 3.62.814 4.477-.062a8.892 8.892 0 0 0 1.594-2.195c1.158-2.278 1.3-5.246-.284-8.303-.219-.423-.807-.377-1.049.018zm.426 1.508c1.748 4.876-.976 7.5-1.544 8.132-.278.31-2.04.681-3.04-.169-.998-.85-1.42-2.516-.781-3.482.747-.449 1.304-.8 1.672-1.052 1.371-.942 2.527-1.95 3.693-3.43z"/><path fill="#78c9ff" d="M73.186 28.883a7.186 7.186 0 0 0 7.186-7.186C80.372 17.044 73.186 9 73.186 9S66 17.044 66 21.697a7.186 7.186 0 0 0 7.186 7.186z"/><path fill="#4ea7e0" fill-rule="nonzero" d="m72.738 8.6-.316.364-.394.465a53.758 53.758 0 0 0-2.929 3.833 34.184 34.184 0 0 0-2.108 3.418c-1.025 1.934-1.591 3.62-1.591 5.017a7.786 7.786 0 1 0 15.572 0c0-1.396-.567-3.083-1.591-5.017a34.184 34.184 0 0 0-2.11-3.418 53.758 53.758 0 0 0-2.497-3.311l-.43-.522-.71-.829a.6.6 0 0 0-.896 0zm.448 1.317.443.53a54.89 54.89 0 0 1 2.657 3.498 33.015 33.015 0 0 1 2.035 3.297c.94 1.776 1.45 3.296 1.45 4.455a6.586 6.586 0 1 1-13.171 0c0-1.16.51-2.68 1.451-4.455a33.015 33.015 0 0 1 2.035-3.297 52.575 52.575 0 0 1 2.442-3.236l.42-.51z"/><path fill="#5e4a7f" fill-rule="nonzero" d="M39.283 27.206a.75.75 0 0 0 .8-.696c.012-.154.016-.403-.002-.72a6.822 6.822 0 0 0-.26-1.568c-.462-1.553-1.484-2.598-3.147-2.715s-2.821.776-3.495 2.25a6.822 6.822 0 0 0-.477 1.515 6.113 6.113 0 0 0-.103.713.75.75 0 0 0 1.483.206l.03-.257a5.899 5.899 0 0 1 .432-1.554c.437-.956 1.069-1.443 2.025-1.376s1.513.638 1.813 1.645c.114.386.178.805.201 1.223l.01.268a3.45 3.45 0 0 1-.006.265.75.75 0 0 0 .696.801zM56.237 27.744a.75.75 0 0 0 .8-.696l.01-.229c.001-.135-.001-.3-.012-.49a6.822 6.822 0 0 0-.26-1.57c-.462-1.552-1.484-2.597-3.147-2.714-1.664-.116-2.821.776-3.495 2.25a6.822 6.822 0 0 0-.477 1.515 6.113 6.113 0 0 0-.103.713.75.75 0 0 0 1.497.105l.016-.156a5.899 5.899 0 0 1 .432-1.554c.437-.956 1.069-1.443 2.025-1.376.956.067 1.513.638 1.813 1.645.114.386.178.805.201 1.223l.01.268a3.45 3.45 0 0 1-.006.265.75.75 0 0 0 .696.801zM51.071 31.01l-.258.083c-.075.023-.161.049-.259.077l-.153.045c-.544.155-1.15.306-1.8.44-1.855.384-3.698.563-5.395.444-1.697-.119-3.497-.553-5.28-1.192-.5-.18-.97-.366-1.403-.55l-.318-.138c-.307-.137-.523-.24-.635-.297a.6.6 0 0 0-.87.493l-.011.245c-.006.28.006.658.049 1.11.095 1.003.323 2.015.724 2.98 1.156 2.785 3.49 4.588 7.218 4.85 3.728.261 6.29-1.199 7.825-3.796.53-.898.898-1.87 1.133-2.848.14-.59.207-1.056.227-1.337a.6.6 0 0 0-.794-.61z"/><path fill="#fff" d="m50.526 32.425-.056.25a9.628 9.628 0 0 1-.536 1.611c-1.105.655-3.216 1.375-6.96 1.112-3.746-.263-5.737-1.277-6.738-2.086a9.566 9.566 0 0 1-.303-1.656l-.022-.256.14.061c.454.194.946.388 1.47.576 1.878.673 3.78 1.132 5.601 1.26 1.82.127 3.769-.061 5.722-.466.545-.113 1.06-.237 1.536-.365z"/></g></svg>