<svg data-id="21-4bff1e88a0c3b81-dog" xmlns="http://www.w3.org/2000/svg" viewBox="0 0 100 100"><g fill="none" fill-rule="evenodd"><path fill="#222" d="M56.33 71.884c3.303 2.49 3.422 7.905.264 12.095a11.86 11.86 0 0 1-1.995 2.075c1.943 1.147 3.061 2.694 2.643 3.908-.55 1.595-3.544 2.01-6.689.928-2.088-.72-3.718-1.919-4.416-3.11a6.058 6.058 0 0 1-.897-.48c-1.72 1.667-4.105 2.7-6.74 2.7a9.661 9.661 0 0 1-6.652-2.616 5.82 5.82 0 0 1-.761.396c-.698 1.191-2.327 2.39-4.416 3.11-3.145 1.082-6.14.667-6.689-.928-.418-1.214.7-2.761 2.644-3.909a11.803 11.803 0 0 1-1.996-2.074c-3.157-4.19-3.039-9.605.265-12.095 3.097-2.333 7.893-1.268 11.082 2.325a9.66 9.66 0 0 1 6.523-2.498c2.588 0 4.934.996 6.648 2.612 3.188-3.684 8.052-4.797 11.181-2.439z"/><path fill="#333" d="M41.821 76.432c.196 4.952 1 17.392 4.126 17.392 3.902 0 2.74-17.343 4.56-20.54 1.136-1.997 1.895-5.844 1.895-8.284 0-7.732-4.703-18-13.902-18s-14.19 9.832-14.19 18c0 2.167.89 6.453 1.8 8.285.959 1.929-.386 20.539 3.917 20.539 3.46 0 4.473-12.544 4.737-17.454.032-.582.945-3.085 3.736-3.085s3.296 2.517 3.321 3.147z"/><path fill="#404040" d="M47.024 31.067c-3.022-8.307-7.676-8.917-17.862-5.21-10.186 3.706-13.36 7.163-10.338 15.47 1.542 4.236 8.935 12.746 9.488 13.577 2.716 4.082 7.274 5.824 11.946 4.124l1.718-.625c4.666-1.697 6.933-5.965 6.503-10.836-.086-.975-.282-13.276-1.455-16.5z"/><g fill="#633500"><path d="M86.018 86.513s-12.426-.999-12.426 2.07c0 1.145.927 2.072 2.072 2.072h11.044c1.144 0 2.072-.93 2.072-2.071 0-1.144-1.618-2.071-2.762-2.071z"/><path d="M84.57 83.061s-9.41-.41-9.41 1.726c0 .953.847 1.726 1.882 1.726h8.282c1.04 0 1.882-.766 1.882-1.726 0-.953-1.6-1.726-2.635-1.726z"/><path d="M82.877 77.865c-.82 2.327-5.833.721-5.833 3.383 0 1.002.926 1.813 2.069 1.813h4.146c1.143 0 2.07-.813 2.07-1.813s-.219-2.66-2.452-3.383z"/></g><path fill="#000" d="M21.82 85.99c-.205-.19-.403-.38-.596-.58-.338-.36-.66-.74-.963-1.15-1.498-2.03-2.268-4.32-2.318-6.45-.06-2.51.87-4.8 2.754-6.19.65-.48 1.368-.82 2.128-1.02.746-.2 1.532-.27 2.333-.22.153.01.271.14.263.29s-.139.27-.293.26a6.905 6.905 0 0 0-2.138.25c-.68.2-1.32.52-1.897.97-1.672 1.29-2.449 3.37-2.35 5.63.085 1.97.837 4.07 2.256 5.92.286.37.59.72.907 1.05.327.34.67.65 1.024.93l.541.44-.599.35c-.928.55-1.653 1.2-2.083 1.85-.338.52-.495 1.02-.339 1.48.11.33.371.59.728.79.34.18.757.31 1.234.39 1.157.19 2.632.09 4.158-.38l.667-.22c.142-.06.305.01.364.15s-.009.3-.15.36l-.679.29c-.903.35-1.797.58-2.632.68-.664.08-1.29.08-1.853.02-1.427-.17-2.435-.82-2.772-1.76-.249-.72-.092-1.54.443-2.34.411-.62 1.05-1.24 1.861-1.79zm33.495.02c.82.56 1.461 1.19 1.868 1.82.505.78.661 1.57.417 2.25-.32.91-1.302 1.52-2.677 1.69-1.256.17-2.845-.02-4.469-.59-.374-.14-.733-.28-1.075-.45-.363-.17-.707-.35-1.028-.54a.288.288 0 0 1-.098-.39c.08-.13.25-.17.382-.09.308.17.638.34.985.49.33.15.674.28 1.032.4 1.524.51 3.008.66 4.175.48 1.042-.15 1.828-.55 2.058-1.24.162-.49 0-1.03-.366-1.57-.443-.66-1.19-1.3-2.137-1.85l-.528-.31.476-.39c.351-.29.69-.6 1.013-.95.313-.33.611-.68.892-1.06 1.383-1.86 2.093-3.97 2.153-5.93.033-1.09-.14-2.14-.513-3.08-.385-.96-.979-1.82-1.81-2.46a5.707 5.707 0 0 0-2.024-1.04 6.857 6.857 0 0 0-2.315-.24.271.271 0 0 1-.305-.25.271.271 0 0 1 .248-.3c.87-.12 1.731-.1 2.551.07.85.18 1.65.54 2.374 1.05a6.58 6.58 0 0 1 2.193 2.8c.44 1.05.634 2.24.59 3.48-.079 2.14-.887 4.43-2.423 6.44a12.6 12.6 0 0 1-1.639 1.76z"/><path fill="#000" fill-rule="nonzero" d="M56.184 62.227c-.269 2.853-1.787 5.466-4.213 7.805-.038.037-.141.238-.308.603 1.988.16 3.459.476 4.414.947 1.92-3.118 2.421-6.316 1.065-9.504-.203-.477-.91-.367-.958.15z"/><path fill="#000" d="M27.182 53.62c-1.047 1.67-1.852 3.54-2.4 5.46a22.58 22.58 0 0 0-.867 5.92c-.008 1.09.2 2.72.527 4.31.335 1.63.798 3.22 1.264 4.18.202.41.26 1.62.323 3.25.152 3.93.178 10.13 1.13 13.93.331 1.31.786 2.35 1.363 2.96.431.45.933.69 1.505.69.667 0 1.276-.34 1.806-.99.668-.82 1.225-2.17 1.667-3.78 1.131-4.14 1.572-10.11 1.731-13.15.015-.31.34-1.24 1.131-1.91.503-.43 1.2-.75 2.138-.75.927 0 1.566.31 1.997.74.692.68.866 1.63.88 1.97.128 3.04.49 8.87 1.464 12.96.38 1.59.857 2.93 1.437 3.76.482.69 1.05 1.06 1.67 1.05.542 0 1.015-.25 1.416-.73.517-.62.92-1.65 1.222-2.95.76-3.27.944-8.27 1.293-12.13.203-2.26.448-4.11.925-4.96.586-1.03 1.076-2.56 1.413-4.13.325-1.53.507-3.1.505-4.32-.007-2.22-.394-4.64-1.158-6.97-.74-2.26-1.833-4.43-3.272-6.25a.268.268 0 0 0-.392-.05.277.277 0 0 0-.047.39c1.388 1.78 2.436 3.9 3.142 6.1.73 2.27 1.095 4.62 1.09 6.78-.005 1.18-.192 2.7-.514 4.18-.329 1.5-.797 2.95-1.362 3.94-.509.88-.812 2.84-1.039 5.22-.366 3.83-.572 8.78-1.342 12.02-.227.96-.5 1.76-.85 2.32-.286.45-.61.75-1.03.74-.389 0-.707-.28-1.006-.71-.533-.77-.952-2.02-1.295-3.49-.943-4.05-1.27-9.81-1.382-12.81-.016-.43-.236-1.68-1.134-2.57-.568-.57-1.404-1.01-2.63-1.01-1.2 0-2.09.41-2.735.96-1.059.89-1.445 2.14-1.468 2.56-.167 3-.619 8.87-1.744 12.94-.403 1.45-.883 2.67-1.486 3.41-.313.38-.648.63-1.04.63-.462 0-.808-.33-1.112-.82-.566-.93-.929-2.42-1.192-4.17-.577-3.84-.614-8.87-.779-12.07-.082-1.6-.22-2.77-.43-3.19-.455-.89-.902-2.4-1.24-3.95-.335-1.52-.564-3.08-.57-4.13-.018-1.87.231-3.83.735-5.74.495-1.88 1.235-3.71 2.218-5.35a.287.287 0 0 0-.092-.39.275.275 0 0 0-.384.1z"/><path fill="#484848" d="m47.185 54.12-1.559-4.46a7.364 7.364 0 0 0-3.767-4.2 7.415 7.415 0 0 0-5.912-.21 7.417 7.417 0 0 0-4.059 3.87 7.27 7.27 0 0 0-.646 2.78c-.026.94.136 1.89.49 2.81 0 0 .318.83.693 1.76.491 1.23 1.076 2.63 1.076 2.63.027.076 3.562.884 7.48-.36 3.917-1.244 6.23-4.55 6.204-4.62z"/><g fill="#000" transform="translate(10.443 20.496)"><path d="M8.642 22.114c.738 1.55 1.932 3.44 3.222 5.28.92 1.31 1.887 2.59 2.757 3.71 1.448 1.86 2.625 3.26 2.83 3.57 1.424 2.13 3.33 3.65 5.488 4.41 2.164.76 4.583.77 7.027-.14l1.714-.63c2.437-.9 4.241-2.47 5.374-4.46 1.116-1.95 1.581-4.31 1.344-6.83-.053-.56-.164-4.84-.476-9-.168-2.24-.395-4.44-.699-6.01a.278.278 0 0 0-.326-.22.27.27 0 0 0-.223.32c.282 1.56.476 3.74.614 5.95.261 4.17.322 8.47.368 9.03.193 2.34-.255 4.54-1.316 6.35-1.057 1.81-2.726 3.23-4.966 4.03l-1.72.62c-2.229.8-4.426.78-6.389.07-1.964-.7-3.693-2.09-4.984-4.04-.213-.32-1.41-1.74-2.923-3.61-.884-1.09-1.875-2.34-2.832-3.6-1.329-1.76-2.596-3.55-3.386-5.05a.274.274 0 0 0-.374-.12c-.138.06-.193.23-.124.37zm16.753-18.96c-.565.05-1.152.11-1.768.22-.558.1-1.134.24-1.73.4-.547.15-1.107.34-1.687.54-.536.19-1.086.39-1.655.61-1.616.63-3.053 1.25-4.315 1.88a23.5 23.5 0 0 0-2.73 1.57c-.13.08-.169.25-.086.38s.255.17.385.09c.802-.49 1.713-.95 2.735-1.4 1.271-.56 2.71-1.1 4.326-1.65.686-.24 1.348-.45 1.983-.66.397-.12.784-.24 1.16-.36.397-.12.781-.25 1.155-.37.317-.1.624-.19.925-.29.485-.15.944-.29 1.396-.41a.279.279 0 0 0-.094-.55zM22.92 68.434c.385.24.75.47 1.127.66.412.2.82.36 1.22.49.945.29 1.836.38 2.646.37a9.887 9.887 0 0 0 2.552-.45c.748-.22 1.532-.54 2.357-.94.14-.06.204-.23.142-.37a.281.281 0 0 0-.368-.14c-.818.33-1.59.57-2.322.74-.847.19-1.632.28-2.36.26-.593-.02-1.222-.13-1.897-.3-.229-.06-.463-.12-.705-.19-.23-.07-.468-.13-.71-.21-.188-.05-.378-.11-.573-.17-.284-.08-.57-.16-.87-.26a.288.288 0 0 0-.372.14c-.066.13-.007.3.132.37z"/><path d="M39.474 14.034c.078.06.181.07.272.03a.26.26 0 0 0 .173-.21s.353-1.71.514-3.88c.093-1.25.12-2.64-.008-3.95-.113-1.17-.358-2.28-.775-3.16-.372-.78-.889-1.39-1.557-1.75-1.779-.94-4.41-1.28-6.903-1.04-2.73.27-5.278 1.24-6.407 2.76a.426.426 0 0 0-.059.4c.582 1.57 1.393 3.08 2.764 4.38 1.081 1.02 2.51 1.91 4.453 2.59 1.485.51 2.802 1.1 3.902 1.66 2.28 1.15 3.631 2.17 3.631 2.17zM6.986 26.104c.07.07.167.09.258.06a.265.265 0 0 0 .192-.18s.443-1.32 1.543-3.52c.486-.96 1.1-2.1 1.858-3.38a12.539 12.539 0 0 0 1.73-5.46c.175-2.15-.192-4.16-.738-5.69a.414.414 0 0 0-.305-.27c-1.846-.45-4.42.45-6.68 2-2.067 1.42-3.862 3.37-4.62 5.24-.284.7-.289 1.51-.068 2.37.246.95.767 1.98 1.43 2.97.74 1.11 1.652 2.19 2.518 3.12a35.67 35.67 0 0 0 2.882 2.74zM28.007 34.594s.078-.08.193-.24c.052-.07.116-.14.18-.22.041-.06.087-.11.13-.17.054-.08.11-.16.175-.23.08-.09.16-.18.272-.23.214-.1.447-.1.658-.06.425.08.77.28.77.28.121.1.296.07.39-.05s.07-.3-.052-.39c0 0-.486-.44-1.106-.62-.307-.1-.64-.1-.97-.01-.414.13-.758.41-.96.75-.102.17-.167.35-.199.52-.02.1-.03.18-.032.27-.002.17.011.26.011.26-.038.17.057.32.207.35s.3-.06.333-.21zM30.24 19.854c.097.12.194.23.302.33.115.11.237.2.363.27.105.07.213.12.323.17.171.07.346.13.52.17.471.1.93.11 1.33.08.752-.07 1.285-.29 1.285-.29.072-.03.11-.11.083-.18a.136.136 0 0 0-.178-.08s-.938.28-2.014.09c-.26-.04-.527-.12-.796-.23-.107-.05-.215-.09-.323-.15a3.097 3.097 0 0 1-.353-.18 3.035 3.035 0 0 1-.35-.2c-.056-.06-.145-.05-.197 0-.053.06-.05.15.005.2zM18.921 23.834c-.037.14-.087.26-.134.39-.049.13-.1.25-.155.36-.05.11-.102.22-.156.32-.135.26-.288.49-.458.69a4.741 4.741 0 0 1-1.605 1.22c-.072.03-.109.11-.083.18s.106.11.18.09c0 0 .55-.18 1.17-.61.33-.23.675-.53.967-.92.107-.14.207-.29.291-.46a2.386 2.386 0 0 0 .26-1.22c.01-.08-.046-.15-.122-.16s-.146.05-.155.12z"/><ellipse cx="26.994" cy="28.699" rx="3" ry="2" transform="rotate(-23 26.975 28.68)"/><circle cx="19.698" cy="27.244" r="1.5"/><circle cx="32.41" cy="22.977" r="1.5"/></g><path fill="#2a1700" d="M86.033 86.23c.721 0 1.615.33 2.242.85.496.41.82.94.826 1.5.006.67-.26 1.27-.69 1.71a2.43 2.43 0 0 1-1.703.72l-11.044.11c-.7 0-1.337-.28-1.799-.74a2.537 2.537 0 0 1-.757-1.8c-.003-.54.26-1.01.756-1.39.61-.46 1.618-.79 2.82-.99 1.428-.24 3.135-.31 4.7-.28 2.434.04 4.514.3 4.65.31zm-.027.56c.517.01 1.12.22 1.607.55.476.32.852.75.848 1.24-.007.48-.208.92-.527 1.23-.316.31-.75.5-1.226.49l-11.044-.11c-.444 0-.843-.18-1.13-.48-.287-.29-.46-.69-.458-1.13.002-.34.273-.57.654-.77.53-.29 1.274-.48 2.121-.63 1.38-.24 3.026-.34 4.538-.38 2.484-.08 4.606-.01 4.606-.01z"/><path fill="#2a1700" d="M84.58 82.78c.637 0 1.47.25 2.076.67.525.35.87.83.876 1.34.008.59-.254 1.12-.678 1.5-.394.36-.934.58-1.53.59l-8.282.1c-.624 0-1.192-.23-1.615-.59-.465-.4-.75-.97-.755-1.6-.003-.44.224-.83.67-1.14.476-.33 1.248-.59 2.164-.75 1.083-.19 2.372-.27 3.553-.27a36.96 36.96 0 0 1 3.521.15zm-.015.56c.454.01 1.014.18 1.48.44.455.26.84.6.836 1.01-.006.39-.193.74-.482.99-.28.24-.66.37-1.075.37l-8.282-.1c-.383 0-.73-.15-.987-.37-.252-.23-.41-.55-.407-.89.001-.08.044-.14.101-.2.088-.09.211-.17.356-.24.4-.21.954-.35 1.581-.47 1.038-.2 2.272-.31 3.404-.39 1.873-.13 3.47-.15 3.47-.15z"/><path fill="#2a1700" d="m82.704 77.52-.09.25c-.168.4-.492.62-.88.78s-.845.24-1.318.31c-.592.09-1.206.15-1.754.27-.479.1-.909.25-1.248.47-.53.34-.867.85-.864 1.65.006.67.323 1.27.844 1.69.452.37 1.056.59 1.72.58l4.145-.05a2.642 2.642 0 0 0 1.655-.6c.483-.41.78-.99.77-1.62-.01-.65-.113-1.55-.703-2.33-.402-.53-1.027-1.02-2.018-1.32zm.338.7c-.2.45-.553.76-.992 1-.5.27-1.127.43-1.768.56-.573.12-1.156.21-1.657.36-.6.18-1.088.43-1.088 1.11-.003.37.18.71.466.95.29.24.68.39 1.11.4l4.146.06c.45 0 .864-.14 1.172-.38.322-.26.535-.62.542-1.03.01-.54-.039-1.29-.506-1.96-.29-.41-.739-.79-1.425-1.07z"/><path fill="#939393" d="M80.587 74.61s.601-.42 1.041-1.15c.252-.42.446-.94.454-1.52.011-.82-.347-1.76-1.43-2.73-.94-.84-1.28-1.61-1.3-2.29-.039-1.38 1.23-2.31 1.23-2.31a.133.133 0 0 0 .031-.19.136.136 0 0 0-.194-.03s-1.435 1-1.437 2.54c0 .76.337 1.65 1.366 2.61.933.87 1.236 1.68 1.236 2.39 0 .5-.146.95-.335 1.32a4.46 4.46 0 0 1-.836 1.14c-.06.05-.07.14-.022.2s.136.07.196.02zM84.698 76.55s.665-.31 1.225-.95c.321-.37.603-.85.712-1.42.152-.8-.037-1.8-.935-2.94-.782-.99-.98-1.81-.883-2.48.201-1.36 1.611-2.06 1.611-2.06.07-.03.1-.11.066-.18s-.116-.1-.186-.07c0 0-1.586.74-1.856 2.25-.133.75.046 1.69.891 2.81.77 1.02.925 1.87.802 2.58-.087.49-.308.9-.558 1.23-.466.63-1.022.98-1.022.98-.067.04-.093.12-.056.19s.122.09.19.06zM77.82 78.44s.482-.56.732-1.37a3.06 3.06 0 0 0 .073-1.59c-.186-.79-.763-1.62-2.048-2.3-1.115-.58-1.632-1.25-1.814-1.9-.373-1.33.633-2.54.633-2.54a.144.144 0 0 0-.015-.2.14.14 0 0 0-.197.02s-1.15 1.32-.779 2.81c.182.74.726 1.52 1.957 2.21 1.115.61 1.606 1.33 1.78 2.02.12.48.085.95-.008 1.36-.172.75-.535 1.31-.535 1.31-.047.06-.035.15.026.19.061.05.148.04.195-.02z"/></g></svg>