<svg data-id="213-ea369811ec66d71-happy" xmlns="http://www.w3.org/2000/svg" viewBox="0 0 100 100"><g fill="none" fill-rule="evenodd" transform="translate(4 8)"><path fill="#7e87bd" d="M70.394 41.587s8.6-8.68 18.893-.831c-3.834.071-3.254 4.775-3.254 4.775s-4.65-5.88-6.14-.305c-1.917-4.644-9.499-3.64-9.499-3.64z"/><path fill="#f8f4ff" d="M89.287 40.756c-3.834.071-3.254 4.775-3.254 4.775s-1.768-3.32.37-4.999c-5.97-3.413-12.049-1.477-16.009 1.055.94-1.378 8.936-7.686 18.893-.831z"/><path fill="#5e4a7f" fill-rule="nonzero" d="M74.762 38.056c-1.298.553-3.767 1.966-4.794 3.109a.602.602 0 0 0 .505 1.017c6.694-.516 8.409 2.168 8.865 3.273a.6.6 0 0 0 1.134-.074c.578-2.163 1.512-2.4 3.021-1.406.423.278 1.381 1.067 2.07 1.928.379.476 1.14.157 1.065-.445s-.033-2.025.519-2.956c.429-.724 1.107-1.127 2.151-1.146a.6.6 0 0 0 .353-1.077c-5.062-3.86-10.149-4.244-14.89-2.223zm13.035 2.38c-1.287.463-2.216 1.938-2.348 3.589-2.767-2.578-4.553-2.219-5.684-.232-.6-.802-2.338-2.818-7.592-2.897 5.246-3.854 11.084-3.486 15.624-.46z"/><path fill="#7e87bd" d="M70 42.353s11.049-5.216 18.038 5.68c-3.628-1.244-4.691 3.374-4.691 3.374s-2.358-7.116-5.666-2.387c-.213-5.019-7.68-6.667-7.68-6.667z"/><path fill="#f8f4ff" d="M88.038 48.033c-3.628-1.244-4.691 3.374-4.691 3.374s-.526-3.725 2.058-4.57c-4.443-5.25-10.818-5.51-15.404-4.484 1.353-.973 11.025-4.167 18.037 5.68z"/><path fill="#5e4a7f" fill-rule="nonzero" d="M75.312 40.528c-1.408.076-4.212.56-5.568 1.283-.5.266-.44.97.127 1.128 6.467 1.804 7.16 4.913 7.21 6.107a.6.6 0 0 0 1.092.318c1.283-1.834 2.241-1.738 3.32-.288.301.406.933 1.475 1.284 2.52.194.577 1.018.537 1.155-.054s.661-1.914 1.497-2.6c.651-.534 1.426-.68 2.414-.342a.6.6 0 0 0 .7-.891c-3.437-5.357-8.086-7.459-13.231-7.18zm11.435 6.694c-1.368-.004-2.745 1.064-3.433 2.57-1.72-3.368-3.52-3.641-5.263-2.161-.29-.96-1.233-3.448-6.143-5.319 6.247-1.828 11.607.515 14.84 4.91z"/><path fill="#d2e0f5" d="M29.34 1.118s-3.1 5.368 1.22 9.778c.507.518 2.445.922 3.691 0 1.247-.923 2.059-3.185.935-4.57-4.332-2.363-5.846-5.208-5.846-5.208z"/><path fill="#f8f4ff" d="M29.34 1.118s-3.1 5.368 1.22 9.778c.076.078.185.154.32.223-2.859-3.683-1.157-7.761-.662-8.767-.616-.743-.878-1.234-.878-1.234z"/><path fill="#5e4a7f" fill-rule="nonzero" d="M29.87.836c1.741 2.846 5.016 4.643 5.603 4.963a.6.6 0 0 1 .179.148c1.274 1.571.598 4.216-1.044 5.431-1.322.979-3.62.814-4.477-.062a8.892 8.892 0 0 1-1.594-2.195c-1.158-2.278-1.3-5.246.284-8.303.219-.423.807-.377 1.049.018zm-.426 1.508c-1.748 4.876.976 7.5 1.544 8.132.278.31 2.04.681 3.04-.169.998-.85 1.42-2.516.781-3.482-.747-.449-1.304-.8-1.672-1.052-1.371-.942-2.527-1.95-3.693-3.43z"/><path fill="#ffd1eb" fill-rule="nonzero" d="M42.495 84.768c14.673 0 35 4.515 35-18.902 0-13.473-4.71-22.062-7.453-32.506-4.038-15.374-5.256-26.243-25.547-26.243S20.86 18.182 16.857 33.71c-2.667 10.352-5.547 19.998-4.362 32.156 2.297 23.563 15.327 18.902 30 18.902z"/><path fill="#f8f4ff" d="M44.495 7.117c20.29 0 21.51 10.87 25.547 26.243 2.743 10.444 7.453 19.033 7.453 32.506 0 7.32-1.986 11.91-5.164 14.762 2.589-2.889 4.164-7.243 4.164-13.762 0-13.473-4.71-22.062-7.453-32.506-4.038-15.374-5.256-26.243-25.547-26.243-8.721 0-14.312 2.045-18.17 5.609 3.876-4.18 9.663-6.609 19.17-6.609z"/><path fill="#5e4a7f" fill-rule="nonzero" d="M44.495 6.517c-9.777 0-16.135 2.52-20.39 7.693-3.32 4.033-5.029 8.558-7.683 18.786l-1.623 6.265-.265 1.047c-2.565 10.239-3.447 17.295-2.636 25.616l.108 1.02c1.034 9.035 3.77 14.266 8.369 16.789l.406.216c3.45 1.777 6.84 2.005 15.134 1.628l2.757-.123a91.16 91.16 0 0 1 3.565-.086l1.397.007c1.014.013 2.101.046 3.812.112l4.32.163.828.025c8.118.218 13.251-.404 17.413-2.682 5.312-2.908 8.088-8.387 8.088-17.127 0-7.845-1.158-13.057-4.502-23.127l-1.109-3.337c-.717-2.185-1.194-3.738-1.632-5.339l-.311-1.168c-.37-1.42-1.223-4.766-1.385-5.388l-.267-1.013c-1.943-7.262-3.567-11.044-6.49-14.128-3.736-3.943-9.333-5.849-17.904-5.849zm0 1.2c8.268 0 13.55 1.799 17.033 5.474 2.745 2.896 4.308 6.537 6.2 13.609l1.734 6.712.31 1.153c.529 1.903 1.126 3.786 2.121 6.77l.768 2.307c3.147 9.548 4.234 14.602 4.234 22.124 0 8.328-2.566 13.393-7.465 16.074-3.733 2.044-8.415 2.688-15.693 2.56l-1.728-.043-5.969-.222a113.45 113.45 0 0 0-2.393-.06l-1.152-.007c-1.58 0-2.934.04-5.31.149l-2.24.101c-7.702.32-10.788.021-13.993-1.737-4.366-2.395-6.952-7.567-7.86-16.873-.774-7.945.027-14.726 2.41-24.416l.46-1.835 1.9-7.327c2.454-9.305 4.115-13.546 7.17-17.258 4.007-4.871 10.02-7.255 19.463-7.255z"/><path fill="#7e87bd" d="m64.329 63.117-9.623.418 3.13 2.049c-11.484 5.655-4.084 26.55 18.699 16.635 5.05-2.198 5.753-11.224-.418-7.418-.567 1.672-2.738 3.822-4.142 4.22-16.03 4.542-21.44-4.754-13.171-12.111l.613 4.085z"/><path fill="#f8f4ff" d="m64.329 63.117-9.623.418 3.13 2.049c-11.484 5.655-4.084 26.55 18.699 16.635-22.31 6.889-28.035-9.62-18.597-16.263l.247-.58c-.886-.455-1.268-.71-1.147-.768 1.176-.552 3.606-1.05 7.29-1.49z"/><path fill="#5e4a7f" fill-rule="nonzero" d="m54.69 62.935 9.623-.417a.6.6 0 0 1 .535.917l-4.912 7.878-.06.081a.6.6 0 0 1-1.042-.31l-.442-2.947-.122.124c-6.972 7.217-.3 14.108 13.552 10.183 1.234-.35 3.241-2.375 3.737-3.836a.6.6 0 0 1 .253-.318c3.172-1.956 5.382-.9 5.332 1.98-.044 2.533-1.818 5.393-4.36 6.5-10.471 4.556-18.927 3.071-22.931-2.687l-.167-.246c-3.195-4.856-2.036-11.105 2.85-14.206l.149-.091-2.297-1.503c-.488-.32-.28-1.076.302-1.102zm8.538.83-6.623.288 1.57 1.029a.6.6 0 0 1-.064 1.04c-5.166 2.544-6.493 8.646-3.273 13.276 3.645 5.241 11.48 6.617 21.468 2.271 2.095-.912 3.602-3.342 3.638-5.42v-.154c-.03-1.652-1.037-2.166-3.107-1.015l-.221.126-.078.185c-.786 1.747-2.877 3.779-4.389 4.207-7.637 2.164-13.574 1.38-16.314-1.777-2.65-3.054-1.648-7.597 2.58-11.36l.074-.056a.6.6 0 0 1 .918.416l.373 2.476z"/><path fill="#f8f4ff" d="M25.483 42.663c-2.016-1.576-4.917-2.204-9.399 4.218 0 0 5.195-10.04 9.4-4.218z"/><g fill-rule="nonzero"><path fill="#5e4a7f" d="M19.114 41.286c1.823-1.65 3.828-1.877 5.728-.296 1.65 1.372 1.916 2.787.898 4.238-1.143 1.63-4.488 3.341-5.538 4.08-.271.191-.65.102-.83-.176a.609.609 0 0 1 .176-.83c.629-.443 4.238-2.456 5.218-3.775.645-.868.493-1.63-.691-2.615-1.401-1.165-2.745-1.012-4.155.264-1.213 1.098-2.362 2.973-3.206 5.044a.6.6 0 0 1-1.111-.453c.905-2.223 2.143-4.242 3.511-5.48z"/><path fill="#ffd1eb" d="M23.933 46.369c-1.321-2.036-.67-3.87 1.955-5.504l4.49 2.885.473 3.757c-3.291 1.277-5.597.898-6.918-1.138z"/></g><path fill="#f8f4ff" d="M25.054 41.68c-1.24 2.24-1.404 5.204 5.644 8.62 0 0-10.734-3.552-5.644-8.62z"/><path fill="#5e4a7f" fill-rule="nonzero" d="M24.637 47.98c-1.916-1.54-2.455-3.485-1.193-5.61 1.095-1.846 2.451-2.33 4.045-1.554 1.79.873 4.006 3.908 4.9 4.829.231.237.203.625-.043.847a.609.609 0 0 1-.848-.044c-.536-.551-3.092-3.8-4.548-4.56-.96-.5-1.688-.23-2.474 1.094-.93 1.567-.569 2.87.913 4.062 1.275 1.026 3.308 1.866 5.486 2.373a.6.6 0 1 1-.272 1.17c-2.338-.545-4.527-1.45-5.966-2.607z"/><path fill="#d2e0f5" d="M56.542 2.117s3.1 5.368-1.22 9.778c-.507.518-2.445.922-3.691 0-1.247-.923-2.059-3.185-.935-4.57 4.332-2.363 5.846-5.208 5.846-5.208z"/><path fill="#f8f4ff" d="M56.542 2.117s3.1 5.368-1.22 9.778a1.245 1.245 0 0 1-.32.223c2.859-3.683 1.157-7.761.662-8.767.616-.743.878-1.234.878-1.234z"/><path fill="#5e4a7f" fill-rule="nonzero" d="M56.012 1.835c-1.741 2.846-5.016 4.643-5.603 4.963a.6.6 0 0 0-.179.148c-1.274 1.571-.598 4.216 1.044 5.431 1.322.979 3.62.814 4.477-.062a8.892 8.892 0 0 0 1.594-2.195c1.158-2.278 1.3-5.246-.284-8.303-.219-.423-.807-.377-1.049.018zm.426 1.508c1.748 4.876-.976 7.5-1.544 8.132-.278.31-2.04.681-3.04-.169-.998-.85-1.42-2.516-.781-3.482.747-.449 1.304-.8 1.672-1.052 1.371-.942 2.527-1.95 3.693-3.43zM47.595 20.478a.75.75 0 0 1-.998.36 10.175 10.175 0 0 0-2.042-.686c-1.675-.386-3.465-.465-5.044-.367l-.376.028-.053.005c-.736.08-1.13-.842-.563-1.32.35-.295.97-.717 1.819-1.135 1.412-.695 2.967-1.113 4.62-1.113a.75.75 0 0 1 0 1.5c-.936 0-1.841.16-2.702.444l-.26.091.364.024c.674.053 1.355.142 2.028.274l.503.107c.847.195 1.632.456 2.344.79a.75.75 0 0 1 .36.998z"/><path fill="#5b4d81" fill-rule="nonzero" d="M31.43 24.28a5.048 5.048 0 0 0-1.634.221c-1.037.327-1.75 1-1.873 2.074-.12 1.054.37 1.91 1.227 2.565l.165.12.06.04-.03.017c-.91.562-1.468 1.393-1.436 2.49l.013.209c.109 1.15.818 1.882 1.864 2.235.495.167.994.232 1.43.237l.269-.005a.6.6 0 0 0 .022-1.196h-.119c-.35.011-.8-.032-1.218-.173-.634-.214-.994-.586-1.053-1.21-.066-.694.247-1.189.858-1.565.21-.13.44-.233.67-.312l.24-.072.046-.01c.605-.124.652-.971.064-1.16l-.116-.042a4.369 4.369 0 0 1-.876-.466c-.634-.443-.957-.958-.887-1.566.06-.535.414-.868 1.04-1.065.356-.112.734-.16 1.055-.167l.204.001.098-.002a.6.6 0 0 0 .063-1.183l-.107-.013z"/><ellipse cx="29.505" cy="17.883" fill="#52437a" rx="2" ry="3"/><path fill="#ff5163" d="M20.463 33.31c-.416 1.02-1.652 1.77-2.737 1.645 0 0-10.04-.512-13.207-5.78-2.426-4.037 1.28-9.367 7.055-7.556 1.112-5.95 7.558-6.72 9.984-2.683 3.166 5.268-1.095 14.374-1.095 14.374z"/><path fill="#a83440" fill-rule="nonzero" d="m11.015 20.7.043-.15c1.682-5.516 8.342-6.648 11.136-1.999 1.507 2.509 1.604 5.876.728 9.716a29.921 29.921 0 0 1-1.49 4.678l-.24.56-.057.125c-.503 1.235-1.938 2.144-3.298 2.088l-.62-.046a29.922 29.922 0 0 1-5.11-.906c-3.802-1.029-6.73-2.695-8.237-5.203-2.794-4.649 1.331-9.998 6.991-8.895zm-5.86 8.09c1.263 2.102 3.88 3.591 7.344 4.529a28.44 28.44 0 0 0 4.847.859l.41.03c.74.083 1.592-.395 1.94-1.04l.066-.14c.045-.097.102-.225.181-.411l.208-.505a28.44 28.44 0 0 0 1.309-4.179c.798-3.497.711-6.508-.552-8.61-2.219-3.692-7.673-2.545-8.603 2.435a.75.75 0 0 1-.962.578c-4.835-1.516-8.407 2.762-6.188 6.455z"/></g></svg>