<svg data-id="226-3cb4d79bb98e126-cry" xmlns="http://www.w3.org/2000/svg" viewBox="0 0 100 100"><g fill="none" fill-rule="evenodd" transform="translate(3 8)"><path fill="#7e87bd" d="m81.7 58.117 9.623.418L88.2 60.58c11.601 5.506 7.064 22.803-18.705 16.64l2.655-4.08c18.553 4.946 23.56-3.887 15.079-11.248l-.616 4.103z"/><path fill="#f8f4ff" d="m81.7 58.117 9.623.418L88.2 60.58c7.43 3.527 8.07 12.632 1.093 15.828 3.21-2.688 7.34-9.145-1.544-15.828.506-.727.607-1.137.302-1.229-1.81-.544-3.926-.955-6.35-1.234z"/><path fill="#5e4a7f" fill-rule="nonzero" d="M91.35 57.935c.547.024.764.696.381 1.041l-2.328 1.544c4.947 2.922 6.83 8.34 4.247 12.639-2.583 4.298-9.595 8.01-24.295 4.644-.249-.057.344-.334 1.78-.83 10.937 2.49 18.472-.007 21.231-4.036s.926-9.276-4.423-11.815a.6.6 0 0 1-.149-.984l1.64-1.085-6.622-.288 3.449 5.532.374-2.494c.061-.406.6-.706.987-.364 4.473 3.944 5.48 8.267 2.63 11.117-2.8 2.8-8.786 3.44-16.864 1.516l-1.083-1.511c8.411 2.242 14.515 1.73 17.098-.854 2.027-2.026 1.652-5.18-1.752-8.613l-.445 2.99a.603.603 0 0 1-1.09.251l-4.924-7.9a.6.6 0 0 1 .44-.914z"/><path fill="#7e87bd" d="M73.828 43.419s3.928-11.57 16.62-9.022c-3.416 1.744-.834 5.718-.834 5.718s-6.755-3.25-5.654 2.415c-3.757-3.335-10.132.889-10.132.889z"/><path fill="#f8f4ff" d="M90.448 34.397c-3.416 1.744-.834 5.718-.834 5.718s-3.044-2.211-1.856-4.656c-6.862-.454-11.48 3.95-13.93 7.96.24-1.65 4.667-10.824 16.62-9.022z"/><path fill="#5e4a7f" fill-rule="nonzero" d="M76.207 38.332c-.924 1.065-2.524 3.417-2.947 4.894a.602.602 0 0 0 .9.693c5.791-3.396 8.508-1.734 9.402-.94a.6.6 0 0 0 .987-.564c-.427-2.197.308-2.82 2.1-2.587.502.065 1.71.355 2.705.828.55.261 1.094-.359.763-.868s-.916-1.806-.828-2.884c.068-.839.501-1.497 1.432-1.972a.6.6 0 0 0-.155-1.123c-6.24-1.253-10.982.63-14.359 4.523zm12.76-3.57c-.953.98-1.142 2.713-.537 4.254-3.617-1.105-5.065 0-5.212 2.282-.89-.459-3.336-1.51-8.093.72 3.027-5.762 8.437-7.987 13.843-7.257z"/><path fill="#7e87bd" d="M17.638 43.419s-3.928-11.57-16.62-9.022c3.416 1.744.834 5.718.834 5.718s6.755-3.25 5.654 2.415c3.757-3.335 10.132.889 10.132.889z"/><path fill="#f8f4ff" d="M1.018 34.397c3.416 1.744.834 5.718.834 5.718s3.044-2.211 1.856-4.656c6.862-.454 11.48 3.95 13.93 7.96-.24-1.65-4.667-10.824-16.62-9.022z"/><path fill="#5e4a7f" fill-rule="nonzero" d="M15.259 38.332c.924 1.065 2.524 3.417 2.947 4.894a.602.602 0 0 1-.9.693c-5.791-3.396-8.508-1.734-9.402-.94a.6.6 0 0 1-.987-.564c.427-2.197-.308-2.82-2.1-2.587-.502.065-1.71.355-2.705.828-.55.261-1.094-.359-.763-.868s.916-1.806.828-2.884c-.068-.839-.501-1.497-1.432-1.972A.6.6 0 0 1 .9 33.809c6.24-1.253 10.982.63 14.359 4.523zm-12.76-3.57c.953.98 1.142 2.713.537 4.254 3.617-1.105 5.065 0 5.212 2.282.89-.459 3.336-1.51 8.093.72-3.027-5.762-8.437-7.987-13.843-7.257z"/><path fill="#dcd5e9" d="M45.495 83.767c14.673 0 33 4.516 33-18.902 0-13.472-2.71-22.062-5.453-32.505-4.038-15.374-7.256-26.243-27.547-26.243S21.859 17.182 17.857 32.709c-2.668 10.352-5.362 19.79-5.362 32.156 0 23.418 18.327 18.902 33 18.902z"/><path fill="#f8f4ff" d="M45.495 6.117c20.29 0 23.509 10.869 27.547 26.243 2.743 10.443 5.453 19.033 5.453 32.505 0 7.67-1.966 12.343-5.125 15.16 2.568-2.883 4.125-7.335 4.125-14.16 0-13.472-2.71-22.062-5.453-32.505-4.038-15.374-7.256-26.243-27.547-26.243-8.725 0-14.317 2.046-18.175 5.613l.217-.232c3.876-4.04 9.624-6.381 18.958-6.381z"/><path fill="#5e4a7f" fill-rule="nonzero" d="M45.495 5.517c-9.778 0-16.135 2.52-20.39 7.692-3.199 3.887-4.902 8.23-7.397 17.694s-5.813 21.4-5.813 33.962c0 9.287 3.09 15.163 8.293 17.61 7.639 3.595 15.028 1.89 27.312 1.89 4.995 0 16.152 1.646 23.302-1.89 5.59-2.763 8.293-8.323 8.293-17.61 0-13.624-3.14-23.9-5.763-33.755-2.623-9.857-4.278-14.125-7.507-18.02-4.226-5.098-10.552-7.573-20.33-7.573zm0 1.2c9.445 0 15.429 2.341 19.406 7.14 3.082 3.716 4.696 7.884 7.275 17.576 2.58 9.691 5.719 20.163 5.719 33.432 0 8.866-2.682 14.127-7.632 16.539-6.61 3.22-15.325 1.79-22.768 1.79-12.096 0-20.147 1.467-26.768-1.79-4.77-2.347-7.632-7.673-7.632-16.539 0-12.562 3.315-24.33 5.768-33.636 2.453-9.305 4.114-13.545 7.168-17.257C30.039 9.1 36.053 6.717 45.495 6.717z"/><path fill="#f8f4ff" d="M72.968 53.385c1.61-1.99 2.287-4.879-4.057-9.468 0 0 9.95 5.364 4.057 9.468z"/><path fill="#5e4a7f" fill-rule="nonzero" d="M74.452 47.041c1.619 1.85 1.812 3.858.2 5.731-1.4 1.626-2.82 1.868-4.253.826-1.61-1.17-3.264-4.544-3.985-5.606-.186-.274-.09-.651.19-.827a.609.609 0 0 1 .827.19c.432.637 2.384 4.28 3.685 5.28.858.66 1.621.522 2.626-.645 1.188-1.381 1.06-2.728-.193-4.159-1.077-1.23-2.932-2.412-4.988-3.29a.6.6 0 0 1 .471-1.103c2.208.942 4.205 2.214 5.42 3.603z"/><path fill="#f8f4ff" d="M19.36 53.456c-1.61-1.99-2.287-4.88 4.057-9.468 0 0-9.95 5.364-4.057 9.468z"/><path fill="#5e4a7f" fill-rule="nonzero" d="M17.854 47.326c-1.618 1.85-1.81 3.858-.199 5.731 1.4 1.626 2.82 1.868 4.253.826 1.61-1.17 3.264-4.544 3.985-5.606.186-.274.09-.651-.19-.827a.609.609 0 0 0-.828.19c-.431.637-2.383 4.28-3.684 5.28-.858.66-1.622.521-2.626-.646-1.189-1.38-1.06-2.727.193-4.158 1.077-1.23 2.932-2.412 4.988-3.29a.6.6 0 1 0-.472-1.104c-2.207.943-4.204 2.215-5.42 3.604z"/><path fill="#d2e0f5" d="M61.542 1.117s3.1 5.368-1.22 9.778c-.507.518-2.445.922-3.691 0-1.247-.923-2.059-3.185-.935-4.57 4.332-2.363 5.846-5.208 5.846-5.208z"/><path fill="#f8f4ff" d="M61.542 1.117s3.1 5.368-1.22 9.778a1.245 1.245 0 0 1-.32.223c2.859-3.683 1.157-7.761.662-8.767.616-.743.878-1.234.878-1.234z"/><path fill="#5e4a7f" fill-rule="nonzero" d="M61.012.835c-1.741 2.846-5.016 4.643-5.603 4.963a.6.6 0 0 0-.179.148c-1.274 1.571-.598 4.216 1.044 5.431 1.322.979 3.62.814 4.477-.062a8.892 8.892 0 0 0 1.594-2.195c1.158-2.278 1.3-5.246-.284-8.303-.219-.423-.807-.377-1.049.018zm.426 1.508c1.748 4.876-.976 7.5-1.544 8.132-.278.31-2.04.681-3.04-.169-.998-.85-1.42-2.516-.781-3.482.747-.449 1.304-.8 1.672-1.052 1.371-.942 2.527-1.95 3.693-3.43z"/><path fill="#d2e0f5" d="M29.34 1.118s-3.1 5.368 1.22 9.778c.507.518 2.445.922 3.691 0 1.247-.923 2.059-3.185.935-4.57-4.332-2.363-5.846-5.208-5.846-5.208z"/><path fill="#f8f4ff" d="M29.34 1.118s-3.1 5.368 1.22 9.778c.076.078.185.154.32.223-2.859-3.683-1.157-7.761-.662-8.767-.616-.743-.878-1.234-.878-1.234z"/><path fill="#5e4a7f" fill-rule="nonzero" d="M29.87.836c1.741 2.846 5.016 4.643 5.603 4.963a.6.6 0 0 1 .179.148c1.274 1.571.598 4.216-1.044 5.431-1.322.979-3.62.814-4.477-.062a8.892 8.892 0 0 1-1.594-2.195c-1.158-2.278-1.3-5.246.284-8.303.219-.423.807-.377 1.049.018zm-.426 1.508c-1.748 4.876.976 7.5 1.544 8.132.278.31 2.04.681 3.04-.169.998-.85 1.42-2.516.781-3.482-.747-.449-1.304-.8-1.672-1.052-1.371-.942-2.527-1.95-3.693-3.43z"/><path fill="#5b4d81" fill-rule="nonzero" d="M20.655 17.373a.6.6 0 0 0 .836-.146c.733-1.043 1.96-1.893 3.55-2.555a17.793 17.793 0 0 1 3.118-.95c.28-.06 1.078-.207 1.407-.243a.6.6 0 1 0-.132-1.193c-.33.037-1.128.177-1.524.261-1.133.241-2.266.575-3.33 1.017-1.78.742-3.187 1.716-4.07 2.973a.6.6 0 0 0 .145.836zM69.91 17.32a.6.6 0 0 1-.848-.027c-.723-.772-1.957-1.413-3.552-1.911a22.544 22.544 0 0 0-3.14-.718 31.51 31.51 0 0 0-1.42-.184.6.6 0 1 1 .1-1.196c.33.028 1.116.132 1.51.195 1.125.18 2.252.428 3.308.758 1.775.554 3.176 1.282 4.07 2.235a.6.6 0 0 1-.028.848z"/><ellipse cx="28.505" cy="19.883" fill="#52437a" rx="2" ry="3"/><ellipse cx="62.505" cy="20.883" fill="#52437a" rx="2" ry="3"/><path fill="#5b4d81" fill-rule="nonzero" d="M37.986 25.578c.307-.527 1.29-1.679 1.802-2.143 1.481-1.343 3.226-2.156 5.217-2.156 1.907 0 3.593.749 5.041 2 .517.447 1.658 1.766 1.973 2.292.316.526-.267 1.13-.804.834-.537-.297-1.188-.512-1.661-.66-1.36-.424-2.89-.68-4.55-.68s-3.187.256-4.548.68c-.473.148-1.128.365-1.661.66-.533.294-1.115-.301-.809-.827z"/><path fill="#78c9ff" d="M29.146 39a4.917 4.917 0 0 0 4.917-4.917c0-3.184-4.917-8.688-4.917-8.688S24.23 30.9 24.23 34.083A4.917 4.917 0 0 0 29.146 39z"/><path fill="#4ea7e0" fill-rule="nonzero" d="m28.699 24.996-.22.251a36.97 36.97 0 0 0-2.285 2.956 23.575 23.575 0 0 0-1.454 2.359c-.714 1.348-1.11 2.528-1.11 3.521a5.517 5.517 0 0 0 11.033 0c0-.993-.396-2.173-1.11-3.521-.4-.754-.891-1.545-1.455-2.358a36.97 36.97 0 0 0-1.718-2.278l-.435-.524-.351-.406a.6.6 0 0 0-.895 0zm.144 1.688.303-.367.304.367c.567.696 1.134 1.44 1.662 2.203a22.406 22.406 0 0 1 1.38 2.237c.631 1.19.971 2.203.971 2.96a4.317 4.317 0 1 1-8.634 0c0-.757.34-1.77.971-2.96.375-.708.843-1.46 1.381-2.237a35.788 35.788 0 0 1 1.662-2.203z"/></g></svg>