<svg data-id="228-4d5fbf71fc8cd19-dislike" xmlns="http://www.w3.org/2000/svg" viewBox="0 0 100 100"><g fill="none" fill-rule="evenodd" transform="translate(13 3)"><path fill="#d2e0f5" d="M48.553 4.63s4.75 3.985 2.198 9.607c-.3.66-1.982 1.704-3.47 1.263-1.487-.441-3.024-2.29-2.441-3.977 3.263-3.702 3.713-6.894 3.713-6.894z"/><path fill="#f8f4ff" d="M48.553 4.63s4.75 3.985 2.198 9.607c-.045.1-.122.209-.225.32 1.428-4.44-1.566-7.692-2.376-8.468.326-.909.403-1.46.403-1.46z"/><path fill="#5e4a7f" fill-rule="nonzero" d="M47.96 4.546c-.664 3.27-3.128 6.079-3.57 6.58a.6.6 0 0 0-.118.201c-.66 1.913.88 4.168 2.839 4.748 1.577.468 3.68-.473 4.187-1.59a8.894 8.894 0 0 0 .748-2.607c.309-2.538-.572-5.376-3.107-7.708-.35-.323-.888-.079-.98.376zm.915 1.271c3.31 3.986 1.648 7.385 1.33 8.172-.156.386-1.686 1.338-2.915.881-1.23-.457-2.196-1.879-1.925-3.005.548-.678.952-1.199 1.212-1.562.966-1.354 1.707-2.697 2.298-4.486z"/><path fill="#7e87bd" d="M60.394 45.587s8.6-8.68 18.893-.831c-3.834.071-3.254 4.775-3.254 4.775s-4.65-5.88-6.14-.305c-1.917-4.644-9.499-3.64-9.499-3.64z"/><path fill="#f8f4ff" d="M79.287 44.756c-3.834.071-3.254 4.775-3.254 4.775s-1.768-3.32.37-4.999c-5.97-3.413-12.049-1.477-16.009 1.055.94-1.378 8.936-7.686 18.893-.831z"/><path fill="#5e4a7f" fill-rule="nonzero" d="M64.762 42.056c-1.298.553-3.767 1.966-4.794 3.109a.602.602 0 0 0 .505 1.017c6.694-.516 8.409 2.168 8.865 3.273a.6.6 0 0 0 1.134-.074c.578-2.163 1.512-2.4 3.021-1.406.423.278 1.381 1.067 2.07 1.928.379.476 1.14.157 1.065-.445s-.033-2.025.519-2.956c.429-.724 1.107-1.127 2.151-1.146a.6.6 0 0 0 .353-1.077c-5.062-3.86-10.149-4.244-14.89-2.223zm13.035 2.38c-1.287.463-2.216 1.938-2.348 3.589-2.767-2.578-4.553-2.219-5.684-.232-.6-.802-2.338-2.818-7.592-2.897 5.246-3.854 11.084-3.486 15.624-.46z"/><path fill="#7e87bd" d="M60 46.353s11.049-5.216 18.038 5.68c-3.628-1.244-4.691 3.374-4.691 3.374s-2.358-7.116-5.666-2.387c-.213-5.019-7.68-6.667-7.68-6.667z"/><path fill="#f8f4ff" d="M78.038 52.033c-3.628-1.244-4.691 3.374-4.691 3.374s-.526-3.725 2.058-4.57c-4.443-5.25-10.818-5.51-15.404-4.484 1.353-.973 11.025-4.167 18.037 5.68z"/><path fill="#5e4a7f" fill-rule="nonzero" d="M65.312 44.528c-1.408.076-4.212.56-5.568 1.283-.5.266-.44.97.127 1.128 6.467 1.804 7.16 4.913 7.21 6.107a.6.6 0 0 0 1.092.318c1.283-1.834 2.241-1.738 3.32-.288.301.406.933 1.475 1.284 2.52.194.577 1.018.537 1.155-.054s.661-1.914 1.497-2.6c.651-.534 1.426-.68 2.414-.342a.6.6 0 0 0 .7-.891c-3.437-5.357-8.086-7.459-13.231-7.18zm11.435 6.694c-1.368-.004-2.745 1.064-3.433 2.57-1.72-3.368-3.52-3.641-5.263-2.161-.29-.96-1.233-3.448-6.143-5.319 6.247-1.828 11.607.515 14.84 4.91z"/><path fill="#dcd5e9" fill-rule="nonzero" d="M32.495 88.768c14.673 0 35 4.515 35-18.902 0-13.473-4.71-22.062-7.453-32.506-4.038-15.374-5.256-26.243-25.547-26.243S10.86 22.182 6.857 37.71C4.19 48.062 1.31 57.708 2.495 69.866c2.297 23.563 15.327 18.902 30 18.902z"/><path fill="#f8f4ff" d="M34.495 11.117c20.29 0 21.51 10.87 25.547 26.243 2.743 10.444 7.453 19.033 7.453 32.506 0 7.32-1.986 11.91-5.164 14.762 2.589-2.889 4.164-7.243 4.164-13.762 0-13.473-4.71-22.062-7.453-32.506-4.038-15.374-5.256-26.243-25.547-26.243-8.721 0-14.312 2.045-18.17 5.609 3.876-4.18 9.663-6.609 19.17-6.609z"/><path fill="#5e4a7f" fill-rule="nonzero" d="M34.495 10.517c-9.777 0-16.135 2.52-20.39 7.693-3.32 4.033-5.029 8.558-7.683 18.786l-1.623 6.265-.265 1.047C1.97 54.547 1.087 61.603 1.898 69.924l.108 1.02c1.034 9.035 3.77 14.266 8.369 16.789l.406.216c3.45 1.777 6.84 2.005 15.134 1.628l2.757-.123a91.16 91.16 0 0 1 3.565-.086l1.397.007c1.014.013 2.101.046 3.812.112l4.32.163.828.025c8.118.218 13.251-.404 17.413-2.682 5.312-2.908 8.088-8.387 8.088-17.127 0-7.845-1.158-13.057-4.502-23.127l-1.109-3.337c-.717-2.185-1.194-3.738-1.632-5.339l-.311-1.168c-.37-1.42-1.223-4.766-1.385-5.388l-.267-1.013c-1.943-7.262-3.567-11.044-6.49-14.128-3.736-3.943-9.333-5.849-17.904-5.849zm0 1.2c8.268 0 13.55 1.799 17.033 5.474 2.745 2.896 4.308 6.537 6.2 13.609l1.734 6.712.31 1.153c.529 1.903 1.126 3.786 2.121 6.77l.768 2.307c3.147 9.548 4.234 14.602 4.234 22.124 0 8.328-2.566 13.393-7.465 16.074-3.733 2.044-8.415 2.688-15.693 2.56l-1.728-.043-5.969-.222a113.45 113.45 0 0 0-2.393-.06l-1.152-.007c-1.58 0-2.934.04-5.31.149l-2.24.101c-7.702.32-10.788.021-13.993-1.737C6.586 84.286 4 79.114 3.092 69.808c-.774-7.945.027-14.726 2.41-24.416l.46-1.835 1.9-7.327c2.454-9.305 4.115-13.546 7.17-17.258 4.007-4.871 10.02-7.255 19.463-7.255z"/><path fill="#7e87bd" d="M39.574 69.583 37 66.777l.359 9.978 8.329-6.159-4.313.058c1.476-4.124 4.148-6.878 5.965-5.392 2.325 1.901 1.533 12.812 2.045 15.42.576 2.931 3.018 6.615 9.508 6.234 1.85-.109 7.513-1.1 6.887-7.213-3.473 2.391-9.957 3.107-11.726.462-2.889-4.319-2.675-15.115-4.669-17.261-4.49-4.834-9.143.324-9.81 6.68z"/><path fill="#f8f4ff" d="M39.574 69.583 37 66.777l.358 9.978c.184-.607.282-1.103.297-1.487.109-2.856.137-4.932.412-5.685.151-.413.947.156 1.428.347.172.069.318-.08.438-.445 2.058-7.948 5.847-8.998 8.519-6.052 1.939 2.138 1.845 12.109 4.3 16.732 2.003 3.774 9.697 3.774 13.028-.462-3.474 2.391-9.957 3.107-11.726.462-2.89-4.319-2.675-15.115-4.669-17.261-4.49-4.834-9.143.324-9.811 6.68z"/><path fill="#5e4a7f" fill-rule="nonzero" d="M49.821 62.495c.782.843 1.209 2.363 1.76 5.676l.556 3.472.083.499c.645 3.794 1.317 6.177 2.329 7.69 1.44 2.154 7.415 1.767 10.887-.623a.6.6 0 0 1 .937.433c.54 5.28-3.027 7.613-7.449 7.873-5.866.344-9.305-2.51-10.131-6.717l-.033-.183c-.104-.633-.149-1.522-.192-3.368l-.074-3.104c-.01-.34-.022-.646-.037-1.007l-.037-.76c-.2-3.705-.665-5.996-1.464-6.65l-.088-.065c-1.164-.788-3.134.942-4.524 4.16l-.093.221 3.425-.046c.582-.008.833.736.364 1.083l-8.329 6.159a.6.6 0 0 1-.956-.461l-.358-9.978.003-.096a.6.6 0 0 1 1.038-.331l1.724 1.877.024-.13c.546-2.753 1.81-5.171 3.477-6.535 2.215-1.814 4.846-1.577 7.158.911zm15.402 18.298.001-.046-.046.026c-3.997 2.19-9.863 2.363-11.627-.274-1.05-1.57-1.73-3.818-2.358-7.268l-.24-1.392-.55-3.44c-.506-3.028-.908-4.491-1.461-5.087-1.888-2.032-3.803-2.204-5.52-.8-1.675 1.372-2.937 4.107-3.255 7.134l-.017.093a.6.6 0 0 1-1.022.25l-1.473-1.608.259 7.214 5.915-4.374-2.45.033a.6.6 0 0 1-.573-.802c1.66-4.64 4.675-7.483 6.91-5.655 1.213.993 1.715 3.54 1.921 7.876l.052 1.285.106 4.258c.037 1.183.082 1.825.16 2.27l.015.08c.714 3.635 3.634 6.059 8.884 5.75 3.52-.206 6.29-1.846 6.369-5.523z"/><path fill="#f8f4ff" d="M13.513 57.974c-2.407.875-5.362.573-7.635-6.924 0 0 1.831 11.16 7.635 6.924z"/><path fill="#5e4a7f" fill-rule="nonzero" d="M7.027 57.31c1.223 2.135 3.06 2.972 5.357 2.058 1.995-.794 2.686-2.058 2.167-3.754-.582-1.905-3.234-4.57-4.004-5.598-.198-.265-.587-.297-.844-.089a.609.609 0 0 0-.09.845c.462.615 3.271 3.649 3.794 5.207.345 1.026-.036 1.703-1.467 2.273-1.694.674-2.925.113-3.87-1.538-.814-1.42-1.327-3.56-1.487-5.792a.6.6 0 0 0-1.198.087c.172 2.395.724 4.699 1.642 6.302z"/><path fill="#f8f4ff" d="M30.18 59.144c-2.07-1.505-3.472-4.121 1.468-10.197 0 0-8.222 7.758-1.467 10.197z"/><path fill="#5e4a7f" fill-rule="nonzero" d="M27.138 53.612c-1.084 2.206-.75 4.196 1.292 5.588 1.774 1.208 3.207 1.074 4.322-.304 1.252-1.548 1.976-5.234 2.398-6.447.108-.313-.082-.653-.399-.75a.609.609 0 0 0-.749.399c-.252.726-1.194 4.75-2.192 6.054-.657.86-1.431.924-2.704.056-1.506-1.026-1.73-2.36-.89-4.066.721-1.469 2.207-3.09 3.966-4.47a.6.6 0 1 0-.741-.945c-1.888 1.483-3.488 3.228-4.303 4.885z"/><path fill="#d2e0f5" d="M22.213 5.816s-3.9 4.82-.321 9.85c.42.591 2.272 1.293 3.647.576 1.376-.717 2.53-2.826 1.637-4.37-3.911-3.01-4.963-6.056-4.963-6.056z"/><path fill="#f8f4ff" d="M22.213 5.816s-3.9 4.82-.321 9.85c.063.09.16.181.282.27-2.25-4.084.067-7.848.714-8.765-.494-.83-.675-1.355-.675-1.355z"/><path fill="#5e4a7f" fill-rule="nonzero" d="M22.78 5.62c1.276 3.083 4.232 5.369 4.762 5.777a.6.6 0 0 1 .153.175c1.014 1.75-.066 4.258-1.878 5.202-1.46.761-3.703.24-4.414-.76a8.894 8.894 0 0 1-1.233-2.416c-.788-2.432-.466-5.386 1.576-8.16.282-.383.857-.246 1.034.182zm-.656 1.423c-2.488 4.545-.206 7.563.257 8.275.226.35 1.91.992 3.03.308 1.118-.684 1.795-2.264 1.315-3.318a35.532 35.532 0 0 1-1.489-1.301c-1.207-1.144-2.191-2.321-3.113-3.964z"/><circle cx="34.005" cy="28.383" r="2.5" fill="#52437a"/><circle cx="51.005" cy="26.383" r="2.5" fill="#52437a"/><path fill="#5c4c81" d="M45.021 33.532c4.757-1.099 7.855 2.586 7.09 3.703s-2.49-.143-6.076.686c-3.374.779-4.37 2.667-5.548 1.999s-.223-5.289 4.534-6.388z"/><g fill="#5e4a7f" fill-rule="nonzero"><path d="M62.635 21.61c.418.112.713.329.805.69.063.244.046.517-.035.823a2.26 2.26 0 0 1-.263.604c-.215.348-.589.474-.989.367-.226-.061-.67-.198-.82-.629s-.087-.86 0-1.187.307-.566.625-.657c.228-.065.457-.07.677-.011zM66.772 1.083c.352.094.59.348.688.7l.031.303-.31 1.87-.317 1.942a265.49 265.49 0 0 1-.683 4.018c-.241 1.36-.502 2.71-.783 4.052a71.305 71.305 0 0 1-.918 3.87c-.168.626-.694.884-1.34.711a1.35 1.35 0 0 1-.613-.338c-.277-.274-.275-.642-.128-.983l1.457-5.346.347-1.375c.007-.023.855-5.375.876-5.519.316-2.035.478-3.07.488-3.106.06-.229.172-.428.33-.588.232-.234.548-.299.875-.211zM73.43 31.753c.426.076.739.266.862.618.084.238.091.511.036.823-.038.215-.335 1.076-1.162 1.076-.235 0-.431-.156-.585-.334a1.533 1.533 0 0 1-.278-.487c-.06-.166-.17-.583-.112-.917s.256-.59.566-.71c.22-.084.448-.108.673-.069zM75.767 10.942c.511 0 .684.463.813.804-.34 4.45-.552 7.132-.633 8.048-.122 1.376-.784 6.781-1.006 8.041-.113.638-.614.941-1.273.825a1.35 1.35 0 0 1-.64-.283c-.3-.25-.33-.617-.214-.97l1.214-6.852c.004-.024.598-8.658.607-8.712.042-.234.134-.442.28-.616.21-.252.34-.286.852-.285z"/></g></g></svg>