<svg data-id="23-f6f1a6361729678-dog" xmlns="http://www.w3.org/2000/svg" viewBox="0 0 100 100"><g fill="none" fill-rule="evenodd"><path fill="#ff608b" d="M66.273 39.126c-.94 1.119-8.146 1.4-8.857-1.186-.71-2.585 3.041-2.821 3.471-3.334.43-.513-.001-4.23 2.683-3.996 2.684.234 3.641 7.398 2.703 8.516z"/><path fill="#222" d="M24.334 54.068s-2.634 17.133.35 17.494c2.982.36-.116-10.142 7.36-14.077.464-.738-7.71-3.417-7.71-3.417z"/><path fill="#404040" d="M61.297 32.43c.042-.798-.953-4.326-5.461-6.754-4.509-2.428-10.599-.295-10.599-.295s.009 6.544 4.976 9.364c3.67 2.085 11.544 1.632 11.084-2.316z"/><path fill="#393939" d="M53.123 30.3c-3.154 0-5.506.857-7.343 2.2-3.852-1.933-8.208-1.459-12.946-1.863-1.952-.167-4.482 1.982-4.482 1.982 4.288 8.13 8.546 11.527 11.973 12.893.415 1.671 1.104 3.41 1.925 5.001-6.814-2.536-7.824-11.817-19.489-8.249-13.457 4.117-9.31 32.977-4.865 32.977 2.329 0-.335-8.097 1.666-12.525 1.992-4.408 4.735-3.305 5.798-3.305 4.183 0 8.488 9.879 13.862 9.879-.121 1.618.271 3.81 1.467 5.125 2.259 2.483 10.78 4.194 11.609 1.8.809-2.34-6.743-2.77-7.401-4.947-.052-.171-.21-1.948-.21-1.948 2.335 0 4.18-.992 4.18-.992s.844 2.177 3.43 3.201c3.376 1.336 10.911 2.478 10.911.288 0-2.19-4.857-1.692-7.555-3.743-1.882-1.431-1.666-3.636-1.516-3.886.528-.884 1.75-2.902 2.61-5.427l-.093-.005c1.31 0 3.284 1.386 4.675 1.779 1.047.295 1.762-.345 1.63-.482-1.01-1.042-4.085-3.378-5.026-5.557 3.676 1.326 7.978.484 9.84 0 7.87-2.047 11.24-5.215 9.568-11.313-1.612-5.883-7.506-1.526-10.185-3.473-1.503-1.092-6.598-9.41-14.033-9.41z"/><path fill="#ff608b" d="M62.916 42.169c-.996 1.067-8.205.97-8.78-1.648-.573-2.618 3.184-2.658 3.64-3.147.457-.49.22-4.223 2.887-3.849 2.668.374 3.248 7.577 2.253 8.644z"/><path fill="#fd7d8b" d="M63.692 83.248c-2.217-2.462 14.904-21.492 17.161-23.524 1.873-1.687 4.689-1.734 6.86-.294.445.295.674.823 1.052 1.242.422.469.95.81 1.21 1.344 1.103 2.276.734 4.978-1.094 6.624-2.257 2.032-22.972 17.07-25.19 14.608z"/><path fill="#593a30" d="M42.847 34.052c-4.666-4.636-7.495-1.78-14.184-4.32 5.286 10.85 11.111 12.341 11.111 12.341s.331-5.466 3.073-8.021z"/><path fill="#000" d="M45.6 25.63c.02.49.106 1.62.47 2.96.26.94.658 2 1.276 3 .082.13-.389.43-.47.3-.678-1.04-1.127-2.14-1.425-3.13-.568-1.89-.584-3.4-.584-3.4 0-.15.097-.29.243-.34 0 0 2.472-.9 5.463-.95 1.78-.03 3.738.25 5.48 1.17 1.106.59 2.09 1.39 2.928 2.3.566.62 1.07 1.28 1.503 1.95.489.758.896 1.516 1.223 2.225.075.161-.38 1.115-.438.997a20.745 20.745 0 0 0-1.583-2.682c-.429-.62-.907-1.23-1.439-1.81-.769-.83-1.644-1.59-2.649-2.14-1.585-.87-3.383-1.15-5.02-1.15-2.304-.02-4.297.5-4.978.7z"/><path fill="#b64444" d="M61.385 33.85c.093-.38.207-.84.362-1.29.131-.38.302-.74.555-1.03.271-.3.657-.48 1.235-.43.378.03.705.25.997.58.42.47.765 1.14 1.037 1.88.545 1.49.803 3.27.726 4.43-.029.44-.088.78-.227.96-.099.11.328.47.427.35.2-.22.348-.66.418-1.25.147-1.24-.029-3.15-.538-4.76-.277-.88-.659-1.67-1.127-2.23-.459-.55-1.012-.88-1.627-.94-.976-.08-1.628.26-2.052.8-.312.4-.504.91-.603 1.44-.094.49-.109 1-.134 1.41-.023.15.53.23.551.08z"/><g fill="#000"><path d="M19.361 44.128c-2.873-1.92-6.202-4.918-8.153-8.538-1.782-3.31-2.533-7.22-1.127-11.54a.448.448 0 0 1 .537-.29c.23.05.376.28.338.51-.639 4 .782 7.61 3.161 10.58 1.192 1.48 2.624 2.8 4.18 3.93 1.6 1.16 3.65 2.29 5.386 2.98-2.58.866-4.195 2.458-4.322 2.368zM23.37 59.59a47.222 47.222 0 0 0-.523 4.34c-.043.6-.07 1.19-.08 1.76-.019.955.011 1.858.081 2.66.102 1.148.305 2.095.615 2.707.294.581.695.9 1.166.951.636.07 1.084-.186 1.406-.72.391-.649.57-1.817.75-3.245.261-2.063.573-4.713 1.881-6.983.08-.13.035-.3-.097-.38s-.303-.04-.382.1c-1.915 3.1-2.003 6.952-2.529 9.084-.098.397-.209.726-.362.966-.133.208-.307.32-.559.286-.2-.027-.323-.217-.443-.468-.259-.54-.395-1.374-.47-2.378a32.54 32.54 0 0 1-.062-2.57c.003-.56.013-1.14.026-1.72.016-.72.038-1.45.062-2.17.024-.74.043-1.47.075-2.17a.273.273 0 0 0-.25-.3.271.271 0 0 0-.305.25zM45.062 69.644l.176 1.521c.156.498.758.848 1.503 1.187 1.55.705 3.74 1.234 4.957 1.98.885.541 1.292 1.215 1.018 2.027-.188.56-.684.972-1.42 1.211-.929.302-2.276.334-3.728.144-1.518-.198-3.155-.628-4.524-1.216-1.159-.498-2.126-1.115-2.706-1.763a5.839 5.839 0 0 1-1.347-2.629c-.25-1.103-.263-2.477.044-4.264a.28.28 0 0 1 .552.075c-.173 1.687-.073 2.965.216 3.982a5.146 5.146 0 0 0 1.238 2.197c.515.557 1.382 1.053 2.395 1.483 1.295.55 2.831.98 4.262 1.182 1.291.184 2.491.197 3.322-.059.423-.13.746-.315.86-.633.15-.425-.174-.719-.634-1.012-1.18-.752-3.32-1.3-4.825-2.019-.964-.46-1.674-1.013-1.864-1.667a6.179 6.179 0 0 1-.086-.648c-.057-.58-.12-1.373-.12-1.373a.338.338 0 0 1 .335-.366c.941.01 1.868-.169 2.673-.402a12.917 12.917 0 0 0 2.531-1.028.28.28 0 0 1 .281.482s-1.102.66-2.635 1.137c-.749.233-1.599.421-2.474.471z"/><path d="M54.44 64.35c-.003.01-.035.16-.044.29-.023.38.024.96.274 1.571a3.639 3.639 0 0 0 1.217 1.555c1.06.79 2.462 1.163 3.75 1.481 1.071.265 2.07.493 2.778.841.792.39 1.252.935 1.26 1.73.002.531-.274.946-.796 1.236-.57.318-1.5.476-2.615.482-1.237.005-2.715-.157-4.138-.438-1.503-.298-2.943-.729-3.99-1.16a6.779 6.779 0 0 1-2.113-1.41c-1.056-1.046-1.392-1.944-1.392-1.944a.278.278 0 1 1 .52-.202s.377.741 1.374 1.605c.49.425 1.124.84 1.934 1.134.883.333 2.054.637 3.293.89 1.124.23 2.304.416 3.385.498 1.231.094 2.33.071 3.036-.176.325-.113.57-.246.57-.516.004-.437-.299-.7-.732-.923-.657-.337-1.59-.555-2.586-.82-1.383-.368-2.879-.818-4.006-1.692a4.403 4.403 0 0 1-1.714-3.792c.025-.3.092-.5.138-.58.316-.51.88-1.42 1.468-2.6.402-.8.816-1.73 1.173-2.74a.278.278 0 0 1 .528.18c-.343 1.04-.747 2-1.14 2.83-.57 1.2-1.12 2.13-1.433 2.67z"/><path d="M56.661 59.22c-.959.01-1.819-.06-2.573-.25-.4-.1-.77-.24-1.108-.4-.417-.2-.788-.44-1.107-.72-.335-.3-.61-.64-.839-1.02a.28.28 0 0 1 .055-.39.284.284 0 0 1 .39.06c.257.28.555.5.88.71.303.19.635.35.998.49.303.12.626.21.972.3.71.17 1.513.29 2.42.3a.39.39 0 0 1 .182.04c1.04.48 1.934.87 2.683 1.19.75.31 1.351.54 1.806.68.608.19 1.09.01 1.26-.16a.285.285 0 0 1 .085-.2c.11-.1.287-.1.394.01a.33.33 0 0 1 .093.28c-.01.13-.17.39-.506.57-.339.18-.867.31-1.507.15-.479-.12-1.114-.32-1.907-.61-.749-.27-1.639-.61-2.67-1.03z"/></g><path fill="#e45555" d="M62.803 60.5c-1.314-1.2-2.37-2.24-3.17-3.12-.948-1.05-1.68-2.172-1.922-2.772-.031-.073 2.018.324 3.97.363 1.793.036 3.498-.29 3.56-.25.84.5 1.625 1.07 2.332 1.69.494.44.946.9 1.354 1.38a12.56 12.56 0 0 1 1.405 1.98c.45.81.751 1.6.896 2.33.221 1.11.07 2.08-.469 2.79-.645.84-1.886 1.342-3.893 1.123-.615-.064-1.079-.344-1.456-.764-.446-.51-.765-1.24-1.097-2.04-.377-.91-.778-1.91-1.51-2.71z"/><path fill="#b64444" d="M63.101 55.69c.235.15.46.33.718.51.225.17.457.34.702.52.203.15.417.3.63.46.46.35.93.75 1.372 1.21.642.66 1.244 1.44 1.724 2.35.065.14.231.2.371.14.14-.06.2-.23.135-.37a10.832 10.832 0 0 0-2.68-3.83c-.24-.22-.484-.42-.734-.6a4.88 4.88 0 0 0-.535-.34 4.873 4.873 0 0 0-.72-.34c-.269-.1-.52-.16-.768-.22a.28.28 0 0 0-.365.15c-.059.14.008.3.15.36z"/><path fill="#000" d="M54.122 52.98c2.098 1.46 4.467 2.15 6.666 2.41 3.17.38 5.98-.15 7.107-.43 1.903-.49 3.548-1.04 4.926-1.68 1.904-.9 3.307-1.97 4.207-3.26 1.274-1.82 1.563-4.08.763-6.96-.476-1.71-1.295-2.62-2.27-3.1-1.264-.61-2.832-.46-4.355-.29-.843.1-1.67.21-2.41.14-.508-.04-.972-.16-1.357-.43-1.013-.73-3.662-4.71-7.542-7.23-1.956-1.27-4.217-2.19-6.734-2.17-1.475.01-2.778.2-3.937.53a11.25 11.25 0 0 0-3.57 1.76c-.124.1-.152.27-.06.39.09.13.265.028.39-.072.974-.7 2.094-1.128 3.405-1.498 1.112-.31 2.361-.48 3.772-.47 2.378.02 4.503.91 6.34 2.13 2.597 1.73 4.618 4.12 5.956 5.7.656.77 1.162 1.35 1.494 1.59.911.67 2.163.7 3.513.58 1.6-.15 3.348-.52 4.696.15.782.39 1.398 1.16 1.77 2.54.688 2.54.467 4.55-.666 6.15-.82 1.16-2.108 2.1-3.83 2.91-1.329.63-2.91 1.18-4.743 1.66-1.073.29-3.744.82-6.78.55-2.105-.19-4.389-.74-6.44-2.06a.28.28 0 0 0-.388.07c-.086.13-.05.3.077.39zM29.548 35.27c.29.6.566 1.17.867 1.7.328.58.668 1.11 1.018 1.61a23.44 23.44 0 0 0 2.455 2.94c2.27 2.33 4.398 3.53 6.334 4.25.143.06.305-.01.362-.15a.286.286 0 0 0-.156-.37c-1.52-.65-3.14-1.64-4.854-3.29-.802-.78-1.617-1.7-2.463-2.79-.314-.41-.628-.84-.959-1.29-.34-.46-.69-.94-1.058-1.44-.342-.47-.705-.94-1.066-1.45a.278.278 0 1 0-.48.28z"/><path fill="#000" d="M74.487 39.87c-.578.21-1.033.71-1.284 1.32-.168.41-.22.87-.168 1.32.022.19.075.38.144.57.235.58.604.95 1.113 1.05.36.07.818.01 1.378-.3.897-.49 1.5-1 1.813-1.54a1.9 1.9 0 0 0 .15-1.72c-.209-.55-.628-.87-1.145-.99-.634-.15-1.416-.01-2 .29z"/><path fill="#939393" d="M4.941 28.75s-.022.61.177 1.57c.091.44.23.96.44 1.51.32.85.808 1.8 1.495 2.77 1.018 1.44 2.5 2.91 4.63 4.14.078.05.181.03.23-.05a.168.168 0 0 0-.059-.23c-2.024-1.27-3.4-2.75-4.353-4.17a14.061 14.061 0 0 1-1.386-2.67c-.21-.53-.374-1.01-.496-1.42-.266-.9-.343-1.47-.343-1.47a.173.173 0 0 0-.175-.16.178.178 0 0 0-.16.18zM14.16 26.14s-.158.58-.182 1.57c-.01.45.01.98.09 1.57.12.9.382 1.93.833 3.03.67 1.63 1.78 3.4 3.578 5.08.067.07.173.06.237 0a.172.172 0 0 0-.004-.24c-1.689-1.68-2.697-3.44-3.305-5.04a14.105 14.105 0 0 1-.749-2.91c-.087-.57-.137-1.07-.164-1.5-.057-.93-.005-1.5-.005-1.5a.175.175 0 0 0-.135-.2.177.177 0 0 0-.194.14zM5.282 37.5s.247.56.85 1.34c.273.36.623.76 1.057 1.17.66.62 1.513 1.26 2.556 1.83 1.545.84 3.523 1.52 5.978 1.69.092.01.173-.06.181-.15s-.06-.17-.152-.18c-2.373-.25-4.262-.98-5.74-1.84a14.188 14.188 0 0 1-2.417-1.79c-.422-.38-.779-.74-1.069-1.06-.632-.69-.95-1.17-.95-1.17a.161.161 0 0 0-.227-.06.159.159 0 0 0-.067.22z"/><path fill="#000" d="M41.424 49.71c-.43-.95-.93-2.21-1.272-3.65-.355-1.5-.538-3.2-.295-4.95a.279.279 0 0 1 .553.07c-.189 1.67.032 3.29.407 4.72.51 1.94 1.311 3.54 1.786 4.43.075.15.053.32-.056.45a.392.392 0 0 1-.435.1c-2.302-.83-3.977-2.41-5.597-4.03-1.56-1.56-3.067-3.17-5.123-4.1-2.066-.94-4.687-1.18-8.485-.01-4.69 1.43-7.129 6-8.188 11.22-1.277 6.29-.536 13.556.934 17.711.416 1.176.884 2.098 1.388 2.656.282.311.56.507.855.508.205 0 .323-.135.41-.34.14-.337.193-.82.211-1.404.085-2.747-.67-7.49.713-10.52.731-1.61 1.563-2.51 2.374-3.02 1.535-.95 2.853-.69 3.756-.48s2.538.83 3.836 2.04c2.172 2.03 4.436 5.15 6.931 6.81.992.66 2.02 1.086 3.095 1.09a.28.28 0 0 1 0 .558c-1.183.004-2.32-.443-3.416-1.162-2.53-1.658-4.846-4.787-7.053-6.817-1.16-1.07-2.49-1.566-3.393-1.84-.903-.273-2.007-.47-3.382.4-.72.45-1.44 1.28-2.084 2.72-.853 1.9-.807 4.498-.699 6.808.095 2.01.231 3.814-.045 4.83-.203.746-.615 1.138-1.254 1.14-.49.002-.992-.254-1.463-.768-.563-.615-1.104-1.625-1.573-2.926-1.533-4.258-2.346-11.714-1.064-18.184 1.11-5.6 3.8-10.44 8.82-11.98 4.113-1.25 6.952-.96 9.18.07 2.16.99 3.743 2.69 5.363 4.35 1.281 1.32 2.583 2.63 4.265 3.5zM45.683 32.73a.275.275 0 0 0 .213-.22.271.271 0 0 0-.114-.28 15.641 15.641 0 0 0-3.854-2.07 20.988 20.988 0 0 0-4.24-1.08 26.326 26.326 0 0 0-4.359-.29c-2.578.03-4.363.39-4.363.39a.741.741 0 0 0-.153.05s-2.415 1.41-4.492 3.22c-1.013.89-1.944 1.86-2.497 2.82-.072.12-.082.27-.025.4s.173.23.312.26c.73.16 1.795.14 3.091 0 3.085-.32 7.528-1.29 11.722-1.76 1.608-.18 3.108-.39 4.397-.61 2.617-.43 4.362-.83 4.362-.83z"/><path fill="#b64444" d="M57.446 37.07c.015-.03.041-.1.056-.15.042-.15.081-.34.125-.54.15-.71.352-1.62.814-2.29.463-.66 1.16-1.11 2.282-.94.588.09 1.1.44 1.515.99.435.57.774 1.36 1.011 2.24.44 1.63.538 3.54.344 4.76-.092.58-.26 1.02-.467 1.24-.31.36-1.224.67-2.389.79-1.096.12-2.416.09-3.605-.14-.906-.17-1.736-.47-2.347-.87-.599-.4-.996-.91-1.127-1.51-.245-1.15.174-1.9.843-2.42.643-.49 1.552-.75 2.254-.94.203-.05.385-.1.532-.15.054-.02.125-.05.16-.07zM62.72 42c-.077.07-.2.12-.354.18-.288.1-.674.16-1.12.2-.585.06-1.267.05-1.973 0-.649-.05-1.316-.14-1.944-.28-.766-.18-1.47-.42-1.989-.77-.362-.25-.633-.53-.715-.9-.153-.68.078-1.13.47-1.44.641-.51 1.612-.71 2.228-.9.39-.12.67-.26.791-.39s.238-.42.32-.82c.132-.63.247-1.63.703-2.31.292-.44.745-.73 1.477-.64.4.05.736.31 1.027.67.398.5.706 1.2.934 1.97.452 1.53.592 3.33.438 4.49-.058.43-.143.77-.293.94z"/><path fill="#1fce6d" d="m87.97 59.5 2.697-4.444 1.473.123-2.693 3.809 5.3-4.987.89.891-5.34 5.04 4.306-2.511.249 1.395-5.405 2.325z"/><path fill="#ffb1b9" d="m66.268 77.055-.61.857s.562.446.8.74c.38.474 1.296 1.311 1.296 1.311s-.506-1.148-.758-1.795c-.144-.37-.728-1.113-.728-1.113zm8.675 1.366s-.889-.687-1.335-.923c-.782-.414-2.16-1.22-2.16-1.22s.944 1.272 1.494 1.82c.342.34.934 1.037.934 1.037zM72.81 68.65l-.804.913s.52.54.824.915c.487.604 1.653 1.676 1.653 1.676s-.658-1.455-.987-2.276c-.188-.469-.686-1.228-.686-1.228zm5.928-1.707c-.877-.665-1.874-1.41-1.874-1.41s.428.508.88 1.227c.013.021.54 1.02.638 1.188.042.071 1.006 1.224 1.666 1.85 1.1 1.043 2.486 2.031 2.486 2.031l-1.235-1.921s-.816-.858-1.295-1.56c-.146-.213-.808-1.058-1.266-1.405zm.705-5.802-.786.866s.63.662.934 1.038c.487.604 1.653 1.676 1.653 1.676s-.658-1.455-.987-2.276c-.188-.469-.814-1.304-.814-1.304zm10.651 5.823s-.64-.58-1.086-.816c-.782-.413-2.16-1.22-2.16-1.22s.944 1.272 1.493 1.82c.342.34 1.21 1.183 1.21 1.183s.22-.368.325-.556c.076-.134.218-.411.218-.411z"/><path fill="#b64444" d="M63.467 83.434c.331.372 1.015.466 1.972.24 1.542-.365 3.886-1.507 6.514-3.016 6.89-3.956 15.756-10.428 17.195-11.71 1.004-.898 1.606-2.09 1.801-3.368a6.455 6.455 0 0 0-.585-3.76c-.097-.2-.224-.38-.37-.55-.27-.31-.613-.58-.905-.91-.257-.28-.443-.62-.68-.9a2.3 2.3 0 0 0-.455-.42 6.503 6.503 0 0 0-3.758-1.11c-1.34.03-2.64.5-3.68 1.43-.852.76-3.812 3.91-7.04 7.697a151.953 151.953 0 0 0-3.303 4.016 101.165 101.165 0 0 0-3.138 4.155c-1.759 2.474-3.117 4.706-3.624 6.212-.315.936-.286 1.63.056 1.994zm.434-.353c.1.096.25.137.437.151.263.02.588-.025.965-.118 1.503-.37 3.775-1.517 6.326-3.014 6.8-3.99 15.544-10.487 16.96-11.774.847-.769 1.347-1.786 1.504-2.876a5.574 5.574 0 0 0-.532-3.24 1.644 1.644 0 0 0-.242-.35c-.27-.31-.613-.57-.904-.89-.265-.29-.459-.63-.702-.92-.08-.09-.166-.17-.268-.24a5.623 5.623 0 0 0-3.224-.94 4.702 4.702 0 0 0-3.058 1.21c-.839.76-3.729 3.89-6.93 7.624a215.849 215.849 0 0 0-3.325 3.961 125.134 125.134 0 0 0-3.193 4.06c-1.77 2.361-3.17 4.48-3.714 5.925-.136.363-.22.678-.23.94-.01.198.014.36.11.471z"/><path fill="#939393" d="M4.443 24.94c-.026-.39.045-.8.185-1.21.126-.37.313-.74.551-1.1.198-.3.43-.59.694-.87a6.644 6.644 0 0 1 2.12-1.51c1.697-.77 3.833-.85 5.997.47.052.03.121.01.154-.04a.108.108 0 0 0-.036-.15c-2.232-1.43-4.473-1.38-6.262-.62-1.06.46-1.968 1.16-2.61 1.97-.363.46-.64.95-.818 1.44-.203.56-.272 1.13-.197 1.64.006.06.061.11.122.1.062 0 .106-.06.1-.12z"/><path fill="#939393" d="M7.025 18.58c.321-.39.706-.72 1.13-.98.418-.26.878-.46 1.366-.6.93-.26 1.96-.3 2.982-.09a7.157 7.157 0 0 1 4.788 3.46c.03.05.098.07.152.04s.073-.1.042-.15a7.408 7.408 0 0 0-4.907-3.71c-1.083-.23-2.183-.22-3.167.07-.523.15-1.013.39-1.447.69-.434.31-.81.69-1.118 1.14a.117.117 0 0 0 .023.16.12.12 0 0 0 .156-.03z"/></g></svg>