<svg data-id="231-8a3e22cbd78994c-smile" xmlns="http://www.w3.org/2000/svg" viewBox="0 0 100 100"><g fill="none" fill-rule="evenodd"><path fill="#7e87bd" d="m87.23 65.766 9.246.818-6.124 7.434.26-3.964c-5.261.545-.802 7.83-1.795 12.884-.688 3.503-4.24 8.004-14.967 4.313L76 81.182c18.936 5.048 3.86-10.616 13.556-13.045z"/><path fill="#f8f4ff" d="m87.23 65.766 9.246.818-7.59.449c.715.463 1.03.918.947 1.365-3.453 1.566-3.091 2.67-2.604 8.8.487 6.13-3.946 6.13-5.934 5.712.338-1.621 4.303-.505 4.687-2.985.525-3.385-2.023-10.386 3.574-11.788z"/><path fill="#5e4a7f" fill-rule="nonzero" d="M87.187 65.167a.6.6 0 0 0-.386 1.02l1.638 1.67-.12.047c-2.575 1.038-3.207 3.137-2.915 6.84l.152 1.638c.229 2.603.104 3.628-.658 4.375-1.117 1.096-3.824 1.157-8.743-.154a.6.6 0 0 0-.72.379l-2.15 6.068a.6.6 0 0 0 .37.768c9.337 3.213 14.683.67 15.75-4.764.219-1.112.209-2.336.02-3.857l-.051-.387c-.042-.3-.086-.588-.142-.928l-.392-2.296c-.268-1.651-.312-2.37-.197-3.14l.03-.17c.142-.715.478-1.175 1.111-1.425l.178-.063-.209 3.19c-.038.582.692.871 1.062.422l6.125-7.434a.6.6 0 0 0-.41-.98zm1.61 1.34 6.492.574-4.217 5.118.14-2.106a.6.6 0 0 0-.661-.636c-1.849.192-2.848 1.166-3.095 2.812-.15 1.006-.084 1.84.276 3.973l.28 1.624c.073.427.125.762.173 1.11.22 1.582.249 2.798.043 3.846l-.044.208c-.965 4.322-5.173 6.405-12.996 4.024l-.569-.18 1.763-4.973.243.062c4.823 1.201 7.668 1.068 9.114-.35 1.082-1.06 1.266-2.236 1.04-5.006l-.153-1.66c-.35-3.866.247-5.52 3.075-6.228a.6.6 0 0 0 .283-1.002z"/><path fill="#7e87bd" d="M77.828 52.419s3.928-11.57 16.62-9.022c-3.416 1.744-.834 5.718-.834 5.718s-6.755-3.25-5.654 2.415c-3.757-3.335-10.132.889-10.132.889z"/><path fill="#f8f4ff" d="M94.448 43.397c-3.416 1.744-.834 5.718-.834 5.718s-3.044-2.211-1.856-4.656c-6.862-.454-11.48 3.95-13.93 7.96.24-1.65 4.667-10.824 16.62-9.022z"/><path fill="#5e4a7f" fill-rule="nonzero" d="M80.207 47.332c-.924 1.065-2.524 3.417-2.947 4.894a.602.602 0 0 0 .9.693c5.791-3.396 8.508-1.734 9.402-.94a.6.6 0 0 0 .987-.564c-.427-2.197.308-2.82 2.1-2.587.502.065 1.71.355 2.705.828.55.261 1.094-.359.763-.868s-.916-1.806-.828-2.884c.068-.839.501-1.497 1.432-1.972a.6.6 0 0 0-.155-1.123c-6.24-1.253-10.982.63-14.359 4.523zm12.76-3.57c-.953.98-1.142 2.713-.537 4.254-3.617-1.105-5.065 0-5.212 2.282-.89-.459-3.336-1.51-8.093.72 3.027-5.762 8.437-7.987 13.843-7.257z"/><path fill="#7e87bd" d="M21.638 52.419s-3.928-11.57-16.62-9.022c3.416 1.744.834 5.718.834 5.718s6.755-3.25 5.654 2.415c3.757-3.335 10.132.889 10.132.889z"/><path fill="#f8f4ff" d="M5.018 43.397c3.416 1.744.834 5.718.834 5.718s3.044-2.211 1.856-4.656c6.862-.454 11.48 3.95 13.93 7.96-.24-1.65-4.667-10.824-16.62-9.022z"/><path fill="#5e4a7f" fill-rule="nonzero" d="M19.259 47.332c.924 1.065 2.524 3.417 2.947 4.894a.602.602 0 0 1-.9.693c-5.791-3.396-8.508-1.734-9.402-.94a.6.6 0 0 1-.987-.564c.427-2.197-.308-2.82-2.1-2.587-.502.065-1.71.355-2.705.828-.55.261-1.094-.359-.763-.868s.916-1.806.828-2.884c-.068-.839-.501-1.497-1.432-1.972a.6.6 0 0 1 .155-1.123c6.24-1.253 10.982.63 14.359 4.523zm-12.76-3.57c.953.98 1.142 2.713.537 4.254 3.617-1.105 5.065 0 5.212 2.282.89-.459 3.336-1.51 8.093.72-3.027-5.762-8.437-7.987-13.843-7.257z"/><path fill="#dcd5e9" d="M49.495 92.767c14.673 0 33 4.516 33-18.902 0-13.472-2.71-22.062-5.453-32.505-4.038-15.374-7.256-26.243-27.547-26.243S25.859 26.182 21.857 41.709c-2.668 10.352-5.362 19.79-5.362 32.156 0 23.418 18.327 18.902 33 18.902z"/><path fill="#f8f4ff" d="M49.495 15.117c20.29 0 23.509 10.869 27.547 26.243 2.743 10.443 5.453 19.033 5.453 32.505 0 7.67-1.966 12.343-5.125 15.16 2.568-2.883 4.125-7.335 4.125-14.16 0-13.472-2.71-22.062-5.453-32.505-4.038-15.374-7.256-26.243-27.547-26.243-8.725 0-14.317 2.046-18.175 5.613l.217-.232c3.876-4.04 9.624-6.381 18.958-6.381z"/><path fill="#5e4a7f" fill-rule="nonzero" d="M49.495 14.517c-9.778 0-16.135 2.52-20.39 7.692-3.199 3.887-4.902 8.23-7.397 17.694s-5.813 21.4-5.813 33.962c0 9.287 3.09 15.163 8.293 17.61 7.639 3.595 15.028 1.89 27.312 1.89 4.995 0 16.152 1.646 23.302-1.89 5.59-2.763 8.293-8.323 8.293-17.61 0-13.624-3.14-23.9-5.763-33.755-2.623-9.857-4.278-14.125-7.507-18.02-4.226-5.098-10.552-7.573-20.33-7.573zm0 1.2c9.445 0 15.429 2.341 19.406 7.14 3.082 3.716 4.696 7.884 7.275 17.576 2.58 9.691 5.719 20.163 5.719 33.432 0 8.866-2.682 14.127-7.632 16.539-6.61 3.22-15.325 1.79-22.768 1.79-12.096 0-20.147 1.467-26.768-1.79-4.77-2.347-7.632-7.673-7.632-16.539 0-12.562 3.315-24.33 5.768-33.636 2.453-9.305 4.114-13.545 7.168-17.257 4.008-4.872 10.022-7.255 19.464-7.255z"/><path fill="#f8f4ff" d="M76.968 62.385c1.61-1.99 2.287-4.879-4.057-9.468 0 0 9.95 5.364 4.057 9.468z"/><path fill="#5e4a7f" fill-rule="nonzero" d="M78.452 56.041c1.619 1.85 1.812 3.858.2 5.731-1.4 1.626-2.82 1.868-4.253.826-1.61-1.17-3.264-4.544-3.985-5.606-.186-.274-.09-.651.19-.827a.609.609 0 0 1 .827.19c.432.637 2.384 4.28 3.685 5.28.858.66 1.621.522 2.626-.645 1.188-1.381 1.06-2.728-.193-4.159-1.077-1.23-2.932-2.412-4.988-3.29a.6.6 0 0 1 .471-1.103c2.208.942 4.205 2.214 5.42 3.603z"/><path fill="#f8f4ff" d="M23.36 62.456c-1.61-1.99-2.287-4.88 4.057-9.468 0 0-9.95 5.364-4.057 9.468z"/><path fill="#5e4a7f" fill-rule="nonzero" d="M21.854 56.326c-1.618 1.85-1.81 3.858-.199 5.731 1.4 1.626 2.82 1.868 4.253.826 1.61-1.17 3.264-4.544 3.985-5.606.186-.274.09-.651-.19-.827a.609.609 0 0 0-.828.19c-.431.637-2.383 4.28-3.684 5.28-.858.66-1.622.521-2.626-.646-1.189-1.38-1.06-2.727.193-4.158 1.077-1.23 2.932-2.412 4.988-3.29a.6.6 0 1 0-.472-1.104c-2.207.943-4.204 2.215-5.42 3.604z"/><path fill="#d2e0f5" d="M65.542 10.117s3.1 5.368-1.22 9.778c-.507.518-2.445.922-3.691 0-1.247-.923-2.059-3.185-.935-4.57 4.332-2.363 5.846-5.208 5.846-5.208z"/><path fill="#f8f4ff" d="M65.542 10.117s3.1 5.368-1.22 9.778a1.245 1.245 0 0 1-.32.223c2.859-3.683 1.157-7.761.662-8.767.616-.743.878-1.234.878-1.234z"/><path fill="#5e4a7f" fill-rule="nonzero" d="M65.012 9.835c-1.741 2.846-5.016 4.643-5.603 4.963a.6.6 0 0 0-.179.148c-1.274 1.571-.598 4.216 1.044 5.431 1.322.979 3.62.814 4.477-.062a8.892 8.892 0 0 0 1.594-2.195c1.158-2.278 1.3-5.246-.284-8.303-.219-.423-.807-.377-1.049.018zm.426 1.508c1.748 4.876-.976 7.5-1.544 8.132-.278.31-2.04.681-3.04-.169-.998-.85-1.42-2.516-.781-3.482.747-.449 1.304-.8 1.672-1.052 1.371-.942 2.527-1.95 3.693-3.43z"/><path fill="#d2e0f5" d="M33.34 10.118s-3.1 5.368 1.22 9.778c.507.518 2.445.922 3.691 0 1.247-.923 2.059-3.185.935-4.57-4.332-2.363-5.846-5.208-5.846-5.208z"/><path fill="#f8f4ff" d="M33.34 10.118s-3.1 5.368 1.22 9.778c.076.078.185.154.32.223-2.859-3.683-1.157-7.761-.662-8.767-.616-.743-.878-1.234-.878-1.234z"/><path fill="#5e4a7f" fill-rule="nonzero" d="M33.87 9.836c1.741 2.846 5.016 4.643 5.603 4.963a.6.6 0 0 1 .179.148c1.274 1.571.598 4.216-1.044 5.431-1.322.979-3.62.814-4.477-.062a8.892 8.892 0 0 1-1.594-2.195c-1.158-2.278-1.3-5.246.284-8.303.219-.423.807-.377 1.049.018zm-.426 1.508c-1.748 4.876.976 7.5 1.544 8.132.278.31 2.04.681 3.04-.169.998-.85 1.42-2.516.781-3.482-.747-.449-1.304-.8-1.672-1.052-1.371-.942-2.527-1.95-3.693-3.43z"/><g fill="#5e4a7f" fill-rule="nonzero" transform="translate(4 9)"><ellipse cx="33" cy="18" rx="2" ry="3"/><ellipse cx="59" cy="18" rx="2" ry="3"/><path d="m53.683 20.49-.02.013c-.42.258-1.144.604-2.148.934-1.61.53-3.456.846-5.515.846-2.146 0-4.054-.342-5.703-.909a12.472 12.472 0 0 1-1.491-.617l-.218-.112a4.085 4.085 0 0 1-.264-.15c-.598-.383-1.222.393-.785.89l.08.08c.48.419 1.269.942 2.362 1.432 1.723.772 3.733 1.23 6.019 1.23 2.38 0 4.456-.495 6.216-1.32 1.068-.502 1.8-1.01 2.188-1.364.54-.492-.102-1.339-.721-.952z"/></g></g></svg>