<svg data-id="233-68d1fac40266030-sticker" xmlns="http://www.w3.org/2000/svg" viewBox="0 0 100 100"><g fill="none" fill-rule="evenodd"><path fill="#7e87bd" d="M77.386 45.012s11.983-2.383 16.123 9.882c-3.218-2.087-5.369 2.137-5.369 2.137s-.563-7.476-4.918-3.69c1.01-4.92-5.836-8.33-5.836-8.33z"/><path fill="#f8f4ff" d="M93.509 54.894c-3.218-2.087-5.369 2.137-5.369 2.137s.393-3.742 3.104-3.936c-3.037-6.17-9.16-7.966-13.858-8.083 1.55-.617 11.706-1.37 16.123 9.882z"/><path fill="#5e4a7f" fill-rule="nonzero" d="M82.981 44.529c-1.384-.268-4.221-.478-5.712-.106a.602.602 0 0 0-.15 1.126c5.836 3.318 5.755 6.501 5.515 7.672a.6.6 0 0 0 .982.574c1.689-1.47 2.595-1.144 3.29.525.195.466.548 1.657.636 2.756.048.606.857.768 1.133.227s1.105-1.697 2.083-2.16c.761-.36 1.548-.314 2.424.254a.6.6 0 0 0 .895-.695c-2.035-6.03-6.036-9.196-11.096-10.173zm9.472 9.265c-1.326-.336-2.921.367-3.954 1.662-.851-3.685-2.532-4.387-4.581-3.373-.049-1-.361-3.644-4.67-6.649 6.503-.259 11.135 3.313 13.205 8.36z"/><path fill="#7e87bd" d="M22.64 44.767S10.444 44.07 8.047 56.79c2.897-2.512 5.613 1.371 5.613 1.371s-.48-7.48 4.358-4.335c-1.683-4.733 4.624-9.06 4.624-9.06z"/><path fill="#f8f4ff" d="M8.046 56.79c2.897-2.512 5.613 1.371 5.613 1.371s-.908-3.65-3.62-3.466c2.152-6.531 7.965-9.16 12.602-9.928-1.62-.396-11.783.267-14.595 12.023z"/><path fill="#5e4a7f" fill-rule="nonzero" d="M17.033 45.065c1.334-.457 4.114-1.06 5.642-.897.564.06.772.734.305 1.093-5.32 4.096-4.798 7.238-4.397 8.364a.6.6 0 0 1-.893.704c-1.876-1.22-2.729-.772-3.185.976-.128.49-.313 1.718-.247 2.818.036.607-.743.88-1.09.382s-1.331-1.526-2.364-1.85c-.803-.25-1.576-.096-2.365.588a.6.6 0 0 1-.983-.564c1.179-6.255 4.702-9.944 9.577-11.614zm-8.095 10.49c1.267-.517 2.944-.042 4.146 1.097.332-3.767 1.9-4.696 4.07-3.976-.091-.998-.149-3.659 3.703-7.232-6.477.645-10.569 4.825-11.919 10.11z"/><path fill="#fff1b4" d="M50.495 90.767c14.673 0 33 4.516 33-18.902 0-13.472-2.71-22.062-5.453-32.505-4.038-15.374-7.256-26.243-27.547-26.243S26.859 24.182 22.857 39.709c-2.668 10.352-5.362 19.79-5.362 32.156 0 23.418 18.327 18.902 33 18.902z"/><path fill="#fff" d="M50.495 13.117c20.29 0 23.509 10.869 27.547 26.243 2.743 10.443 5.453 19.033 5.453 32.505 0 7.67-1.966 12.343-5.125 15.16 2.568-2.883 4.125-7.335 4.125-14.16 0-13.472-2.71-22.062-5.453-32.505-4.038-15.374-7.256-26.243-27.547-26.243-8.725 0-14.317 2.046-18.175 5.613l.217-.232c3.876-4.04 9.624-6.381 18.958-6.381z"/><path fill="#5e4a7f" fill-rule="nonzero" d="M50.495 12.517c-9.778 0-16.135 2.52-20.39 7.692-3.199 3.887-4.902 8.23-7.397 17.694s-5.813 21.4-5.813 33.962c0 9.287 3.09 15.163 8.293 17.61 7.639 3.595 15.028 1.89 27.312 1.89 4.995 0 16.152 1.646 23.302-1.89 5.59-2.763 8.293-8.323 8.293-17.61 0-13.624-3.14-23.9-5.763-33.755-2.623-9.857-4.278-14.125-7.507-18.02-4.226-5.098-10.552-7.573-20.33-7.573zm0 1.2c9.445 0 15.429 2.341 19.406 7.14 3.082 3.716 4.696 7.884 7.275 17.576 2.58 9.691 5.719 20.163 5.719 33.432 0 8.866-2.682 14.127-7.632 16.539-6.61 3.22-15.325 1.79-22.768 1.79-12.096 0-20.147 1.467-26.768-1.79-4.77-2.347-7.632-7.673-7.632-16.539 0-12.562 3.315-24.33 5.768-33.636 2.453-9.305 4.114-13.545 7.168-17.257 4.008-4.872 10.022-7.255 19.464-7.255z"/><path fill="#f8f4ff" d="M79.105 55.212c1.04-2.34.945-5.306-6.372-8.096 0 0 11 2.605 6.372 8.096z"/><path fill="#5e4a7f" fill-rule="nonzero" d="M78.896 48.699c2.042 1.368 2.749 3.258 1.677 5.484-.931 1.934-2.24 2.535-3.894 1.9-1.859-.715-4.33-3.544-5.302-4.384-.25-.216-.256-.606-.03-.848a.609.609 0 0 1 .848-.03c.582.503 3.41 3.516 4.927 4.146 1 .415 1.701.083 2.37-1.304.79-1.642.316-2.909-1.264-3.967-1.36-.91-3.457-1.57-5.67-1.886a.6.6 0 0 1 .169-1.188c2.376.338 4.635 1.05 6.169 2.077z"/><path fill="#f8f4ff" d="M21.887 55.123c-1.61-1.99-2.287-4.88 4.057-9.468 0 0-9.95 5.364-4.057 9.468z"/><path fill="#5e4a7f" fill-rule="nonzero" d="M20.381 48.993c-1.618 1.85-1.81 3.858-.199 5.731 1.4 1.626 2.82 1.868 4.253.826 1.61-1.17 3.264-4.544 3.985-5.606.186-.274.09-.651-.19-.827a.609.609 0 0 0-.828.19c-.431.637-2.383 4.28-3.684 5.28-.858.66-1.622.521-2.626-.646-1.189-1.38-1.06-2.727.193-4.158 1.077-1.23 2.932-2.412 4.988-3.29a.6.6 0 1 0-.472-1.104c-2.207.943-4.204 2.215-5.42 3.604z"/><path fill="#d2e0f5" d="M66.542 8.117s3.1 5.368-1.22 9.778c-.507.518-2.445.922-3.691 0-1.247-.923-2.059-3.185-.935-4.57 4.332-2.363 5.846-5.208 5.846-5.208z"/><path fill="#f8f4ff" d="M66.542 8.117s3.1 5.368-1.22 9.778a1.245 1.245 0 0 1-.32.223c2.859-3.683 1.157-7.761.662-8.767.616-.743.878-1.234.878-1.234z"/><path fill="#5e4a7f" fill-rule="nonzero" d="M66.012 7.835c-1.741 2.846-5.016 4.643-5.603 4.963a.6.6 0 0 0-.179.148c-1.274 1.571-.598 4.216 1.044 5.431 1.322.979 3.62.814 4.477-.062a8.892 8.892 0 0 0 1.594-2.195c1.158-2.278 1.3-5.246-.284-8.303-.219-.423-.807-.377-1.049.018zm.426 1.508c1.748 4.876-.976 7.5-1.544 8.132-.278.31-2.04.681-3.04-.169-.998-.85-1.42-2.516-.781-3.482.747-.449 1.304-.8 1.672-1.052 1.371-.942 2.527-1.95 3.693-3.43z"/><path fill="#d2e0f5" d="M34.34 8.118s-3.1 5.368 1.22 9.778c.507.518 2.445.922 3.691 0 1.247-.923 2.059-3.185.935-4.57-4.332-2.363-5.846-5.208-5.846-5.208z"/><path fill="#f8f4ff" d="M34.34 8.118s-3.1 5.368 1.22 9.778c.076.078.185.154.32.223-2.859-3.683-1.157-7.761-.662-8.767-.616-.743-.878-1.234-.878-1.234z"/><path fill="#5e4a7f" fill-rule="nonzero" d="M34.87 7.836c1.741 2.846 5.016 4.643 5.603 4.963a.6.6 0 0 1 .179.148c1.274 1.571.598 4.216-1.044 5.431-1.322.979-3.62.814-4.477-.062a8.892 8.892 0 0 1-1.594-2.195c-1.158-2.278-1.3-5.246.284-8.303.219-.423.807-.377 1.049.018zm-.426 1.508c-1.748 4.876.976 7.5 1.544 8.132.278.31 2.04.681 3.04-.169.998-.85 1.42-2.516.781-3.482-.747-.449-1.304-.8-1.672-1.052-1.371-.942-2.527-1.95-3.693-3.43z"/><path fill="#7e87bd" d="M82.895 78.744c-2.398 5.325-7.407 5.94-9.615 6.241-2.909.396-4.72.204-8.325 1.574-3.568 1.356-4.716 2.441-8.147 3.533l1.113-3.536-7.866 4.923 8.827 3.844-2.255-3.79c3.997.791 6.135-1.53 9.767-2.334 6.17-1.366 6.82.944 12.505-1.527 3.21-1.395 7.614-5.621 3.996-8.928z"/><path fill="#f8f4ff" d="M82.896 78.744c-2.4 5.325-7.408 5.94-9.616 6.241l-.679.085c-2.531.29-4.33.229-7.646 1.49-3.568 1.355-4.029 1.902-7.46 2.993l.426-2.997-7.866 4.923c3.901-1.815 6.148-2.767 6.742-2.856 1.584-.237-.924 1.983-.116 1.76 5-1.384 8.129-2.958 9.885-3.347 6.17-1.366 8.032-.907 11.465-2.184 2.71-1.008 3.837-2.415 4.865-6.108z"/><path fill="#5e4a7f" fill-rule="nonzero" d="M83.297 78.302c1.886 1.724 1.996 3.859.663 5.947-1.045 1.636-2.96 3.164-4.825 3.974-2.393 1.04-3.941 1.326-5.95 1.247l-.563-.031c-.337-.022-.882-.06-1.043-.069-1.722-.102-3.106-.017-5.059.415l-.394.094c-.77.196-1.468.457-2.604.944l-1.147.493c-.312.13-.534.218-.805.319l-.327.117c-1.072.368-2.06.556-3.091.546l-.383-.013 1.626 2.733c.298.5-.221 1.089-.755.856l-8.827-3.844a.6.6 0 0 1-.079-1.058l7.866-4.923.085-.045a.6.6 0 0 1 .806.733l-.757 2.402.17-.062a25.31 25.31 0 0 0 2.107-.919l1.225-.606c1.319-.655 2.252-1.077 3.503-1.553 1.9-.722 3.311-1.049 5.158-1.26l2.279-.225c.273-.029.523-.058.771-.09l.897-.122c2.487-.366 4.39-1.034 6.064-2.477 1.002-.864 1.822-1.96 2.438-3.326a.6.6 0 0 1 .951-.197zm-.255 1.49-.163.29a10.317 10.317 0 0 1-2.188 2.651c-1.788 1.542-3.771 2.284-6.274 2.693l-.816.121-.243.033a32.89 32.89 0 0 1-.78.097l-1.054.106-1.036.099c-1.987.2-3.372.497-5.323 1.239a32.92 32.92 0 0 0-2.98 1.3l-1.25.62c-1.46.723-2.5 1.162-3.948 1.623l-.092.022a.6.6 0 0 1-.662-.774l.626-1.984-5.524 3.456 6.078 2.647-1.304-2.19a.6.6 0 0 1 .632-.895c1.449.286 2.67.165 4.102-.325l.31-.11c.364-.136.64-.248 1.215-.496l.384-.166c1.582-.686 2.401-.99 3.51-1.235 1.92-.425 3.345-.535 5.002-.462l.933.056c.29.02.601.04.718.047 1.996.116 3.394-.112 5.742-1.132 1.656-.72 3.384-2.097 4.292-3.52.846-1.325.952-2.559.192-3.674z"/><g fill-rule="nonzero"><path fill="#5b4d81" d="M60.3 31.4a3.3 3.3 0 0 1 3.3 3.3.6.6 0 0 1-1.2 0 2.1 2.1 0 0 0-4.195-.15l-.005.15a3.3 3.3 0 0 1-6.595.187L51.6 34.7a2.1 2.1 0 0 0-4.195-.15l-.005.15a3.3 3.3 0 0 1-6.595.187L40.8 34.7a2.1 2.1 0 1 0-4.2 0 .6.6 0 0 1-1.2 0 3.3 3.3 0 0 1 6.595-.187L42 34.7a2.1 2.1 0 0 0 4.195.15l.005-.15a3.3 3.3 0 0 1 6.595-.187l.005.187a2.1 2.1 0 0 0 4.195.15L57 34.7a3.3 3.3 0 0 1 3.3-3.3zM60.574 21.578a.6.6 0 0 1 .848-.004c1.602 1.586 5.017 2.566 10.109 2.827a.6.6 0 1 1-.062 1.198c-5.36-.275-9.028-1.326-10.891-3.173a.6.6 0 0 1-.004-.848zM39.078 21.574a.6.6 0 1 1 .844.852c-1.863 1.847-5.53 2.898-10.891 3.173a.6.6 0 1 1-.062-1.198c5.092-.261 8.507-1.24 10.109-2.827z"/><g fill="#5e4a7f"><path d="M69.343 26.884a.75.75 0 0 1 .412 1.439l-3.677.794 3.58.767c.37.08.655.52.575.89s-.42.62-.79.591l-7.1-1.514c-.751-.161-.789-1.187-.113-1.435zM29.657 26.884a.75.75 0 0 0-.412 1.439l3.677.794-3.58.767c-.37.08-.618.421-.59.79s.436.72.804.691l7.101-1.514c.751-.161.789-1.187.113-1.435z"/></g></g></g></svg>