<svg data-id="235-a5a2886ee56a823-question" xmlns="http://www.w3.org/2000/svg" viewBox="0 0 100 100"><g fill="none" fill-rule="evenodd" transform="translate(8 5)"><path fill="#7e87bd" d="m74.23 60.766 9.246.818-6.124 7.434.26-3.964c-5.261.545-.802 7.83-1.795 12.884-.688 3.503-4.24 8.004-14.967 4.313L63 76.182c18.936 5.048 3.86-10.616 13.556-13.045z"/><path fill="#f8f4ff" d="m74.23 60.766 9.246.818-7.59.449c.715.463 1.03.918.947 1.365-3.453 1.566-3.091 2.67-2.604 8.8.487 6.13-3.946 6.13-5.934 5.712.338-1.621 4.303-.505 4.687-2.985.525-3.385-2.023-10.386 3.574-11.788z"/><path fill="#5e4a7f" fill-rule="nonzero" d="M74.187 60.167a.6.6 0 0 0-.386 1.02l1.638 1.67-.12.047c-2.575 1.038-3.207 3.137-2.915 6.84l.152 1.638c.229 2.603.104 3.628-.658 4.375-1.117 1.096-3.824 1.157-8.743-.154a.6.6 0 0 0-.72.379l-2.15 6.068a.6.6 0 0 0 .37.768c9.337 3.213 14.683.67 15.75-4.764.219-1.112.209-2.336.02-3.857l-.051-.387c-.042-.3-.086-.588-.142-.928l-.392-2.296c-.268-1.651-.312-2.37-.197-3.14l.03-.17c.142-.715.478-1.175 1.111-1.425l.178-.063-.209 3.19c-.038.582.692.871 1.062.422l6.125-7.434a.6.6 0 0 0-.41-.98zm1.61 1.34 6.492.574-4.217 5.118.14-2.106a.6.6 0 0 0-.661-.636c-1.849.192-2.848 1.166-3.095 2.812-.15 1.006-.084 1.84.276 3.973l.28 1.624c.073.427.125.762.173 1.11.22 1.582.249 2.798.043 3.846l-.044.208c-.965 4.322-5.173 6.405-12.996 4.024l-.569-.18 1.763-4.973.243.062c4.823 1.201 7.668 1.068 9.114-.35 1.082-1.06 1.266-2.236 1.04-5.006l-.153-1.66c-.35-3.866.247-5.52 3.075-6.228a.6.6 0 0 0 .283-1.002z"/><path fill="#7e87bd" d="M61.893 46.822S60.558 34.68 73.134 31.62c-2.357 3.024 1.664 5.533 1.664 5.533s-7.496-.088-4.101 4.58c-4.815-1.433-8.804 5.09-8.804 5.09z"/><path fill="#f8f4ff" d="M73.134 31.619c-2.357 3.024 1.664 5.533 1.664 5.533s-3.693-.716-3.652-3.434c-6.408 2.492-8.73 8.434-9.253 13.104-.48-1.596-.35-11.78 11.241-15.203z"/><path fill="#5e4a7f" fill-rule="nonzero" d="M61.897 41.207c-.387 1.356-.842 4.164-.6 5.68.089.56.773.733 1.108.248 3.81-5.526 6.975-5.17 8.12-4.829a.6.6 0 0 0 .657-.927c-1.317-1.81-.914-2.685.808-3.233.482-.153 1.698-.402 2.8-.394.609.004.84-.788.325-1.109s-1.594-1.248-1.97-2.263c-.293-.789-.18-1.569.463-2.392a.6.6 0 0 0-.615-.952c-6.184 1.505-9.684 5.216-11.096 10.171zm10.05-8.632c-.449 1.292.113 2.942 1.313 4.082-3.744.53-4.589 2.143-3.757 4.272-1-.039-3.661.044-7.028 4.076.306-6.5 4.266-10.805 9.472-12.43z"/><path fill="#7e87bd" d="M60.94 47.47s5.882-10.713 17.94-5.995c-3.669 1.123-1.817 5.487-1.817 5.487s-6.088-4.377-5.99 1.395c-3.12-3.94-10.134-.888-10.134-.888z"/><path fill="#f8f4ff" d="M78.88 41.475c-3.669 1.123-1.817 5.487-1.817 5.487s-2.613-2.708-1.018-4.91c-6.68-1.64-11.994 1.893-15.106 5.417.524-1.583 6.48-9.849 17.94-5.994z"/><path fill="#5e4a7f" fill-rule="nonzero" d="M64.168 42.872c-1.096.889-3.082 2.927-3.755 4.308a.602.602 0 0 0 .766.84c6.295-2.337 8.682-.228 9.424.71a.6.6 0 0 0 1.07-.383c-.037-2.24.795-2.724 2.52-2.184.482.152 1.622.647 2.52 1.286.495.353 1.14-.163.903-.721s-.589-1.939-.315-2.985c.214-.815.755-1.388 1.754-1.694a.6.6 0 0 0 .043-1.133c-5.929-2.32-10.927-1.29-14.93 1.956zm13.19-1.296c-1.11.8-1.598 2.474-1.27 4.098-3.37-1.718-4.989-.882-5.53 1.34-.798-.607-3.024-2.067-8.098-.698 3.985-5.15 9.7-6.4 14.898-4.74z"/><path fill="#d2e0f5" d="M22.34 4.118s-3.1 5.368 1.22 9.778c.507.518 2.445.922 3.691 0 1.247-.923 2.059-3.185.935-4.57-4.332-2.363-5.846-5.208-5.846-5.208z"/><path fill="#f8f4ff" d="M22.34 4.118s-3.1 5.368 1.22 9.778c.076.078.185.154.32.223-2.859-3.683-1.157-7.761-.662-8.767-.616-.743-.878-1.234-.878-1.234z"/><path fill="#5e4a7f" fill-rule="nonzero" d="M22.87 3.836c1.741 2.846 5.016 4.643 5.603 4.963a.6.6 0 0 1 .179.148c1.274 1.571.598 4.216-1.044 5.431-1.322.979-3.62.814-4.477-.062a8.892 8.892 0 0 1-1.594-2.195c-1.158-2.278-1.3-5.246.284-8.303.219-.423.807-.377 1.049.018zm-.426 1.508c-1.748 4.876.976 7.5 1.544 8.132.278.31 2.04.681 3.04-.169.998-.85 1.42-2.516.781-3.482-.747-.449-1.304-.8-1.672-1.052-1.371-.942-2.527-1.95-3.693-3.43z"/><path fill="#dcd5e9" fill-rule="nonzero" d="M31.495 87.768c15.991 0 35.019 3.4 35.019-20.018 0-13.473-3.022-20.597-5.765-31.04-4.038-15.374-11.006-26.593-27.254-26.593-19.29 0-22.284 11.237-24.638 26.593-2.353 15.356-6.774 18.703-6.03 31.04 1.21 20.018 12.677 20.018 28.668 20.018z"/><path fill="#f8f4ff" d="M33.495 10.117c16.248 0 23.216 11.219 27.254 26.593 2.743 10.443 5.765 17.567 5.765 31.04 0 7.673-2.043 12.467-5.353 15.445 2.717-3.017 4.353-7.578 4.353-14.445 0-13.473-3.022-20.597-5.765-31.04-4.038-15.374-11.006-26.593-27.254-26.593-7.814 0-12.954 1.844-16.46 5.058 3.51-3.829 8.868-6.058 17.46-6.058z"/><path fill="#5e4a7f" fill-rule="nonzero" d="M33.354 9.2c14.98 0 23.083 8.953 27.834 27.04.726 2.394 1.732 5.997 3.016 10.809 1.925 7.217 2.769 12.852 2.769 20.384 0 9.603-3.135 15.392-9.185 18.297-4.424 2.124-9.274 2.621-18.61 2.457-2.909-.064-4.608-.101-5.099-.11s-2.125-.02-4.902-.032c-9.917-.055-13.91-.536-17.968-2.56-5.58-2.783-8.538-8.354-9.122-18.016-.29-4.82.144-8.441 1.337-12.746 1.133-3.603 1.995-6.462 2.585-8.577.886-3.173 1.628-6.572 2.292-10.986 1.378-9.164 2.942-14.129 5.898-18.176 3.805-5.21 9.836-7.784 19.155-7.784zm0 1.2c-8.961 0-14.626 2.418-18.186 7.292-2.755 3.77-4.198 8.501-5.597 17.127l-.404 2.563a82.547 82.547 0 0 1-2.23 9.892c-.381 1.318-1.973 6.473-2.356 7.77-.82 2.77-1.566 7.883-1.296 12.353.56 9.268 3.309 14.445 8.46 17.014 3.836 1.914 7.738 2.38 17.471 2.434 2.444.008 3.837.015 4.181.02s2.273.046 5.786.122c9.155.161 13.885-.322 18.086-2.339 5.604-2.69 8.504-8.047 8.504-17.215 0-7.704-1.015-14.346-2.954-20.908-1.199-4.058-2.384-8.524-3.073-11.026C55.088 18.589 47.396 10.4 33.354 10.4z"/><path fill="#f8f4ff" d="M32.592 34.669c2.407-.875 5.362-.573 7.635 6.924 0 0-1.831-11.16-7.635-6.924z"/><path fill="#5e4a7f" fill-rule="nonzero" d="M39.078 35.332c-1.223-2.134-3.06-2.971-5.357-2.057-1.995.794-2.686 2.058-2.167 3.754.582 1.905 3.234 4.57 4.004 5.598.198.265.587.297.844.089a.609.609 0 0 0 .09-.845c-.462-.615-3.271-3.649-3.794-5.207-.345-1.026.036-1.703 1.467-2.273 1.694-.674 2.925-.113 3.87 1.538.814 1.42 1.327 3.56 1.487 5.792a.6.6 0 0 0 1.198-.087c-.172-2.395-.724-4.699-1.642-6.302z"/><path fill="#f8f4ff" d="M9.827 57.805c-2.171-1.357-3.754-3.87.752-10.28 0 0-7.664 8.318-.752 10.28z"/><path fill="#5e4a7f" fill-rule="nonzero" d="M6.405 52.497c-.928 2.278-.456 4.24 1.68 5.487 1.854 1.082 3.275.848 4.291-.605 1.142-1.633 1.607-5.363 1.943-6.603.086-.32-.127-.645-.45-.72a.609.609 0 0 0-.72.45c-.201.742-.86 4.824-1.765 6.196-.596.904-1.364 1.021-2.694.245-1.575-.919-1.891-2.235-1.173-3.997.617-1.515 1.987-3.237 3.646-4.738a.6.6 0 1 0-.806-.89c-1.78 1.61-3.255 3.465-3.952 5.175z"/><path fill="#d2e0f5" d="M47.542 5.117s3.1 5.368-1.22 9.778c-.507.518-2.445.922-3.691 0-1.247-.923-2.059-3.185-.935-4.57 4.332-2.363 5.846-5.208 5.846-5.208z"/><path fill="#f8f4ff" d="M47.542 5.117s3.1 5.368-1.22 9.778a1.245 1.245 0 0 1-.32.223c2.859-3.683 1.157-7.761.662-8.767.616-.743.878-1.234.878-1.234z"/><path fill="#5e4a7f" fill-rule="nonzero" d="M47.012 4.835c-1.741 2.846-5.016 4.643-5.603 4.963a.6.6 0 0 0-.179.148c-1.274 1.571-.598 4.216 1.044 5.431 1.322.979 3.62.814 4.477-.062a8.892 8.892 0 0 0 1.594-2.195c1.158-2.278 1.3-5.246-.284-8.303-.219-.423-.807-.377-1.049.018zm.426 1.508c1.748 4.876-.976 7.5-1.544 8.132-.278.31-2.04.681-3.04-.169-.998-.85-1.42-2.516-.781-3.482.747-.449 1.304-.8 1.672-1.052 1.371-.942 2.527-1.95 3.693-3.43z"/><path fill="#5b4d81" fill-rule="nonzero" d="M19.098 32.406a.6.6 0 0 0 .848-.035c.225-.244.349-.342.523-.493.44-.385.952-.77 1.527-1.13 2.803-1.753 5.94-2.256 9.264-.768a.6.6 0 0 0 .49-1.095c-3.731-1.67-7.275-1.102-10.39.846a13.26 13.26 0 0 0-1.68 1.242 7.972 7.972 0 0 0-.616.585.6.6 0 0 0 .034.848z"/><circle cx="18.005" cy="21.383" r="2.5" fill="#52437a"/><circle cx="36.005" cy="22.383" r="2.5" fill="#52437a"/><g fill="#5e4a7f" fill-rule="nonzero"><path d="M66.793 2.99c-1.611-.397-3.164-.281-3.754-.107-.66.194-1.16.591-1.47 1.176a.889.889 0 0 0 .027.924c.129.2.738.806 1.207.6.47-.206.903-.388 1.3-.546.36-.145 1.402-.339 2.139-.242s2.164 1.004 2.165 1.905c0 .901-1.705 2.262-2.1 2.513-.396.25-2.91 1.659-3.654 2.21-.497.367-.975 1.019-1.435 1.955.956.45 1.502.677 1.636.68.27.007.515-.09.7-.281.431-.468 2.577-1.986 3.154-2.356.601-.385 2.517-1.948 3.075-3s.72-1.997.452-2.825c-.267-.822-1.83-2.21-3.442-2.607zM61.93 15.568c-.267-.066-.686.112-.908.482s-.223 1.06 0 1.34.898.452 1.175.452.706-.253.908-.634c.203-.38.165-.785-.14-1.078-.165-.16-.769-.496-1.035-.562zM77.177 12.027c-1.611-.396-3.164-.28-3.754-.106-.66.194-1.16.592-1.47 1.176a.889.889 0 0 0 .027.924c.129.201.738.806 1.207.6.47-.205.903-.387 1.3-.546.36-.144 1.402-.339 2.139-.242.736.097 2.164 1.005 2.165 1.905s-1.705 2.262-2.1 2.513c-.396.251-2.91 1.66-3.654 2.21-.497.367-.975 1.02-1.435 1.955.956.45 1.502.677 1.636.68.27.007.515-.09.7-.281.431-.467 2.577-1.986 3.154-2.356.601-.384 2.517-1.948 3.075-3s.72-1.997.452-2.825c-.267-.822-1.83-2.21-3.442-2.607zM72.315 24.607c-.267-.066-.685.113-.908.482s-.222 1.06 0 1.34.898.452 1.175.452.706-.253.908-.634c.203-.38.165-.785-.14-1.078-.165-.16-.769-.495-1.035-.562z"/></g></g></svg>