<svg data-id="236-0be7a7bb1cd20ff-money" xmlns="http://www.w3.org/2000/svg" viewBox="0 0 100 100"><g fill="none" fill-rule="evenodd"><path fill="#7e87bd" d="m15.9 69.117-9.623.418L9.4 71.58c-11.601 5.506-7.064 22.803 18.705 16.64l-2.655-4.08C6.897 89.086 1.89 80.253 10.37 72.892l.616 4.103z"/><path fill="#f8f4ff" d="m15.9 69.117-9.623.418L9.4 71.58c-7.43 3.527-8.07 12.632-1.093 15.828-3.21-2.688-7.34-9.145 1.544-15.828-.506-.727-.607-1.137-.302-1.229 1.81-.544 3.926-.955 6.35-1.234z"/><path fill="#5e4a7f" fill-rule="nonzero" d="M6.25 68.935c-.547.024-.764.696-.381 1.041l2.328 1.544c-4.947 2.922-6.83 8.34-4.247 12.639 2.583 4.298 9.595 8.01 24.295 4.644.249-.057-.344-.334-1.78-.83-10.937 2.49-18.472-.007-21.231-4.036s-.926-9.276 4.423-11.815a.6.6 0 0 0 .149-.984l-1.64-1.085 6.622-.288-3.449 5.532-.374-2.494c-.061-.406-.6-.706-.987-.364-4.473 3.944-5.48 8.267-2.63 11.117 2.8 2.8 8.786 3.44 16.864 1.516l1.083-1.511c-8.411 2.242-14.515 1.73-17.098-.854-2.027-2.026-1.652-5.18 1.752-8.613l.445 2.99a.603.603 0 0 0 1.09.251l4.924-7.9a.6.6 0 0 0-.44-.914z"/><path fill="#7e87bd" d="M79.828 51.419s3.928-11.57 16.62-9.022c-3.416 1.744-.834 5.718-.834 5.718s-6.755-3.25-5.654 2.415c-3.757-3.335-10.132.889-10.132.889z"/><path fill="#f8f4ff" d="M96.448 42.397c-3.416 1.744-.834 5.718-.834 5.718s-3.044-2.211-1.856-4.656c-6.862-.454-11.48 3.95-13.93 7.96.24-1.65 4.667-10.824 16.62-9.022z"/><path fill="#5e4a7f" fill-rule="nonzero" d="M82.207 46.332c-.924 1.065-2.524 3.417-2.947 4.894a.602.602 0 0 0 .9.693c5.791-3.396 8.508-1.734 9.402-.94a.6.6 0 0 0 .987-.564c-.427-2.197.308-2.82 2.1-2.587.502.065 1.71.355 2.705.828.55.261 1.094-.359.763-.868s-.916-1.806-.828-2.884c.068-.839.501-1.497 1.432-1.972a.6.6 0 0 0-.155-1.123c-6.24-1.253-10.982.63-14.359 4.523zm12.76-3.57c-.953.98-1.142 2.713-.537 4.254-3.617-1.105-5.065 0-5.212 2.282-.89-.459-3.336-1.51-8.093.72 3.027-5.762 8.437-7.987 13.843-7.257z"/><path fill="#7e87bd" d="M23.638 51.419s-3.928-11.57-16.62-9.022c3.416 1.744.834 5.718.834 5.718s6.755-3.25 5.654 2.415c3.757-3.335 10.132.889 10.132.889z"/><path fill="#f8f4ff" d="M7.018 42.397c3.416 1.744.834 5.718.834 5.718s3.044-2.211 1.856-4.656c6.862-.454 11.48 3.95 13.93 7.96-.24-1.65-4.667-10.824-16.62-9.022z"/><path fill="#5e4a7f" fill-rule="nonzero" d="M21.259 46.332c.924 1.065 2.524 3.417 2.947 4.894a.602.602 0 0 1-.9.693c-5.791-3.396-8.508-1.734-9.402-.94a.6.6 0 0 1-.987-.564c.427-2.197-.308-2.82-2.1-2.587-.502.065-1.71.355-2.705.828-.55.261-1.094-.359-.763-.868s.916-1.806.828-2.884c-.068-.839-.501-1.497-1.432-1.972a.6.6 0 0 1 .155-1.123c6.24-1.253 10.982.63 14.359 4.523zm-12.76-3.57c.953.98 1.142 2.713.537 4.254 3.617-1.105 5.065 0 5.212 2.282.89-.459 3.336-1.51 8.093.72-3.027-5.762-8.437-7.987-13.843-7.257z"/><path fill="#dcd5e9" d="M51.495 91.767c14.673 0 33 4.516 33-18.902 0-13.472-2.71-22.062-5.453-32.505-4.038-15.374-7.256-26.243-27.547-26.243S27.859 25.182 23.857 40.709c-2.668 10.352-5.362 19.79-5.362 32.156 0 23.418 18.327 18.902 33 18.902z"/><path fill="#f8f4ff" d="M51.495 14.117c20.29 0 23.509 10.869 27.547 26.243 2.743 10.443 5.453 19.033 5.453 32.505 0 7.67-1.966 12.343-5.125 15.16 2.568-2.883 4.125-7.335 4.125-14.16 0-13.472-2.71-22.062-5.453-32.505-4.038-15.374-7.256-26.243-27.547-26.243-8.725 0-14.317 2.046-18.175 5.613l.217-.232c3.876-4.04 9.624-6.381 18.958-6.381z"/><path fill="#5e4a7f" fill-rule="nonzero" d="M51.495 13.517c-9.778 0-16.135 2.52-20.39 7.692-3.199 3.887-4.902 8.23-7.397 17.694s-5.813 21.4-5.813 33.962c0 9.287 3.09 15.163 8.293 17.61 7.639 3.595 15.028 1.89 27.312 1.89 4.995 0 16.152 1.646 23.302-1.89 5.59-2.763 8.293-8.323 8.293-17.61 0-13.624-3.14-23.9-5.763-33.755-2.623-9.857-4.278-14.125-7.507-18.02-4.226-5.098-10.552-7.573-20.33-7.573zm0 1.2c9.445 0 15.429 2.341 19.406 7.14 3.082 3.716 4.696 7.884 7.275 17.576 2.58 9.691 5.719 20.163 5.719 33.432 0 8.866-2.682 14.127-7.632 16.539-6.61 3.22-15.325 1.79-22.768 1.79-12.096 0-20.147 1.467-26.768-1.79-4.77-2.347-7.632-7.673-7.632-16.539 0-12.562 3.315-24.33 5.768-33.636 2.453-9.305 4.114-13.545 7.168-17.257 4.008-4.872 10.022-7.255 19.464-7.255z"/><path fill="#f8f4ff" d="M64.994 33.19c2.42-.833 5.368-.48 7.512 7.052 0 0-1.639-11.187-7.512-7.052z"/><path fill="#5e4a7f" fill-rule="nonzero" d="M71.465 33.964c-1.186-2.154-3.007-3.022-5.32-2.147-2.007.76-2.72 2.011-2.23 3.715.55 1.914 3.155 4.622 3.907 5.663.194.269.581.308.843.104a.609.609 0 0 0 .103-.843c-.45-.623-3.207-3.703-3.703-5.27-.327-1.03.065-1.701 1.506-2.246 1.704-.645 2.925-.063 3.842 1.603.79 1.433 1.265 3.58 1.387 5.814A.6.6 0 0 0 73 40.292c-.132-2.398-.644-4.71-1.534-6.328z"/><path fill="#f8f4ff" d="M39.085 33.19c-2.42-.833-5.368-.48-7.512 7.052 0 0 1.639-11.187 7.512-7.052z"/><path fill="#5e4a7f" fill-rule="nonzero" d="M32.614 33.964c1.186-2.154 3.007-3.022 5.32-2.147 2.007.76 2.72 2.011 2.23 3.715-.55 1.914-3.155 4.622-3.907 5.663-.194.269-.581.308-.843.104a.609.609 0 0 1-.103-.843c.45-.623 3.207-3.703 3.703-5.27.327-1.03-.065-1.701-1.506-2.246-1.704-.645-2.925-.063-3.842 1.603-.79 1.433-1.265 3.58-1.387 5.814a.6.6 0 0 1-1.199-.065c.132-2.398.644-4.71 1.534-6.328z"/><path fill="#d2e0f5" d="M67.542 9.117s3.1 5.368-1.22 9.778c-.507.518-2.445.922-3.691 0-1.247-.923-2.059-3.185-.935-4.57 4.332-2.363 5.846-5.208 5.846-5.208z"/><path fill="#f8f4ff" d="M67.542 9.117s3.1 5.368-1.22 9.778a1.245 1.245 0 0 1-.32.223c2.859-3.683 1.157-7.761.662-8.767.616-.743.878-1.234.878-1.234z"/><path fill="#5e4a7f" fill-rule="nonzero" d="M67.012 8.835c-1.741 2.846-5.016 4.643-5.603 4.963a.6.6 0 0 0-.179.148c-1.274 1.571-.598 4.216 1.044 5.431 1.322.979 3.62.814 4.477-.062a8.892 8.892 0 0 0 1.594-2.195c1.158-2.278 1.3-5.246-.284-8.303-.219-.423-.807-.377-1.049.018zm.426 1.508c1.748 4.876-.976 7.5-1.544 8.132-.278.31-2.04.681-3.04-.169-.998-.85-1.42-2.516-.781-3.482.747-.449 1.304-.8 1.672-1.052 1.371-.942 2.527-1.95 3.693-3.43z"/><path fill="#d2e0f5" d="M35.34 9.118s-3.1 5.368 1.22 9.778c.507.518 2.445.922 3.691 0 1.247-.923 2.059-3.185.935-4.57-4.332-2.363-5.846-5.208-5.846-5.208z"/><path fill="#f8f4ff" d="M35.34 9.118s-3.1 5.368 1.22 9.778c.076.078.185.154.32.223-2.859-3.683-1.157-7.761-.662-8.767-.616-.743-.878-1.234-.878-1.234z"/><path fill="#5e4a7f" fill-rule="nonzero" d="M35.87 8.836c1.741 2.846 5.016 4.643 5.603 4.963a.6.6 0 0 1 .179.148c1.274 1.571.598 4.216-1.044 5.431-1.322.979-3.62.814-4.477-.062a8.892 8.892 0 0 1-1.594-2.195c-1.158-2.278-1.3-5.246.284-8.303.219-.423.807-.377 1.049.018zm-.426 1.508c-1.748 4.876.976 7.5 1.544 8.132.278.31 2.04.681 3.04-.169.998-.85 1.42-2.516.781-3.482-.747-.449-1.304-.8-1.672-1.052-1.371-.942-2.527-1.95-3.693-3.43zM60.575 28.033l-.374.116-.294.084a31.616 31.616 0 0 1-8.223 1.11 31.616 31.616 0 0 1-7.882-1.018l-.34-.092a14.203 14.203 0 0 1-.669-.2.6.6 0 0 0-.77.73l.063.2c.076.226.196.53.366.89.374.792.868 1.583 1.5 2.323 1.809 2.12 4.36 3.397 7.732 3.397s5.923-1.277 7.732-3.397a10.455 10.455 0 0 0 1.5-2.323c.227-.48.364-.86.43-1.09a.6.6 0 0 0-.77-.73z"/><path fill="#e65765" d="M52.16 39.334c-4.293 0-4.314-6.08-4.031-8.995 1.159.132 2.349.203 3.555.203 1.49 0 2.954-.109 4.368-.303-.21 3.343.57 9.095-3.892 9.095z"/><g fill="#5e4a7f" fill-rule="nonzero"><path d="m65.623 21-.001.95a4.76 4.76 0 0 1 .602.007L66.223 21h.6v1.053c1.414.357 1.726 1.508 1.726 2.196h-.918c-.054-.578-.302-1.041-.807-1.29l-.002 2.4c1.05.27 2.033.745 2.033 2.042 0 .803-.543 1.821-2.032 2.093V30.6h-.6l-.001-1.042-.213.005c-.134 0-.263-.005-.387-.015V30.6h-.6v-1.142C63.615 29.13 63 28.09 63 27.003h.918c-.014.675.354 1.294 1.104 1.583v-2.703c-1.131-.305-1.798-.778-1.798-1.807 0-.725.408-1.754 1.797-2.05L65.023 21zm-.001 5.022v2.71a3.358 3.358 0 0 0 .601.022v-2.6c-.206-.048-.43-.096-.668-.146zm1.201.296v2.358c.808-.193 1.063-.704 1.063-1.245 0-.593-.384-.891-1.063-1.113zm-.998-3.558c-.07 0-.138.001-.204.005l.001 2.334.05.012c.177.037.362.072.55.111l.002-2.437a2.974 2.974 0 0 0-.399-.025zm-.803.098c-.594.176-.829.581-.829 1.146 0 .364.094.68.829.934zM36.623 21l-.001.95a4.76 4.76 0 0 1 .602.007L37.223 21h.6v1.053c1.414.357 1.726 1.508 1.726 2.196h-.918c-.054-.578-.302-1.041-.807-1.29l-.002 2.4c1.05.27 2.033.745 2.033 2.042 0 .803-.543 1.821-2.032 2.093V30.6h-.6l-.001-1.042-.213.005c-.134 0-.263-.005-.387-.015V30.6h-.6v-1.142C34.615 29.13 34 28.09 34 27.003h.918c-.014.675.354 1.294 1.104 1.583v-2.703c-1.131-.305-1.798-.778-1.798-1.807 0-.725.408-1.754 1.797-2.05L36.023 21zm-.001 5.022v2.71a3.358 3.358 0 0 0 .601.022v-2.6c-.206-.048-.43-.096-.668-.146zm1.201.296v2.358c.808-.193 1.063-.704 1.063-1.245 0-.593-.384-.891-1.063-1.113zm-.998-3.558c-.07 0-.138.001-.204.005l.001 2.334.05.012c.177.037.362.072.55.111l.002-2.437a2.974 2.974 0 0 0-.399-.025zm-.803.098c-.594.176-.829.581-.829 1.146 0 .364.094.68.829.934z"/></g></g></svg>