<svg data-id="237-84c59a1f6e69517-smile" xmlns="http://www.w3.org/2000/svg" viewBox="0 0 100 100"><g fill="none" fill-rule="evenodd"><path fill="#7e87bd" d="m89.23 64.766 9.246.818-6.124 7.434.26-3.964c-5.261.545-.802 7.83-1.795 12.884-.688 3.503-4.24 8.004-14.967 4.313L78 80.182c18.936 5.048 3.86-10.616 13.556-13.045z"/><path fill="#f8f4ff" d="m89.23 64.766 9.246.818-7.59.449c.715.463 1.03.918.947 1.365-3.453 1.566-3.091 2.67-2.604 8.8.487 6.13-3.946 6.13-5.934 5.712.338-1.621 4.303-.505 4.687-2.985.525-3.385-2.023-10.386 3.574-11.788z"/><path fill="#5e4a7f" fill-rule="nonzero" d="M89.187 64.167a.6.6 0 0 0-.386 1.02l1.638 1.67-.12.047c-2.575 1.038-3.207 3.137-2.915 6.84l.152 1.638c.229 2.603.104 3.628-.658 4.375-1.117 1.096-3.824 1.157-8.743-.154a.6.6 0 0 0-.72.379l-2.15 6.068a.6.6 0 0 0 .37.768c9.337 3.213 14.683.67 15.75-4.764.219-1.112.209-2.336.02-3.857l-.051-.387c-.042-.3-.086-.588-.142-.928l-.392-2.296c-.268-1.651-.312-2.37-.197-3.14l.03-.17c.142-.715.478-1.175 1.111-1.425l.178-.063-.209 3.19c-.038.582.692.871 1.062.422l6.125-7.434a.6.6 0 0 0-.41-.98zm1.61 1.34 6.492.574-4.217 5.118.14-2.106a.6.6 0 0 0-.661-.636c-1.849.192-2.848 1.166-3.095 2.812-.15 1.006-.084 1.84.276 3.973l.28 1.624c.073.427.125.762.173 1.11.22 1.582.249 2.798.043 3.846l-.044.208c-.965 4.322-5.173 6.405-12.996 4.024l-.569-.18 1.763-4.973.243.062c4.823 1.201 7.668 1.068 9.114-.35 1.082-1.06 1.266-2.236 1.04-5.006l-.153-1.66c-.35-3.866.247-5.52 3.075-6.228a.6.6 0 0 0 .283-1.002z"/><path fill="#7e87bd" d="M79.828 51.419s3.928-11.57 16.62-9.022c-3.416 1.744-.834 5.718-.834 5.718s-6.755-3.25-5.654 2.415c-3.757-3.335-10.132.889-10.132.889z"/><path fill="#f8f4ff" d="M96.448 42.397c-3.416 1.744-.834 5.718-.834 5.718s-3.044-2.211-1.856-4.656c-6.862-.454-11.48 3.95-13.93 7.96.24-1.65 4.667-10.824 16.62-9.022z"/><path fill="#5e4a7f" fill-rule="nonzero" d="M82.207 46.332c-.924 1.065-2.524 3.417-2.947 4.894a.602.602 0 0 0 .9.693c5.791-3.396 8.508-1.734 9.402-.94a.6.6 0 0 0 .987-.564c-.427-2.197.308-2.82 2.1-2.587.502.065 1.71.355 2.705.828.55.261 1.094-.359.763-.868s-.916-1.806-.828-2.884c.068-.839.501-1.497 1.432-1.972a.6.6 0 0 0-.155-1.123c-6.24-1.253-10.982.63-14.359 4.523zm12.76-3.57c-.953.98-1.142 2.713-.537 4.254-3.617-1.105-5.065 0-5.212 2.282-.89-.459-3.336-1.51-8.093.72 3.027-5.762 8.437-7.987 13.843-7.257z"/><path fill="#7e87bd" d="M23.638 51.419s-3.928-11.57-16.62-9.022c3.416 1.744.834 5.718.834 5.718s6.755-3.25 5.654 2.415c3.757-3.335 10.132.889 10.132.889z"/><path fill="#f8f4ff" d="M7.018 42.397c3.416 1.744.834 5.718.834 5.718s3.044-2.211 1.856-4.656c6.862-.454 11.48 3.95 13.93 7.96-.24-1.65-4.667-10.824-16.62-9.022z"/><path fill="#5e4a7f" fill-rule="nonzero" d="M21.259 46.332c.924 1.065 2.524 3.417 2.947 4.894a.602.602 0 0 1-.9.693c-5.791-3.396-8.508-1.734-9.402-.94a.6.6 0 0 1-.987-.564c.427-2.197-.308-2.82-2.1-2.587-.502.065-1.71.355-2.705.828-.55.261-1.094-.359-.763-.868s.916-1.806.828-2.884c-.068-.839-.501-1.497-1.432-1.972a.6.6 0 0 1 .155-1.123c6.24-1.253 10.982.63 14.359 4.523zm-12.76-3.57c.953.98 1.142 2.713.537 4.254 3.617-1.105 5.065 0 5.212 2.282.89-.459 3.336-1.51 8.093.72-3.027-5.762-8.437-7.987-13.843-7.257z"/><path fill="#dcd5e9" d="M51.495 91.767c14.673 0 33 4.516 33-18.902 0-13.472-2.71-22.062-5.453-32.505-4.038-15.374-7.256-26.243-27.547-26.243S27.859 25.182 23.857 40.709c-2.668 10.352-5.362 19.79-5.362 32.156 0 23.418 18.327 18.902 33 18.902z"/><path fill="#f8f4ff" d="M51.495 14.117c20.29 0 23.509 10.869 27.547 26.243 2.743 10.443 5.453 19.033 5.453 32.505 0 7.67-1.966 12.343-5.125 15.16 2.568-2.883 4.125-7.335 4.125-14.16 0-13.472-2.71-22.062-5.453-32.505-4.038-15.374-7.256-26.243-27.547-26.243-8.725 0-14.317 2.046-18.175 5.613l.217-.232c3.876-4.04 9.624-6.381 18.958-6.381z"/><path fill="#5e4a7f" fill-rule="nonzero" d="M51.495 13.517c-9.778 0-16.135 2.52-20.39 7.692-3.199 3.887-4.902 8.23-7.397 17.694s-5.813 21.4-5.813 33.962c0 9.287 3.09 15.163 8.293 17.61 7.639 3.595 15.028 1.89 27.312 1.89 4.995 0 16.152 1.646 23.302-1.89 5.59-2.763 8.293-8.323 8.293-17.61 0-13.624-3.14-23.9-5.763-33.755-2.623-9.857-4.278-14.125-7.507-18.02-4.226-5.098-10.552-7.573-20.33-7.573zm0 1.2c9.445 0 15.429 2.341 19.406 7.14 3.082 3.716 4.696 7.884 7.275 17.576 2.58 9.691 5.719 20.163 5.719 33.432 0 8.866-2.682 14.127-7.632 16.539-6.61 3.22-15.325 1.79-22.768 1.79-12.096 0-20.147 1.467-26.768-1.79-4.77-2.347-7.632-7.673-7.632-16.539 0-12.562 3.315-24.33 5.768-33.636 2.453-9.305 4.114-13.545 7.168-17.257 4.008-4.872 10.022-7.255 19.464-7.255z"/><path fill="#f8f4ff" d="M62.7 34.533c2.373-.959 5.333-.762 7.867 6.643 0 0-2.222-11.078-7.866-6.643z"/><path fill="#5e4a7f" fill-rule="nonzero" d="M69.199 34.966c-1.296-2.087-3.16-2.858-5.42-1.864-1.964.863-2.61 2.15-2.032 3.824.65 1.881 3.39 4.447 4.196 5.447.207.258.596.276.846.059a.608.608 0 0 0 .059-.846c-.482-.598-3.394-3.528-3.972-5.064-.38-1.013-.024-1.702 1.385-2.322 1.667-.733 2.916-.216 3.919 1.399.862 1.389 1.45 3.507 1.689 5.729a.6.6 0 0 0 1.192-.128c-.256-2.386-.889-4.666-1.862-6.234z"/><path fill="#f8f4ff" d="M41.309 36.019c-2.017-1.577-4.918-2.204-9.4 4.218 0 0 5.195-10.041 9.4-4.218z"/><path fill="#5e4a7f" fill-rule="nonzero" d="M35.153 34.617c1.822-1.65 3.828-1.877 5.728-.297 1.65 1.372 1.916 2.788.898 4.239-1.144 1.63-4.488 3.341-5.539 4.08-.27.19-.65.101-.83-.177a.609.609 0 0 1 .177-.83c.629-.442 4.238-2.455 5.217-3.774.645-.869.494-1.63-.69-2.615-1.401-1.165-2.746-1.013-4.155.264-1.213 1.098-2.363 2.973-3.206 5.044a.6.6 0 1 1-1.111-.453c.905-2.223 2.142-4.242 3.511-5.481z"/><path fill="#d2e0f5" d="M67.542 9.117s3.1 5.368-1.22 9.778c-.507.518-2.445.922-3.691 0-1.247-.923-2.059-3.185-.935-4.57 4.332-2.363 5.846-5.208 5.846-5.208z"/><path fill="#f8f4ff" d="M67.542 9.117s3.1 5.368-1.22 9.778a1.245 1.245 0 0 1-.32.223c2.859-3.683 1.157-7.761.662-8.767.616-.743.878-1.234.878-1.234z"/><path fill="#5e4a7f" fill-rule="nonzero" d="M67.012 8.835c-1.741 2.846-5.016 4.643-5.603 4.963a.6.6 0 0 0-.179.148c-1.274 1.571-.598 4.216 1.044 5.431 1.322.979 3.62.814 4.477-.062a8.892 8.892 0 0 0 1.594-2.195c1.158-2.278 1.3-5.246-.284-8.303-.219-.423-.807-.377-1.049.018zm.426 1.508c1.748 4.876-.976 7.5-1.544 8.132-.278.31-2.04.681-3.04-.169-.998-.85-1.42-2.516-.781-3.482.747-.449 1.304-.8 1.672-1.052 1.371-.942 2.527-1.95 3.693-3.43z"/><path fill="#d2e0f5" d="M35.34 9.118s-3.1 5.368 1.22 9.778c.507.518 2.445.922 3.691 0 1.247-.923 2.059-3.185.935-4.57-4.332-2.363-5.846-5.208-5.846-5.208z"/><path fill="#f8f4ff" d="M35.34 9.118s-3.1 5.368 1.22 9.778c.076.078.185.154.32.223-2.859-3.683-1.157-7.761-.662-8.767-.616-.743-.878-1.234-.878-1.234z"/><path fill="#5e4a7f" fill-rule="nonzero" d="M35.87 8.836c1.741 2.846 5.016 4.643 5.603 4.963a.6.6 0 0 1 .179.148c1.274 1.571.598 4.216-1.044 5.431-1.322.979-3.62.814-4.477-.062a8.892 8.892 0 0 1-1.594-2.195c-1.158-2.278-1.3-5.246.284-8.303.219-.423.807-.377 1.049.018zm-.426 1.508c-1.748 4.876.976 7.5 1.544 8.132.278.31 2.04.681 3.04-.169.998-.85 1.42-2.516.781-3.482-.747-.449-1.304-.8-1.672-1.052-1.371-.942-2.527-1.95-3.693-3.43zM60.575 28.033l-.374.116-.294.084a31.616 31.616 0 0 1-8.223 1.11 31.616 31.616 0 0 1-7.882-1.018l-.34-.092a14.203 14.203 0 0 1-.669-.2.6.6 0 0 0-.77.73l.063.2c.076.226.196.53.366.89.374.792.868 1.583 1.5 2.323 1.809 2.12 4.36 3.397 7.732 3.397s5.923-1.277 7.732-3.397a10.455 10.455 0 0 0 1.5-2.323c.227-.48.364-.86.43-1.09a.6.6 0 0 0-.77-.73z"/><path fill="#e65765" d="M52.16 39.334c-4.293 0-4.314-6.08-4.031-8.995 1.159.132 2.349.203 3.555.203 1.49 0 2.954-.109 4.368-.303-.21 3.343.57 9.095-3.892 9.095z"/><g fill="#5e4a7f" fill-rule="nonzero"><path d="M67.794 22.279a.75.75 0 0 1 .508 1.408L63.731 25l4.475 1.279c.365.104.62.562.515.927a.75.75 0 0 1-.827.537l-7.1-2.022c-.687-.196-.723-1.129-.109-1.403zM35.206 22.279a.75.75 0 0 0-.508 1.408L39.269 25l-4.475 1.279c-.365.104-.62.562-.515.927a.75.75 0 0 0 .827.537l7.1-2.022c.687-.196.723-1.129.109-1.403z"/></g></g></svg>