<svg data-id="238-4cb0c979b6e570a-sticker" xmlns="http://www.w3.org/2000/svg" viewBox="0 0 100 100"><g fill="none" fill-rule="evenodd"><path fill="#7e87bd" d="m82.23 60.766 9.246.818-6.124 7.434.26-3.964c-5.261.545-.802 7.83-1.795 12.884-.688 3.503-4.24 8.004-14.967 4.313L71 76.182c18.936 5.048 3.86-10.616 13.556-13.045z"/><path fill="#f8f4ff" d="m82.23 60.766 9.246.818-7.59.449c.715.463 1.03.918.947 1.365-3.453 1.566-3.091 2.67-2.604 8.8.487 6.13-3.946 6.13-5.934 5.712.338-1.621 4.303-.505 4.687-2.985.525-3.385-2.023-10.386 3.574-11.788z"/><path fill="#5e4a7f" fill-rule="nonzero" d="M82.187 60.167a.6.6 0 0 0-.386 1.02l1.638 1.67-.12.047c-2.575 1.038-3.207 3.137-2.915 6.84l.152 1.638c.229 2.603.104 3.628-.658 4.375-1.117 1.096-3.824 1.157-8.743-.154a.6.6 0 0 0-.72.379l-2.15 6.068a.6.6 0 0 0 .37.768c9.337 3.213 14.683.67 15.75-4.764.219-1.112.209-2.336.02-3.857l-.051-.387c-.042-.3-.086-.588-.142-.928l-.392-2.296c-.268-1.651-.312-2.37-.197-3.14l.03-.17c.142-.715.478-1.175 1.111-1.425l.178-.063-.209 3.19c-.038.582.692.871 1.062.422l6.125-7.434a.6.6 0 0 0-.41-.98zm1.61 1.34 6.492.574-4.217 5.118.14-2.106a.6.6 0 0 0-.661-.636c-1.849.192-2.848 1.166-3.095 2.812-.15 1.006-.084 1.84.276 3.973l.28 1.624c.073.427.125.762.173 1.11.22 1.582.249 2.798.043 3.846l-.044.208c-.965 4.322-5.173 6.405-12.996 4.024l-.569-.18 1.763-4.973.243.062c4.823 1.201 7.668 1.068 9.114-.35 1.082-1.06 1.266-2.236 1.04-5.006l-.153-1.66c-.35-3.866.247-5.52 3.075-6.228a.6.6 0 0 0 .283-1.002z"/><path fill="#7e87bd" d="M69.893 46.822s-1.335-12.143 11.241-15.204c-2.357 3.025 1.664 5.534 1.664 5.534s-7.496-.088-4.101 4.579c-4.815-1.433-8.804 5.09-8.804 5.09z"/><path fill="#f8f4ff" d="M81.134 31.618c-2.357 3.025 1.664 5.534 1.664 5.534s-3.694-.716-3.652-3.434c-6.408 2.491-8.73 8.434-9.253 13.104-.48-1.597-.35-11.78 11.241-15.204z"/><path fill="#5e4a7f" fill-rule="nonzero" d="M69.897 41.207c-.387 1.356-.842 4.164-.6 5.68.089.56.773.733 1.108.248 3.81-5.527 6.975-5.17 8.12-4.83a.6.6 0 0 0 .657-.927c-1.317-1.81-.914-2.685.808-3.232.482-.154 1.698-.402 2.8-.395.609.005.84-.787.325-1.108-.515-.322-1.594-1.249-1.97-2.263-.293-.79-.18-1.569.462-2.393a.6.6 0 0 0-.615-.952c-6.183 1.505-9.683 5.216-11.095 10.172zm10.05-8.633c-.449 1.292.113 2.942 1.313 4.083-3.744.529-4.589 2.142-3.757 4.272-1.001-.04-3.661.043-7.028 4.076.306-6.501 4.265-10.806 9.472-12.43z"/><path fill="#7e87bd" d="M68.939 47.47s5.882-10.713 17.94-5.995c-3.668 1.123-1.816 5.487-1.816 5.487s-6.088-4.377-5.99 1.395c-3.12-3.94-10.134-.888-10.134-.888z"/><path fill="#f8f4ff" d="M86.88 41.475c-3.669 1.123-1.817 5.487-1.817 5.487s-2.614-2.708-1.018-4.91c-6.68-1.64-11.995 1.893-15.106 5.417.524-1.583 6.48-9.849 17.94-5.994z"/><path fill="#5e4a7f" fill-rule="nonzero" d="M72.168 42.872c-1.096.889-3.082 2.927-3.755 4.308a.602.602 0 0 0 .765.84c6.296-2.337 8.683-.228 9.425.71a.6.6 0 0 0 1.07-.383c-.038-2.24.795-2.724 2.52-2.184.482.152 1.621.647 2.52 1.286.495.353 1.14-.163.902-.721-.237-.559-.588-1.939-.314-2.985.214-.815.755-1.388 1.754-1.694a.6.6 0 0 0 .043-1.133c-5.929-2.32-10.927-1.29-14.93 1.956zm13.19-1.296c-1.11.8-1.598 2.474-1.27 4.098-3.37-1.718-4.99-.882-5.531 1.34-.798-.607-3.023-2.067-8.097-.698 3.984-5.15 9.7-6.4 14.898-4.74z"/><path fill="#d2e0f5" d="M30.34 4.118s-3.1 5.368 1.22 9.778c.507.518 2.445.922 3.691 0 1.247-.923 2.059-3.185.935-4.57-4.332-2.363-5.846-5.208-5.846-5.208z"/><path fill="#f8f4ff" d="M30.34 4.118s-3.1 5.368 1.22 9.778c.076.078.185.154.32.223-2.859-3.683-1.157-7.761-.662-8.767-.616-.743-.878-1.234-.878-1.234z"/><path fill="#5e4a7f" fill-rule="nonzero" d="M30.87 3.836c1.741 2.846 5.016 4.643 5.603 4.963a.6.6 0 0 1 .179.148c1.274 1.571.598 4.216-1.044 5.431-1.322.979-3.62.814-4.477-.062a8.892 8.892 0 0 1-1.594-2.195c-1.158-2.278-1.3-5.246.284-8.303.219-.423.807-.377 1.049.018zm-.426 1.508c-1.748 4.876.976 7.5 1.544 8.132.278.31 2.04.681 3.04-.169.998-.85 1.42-2.516.781-3.482-.747-.449-1.304-.8-1.672-1.052-1.371-.942-2.527-1.95-3.693-3.43z"/><path fill="#dcd5e9" fill-rule="nonzero" d="M39.495 87.768c15.991 0 35.019 3.4 35.019-20.018 0-13.473-3.022-20.597-5.765-31.04-4.038-15.374-11.006-26.593-27.254-26.593-19.29 0-22.284 11.237-24.638 26.593-2.353 15.356-6.774 18.703-6.03 31.04 1.21 20.018 12.677 20.018 28.668 20.018z"/><path fill="#f8f4ff" d="M41.495 10.117c16.248 0 23.216 11.219 27.254 26.593 2.743 10.443 5.765 17.567 5.765 31.04 0 7.673-2.043 12.467-5.353 15.445 2.717-3.017 4.353-7.578 4.353-14.445 0-13.473-3.022-20.597-5.765-31.04-4.038-15.374-11.006-26.593-27.254-26.593-7.814 0-12.954 1.844-16.46 5.058 3.51-3.829 8.868-6.058 17.46-6.058z"/><path fill="#5e4a7f" fill-rule="nonzero" d="M41.354 9.2c14.98 0 23.083 8.953 27.834 27.04.726 2.394 1.732 5.997 3.016 10.809 1.925 7.217 2.769 12.852 2.769 20.384 0 9.603-3.135 15.392-9.185 18.297-4.424 2.124-9.274 2.621-18.61 2.457-2.909-.064-4.608-.101-5.099-.11s-2.125-.02-4.902-.032c-9.917-.055-13.91-.536-17.968-2.56-5.58-2.783-8.538-8.354-9.122-18.016-.29-4.82.144-8.441 1.337-12.746 1.133-3.603 1.995-6.462 2.585-8.577.886-3.173 1.628-6.572 2.292-10.986 1.378-9.164 2.942-14.129 5.898-18.176 3.805-5.21 9.836-7.784 19.155-7.784zm0 1.2c-8.961 0-14.626 2.418-18.186 7.292-2.755 3.77-4.198 8.501-5.597 17.127l-.404 2.563a82.547 82.547 0 0 1-2.23 9.892c-.381 1.318-1.973 6.473-2.356 7.77-.82 2.77-1.566 7.883-1.296 12.353.56 9.268 3.309 14.445 8.46 17.014 3.836 1.914 7.738 2.38 17.471 2.434 2.444.008 3.837.015 4.181.02s2.273.046 5.786.122c9.155.161 13.885-.322 18.086-2.339 5.604-2.69 8.504-8.047 8.504-17.215 0-7.704-1.015-14.346-2.954-20.908-1.199-4.058-2.384-8.524-3.073-11.026C63.088 18.589 55.396 10.4 41.354 10.4z"/><path fill="#f8f4ff" d="M41.031 58.34c-1.61-1.99-2.287-4.879 4.057-9.468 0 0-9.95 5.364-4.057 9.468z"/><path fill="#5e4a7f" fill-rule="nonzero" d="M39.547 51.996c-1.619 1.85-1.812 3.858-.2 5.731 1.4 1.626 2.82 1.868 4.253.826 1.61-1.17 3.264-4.544 3.985-5.606.186-.274.09-.651-.19-.827a.609.609 0 0 0-.827.19c-.432.637-2.384 4.28-3.685 5.28-.858.66-1.621.522-2.626-.645-1.188-1.381-1.06-2.728.193-4.159 1.077-1.23 2.932-2.412 4.988-3.29a.6.6 0 0 0-.471-1.103c-2.208.942-4.205 2.214-5.42 3.603z"/><path fill="#f8f4ff" d="M17.828 57.805c-2.172-1.357-3.754-3.87.752-10.279 0 0-7.664 8.318-.752 10.28z"/><path fill="#5e4a7f" fill-rule="nonzero" d="M14.404 52.498c-.928 2.277-.455 4.24 1.68 5.486 1.854 1.082 3.276.848 4.292-.605 1.141-1.632 1.607-5.362 1.943-6.602.086-.32-.127-.646-.45-.72a.609.609 0 0 0-.72.45c-.201.742-.86 4.824-1.765 6.196-.596.903-1.364 1.02-2.695.244-1.574-.918-1.89-2.234-1.173-3.996.618-1.516 1.988-3.238 3.646-4.739a.6.6 0 0 0-.805-.89c-1.78 1.611-3.256 3.465-3.953 5.176z"/><path fill="#d2e0f5" d="M55.542 5.117s3.1 5.368-1.22 9.778c-.507.518-2.445.922-3.691 0-1.247-.923-2.059-3.185-.935-4.57 4.332-2.363 5.846-5.208 5.846-5.208z"/><path fill="#f8f4ff" d="M55.542 5.117s3.1 5.368-1.22 9.778a1.245 1.245 0 0 1-.32.223c2.859-3.683 1.157-7.761.662-8.767.616-.743.878-1.234.878-1.234z"/><path fill="#5e4a7f" fill-rule="nonzero" d="M55.012 4.835c-1.741 2.846-5.016 4.643-5.603 4.963a.6.6 0 0 0-.179.148c-1.274 1.571-.598 4.216 1.044 5.431 1.322.979 3.62.814 4.477-.062a8.892 8.892 0 0 0 1.594-2.195c1.158-2.278 1.3-5.246-.284-8.303-.219-.423-.807-.377-1.049.018zm.426 1.508c1.748 4.876-.976 7.5-1.544 8.132-.278.31-2.04.681-3.04-.169-.998-.85-1.42-2.516-.781-3.482.747-.449 1.304-.8 1.672-1.052 1.371-.942 2.527-1.95 3.693-3.43z"/><path fill="#5b4d81" fill-rule="nonzero" d="M51.872 20.361a.6.6 0 0 1-.843-.099 8.81 8.81 0 0 0-3.916-2.857c-1.983-.735-4.114-.796-6.081-.453-.503.104-.79.166-.862.187a.6.6 0 1 1-.34-1.15c.444-.108.776-.181.996-.22 2.158-.375 4.493-.31 6.705.511 1.72.638 3.224 1.7 4.44 3.239a.6.6 0 0 1-.1.842zM18.672 20.393a.6.6 0 0 0 .83-.175c.884-1.353 1.962-2.274 3.195-2.828 1.6-.718 3.322-.777 4.912-.442.407.102.637.162.69.181a.6.6 0 1 0 .403-1.13c-.378-.111-.66-.186-.845-.225-1.818-.383-3.786-.316-5.651.521-1.443.648-2.7 1.721-3.708 3.268a.6.6 0 0 0 .174.83z"/><path fill="#52437a" d="M44.082 25.883a2.43 2.43 0 0 0 2.423-2.439c0-1.346-1.19-2.154-2.982-2.154-2.382 0-6.018 1.504-6.018 2.851 1.499-.299 2.759-.697 3.636-.303s1.484 2.045 2.94 2.045zM25.351 24.883c1.19 0 2.154-.854 2.154-1.908 0-1.053-1.058-1.685-2.65-1.685-2.118 0-5.35 1.177-5.35 2.23 1.332-.233 2.452-.545 3.232-.237.779.308 1.32 1.6 2.614 1.6z"/><path fill="#5b4d81" fill-rule="nonzero" d="M36.544 36.039c-.692-.4-1.177-.66-1.457-.783-1.206-.529-2.58-.903-4.096-1.035s-2.935-.002-4.214.31c-.445.108-1.56.512-1.571.517-.53.258-1.076-.325-.783-.837.203-.311.353-.53.45-.658a8.97 8.97 0 0 1 1.29-1.366c1.444-1.236 3.17-1.911 5.157-1.738 1.987.174 3.57 1.138 4.777 2.605a8.97 8.97 0 0 1 1.034 1.57c.166.32.274.573.33.726.199.555-.439 1.035-.917.689z"/></g></svg>