<svg data-id="240-7216378d80a2c03-thermometer" xmlns="http://www.w3.org/2000/svg" viewBox="0 0 100 100"><g fill="none" fill-rule="evenodd" transform="translate(1 8)"><path fill="#7e87bd" d="M21.605 41.587s-8.598-8.68-18.892-.83c3.834.07 3.254 4.775 3.254 4.775s4.649-5.882 6.14-.306c1.917-4.644 9.498-3.639 9.498-3.639z"/><path fill="#f8f4ff" d="M2.713 40.756c3.834.072 3.254 4.776 3.254 4.776s1.768-3.322-.371-5c5.97-3.413 12.05-1.477 16.01 1.055-.94-1.378-8.937-7.686-18.893-.83z"/><path fill="#5e4a7f" fill-rule="nonzero" d="M17.238 38.056c1.298.553 3.767 1.966 4.794 3.109a.602.602 0 0 1-.506 1.017c-6.694-.516-8.408 2.168-8.864 3.273a.6.6 0 0 1-1.134-.074c-.579-2.162-1.512-2.4-3.021-1.406-.423.278-1.382 1.067-2.07 1.929-.379.475-1.14.156-1.066-.446.075-.602.033-2.025-.518-2.956-.43-.724-1.107-1.126-2.151-1.146a.6.6 0 0 1-.353-1.077c5.061-3.86 10.149-4.244 14.89-2.223zm-13.035 2.38c1.287.463 2.216 1.938 2.347 3.589 2.768-2.577 4.554-2.218 5.685-.232.6-.802 2.338-2.818 7.591-2.897-5.245-3.854-11.083-3.485-15.623-.46z"/><path fill="#7e87bd" d="M21.999 42.353s-11.049-5.216-18.037 5.68c3.627-1.244 4.69 3.374 4.69 3.374s2.358-7.116 5.666-2.387c.213-5.019 7.68-6.667 7.68-6.667z"/><path fill="#f8f4ff" d="M3.962 48.033c3.627-1.244 4.69 3.374 4.69 3.374s.526-3.725-2.058-4.57c4.443-5.25 10.818-5.51 15.405-4.484-1.354-.974-11.026-4.167-18.037 5.68z"/><path fill="#5e4a7f" fill-rule="nonzero" d="M16.687 40.528c1.409.076 4.212.56 5.568 1.283.5.266.44.97-.127 1.128-6.467 1.804-7.16 4.913-7.21 6.107a.6.6 0 0 1-1.092.318c-1.283-1.834-2.241-1.738-3.32-.288-.301.406-.933 1.475-1.284 2.52-.194.576-1.018.537-1.154-.054-.137-.591-.662-1.914-1.498-2.6-.651-.534-1.426-.68-2.414-.342a.6.6 0 0 1-.7-.891c3.437-5.358 8.086-7.459 13.231-7.18zM5.252 47.222c1.368-.004 2.746 1.064 3.433 2.57 1.72-3.368 3.52-3.641 5.263-2.162.29-.959 1.233-3.447 6.143-5.318-6.247-1.828-11.607.515-14.839 4.91z"/><path fill="#d2e0f5" d="M62.66 1.118s3.1 5.368-1.22 9.778c-.507.518-2.445.922-3.691 0-1.247-.923-2.059-3.185-.935-4.57 4.332-2.363 5.846-5.208 5.846-5.208z"/><path fill="#f8f4ff" d="M62.66 1.118s3.1 5.368-1.22 9.778a1.245 1.245 0 0 1-.32.223c2.859-3.683 1.157-7.761.662-8.767.616-.743.878-1.234.878-1.234z"/><path fill="#5e4a7f" fill-rule="nonzero" d="M62.13.836C60.389 3.682 57.114 5.48 56.527 5.8a.6.6 0 0 0-.179.148c-1.274 1.571-.598 4.216 1.044 5.431 1.322.979 3.62.814 4.477-.062a8.892 8.892 0 0 0 1.594-2.195c1.158-2.278 1.3-5.246-.284-8.303-.219-.423-.807-.377-1.049.018zm.426 1.508c1.748 4.876-.976 7.5-1.544 8.132-.278.31-2.04.681-3.04-.169-.998-.85-1.42-2.516-.781-3.482.747-.449 1.304-.8 1.672-1.052 1.371-.942 2.527-1.95 3.693-3.43z"/><path fill="#dcd5e9" fill-rule="nonzero" d="M49.506 84.767c-14.674 0-35 4.516-35-18.901 0-13.473 4.71-22.063 7.453-32.506 4.037-15.374 5.256-26.243 25.547-26.243S71.142 18.182 75.143 33.71c2.668 10.352 5.548 19.999 4.363 32.157-2.298 23.563-15.327 18.901-30 18.901z"/><path fill="#f8f4ff" d="M47.505 7.117c-20.29 0-21.51 10.869-25.547 26.243-2.743 10.443-7.453 19.033-7.453 32.506 0 7.32 1.986 11.91 5.164 14.762-2.589-2.89-4.164-7.243-4.164-13.762 0-13.473 4.71-22.063 7.453-32.506 4.038-15.374 5.256-26.243 25.547-26.243 8.721 0 14.312 2.044 18.17 5.608-3.876-4.179-9.663-6.608-19.17-6.608z"/><path fill="#5e4a7f" fill-rule="nonzero" d="M47.505 6.517c9.778 0 16.135 2.52 20.39 7.692 3.32 4.034 5.029 8.559 7.683 18.787l1.623 6.265.265 1.047c2.565 10.238 3.447 17.294 2.636 25.616l-.108 1.02c-1.034 9.035-3.77 14.265-8.369 16.789l-.406.216c-3.45 1.776-6.84 2.004-15.134 1.628l-2.757-.123a91.16 91.16 0 0 0-3.565-.086l-1.397.006c-1.014.014-2.1.047-3.812.112l-4.32.164-.828.024c-8.118.22-13.251-.404-17.412-2.681-5.313-2.908-8.089-8.387-8.089-17.127 0-7.845 1.158-13.057 4.502-23.127l1.11-3.338c.716-2.185 1.193-3.737 1.631-5.338l.311-1.168c.37-1.421 1.223-4.767 1.385-5.389l.267-1.012c1.943-7.262 3.567-11.044 6.49-14.128 3.737-3.944 9.333-5.849 17.904-5.849zm0 1.2c-8.268 0-13.55 1.798-17.033 5.474-2.745 2.896-4.308 6.537-6.2 13.608l-1.733 6.713-.312 1.153c-.528 1.902-1.125 3.786-2.12 6.77l-.768 2.306c-3.147 9.549-4.234 14.603-4.234 22.125 0 8.328 2.566 13.393 7.465 16.074 3.733 2.044 8.416 2.687 15.693 2.56l1.728-.043 5.969-.222c.951-.033 1.689-.051 2.393-.06l1.152-.008c1.58 0 2.934.041 5.31.15l2.24.1c7.702.32 10.788.022 13.993-1.737 4.366-2.395 6.953-7.566 7.86-16.873.774-7.945-.027-14.725-2.41-24.415l-.46-1.835-1.9-7.327c-2.454-9.306-4.115-13.546-7.169-17.258-4.008-4.872-10.022-7.255-19.464-7.255z"/><path fill="#7e87bd" d="m27.672 63.117 9.622.417-3.13 2.05c11.485 5.654 4.084 26.55-18.699 16.635-5.05-2.198-5.753-11.224.418-7.418.568 1.672 2.739 3.822 4.142 4.22 16.03 4.541 21.44-4.754 13.172-12.111l-.614 4.085z"/><path fill="#f8f4ff" d="m27.672 63.117 9.622.417-3.13 2.05c11.485 5.654 4.085 26.55-18.698 16.635 22.31 6.888 28.035-9.62 18.597-16.263l-.247-.581c.886-.454 1.268-.71 1.146-.767-1.176-.553-3.606-1.05-7.29-1.49z"/><path fill="#5e4a7f" fill-rule="nonzero" d="m37.31 62.935-9.622-.417a.6.6 0 0 0-.535.917l4.911 7.877.06.082a.6.6 0 0 0 1.043-.31l.442-2.947.122.124c6.972 7.216.3 14.107-13.552 10.182-1.235-.35-3.242-2.375-3.738-3.835a.6.6 0 0 0-.253-.318c-3.171-1.956-5.381-.9-5.332 1.979.044 2.533 1.819 5.394 4.36 6.5 10.472 4.557 18.927 3.072 22.932-2.687l.166-.245c3.196-4.857 2.037-11.105-2.85-14.206l-.148-.091 2.297-1.504c.487-.319.28-1.076-.303-1.101zm-8.537.83 6.623.288-1.57 1.029a.6.6 0 0 0 .063 1.04c5.167 2.544 6.493 8.645 3.274 13.275-3.645 5.242-11.481 6.618-21.468 2.272-2.095-.912-3.603-3.342-3.639-5.421v-.153c.03-1.652 1.038-2.166 3.108-1.015l.22.126.079.185c.786 1.747 2.877 3.779 4.389 4.207 7.637 2.164 13.574 1.38 16.314-1.778 2.65-3.053 1.647-7.597-2.58-11.359l-.074-.056a.6.6 0 0 0-.919.416l-.372 2.476z"/><path fill="#f8f4ff" d="M75.253 52.866c2.172-1.357 3.754-3.87-.751-10.28 0 0 7.663 8.318.751 10.28z"/><path fill="#5e4a7f" fill-rule="nonzero" d="M78.726 47.348c.927 2.278.455 4.24-1.68 5.487-1.854 1.082-3.276.848-4.292-.605-1.142-1.633-1.607-5.363-1.943-6.603-.086-.32.127-.645.45-.72a.609.609 0 0 1 .72.45c.201.743.86 4.825 1.765 6.196.596.904 1.364 1.022 2.695.245 1.574-.919 1.89-2.235 1.173-3.996-.618-1.516-1.988-3.238-3.647-4.74a.6.6 0 1 1 .806-.89c1.78 1.612 3.256 3.466 3.953 5.176z"/><path fill="#f8f4ff" d="M56.94 53.812c-2.339-1.042-4.253-3.31-.684-10.278 0 0-6.43 9.296.683 10.278z"/><path fill="#5e4a7f" fill-rule="nonzero" d="M52.814 49.034c-.602 2.383.138 4.26 2.424 5.197 1.986.814 3.36.385 4.164-1.195.903-1.774.845-5.53 1.006-6.804.04-.329-.216-.621-.546-.65a.609.609 0 0 0-.65.545c-.096.763-.18 4.894-.886 6.377-.464.977-1.208 1.2-2.633.617-1.686-.69-2.182-1.95-1.716-3.793.401-1.586 1.518-3.48 2.951-5.196a.6.6 0 1 0-.921-.77c-1.539 1.843-2.74 3.882-3.193 5.672z"/><path fill="#d2e0f5" d="M35.458 2.117s-3.1 5.368 1.22 9.778c.507.518 2.445.922 3.691 0 1.247-.923 2.059-3.185.935-4.57-4.332-2.363-5.846-5.208-5.846-5.208z"/><path fill="#f8f4ff" d="M35.458 2.117s-3.1 5.368 1.22 9.778c.076.078.185.154.32.223-2.859-3.683-1.157-7.761-.662-8.767-.616-.743-.878-1.234-.878-1.234z"/><path fill="#5e4a7f" fill-rule="nonzero" d="M35.988 1.835c1.741 2.846 5.016 4.643 5.603 4.963a.6.6 0 0 1 .179.148c1.274 1.571.598 4.216-1.044 5.431-1.322.979-3.62.814-4.477-.062a8.892 8.892 0 0 1-1.594-2.195c-1.158-2.278-1.3-5.246.284-8.303.219-.423.807-.377 1.049.018zm-.426 1.508c-1.748 4.876.976 7.5 1.544 8.132.278.31 2.04.681 3.04-.169.998-.85 1.42-2.516.781-3.482-.747-.449-1.304-.8-1.672-1.052-1.371-.942-2.527-1.95-3.693-3.43z"/><path fill="#fff" d="m66.468 30.151 19.752-16.58a3.22 3.22 0 0 1 4.534.401 3.218 3.218 0 0 1-.39 4.535l-19.752 16.58z"/><path fill="#ff808d" d="m66.468 30.151 10.493-8.809a2.409 2.409 0 0 1 3.402.3 2.416 2.416 0 0 1-.294 3.403l-10.493 8.808z"/><g fill="#5e4a7f" fill-rule="nonzero"><path d="m85.834 13.111-19.752 16.58a.6.6 0 0 0-.074.846l4.144 4.936a.6.6 0 0 0 .845.074l19.752-16.58a3.818 3.818 0 0 0 .464-5.38l-.132-.15a3.824 3.824 0 0 0-5.247-.326zm-15.149 21.13-3.372-4.016L86.606 14.03a2.62 2.62 0 0 1 3.59.217l.11.124a2.615 2.615 0 0 1-.328 3.677z"/><path d="m76.64 20.96-10.494 8.808a.5.5 0 0 0-.061.705l3.108 3.702a.5.5 0 0 0 .704.061l10.494-8.808a2.916 2.916 0 0 0 .355-4.107l-.117-.131a2.911 2.911 0 0 0-3.99-.23zm-7.003 12.189-2.465-2.936 10.11-8.488a1.908 1.908 0 0 1 2.613.144l.095.107c.67.799.565 2.008-.242 2.686zM83.927 15.238a.6.6 0 0 1 .777.004l1.105 1.304a.6.6 0 0 1-.851.84l-1.105-1.303a.6.6 0 0 1 .074-.845zM80.842 17.828a.6.6 0 0 1 .777.004l1.104 1.304a.6.6 0 0 1-.85.84l-1.105-1.303a.6.6 0 0 1 .074-.845z"/><path d="M77.757 20.417a.6.6 0 0 1 .776.005l1.105 1.303a.6.6 0 0 1-.85.841l-1.105-1.303a.6.6 0 0 1 .074-.846zM74.671 23.007a.6.6 0 0 1 .777.005l1.105 1.303a.6.6 0 0 1-.85.841l-1.105-1.303a.6.6 0 0 1 .073-.846zM71.586 25.597a.6.6 0 0 1 .777.004l1.104 1.304a.6.6 0 0 1-.85.841l-1.105-1.303a.6.6 0 0 1 .074-.846zM68.5 28.187a.6.6 0 0 1 .778.004l1.104 1.304a.6.6 0 0 1-.85.841l-1.105-1.304a.6.6 0 0 1 .074-.845z"/></g><g fill="#5b4d81" fill-rule="nonzero"><path d="M69.497 35.436c-.932-.586-.96-.897-2.11-2.054-1.15-1.158-2.279-1.738-3.882-1.738-2.204 0-4.102.506-5.696 1.348-.554.293-1.383.796-1.872 1.303-.489.507-1.3-.097-.955-.711.318-.564.969-1.375 2-2.179 1.703-1.33 3.87-2.127 6.523-2.127 1.2 0 2.03.24 2.91.788 1.179.84 1.841 1.311 1.988 1.412.973.668 2.28 1.499 3.62 2.097a.6.6 0 0 1 .232.912c-.928 1.216-1.826 1.536-2.758.95zM74.817 20.392a.6.6 0 0 1-.827-.193c-1.035-1.665-5.314-3.408-9.04-3.719a.6.6 0 1 1 .1-1.196c4.066.34 8.676 2.217 9.96 4.282a.6.6 0 0 1-.193.826zM45.69 21.396a.6.6 0 0 0 .824-.204c1.281-2.129 6.493-4.32 11.037-4.712a.6.6 0 0 0-.102-1.195c-4.89.42-10.438 2.754-11.963 5.288a.6.6 0 0 0 .205.823z"/></g><ellipse cx="54.005" cy="21.883" fill="#52437a" rx="2.5" ry="3"/><ellipse cx="68.005" cy="21.883" fill="#52437a" rx="2.5" ry="3"/></g></svg>