<svg data-id="242-b88b704677561ab-smile" xmlns="http://www.w3.org/2000/svg" viewBox="0 0 100 100"><g fill="none" fill-rule="evenodd" transform="translate(0 4)"><path fill="#7e87bd" d="M74.97 69.792c1.206 2.32 3.776 4.393 6.412 3.936 2.963-.514 6.007-3.713 7.279-3.453 2.385.49.66 6.644 5.855 6.364l1.57-2.66 1.602 9.144-8.765-3.991 4.67-.927c-2.009-.328-2.853-.567-3.82-1.788-1.799-2.274-4.5.66-6.025 1.798-2.215 1.651-6.051 2.339-12.403.153z"/><path fill="#f8f4ff" d="M74.97 69.792c2.518 2.929 4.655 4.24 6.412 3.936 2.963-.514 6.007-3.713 7.279-3.453 2.385.49.66 6.644 5.855 6.364l1.57-2.66.814 7.036c-.75-3.553-1.435-4.966-2.056-4.238-2.666.609-4.348-1.5-5.611-4.359-1.152-2.606-3.48 1.12-6.689 2.13-2.223.699-4.747-.886-7.574-4.756z"/><path fill="#5e4a7f" fill-rule="nonzero" d="m74.418 69.559-3.626 8.575a.6.6 0 0 0 .358.801c5.905 2.032 10.209 1.81 12.957-.239l.715-.573.673-.552c.732-.587 1.3-.967 1.83-1.192.847-.359 1.448-.26 1.978.41l.12.148c.435.525.848.882 1.387 1.15l.087.041-2.09.415c-.572.113-.663.893-.133 1.135l8.766 3.991a.6.6 0 0 0 .84-.65l-1.603-9.143-.026-.099a.6.6 0 0 0-1.082-.103l-1.402 2.374h-.099c-1.657-.022-2.415-.801-2.986-2.56l-.108-.35-.21-.744c-.495-1.755-.91-2.486-1.983-2.706-.52-.107-1.082.085-1.87.53l-.287.168c-.15.09-.315.192-.506.314l-1.155.742-.125.079c-1.311.825-2.279 1.31-3.21 1.542-.118.03-.235.054-.349.074-2.132.37-4.54-1.24-5.776-3.621a.6.6 0 0 0-1.085.043zm14.122 1.304c.39.08.635.44.942 1.427l.384 1.33c.768 2.53 2.005 3.762 4.682 3.618l.099-.014a.6.6 0 0 0 .386-.28l.742-1.259 1.125 6.42-6.033-2.748 2.843-.563c.655-.13.64-1.073-.02-1.181l-.497-.085c-1.708-.305-2.237-.584-2.949-1.484-.895-1.13-2.077-1.325-3.387-.77-.582.247-1.158.616-1.848 1.152l-.495.398c-.309.254-.84.69-1.066.865l-.24.175c-2.278 1.573-5.853 1.784-10.846.208l-.212-.069 2.917-6.9.077.108c1.566 2.159 4.01 3.512 6.34 3.108.143-.025.288-.056.433-.092 1.003-.25 1.986-.722 3.24-1.492l2.074-1.298c1.02-.63 1.08-.622 1.284-.58z"/><path fill="#7e87bd" d="M75.193 39.57s11.67-3.624 17.071 8.141c-3.419-1.738-5.116 2.688-5.116 2.688s-1.342-7.377-5.278-3.154c.49-5-6.677-7.675-6.677-7.675z"/><path fill="#f8f4ff" d="M92.264 47.711c-3.419-1.738-5.116 2.688-5.116 2.688s-.001-3.763 2.676-4.24c-3.668-5.818-9.945-6.964-14.63-6.589 1.475-.775 11.5-2.588 17.07 8.141z"/><path fill="#5e4a7f" fill-rule="nonzero" d="M80.708 38.504c-1.405-.121-4.25-.033-5.693.493a.602.602 0 0 0-.031 1.136c6.152 2.688 6.405 5.863 6.289 7.053a.6.6 0 0 0 1.036.468c1.526-1.638 2.462-1.41 3.328.177.242.444.718 1.592.92 2.675.112.598.934.674 1.151.108s.922-1.804 1.846-2.367c.72-.438 1.507-.474 2.438-.001a.6.6 0 0 0 .817-.785c-2.655-5.785-6.967-8.515-12.101-8.957zm10.391 8.224c-1.354-.195-2.867.67-3.759 2.066-1.232-3.575-2.978-4.097-4.91-2.874-.153-.99-.74-3.587-5.341-6.124 6.441-.939 11.423 2.129 14.01 6.932z"/><path fill="#7e87bd" d="M19.266 38.272s-11.388-4.43-17.597 6.93c3.532-1.495 4.916 3.038 4.916 3.038s1.854-7.264 5.486-2.778c-.14-5.022 7.195-7.19 7.195-7.19z"/><path fill="#f8f4ff" d="M1.67 45.202C5.2 43.707 6.584 48.24 6.584 48.24s.264-3.753-2.373-4.415c4.064-5.548 10.406-6.254 15.054-5.553-1.418-.876-11.291-3.384-17.597 6.93z"/><path fill="#5e4a7f" fill-rule="nonzero" d="M13.84 36.824c1.41-.023 4.24.263 5.644.89a.602.602 0 0 1-.048 1.134c-6.325 2.253-6.799 5.402-6.766 6.597a.6.6 0 0 1-1.066.395c-1.408-1.74-2.358-1.578-3.332-.055-.273.426-.828 1.537-1.105 2.604-.153.588-.978.607-1.155.027s-.795-1.864-1.677-2.49c-.687-.487-1.47-.578-2.432-.171a.6.6 0 0 1-.76-.84c3.053-5.586 7.544-8.008 12.697-8.091zM2.9 44.303c1.364-.1 2.814.87 3.605 2.324 1.48-3.481 3.257-3.88 5.099-2.526.222-.977.989-3.526 5.756-5.736C11 36.98 5.816 39.692 2.9 44.303z"/><path fill="#dcd5e9" d="M47.495 83.767c14.673 0 33 4.516 33-18.902 0-13.472-2.71-22.062-5.453-32.505-4.038-15.374-7.256-26.243-27.547-26.243S23.859 17.182 19.857 32.709c-2.668 10.352-5.362 19.79-5.362 32.156 0 23.418 18.327 18.902 33 18.902z"/><path fill="#f8f4ff" d="M47.495 6.117c20.29 0 23.509 10.869 27.547 26.243 2.743 10.443 5.453 19.033 5.453 32.505 0 7.67-1.966 12.343-5.125 15.16 2.568-2.883 4.125-7.335 4.125-14.16 0-13.472-2.71-22.062-5.453-32.505-4.038-15.374-7.256-26.243-27.547-26.243-8.725 0-14.317 2.046-18.175 5.613l.217-.232c3.876-4.04 9.624-6.381 18.958-6.381z"/><path fill="#5e4a7f" fill-rule="nonzero" d="M47.495 5.517c-9.778 0-16.135 2.52-20.39 7.692-3.199 3.887-4.902 8.23-7.397 17.694s-5.813 21.4-5.813 33.962c0 9.287 3.09 15.163 8.293 17.61 7.639 3.595 15.028 1.89 27.312 1.89 4.995 0 16.152 1.646 23.302-1.89 5.59-2.763 8.293-8.323 8.293-17.61 0-13.624-3.14-23.9-5.763-33.755-2.623-9.857-4.278-14.125-7.507-18.02-4.226-5.098-10.552-7.573-20.33-7.573zm0 1.2c9.445 0 15.429 2.341 19.406 7.14 3.082 3.716 4.696 7.884 7.275 17.576 2.58 9.691 5.719 20.163 5.719 33.432 0 8.866-2.682 14.127-7.632 16.539-6.61 3.22-15.325 1.79-22.768 1.79-12.096 0-20.147 1.467-26.768-1.79-4.77-2.347-7.632-7.673-7.632-16.539 0-12.562 3.315-24.33 5.768-33.636 2.453-9.305 4.114-13.545 7.168-17.257C32.039 9.1 38.053 6.717 47.495 6.717z"/><path fill="#f8f4ff" d="M74.968 53.385c1.61-1.99 2.287-4.879-4.057-9.468 0 0 9.95 5.364 4.057 9.468z"/><path fill="#5e4a7f" fill-rule="nonzero" d="M76.452 47.041c1.619 1.85 1.812 3.858.2 5.731-1.4 1.626-2.82 1.868-4.253.826-1.61-1.17-3.264-4.544-3.985-5.606-.186-.274-.09-.651.19-.827a.609.609 0 0 1 .827.19c.432.637 2.384 4.28 3.685 5.28.858.66 1.621.522 2.626-.645 1.188-1.381 1.06-2.728-.193-4.159-1.077-1.23-2.932-2.412-4.988-3.29a.6.6 0 0 1 .471-1.103c2.208.942 4.205 2.214 5.42 3.603z"/><path fill="#f8f4ff" d="M21.36 53.456c-1.61-1.99-2.287-4.88 4.057-9.468 0 0-9.95 5.364-4.057 9.468z"/><path fill="#5e4a7f" fill-rule="nonzero" d="M19.854 47.326c-1.618 1.85-1.81 3.858-.199 5.731 1.4 1.626 2.82 1.868 4.253.826 1.61-1.17 3.264-4.544 3.985-5.606.186-.274.09-.651-.19-.827a.609.609 0 0 0-.828.19c-.431.637-2.383 4.28-3.684 5.28-.858.66-1.622.521-2.626-.646-1.189-1.38-1.06-2.727.193-4.158 1.077-1.23 2.932-2.412 4.988-3.29a.6.6 0 1 0-.472-1.104c-2.207.943-4.204 2.215-5.42 3.604z"/><path fill="#d2e0f5" d="M63.542 1.117s3.1 5.368-1.22 9.778c-.507.518-2.445.922-3.691 0-1.247-.923-2.059-3.185-.935-4.57 4.332-2.363 5.846-5.208 5.846-5.208z"/><path fill="#f8f4ff" d="M63.542 1.117s3.1 5.368-1.22 9.778a1.245 1.245 0 0 1-.32.223c2.859-3.683 1.157-7.761.662-8.767.616-.743.878-1.234.878-1.234z"/><path fill="#5e4a7f" fill-rule="nonzero" d="M63.012.835c-1.741 2.846-5.016 4.643-5.603 4.963a.6.6 0 0 0-.179.148c-1.274 1.571-.598 4.216 1.044 5.431 1.322.979 3.62.814 4.477-.062a8.892 8.892 0 0 0 1.594-2.195c1.158-2.278 1.3-5.246-.284-8.303-.219-.423-.807-.377-1.049.018zm.426 1.508c1.748 4.876-.976 7.5-1.544 8.132-.278.31-2.04.681-3.04-.169-.998-.85-1.42-2.516-.781-3.482.747-.449 1.304-.8 1.672-1.052 1.371-.942 2.527-1.95 3.693-3.43z"/><path fill="#d2e0f5" d="M31.34 1.118s-3.1 5.368 1.22 9.778c.507.518 2.445.922 3.691 0 1.247-.923 2.059-3.185.935-4.57-4.332-2.363-5.846-5.208-5.846-5.208z"/><path fill="#f8f4ff" d="M31.34 1.118s-3.1 5.368 1.22 9.778c.076.078.185.154.32.223-2.859-3.683-1.157-7.761-.662-8.767-.616-.743-.878-1.234-.878-1.234z"/><path fill="#5e4a7f" fill-rule="nonzero" d="M31.87.836c1.741 2.846 5.016 4.643 5.603 4.963a.6.6 0 0 1 .179.148c1.274 1.571.598 4.216-1.044 5.431-1.322.979-3.62.814-4.477-.062a8.892 8.892 0 0 1-1.594-2.195c-1.158-2.278-1.3-5.246.284-8.303.219-.423.807-.377 1.049.018zm-.426 1.508c-1.748 4.876.976 7.5 1.544 8.132.278.31 2.04.681 3.04-.169.998-.85 1.42-2.516.781-3.482-.747-.449-1.304-.8-1.672-1.052-1.371-.942-2.527-1.95-3.693-3.43z"/><circle cx="33.5" cy="18.5" r="2.5" fill="#52437a"/><circle cx="58.5" cy="18.5" r="2.5" fill="#52437a"/><path fill="#5e4a7f" fill-rule="nonzero" d="M54.428 24.4H38.221a4.173 4.173 0 0 0-4.172 4.168c0 2.299 1.869 4.167 4.172 4.167h16.207c2.3 0 4.172-1.867 4.172-4.167l-.005-.205a4.176 4.176 0 0 0-4.167-3.963zm-16.207 1.2h16.207a2.973 2.973 0 0 1 2.968 2.81l.004.173c0 1.621-1.334 2.952-2.972 2.952H38.221a2.972 2.972 0 0 1-2.972-2.967A2.973 2.973 0 0 1 38.22 25.6z"/><path fill="#fff" d="M38.22 25.6h16.208a2.973 2.973 0 0 1 2.968 2.81l.004.173c0 1.621-1.334 2.952-2.972 2.952H38.221a2.972 2.972 0 0 1-2.972-2.967A2.973 2.973 0 0 1 38.22 25.6z"/><path fill="#5b4d81" fill-rule="nonzero" d="M39.137 25.4v2.643h2.691l.001-2.643h1.2v2.643h2.691l.001-2.643h1.2v2.643h2.691l.001-2.643h1.2v2.643h2.691V25.4h1.2v2.643H58v1.2h-3.296v2.644h-1.2v-2.644h-2.692l.001 2.644h-1.2v-2.644H46.92l.001 2.644h-1.2v-2.644h-2.693l.001 2.644h-1.2v-2.644h-2.693l.001 2.644h-1.2v-2.644h-3.292v-1.2h3.291l.001-2.643z"/></g></svg>