<svg data-id="25-1843fbd28905d51-dog" xmlns="http://www.w3.org/2000/svg" viewBox="0 0 100 100"><g fill="none" fill-rule="evenodd"><path fill="#222" d="M53.246 67.275s9.1-2.95 10.78.45c.513 3.955-6.204 3.426-7.182 8.332-.977 4.906 2.64 6.724.78 7.644-1.86.92-4.378-2.741-5.069-6.975-.69-4.234.691-9.45.691-9.45zM37.84 65.208s-.811 7.992.792 11.752c1.98 4.644 5.653 7.765 8.582 7.765s-2.866-4.466-4.003-8.98c-.742-2.95.74-6.088 2.195-6.994.464-.738-7.566-3.543-7.566-3.543z"/><path fill="#404040" d="M55.5 27.5c-7.57 0-10.457 7.052-17.06 10.293 15.986 4.437 17.59-.693 17.59-.693s3.387-10.264-.53-9.6z"/><path fill="#393939" d="M69.35 25.606c3.226-.744 3.93-7.819 9.664-5.47 3.796 1.556 5.517 7.423 1.9 14.704-.857 1.724-3.347 5.589-3.982 7.156-.962 2.377-1.696 4.505-2.296 6.299-.677 5.492.185 9.76-1.347 14.325-.905 2.698-6.617 7.587-7.212 10.726-1.532 8.067 5.879 13.442 1.368 13.442S58.3 73.53 58.193 73.346c-6.881 0-15.199-3.832-19.402-2.553-1.867.568-3.571 3.53-1.758 7.662 2.27 5.17 8.557 9.91 6.25 10.636-4.149 1.304-8.609-3.161-12.345-10.636-3.736-7.476-4.608-15.852 0-21.209 6.52-7.58 17.608-.02 23.978-6.588-3.194 1.389-8.314 2.192-16.125.024 5.122-3.476 7.784-11.835 12.22-15.459a13.335 13.335 0 0 1 2.03-5.2c4.204-6.452 14.498-3.999 16.308-4.417z"/><path fill="#593a30" d="M55.728 35.872c-6.551 1.308-5.81 8.276-12.441 12.775 12.069 0 14.525-4.434 14.525-4.434s-3.092-3.097-2.084-8.341z"/><g fill="#000"><path d="M57.973 73.32c-.369.35-.697.74-.968 1.2-.25.43-.442.91-.577 1.45a8.423 8.423 0 0 0-.202 2.57c.051.62.178 1.17.335 1.66.3.95.72 1.67.965 2.24.063.15.114.28.142.4.02.09.034.16.008.23-.035.08-.126.14-.26.21-.324.17-.677.12-1.036-.07-.5-.26-1.003-.77-1.472-1.43-.899-1.28-1.664-3.12-2.017-5.11-.113-.63-.179-1.28-.209-1.94-.03-.66-.028-1.33 0-1.97a.276.276 0 0 0-.26-.29.273.273 0 0 0-.296.26c-.05.66-.076 1.34-.064 2.02.011.68.06 1.37.158 2.03.381 2.57 1.425 4.93 2.603 6.28.975 1.1 2.073 1.51 3.008 1.06.505-.24.718-.56.788-.91.084-.42-.11-.98-.44-1.68-.313-.67-.717-1.53-.915-2.64a7.76 7.76 0 0 1-.004-2.75c.074-.48.204-.9.381-1.29.198-.42.444-.8.735-1.14a.285.285 0 0 0-.009-.4.286.286 0 0 0-.394.01zM29.152 59.83c-3.237-.8-7.83-3.42-10.729-7.4-2.464-3.38-3.707-7.72-1.935-12.74a.458.458 0 0 1 .886.21c-.483 4.49 1.27 8.13 3.826 10.84 1.411 1.5 3.065 2.71 4.754 3.62 1.962 1.05 3.962 1.71 5.675 1.88.153.01-2.328 3.62-2.477 3.59zM47.594 84.23a.963.963 0 0 0-.032-.17 3.035 3.035 0 0 0-.3-.62c-1.02-1.72-3.667-4.67-4.376-7.61a7.241 7.241 0 0 1-.125-2.63c.12-.91.392-1.77.751-2.51.066-.14.233-.2.372-.13s.198.23.132.37a7.612 7.612 0 0 0-.644 2.34c-.085.78-.046 1.59.164 2.39.651 2.48 2.741 4.91 3.948 6.59.597.83.97 1.52.983 1.96a.838.838 0 0 1-.212.61c-.175.2-.5.35-1.04.35-1.468.01-3.125-.69-4.68-1.97-1.064-.88-2.09-2.03-2.962-3.4a16.96 16.96 0 0 1-1.366-2.66c-.26-.66-.46-1.43-.588-2.27-.164-1.07-.222-2.25-.227-3.41a.27.27 0 0 1 .266-.29c.154-.01.284.11.291.26.091 1.12.245 2.26.47 3.3.166.76.37 1.46.637 2.05.394.89.858 1.72 1.355 2.48.825 1.27 1.76 2.36 2.745 3.19 1.35 1.14 2.772 1.82 4.058 1.83.128 0 .234-.01.32-.03a.13.13 0 0 0 .06-.02zM39.5 37.69c1.207.33 2.326.61 3.365.83 1.663.36 3.118.58 4.391.71.154.01.267.15.254.3s-.148.27-.3.25c-1.297-.09-2.78-.28-4.478-.6-1.33-.25-2.79-.58-4.397-1.01-.157-.04-.27-.18-.285-.34s.071-.32.217-.39c3.113-1.56 5.361-4 7.701-6.1.656-.59 1.318-1.15 2.01-1.66.474-.35.962-.68 1.47-.97.908-.52 1.872-.93 2.924-1.2.964-.23 1.998-.34 3.128-.29.154 0 .28.13.28.28s-.126.28-.28.28c-1.06.04-2.016.24-2.904.52-.957.31-1.829.74-2.655 1.24-.469.29-.923.61-1.369.94-.666.5-1.312 1.03-1.953 1.59-2.193 1.92-4.345 4.08-7.119 5.62z"/><path d="M58.193 73.07c-2.965-.04-6.187-.8-9.232-1.54-2.219-.54-4.344-1.07-6.206-1.31-1.58-.21-2.979-.21-4.102.12-1.064.32-2.103 1.31-2.594 2.82-.457 1.42-.44 3.3.517 5.5 1.473 3.34 4.607 6.52 6.057 8.55.215.3.39.58.511.82.071.14.123.27.145.39.011.05.03.1.003.13-.03.04-.086.06-.153.08-1.937.61-3.936-.17-5.903-1.94-2.06-1.85-4.067-4.78-5.906-8.43-2.112-4.2-3.312-8.68-3.107-12.74.153-3.02 1.08-5.79 2.994-8.03 1.202-1.41 2.568-2.28 4.035-2.81 3.122-1.13 6.69-.76 10.11-.74 3.63.03 7.098-.33 9.755-3.09a.274.274 0 0 0-.006-.39.278.278 0 0 0-.395 0c-2.556 2.62-5.88 2.9-9.349 2.85-3.5-.05-7.148-.43-10.352.71-1.58.56-3.054 1.48-4.356 2.99-2.04 2.35-3.048 5.28-3.23 8.46-.239 4.2.962 8.84 3.117 13.18 1.878 3.78 3.945 6.81 6.063 8.73 2.255 2.05 4.585 2.87 6.82 2.17.341-.1.557-.28.687-.49.184-.3.21-.69.023-1.18-.277-.73-1.084-1.77-2.09-3-1.517-1.86-3.493-4.19-4.559-6.63-.676-1.53-.84-2.89-.679-4.01.233-1.6 1.13-2.69 2.117-3 1.014-.31 2.281-.3 3.716-.13 1.84.21 3.941.7 6.14 1.18 3.105.69 6.398 1.37 9.41 1.33.153 0 .278-.12.278-.27 0-.16-.125-.28-.279-.28z"/><path d="M75.118 48.4c-.465 3.75-.212 6.93-.508 10.03-.138 1.45-.394 2.88-.889 4.34-.264.77-.903 1.73-1.715 2.77-1.394 1.78-3.303 3.84-4.5 5.68-.514.79-.896 1.54-1.025 2.2-.99 5.11 1.708 9.12 2.538 11.33.292.78.343 1.38.107 1.77-.224.37-.726.63-1.68.62-.748 0-1.517-.32-2.274-.89-1.186-.89-2.36-2.41-3.417-4.15-2.464-4.06-4.28-9.34-4.218-10.59.007-.16.137-.28.291-.27s.273.14.266.29c-.05 1.22 1.794 6.31 4.215 10.23 1.02 1.65 2.14 3.09 3.276 3.93.625.47 1.248.75 1.86.74.33 0 .587-.03.781-.09.134-.05.23-.11.281-.19.08-.14.063-.32.017-.54-.095-.44-.349-1.01-.664-1.68-1.13-2.41-3.033-6.12-2.188-10.66.141-.76.552-1.61 1.126-2.51 1.022-1.59 2.564-3.35 3.865-4.96 1.02-1.26 1.894-2.42 2.195-3.32.462-1.4.695-2.76.82-4.14.28-3.12.012-6.32.47-10.11a.488.488 0 0 1 .02-.09c.323-.97.684-2.03 1.098-3.18.358-.99.757-2.05 1.204-3.15.158-.39.425-.92.757-1.52 1.008-1.83 2.611-4.36 3.266-5.66 1.813-3.56 2.302-6.78 1.87-9.3-.416-2.41-1.677-4.18-3.455-4.94-.142-.05-.21-.22-.152-.36a.279.279 0 0 1 .364-.15c1.982.78 3.456 2.67 3.978 5.32.52 2.64.076 6.05-1.764 9.85-.647 1.32-2.23 3.88-3.236 5.72-.305.56-.556 1.05-.703 1.41-.444 1.1-.838 2.14-1.194 3.12-.408 1.12-.764 2.16-1.083 3.1zM77.343 19.277c-.662-.755-2.054-.834-2.93-.16-.617.474-.764 1.073 0 1.886 1.204 1.279 2.223 1.633 3.128.999.905-.634.464-1.97-.198-2.725z"/></g><path fill="#e45555" d="M81.62 24.95c.01.2-.016.31.121.38s.305.02.375-.12c.525-.98 1.545-3.86 1.601-6.31.043-1.87-.514-3.47-2.012-4.03-.71-.26-1.288-.26-1.74-.09-.59.21-1.007.69-1.212 1.36-.167.54-.199 1.22-.09 1.92.054.35.142.71.266 1.07.178.52.422 1.01.718 1.47 1.37 1.12 1.9 3.043 1.972 4.35z"/><path fill="#000" d="M51.287 35.27a13.392 13.392 0 0 1 2.114-5.01c.804-1.2 1.833-2.06 2.97-2.68.796-.44 1.647-.76 2.52-1 2.512-.69 5.2-.66 7.247-.57 1.572.07 2.787.16 3.312.03.985-.23 1.77-.98 2.498-1.91.845-1.09 1.625-2.43 2.715-3.29 1.015-.79 2.312-1.13 4.217-.37 1.405.56 2.134 1.97 2.465 3.44.255 1.13.27 2.3.143 3.19-.079.55-.205.98-.376 1.19-.099.12-.084.3.034.4s.294.08.393-.04c.511-.6.863-2.79.43-4.88-.352-1.69-1.215-3.3-2.82-3.96-1.58-.66-2.81-.64-3.822-.25-1.628.63-2.693 2.26-3.759 3.66-.697.92-1.382 1.74-2.32 1.95-.487.11-1.609-.02-3.064-.1-2.132-.11-4.938-.17-7.556.55-.95.25-1.878.61-2.737 1.11a9.061 9.061 0 0 0-3.21 3.06c-.537.87-.956 1.73-1.268 2.59-.342.95-.557 1.88-.677 2.8-.024.15.08.29.231.32.152.02.295-.08.32-.23z"/><path fill="#000" d="M39.8 50.5c5.237 1.37 9.2 1.35 12.14.74 5.41-1.13 7.315-4.27 7.315-4.27.078-.13.25-.18.382-.1s.177.25.1.38c0 0-1.945 3.39-7.65 4.67-3.182.72-7.547.77-13.415-.81l-.928-.26.797-.54c2.587-1.77 4.504-4.84 6.38-7.86.618-.99 1.23-1.99 1.861-2.93a27.9 27.9 0 0 1 2.11-2.82c.705-.81 1.445-1.52 2.24-2.08 1.295-.92 2.726-1.44 4.368-1.4.154 0 .28.13.28.28s-.126.28-.28.28c-1.49.04-2.753.6-3.889 1.49-.719.55-1.385 1.24-2.023 2.02-.688.84-1.339 1.78-1.983 2.77-.615.94-1.224 1.93-1.842 2.92-1.77 2.83-3.626 5.66-5.964 7.52zM62.008 34.09s-.255-.25-.509-.64c-.066-.1-.125-.2-.185-.32-.05-.1-.097-.2-.13-.32a1.37 1.37 0 0 1 .023-.9c.162-.47.451-.74.77-.88.631-.27 1.322-.13 1.322-.13.148.04.302-.05.343-.2a.279.279 0 0 0-.195-.34s-.87-.28-1.726-.02c-.523.16-1.023.52-1.355 1.23-.323.74-.256 1.39.003 1.89a2.314 2.314 0 0 0 .963.95c.244.12.41.17.41.17a.27.27 0 0 0 .378-.11.285.285 0 0 0-.112-.38z"/><path fill="#939393" d="M21.185 41.27s-.375.44-.713 1.24c-.159.38-.308.85-.4 1.38-.14.8-.148 1.77.085 2.84.318 1.46 1.107 3.13 2.714 4.87.062.07.168.07.237.01s.075-.16.014-.23c-1.476-1.73-2.168-3.35-2.432-4.76a7.667 7.667 0 0 1-.085-2.22 9.01 9.01 0 0 1 .435-1.96c.214-.62.417-.98.417-.98.054-.07.036-.18-.039-.23s-.18-.03-.233.04zM12.843 54.99s.294.53.962 1.26c.304.33.688.7 1.156 1.07.71.56 1.617 1.12 2.705 1.6 1.614.71 3.643 1.21 6.103 1.17.093 0 .168-.08.168-.17s-.075-.17-.168-.17c-2.386-.04-4.33-.6-5.878-1.33a14.21 14.21 0 0 1-2.564-1.57c-.454-.35-.84-.68-1.158-.97-.689-.63-1.047-1.08-1.047-1.08-.05-.07-.155-.09-.232-.04s-.098.15-.047.23zM12.472 46.99s.01.61.258 1.56c.114.44.28.94.52 1.49.363.83.9 1.75 1.636 2.68 1.092 1.38 2.648 2.78 4.84 3.9.082.04.183.01.226-.07.044-.08.013-.18-.069-.23-2.087-1.15-3.54-2.56-4.566-3.93a14.026 14.026 0 0 1-1.523-2.6 17.67 17.67 0 0 1-.57-1.39c-.313-.88-.419-1.44-.419-1.44-.01-.1-.09-.16-.183-.15s-.159.09-.15.18zM21.723 37.36c-.186-.49-.519-.95-.969-1.34a5.141 5.141 0 0 0-1.413-.86c-.954-.4-2.089-.57-3.236-.46-1.937.2-3.92 1.24-5.179 3.58a.11.11 0 1 0 .195.1c1.252-2.2 3.163-3.16 5.018-3.32a6.886 6.886 0 0 1 3.615.72c.383.21.726.44 1.016.7.322.29.581.61.748.97.024.05.09.08.146.06.057-.03.083-.09.06-.15z"/><path fill="#939393" d="M17.786 33.39a4.619 4.619 0 0 0-1.427-.71 5 5 0 0 0-1.593-.19c-1.025.05-2.07.4-3.017.97a7.41 7.41 0 0 0-3.434 5.1.11.11 0 0 0 .09.13c.06.01.118-.03.13-.09a7.179 7.179 0 0 1 3.4-4.83 6.561 6.561 0 0 1 2.851-.88 5.26 5.26 0 0 1 1.486.12c.486.11.955.29 1.388.56a.1.1 0 0 0 .155-.03c.035-.05.022-.12-.029-.15zM83.982 13.72a1.99 1.99 0 0 0-.38-.79 2.599 2.599 0 0 0-.65-.6 3.422 3.422 0 0 0-1.647-.54c-1.043-.07-2.152.35-2.872 1.61-.032.05-.015.12.038.15s.122.02.153-.04c.7-1.1 1.71-1.45 2.652-1.36a3.495 3.495 0 0 1 1.716.69c.171.13.324.27.452.42.14.17.255.34.324.52.017.06.08.1.138.08s.093-.08.076-.14z"/><path fill="#939393" d="M85.967 14.07a3.463 3.463 0 0 0-.406-1.89 3.63 3.63 0 0 0-1.352-1.41c-.952-.56-2.234-.71-3.747-.05a.106.106 0 0 0-.06.14c.023.06.09.09.145.06 1.426-.56 2.605-.39 3.473.16.512.32.906.78 1.192 1.29.146.26.266.54.355.82.091.29.158.59.177.88 0 .07.05.12.111.12.062 0 .112-.05.112-.12z"/></g></svg>