<svg data-id="27-ca8fb58e3f1bf24-sticker" xmlns="http://www.w3.org/2000/svg" viewBox="0 0 100 100"><g fill="none" fill-rule="evenodd"><path fill="#fff5f8" d="M33.848 28.73c-.95-7.857 3.372-24.676 10.257-20.95 7.1 3.842-6.215 9.78-5.322 20.597l-.614.133c1.074.02 2.186.088 3.335.209.296.03.599.071.906.121C45.722 18.806 57.19 7.997 60.18 15.632c2.863 7.314-9.168 7.397-12.627 14.79 6.474 2.913 13.055 9.438 13.255 19.914.155 8.144-5.194 12.538-10.364 14.279 1.35 2.486 2.184 5.137 2.586 8.207.226 1.727.235 3.282.034 4.68a4 4 0 0 1-1.114 7.843 3.986 3.986 0 0 1-2.73-1.076 12.63 12.63 0 0 1-.779.572c-1.747 10.14-17.271 8.037-15.693 3.222a15.92 15.92 0 0 1-.862-.18c-1.407.858-3.12 1.543-5.235 1.906-4.422.759-8.714-3.508-2.804-7.117-.933-1.27-1.676-2.742-2.197-4.405a16.311 16.311 0 0 1-.669-3.168c-1.033.544-2.017.653-2.684-.02-1.535-1.552-.308-6.702 5.638-10.832.33-.543.677-1.083 1.033-1.62-7.024-2.475-10.765-8.298-6.524-15.477-.288-10.565 5.343-17.122 15.332-18.41z"/><g fill="#571b31"><path d="m23.784 82.299.348.59c-.66.42-1.19.846-1.606 1.266-.792.8-1.143 1.577-1.141 2.293.003.832.503 1.549 1.248 2.07.998.698 2.439 1.047 3.898.798 2.052-.337 3.718-.988 5.09-1.81l1.114.34c-.185.13-.376.258-.573.382-1.46.92-3.247 1.658-5.465 2.055-1.735.3-3.456-.115-4.635-.957-1.011-.723-1.633-1.751-1.603-2.889.024-.905.454-1.906 1.505-2.867.472-.432 1.073-.86 1.82-1.271zM24.129 63.296l-.711 1.54a20.097 20.097 0 0 0-2.244 2.09 15.538 15.538 0 0 0-1.503 1.891c-1.017 1.526-1.51 2.956-1.534 4.072-.015.672.128 1.219.456 1.559.35.364.823.427 1.345.309.345-.078.708-.23 1.077-.436l.11.785c-.492.264-.976.434-1.425.484-.648.073-1.23-.097-1.697-.558-.473-.464-.748-1.209-.75-2.152-.003-1.25.478-2.881 1.595-4.604a14.2 14.2 0 0 1 1.599-2.028 17.08 17.08 0 0 1 1.902-1.722 18.918 18.918 0 0 1 1.78-1.23zM53.046 77.335a4.41 4.41 0 0 1 2.08 1.201 4.374 4.374 0 0 1 1.248 3.126 4.332 4.332 0 0 1-1.317 3.056A4.283 4.283 0 0 1 52 85.932a4.279 4.279 0 0 1-3.442-1.488l.668-.526c.074.097.153.19.237.28.64.687 1.526 1.148 2.537 1.193a3.692 3.692 0 0 0 2.599-1.13 3.644 3.644 0 0 0 1.027-2.599 3.597 3.597 0 0 0-2.701-3.429z"/><path d="m24.386 62.395.796.347c-1.352 2.04-2.545 4.123-3.243 6.388-.798 2.586-.944 5.411.069 8.687 1.399 4.528 4.487 7.616 8.605 9.025.786.27 1.61.477 2.466.623l-.278.589a16.342 16.342 0 0 1-2.395-.599c-4.34-1.446-7.607-4.667-9.113-9.414-1.092-3.442-.955-6.419-.134-9.148.692-2.299 1.878-4.42 3.227-6.498zm26.682 2.006c1.256 2.437 2.033 5.039 2.41 8.024.488 3.967-.13 7.048-1.785 9.422-.827 1.185-1.913 2.196-3.254 3.053l.155-.917c1.002-.746 1.829-1.595 2.476-2.561 1.512-2.26 2.028-5.161 1.51-8.879-.396-2.937-1.199-5.478-2.474-7.863.275-.077.586-.166.9-.26z"/><path d="M37.397 83.861c-1.725.731-2.96 1.471-3.784 2.203-1.1.977-1.493 1.957-1.442 2.808.048.806.502 1.54 1.267 2.127 1.128.866 2.968 1.422 4.997 1.479 4.449.124 9.816-2.104 10.387-8.344a.27.27 0 0 0-.539-.056c-.684 5.76-5.697 7.677-9.812 7.474-1.505-.074-2.887-.432-3.89-.994-.816-.458-1.38-1.039-1.44-1.756-.053-.636.284-1.332 1.064-2.108.74-.736 1.845-1.53 3.422-2.343a.271.271 0 0 0-.23-.49zM33.078 70.861c.99.744 2.024 1.483 3.078 2.09 1.18.681 2.378 1.207 3.508 1.457 1.924.426 3.659.065 4.906-1.522 1.085-1.403.186-2.801-1.773-3.869-2.83-1.543-7.781-2.501-9.587-2.333a.27.27 0 1 0 .042.539c1.5-.093 5.214.7 7.929 1.916 1.134.508 2.092 1.083 2.604 1.714.195.241.318.486.329.74.009.234-.088.466-.284.707-1.012 1.263-2.411 1.458-3.958 1.139-1.056-.218-2.178-.67-3.315-1.236a37.381 37.381 0 0 1-3.173-1.788.27.27 0 1 0-.306.446zM33.767 28.637c-.572-4.125.315-10.827 2.306-15.736 1.007-2.481 2.306-4.504 3.815-5.557 1.373-.959 2.923-1.156 4.616-.253 1.23.658 1.898 1.395 2.186 2.18.244.666.222 1.381-.011 2.148-.31 1.02-1.003 2.153-1.867 3.4-.654.944-1.405 1.959-2.142 3.055-.981 1.459-1.934 3.063-2.592 4.842-.604 1.633-.968 3.41-.851 5.366a.271.271 0 0 1-.54.045c-.216-2.048.065-3.936.637-5.675.615-1.871 1.564-3.565 2.553-5.1.719-1.116 1.462-2.146 2.114-3.099.79-1.153 1.452-2.184 1.74-3.124.169-.544.21-1.051.04-1.526-.218-.613-.766-1.157-1.718-1.679-1.66-.91-3.153-.453-4.441.805-1.076 1.05-2.012 2.632-2.795 4.48-2.02 4.777-3.003 11.322-2.504 15.362-.122.013-.236.027-.341.04z"/><path d="M55.349 35.268c3.32 3.511 5.75 8.361 5.97 14.625.17 5.489-2.101 9.359-5.187 11.888-4.006 3.282-9.38 4.286-12.454 3.714a.27.27 0 1 1 .094-.533c2.953.489 8.063-.594 11.847-3.796 2.866-2.424 4.969-6.078 4.75-11.238-.227-5.992-2.568-10.616-5.742-13.977a23.023 23.023 0 0 0-7-5.022c.091-.247.207-.546.349-.898 2.588 1.178 5.175 2.913 7.373 5.237zm-14.142-7.099c.503.043 1.024.112 1.558.207l-.304.897c-.456-.08-.902-.138-1.335-.177-6.864-.618-12.366.592-16.198 3.413-4.245 3.126-6.415 8.226-6.137 14.939l-.046.194c-2.57 4.492-1.982 8.401.588 11.23 2.363 2.601 6.365 4.293 11.085 4.729a.27.27 0 0 1-.048.539c-4.891-.416-9.037-2.165-11.504-4.841-2.754-2.989-3.455-7.133-.798-11.921-.31-6.966 1.968-12.258 6.365-15.538 3.956-2.951 9.65-4.272 16.774-3.671z"/><path d="M47.216 34.553c.048-2.268.744-4.023 1.786-5.46 1.16-1.6 2.756-2.799 4.397-3.85 1.166-.748 2.355-1.422 3.43-2.102 1.313-.829 2.459-1.676 3.226-2.654 1.079-1.376 1.456-3.01.529-5.234-.532-1.276-1.282-2.066-2.164-2.468-.95-.432-2.068-.419-3.273-.015-1.603.538-3.381 1.775-5.103 3.468-4.034 3.967-7.795 10.436-8.42 15.916a.27.27 0 0 0 .539.065c.687-5.336 4.455-11.586 8.443-15.401 1.637-1.566 3.307-2.722 4.817-3.208.966-.31 1.857-.343 2.61.011.697.325 1.26.978 1.673 1.994.738 1.815.453 3.143-.43 4.258-.71.897-1.777 1.658-2.981 2.428-1.075.688-2.26 1.377-3.415 2.148-1.711 1.142-3.364 2.458-4.531 4.187-1.062 1.575-1.725 3.489-1.674 5.917 0 .149.12.271.27.271.15 0 .27-.122.27-.271zM26.44 59.24c.596-.025 1.128-.379 1.517-.948.424-.62.667-1.507.624-2.48-.046-.988-.39-1.858-.875-2.446-.474-.573-1.093-.875-1.735-.843-.651.034-1.238.415-1.652 1.045-.426.65-.66 1.577-.588 2.583.11.991.483 1.859 1.019 2.41.49.505 1.088.766 1.69.679z"/></g><path fill="#e94b35" d="M26.402 58.7c-.416-.002-.774-.264-1.065-.647a2.98 2.98 0 0 1-.388-.729 3.872 3.872 0 0 1-.246-1.241 3.559 3.559 0 0 1 .286-1.695c.235-.515.585-.902 1.046-.941.47-.043.904.268 1.229.747.298.441.509 1.021.57 1.67.063.658-.03 1.278-.244 1.774-.254.589-.666 1.012-1.188 1.062z"/><path fill="#571b31" d="M18.77 47.183c.214.097.402.182.605.248a3.536 3.536 0 0 0 1.164.172 4.68 4.68 0 0 0 .794-.079c1.77-.32 2.379-1.25 2.379-1.25a.27.27 0 0 0-.423-.338s-.49.465-1.614.627c-.327.048-.705.051-1.144.044-.158-.002-.324-.005-.498-.004-.181.001-.367.007-.567.014-.192.006-.377.031-.587.036a.27.27 0 0 0-.108.53zM34.02 48.221c.18.325.4.618.663.889.17.176.36.332.56.479.245.177.508.333.784.469.268.132.549.241.835.336.686.23 1.398.376 2.066.47 1.712.243 3.132.143 3.132.143a.27.27 0 0 0 .266-.275.272.272 0 0 0-.275-.266s-2.04-.078-4.087-.722a12.987 12.987 0 0 1-1.87-.757 8.126 8.126 0 0 1-.858-.483c-.281-.185-.55-.368-.782-.607a.27.27 0 0 0-.434.324z"/><g fill="#ff80af" transform="translate(17 47)"><ellipse cx="3.572" cy="3.436" rx="2.5" ry="1.5" transform="scale(-1 1) rotate(-33 0 15.484)"/><ellipse cx="21.481" cy="8.054" rx="4" ry="2" transform="scale(-1 1) rotate(-22.02 -.025 118.438)"/></g></g></svg>