<svg data-id="29-fc631fd049305f1-emotion" xmlns="http://www.w3.org/2000/svg" viewBox="0 0 100 100"><g fill="none" fill-rule="evenodd"><path fill="#fff5f8" d="m61.96 31.243-.002.112c9.312 1.462 14.622 7.825 14.522 17.99 4.935 8.028-.356 14.505-9.14 16.431.581.831 1.161 1.659 1.72 2.492 4.54-1.767 11.756-.315 9.604 3.668-1.983 3.672-3.801.147-7.164.463 1.67 3.418 2.45 7.144 1.018 11.72-.196.623-.422 1.219-.678 1.788 6.25 2.126 3.142 7.165-1.27 7.494-2.15.16-3.987-.093-5.567-.591-2.074.936-4.453 1.414-7.04 1.398-2.647 6.649-13.726 5.158-10.287-2.398-2.206-1.07-3.884-2.436-5.011-4.17a4 4 0 1 1-1.69-7.08c.023-.605.078-1.234.163-1.887.56-4.278 1.957-7.742 4.421-11.083-5.418-1.46-11.394-5.772-11.38-14.32.015-9.346 5.16-15.638 10.829-19.035-3.396-7.308-13.883-14.884-8.557-17.545 5.652-2.824 12.693 5.475 15.364 14.84.439-.09.869-.16 1.288-.212a39.282 39.282 0 0 1 2.565-.231c-1.61-8.927-11.348-13.52-5.096-17.34 6.407-3.914 11.458 9.52 11.388 17.496z"/><g fill="#571b31"><path d="M68.942 67.843c1.993-.796 4.48-1.004 6.515-.65 3.004.521 4.959 2.252 3.593 4.849-.7 1.318-1.427 1.811-2.156 1.928-.458.073-.934-.007-1.435-.175-.53-.176-1.094-.45-1.718-.687-.553-.21-1.156-.384-1.833-.403l-.494-.867a5.197 5.197 0 0 1 1.543.054c.818.147 1.543.461 2.203.726.343.137.665.262.975.331.284.063.555.079.82-.016.43-.154.824-.567 1.253-1.346 1.089-1.964-.612-3.138-2.9-3.595-1.859-.371-4.144-.27-6.006.381zM73.576 85.894c1.252.678 1.91 1.545 2.153 2.418.305 1.096-.05 2.245-.856 3.19-.94 1.103-2.51 1.921-4.266 2.051-2.248.151-4.161-.132-5.8-.672l-.24-.084 1.17-.586c1.394.355 2.981.512 4.797.363 1.477-.111 2.79-.798 3.59-1.717.597-.686.908-1.502.709-2.311-.17-.695-.7-1.364-1.661-1.949a8.704 8.704 0 0 0-1.47-.7l.32-.646a8.805 8.805 0 0 1 1.554.643zM40.168 80.049a4.5 4.5 0 0 1 .793.062v.964a3.55 3.55 0 0 0-3.323.908 3.593 3.593 0 0 0-1.095 2.53 3.64 3.64 0 0 0 1.026 2.599 3.694 3.694 0 0 0 2.599 1.13 3.667 3.667 0 0 0 2.381-1.034l.515.618a4.273 4.273 0 0 1-2.896.957 4.275 4.275 0 0 1-3.056-1.214 4.328 4.328 0 0 1-1.318-3.056 4.383 4.383 0 0 1 1.248-3.126 4.427 4.427 0 0 1 3.126-1.338z"/><path d="M67.94 65.527c2.056 2.97 4.073 5.91 5.069 9.217.82 2.729.958 5.706-.134 9.148-1.506 4.747-4.774 7.968-9.112 9.415-1.792.597-3.768.891-5.879.862l.187-.6c1.968-.006 3.81-.303 5.484-.876 4.118-1.409 7.207-4.497 8.605-9.024 1.013-3.277.867-6.102.07-8.687-1.026-3.324-3.113-6.255-5.209-9.232zm-23.072 1.838 1.014.289a24.453 24.453 0 0 0-1.351 2.044c-1.55 2.627-2.5 5.414-2.944 8.696-.517 3.718-.001 6.619 1.512 8.879 1.104 1.65 2.731 2.957 4.86 3.995a180.2 180.2 0 0 0-.308.528c-2.254-1.044-3.985-2.389-5.176-4.097-1.655-2.375-2.272-5.456-1.785-9.423.433-3.42 1.388-6.336 2.99-9.078a24.63 24.63 0 0 1 1.032-1.614z"/><path d="M58.122 89.855c.092 1.267-.043 2.367-.32 3.323-.333 1.148-.897 2.07-1.601 2.79a6.418 6.418 0 0 1-2.121 1.436c-1.253.524-2.615.651-3.795.382-3.253-.74-4.841-4.359.909-10.452a.27.27 0 1 0-.388-.377c-6.628 6.644-4.362 10.82-.736 11.73 1.356.341 2.942.236 4.392-.363a6.958 6.958 0 0 0 2.444-1.684 6.978 6.978 0 0 0 1.693-3.257c.234-1.044.27-2.24.06-3.59a.27.27 0 1 0-.538.062zM62.177 74.414c-1.718-.808-3.09-.892-4.21-.59-1.268.342-2.22 1.187-2.99 2.084-.542.633-.988 1.296-1.412 1.804a3.9 3.9 0 0 1-.464.486c-.138.116-.27.205-.417.223-.154.02-.31-.046-.49-.183-.245-.187-.508-.486-.804-.916-1.614-2.321-.61-4.658 1.264-6.078 1.9-1.442 4.696-1.983 6.764-.664a.272.272 0 0 0 .375-.077.272.272 0 0 0-.077-.375c-2.25-1.527-5.366-1.037-7.514.505-2.272 1.631-3.446 4.408-1.592 7.217 1.109 1.667 2.013 1.779 2.785 1.346.359-.202.716-.565 1.08-1.023.364-.455.747-1.007 1.188-1.552.354-.436.744-.868 1.2-1.232.614-.489 1.343-.857 2.267-.941.797-.073 1.727.045 2.836.464a.27.27 0 1 0 .21-.498zM50.375 13.238c3.41-2.052 6.508.315 8.669 4.405 2.129 4.027 3.373 9.675 3.242 13.773l-.564-.076c.05-3.99-1.257-9.441-3.383-13.317-.905-1.65-1.956-3.012-3.125-3.831-1.32-.924-2.792-1.114-4.348-.15-1.614.998-2.035 2.023-1.73 3.214.197.763.656 1.574 1.235 2.464.71 1.093 1.608 2.291 2.48 3.626.968 1.481 1.91 3.127 2.549 4.971.308.889.545 1.823.683 2.806l-.68.032c-.179-.898-.44-1.75-.756-2.561-.682-1.752-1.63-3.31-2.59-4.719-.9-1.322-1.806-2.515-2.522-3.609-.652-.993-1.143-1.913-1.356-2.768-.39-1.567.062-2.971 2.196-4.26z"/><path d="m44.768 33.86.356.92a22.848 22.848 0 0 0-5.21 4.364c-3.055 3.469-5.234 8.172-5.252 14.168-.038 5.165 2.19 8.743 5.14 11.066 3.894 3.067 9.038 3.972 11.972 3.38a.27.27 0 0 1 .113.529c-3.053.679-8.458-.137-12.576-3.277-3.173-2.419-5.577-6.208-5.6-11.7.002-6.267 2.26-11.199 5.457-14.824a23.526 23.526 0 0 1 5.6-4.627zm25.178.122c4.508 3.123 6.97 8.333 6.903 15.306 2.823 4.692 2.267 8.857-.382 11.941-2.371 2.761-6.454 4.653-11.327 5.24a.27.27 0 1 1-.067-.537c4.702-.601 8.642-2.431 10.913-5.114 2.47-2.917 2.92-6.843.196-11.243l-.053-.192c.044-6.719-2.303-11.74-6.655-14.716-3.928-2.686-9.468-3.703-16.307-2.845-.396.05-.802.116-1.217.2l-.264-.9c.467-.096.924-.17 1.368-.224 7.099-.849 12.835.273 16.892 3.084z"/><path d="M46.195 38.292c.087-1.635-.424-3.352-1.286-5.076-.734-1.47-1.722-2.946-2.788-4.382-1.04-1.399-2.152-2.76-3.176-4.044-1.188-1.491-2.257-2.872-2.92-4.099-.531-.984-.818-1.842-.596-2.559.145-.465.516-.847 1.138-1.162 2.89-1.467 6.15.243 8.979 3.441 3.18 3.597 5.794 9.108 6.694 14.568a.27.27 0 0 0 .535-.084c-.835-5.601-3.428-11.28-6.63-15.006-3.09-3.596-6.765-5.344-9.996-3.756-.91.449-1.414 1.037-1.631 1.712-.294.917-.035 2.044.64 3.311.679 1.275 1.77 2.72 3.01 4.257 1.027 1.272 2.155 2.61 3.219 3.978 1.068 1.375 2.073 2.778 2.84 4.181.868 1.588 1.44 3.167 1.428 4.703a.27.27 0 1 0 .54.017zM75.905 51.94c.846-2.249.32-3.723-.636-4.6-.755-.693-1.816-1.009-2.778-1.042-.812-.029-1.554.161-2.02.461-.921.609-1.974 1.723-2.221 2.975-.213 1.075.112 2.274 1.62 3.344 1.417 1.001 2.534.874 3.3.336.58-.407.969-1.071 1.13-1.721.133-.541.11-1.068-.055-1.433a2.413 2.413 0 0 0-1.21-1.21c-.662-.301-1.374-.274-1.75-.045-.43.262-.945 1.137-.788 1.739.097.375.406.704 1.143.707a.27.27 0 0 0 .01-.541c-.365-.013-.552-.114-.594-.302-.032-.141.01-.303.075-.459.11-.262.3-.508.47-.605.253-.143.718-.1 1.148.111.343.169.66.459.842.89.104.247.083.599-.016.958-.132.475-.421.962-.856 1.25-.556.369-1.341.354-2.333-.386-1.087-.807-1.372-1.656-1.203-2.44.215-.996 1.09-1.854 1.834-2.331.332-.218.869-.323 1.452-.316.758.009 1.597.216 2.222.728.826.677 1.255 1.86.7 3.761a.27.27 0 0 0 .514.171zM61.792 55.249c.745-2.333.083-3.924-1.02-4.908-.828-.74-1.931-1.129-2.926-1.237-.904-.099-1.722.053-2.215.345-1.02.617-2.153 1.823-2.25 3.234-.071 1.047.395 2.239 1.967 3.377 1.512 1.09 2.668 1.072 3.447.629.562-.32.949-.874 1.14-1.474.214-.667.185-1.381-.061-1.858a3.024 3.024 0 0 0-1.32-1.306c-.737-.375-1.516-.393-1.908-.179-.39.213-.835.9-.805 1.503.024.514.332 1.01 1.28 1.075a.27.27 0 0 0 .046-.539c-.525-.052-.738-.27-.744-.556-.007-.377.269-.805.515-.931.275-.141.803-.052 1.304.22.39.213.76.552.992 1.032.13.273.14.653.057 1.032-.111.509-.402 1.022-.884 1.28-.59.316-1.428.206-2.537-.635-1.196-.903-1.607-1.789-1.54-2.597.094-1.09 1.019-1.982 1.813-2.45.355-.213.95-.281 1.607-.223.822.073 1.735.359 2.449.933.97.781 1.56 2.082 1.072 4.087a.27.27 0 0 0 .52.146zM69.362 59.979c.253.104.52-.049.81-.328.147-.143.247-.356.34-.602.032-.086.046-.179.066-.274.024-.154.034-.303.024-.443a1.603 1.603 0 0 0-.217-.723c-.191-.31-.448-.484-.722-.495a.881.881 0 0 0-.77.369 1.932 1.932 0 0 0-.337 1.079c-.002.432.086.813.249 1.049.158.23.346.369.557.368zm.06-1.175a.864.864 0 0 0-.012.132l-.001.096c.012-.07.014-.146.013-.228zm.176-.581c.062 0 .137-.016.11-.058-.03-.046-.07-.013-.11.058z"/></g><path fill="#4d504f" fill-rule="nonzero" d="M81.5 11.703a16.394 16.394 0 0 0-2.2-1.19 26.063 26.063 0 0 0-2.326-.911 36.175 36.175 0 0 0-2.388-.72 48.605 48.605 0 0 0-2.424-.572 72.313 72.313 0 0 0-5.89-.968 102.401 102.401 0 0 0-8.912-.697.136.136 0 0 0-.142.129.136.136 0 0 0 .13.141c3.136.166 6.116.455 8.87.839a77.51 77.51 0 0 1 5.84 1.035 60.9 60.9 0 0 1 2.4.576c.837.217 1.628.444 2.37.679.837.264 1.612.539 2.319.826.835.339 1.577.69 2.212 1.063a.135.135 0 1 0 .142-.23zM47.293 6.618a99.737 99.737 0 0 0-4.183.163 82.615 82.615 0 0 0-4.172.369c-1.293.149-2.54.329-3.734.528-3.294.55-6.191 1.264-8.552 2.087-2.511.875-4.417 1.883-5.555 2.967-.812.774-1.238 1.591-1.232 2.43a.135.135 0 0 0 .27 0c.006-.769.42-1.505 1.174-2.205 1.127-1.044 3.007-1.994 5.47-2.82 2.352-.788 5.233-1.453 8.503-1.977a100.14 100.14 0 0 1 3.714-.518 131.5 131.5 0 0 1 4.146-.438 129.1 129.1 0 0 1 4.16-.316.135.135 0 1 0-.01-.27zM26.555 20.991c1.77.72 3.85 1.373 6.179 1.924 1.958.464 4.092.857 6.364 1.169a84.87 84.87 0 0 0 5.147.541c2.483.187 5.08.277 7.755.272 6.417-.02 12.392-.609 17.402-1.611 4.644-.928 8.46-2.211 11.035-3.715a.136.136 0 0 0-.136-.234c-2.563 1.472-6.357 2.709-10.968 3.597-4.994.962-10.945 1.513-17.333 1.492a104.431 104.431 0 0 1-9.256-.427 87.823 87.823 0 0 1-6.13-.762 68.742 68.742 0 0 1-4.041-.773c-2.22-.496-4.211-1.072-5.92-1.725a.135.135 0 0 0-.174.076.136.136 0 0 0 .076.176z"/><g transform="translate(17 2)"><ellipse cx="57.441" cy="52.431" fill="#ff80af" rx="2.5" ry="1.5" transform="rotate(-19.01 57.359 52.367)"/><ellipse cx="42.704" cy="56.671" fill="#ff80af" rx="4" ry="2" transform="rotate(-8 42.763 56.736)"/><g fill="#fde478"><path d="m35.886 8.046-2.74 2.808.567-4.35-3.174-1.838 3.524-1.093.833-3.22 1.75 2.926h3.545l-2.226 3.226 1.176 3zM6.003 20.09l-3.53 2.764 1.223-4.65L.3 15.081l4.666.453 1.653-3.583L8.5 15.535l3.206.61L8.5 18.204l1.377 4.651zM67.166 16.038l-3.02 3.011v-3.784l-3.072-2.333 3.715-.57.448-4.205 2.612 3.989 4.362-.556-3.19 2.886 1.506 4.378z"/></g></g></g></svg>