<svg data-id="30-a955c25bb878ad0-smile" xmlns="http://www.w3.org/2000/svg" viewBox="0 0 100 100"><g fill="none" fill-rule="evenodd"><path fill="#fff5f8" d="M51.046 28.99C50 21.22 54.336 4.09 61.278 7.846c7.1 3.842-6.214 9.78-5.321 20.596l-1.595.35a37.49 37.49 0 0 1 4.118.213c.419.044.85.106 1.29.188 3.063-10.078 13.999-21.045 17.226-13.578 3.12 7.22-8.94 7.713-12.117 15.255 6.36 2.987 12.709 9.465 12.905 19.752.154 8.065-5.09 12.452-10.213 14.227 1.276 2.419 2.07 5 2.459 7.973.236 1.806.236 3.424.005 4.872a4 4 0 1 1-3.912 6.651c-.303.236-.623.463-.96.68-1.913 9.945-17.301 7.804-15.646 2.995a17.02 17.02 0 0 1-.575-.125c-1.404.853-3.111 1.534-5.216 1.895-4.408.757-8.689-3.483-2.855-7.085-.945-1.277-1.696-2.76-2.22-4.438-1.389-4.432-.7-8.065.86-11.394-3.489-1.193-6.845-2.382-6.981-4.796-.116-2.045 1.303-2.986 3.387-2.974-2.647-2.967-3.233-7.035-.497-11.666-.288-10.566 5.343-17.123 15.332-18.412z"/><g fill="#571b31"><path d="M32.06 62.058c-.175-2.843 2.217-3.961 5.474-3.332 1.494.288 3.172.948 4.8 1.956.147.09.293.184.439.28l-2.65-.404a13.604 13.604 0 0 0-2.774-.853c-2.51-.463-4.475.112-4.362 2.301.045.966.712 1.692 1.681 2.323.451.294.966.564 1.523.82.501.529.944.993 1.33 1.393-1.248-.444-2.405-.918-3.316-1.485-1.262-.785-2.063-1.758-2.145-2.999zM40.97 82.198l.39.55c-.767.466-1.37.94-1.834 1.407-.792.8-1.143 1.577-1.14 2.293.002.832.502 1.549 1.247 2.07.998.698 2.439 1.047 3.898.798 2.037-.335 3.693-.978 5.059-1.79l1.232.258c-.212.152-.432.3-.66.444-1.46.92-3.247 1.658-5.465 2.055-1.735.3-3.456-.115-4.635-.957-1.011-.723-1.633-1.751-1.603-2.889.024-.905.454-1.906 1.505-2.867.51-.467 1.172-.929 2.005-1.372zM69.994 77.322c.825.199 1.56.626 2.132 1.214a4.378 4.378 0 0 1 1.248 3.126 4.333 4.333 0 0 1-1.317 3.056A4.282 4.282 0 0 1 69 85.932a4.278 4.278 0 0 1-3.54-1.607l.742-.44c.08.11.168.214.261.313A3.684 3.684 0 0 0 69 85.391a3.693 3.693 0 0 0 2.599-1.13 3.643 3.643 0 0 0 1.027-2.599 3.595 3.595 0 0 0-2.746-3.44l.095-.758z"/><path d="m38.99 66.68.752.344a17.96 17.96 0 0 0-.803 2.106c-.798 2.586-.944 5.411.069 8.687 1.399 4.528 4.487 7.616 8.605 9.025.743.255 1.52.455 2.326.599l-.143.612a16.339 16.339 0 0 1-2.39-.598c-4.339-1.446-7.607-4.667-9.113-9.414-1.092-3.442-.955-6.419-.134-9.148.228-.755.508-1.492.83-2.214zm28.937-2.546c1.34 2.514 2.16 5.196 2.551 8.291.488 3.967-.13 7.048-1.785 9.422-.814 1.167-1.879 2.164-3.19 3.012l.034-.833c1.027-.756 1.873-1.619 2.533-2.604 1.512-2.26 2.028-5.161 1.511-8.879-.41-3.037-1.255-5.65-2.607-8.107z"/><path d="M54.397 83.861c-1.725.731-2.96 1.471-3.784 2.203-1.1.977-1.493 1.957-1.442 2.808.048.806.502 1.54 1.267 2.127 1.128.866 2.968 1.422 4.997 1.479 4.449.124 9.816-2.104 10.387-8.344a.27.27 0 0 0-.539-.056c-.684 5.76-5.697 7.677-9.812 7.474-1.505-.074-2.887-.432-3.89-.994-.816-.458-1.38-1.039-1.44-1.756-.053-.636.284-1.332 1.064-2.108.74-.736 1.845-1.53 3.422-2.343a.27.27 0 0 0-.23-.49zM56.888 7.344c1.373-.959 2.923-1.156 4.616-.253 1.23.658 1.898 1.395 2.186 2.18.244.666.222 1.381-.01 2.148-.31 1.02-1.004 2.153-1.868 3.4-.655.944-1.405 1.959-2.142 3.055-.98 1.459-1.934 3.063-2.592 4.842-.604 1.633-.968 3.41-.852 5.366a.27.27 0 0 1-.539.045c-.216-2.048.065-3.936.637-5.675.615-1.871 1.564-3.565 2.553-5.1.719-1.116 1.462-2.146 2.114-3.099.79-1.153 1.451-2.184 1.74-3.124.168-.544.21-1.051.04-1.526-.218-.613-.766-1.157-1.718-1.679-1.659-.91-3.153-.453-4.441.805-1.077 1.05-2.013 2.632-2.795 4.48-2.043 4.828-3.024 11.461-2.487 15.49l-.545.061c-.608-4.114.277-10.9 2.288-15.859 1.007-2.481 2.306-4.504 3.815-5.557z"/><path d="M72.35 35.268c3.32 3.511 5.75 8.361 5.97 14.625.169 5.489-2.102 9.359-5.188 11.888-4.006 3.282-9.38 4.286-12.454 3.714a.27.27 0 1 1 .094-.533c2.953.489 8.063-.594 11.847-3.796 2.866-2.424 4.969-6.078 4.75-11.238-.227-5.992-2.568-10.616-5.742-13.977a23.023 23.023 0 0 0-7.007-5.026l.41-.87c2.57 1.178 5.137 2.906 7.32 5.213zm-14.143-7.099c.471.04.958.103 1.456.19l-.2.917a15.272 15.272 0 0 0-1.337-.18c-6.864-.618-12.366.592-16.198 3.413-4.245 3.126-6.415 8.226-6.137 14.939l-.046.194c-2.57 4.492-1.982 8.401.588 11.23.097.107.197.212.3.316l-.868-.001-.076-.085c-2.606-2.972-3.22-7.04-.621-11.724-.31-6.966 1.968-12.258 6.365-15.538 3.956-2.951 9.65-4.272 16.774-3.671z"/><path d="M64.216 34.553c.048-2.268.744-4.023 1.786-5.46 1.16-1.6 2.756-2.799 4.397-3.85 1.166-.748 2.355-1.422 3.43-2.102 1.313-.83 2.459-1.676 3.226-2.654 1.079-1.376 1.456-3.01.53-5.234-.533-1.276-1.284-2.066-2.165-2.468-.95-.432-2.068-.419-3.273-.015-1.603.538-3.381 1.775-5.103 3.468-4.035 3.967-7.795 10.436-8.419 15.916a.27.27 0 0 0 .538.065c.687-5.336 4.455-11.586 8.443-15.401 1.637-1.566 3.307-2.722 4.817-3.208.965-.31 1.857-.343 2.611.011.695.325 1.26.978 1.672 1.994.738 1.815.453 3.143-.43 4.258-.71.897-1.777 1.658-2.981 2.428-1.075.688-2.26 1.377-3.415 2.148-1.711 1.142-3.364 2.458-4.53 4.187-1.064 1.575-1.726 3.489-1.675 5.917 0 .149.121.271.27.271s.271-.122.271-.271zM36.485 46.834c.224-.076.438-.1.654-.135.216-.035.423-.044.63-.05.168-.005.333-.002.495.01.256.018.505.054.74.122.626.181 1.16.518 1.446.941.14.206.233.42.23.64a.27.27 0 0 0 .54.047c.095-.605-.224-1.272-.803-1.812a3.612 3.612 0 0 0-1.11-.692 3.43 3.43 0 0 0-.96-.239 2.8 2.8 0 0 0-1.307.183c-.291.124-.559.291-.823.515a.27.27 0 0 0 .268.47zM49.931 50.617c.237-.272.498-.484.759-.688.27-.21.548-.38.832-.53.235-.123.473-.228.714-.314.38-.135.764-.228 1.147-.265 1.48-.145 2.917.418 3.36 1.495a.27.27 0 0 0 .51-.184c-.427-1.365-2.1-2.286-3.928-2.236-.47.013-.95.091-1.416.249a4.23 4.23 0 0 0-.874.412 3.945 3.945 0 0 0-.75.601c-.314.328-.58.712-.804 1.16a.27.27 0 1 0 .45.3zM39.856 56.352c-.303-.332-.508-.809-.43-1.479.117-.705.455-1.123.869-1.342.294-.156.61-.224.878-.232a2.6 2.6 0 0 1 .578.042.27.27 0 0 1-.058.538s-.547.024-.961.339c-.194.148-.33.385-.347.756-.032.351.082.588.246.751.33.33.827.402.827.402a.47.47 0 0 1-.047.935c-.225-.005-.803-.093-1.288.096-.29.114-.544.339-.608.791-.058.404.05.691.234.887.363.387.93.474.93.474a.271.271 0 0 1-.058.539s-.784-.064-1.323-.555c-.328-.299-.563-.749-.519-1.423.044-.638.329-1.037.684-1.3.122-.09.255-.162.393-.219zM48.26 64.985a18.238 18.238 0 0 0-3.925-3.303c-1.629-1.008-3.307-1.668-4.801-1.956-3.257-.629-5.65.489-5.474 3.332.082 1.241.883 2.214 2.145 2.999 1.948 1.211 5.016 2.001 7.706 2.975 1.909.691 3.626 1.468 4.555 2.6a.271.271 0 0 0 .422-.339c-.953-1.222-2.736-2.115-4.74-2.894-2.61-1.016-5.599-1.845-7.48-3.07-.969-.631-1.636-1.357-1.681-2.323-.113-2.189 1.852-2.764 4.362-2.301 1.404.259 2.98.845 4.548 1.721 1.373.766 2.747 1.735 3.972 2.934a.271.271 0 0 0 .39-.375z"/></g><g fill="#ff608b"><path d="M32.33 61.584c2.147-.823 6.321-11.266 2.86-13.593-3.46-2.328-5.767 3.063-6.751 3.44s-6.27-2.103-7.322 1.954c-1.053 4.057 9.066 9.022 11.213 8.199zM23.466 45.915c1.84-.325 6.733-8.284 4.312-10.788-2.421-2.504-5.07 1.58-5.912 1.728-.844.15-4.7-2.785-6.147.402s5.907 8.983 7.747 8.658z"/></g></g></svg>