<svg data-id="31-33460fe2c5a6bb4-music" xmlns="http://www.w3.org/2000/svg" viewBox="0 0 100 100"><g fill="none" fill-rule="evenodd"><path fill="#fff5f8" d="m55.98 30.199-.003.206c9.279 1.479 14.568 7.836 14.469 17.982 4.803 7.815-.083 14.16-8.449 16.269.48.264.898.54 1.264.83 4.325.312 6.64-1.628 9.55-.8 2.674.762 4.668 4.111 1.581 5.465-1.581.694-2.606-1.334-4.765-.895-1.425.29-2.748 1.066-3.707 1.762.152 1.13.254 2.388.438 3.794.246 1.883.215 3.678-.163 5.316 5.943 4.695 2.745 9.385-1.868 9.696-2.24.151-2.786-1.615-4.335-2.63-2.36.995-5.442 1.556-9.378 1.556-2.735 0-5.302-.196-7.538-.802-.98 1.788-.68 3.197-2.647 3.744-4.099 1.141-8.595-4.378-4.43-9.502-.146-.34-.277-.698-.395-1.073-.677-2.162-.696-4.19-.218-6.088-3.55 1.162-8.365-.209-8.248-2.363.193-3.537 2.51-1.257 5.384-2.959 2.014-1.193 2.462-3.082 3.755-4.296-4.31-2.12-8.144-6.25-8.133-13.1.015-9.316 5.129-15.597 10.776-19.002-3.283-7.375-14.036-15.078-8.656-17.766 5.693-2.845 12.797 5.6 15.422 15.049.471-.1.933-.177 1.382-.232.9-.11 1.779-.188 2.634-.235-1.563-8.981-11.382-13.59-5.11-17.423C51 8.788 56.05 22.222 55.98 30.2z"/><g fill="#571b31"><path d="m59.109 86.835.844.405c-2.37.975-5.441 1.535-9.339 1.552-2.745.01-5.326-.18-7.581-.771l.37-.746c2.148.562 4.602.747 7.211.758 3.476.015 6.277-.413 8.495-1.198zm-23.076-6.19c.122.393.26.767.412 1.12l-.662.689a11.78 11.78 0 0 1-.607-1.54c-.65-2.055-.729-3.994-.362-5.821l1.058-.397c-.494 1.85-.495 3.831.161 5.95zm30.183-10.203c.151 1.185.236 2.507.41 3.997.285 2.098.227 4.088-.26 5.883l-.49-.471c.409-1.638.454-3.444.214-5.342-.195-1.35-.312-2.564-.47-3.659zm-3.255-6.011a8.516 8.516 0 0 1 .997.798h-1.255a9.384 9.384 0 0 0-.926-.565z"/><path d="M57.56 86.74c1.577.072 2.384.758 3.068 1.473.644.674 1.2 1.368 2.004 1.758.484.234 1.056.359 1.78.312 3.073-.247 5.528-2.3 5.479-4.988-.034-1.84-1.26-4.03-4.422-6.113a.27.27 0 0 0-.306.447c2.82 2.004 3.94 3.987 3.92 5.668-.027 2.249-2.165 3.85-4.739 3.991-1.229.096-1.862-.507-2.521-1.154-.527-.517-1.064-1.069-1.8-1.45-.637-.33-1.417-.539-2.463-.485a.27.27 0 0 0 0 .541zM44.784 85.512c-1.658 1.27-2.213 2.497-2.61 3.519-.225.578-.377 1.083-.72 1.47-.231.261-.557.456-1.058.59-1.031.293-2.091.103-3.003-.41a5.075 5.075 0 0 1-2.523-3.896c-.214-2.12.846-4.633 4.058-6.876a.27.27 0 0 0-.303-.449c-3.576 2.33-4.742 5.081-4.575 7.396.172 2.389 1.769 4.348 3.734 5.066a4.713 4.713 0 0 0 2.88.13c.732-.212 1.196-.527 1.524-.92.4-.482.595-1.09.826-1.804.148-.455.317-.957.61-1.498a7.14 7.14 0 0 1 1.506-1.902.27.27 0 0 0-.346-.416zM64.584 72.154s1-.921 2.43-1.73c.797-.45 1.728-.87 2.708-1.044.819-.157 1.44.11 2.004.388.557.275 1.07.562 1.603.654.401.07.815.04 1.261-.158 1.53-.687 1.986-1.794 1.797-2.898-.247-1.442-1.717-2.939-3.463-3.414a6.046 6.046 0 0 0-2.14-.178c-2.195.188-4.387 1.384-7.925 1.067a.27.27 0 0 0-.056.538c3.564.423 5.814-.705 8.036-.835.612-.036 1.22.01 1.859.2 1.15.343 2.155 1.212 2.585 2.16.224.494.285 1.01.076 1.469-.182.395-.563.732-1.164.99-.548.237-1.003.017-1.494-.223-.602-.295-1.241-.648-2.016-.741a3.42 3.42 0 0 0-1.151.057c-1.071.246-2.086.74-2.931 1.294-1.45.949-2.406 2.026-2.406 2.026a.27.27 0 0 0 .387.378zM44.375 12.238c3.41-2.052 6.507.315 8.67 4.405 2.145 4.058 3.39 9.761 3.237 13.867l-.561-.077c.07-3.998-1.24-9.504-3.382-13.41-.905-1.65-1.956-3.012-3.125-3.83-1.32-.925-2.793-1.115-4.348-.15-1.614.997-2.035 2.022-1.73 3.213.197.763.656 1.574 1.235 2.464.711 1.093 1.608 2.29 2.48 3.626.968 1.481 1.91 3.127 2.55 4.971.317.917.559 1.883.695 2.9l-.677.026a15.14 15.14 0 0 0-.772-2.649c-.682-1.752-1.63-3.31-2.59-4.72-.899-1.32-1.806-2.514-2.523-3.608-.65-.993-1.142-1.913-1.355-2.768-.39-1.567.062-2.971 2.196-4.26z"/><path d="M45.774 66.758a.27.27 0 0 1 .113.53c-1.137.252-2.6.298-4.2.093l-.401-.696c1.709.307 3.285.316 4.488.073zM38.783 32.85l.331.936a22.845 22.845 0 0 0-5.2 4.358c-3.055 3.47-5.234 8.172-5.252 14.168-.038 5.165 2.191 8.743 5.14 11.066.838.66 1.734 1.22 2.654 1.687l-.466.599a16.35 16.35 0 0 1-2.679-1.654c-3.173-2.42-5.577-6.208-5.6-11.7.002-6.267 2.26-11.199 5.457-14.824a23.532 23.532 0 0 1 5.615-4.636zm25.163.132c4.508 3.123 6.97 8.333 6.903 15.306 2.823 4.692 2.267 8.857-.382 11.94-2.371 2.762-6.454 4.654-11.327 5.24a.27.27 0 0 1-.067-.536c4.702-.6 8.642-2.432 10.913-5.114 2.47-2.917 2.921-6.843.196-11.243l-.053-.192c.044-6.719-2.303-11.74-6.655-14.716-3.928-2.686-9.468-3.703-16.307-2.845-.437.054-.887.13-1.347.228l-.215-.912c.495-.104.98-.184 1.45-.24 7.098-.85 12.834.272 16.89 3.084z"/><path d="M40.195 37.292c.087-1.634-.424-3.352-1.286-5.076-.734-1.47-1.722-2.946-2.788-4.382-1.039-1.399-2.152-2.76-3.176-4.044-1.188-1.49-2.257-2.872-2.92-4.099-.531-.984-.818-1.842-.596-2.558.145-.466.516-.848 1.138-1.163 2.89-1.467 6.15.243 8.979 3.44 3.18 3.598 5.794 9.109 6.694 14.569a.27.27 0 0 0 .535-.084c-.835-5.6-3.428-11.28-6.63-15.006-3.09-3.596-6.765-5.344-9.996-3.755-.91.448-1.414 1.036-1.631 1.71-.294.918-.035 2.045.64 3.312.68 1.275 1.77 2.72 3.01 4.257 1.027 1.272 2.155 2.61 3.219 3.978 1.068 1.375 2.073 2.778 2.84 4.181.868 1.588 1.44 3.167 1.427 4.703a.27.27 0 0 0 .541.017zM66.352 53.915a.27.27 0 0 0-.5.088s-.17.818-.873 1.569a3.65 3.65 0 0 1-1.518.96c-.481.163-1.086.166-1.684.108-1.319-.129-2.607-.583-2.607-.583a.413.413 0 0 0-.541.445s.283 2.365 1.795 3.72c.895.802 2.205 1.275 4.113.74 1.523-.46 2.32-1.275 2.678-2.191.326-.835.29-1.76.095-2.581a8.093 8.093 0 0 0-.958-2.275z"/></g><path fill="#e94b35" d="M66.153 54.831a4.33 4.33 0 0 1-.72 1.151c-.4.457-.962.895-1.744 1.19-.56.21-1.268.25-1.972.205a12.596 12.596 0 0 1-2.126-.348c.19.683.607 1.769 1.449 2.49.71.61 1.74.925 3.219.484 1.527-.418 2.135-1.288 2.298-2.233.13-.745.014-1.524-.157-2.164a8.82 8.82 0 0 0-.247-.775z"/><path fill="#571b31" d="M52.162 51.205a6.64 6.64 0 0 0-.803.008 9.223 9.223 0 0 0-2.045.393c-1.161.353-1.981.788-1.981.788a.27.27 0 0 1-.302-.45s.633-.517 1.639-.991a8.304 8.304 0 0 1 1.833-.618 6.39 6.39 0 0 1 1.576-.13 5.346 5.346 0 0 1 2.32.635.466.466 0 0 1-.161.875c-1.945.181-3.28.667-4.195 1.22-1.553.94-1.858 2.053-1.858 2.053a.27.27 0 0 1-.528-.119s.25-1.343 2.002-2.532c.621-.421 1.436-.822 2.503-1.132zM65.928 48.068a4.971 4.971 0 0 1 1.54-.284c1.887-.029 2.871 1.17 2.871 1.17a.27.27 0 0 1-.405.358s-.882-.903-2.43-.775c-.698.058-1.526.332-2.475.98a.467.467 0 0 1-.699-.53c.194-.681.508-1.217.895-1.627.3-.32.643-.567 1-.747a4.462 4.462 0 0 1 1.439-.438 5.044 5.044 0 0 1 1.47.021.27.27 0 0 1-.043.54s-.555.035-1.262.24a4.88 4.88 0 0 0-1.14.486c-.259.154-.511.344-.74.584zM38.484 71.548c-.365 1.186-1.147 2.005-2.121 2.552-.971.546-2.139.81-3.31.869-.83.041-1.662-.022-2.427-.17-.861-.167-1.638-.438-2.22-.802-.57-.356-.962-.779-.938-1.296.04-.85.177-1.301.495-1.525.293-.206.691-.218 1.158-.243.96-.05 2.16-.068 3.463-.857a6.292 6.292 0 0 0 1.618-1.414c.533-.648.923-1.34 1.352-1.977.408-.605.85-1.16 1.529-1.547.56-.32 1.25-.329 1.957-.031.822.347 1.657 1.093 2.363 2.25a.27.27 0 0 0 .466-.277c-.753-1.304-1.674-2.142-2.578-2.55-.906-.408-1.803-.388-2.54.01-.897.483-1.461 1.211-2.002 2.008-.465.683-.912 1.419-1.59 2.061-.285.27-.613.522-1.002.746-1.163.673-2.226.646-3.074.674-.668.022-1.225.092-1.65.38-.486.33-.847.955-.927 2.24-.051.834.456 1.607 1.372 2.187.67.426 1.565.757 2.564.94.843.155 1.76.21 2.672.136 1.308-.106 2.605-.463 3.656-1.132 1.084-.69 1.91-1.702 2.236-3.09a.27.27 0 0 0-.522-.142z"/><g transform="translate(14 22)"><ellipse cx="54.441" cy="29.431" fill="#ff80af" rx="2.5" ry="1.5" transform="rotate(-19.01 54.365 29.4)"/><ellipse cx="36.704" cy="34.671" fill="#ff80af" rx="4" ry="2" transform="rotate(-8 36.755 34.712)"/><g fill="#4d504f" fill-rule="nonzero"><path d="M60.755 10.01c.399-.186.714-.48.947-.88s.183-.954-.149-1.665l-2.07-4.436c1.149-.563 1.902-.35 2.258.64l.522-.243c-.33-.782-.663-1.312-1.001-1.591s-.7-.411-1.085-.395-.984.224-1.796.62l2.421 5.186c-.418-.007-.765.053-1.04.182-.428.2-.72.488-.874.865s-.148.748.023 1.114.422.605.751.716.694.073 1.093-.113zM1.285 42.246c.39.105.784.085 1.183-.058.4-.144.692-.563.878-1.257l1.162-4.335c1.14.282 1.542.876 1.208 1.781l.51.137c.23-.743.309-1.312.236-1.708-.072-.395-.249-.7-.529-.916-.28-.216-.822-.424-1.626-.624l-1.36 5.069c-.288-.253-.568-.415-.837-.487-.418-.112-.792-.082-1.124.092s-.544.438-.64.796c-.096.358-.061.673.105.945s.444.46.834.565zM8.34 22.802c.345-.207.605-.505.779-.891.173-.387.075-.889-.295-1.504L6.513 16.56c.994-.623 1.7-.5 2.12.369l.453-.272c-.375-.682-.73-1.133-1.065-1.356-.335-.222-.677-.307-1.026-.256-.35.052-.876.298-1.579.737L8.12 20.28c-.383.033-.693.12-.932.264-.37.223-.609.514-.714.872s-.063.697.128 1.014c.19.317.442.51.753.58s.64.001.985-.207zM70.791 40.241c.972-.732 1.06-1.625.265-2.68L68.11 33.65l2.14-2.965 2.55 3.385a2.188 2.188 0 0 0-.957.405c-.358.27-.578.609-.662 1.017s-.005.771.233 1.087.534.495.885.536.697-.066 1.035-.321c.96-.723 1.048-1.602.268-2.637l-3.908-5.187-2.846 3.963 3.439 4.564a2.73 2.73 0 0 0-1.025.456c-.364.274-.576.607-.637.999s.029.747.27 1.066.532.501.875.543.683-.063 1.022-.319z"/></g></g></g></svg>