<svg data-id="35-376d545cc17820e-surprised" xmlns="http://www.w3.org/2000/svg" viewBox="0 0 100 100"><g fill="none" fill-rule="evenodd"><path fill="#fff5f8" d="m50.534 24.456-.001.022c9.254 1.79 14.33 8.289 13.863 18.366 3.29 5.744 1.504 10.551-2.951 13.457l1.379 2.046-6.662 2.031c1.998 3.032 3.164 6.22 3.662 10.065.256 1.981.231 3.737-.068 5.29a4 4 0 1 1-3.937 6.354c-.976.746-2.12 1.39-3.429 1.945-4.055 6.1-14.644 5.306-14.461 1.94a15.34 15.34 0 0 1-3.294.94c-4.141.714-8.168-3.048-3.637-6.496-.962-1.296-1.726-2.807-2.257-4.52-1.036-3.346-.904-6.237-.113-8.886-2.521.12-4.902-.365-5.634-2.381-1.423-3.916 5.862-3.926 8.643-3.792.252-.394.51-.786.773-1.177-5.053-1.926-10.251-6.694-9.936-14.973.336-8.824 4.917-14.494 10.172-17.612-5.614-3.448-13.967-2.134-13.222-8.787.847-7.552 12.8-1.57 18.97 6.391a19.384 19.384 0 0 1 3.155-.551 38.202 38.202 0 0 1 4.074-.147c-.035-10.033-11.951-15.59-5.186-19.31 6.53-3.59 10.635 11.632 10.097 19.785z"/><g fill="#571b31"><path d="m32.066 59.06.807.348c-1.596 2.349-3.048 4.727-3.846 7.35-.787 2.587-.93 5.413.072 8.689 1.382 4.522 4.428 7.609 8.49 9.025.311.109.629.207.952.296l-.646 1.387c-.947.382-2 .69-3.176.902-1.724.299-3.432-.116-4.601-.958-.998-.72-1.612-1.743-1.581-2.874.025-.9.45-1.894 1.489-2.849.142-.131.296-.262.463-.391-.886-1.255-1.597-2.697-2.105-4.316-.958-3.053-.96-5.74-.383-8.213l-.098.003-.428-.002c-2.361-.052-4.404-.8-5.091-2.741-.296-.85-.243-1.542.044-2.106.292-.573.834-1.024 1.547-1.35 1.974-.905 5.312-.887 7.179-.791.296-.472.601-.94.912-1.409zm-1.108 21.55-.015.014a7.304 7.304 0 0 0-.353.335c-.782.795-1.13 1.566-1.127 2.277.002.827.495 1.539 1.229 2.057.987.697 2.414 1.045 3.86.797 1.192-.197 2.252-.5 3.199-.884l-.373-.121c-2.569-.873-4.758-2.383-6.42-4.475zm26.364-19.633c1.58 2.739 2.523 5.653 2.95 9.07.242 1.99.209 3.758-.09 5.326.748.214 1.416.62 1.944 1.163a4.374 4.374 0 0 1 1.248 3.126 4.332 4.332 0 0 1-1.317 3.056A4.283 4.283 0 0 1 59 83.932a4.279 4.279 0 0 1-3.492-1.547 16.67 16.67 0 0 1-2.99 1.574l.33-.796c2.226-1.06 3.916-2.411 5.047-4.131 1.485-2.26 1.99-5.159 1.48-8.869-.44-3.279-1.377-6.066-2.906-8.692-.237-.406-.488-.81-.753-1.209l.977-.313c.22.34.43.683.629 1.028zm2.658 15.27-.018.072c-.32 1.16-.801 2.2-1.44 3.133a10.784 10.784 0 0 1-2.32 2.432c.08.11.168.215.26.314.642.687 1.527 1.148 2.538 1.193a3.692 3.692 0 0 0 2.599-1.13 3.644 3.644 0 0 0 1.027-2.599 3.595 3.595 0 0 0-2.646-3.414zM25.384 61.589c-1.137.325-2.07.804-2.28 1.659-.081.332-.04.715.128 1.16.302.803.915 1.307 1.692 1.618.743.298 1.632.414 2.57.433.257.005.516.003.777-.005.552-1.835 1.413-3.555 2.418-5.23l.111-.18c-1.49-.02-3.698.055-5.416.545z"/><path d="M42.776 81.417c-1.373.581-2.435 1.151-3.227 1.711-.915.648-1.477 1.29-1.771 1.872-.576 1.138-.231 2.128.71 2.856.453.35 1.062.635 1.782.834 1.206.334 2.734.433 4.335.228 4.272-.548 9.07-3.227 9.61-9.151a.272.272 0 0 0-.241-.297.27.27 0 0 0-.297.241c-.652 5.506-5.186 7.872-9.18 8.293-1.233.13-2.415.073-3.414-.134-.818-.171-1.51-.44-1.99-.806-.302-.231-.518-.494-.59-.804-.1-.431.07-.917.516-1.473.328-.408.795-.841 1.419-1.302a19.699 19.699 0 0 1 2.568-1.579.27.27 0 1 0-.23-.489zM45.624 66.196s-.988.304-2.416.62c-.497.111-1.047.222-1.628.325-.78.138-1.614.255-2.45.318-.545.042-1.091.062-1.622.048-1.894-.05-3.614-.521-4.288-2.115-.248-.58-.302-1.056-.18-1.451.213-.681.902-1.091 1.754-1.374 2.544-.843 6.547-.442 6.547-.442a.27.27 0 0 0 .062-.538s-2.44-.323-4.778-.114c-1.19.106-2.351.357-3.178.835-.63.363-1.071.861-1.247 1.504-.143.525-.104 1.159.197 1.919.779 1.945 2.789 2.7 5.082 2.774a13.38 13.38 0 0 0 1.738-.064c.87-.087 1.736-.243 2.54-.43.592-.137 1.148-.29 1.649-.444 1.434-.44 2.407-.864 2.407-.864a.27.27 0 0 0-.19-.507zM40.096 4.254c2.849-1.544 5.308.076 7.127 3.273 2.489 4.378 3.794 11.707 3.5 16.657l-.568-.11c.161-4.003-.765-9.552-2.495-13.739-.76-1.84-1.673-3.415-2.728-4.461-1.264-1.253-2.737-1.706-4.38-.79-.937.522-1.48 1.064-1.701 1.672-.171.471-.137.973.023 1.512.276.935.922 1.959 1.697 3.105.64.948 1.37 1.972 2.077 3.083.968 1.525 1.897 3.21 2.493 5.073.41 1.282.661 2.647.67 4.098h-.614c-.078-1.368-.381-2.644-.813-3.84-.64-1.771-1.572-3.364-2.533-4.814-.724-1.091-1.462-2.101-2.104-3.04-.85-1.241-1.528-2.369-1.824-3.386-.221-.759-.235-1.467.012-2.129.29-.777.952-1.508 2.16-2.164z"/><path d="m31.773 26.698.941.57a20.75 20.75 0 0 0-4.305 3.477c-3.023 3.208-5.224 7.681-5.46 13.622-.223 5.093 1.713 8.824 4.4 11.368 3.602 3.409 8.549 4.705 11.539 4.212a.271.271 0 0 1 .093.534c-3.121.578-8.35-.649-12.178-4.16-2.89-2.65-4.978-6.591-4.804-11.99.228-6.219 2.52-10.913 5.686-14.269a21.354 21.354 0 0 1 4.088-3.364zm26.546.22c4.456 3.257 6.763 8.538 6.442 15.501 2.679 4.784 1.952 8.924-.852 11.906a12.257 12.257 0 0 1-2.18 1.816l-.367-.49a11.703 11.703 0 0 0 2.084-1.759c2.615-2.82 3.227-6.722.637-11.207l-.047-.196c.289-6.707-1.907-11.793-6.208-14.895-3.85-2.776-9.363-3.96-16.237-3.339-.99.089-2.036.27-3.107.552l-.565-.83c1.24-.34 2.451-.555 3.59-.652 7.132-.603 12.836.69 16.81 3.593z"/><path d="M37.118 32.658c-.601-2.317-1.734-3.954-3.151-5.159-1.566-1.332-3.482-2.134-5.406-2.752-1.3-.419-2.605-.75-3.806-1.111-1.342-.403-2.553-.836-3.46-1.498-1.121-.817-1.737-1.998-1.53-3.917.114-1.071.465-1.843 1.026-2.344.612-.546 1.458-.762 2.448-.734 1.555.045 3.443.687 5.41 1.731 4.779 2.536 10.002 7.443 12.08 12.326a.271.271 0 0 0 .5-.209c-2.057-5.039-7.332-10.159-12.196-12.827-2.086-1.145-4.102-1.835-5.763-1.905-1.25-.051-2.308.247-3.088.928-.714.624-1.204 1.578-1.362 2.929-.274 2.36.513 3.809 1.889 4.823.985.725 2.297 1.22 3.762 1.652 1.2.353 2.504.668 3.808 1.061 1.83.551 3.659 1.254 5.182 2.462 1.36 1.08 2.483 2.555 3.136 4.691a.27.27 0 0 0 .52-.147zM59.95 47.13a2.786 2.786 0 0 0 1.92-.946c.485-.546.75-1.28.702-2.065a2.885 2.885 0 0 0-.986-1.987 2.928 2.928 0 0 0-2.136-.714 2.937 2.937 0 0 0-2.035 1.028 2.95 2.95 0 0 0-.682 2.184c.102.809.499 1.517 1.104 1.97a2.782 2.782 0 0 0 2.113.53z"/></g><path fill="#fff" d="M59.903 46.591c-.6.009-1.131-.242-1.537-.622a2.086 2.086 0 0 1-.663-1.424 2.026 2.026 0 0 1 .469-1.464c.33-.398.804-.683 1.359-.74a2.058 2.058 0 0 1 1.513.437c.42.337.717.83.782 1.407a2.144 2.144 0 0 1-.451 1.583 2.199 2.199 0 0 1-1.472.823z"/><path fill="#571b31" d="M43.95 51.13a2.786 2.786 0 0 0 1.92-.946c.485-.546.75-1.28.702-2.065a2.885 2.885 0 0 0-.986-1.987 2.928 2.928 0 0 0-2.136-.714 2.937 2.937 0 0 0-2.035 1.028 2.95 2.95 0 0 0-.682 2.184c.102.809.499 1.517 1.104 1.97a2.782 2.782 0 0 0 2.113.53z"/><path fill="#fff" d="M43.903 50.591c-.6.009-1.131-.242-1.537-.622a2.086 2.086 0 0 1-.663-1.424 2.026 2.026 0 0 1 .469-1.464c.33-.399.804-.683 1.359-.74a2.058 2.058 0 0 1 1.513.437c.42.337.717.83.782 1.407a2.144 2.144 0 0 1-.451 1.583 2.199 2.199 0 0 1-1.472.823z"/><path fill="#571b31" d="M57.9 50.227a.27.27 0 0 0-.324-.099l-6.521 2.546a.353.353 0 0 0-.22.361l.727 8.316a.438.438 0 0 0 .566.378s4.403-1.29 7.594-2.254c1.82-.55 3.245-.997 3.245-.997a.49.49 0 0 0 .263-.742s-1.304-1.897-2.636-3.774c-1.333-1.878-2.693-3.735-2.693-3.735z"/><path fill="#e94b35" d="m57.569 50.717-6.004 2.507.814 7.504c1.242-.393 4.522-1.427 7.053-2.205a353.06 353.06 0 0 1 2.62-.795 341.31 341.31 0 0 1-2.145-3.302 354.606 354.606 0 0 1-2.338-3.709z"/><g transform="translate(38 42)"><ellipse cx="24.543" cy="7.165" fill="#ff80af" rx="2.5" ry="1.5" transform="rotate(-33 24.526 7.162)"/><ellipse cx="5.185" cy="12.407" fill="#ff80af" rx="4" ry="2" transform="rotate(-22.03 5.177 12.394)"/><path fill="#fde478" d="m41.272 1.546-8.214-.098s.728 3.21.29 5.692c-.439 2.483-2.222 5.249-2.222 5.249l7.233 2.863-1.767-4.485 6.335-1.934-5.295-3.956z"/></g></g></svg>