<svg data-id="37-1545f24767a063f-smile" xmlns="http://www.w3.org/2000/svg" viewBox="0 0 100 100"><g fill="none" fill-rule="evenodd"><path fill="#fff5f8" d="m44.205 26.145.003.252C34.961 27.89 29.69 34.243 29.79 44.37c-4.92 8.006.326 14.469 9.066 16.416-3.768 5.396-7.498 10.651-5.117 18.256.515 1.644 1.247 3.102 2.166 4.363-5.987 3.614-1.682 7.908 2.753 7.147 2.119-.364 3.836-1.052 5.246-1.913.316.078.639.146.967.205-1.424 4.767 13.947 6.807 15.707-3.26 1.233-.844 2.23-1.829 2.985-2.975a4 4 0 1 0 1.72-7.072 20.358 20.358 0 0 0-.164-1.94c-.555-4.24-1.933-7.681-4.356-10.995 5.404-1.473 11.342-5.785 11.328-14.307-.015-9.346-5.16-15.638-10.83-19.035 3.296-7.367 14.02-15.055 8.646-17.74-5.692-2.845-12.794 5.594-15.42 15.04-.45-.091-.891-.164-1.32-.216a39.135 39.135 0 0 0-2.69-.239c1.543-9.003 11.395-13.62 5.115-17.456-6.407-3.914-11.458 9.52-11.387 17.496z"/><g fill="#571b31"><path d="m35.798 83.115.514.492c-.703.439-1.262.883-1.697 1.323-.792.8-1.143 1.576-1.141 2.292.003.833.503 1.55 1.248 2.07.998.7 2.439 1.048 3.898.798 2.013-.33 3.654-.963 5.01-1.762.449.097.86.184 1.236.262-.198.142-.403.28-.615.413-1.46.92-3.247 1.658-5.465 2.055-1.735.3-3.456-.115-4.635-.958-1.011-.722-1.633-1.75-1.603-2.888.024-.905.454-1.906 1.505-2.867.456-.418 1.033-.83 1.745-1.23zM66.089 74.973a4.426 4.426 0 0 1 3.126 1.337 4.376 4.376 0 0 1 1.248 3.126 4.333 4.333 0 0 1-1.317 3.057 4.282 4.282 0 0 1-3.057 1.214 4.273 4.273 0 0 1-2.937-.99l.46-.68a3.682 3.682 0 0 0 2.477 1.129 3.692 3.692 0 0 0 2.599-1.13 3.643 3.643 0 0 0 1.027-2.6 3.596 3.596 0 0 0-1.096-2.53 3.55 3.55 0 0 0-2.53-1.006 3.485 3.485 0 0 0-.792.099v-.964a4.5 4.5 0 0 1 .792-.062z"/><path d="m38.262 60.531.925.212c-2.08 2.953-4.142 5.865-5.16 9.162-.797 2.586-.943 5.411.07 8.687 1.399 4.528 4.487 7.615 8.605 9.025.829.283 1.699.5 2.605.646l-.43.564a16.342 16.342 0 0 1-2.382-.597c-4.34-1.447-7.607-4.668-9.113-9.414-1.092-3.443-.955-6.42-.134-9.148.986-3.277 2.977-6.194 5.014-9.137zm23.209 1.87c.398.568.767 1.14 1.106 1.72 1.602 2.742 2.558 5.659 2.99 9.079.488 3.967-.13 7.047-1.785 9.422-.838 1.202-1.943 2.224-3.31 3.088l.054-.836c1.073-.774 1.952-1.66 2.633-2.678 1.512-2.26 2.028-5.16 1.512-8.879-.444-3.281-1.395-6.069-2.945-8.696-.377-.64-.79-1.27-1.24-1.894z"/><path d="M49.486 84.636c-1.725.73-2.96 1.471-3.784 2.203-1.1.977-1.493 1.956-1.442 2.808.048.806.502 1.54 1.267 2.127 1.128.866 2.968 1.422 4.997 1.479 4.449.124 9.816-2.105 10.387-8.344a.271.271 0 0 0-.539-.056c-.684 5.76-5.697 7.676-9.812 7.474-1.505-.074-2.887-.432-3.89-.994-.816-.459-1.38-1.04-1.44-1.757-.053-.635.285-1.331 1.064-2.107.74-.736 1.845-1.53 3.422-2.343a.271.271 0 0 0-.23-.49zM47.213 12.567c2.162-4.09 5.259-6.458 8.67-4.406 2.133 1.29 2.586 2.694 2.195 4.26-.213.855-.704 1.776-1.355 2.769-.717 1.093-1.624 2.287-2.523 3.608-.96 1.41-1.907 2.967-2.59 4.72-.32.824-.585 1.69-.764 2.606l-.676-.046c.137-.994.376-1.939.687-2.837.639-1.844 1.582-3.49 2.549-4.972.872-1.335 1.769-2.532 2.48-3.625.579-.89 1.039-1.702 1.234-2.465.306-1.19-.114-2.216-1.73-3.213-1.554-.964-3.026-.775-4.347.15-1.168.818-2.22 2.18-3.125 3.83-2.143 3.906-3.452 9.41-3.381 13.409l-.562.066c-.15-4.105 1.095-9.8 3.238-13.854z"/><path d="M67.089 33.41c3.197 3.625 5.456 8.556 5.458 14.824-.023 5.492-2.428 9.28-5.601 11.7-4.118 3.14-9.523 3.956-12.575 3.277a.271.271 0 0 1 .112-.53c2.934.593 8.078-.312 11.973-3.38 2.948-2.322 5.177-5.9 5.139-11.066-.018-5.995-2.196-10.698-5.252-14.168a22.847 22.847 0 0 0-5.235-4.379l.425-.879a23.52 23.52 0 0 1 5.556 4.6zM53.203 25.82c.427.052.867.123 1.315.213l-.206.913a16.024 16.024 0 0 0-1.222-.201c-6.838-.858-12.38.159-16.307 2.845-4.351 2.976-6.698 7.997-6.654 14.716l-.053.191c-2.726 4.4-2.275 8.327.195 11.244 2.27 2.682 6.212 4.513 10.913 5.114a.271.271 0 1 1-.066.537c-4.874-.587-8.956-2.48-11.328-5.24-2.65-3.084-3.204-7.25-.382-11.941-.066-6.973 2.395-12.183 6.903-15.307 4.058-2.81 9.794-3.933 16.892-3.084z"/><path d="M60.603 33.199c-.013-1.536.559-3.116 1.427-4.703.768-1.403 1.772-2.806 2.84-4.181 1.065-1.369 2.192-2.707 3.219-3.979 1.24-1.536 2.33-2.981 3.01-4.256.675-1.267.935-2.395.64-3.312-.216-.674-.722-1.262-1.631-1.71-3.23-1.59-6.906.159-9.996 3.754-3.202 3.726-5.795 9.406-6.63 15.006a.27.27 0 1 0 .534.084c.9-5.46 3.515-10.97 6.695-14.568 2.829-3.197 6.089-4.908 8.979-3.44.623.315.993.697 1.138 1.162.223.717-.065 1.575-.596 2.559-.663 1.226-1.731 2.608-2.92 4.099-1.023 1.284-2.137 2.645-3.176 4.043-1.066 1.437-2.054 2.912-2.788 4.382-.861 1.725-1.373 3.442-1.286 5.076.005.15.13.267.279.262a.271.271 0 0 0 .262-.278zM33.917 54.432s.27.428.893.91a4.984 4.984 0 0 0 2.059.927 7.04 7.04 0 0 0 1.495.15c1.084-.012 1.768-.235 2.2-.521.895-.59.82-1.413.82-1.413a.27.27 0 0 0-.541.02s-.034.493-.626.805c-.373.197-.945.305-1.822.234a6.956 6.956 0 0 1-1.298-.226c-.3-.079-.574-.177-.828-.27a9.66 9.66 0 0 1-1.004-.43c-.603-.304-.946-.549-.946-.549a.27.27 0 0 0-.402.363zM35.265 67.686l.062.009s1.093.216 2.632.44c.54.079 1.136.16 1.759.234.71.084 1.456.154 2.196.199a19.31 19.31 0 0 0 2.176.027 9.065 9.065 0 0 0 1.36-.165l.691.797-.124.039c-.897.266-2.013.365-3.188.341a19.153 19.153 0 0 1-1.567-.098 27.84 27.84 0 0 1-2.312-.342 31.254 31.254 0 0 1-1.518-.327c-1.338-.324-2.243-.622-2.243-.622a.27.27 0 1 1 .138-.523zm3.96-4.144s.937.07 2.2.25l.65.75c-1.588-.319-2.9-.461-2.9-.461a.271.271 0 0 1 .05-.54z"/><path d="M42.044 64.139c1.574.857 2.276 1.843 2.892 2.808.5.786.93 1.556 1.85 2.212.737.526 1.78.973 3.406 1.335 1.022.227 2.259.436 3.788.584a.27.27 0 0 1-.031.54c-1.574-.03-2.858-.124-3.916-.296-1.82-.296-2.988-.786-3.814-1.353-1.056-.726-1.558-1.599-2.117-2.496-.618-.992-1.317-2.023-3.19-2.892a.446.446 0 0 1-.081-.768c1.31-.937 3.259-1.048 5.257-.737 3.604.563 7.352 2.426 7.352 2.426a.27.27 0 1 1-.234.488s-3.702-1.704-7.226-2.156c-1.44-.184-2.852-.17-3.936.305z"/></g><g transform="translate(28 44)"><ellipse cx="3.816" cy="5.354" fill="#ff80af" rx="2.5" ry="1.5" transform="scale(-1 1) rotate(-19.01 -.004 28.119)"/><ellipse cx="18.553" cy="8.595" fill="#ff80af" rx="4" ry="2" transform="scale(-1 1) rotate(-8 .02 274.26)"/><g fill="#571b31"><path d="M6.22 5.144a1.793 1.793 0 1 0 .806-3.493c-.572-.133-3.965-.85-4.372-.19-.408.66 2.313 1.14 2.222 1.533a1.793 1.793 0 0 0 1.343 2.15zM20.833 7.968a2 2 0 1 0 .624-3.952c-.558-.088-5.92-1.153-6.078-.516-.158.636 3.874 1.647 3.79 2.18a2 2 0 0 0 1.664 2.288z"/></g></g></g></svg>