<svg data-id="39-128caa8e2530a4e-smile" xmlns="http://www.w3.org/2000/svg" viewBox="0 0 100 100"><g fill="none" fill-rule="evenodd"><path fill="#fff5f8" d="M30.607 12.36c6.425-4.5 13.701 6.245 17.268 15.157a29.335 29.335 0 0 1 4.292-.227 37.65 37.65 0 0 1 3.974.273c2.508-9.228 8.952-20.006 14.704-14.931 5.35 4.72-6.35 7.737-9.477 16.065 8.722 2.836 12.93 9.81 11.44 19.697 3.51 8.045-1.575 13.521-9.533 14.789 2.797 4.28 4.405 8.813 4.996 13.33.52 3.973-.438 7.102-3.285 9.202-2.228 8.34-11.29 6.896-12.619 3.03l-.319.004h-.115c-.903 4.296-11.815 5.055-12.579-3.218-1.218-1.093-2.16-2.532-2.75-4.414-2.121-6.775.636-12.808 3.934-18.112-7.98-1.888-12.436-9.209-8.305-14.231-1.741-8.718 1.874-16.419 9.854-19.745-3.336-8.683-18.02-12.091-11.48-16.67z"/><g fill="#ff80af" transform="translate(-297.586 -892.586)"><circle cx="363.586" cy="947.586" r="5"/><circle cx="336.586" cy="947.586" r="5"/></g><g fill="#571b31"><path d="m39.927 62.745.934.313c-1.6 2.571-3.06 5.315-3.88 8.237-.822 2.937-.99 6.054.033 9.356.5 1.618 1.273 2.895 2.266 3.898l-.026 1.1c-1.36-1.15-2.41-2.692-3.06-4.741-1.098-3.473-.947-6.759-.098-9.858.806-2.938 2.245-5.707 3.83-8.305zm23.951.265c.162.26.32.52.473.781 2.345 3.998 3.689 8.187 4.188 12.348.52 3.852-.332 6.932-2.873 9.095a9.52 9.52 0 0 1-.513.406l.297-1.039.045-.038c2.229-2.007 2.953-4.841 2.508-8.354-.576-4.062-1.994-8.123-4.354-11.998a34.68 34.68 0 0 0-.693-1.091z"/><path d="M54.339 83.898c-1.013.764-1.66 1.551-2.006 2.321-.77 1.708-.15 3.333 1.188 4.448 1.203 1.003 3.025 1.58 4.9 1.469 3.359-.199 6.972-2.598 7.486-8.836a.273.273 0 0 0-.243-.296.272.272 0 0 0-.296.243c-.65 5.69-3.914 7.852-6.99 7.964-1.623.058-3.176-.456-4.224-1.314-.524-.428-.923-.938-1.118-1.519-.19-.565-.193-1.186.05-1.85.26-.705.765-1.453 1.599-2.214a.27.27 0 0 0-.346-.416z"/><path d="M48.872 83.873c.723.635 1.27 1.245 1.679 1.819.244.342.43.672.577.987.73 1.592.117 2.849-1.114 3.65-.958.624-2.261.989-3.627 1.004-3.5.04-7.344-2.204-6.816-8.087a.272.272 0 0 0-.241-.297.27.27 0 0 0-.297.241c-.78 6.474 3.49 9.022 7.354 9.07 1.566.019 3.073-.383 4.173-1.097.402-.26.752-.563 1.03-.903.81-.985 1.09-2.269.43-3.718a5.793 5.793 0 0 0-.855-1.325c-.483-.575-1.127-1.165-1.955-1.767a.27.27 0 1 0-.338.423zM41.896 28.64l.276.943c-2.083.905-3.852 2.121-5.29 3.583-3.793 3.859-5.26 9.43-4.054 15.517a.475.475 0 0 1-.098.391c-2.688 3.226-1.53 7.471 1.825 10.441 2.648 2.345 6.66 3.914 11.356 3.634a.27.27 0 0 1 .037.54c-6.07.48-11.1-2.054-13.685-5.452-2.27-2.986-2.671-6.63-.4-9.584-1.218-6.344.344-12.154 4.31-16.185 1.483-1.506 3.302-2.764 5.44-3.708zm26.709 3.592c4.03 3.721 5.742 9.223 4.706 16.117 2.142 5.039 1.012 9.086-2.04 11.771-2.732 2.404-7.038 3.71-11.946 3.613a.271.271 0 0 1 .009-.541c4.74.059 8.897-1.205 11.519-3.545 2.852-2.545 3.846-6.371 1.759-11.108l-.025-.196c.978-6.648-.647-11.947-4.542-15.5-1.772-1.617-4.01-2.87-6.675-3.73l.288-.823c2.78.916 5.108 2.244 6.947 3.942zm-16.297-5.404c1.413.03 2.762.127 4.046.291l-.227.883a37.348 37.348 0 0 0-3.835-.247 28.822 28.822 0 0 0-4.187.228l-.351-.907a29.707 29.707 0 0 1 4.554-.248z"/><path d="M61.018 32.269c.136-2.043.803-3.791 1.738-5.332.663-1.093 1.464-2.08 2.318-2.989 1.14-1.214 2.378-2.285 3.512-3.274 1.46-1.274 2.752-2.421 3.5-3.525.602-.888.863-1.764.67-2.654-.153-.717-.61-1.461-1.492-2.232-2.517-2.191-5.142-1.663-7.547.466-3.641 3.223-6.767 10.24-8.091 16.193a.27.27 0 1 0 .527.122c1.157-4.829 3.532-10.364 6.376-13.872 2.519-3.108 5.399-4.638 8.116-2.207.68.606 1.058 1.169 1.172 1.727.133.645-.106 1.263-.545 1.903-.716 1.044-1.962 2.112-3.342 3.331-1.152 1.017-2.398 2.133-3.535 3.398-.875.973-1.686 2.034-2.338 3.207-.927 1.665-1.535 3.551-1.58 5.715a.272.272 0 0 0 .259.282.272.272 0 0 0 .282-.259zM49.057 29.878a49.758 49.758 0 0 0-3.284-7.955 39.692 39.692 0 0 0-2.684-4.438 26.901 26.901 0 0 0-2.172-2.721c-3.314-3.605-7.085-5.287-10.565-2.829-1.314.932-1.83 1.845-1.832 2.727-.002.683.306 1.372.87 2.069 1.233 1.525 3.735 3.146 6.244 5.11 3.057 2.392 6.133 5.307 6.746 9.277a.27.27 0 1 0 .535-.078c-.573-4.135-3.69-7.236-6.828-9.769-2.423-1.955-4.855-3.559-6.04-5.065-.412-.525-.667-1.028-.66-1.537.01-.666.48-1.3 1.484-1.993 3.108-2.157 6.37-.44 9.31 2.765.725.789 1.43 1.67 2.11 2.612A44.281 44.281 0 0 1 45 22.342c1.445 2.584 2.68 5.285 3.545 7.708a.27.27 0 1 0 .513-.172zM48.412 56.856s.315.407.992.85c.309.203.698.404 1.16.57.303.108.639.195 1.004.255.468.078.983.104 1.542.078a8.783 8.783 0 0 0 2.474-.492c1.446-.523 2.196-1.253 2.196-1.253a.271.271 0 0 0-.36-.405s-.731.58-2.063.945a8.092 8.092 0 0 1-2.267.279 7.64 7.64 0 0 1-1.353-.133 9.283 9.283 0 0 1-.877-.202 8.905 8.905 0 0 1-1.068-.368c-.642-.273-1.004-.513-1.004-.513a.27.27 0 1 0-.376.389zM38.267 51.708s.155-.404.524-.86a3.158 3.158 0 0 1 1.416-.975 3.93 3.93 0 0 1 1.187-.212c.857-.034 1.485.16 1.943.453.955.611 1.185 1.594 1.185 1.594a.27.27 0 1 0 .533-.093s-.166-1.254-1.288-2.114c-.54-.413-1.302-.725-2.373-.767-.584-.014-1.083.057-1.504.195a3.078 3.078 0 0 0-1.786 1.465c-.35.656-.371 1.221-.371 1.221a.271.271 0 0 0 .534.093zM60.267 51.708s.155-.404.524-.86a3.158 3.158 0 0 1 1.416-.975 3.93 3.93 0 0 1 1.187-.212c.857-.034 1.485.16 1.943.453.955.611 1.185 1.594 1.185 1.594a.27.27 0 1 0 .533-.093s-.166-1.254-1.288-2.114c-.54-.413-1.302-.725-2.373-.767-.584-.014-1.083.057-1.504.195a3.078 3.078 0 0 0-1.786 1.465c-.35.656-.371 1.221-.371 1.221a.271.271 0 0 0 .534.093zM41.436 69.895a.27.27 0 0 1 .359-.131c.709.293 1.604.827 2.58 1.444.527.332 1.075.687 1.632 1.038.68.428 1.376.844 2.055 1.198.736.384 1.452.694 2.117.838.622.135 1.194.133 1.674-.139.164-.093.316-.215.456-.37l.605.749a2.69 2.69 0 0 1-.58.458c-.673.396-1.48.463-2.363.276-.747-.158-1.556-.497-2.373-.944a23.56 23.56 0 0 1-2.087-1.317 71.335 71.335 0 0 1-1.58-1.136c-.898-.662-1.705-1.264-2.364-1.605a.27.27 0 0 1-.131-.359zm2.378-5.34.062.008s4.723 1.158 7.672 3.358c.382.285.734.588 1.044.908l-.494.67a8.053 8.053 0 0 0-1.03-.954c-2.794-2.205-7.328-3.458-7.328-3.458a.27.27 0 1 1 .136-.524z"/><path d="M62.26 69.962c-.661.272-1.493.784-2.4 1.374-.487.316-.993.655-1.507.986-.631.406-1.273.799-1.901 1.125-.68.353-1.341.627-1.956.727-.551.089-1.06.041-1.492-.262-.374-.263-.686-.699-.935-1.34-.636-1.623.182-2.959 1.445-4.032 2.51-2.131 6.785-3.249 6.785-3.249a.27.27 0 1 0-.128-.525s-4.481 1.027-7.157 3.167c-1.597 1.277-2.542 2.942-1.812 4.965.315.864.746 1.438 1.24 1.799.635.464 1.389.589 2.21.46.713-.111 1.484-.417 2.262-.842.65-.355 1.306-.792 1.944-1.249.502-.36.99-.731 1.456-1.087.826-.631 1.566-1.209 2.175-1.527a.27.27 0 1 0-.229-.49z"/></g></g></svg>