<svg data-id="40-4655968213ee7e1-happy" xmlns="http://www.w3.org/2000/svg" viewBox="0 0 100 100"><g fill="none" fill-rule="evenodd"><path fill="#fff5f8" d="M45.24 29.56c-1.075-7.745 3.265-24.964 10.224-21.198 7.1 3.842-6.214 9.78-5.322 20.596l-1.754.384a37.67 37.67 0 0 1 3.964.145c.478.041.973.107 1.48.198 3.187-10.058 14.39-20.949 17.499-13.397 2.993 7.27-9.062 7.556-12.377 15.03 6.354 2.912 12.704 9.256 13.076 19.446.302 8.246-5.111 12.742-10.312 14.527 1.298 2.44 2.104 5.043 2.497 8.047.24 1.828.237 3.464-.003 4.926a3.999 3.999 0 0 1-1.018 7.868 3.989 3.989 0 0 1-2.908-1.253c-.19.148-.387.291-.59.431-1.481 10.72-17.934 8.35-15.64 3.29a16.038 16.038 0 0 1-.606-.117c-1.483.982-3.324 1.771-5.65 2.17-4.472.768-8.812-3.606-2.598-7.24-1.013-1.32-1.814-2.867-2.366-4.63-.407-1.3-.635-2.53-.716-3.705-.794.332-1.666.393-2.623.09-3.766-1.192 3.27-9.18 5.833-10.746l.088-.14c.163-.26.329-.518.497-.776-6.748-2.452-10.315-8.108-6.297-15.188-.479-10.689 5.18-17.377 15.378-18.728z"/><path fill="#e94b35" d="M39.414 60.057c1.834.39 5.062-.1 6.019-2.004.956-1.905.265-3.081-1.684-2.627-1.949.454-1.548 4.055-4.335 4.63z"/><g fill="#571b31"><path d="M35.304 63.785a.27.27 0 1 1 .267.471c-1.295.762-3.931 3.497-5.502 6.022-.656 1.055-1.128 2.068-1.2 2.878-.027.309.008.58.14.797.124.199.335.337.63.427.908.282 1.72.185 2.459-.171l-.005 1.075c-.838.29-1.751.313-2.738-.004-1.684-.556-1.72-2.218-.694-4.199 1.483-2.862 5.052-6.425 6.643-7.296zM35.008 82.794l.382.565c-.694.436-1.247.876-1.678 1.312-.792.8-1.143 1.576-1.141 2.292.003.833.503 1.55 1.248 2.071.998.698 2.439 1.047 3.898.798 1.968-.323 3.581-.935 4.92-1.71l1.348.195c-.205.146-.417.288-.637.427-1.46.92-3.247 1.658-5.465 2.055-1.735.299-3.456-.115-4.635-.958-1.011-.722-1.633-1.751-1.603-2.888.024-.905.454-1.906 1.505-2.867.48-.44 1.094-.874 1.858-1.292zM64.27 77.86a4.41 4.41 0 0 1 2.042 1.192 4.378 4.378 0 0 1 1.248 3.125 4.332 4.332 0 0 1-1.317 3.057 4.283 4.283 0 0 1-3.057 1.214 4.275 4.275 0 0 1-3.447-1.495c.205-.15.432-.32.682-.508.071.093.147.183.228.269a3.694 3.694 0 0 0 2.537 1.193 3.69 3.69 0 0 0 2.599-1.131 3.64 3.64 0 0 0 1.027-2.599 3.593 3.593 0 0 0-1.096-2.529c-.432-.42-.97-.73-1.568-.889z"/><path d="m35.495 63.03.849.264c-1.343 2.028-2.525 4.1-3.22 6.352-.797 2.586-.943 5.411.07 8.687 1.399 4.528 4.487 7.615 8.605 9.025a15.8 15.8 0 0 0 2.413.614c-.128.21-.242.402-.342.577a16.29 16.29 0 0 1-2.278-.578c-4.34-1.447-7.607-4.668-9.113-9.414-1.092-3.443-.955-6.419-.134-9.148.679-2.255 1.833-4.34 3.15-6.379zm29.169 9.911c.488 3.967-.13 7.047-1.785 9.422-.824 1.181-1.906 2.19-3.241 3.044l.24-.98c.958-.73 1.751-1.554 2.377-2.489 1.513-2.26 2.029-5.161 1.512-8.88-.4-2.961-1.214-5.52-2.508-7.923l.96-.285c1.277 2.456 2.064 5.078 2.445 8.091z"/><path d="M48.583 84.377c-1.725.73-2.96 1.471-3.784 2.203-1.1.977-1.493 1.956-1.443 2.808.048.806.503 1.54 1.268 2.127 1.128.866 2.968 1.422 4.997 1.479 4.449.124 9.816-2.105 10.386-8.344a.27.27 0 0 0-.538-.056c-.684 5.76-5.697 7.676-9.812 7.474-1.505-.074-2.887-.432-3.89-.994-.816-.459-1.38-1.039-1.44-1.757-.053-.635.284-1.331 1.064-2.107.74-.736 1.845-1.53 3.422-2.343a.27.27 0 0 0-.23-.49zM51.074 7.86c1.373-.959 2.923-1.157 4.616-.253 1.23.657 1.898 1.395 2.186 2.18.244.666.222 1.38-.011 2.148-.31 1.02-1.003 2.153-1.867 3.4-.655.943-1.405 1.959-2.142 3.055-.981 1.459-1.934 3.063-2.592 4.842-.604 1.633-.968 3.41-.852 5.366a.271.271 0 0 1-.539.044c-.216-2.047.065-3.935.637-5.674.615-1.871 1.564-3.565 2.553-5.1.719-1.117 1.462-2.146 2.114-3.099.79-1.154 1.45-2.184 1.74-3.124.168-.544.21-1.051.04-1.526-.218-.613-.766-1.157-1.718-1.679-1.66-.91-3.153-.453-4.442.805-1.076 1.05-2.012 2.632-2.794 4.48-2.044 4.831-3.025 11.473-2.486 15.5l-.544.066c-.612-4.112.272-10.91 2.286-15.874 1.007-2.481 2.306-4.504 3.815-5.557z"/><path d="M66.535 35.784c3.32 3.511 5.75 8.361 5.97 14.625.17 5.489-2.101 9.359-5.187 11.888-4.006 3.282-9.38 4.286-12.454 3.714a.27.27 0 0 1 .094-.533c2.953.489 8.063-.595 11.847-3.796 2.866-2.424 4.969-6.078 4.75-11.239-.227-5.991-2.568-10.615-5.743-13.976a23.007 23.007 0 0 0-7.036-5.04l.307-.918c2.614 1.18 5.232 2.928 7.452 5.275zm-14.142-7.099c.526.045 1.071.118 1.63.22l-.38.884c-.455-.08-.9-.138-1.331-.177-6.864-.618-12.366.592-16.198 3.413-4.245 3.126-6.415 8.226-6.137 14.939l-.046.194c-2.57 4.492-1.982 8.401.588 11.23 2.363 2.601 6.365 4.293 11.085 4.729a.271.271 0 0 1-.048.539c-4.891-.416-9.037-2.165-11.504-4.841-2.755-2.99-3.455-7.133-.798-11.921-.31-6.966 1.968-12.259 6.365-15.538 3.956-2.951 9.65-4.272 16.774-3.671z"/><path d="M58.402 35.069c.048-2.268.744-4.023 1.786-5.46 1.16-1.6 2.756-2.799 4.397-3.85 1.166-.748 2.354-1.422 3.43-2.102 1.313-.83 2.459-1.676 3.226-2.654 1.079-1.376 1.456-3.01.529-5.234-.532-1.276-1.283-2.067-2.164-2.468-.951-.433-2.068-.419-3.273-.015-1.603.538-3.381 1.774-5.103 3.468-4.035 3.967-7.795 10.436-8.42 15.916a.27.27 0 0 0 .539.065c.687-5.336 4.455-11.586 8.443-15.401 1.637-1.567 3.307-2.722 4.817-3.208.965-.311 1.857-.343 2.61.01.696.326 1.26.979 1.673 1.995.738 1.815.453 3.143-.431 4.258-.71.897-1.776 1.658-2.98 2.428-1.075.688-2.26 1.377-3.415 2.148-1.711 1.142-3.364 2.458-4.531 4.187-1.063 1.575-1.725 3.489-1.674 5.917a.27.27 0 0 0 .54 0zM36.029 49.833a3.223 3.223 0 0 0-.218-.947 2.795 2.795 0 0 0-.795-1.052 3.403 3.403 0 0 0-.848-.511 3.602 3.602 0 0 0-1.274-.295c-.791-.028-1.488.218-1.85.714a.27.27 0 0 0 .415.348c.154-.158.372-.243.616-.29.5-.097 1.118.043 1.688.357.214.118.415.269.61.437.123.106.24.221.357.343a4.6 4.6 0 0 1 .409.481c.128.178.263.346.368.558a.27.27 0 1 0 .522-.143zM46.417 51.795c.237-.272.498-.484.759-.687a5.46 5.46 0 0 1 .832-.53c.235-.124.473-.229.714-.315a4.81 4.81 0 0 1 1.147-.265c1.48-.145 2.917.419 3.36 1.495a.27.27 0 1 0 .51-.184c-.427-1.365-2.1-2.285-3.928-2.236-.47.013-.951.091-1.417.25a4.133 4.133 0 0 0-1.623 1.013 4.691 4.691 0 0 0-.804 1.159.27.27 0 1 0 .45.3zM43.517 58.774s-.292.228-.89.42c-.27.087-.601.155-1 .201-.36.04-.771.051-1.243.026a9.851 9.851 0 0 1-1.892-.276c-1.354-.316-2.28-.787-2.91-1.265-1.043-.791-1.257-1.569-1.257-1.569a.271.271 0 0 0-.53.111s.157.973 1.339 2.007c.659.575 1.646 1.165 3.118 1.611.784.226 1.476.352 2.083.38a5.745 5.745 0 0 0 1.44-.107c.47-.099.852-.244 1.154-.403.71-.374.992-.775.992-.775a.27.27 0 0 0-.404-.361zM44.234 73.369c.27.204.474.47.65.765.264.443.444.96.619 1.481.156.461.304.924.482 1.35.218.524.484.99.839 1.341.589.584 1.419.885 2.713.587.93-.226 1.496-.837 1.752-1.698.264-.886.188-2.063-.152-3.3-.743-2.706-2.704-5.701-4.463-6.434a.271.271 0 0 0-.217.496c1.603.742 3.267 3.613 3.867 6.146.206.869.284 1.697.175 2.383-.117.735-.466 1.291-1.183 1.447-.856.196-1.408.045-1.805-.334-.278-.265-.486-.62-.675-1.014-.193-.402-.363-.839-.55-1.27-.42-.97-.908-1.899-1.753-2.397a.27.27 0 1 0-.3.451z"/></g><path fill="#ff80af" d="M50.87 52.582c2.195.23 3.882 1.309 3.767 2.407-.116 1.098-1.99 1.8-4.186 1.57s-3.884-1.31-3.768-2.407c.116-1.098 1.99-1.801 4.186-1.57zm-18.675-3.065c1.32.403 2.194 1.373 1.951 2.165-.242.792-1.508 1.106-2.828.703-1.32-.404-2.194-1.373-1.951-2.165.242-.792 1.508-1.107 2.828-.703z"/></g></svg>