<svg data-id="41-0fd0861e8ce1cf1-sticker" xmlns="http://www.w3.org/2000/svg" viewBox="0 0 100 100"><g fill="none" fill-rule="evenodd"><path fill="#fff5f8" d="m55.88 29.539-.002.146c9.206 1.513 14.452 7.86 14.353 17.963 4.648 7.564.222 13.75-7.651 16.052 2.481 3.353 3.887 6.827 4.45 11.122.082.632.136 1.241.161 1.828a4 4 0 1 1-1.649 7.078c-.764 1.196-1.789 2.218-3.067 3.09C60.848 97.224 44.902 95 46.8 90.073c-.18-.032-.358-.067-.536-.105-1.483.981-3.324 1.77-5.65 2.17-4.472.767-8.812-3.607-2.598-7.24-1.013-1.32-1.814-2.868-2.366-4.63-1.854-5.922-.003-10.418 2.686-14.667-5.136-1.696-10.42-5.99-10.407-14.028.015-9.337 5.151-15.626 10.814-19.025-3.3-7.366-14.014-15.05-8.643-17.735 5.69-2.843 12.789 5.588 15.417 15.03.456-.095.902-.168 1.336-.222a39.053 39.053 0 0 1 2.76-.241c-1.687-8.993-11.643-13.442-5.425-17.391 6.406-4.069 11.736 9.606 11.691 17.55z"/><g fill="#571b31"><path d="m37.786 84.298.439.533c-.704.44-1.264.884-1.7 1.324-.791.8-1.142 1.576-1.14 2.293.003.832.503 1.549 1.248 2.07.998.698 2.439 1.047 3.898.798 1.967-.323 3.579-.934 4.917-1.708l1.345.197c-.204.145-.414.286-.631.423-1.46.92-3.247 1.658-5.465 2.055-1.735.3-3.456-.115-4.635-.957-1.011-.723-1.633-1.751-1.603-2.889.024-.905.454-1.906 1.505-2.867.473-.433 1.075-.86 1.822-1.272zM68 76.198a4.427 4.427 0 0 1 3.126 1.338 4.374 4.374 0 0 1 1.248 3.126 4.332 4.332 0 0 1-1.317 3.056A4.283 4.283 0 0 1 68 84.932a4.279 4.279 0 0 1-3.12-1.151l.159.14.471-.673a3.694 3.694 0 0 0 2.259 1.125l.23.018a3.692 3.692 0 0 0 2.6-1.13 3.644 3.644 0 0 0 1.027-2.599 3.595 3.595 0 0 0-1.096-2.53A3.55 3.55 0 0 0 68 77.125c-.31.003-.611.047-.897.126l-.06-.96c.308-.064.629-.096.957-.093z"/><path d="m38.76 65.385-.06.099c-1.151 1.804-2.147 3.655-2.761 5.646-.798 2.586-.944 5.411.069 8.687 1.399 4.528 4.487 7.616 8.605 9.025.693.237 1.414.427 2.161.569l-.246.593a16.237 16.237 0 0 1-2.122-.549c-4.34-1.446-7.607-4.667-9.113-9.414-1.092-3.442-.955-6.419-.134-9.148.618-2.052 1.629-3.963 2.799-5.827l.803.319zm24.283-2.23c.53.722 1.011 1.45 1.445 2.192 1.602 2.742 2.558 5.658 2.99 9.078.488 3.967-.13 7.048-1.785 9.422-.848 1.216-1.97 2.248-3.36 3.119l.148-.899c1.053-.766 1.917-1.642 2.589-2.645 1.512-2.26 2.028-5.161 1.51-8.879-.443-3.282-1.393-6.069-2.943-8.697a25.381 25.381 0 0 0-1.604-2.389z"/><path d="M51.397 85.861c-1.725.731-2.96 1.471-3.784 2.203-1.1.977-1.493 1.957-1.442 2.808.048.806.502 1.54 1.267 2.127 1.128.866 2.968 1.422 4.997 1.479 4.449.124 9.816-2.104 10.387-8.344a.27.27 0 0 0-.539-.056c-.684 5.76-5.697 7.677-9.812 7.474-1.505-.074-2.887-.432-3.89-.994-.816-.458-1.38-1.039-1.44-1.756-.053-.636.284-1.332 1.064-2.108.74-.736 1.845-1.53 3.422-2.343a.271.271 0 0 0-.23-.49zM44.117 11.161c3.41-2.052 6.508.316 8.67 4.406 2.128 4.024 3.37 9.667 3.241 13.764l-.563-.066c.05-3.99-1.257-9.442-3.383-13.319-.905-1.65-1.957-3.012-3.125-3.83-1.321-.925-2.793-1.114-4.348-.15-1.615.997-2.035 2.022-1.73 3.213.196.763.656 1.574 1.235 2.465.71 1.093 1.608 2.29 2.48 3.625.967 1.482 1.909 3.128 2.549 4.972.3.866.533 1.776.672 2.732h-.692c-.177-.86-.43-1.676-.734-2.455-.682-1.753-1.63-3.31-2.59-4.72-.898-1.321-1.805-2.515-2.522-3.608-.651-.993-1.142-1.914-1.355-2.769-.391-1.567.062-2.971 2.195-4.26z"/><path d="m38.52 31.778.382.904a22.848 22.848 0 0 0-5.245 4.385c-3.056 3.47-5.234 8.173-5.252 14.168-.038 5.166 2.19 8.744 5.139 11.066 3.894 3.068 9.039 3.972 11.973 3.381a.27.27 0 1 1 .112.529c-3.052.679-8.458-.137-12.575-3.277-3.173-2.42-5.578-6.208-5.601-11.7.002-6.268 2.26-11.199 5.458-14.824a23.53 23.53 0 0 1 5.61-4.632zm25.169.127c4.508 3.124 6.969 8.334 6.903 15.306 2.822 4.693 2.267 8.858-.382 11.941-2.372 2.761-6.454 4.654-11.328 5.241a.27.27 0 1 1-.066-.537c4.7-.601 8.642-2.432 10.913-5.114 2.47-2.917 2.92-6.843.195-11.244l-.053-.191c.044-6.719-2.303-11.74-6.654-14.716-3.928-2.686-9.47-3.703-16.307-2.846-.4.05-.812.118-1.232.204l-.275-.9c.476-.097.942-.173 1.394-.228 7.098-.849 12.834.273 16.892 3.084z"/><path d="M39.938 36.215c.087-1.634-.425-3.351-1.286-5.076-.734-1.47-1.722-2.946-2.788-4.382-1.04-1.398-2.153-2.759-3.176-4.043-1.19-1.491-2.257-2.873-2.92-4.099-.531-.984-.82-1.843-.596-2.559.145-.465.515-.847 1.138-1.162 2.89-1.468 6.15.242 8.978 3.44 3.18 3.597 5.795 9.108 6.695 14.568a.27.27 0 1 0 .534-.084c-.834-5.6-3.427-11.28-6.63-15.006-3.09-3.595-6.765-5.343-9.995-3.755-.91.449-1.415 1.037-1.631 1.711-.295.917-.035 2.045.64 3.312.679 1.275 1.77 2.72 3.01 4.256 1.027 1.272 2.154 2.61 3.218 3.979 1.069 1.375 2.073 2.778 2.84 4.181.869 1.587 1.44 3.167 1.428 4.702a.27.27 0 1 0 .54.017zM69.368 40.91c-.25.345-.491.652-.705.962-.24.35-.452.679-.645.989-.201.324-.372.629-.537.904-.552.923-.965 1.54-1.373 1.91-.63.571-1.193.493-2.035.211a.27.27 0 0 0-.197.504c1.084.485 1.829.579 2.735-.109.488-.371 1.036-.997 1.696-1.996.183-.277.378-.58.567-.925.178-.324.357-.68.53-1.074.153-.347.285-.718.44-1.118a.272.272 0 0 0-.11-.367.272.272 0 0 0-.366.109zM45.87 45.53c.479.321.919.627 1.355.895.496.303.968.565 1.417.795.472.24.92.437 1.337.61 1.43.595 2.526.88 3.384.924 1.524.08 2.374-.561 3.08-1.842a.27.27 0 0 0-.465-.278c-.638.985-1.333 1.477-2.55 1.336-.785-.091-1.761-.444-3.06-1.035-.4-.182-.825-.391-1.293-.607-.45-.208-.933-.427-1.458-.656-.466-.202-.962-.394-1.488-.618a.27.27 0 1 0-.258.476zM60.417 60.217a.27.27 0 0 0 .467.246s.622-.599 1.606-1.21c.505-.314 1.102-.637 1.779-.856a5.04 5.04 0 0 1 1.436-.307c.845-.047 1.295.2 1.295.2a.472.472 0 0 0 .684-.593s-.371-.833-1.47-1.123c-.58-.153-1.386-.164-2.471.259-.894.352-1.56.825-2.046 1.31-1.028 1.021-1.28 2.074-1.28 2.074zM36.265 71.685l.062.009s1.093.217 2.632.441c.54.079 1.136.16 1.759.234.71.084 1.456.154 2.196.199.746.045 1.486.065 2.176.027.44-.024.859-.068 1.245-.142l.693.809-.011.004c-.797.236-1.768.341-2.799.344l-.39-.003a18.934 18.934 0 0 1-1.566-.098 27.757 27.757 0 0 1-2.312-.342 30.796 30.796 0 0 1-1.518-.327c-1.338-.324-2.243-.622-2.243-.622a.271.271 0 0 1 .138-.524zm3.96-4.143s.954.071 2.234.255l.327.687c-1.455-.278-2.61-.403-2.61-.403a.27.27 0 0 1 .049-.539z"/><path d="M43.044 68.139c1.574.857 2.276 1.843 2.892 2.808.5.786.93 1.556 1.85 2.212.737.526 1.78.973 3.406 1.335 1.022.227 2.259.436 3.788.584a.27.27 0 0 1-.031.54c-1.574-.03-2.858-.124-3.916-.296-1.82-.296-2.988-.786-3.814-1.354-1.056-.725-1.558-1.598-2.117-2.496-.618-.991-1.317-2.022-3.19-2.891a.446.446 0 0 1-.08-.768c1.309-.937 3.258-1.049 5.256-.737 3.604.563 7.352 2.426 7.352 2.426a.27.27 0 1 1-.234.488s-3.702-1.704-7.226-2.156c-1.44-.184-2.852-.17-3.936.305z"/></g><path fill="#4d504f" fill-rule="nonzero" d="M20.456 49.268a8.256 8.256 0 0 0-1.803 2.824 10.114 10.114 0 0 0-.646 3.299c-.03.885.043 1.787.208 2.682.24 1.309.677 2.604 1.275 3.811 2.065 4.168 6.058 7.293 10.73 6.421a.135.135 0 0 0 .11-.157.135.135 0 0 0-.157-.11c-4.524.777-8.32-2.31-10.267-6.357a14.62 14.62 0 0 1-1.202-3.697 13.044 13.044 0 0 1-.211-2.579c.023-1.099.197-2.17.546-3.172a8.128 8.128 0 0 1 1.615-2.78.136.136 0 0 0-.007-.192.135.135 0 0 0-.191.007z"/><path fill="#4d504f" fill-rule="nonzero" d="M19.146 47.456c-.968.957-1.75 1.943-2.356 2.951a12.282 12.282 0 0 0-1.443 3.511 11.83 11.83 0 0 0-.31 3.032c.038 1.543.369 3.047.907 4.459.925 2.424 2.47 4.577 4.244 6.204 2.142 1.963 4.619 3.155 6.742 3.14a.136.136 0 0 0 .136-.135.136.136 0 0 0-.136-.136c-2.058-.014-4.436-1.214-6.487-3.144-1.71-1.607-3.188-3.722-4.065-6.092a13.317 13.317 0 0 1-.844-4.308c-.022-.959.068-1.932.288-2.911.255-1.138.686-2.28 1.324-3.413a15.347 15.347 0 0 1 2.194-2.969.136.136 0 0 0-.194-.189zM76.953 39.896a7.053 7.053 0 0 1 1.826 2.148c.453.807.769 1.703.959 2.654.145.728.218 1.486.219 2.26a13.578 13.578 0 0 1-.432 3.389c-.945 3.68-3.406 7.119-7.07 8.44a.135.135 0 0 0-.083.172.135.135 0 0 0 .172.083c3.799-1.298 6.405-4.798 7.429-8.577.315-1.161.48-2.349.482-3.507a11.107 11.107 0 0 0-.241-2.359 8.838 8.838 0 0 0-1.08-2.763 7.237 7.237 0 0 0-2.02-2.158.135.135 0 1 0-.161.218z"/><path fill="#4d504f" fill-rule="nonzero" d="M77.734 37.092a14.35 14.35 0 0 1 2.72 2.238c.85.899 1.513 1.859 2.013 2.857.428.855.737 1.736.94 2.628.318 1.39.38 2.806.239 4.185-.303 2.968-1.54 5.763-3.157 7.723-1.392 1.686-3.061 2.759-4.66 2.77a.136.136 0 0 0 0 .271c1.675.012 3.45-1.068 4.93-2.814 1.692-1.993 3.004-4.851 3.348-7.9.16-1.43.112-2.902-.214-4.345a11.471 11.471 0 0 0-.992-2.739 11.69 11.69 0 0 0-2.151-2.923c-.797-.795-1.753-1.526-2.875-2.182a.135.135 0 1 0-.141.231z"/><g transform="translate(49 47)"><ellipse cx="19.184" cy="5.354" fill="#ff80af" rx="2.5" ry="1.5" transform="rotate(-19.01 19.156 5.35)"/><ellipse cx="4.447" cy="9.595" fill="#ff80af" rx="4" ry="2" transform="rotate(-8 4.451 9.606)"/><g fill="#571b31"><circle cx="18.092" cy="2.869" r="2" transform="rotate(-13 18.086 2.87)"/><circle cx="4.092" cy="5.869" r="2" transform="rotate(-13 4.091 5.866)"/></g></g></g></svg>