<svg data-id="44-71c823f53a6b10b-cry" xmlns="http://www.w3.org/2000/svg" viewBox="0 0 100 100"><g fill="none" fill-rule="evenodd"><path fill="#fff5f8" d="m45.497 24.318.277-.042c1.44-.206 2.972-.3 4.593-.271 1.276.022 2.5.102 3.669.238C55.54 16.39 64.549 3.12 70.05 8.944c5.315 5.628-6.369 7.527-9.928 16.67 8.25 2.945 12.2 9.786 10.755 19.39 2.427 5.57.72 9.902-3.207 12.447 2.76-.616 5.43-.658 5.904 1.265.915 3.705-4.583 4.967-8.008 5.39.921 2.626 1.434 5.421 1.434 8.162 0 .862-.051 1.67-.15 2.425C68.713 75.831 70 78.2 70 80.446 70 83.553 67.537 85 64.5 85c-1.725 0-3.264-.467-4.272-1.438C57.62 84.624 54.437 85 51 85s-6.622-.376-9.23-1.438C40.764 84.533 39.225 85 37.5 85c-3.038 0-5.5-1.447-5.5-4.554 0-2.246 1.287-4.615 3.149-5.754a18.737 18.737 0 0 1-.15-2.424c0-2.72.505-5.494 1.412-8.102-3.39-.539-7.842-1.888-7.012-5.251.401-1.624 2.3-1.836 4.484-1.483-4.607-3.053-6.467-8.222-3.323-12.05-1.602-8.03 1.357-15.194 8.097-18.839-1.02-8.019-13.091-18.66-6.893-20.606 6.32-1.986 12.658 8.311 13.733 18.381z"/><g fill="#571b31"><path d="M51 84.39c3.312-.038 6.38-.42 8.905-1.438l.746.502C57.943 84.592 54.606 84.97 51 84.93c-3.526.016-6.788-.37-9.454-1.465l.317-.538c2.575 1.07 5.73 1.447 9.137 1.463zM36.023 63.747l.798.103c-.926 2.596-1.448 5.364-1.458 8.08-.003.832.042 1.612.132 2.342l-.669.334a18.997 18.997 0 0 1-.19-2.676c-.01-2.745.486-5.546 1.387-8.183zm30.082.071c.886 2.616 1.375 5.392 1.371 8.112-.006.93-.069 1.8-.185 2.61l-.883-.364c.082-.702.121-1.45.116-2.246-.004-2.688-.513-5.428-1.42-8.001z"/><path d="M37.5 84.93c1.565.05 2.996-.27 4.059-1 1.163-.8 1.888-2.07 1.921-3.82.005-1.63-.61-3.32-1.635-4.61-1.095-1.39-2.648-2.31-4.345-2.3-1.686.01-3.213.96-4.284 2.34-.997 1.3-1.601 2.96-1.583 4.57.02 1.71.73 2.95 1.857 3.75 1.045.74 2.456 1.09 4.01 1.07zm0-.54c-1.416-.02-2.7-.36-3.635-1.05-.943-.7-1.515-1.77-1.498-3.23.016-1.43.59-2.91 1.505-4.05.927-1.15 2.208-1.95 3.628-1.94 1.409.01 2.66.84 3.567 1.99.887 1.13 1.449 2.59 1.453 4 .027 1.42-.524 2.47-1.435 3.16-.92.7-2.18 1.07-3.585 1.12zM64.5 84.93c1.565.05 2.996-.27 4.059-1 1.163-.8 1.888-2.07 1.921-3.82.005-1.63-.61-3.32-1.635-4.61-1.095-1.39-2.648-2.31-4.345-2.3-1.686.01-3.213.96-4.284 2.34-.997 1.3-1.601 2.96-1.583 4.57.02 1.71.73 2.95 1.857 3.75 1.045.74 2.456 1.09 4.01 1.07zm0-.54c-1.416-.02-2.7-.36-3.635-1.05-.943-.7-1.515-1.77-1.498-3.23.016-1.43.59-2.91 1.505-4.05.927-1.15 2.208-1.95 3.628-1.94 1.409.01 2.66.84 3.567 1.99.887 1.13 1.449 2.59 1.453 4 .027 1.42-.524 2.47-1.435 3.16-.92.7-2.18 1.07-3.585 1.12zM31.624 5.15c3.398-1.04 6.828 1.19 9.462 5.13 2.435 3.632 4.209 8.696 4.7 13.694l-.566.109c-.547-4.89-2.354-9.826-4.791-13.363-1.117-1.61-2.366-2.93-3.69-3.8-1.546-1.01-3.192-1.4-4.835-.87-.665.21-1.083.52-1.28.96-.3.67-.106 1.56.312 2.61.517 1.29 1.41 2.8 2.408 4.42.86 1.41 1.797 2.89 2.656 4.41.885 1.56 1.687 3.14 2.24 4.68.37 1.03.63 2.04.733 3.012l-.605.284c-.128-.973-.432-1.985-.847-3.016-.594-1.48-1.423-3-2.317-4.5-.888-1.49-1.843-2.95-2.706-4.34-1.042-1.68-1.95-3.25-2.477-4.59-.531-1.35-.662-2.5-.267-3.36.297-.65.88-1.16 1.87-1.47zm29.082 5.2c3.2-3.48 6.87-5.01 9.687-2.07 1.749 1.84 1.83 3.34 1.044 4.78-.432.79-1.156 1.57-2.057 2.38-.993.89-2.201 1.84-3.435 2.91-1.314 1.14-2.656 2.43-3.788 3.99a15.102 15.102 0 0 0-1.78 3.156l-.594-.222c.44-1.25 1.03-2.375 1.716-3.394 1.114-1.66 2.473-3.04 3.814-4.25 1.21-1.09 2.41-2.04 3.397-2.93.805-.73 1.47-1.41 1.86-2.12.612-1.1.466-2.23-.863-3.65-1.281-1.37-2.784-1.58-4.331-1.01-1.366.51-2.76 1.58-4.084 2.98-3.339 3.518-6.22 9.09-7.005 13.154l-.549-.052c.724-4.187 3.588-9.97 6.968-13.652z"/><path d="M30.057 44.92c-1.21-6.31.34-12.09 4.278-16.1 3.518-3.58 8.953-5.76 16.04-5.62 7.107.15 12.599 2.05 16.203 5.39 3.999 3.7 5.698 9.17 4.669 16.03 2.128 5.01 1.007 9.04-2.022 11.71-2.715 2.39-6.997 3.7-11.877 3.6a.274.274 0 0 1-.266-.28.267.267 0 0 1 .275-.26c4.712.06 8.844-1.2 11.449-3.53 2.83-2.53 3.815-6.34 1.743-11.05l-.026-.2c.972-6.61-.64-11.88-4.507-15.41-3.493-3.2-8.806-4.97-15.657-5.07-6.77-.11-11.955 1.96-15.314 5.39-3.766 3.84-5.221 9.38-4.023 15.43a.469.469 0 0 1-.098.39c-2.67 3.21-1.52 7.43 1.809 10.39 2.63 2.33 6.619 3.89 11.286 3.62.149-.01.278.1.288.25.01.15-.102.27-.251.29-6.034.47-11.036-2.05-13.604-5.44-2.253-2.96-2.65-6.59-.395-9.53z"/><path d="M61.715 42.11c1.224 0 2.192.19 2.95.47 1.989.71 2.576 1.96 2.576 1.96.068.13.016.29-.117.36s-.296.02-.365-.11c0 0-.58-1.02-2.316-1.54-1.026-.31-2.445-.44-4.376-.11a.464.464 0 0 1-.488-.27.464.464 0 0 1 .108-.54c.6-.56 1.285-.99 1.998-1.3.494-.22 1-.38 1.494-.49.686-.15 1.347-.22 1.922-.24 1.136-.03 1.925.12 1.925.12.148.01.258.15.243.3a.277.277 0 0 1-.295.24s-.747.01-1.803.16c-.527.07-1.13.19-1.756.36-.44.12-.89.27-1.334.46-.123.05-.245.11-.366.17zM39.285 43.11a5.479 5.479 0 0 0-.366-.17c-.444-.19-.895-.34-1.334-.46-.627-.17-1.23-.29-1.756-.36-1.056-.15-1.803-.16-1.803-.16a.277.277 0 0 1-.295-.24.272.272 0 0 1 .243-.3s.789-.15 1.925-.12c.575.02 1.236.09 1.922.24.494.11 1 .27 1.494.49.713.31 1.398.74 1.998 1.3.15.14.195.36.108.54a.464.464 0 0 1-.488.27c-1.931-.33-3.35-.2-4.376.11-1.736.52-2.316 1.54-2.316 1.54-.07.13-.232.18-.365.11s-.185-.23-.117-.36c0 0 .587-1.25 2.576-1.96.758-.28 1.726-.47 2.95-.47zM44.729 48.66c0 .09.042.17.112.22s.16.07.242.04c0 0 1.359-.37 3.195-.62.982-.14 2.1-.24 3.222-.22 1.119.01 2.23.16 3.204.32 1.81.31 3.145.73 3.145.73a.491.491 0 0 0 .64-.47s-.018-2.87-2.105-4.76c-1.033-.94-2.574-1.66-4.884-1.63-2.29.03-3.804.76-4.808 1.71-1.992 1.89-1.963 4.68-1.963 4.68z"/></g><path fill="#e94b35" d="M57.454 47.99c-.12-.85-.496-2.32-1.677-3.44-.893-.84-2.244-1.47-4.277-1.49-2.054-.03-3.433.58-4.354 1.41-1.402 1.26-1.756 3.03-1.845 3.8.53-.17 1.572-.49 2.849-.74 1.015-.2 2.179-.35 3.35-.38 1.174-.01 2.345.1 3.368.27 1.082.18 1.999.4 2.586.57z"/><path fill="#571b31" d="M62.426 60.21c.353-.14 1.268-.55 2.43-1.01.504-.19 1.053-.4 1.625-.61.668-.24 1.365-.46 2.05-.65.717-.19 1.419-.33 2.063-.39 1.245-.11 2.278.07 2.552 1.14.454 1.74-.772 2.84-2.414 3.6-3.098 1.44-7.74 1.62-7.74 1.62a.27.27 0 0 0-.264.28c.003.14.127.26.276.26 0 0 6.216-.07 9.305-2.09 1.37-.9 2.15-2.16 1.746-3.9-.37-1.54-1.754-2.06-3.55-1.91-.568.05-1.18.17-1.803.33-.848.23-1.72.54-2.541.88-.573.24-1.121.49-1.62.73-1.13.55-2.001 1.05-2.341 1.23a.27.27 0 0 0-.133.36c.063.13.224.19.359.13zM40.8 59.72c-.34-.18-1.212-.68-2.341-1.23-.5-.24-1.047-.49-1.62-.73-.821-.34-1.693-.65-2.541-.88-.623-.16-1.235-.28-1.804-.33-1.795-.15-3.18.37-3.55 1.91-.403 1.74.376 3 1.747 3.9 3.089 2.02 9.305 2.09 9.305 2.09.149 0 .273-.12.276-.26a.27.27 0 0 0-.264-.28s-4.642-.18-7.74-1.62c-1.642-.76-2.868-1.86-2.414-3.6.274-1.07 1.307-1.25 2.552-1.14.644.06 1.346.2 2.062.39.686.19 1.383.41 2.05.65.573.21 1.122.42 1.626.61 1.162.46 2.077.87 2.43 1.01.135.06.296 0 .359-.13a.27.27 0 0 0-.133-.36z"/><g transform="translate(2 40)"><ellipse cx="62" cy="5" fill="#ff80af" rx="4" ry="2"/><ellipse cx="34" cy="5" fill="#ff80af" rx="4" ry="2"/><path fill="#77c9ff" d="M19.226 45.337 4.6 46C.075 30.008 5.21 8.973 19.226 2.547 11.12 1.031 29.629-2.763 32 3.413 17.452 2.077 10.57 26.106 19.226 45.337z"/><path fill="#56bbff" d="M22 43.265c0-2.183-4.078-3.128-6.903-1.288-1.087.707-1.795 1.4-2.256 2.063a3 3 0 0 0-5.8.47c-2.185-1.408-5.558-2.247-6.657-.615-.694 1.03-.377 2.478.389 3.798A2.5 2.5 0 0 0 3.57 51.76a3.001 3.001 0 0 0 5.352-1.082c.15.067.309.124.473.17C9.979 52.128 11.15 53 12.5 53c1.191 0 2.243-.68 2.876-1.719A3.48 3.48 0 0 0 17.5 52c.998 0 1.9-.418 2.537-1.089.307.059.63.089.963.089 2.21 0 4-1.343 4-3 0-1.526-1.519-2.786-3.485-2.975.306-.654.485-1.267.485-1.76z"/><path fill="#77c9ff" d="M77.774 45.337 92.4 46c4.525-15.992-.61-37.027-14.626-43.453C85.88 1.031 67.371-2.763 65 3.413c14.548-1.336 21.43 22.693 12.774 41.924z"/><path fill="#56bbff" d="M74 43.265c0-2.183 4.078-3.128 6.903-1.288 1.685 1.097 2.462 2.162 2.814 3.125.093-.026.188-.046.284-.062L84 45a3 3 0 0 1 5.96-.49c2.184-1.408 5.557-2.247 6.656-.615.694 1.03.377 2.478-.389 3.798a2.5 2.5 0 0 1-2.798 4.066 3.001 3.001 0 0 1-5.352-1.082c-.15.067-.309.124-.473.17C87.021 52.128 85.85 53 84.5 53c-1.191 0-2.243-.68-2.876-1.719A3.48 3.48 0 0 1 79.5 52a3.49 3.49 0 0 1-2.537-1.089c-.307.059-.63.089-.963.089-2.21 0-4-1.343-4-3 0-1.278 1.066-2.37 2.568-2.802C74.212 44.48 74 43.8 74 43.265z"/></g></g></svg>