<svg data-id="53-bd862ff15fa7df1-smile" xmlns="http://www.w3.org/2000/svg" viewBox="0 0 100 100"><g fill="none" fill-rule="evenodd"><path fill="#fff5f8" d="M30.505 12.238c6.444-4.512 13.587 6.595 17.116 15.571a29.025 29.025 0 0 1 4.385-.242 37.68 37.68 0 0 1 3.947.27c2.494-9.258 8.85-20.315 14.606-15.237 5.354 4.724-6.287 7.968-9.385 16.363 8.744 2.83 12.964 9.809 11.473 19.71 3.46 7.925-1.622 13.112-9.438 14.408.075.113.149.227.222.34 4.38.598 6.683 3.668 7.755 6.344 1.104 2.753.186 8.358-2.792 8.169.127 3.14-.81 5.677-3.05 7.503-1.973 8.627-11.057 7.184-12.772 3.305-.313.005-.633.008-.958.008h.384c-1.184 4.334-12.237 5.18-12.747-3.316-1.17-1.08-2.074-2.488-2.647-4.317a16.202 16.202 0 0 1-.661-3.198c-3.101.4-4.07-5.353-2.948-8.154 1.03-2.568 3.191-5.5 7.236-6.26.115-.19.23-.377.348-.565-8.015-1.82-12.63-8.876-8.506-13.889-1.735-8.685 1.846-16.361 9.765-19.707-3.242-8.796-17.896-12.51-11.333-17.106z"/><g fill="#571b31"><path d="M35.499 77.564h.884c.102 1.01.307 2.04.63 3.087.497 1.602 1.259 2.87 2.237 3.869v1.125c-1.359-1.15-2.406-2.69-3.055-4.737a16.637 16.637 0 0 1-.696-3.344zm29.874 7.105-.106.092c2.1-1.76 2.968-4.194 2.85-7.196l.553-.002c.146 3.193-.784 5.782-3.004 7.67a9.463 9.463 0 0 1-.432.347c.05-.336.097-.64.139-.911z"/><path d="M54.339 83.898c-1.013.764-1.66 1.551-2.006 2.32-.77 1.709-.15 3.334 1.188 4.45 1.203 1.003 3.025 1.58 4.9 1.468 3.359-.199 6.972-2.598 7.486-8.836a.271.271 0 0 0-.539-.053c-.65 5.69-3.914 7.853-6.99 7.964-1.623.058-3.176-.456-4.224-1.313-.524-.43-.923-.94-1.118-1.52-.19-.564-.193-1.186.05-1.85.26-.705.765-1.453 1.599-2.214a.271.271 0 0 0-.346-.416z"/><path d="M48.872 83.873c.723.635 1.27 1.245 1.679 1.82.244.34.43.67.577.987.73 1.591.117 2.848-1.114 3.649-.958.624-2.261.989-3.627 1.004-3.5.04-7.344-2.204-6.816-8.087a.272.272 0 0 0-.241-.297.27.27 0 0 0-.297.24c-.78 6.475 3.49 9.023 7.354 9.071 1.566.02 3.073-.383 4.173-1.097a4.47 4.47 0 0 0 1.03-.903c.81-.985 1.09-2.269.43-3.718a5.794 5.794 0 0 0-.855-1.325c-.483-.575-1.127-1.165-1.955-1.767a.27.27 0 1 0-.338.423zM62.588 69.697c.799.03 1.693.324 2.462.791.743.452 1.368 1.074 1.625 1.82.255.718.069 1.428-.13 2.082-.184.604-.388 1.17-.426 1.66a1.72 1.72 0 0 0 .164.935c.172.34.489.645 1.054.868 1.899.738 3.257-.25 4.024-1.952.878-1.949.934-4.855.204-6.626-.677-1.632-1.797-3.3-3.54-4.501-1.384-.954-3.16-1.617-5.421-1.724a.27.27 0 1 0-.032.54c2.123.155 3.779.813 5.059 1.741 1.587 1.152 2.587 2.721 3.177 4.247.623 1.598.512 4.197-.303 5.928-.558 1.186-1.475 1.955-2.801 1.42-.274-.108-.448-.23-.532-.394a.776.776 0 0 1-.061-.41c.036-.541.307-1.183.467-1.872.168-.725.228-1.493-.071-2.254-.364-.9-1.144-1.655-2.092-2.153-.897-.47-1.93-.72-2.827-.687a.27.27 0 1 0 0 .541zM41.594 69.156c-.898-.032-1.93.216-2.827.687-.948.498-1.728 1.254-2.092 2.153-.3.761-.24 1.529-.071 2.254.16.69.43 1.33.467 1.871.01.15 0 .288-.061.41-.084.165-.258.287-.532.395-1.326.535-2.243-.234-2.801-1.42-.815-1.731-.926-4.33-.303-5.928.59-1.526 1.59-3.095 3.177-4.247 1.28-.928 2.936-1.586 5.059-1.74a.27.27 0 0 0-.032-.541c-2.261.107-4.037.77-5.421 1.724-1.743 1.2-2.863 2.87-3.54 4.501-.73 1.77-.674 4.677.204 6.626.767 1.702 2.125 2.69 4.024 1.952.565-.223.882-.528 1.054-.868a1.72 1.72 0 0 0 .164-.936c-.038-.49-.242-1.055-.426-1.66-.2-.653-.385-1.363-.13-2.081.257-.746.882-1.368 1.625-1.82.769-.467 1.663-.762 2.462-.79a.271.271 0 0 0 .27-.271c0-.15-.121-.27-.27-.27z"/><path d="m41.554 28.597.38.898c-2.107.91-3.894 2.134-5.344 3.609-3.795 3.86-5.261 9.43-4.055 15.517a.476.476 0 0 1-.098.391c-2.688 3.227-1.53 7.471 1.825 10.441 2.648 2.345 6.66 3.914 11.356 3.634a.27.27 0 0 1 .037.54c-6.07.48-11.1-2.054-13.685-5.452-2.27-2.985-2.671-6.63-.401-9.583-1.217-6.345.345-12.155 4.31-16.186 1.537-1.56 3.435-2.855 5.675-3.81zm26.758 3.573c4.029 3.72 5.742 9.223 4.705 16.117 2.143 5.04 1.013 9.086-2.04 11.77-2.731 2.405-7.037 3.711-11.945 3.614a.271.271 0 0 1 .009-.541c4.74.06 8.896-1.205 11.519-3.545 2.852-2.544 3.846-6.37 1.759-11.107l-.026-.197c.979-6.648-.646-11.947-4.542-15.5-1.745-1.592-3.942-2.832-6.555-3.69l.177-.86c2.776.915 5.101 2.242 6.939 3.94zm-16.297-5.404c1.39.029 2.718.124 3.984.283l-.23.883a37.44 37.44 0 0 0-3.771-.24 28.817 28.817 0 0 0-4.188.23l-.417-.9c1.452-.199 2.994-.288 4.622-.256z"/><path d="M60.725 32.207c.136-2.042.803-3.79 1.738-5.332.663-1.093 1.464-2.08 2.318-2.99 1.14-1.213 2.378-2.284 3.512-3.273 1.46-1.274 2.752-2.421 3.499-3.524.602-.89.864-1.765.672-2.655-.154-.717-.61-1.461-1.493-2.231-2.518-2.192-5.142-1.664-7.547.465-3.642 3.223-6.767 10.24-8.091 16.193a.27.27 0 1 0 .527.122c1.157-4.83 3.53-10.364 6.375-13.872 2.52-3.108 5.4-4.638 8.117-2.207.68.606 1.058 1.169 1.172 1.728.132.645-.106 1.263-.545 1.902-.716 1.044-1.962 2.112-3.342 3.33-1.152 1.019-2.398 2.134-3.535 3.399-.875.973-1.686 2.034-2.338 3.207-.927 1.665-1.535 3.55-1.58 5.715a.27.27 0 0 0 .54.023zM48.764 29.816a49.627 49.627 0 0 0-3.285-7.954 39.618 39.618 0 0 0-2.684-4.439 26.684 26.684 0 0 0-2.171-2.72c-3.314-3.606-7.086-5.288-10.565-2.83-1.314.932-1.83 1.845-1.833 2.727-.001.683.307 1.372.87 2.07 1.234 1.524 3.736 3.145 6.245 5.109 3.057 2.392 6.132 5.307 6.745 9.277a.27.27 0 0 0 .536-.078c-.573-4.134-3.69-7.236-6.828-9.769-2.423-1.955-4.855-3.56-6.04-5.065-.412-.525-.668-1.027-.66-1.537.01-.666.48-1.3 1.484-1.993 3.108-2.157 6.37-.44 9.31 2.765.724.79 1.43 1.67 2.11 2.612a44.197 44.197 0 0 1 2.707 4.289c1.446 2.584 2.68 5.285 3.546 7.708a.27.27 0 1 0 .513-.172zM47.49 58.187s.394.255 1.082.53a7.889 7.889 0 0 0 2.089.518c.458.05.946.06 1.447.038a13.422 13.422 0 0 0 2.349-.348c1.338-.32 2.244-.734 2.244-.734a.27.27 0 0 0-.202-.503s-.893.305-2.186.503c-.66.1-1.42.173-2.221.156-.621 0-1.212-.085-1.753-.163-.488-.07-.933-.145-1.315-.217-.802-.15-1.314-.275-1.314-.275a.27.27 0 1 0-.22.495z"/></g><g transform="translate(25 40)"><ellipse cx="40" cy="15" fill="#ff80af" rx="4" ry="2"/><ellipse cx="12.985" cy="15.174" fill="#ff80af" rx="4" ry="2"/><path fill="#000" d="M27.5 2.059h-2.832C12.585-2.047 4.025 1.257 4.025 1.257S0 1.047 0 3.245c0 2.254 2.024 1.367 2.897 3.76.873 2.395 0 10.234 11.39 10.234 10.039 0 11.193-11.121 12.366-11.121h1.694c1.173 0 2.327 11.12 12.367 11.12 11.389 0 10.516-7.838 11.389-10.232C52.976 4.612 55 5.499 55 3.245c0-2.199-4.025-1.988-4.025-1.988s-8.56-3.304-20.643.802z"/><path fill="#2b2b2b" d="M13.515 15.084c9.962 0 10.735-8.368 10.735-9.99 0-1.624-4.475-2.94-9.995-2.94S4.26 3.47 4.26 5.095c0 1.622-.68 9.99 9.255 9.99zm27.97 0c-9.962 0-10.735-8.368-10.735-9.99 0-1.624 4.475-2.94 9.995-2.94s9.995 1.316 9.995 2.94c0 1.622.68 9.99-9.255 9.99z"/><g fill="#d5d5d5"><path d="m49.713 3.794-8.063 11.29a17.47 17.47 0 0 1-.815-.012L49.11 3.485c.221.099.422.202.602.31zm-1.24-.564-8.424 11.792c-.797-.07-1.526-.2-2.193-.379l8.551-11.972c.775.157 1.47.345 2.066.559zM21.499 3.069c.232.071.452.147.658.225l-8.42 11.788-.222.002c-.202 0-.4-.003-.593-.01zm-2.846-.615c.784.113 1.51.255 2.162.422l-8.68 12.15a11.772 11.772 0 0 1-2.186-.389z"/></g></g></g></svg>