<svg data-id="55-0651d83b9e93854-smile" xmlns="http://www.w3.org/2000/svg" viewBox="0 0 100 100"><g fill="none" fill-rule="evenodd"><path fill="#fff5f8" d="M42.77 7.414c8.175 0-2.585 11.76.341 20.889.674-.156 1.37-.29 2.087-.403a36.789 36.789 0 0 1 4.71-.451c.326-9.583 4.187-21.702 10.973-18.03 6.414 3.472-4.93 9.216-5.683 18.377 8.66 1.49 13.748 7.565 13.992 17.303 3.756 5.658 2.176 10.696-2.26 13.905-.059 1.71-2.062 3.717-3.94 5.23 1.96 2.983 3.106 6.126 3.6 9.902.083.63.137 1.237.162 1.822a4 4 0 1 1-1.677 7.128c-.766 1.183-1.787 2.195-3.058 3.058-1.794 10.008-17.087 7.982-15.706 3.233a16.23 16.23 0 0 1-.748-.154c-1.417.872-3.145 1.568-5.282 1.935-4.417.758-8.705-3.499-2.824-7.105-.956-1.285-1.716-2.78-2.246-4.472a16.018 16.018 0 0 1-.715-3.701c-1.527 1.266-3.246 1.93-4.25.917-1.545-1.562.18-7.853 6.343-12.26-6.274-1.754-10.028-7.17-7.292-12.019-3.492-8.958-.607-17.832 8.157-22.223-2.314-9.378-2.686-22.881 5.316-22.881z"/><g fill="#571b31"><path d="M42.77 6.62c1.612.01 2.558.47 3.066 1.19.393.55.536 1.3.474 2.19-.135 1.96-1.255 4.72-2.184 7.77-.949 3.11-1.698 6.529-.87 9.68.607-.134 1.23-.25 1.87-.35a37.617 37.617 0 0 1 4.514-.432c.212-5.731 1.657-12.26 4.215-15.848 1.864-2.61 4.303-3.72 7.249-2.15 1.033.55 1.645 1.17 1.957 1.84.388.82.329 1.73-.057 2.74-.48 1.24-1.48 2.65-2.617 4.22-.883 1.22-1.847 2.54-2.686 3.98-.628 1.08-1.186 2.22-1.586 3.43a12.8 12.8 0 0 0-.524 2.21c2.48.47 4.663 1.315 6.522 2.51 4.615 2.96 7.257 8.08 7.433 15.05 2.985 4.59 2.575 8.77.036 11.95-.741.926-1.668 1.766-2.748 2.504.017-.293.03-.551.039-.776.859-.64 1.604-1.353 2.215-2.128 2.367-3 2.68-6.94-.196-11.24l-.06-.19c-.19-6.72-2.711-11.65-7.164-14.48-1.765-1.115-3.83-1.9-6.165-2.338-.055.81-.023 1.65.118 2.518.027.14-.07.29-.217.31a.269.269 0 0 1-.315-.21c-.444-2.12-.275-4.1.253-5.93.372-1.29.924-2.5 1.558-3.65.823-1.49 1.785-2.85 2.679-4.1 1.07-1.5 2.045-2.82 2.508-4 .284-.72.377-1.38.103-1.98-.238-.52-.732-.98-1.531-1.42-3.194-1.75-5.656.38-7.412 3.98-1.982 4.06-3.051 9.98-3.092 14.95a.27.27 0 0 1-.27.27.27.27 0 0 1-.271-.27c-.002-.28-.001-.563.003-.848l-.216.008a36.844 36.844 0 0 0-5.86.768 9.1 9.1 0 0 0 .38.892c.068.13.014.29-.12.36a.27.27 0 0 1-.363-.12c-1.902-3.72-1.128-8.04-.01-11.92.863-2.99 1.936-5.7 2.042-7.61.037-.67-.042-1.23-.34-1.64-.391-.54-1.14-.79-2.36-.78-3.782.01-5.47 3.29-6.04 7.6-.14 1.07-.214 2.19-.23 3.35-.024 1.65.069 3.36.242 5.07.299 2.95.836 5.87 1.517 8.35a.264.264 0 0 1-.182.33c-.143.05-.294-.04-.336-.18-.15-.474-.298-.964-.44-1.468-2.684 1.417-4.778 3.277-6.266 5.438-3.066 4.46-3.543 10.2-1.3 15.99.053.13.042.28-.027.4-2.086 3.65-.208 7.62 3.61 9.97 3.016 1.85 7.239 2.69 11.815 1.6.145-.03.292.06.328.2a.273.273 0 0 1-.198.33c-2.49.646-4.89.729-7.068.39-1.123 1.77-2.093 3.588-2.695 5.54-.798 2.59-.944 5.41.069 8.69 1.399 4.53 4.487 7.62 8.605 9.03.62.21 1.261.384 1.924.519.232-.428.583-.864 1.076-1.299.824-.73 2.059-1.47 3.784-2.21.135-.06.296 0 .36.13.063.14.005.3-.13.36-1.577.82-2.682 1.61-3.422 2.35-.78.77-1.117 1.47-1.063 2.11.06.71.623 1.29 1.44 1.75 1.002.56 2.384.92 3.889 1 4.115.2 9.128-1.72 9.812-7.48a.267.267 0 0 1 .298-.24c.076.01.142.05.186.106l.023-.107a10.304 10.304 0 0 0 2.28-2.409c1.512-2.26 2.028-5.17 1.51-8.88-.443-3.29-1.393-6.07-2.943-8.7-.187-.316-.382-.63-.586-.941l.771-.628c.234.353.456.71.666 1.069 1.602 2.74 2.558 5.66 2.99 9.08.076.616.125 1.211.148 1.785l.128-.01.246-.005c1.226.02 2.333.52 3.126 1.34a4.379 4.379 0 0 1 1.248 3.13 4.31 4.31 0 0 1-1.317 3.05 4.267 4.267 0 0 1-3.057 1.22c-.95.04-1.84-.234-2.574-.727-.717.938-1.608 1.76-2.668 2.479-.829 5.82-6.008 7.914-10.323 7.788-2.03-.06-3.87-.61-4.997-1.48-.765-.58-1.22-1.32-1.267-2.12a2.552 2.552 0 0 1 .054-.691l-.063.041c-1.46.92-3.247 1.66-5.465 2.06-1.735.3-3.456-.12-4.635-.96-1.011-.72-1.633-1.75-1.603-2.89.024-.9.454-1.91 1.505-2.87.41-.374.918-.745 1.534-1.105-.932-1.277-1.677-2.753-2.205-4.415a16.828 16.828 0 0 1-.684-3.131l-.09.069-.266.182c-1.44.95-2.913 1.19-3.857.27-.47-.47-.723-1.29-.667-2.37.069-1.34.61-3.11 1.713-4.96.448-.75.987-1.52 1.629-2.27.576-.67 1.232-1.33 1.973-1.96a17.93 17.93 0 0 1 1.113-.88c-1.924-.63-3.592-1.604-4.88-2.79-2.753-2.55-3.78-6.07-2.057-9.37-2.301-6.04-1.771-12.03 1.435-16.69 1.606-2.335 3.887-4.336 6.825-5.836a49.563 49.563 0 0 1-1.173-5.974c-.228-1.74-.35-3.49-.347-5.17.002-1.21.072-2.38.218-3.48.647-4.85 2.772-8.39 7.032-8.38zm-5.278 77.719-.181.122a8.744 8.744 0 0 0-1.224 1.009c-.792.8-1.143 1.58-1.141 2.29.003.83.503 1.55 1.248 2.07.998.7 2.439 1.05 3.898.8 1.877-.306 3.431-.879 4.733-1.602a15.41 15.41 0 0 1-.858-.258c-2.588-.865-4.795-2.36-6.475-4.431zm30.069-7.899a3.502 3.502 0 0 0-.362.023c-.03 2.562-.626 4.681-1.764 6.429a3.647 3.647 0 0 0 2.126.818 3.677 3.677 0 0 0 2.599-1.14 3.631 3.631 0 0 0 1.027-2.59 3.58 3.58 0 0 0-1.096-2.53 3.544 3.544 0 0 0-2.53-1.01zM36.732 64.603l-.321.252c-.418.336-.814.677-1.19 1.025-.68.63-1.287 1.27-1.828 1.92-.6.71-1.12 1.43-1.552 2.13-1.034 1.68-1.59 3.28-1.682 4.51-.058.77.046 1.39.377 1.73.35.37.82.45 1.34.36.493-.08 1.024-.32 1.556-.64.223-.14.447-.295.667-.464-.117-1.86.13-3.581.62-5.216.58-1.924 1.503-3.723 2.58-5.475-.191-.04-.38-.084-.567-.132z"/><path d="M53.418 53.48s-.191.36-.642.81c-.21.21-.48.42-.821.63-.216.14-.46.27-.74.39-.35.15-.751.29-1.221.39-.856.18-1.564.17-2.136.05-1.25-.26-1.84-.96-1.84-.96a.27.27 0 0 0-.38-.06.273.273 0 0 0-.056.38s.62.93 2.095 1.37c.65.19 1.47.27 2.478.13a6.098 6.098 0 0 0 1.45-.38c.344-.15.643-.32.895-.5.4-.29.698-.61.907-.91.453-.66.53-1.19.53-1.19a.265.265 0 0 0-.183-.33.273.273 0 0 0-.336.18zM57.873 63.52s.557-1.57 1.502-3.25c.559-.99 1.255-2.02 2.085-2.77 1.055-.95 2.342-1.41 3.88-.52.65.37 1.008.79 1.116 1.28.177.8-.258 1.7-.925 2.59-1.94 2.61-5.933 5.12-5.933 5.12a.28.28 0 0 0-.091.38c.077.12.244.16.372.09 0 0 2.487-1.46 4.577-3.32 1.036-.93 1.97-1.96 2.48-2.96.397-.77.538-1.54.35-2.24-.17-.64-.622-1.24-1.47-1.75-1.976-1.18-3.68-.65-5.025.6-.897.83-1.63 1.99-2.173 3.11a18.798 18.798 0 0 0-1.265 3.49c-.041.14.04.29.185.34.143.04.293-.05.335-.19z"/></g><g transform="translate(33 47)"><circle cx="4.33" cy="7.135" r="2" fill="#571b31" transform="rotate(-14.98 4.33 7.128)"/><ellipse cx="30.916" cy="6.47" fill="#ff80af" rx="4" ry="2" transform="rotate(-10.02 30.853 6.463)"/><ellipse cx="4.341" cy="11.332" fill="#ff80af" rx="4" ry="2" transform="rotate(-10.02 4.33 11.31)"/><circle cx="28.951" cy="2.794" r="2" fill="#571b31" transform="rotate(-14.98 28.932 2.783)"/></g></g></svg>