<svg data-id="56-21bd714c8f3783f-emotion" xmlns="http://www.w3.org/2000/svg" viewBox="0 0 100 100"><g fill="none" fill-rule="evenodd"><path fill="#fff5f8" d="M62 45c.106.366.203.728.29 1.086 8.646-4.375 19.063-4.639 24.966 1.458a4 4 0 1 1 3.828 6.857c.714 2.491 1.025 5.638-.505 8.208 5.173 3.83 1.12 6.458-3.28 6.646-3.153 1.171-8.26.948-10.084-1.604-5.83.54-11.01.664-15.322.322-2.784 2.335-7.929 5.973-9.881 2.884-.616-.975-.62-1.89-.257-2.724-2.72 1.718-5.827 2.374-6.767 1.444-.51-.505-.645-1.096-.513-1.714l-3.283.671C31.289 70.807 21.8 66.294 23.848 56.3c-2.027-5.403-1.996-10.25-.082-14.266-4.24 5.342-5.66 14.754-9.283 11.075-4.836-4.913 7.694-22.605 18.373-19.45 1.996-.94 4.265-1.709 6.794-2.294C47.073 29.65 58.68 33.572 62 45z"/><g fill="#571b31"><path d="M90 46.2c1.226.01 2.333.52 3.126 1.34a4.36 4.36 0 0 1-.07 6.18c-.468.45-1.039.8-1.672 1.004l-.204-.55a3.717 3.717 0 0 0 1.419-.914 3.637 3.637 0 0 0 1.027-2.6A3.596 3.596 0 0 0 90 47.12a3.516 3.516 0 0 0-2.208.813l-.574-.798A4.475 4.475 0 0 1 90 46.2zM52.015 67.024l-.505 1.495c-1.449.82-2.965 1.343-4.195 1.511-1.195.17-2.143-.02-2.613-.5-.574-.587-.75-1.263-.621-1.965l.815-.167c-.169.566-.091 1.106.378 1.552.146.14.367.21.633.25.358.06.792.04 1.275-.04 1.413-.24 3.21-1 4.811-2.12l.022-.016zM90.64 61.906c.774.504 1.369.994 1.802 1.474 1.804 1.99 1.15 3.69-.53 4.77-.84.54-1.982.91-3.219 1.09-.767.112-1.57.149-2.363.106l1.446-.914.378-.043.394-.059c.92-.16 1.774-.44 2.468-.8 1.412-.74 2.06-1.92.846-3.49a7.36 7.36 0 0 0-.818-.9 12.068 12.068 0 0 0-.797-.7z"/><path d="m76.95 66.854.628.903c-2.886.283-5.614.465-8.16.533-2.835.081-5.445.021-7.795-.181l.991-.916c2.075.136 4.342.168 6.778.107 2.135-.057 4.4-.183 6.778-.379zM90.298 51.19c.61 1.27 1.343 3.18 1.616 5.26.24 1.82.122 3.76-.72 5.5a7.676 7.676 0 0 1-1.977 2.533c-.15-.14-.356-.325-.62-.555a6.991 6.991 0 0 0 1.904-2.318c1.763-3.49.339-7.91-.693-10.19-4.006-8.49-13.718-10.11-22.733-7.23a30.878 30.878 0 0 0-4.75 1.972l-.167-.78a31.35 31.35 0 0 1 4.693-1.892c9.35-2.92 19.369-1.11 23.447 7.7z"/><path d="M86.797 63.09c.793.54 1.377 1.06 1.814 1.53 1.232 1.35.932 2.41-.178 3.17-.271.19-.579.36-.92.51-1.881.85-4.688 1.15-6.972.61-1.66-.39-3.052-1.21-3.553-2.63a.274.274 0 0 0-.342-.18.278.278 0 0 0-.172.35c.612 1.98 2.722 3.08 5.135 3.44 2.172.32 4.58.04 6.296-.69.407-.17.778-.37 1.096-.59 1.584-1.11 2.101-2.77.189-4.56-.505-.47-1.204-.94-2.114-1.42a.27.27 0 1 0-.279.46zM58.495 63.02s-1.55.44-3.227 1.29c-1.034.52-2.11 1.2-2.91 2.01-1.3 1.31-1.886 2.94-.761 4.7.955 1.47 2.52 1.65 4.266 1.08 3.633-1.19 8.062-5.69 8.062-5.69.107-.1.108-.27.003-.38a.263.263 0 0 0-.383 0s-3.441 3.28-6.69 4.78c-.877.4-1.736.68-2.504.7-.8.02-1.49-.25-1.948-1-.833-1.33-.294-2.5.662-3.5.724-.76 1.686-1.42 2.606-1.97 1.563-.92 2.998-1.5 2.998-1.5.142-.05.217-.21.17-.35s-.202-.21-.344-.17z"/><path d="M53.67 33.19c3.848 2.32 7.142 6.05 8.67 11.37 1.434 5 1.07 9.24-.244 12.62-1.846 4.75-5.569 7.79-8.843 8.83h-.028s-11.956 2.56-11.947 2.56c-4.8 1.13-9.517.69-12.928-1.17-3.84-2.1-6.065-5.96-5.018-11.4-1.81-4.907-1.95-9.371-.561-13.186l2.268-2.422c-2.654 4.177-2.965 9.448-.724 15.398l.022.27c-1.04 5.01.957 8.57 4.461 10.53 3.235 1.8 7.72 2.26 12.308 1.23l11.996-2.33c3.133-1.02 6.67-3.97 8.409-8.53 1.248-3.28 1.566-7.38.15-12.2-1.502-5.11-4.688-8.68-8.4-10.89-4.413-2.63-9.568-3.34-13.512-2.41-2.278.53-4.34 1.211-6.178 2.032l-1.476-.311c2.161-1.07 4.651-1.938 7.456-2.581 4.13-.94 9.521-.19 14.12 2.59z"/><path d="M40.518 32.93c2.718-1.07 5.392-.93 7.862-.05 2.472.89 4.733 2.52 6.625 4.49 2.863 2.98 4.885 6.71 5.365 9.79.279 1.78.054 3.33-.898 4.31-.47.48-.89.72-1.303.71-.664-.01-1.241-.59-1.855-1.44-1.392-1.92-2.79-5.24-4.657-8.1-1.88-2.89-4.234-5.31-7.474-5.53a.272.272 0 0 0-.29.25c-.012.15.1.28.249.29 3.052.26 5.208 2.61 6.943 5.35 1.835 2.91 3.197 6.26 4.569 8.21.792 1.13 1.625 1.79 2.497 1.82.601.01 1.249-.26 1.94-.95 1.139-1.15 1.507-2.96 1.196-5.06-.477-3.24-2.537-7.22-5.566-10.34-2.005-2.06-4.433-3.75-7.062-4.61-2.65-.87-5.506-.89-8.349.36a.267.267 0 0 0-.145.35c.057.14.215.21.353.15zM33.957 33.43c-2.654-1.19-5.492-1.03-8.196.01-2.477.95-4.843 2.64-6.841 4.66-3.018 3.05-5.194 6.86-5.794 9.97-.399 2.08-.092 3.86 1.047 5.01.928.93 1.75 1.11 2.491.83.545-.2 1.066-.68 1.561-1.38.683-.96 1.345-2.36 2.064-3.91 1.153-2.48 2.46-5.36 4.301-7.41 1.284-1.43 2.828-2.45 4.773-2.62a.271.271 0 0 0-.041-.54c-1.68.12-3.095.82-4.315 1.88-3.181 2.75-5.004 7.94-6.745 11.02-.424.75-.84 1.37-1.276 1.77-.336.32-.676.5-1.051.45-.358-.04-.727-.28-1.142-.7-.942-.97-1.106-2.48-.756-4.22.597-2.96 2.734-6.53 5.593-9.45 1.897-1.94 4.112-3.59 6.45-4.57 2.503-1.04 5.14-1.32 7.665-.3a.27.27 0 0 0 .355-.15.268.268 0 0 0-.143-.35zM25.946 56.56c.223.07.42.13.63.17.227.04.442.06.65.06.185 0 .36-.01.526-.03.285-.04.544-.1.778-.18 1.719-.53 2.21-1.53 2.21-1.53a.268.268 0 0 0-.089-.37.267.267 0 0 0-.372.09s-.43.52-1.526.82c-.319.08-.693.13-1.13.18-.157.02-.322.03-.495.06-.18.02-.363.05-.56.08-.19.03-.371.08-.579.11a.265.265 0 0 0-.291.24c-.012.15.1.28.248.3zM37.308 55.09c.183.28.39.52.63.75.159.15.332.28.515.4.223.15.461.27.709.38.243.11.496.19.75.27.622.17 1.256.27 1.847.32 1.533.14 2.771-.03 2.771-.03.149-.01.26-.14.249-.29a.272.272 0 0 0-.291-.25s-1.766.02-3.601-.48c-.338-.09-.677-.2-1.012-.33-.218-.08-.434-.17-.647-.26-.267-.12-.528-.23-.78-.37-.258-.15-.51-.28-.738-.47-.1-.11-.272-.12-.383-.02s-.119.27-.019.38zM33.265 65.24c.744.03 1.247-.19 1.575-.48.359-.31.505-.73.518-1.1.012-.34-.27-.65-.755-.83-.549-.21-1.38-.28-1.846-.3-.532-.01-1.826.04-2.518.29-.505.19-.736.53-.739.84.002.2.083.43.294.64.172.16.445.35.79.49.379.17.842.31 1.316.39.478.08.956.11 1.365.06z"/></g><path fill="#e94b35" d="m34.642 63.69-.035-.03c-.022-.01-.048-.02-.076-.04-.158-.08-.376-.12-.606-.15-.417-.06-.875-.07-1.168-.06-.321.01-.953.06-1.515.17-.197.03-.482.06-.657.1.032.02.066.04.092.06.304.22.765.43 1.255.61.456.16.923.31 1.333.35.438-.01.76-.12.988-.29.28-.19.39-.48.389-.72z"/><path fill="#ff80af" d="M26.723 59.643c-1.38.024-2.511-.628-2.525-1.456-.015-.828 1.093-1.52 2.473-1.543 1.38-.024 2.511.628 2.526 1.456.014.828-1.093 1.52-2.474 1.543zM42.486 61.144c-2.194-.27-3.863-1.378-3.728-2.475.135-1.097 2.023-1.768 4.217-1.498 2.193.27 3.863 1.378 3.728 2.475-.135 1.097-2.023 1.768-4.217 1.498z"/><path fill="#fff" d="M15.149 65.934a4.505 4.505 0 0 1 5.391 1.48l1.936-.862a.976.976 0 0 1 1.252.409l.052.105a1.019 1.019 0 0 1-.522 1.328l-1.922.855a4.505 4.505 0 0 1-8.574 2.59 4.503 4.503 0 0 1 2.387-5.905z"/><path fill="#4d504f" fill-rule="nonzero" d="M21.734 69.495a4.968 4.968 0 0 1-.584 2.875 4.929 4.929 0 0 1-6.213 2.196 4.86 4.86 0 0 1-2.638-2.644 4.823 4.823 0 0 1 .008-3.703 4.778 4.778 0 0 1 2.602-2.587 4.767 4.767 0 0 1 3.157-.312c.94.23 1.799.747 2.46 1.485l1.614-.748a1.46 1.46 0 0 1 1.88.605l.067.131.012.026a1.51 1.51 0 0 1-.777 1.977zm1.417-2.353a.484.484 0 0 0-.261-.214.499.499 0 0 0-.356.013l-1.947.832a.452.452 0 0 1-.55-.146 4.121 4.121 0 0 0-2.171-1.58 4.19 4.19 0 0 0-2.746.083 4.196 4.196 0 0 0-2.228 2.326 4.152 4.152 0 0 0 .067 3.186 4.108 4.108 0 0 0 5.4 2.121 4.037 4.037 0 0 0 1.969-1.833 4.025 4.025 0 0 0 .388-2.644.492.492 0 0 1 .283-.539l1.917-.863a.52.52 0 0 0 .27-.669z"/></g></svg>