<svg data-id="57-e65fdf4c3239c15-smile" xmlns="http://www.w3.org/2000/svg" viewBox="0 0 100 100"><g fill="none" fill-rule="evenodd"><path fill="#fff5f8" d="M54.025 29.826c-.97-7.856 3.26-24.918 10.153-21.187 6.931 3.751-5.835 9.188-5.372 20.992.902.03 1.83.094 2.782.194.305.032.617.074.935.127C65.598 19.882 76.517 8.942 79.74 16.4c3.106 7.184-8.82 7.709-12.069 15.144 6.464 2.92 13.02 9.442 13.22 19.898.156 8.155-5.208 12.55-10.386 14.286 1.314 2.454 2.128 5.07 2.524 8.093.242 1.852.235 3.506-.013 4.982a4.001 4.001 0 1 1-3.933 6.572c-.185.143-.377.283-.575.418-1.482 10.72-17.932 8.35-15.64 3.291-.288-.05-.574-.108-.855-.173-1.43.893-3.18 1.607-5.355 1.98-4.433.761-8.736-3.53-2.757-7.145-.959-1.286-1.72-2.784-2.252-4.48-.755-2.41-.895-4.584-.616-6.602-1.539 1.061-3.162 1.427-4.79.465-3.298-1.948 4.986-8.395 8.096-9.664-6.56-2.609-9.907-8.278-5.812-15.209-.288-10.565 5.343-17.123 15.332-18.411z"/><g fill="#571b31"><path d="M44.387 63.337a.27.27 0 1 1 .154.518c-1.434.452-4.617 2.523-6.716 4.63-.876.881-1.565 1.761-1.817 2.534-.096.295-.123.568-.041.809.074.221.249.403.517.558 1.398.816 2.774.497 4.104-.355.174-.112.348-.232.52-.36l-.228 1.348c-1.57.954-3.23 1.162-4.875.179-1.516-.92-1.178-2.548.268-4.247 2.088-2.455 6.367-5.124 8.114-5.614zM43.804 83.288l.424.54c-.705.44-1.266.886-1.702 1.327-.792.8-1.143 1.577-1.141 2.293.003.832.503 1.549 1.248 2.07.998.698 2.439 1.047 3.898.798 1.976-.325 3.594-.94 4.936-1.719l1.363.182c-.215.154-.437.304-.668.449-1.46.92-3.247 1.658-5.465 2.055-1.735.3-3.456-.115-4.635-.957-1.011-.723-1.633-1.751-1.603-2.889.024-.905.454-1.906 1.505-2.867.477-.436 1.084-.867 1.84-1.282zM72.933 78.308a4.41 4.41 0 0 1 2.193 1.228 4.374 4.374 0 0 1 1.248 3.126 4.332 4.332 0 0 1-1.317 3.056A4.283 4.283 0 0 1 72 86.932a4.279 4.279 0 0 1-3.44-1.486l.613-.6c.09.124.186.241.29.352.64.687 1.526 1.148 2.537 1.193a3.692 3.692 0 0 0 2.599-1.13 3.644 3.644 0 0 0 1.027-2.599 3.597 3.597 0 0 0-2.92-3.477z"/><path d="m44.385 63.397.777.375c-1.344 2.03-2.528 4.104-3.223 6.358-.798 2.586-.944 5.411.069 8.687 1.399 4.528 4.487 7.616 8.605 9.025.734.251 1.5.45 2.294.593l-.3.584c-.76-.14-1.495-.328-2.201-.564-4.34-1.446-7.607-4.667-9.113-9.414-1.092-3.442-.955-6.419-.134-9.148.692-2.298 1.877-4.419 3.226-6.496zm26.61 1.866c1.3 2.477 2.099 5.12 2.483 8.162.488 3.967-.13 7.048-1.785 9.422-.842 1.208-1.954 2.234-3.33 3.1l.255-.984c.992-.74 1.81-1.583 2.452-2.541 1.512-2.26 2.028-5.161 1.51-8.879-.402-2.979-1.222-5.55-2.529-7.964z"/><path d="M57.397 84.861c-1.725.731-2.96 1.471-3.784 2.203-1.1.977-1.493 1.957-1.442 2.808.048.806.502 1.54 1.267 2.127 1.128.866 2.968 1.422 4.997 1.479 4.449.124 9.816-2.104 10.387-8.344a.27.27 0 0 0-.539-.056c-.684 5.76-5.697 7.677-9.812 7.474-1.505-.074-2.887-.432-3.89-.994-.816-.458-1.38-1.039-1.44-1.756-.053-.636.284-1.332 1.064-2.108.74-.736 1.845-1.53 3.422-2.343a.271.271 0 0 0-.23-.49zM59.227 29.082c-.117-1.956.247-3.733.85-5.366.659-1.779 1.612-3.383 2.593-4.842.737-1.096 1.488-2.111 2.142-3.055.864-1.247 1.558-2.38 1.867-3.4.233-.767.255-1.482.01-2.148-.287-.785-.955-1.522-2.185-2.18-1.693-.903-3.243-.706-4.616.253-1.51 1.053-2.808 3.076-3.815 5.557-2.087 5.145-2.97 11.694-2.222 15.747a.27.27 0 1 0 .533-.094c-.668-3.974.318-10.345 2.433-15.345.783-1.848 1.719-3.43 2.795-4.48 1.288-1.258 2.782-1.715 4.44-.805.953.522 1.5 1.066 1.719 1.679.17.475.129.982-.04 1.526-.288.94-.95 1.971-1.74 3.124-.652.953-1.395 1.983-2.114 3.099-.99 1.535-1.938 3.229-2.553 5.1-.572 1.739-.853 3.627-.637 5.675a.272.272 0 0 0 .54-.045z"/><path d="M75.349 36.268c3.32 3.511 5.75 8.361 5.97 14.625.17 5.489-2.101 9.359-5.187 11.888-4.006 3.282-9.38 4.286-12.454 3.714a.27.27 0 1 1 .094-.533c2.953.489 8.063-.594 11.847-3.796 2.866-2.424 4.969-6.078 4.75-11.238-.227-5.992-2.568-10.616-5.742-13.977a23.022 23.022 0 0 0-6.984-5.015l.38-.885c2.572 1.179 5.141 2.908 7.326 5.217zm-14.142-7.099c.515.044 1.047.115 1.594.214l-.31.896a16.15 16.15 0 0 0-1.365-.183c-6.864-.618-12.366.592-16.198 3.413-4.245 3.126-6.415 8.226-6.137 14.939l-.046.194c-2.57 4.492-1.982 8.401.588 11.23 2.363 2.601 6.365 4.293 11.085 4.729a.27.27 0 0 1-.048.539c-4.891-.416-9.037-2.165-11.504-4.841-2.754-2.989-3.455-7.133-.798-11.921-.31-6.966 1.968-12.258 6.365-15.538 3.956-2.951 9.65-4.272 16.774-3.671z"/><path d="M67.216 35.553c.048-2.268.744-4.023 1.786-5.46 1.16-1.6 2.756-2.799 4.397-3.85 1.166-.748 2.355-1.422 3.43-2.102 1.313-.829 2.459-1.676 3.226-2.654 1.079-1.376 1.456-3.01.529-5.234-.532-1.276-1.282-2.066-2.164-2.468-.95-.432-2.068-.419-3.273-.015-1.603.538-3.381 1.775-5.103 3.468-4.034 3.967-7.795 10.436-8.42 15.916a.27.27 0 0 0 .539.065c.687-5.336 4.455-11.586 8.443-15.401 1.637-1.566 3.307-2.722 4.817-3.208.966-.31 1.857-.343 2.61.011.697.325 1.26.978 1.673 1.994.738 1.815.453 3.143-.43 4.258-.71.897-1.777 1.658-2.981 2.428-1.075.688-2.26 1.377-3.415 2.148-1.711 1.142-3.364 2.458-4.531 4.187-1.062 1.575-1.725 3.489-1.674 5.917 0 .149.12.271.27.271.15 0 .27-.122.27-.271zM42.986 56.16c.106.404.25.76.436 1.084a3.892 3.892 0 0 0 1.238 1.287c.279.182.578.326.885.442.922.349 1.922.447 2.819.429 1.535-.032 2.757-.403 2.757-.403a.27.27 0 0 0-.131-.525s-2.225.44-4.295-.133a5.98 5.98 0 0 1-1.151-.452 5.316 5.316 0 0 1-.683-.421 4.63 4.63 0 0 1-.75-.668 4.632 4.632 0 0 1-.623-.842.271.271 0 0 0-.502.202zM57.185 52.164c1.11.004 2.005.164 2.718.398 2.012.66 2.622 1.882 2.622 1.882a.271.271 0 0 1-.475.26s-.6-.985-2.351-1.461c-1.032-.28-2.45-.378-4.37-.016a.466.466 0 0 1-.395-.798 5.347 5.347 0 0 1 2.055-1.25 6.473 6.473 0 0 1 1.55-.309 8.304 8.304 0 0 1 1.933.089 8.68 8.68 0 0 1 1.849.502c.142.045.22.198.174.34s-.198.22-.341.175c0 0-.908-.192-2.121-.212a9.194 9.194 0 0 0-2.074.187 6.455 6.455 0 0 0-.774.213zM56.18 70.023c1.245-.338 2.512-.715 3.684-1.19 1.314-.534 2.51-1.178 3.438-1.944 1.576-1.3 2.39-2.946 1.89-4.978-.452-1.778-2.166-1.929-4.285-1.015-3.078 1.329-7.036 4.771-8.056 6.358a.27.27 0 1 0 .45.299c.886-1.291 3.918-3.833 6.656-5.283 1.145-.607 2.234-1.025 3.083-1.041.327-.006.61.051.829.207.2.144.332.377.406.696.389 1.648-.35 2.928-1.61 3.997-.856.727-1.948 1.358-3.143 1.927a38.746 38.746 0 0 1-3.504 1.45.272.272 0 0 0 .163.517z"/></g><g transform="translate(37 48)"><ellipse cx="3.572" cy="3.436" fill="#ff80af" rx="2.5" ry="1.5" transform="scale(-1 1) rotate(-33 0 15.484)"/><ellipse cx="21.481" cy="8.054" fill="#ff80af" rx="4" ry="2" transform="scale(-1 1) rotate(-22.02 -.025 118.438)"/><circle cx="5.609" cy="1.854" r="1.5" fill="#4d504f" transform="rotate(-4.01 5.592 1.853)"/></g></g></svg>