<svg data-id="6-c4f5320b615ef1d-dog" xmlns="http://www.w3.org/2000/svg" viewBox="0 0 100 100"><g fill="none" fill-rule="evenodd"><g transform="translate(-1 8)"><ellipse cx="70.292" cy="42.238" fill="#222" rx="4" ry="5" transform="rotate(-30 70.29 42.242)"/><path fill="#222" d="M73.434 28.454c2.243 2.872 5.775 7.435 10.234 10.943 4.832 3.802 10.415 6.553 7.48 9.624-5.644 5.907-13.304-14.216-19.322-9.83 0 0-8.027 11.653-8.374 11.415-5.363-3.671-17.44-20.483-17.12-21.57 1.701-5.796 24.921-3.374 27.102-.582z"/><path fill="#393939" d="M32.31 52.923c2.044-.662 14.59 1.519 21.689 0 9.114 1.519 11.163 13.795 14.27 13.794 6.587 0-.134-15.21-7.363-25.039-4.014-5.46-7.061-13.318-8.896-14.273-4.705-2.447-18.47-15.302-19.017-7.738-.684 9.442-6.175 17.489-6.317 24.903-4.794 3.997-16.494 12.935-12.938 15.77 3.556 2.833 12.08-5.317 18.572-7.417z"/><path fill="#404040" d="m50.08 2.194.138-.02 9.949-.791s1.219 9.247.38 10.84c-.478.906-2.442 3.07-4.05 4.77.076 4.772-.994 13.477-1.037 14.295-.25 4.882-3.088 8.792-7.942 9.824l-1.787.38c-4.861 1.034-9.131-1.323-11.253-5.741-.378-.786-5.11-8.1-6.925-12.874-2.524-1.173-5.792-2.734-6.704-3.364-1.545-1.067-3.097-7.534-3.097-7.534l9.714-4.83c.494-.246 1.26-.17 1.687.152l2.736 2.063c1.933-.89 4.408-1.6 7.464-2.25 3.054-.649 5.603-1.008 7.729-.982l1.666-3.01c.26-.47.924-.904 1.47-.947z"/><path fill="#fde089" d="M41.125 59.723c-.99 1.31 6.45 5.094 1.331 11.79-5.118 6.696-20.154 9.115-19.918 9.995.199.74 5.808 1.435 11.785-1.003 2.893-1.18 10.71.23 14.075-9.571 3.364-9.802-6.282-12.52-7.273-11.211z"/><path fill="#fbdd87" d="M62.14 87.632c-4.395-7.088-8.332-11.766-20.647-7.344-12.314 4.422-18.749-.134-18.805 1.464-.026.766 2.921 4.955 11.793 4.201 4.331-.368 10.465-3.89 15.588-3.32 5.37.6 9.684 5.298 12.071 5z"/><g fill="#ebc146"><path d="M32.808 59.56c-.887.238 9.105 3.009 3.987 9.705-5.119 6.696-14.492 11.363-14.256 12.244.101.377 6.09.492 10.887-2.942 4.612-3.3 7.762-7.762 7.17-12.794-.791-6.709-7.157-6.383-7.788-6.213z"/><path d="M51.45 77.836c6.932-5.488 7.25-13.26 5.117-13.335s-3.235 3.506-13.122 10.385c-9.888 6.878-20.7 5.268-20.757 6.866-.026.765 5.132 3.07 11.557 2.488 6.993-.635 13.562-3.519 17.206-6.404z"/></g></g><path fill="#593a30" d="m51.318 10.58 7.472.634-.057 6.97c.01.554-.272 1.345-.631 1.769l-2.596 3.339c-.24-3.507-4.942-6.883-7.278-7.723zm-26.521 5.613 4.875 3.085c-3.315 2.355-4.361 7.258-3.542 9.773l-5.199-3.01c-.432-.28-.825-.871-.946-1.386l-1.427-6.114z"/><path fill="#000" d="M70.323 35.07c1.869-.543 3.826-1.284 5.793-2.177a44.814 44.814 0 0 0 5.432-2.924c3.49-2.21 6.69-4.97 8.893-8.34a.453.453 0 0 1 .82.34c-.924 4.205-3.28 7.68-6.396 10.451-3.037 2.7-6.794 4.73-10.616 6.12-.067.025-.759-1.149-1.662-1.942-1.06-.931-2.345-1.507-2.264-1.528zM66.39 53.503c.319.436.675.808 1.067 1.11.438.337.917.578 1.404.733a3.85 3.85 0 0 0 3.172-.361c1.134-.686 1.809-1.903 1.917-3.306.089-1.158-.2-2.438-.912-3.604a6.45 6.45 0 0 0-1.23-1.472.278.278 0 1 0-.378.41 5.917 5.917 0 0 1 1.044 1.389c.574 1.052.779 2.184.657 3.196-.133 1.097-.668 2.05-1.58 2.553a3.059 3.059 0 0 1-1.428.381 3.75 3.75 0 0 1-1.004-.108 4.635 4.635 0 0 1-1.212-.485 5.526 5.526 0 0 1-1.097-.803.279.279 0 0 0-.42.367z"/><path fill="#000" d="M71.074 47.417a534.61 534.61 0 0 1-3.906 5.531 201.864 201.864 0 0 1-2.69 3.681.28.28 0 0 1-.446-.333 211.417 211.417 0 0 0 2.647-3.695c1.984-2.824 3.884-5.609 3.884-5.609l.078-.08c1.776-1.306 3.704-.673 5.679.88 3.212 2.526 6.576 7.533 9.668 9.304 1.363.781 2.667.875 3.86-.384.487-.513.706-1.007.685-1.506-.021-.528-.298-1.045-.73-1.578-1.445-1.783-4.567-3.635-7.42-5.864-1.621-1.27-3.125-2.675-4.486-4.093-2.418-2.52-4.392-5.076-5.837-6.929-.246-.319-.818-.61-1.605-.907-1.186-.447-2.836-.853-4.726-1.19-3.174-.565-7.02-.932-10.521-.862a.28.28 0 0 1-.29-.269.28.28 0 0 1 .27-.289c3.545-.174 7.455.063 10.684.563 1.965.304 3.678.71 4.912 1.155 1.017.368 1.723.793 2.044 1.2 1.432 1.83 3.395 4.347 5.783 6.844 1.328 1.39 2.786 2.774 4.366 4.022 2.899 2.297 6.06 4.225 7.525 6.056.565.708.89 1.411.913 2.108.024.705-.248 1.42-.94 2.138-1.53 1.588-3.18 1.508-4.902.503-1.334-.779-2.72-2.144-4.115-3.665-1.858-2.024-3.741-4.325-5.582-5.798-1.666-1.334-3.281-1.998-4.802-.934z"/><path fill="#000" d="M25.266 52.37c.077-1.949.505-3.938 1.119-5.98.844-2.807 2.035-5.715 3.094-8.77a.279.279 0 0 1 .529.177c-.998 3.065-2.125 5.987-2.916 8.797-.578 2.052-.977 4.041-1 5.985a.416.416 0 0 1-.15.312c-2.847 2.398-8.153 6.575-11.188 10.135-.963 1.13-1.697 2.188-2.017 3.106-.261.747-.236 1.382.312 1.818.867.692 2.072.581 3.48.108 2.105-.708 4.615-2.264 7.188-3.809 2.53-1.52 5.119-3.03 7.446-3.778.516-.166 1.66-.179 3.206-.095 3.046.165 7.742.651 12.138.651 2.316 0 4.547-.133 6.402-.526l.162-.004c2.286.386 4.144 1.421 5.689 2.773 3.238 2.832 5.086 7.075 6.69 9.461.353.525.69.955 1.033 1.246.26.22.515.358.788.36 2.08.004 2.575-1.746 2.202-4.327-.513-3.55-2.708-8.622-5.505-13.492-3.504-6.103-5.283-8.026-7.07-10.905-.81-1.306-1.622-2.807-2.595-4.975a.28.28 0 0 1 .508-.23c.97 2.133 1.78 3.61 2.586 4.893 1.806 2.875 3.598 4.792 7.14 10.888 2.874 4.943 5.122 10.102 5.663 13.714.475 3.171-.37 5.194-2.93 5.2-.438.002-.865-.182-1.286-.535-.39-.327-.78-.807-1.182-1.399-1.586-2.334-3.4-6.503-6.591-9.267-1.421-1.23-3.12-2.178-5.202-2.537-1.89.4-4.153.546-6.5.556-4.414.018-9.13-.449-12.19-.603-1.38-.07-2.403-.09-2.862.06-2.264.736-4.774 2.225-7.234 3.711-2.637 1.593-5.217 3.183-7.376 3.912-1.79.604-3.316.608-4.42-.27-.708-.566-.952-1.317-.814-2.209.18-1.156 1.075-2.6 2.4-4.133 3.04-3.518 8.32-7.608 11.253-10.02zM26.673 30.63c-.38-.219-.767-.45-1.172-.68-.261-.146-.524-.29-.79-.432-.31-.167-.62-.33-.928-.489a67.772 67.772 0 0 0-.937-.467c-1.234-.604-2.284-1.114-2.738-1.418-.522-.344-1.004-1.266-1.438-2.28-.82-1.914-1.404-4.18-1.404-4.18a.278.278 0 1 0-.544.125s.603 2.952 1.51 5.054c.4.923.878 1.677 1.36 2.027.53.374 1.828 1.11 3.355 1.831.553.261 1.138.516 1.725.753.6.243 1.2.452 1.766.661a.279.279 0 0 0 .235-.506zm32.604-18.764s.004.594.026 1.476c.01.434.027.936.046 1.47.013.38.03.774.047 1.172.024.591.05 1.187.048 1.746-.002.994-.05 1.86-.272 2.3-.211.425-.751 1.135-1.42 1.948a87.073 87.073 0 0 1-2.451 2.832.28.28 0 0 0 .406.383c1.018-1.024 2.176-2.219 3.034-3.2.56-.642.993-1.199 1.194-1.56.346-.629.487-2.033.48-3.549a22.997 22.997 0 0 0-.038-1.285 24.676 24.676 0 0 0-.298-2.543c-.131-.765-.25-1.258-.25-1.258a.279.279 0 1 0-.552.068zM45.9 13.79l2.12-3.394a.28.28 0 0 1 .479.288l-2.116 3.632a.344.344 0 0 1-.3.166 24.09 24.09 0 0 0-3.064.232c-1.38.184-2.897.471-4.566.85a58.66 58.66 0 0 0-3.752.96c-.646.19-1.255.387-1.83.586-.637.221-1.232.442-1.782.684a.465.465 0 0 1-.47-.045s-.843-.639-1.675-1.295c-.834-.658-1.653-1.329-1.653-1.329a.28.28 0 0 1 .326-.453 121.606 121.606 0 0 0 3.317 2.16c.389-.182.798-.358 1.23-.523.475-.18.978-.349 1.506-.51 1.355-.415 2.886-.776 4.594-1.123 1.707-.339 3.256-.592 4.663-.739a25.01 25.01 0 0 1 2.973-.147z"/><path fill="#484848" d="m52.491 45.58-1.002-4.733a7.344 7.344 0 0 0-3.228-4.629 7.403 7.403 0 0 0-5.6-.99 7.432 7.432 0 0 0-5.73 6.09 7.296 7.296 0 0 0 .14 2.854c-.001-.004.216.892.476 1.906.342 1.328.756 2.856.756 2.856.016.073 3.967 1.347 7.457.523 3.603-.85 6.748-3.802 6.731-3.878z"/><g fill="#000" transform="translate(11.576 7.842)"><path d="M42.318 12.748c.833 1.07 1.14 3.063 1.213 5.35.067 2.124-.09 4.498-.301 6.647-.34 3.454-.82 6.332-.84 6.685-.114 2.327-.84 4.426-2.116 6.07-1.28 1.644-3.11 2.831-5.425 3.332l-1.786.388c-2.323.505-4.51.201-6.37-.76-1.871-.966-3.413-2.59-4.444-4.71-.248-.509-3.541-5.146-5.83-9.956-1.215-2.554-2.151-5.155-2.163-7.197a.279.279 0 1 0-.557 0c-.012 2.111.909 4.816 2.136 7.47 2.236 4.834 5.479 9.504 5.722 10.015 1.088 2.297 2.74 4.06 4.749 5.12 2.02 1.068 4.403 1.425 6.944.897l1.789-.372c2.554-.532 4.578-1.829 5.996-3.633 1.405-1.785 2.216-4.072 2.352-6.613.017-.35.503-3.213.785-6.65.179-2.19.276-4.612.139-6.77-.155-2.445-.624-4.555-1.56-5.664a.279.279 0 0 0-.433.351z"/><path d="M35.496 25.554s.07-.355.246-.78c.045-.11.102-.22.165-.335.053-.097.114-.194.189-.286.169-.208.404-.394.76-.484.483-.129.866-.04 1.159.148.58.371.852 1.02.852 1.02a.279.279 0 1 0 .528-.177s-.251-.882-.944-1.446c-.424-.344-1.008-.554-1.783-.432-.792.145-1.294.564-1.561 1.057a2.212 2.212 0 0 0-.257.887c-.011.165-.008.312.008.442.033.272.083.438.083.438a.279.279 0 1 0 .555-.052zM22.648 28.303s.07-.355.246-.78c.046-.11.103-.22.165-.335.054-.097.115-.194.19-.286a1.37 1.37 0 0 1 .76-.483c.483-.13.866-.04 1.159.147.579.371.85 1.021.85 1.021a.28.28 0 0 0 .53-.178s-.251-.882-.945-1.445c-.424-.345-1.007-.555-1.782-.433-.793.145-1.294.564-1.562 1.057a2.198 2.198 0 0 0-.256.887c-.012.165-.01.312.007.442.034.272.083.44.083.44a.279.279 0 0 0 .555-.053zM51.767 4.603a.28.28 0 0 0 .277-.405s-.623-1.36-1.723-2.564A6.712 6.712 0 0 0 48.67.298c-.29-.159-.71-.257-1.23-.287-.698-.04-1.6.033-2.58.19-3.515.563-8.105 2.112-8.105 2.112a.443.443 0 0 0-.305.47.443.443 0 0 0 .395.395zM1.117 13.924a.278.278 0 0 0 .309.265s2.095-.21 4.009-.97c.919-.364 1.792-.86 2.395-1.505.79-.848 1.836-1.55 2.906-2.121 2.491-1.33 5.124-1.946 5.124-1.946a.45.45 0 0 0-.176-.881s-2.627.38-5.52.998c-1.227.262-2.503.562-3.643.9-.872.259-1.664.54-2.305.826-.688.308-1.206.63-1.487.94-.646.727-1.038 1.386-1.268 1.932-.402.953-.344 1.562-.344 1.562z"/><ellipse cx="31.702" cy="31.296" rx="3" ry="2" transform="rotate(-12.04 31.665 31.301)"/></g><path fill="#e45555" d="M47.278 45.255c.382-.222.7-.482.967-.77a3.61 3.61 0 0 0 .492-.689c.184-.329.306-.67.377-1.005.08-.385.087-.76.04-1.1-.105-.773-.495-1.368-1.036-1.61-.376-.169-.834-.195-1.351.036-.544.245-.83.551-.98.898-.174.408-.155.886-.13 1.42.035.702.04 1.523-.885 2.387a.278.278 0 0 0-.026.393c.1.116 2.408.132 2.532.04z"/><path fill="#000" d="M44.693 45.591a3.815 3.815 0 0 1-.818.616 4.533 4.533 0 0 1-1.252.468c-.51.08-.958.09-1.33.026-.818-.14-1.258-.487-1.258-.487a.28.28 0 0 1 .276-.485s.399.122 1.05.114a4.088 4.088 0 0 0 1.055-.14c.4-.082.73-.213.995-.35.537-.28.799-.586.799-.586a.454.454 0 0 1 .63-.099s.297.215.909.273c.299.028.662.024 1.095-.05a4.132 4.132 0 0 0 1.062-.322c.604-.284.83-.609.83-.609a.278.278 0 1 1 .48.281s-.195.377-.785.77c-.332.222-.797.446-1.432.606a4.595 4.595 0 0 1-1.57.135 2.985 2.985 0 0 1-.736-.16z"/><path fill="#d6a000" d="M47.645 79.028c.584-1.535.848-2.907.86-4.126.016-1.663-.426-3.045-1.1-4.16a7.776 7.776 0 0 0-1.857-2.08c-1.273-1-2.714-1.53-3.807-1.677-.537-.072-.998-.05-1.333.041-.313.085-.538.236-.672.416-.18.241-.232.52-.15.847.079.306.305.681.627 1.112.88 1.177 2.542 2.916 2.632 5.313.05 1.326-.387 2.847-1.69 4.584-.747.996-1.717 1.898-2.824 2.716-1.034.765-2.187 1.457-3.391 2.082a.277.277 0 0 0-.123.374.278.278 0 0 0 .375.123c1.506-.743 2.937-1.589 4.173-2.55.908-.706 1.709-1.475 2.36-2.31 1.476-1.893 1.965-3.576 1.935-5.043-.052-2.6-1.772-4.543-2.706-5.834-.194-.268-.35-.5-.43-.704a.56.56 0 0 1-.031-.102c-.003-.015-.015-.028-.006-.039.049-.064.155-.073.28-.092a2.91 2.91 0 0 1 .84.02c.958.14 2.208.628 3.324 1.506a7.244 7.244 0 0 1 1.644 1.811c.619.977 1.038 2.183 1.099 3.66.048 1.147-.103 2.452-.557 3.931a.28.28 0 0 0 .528.181zM60.47 95.24c-1.632-2.628-3.235-4.882-5.306-6.39-1.53-1.114-3.314-1.817-5.557-1.96a.278.278 0 1 1 .032-.556c2.372.12 4.267.841 5.898 1.997 2.319 1.643 4.099 4.177 5.957 7.13l.31.5-.584.073c-.767.101-1.73-.249-2.844-.842-1.566-.834-3.478-2.14-5.651-3.067-1.155-.493-2.386-.878-3.678-1.015-1.48-.158-3.043.042-4.621.402-2.168.494-4.361 1.296-6.407 1.94-1.607.504-3.127.908-4.474 1.022-3.557.261-6.182-.234-8.05-.999-1.874-.767-2.997-1.795-3.565-2.565-.377-.51-.516-.934-.503-1.138a.28.28 0 1 1 .557.02c-.001.141.153.403.43.742.553.68 1.63 1.553 3.37 2.198 1.8.667 4.3 1.088 7.677.76 1.284-.11 2.729-.51 4.262-.989 2.072-.645 4.299-1.435 6.496-1.917 1.685-.37 3.354-.557 4.928-.374 1.38.161 2.692.581 3.92 1.121 2.188.962 4.109 2.303 5.684 3.165.64.351 1.213.627 1.72.741z"/><path fill="#d6a000" d="M21.8 89.497a.278.278 0 0 1-.547.082c-.032-.12-.01-.289.133-.48.14-.193.428-.452.836-.768 1.738-1.347 5.79-3.867 9.439-7.2 1.376-1.259 2.694-2.632 3.805-4.103 1.306-1.727 1.564-3.16 1.233-4.346-.288-1.032-1.011-1.863-1.811-2.528-1.011-.842-2.154-1.417-2.811-1.769-.32-.17-.541-.31-.63-.397a.526.526 0 0 1-.168-.4c.006-.166.074-.382.396-.47.435-.118 3.402-.336 5.706 1.43 1.289.987 2.382 2.587 2.693 5.17a11.26 11.26 0 0 1-.448 4.648c-.436 1.405-1.145 2.796-2.123 4.118a17.304 17.304 0 0 1-2.5 2.702c-1.277 1.122-2.793 2.15-4.538 3.051a.278.278 0 0 1-.267-.49 22.374 22.374 0 0 0 4.273-3.145 17.484 17.484 0 0 0 2.304-2.643c.884-1.256 1.52-2.562 1.913-3.878.424-1.42.563-2.854.397-4.247-.258-2.248-1.178-3.656-2.293-4.522-1.178-.915-2.56-1.238-3.558-1.329 1.16.657 2.815 1.711 3.727 3.21.968 1.59 1.17 3.676-.87 6.313-1.544 1.995-3.463 3.81-5.395 5.396-3.387 2.781-6.811 4.861-8.272 5.998a4.119 4.119 0 0 0-.552.488c-.021.025-.053.053-.071.075.005.016.008.032 0 .034z"/><path fill="#d6a000" d="M50.652 86.08c3.086-2.372 4.92-5.199 5.832-7.655.84-2.269.88-4.239.452-5.3-.28-.693-.758-1.054-1.324-1.077-.628-.026-1.191.196-1.847.696-.966.735-2.196 2.131-4.466 4.171-1.682 1.511-3.937 3.385-7.107 5.598-2.607 1.826-5.281 3.05-7.8 3.894-5.177 1.737-9.705 1.888-11.695 2.334-.464.104-.807.232-1.018.38-.258.18-.375.401-.383.647-.005.183.1.452.417.715.6.5 2.114 1.194 4.215 1.675 2.014.461 4.576.735 7.37.47 3.21-.306 6.329-1.079 9.12-2.108 3.352-1.236 6.232-2.84 8.234-4.44zm-28.48 3.701c.115.1.35.292.606.433.909.5 2.493 1.07 4.496 1.427 1.73.31 3.769.46 5.96.27 3.15-.273 6.217-1.007 8.965-1.993 3.294-1.182 6.132-2.726 8.106-4.276 2.326-1.9 3.865-4.058 4.809-6.065 1.139-2.424 1.404-4.62 1.05-5.85-.121-.422-.285-.725-.585-.733-.424-.013-.787.174-1.227.515-.947.734-2.144 2.131-4.385 4.15-1.702 1.533-4.002 3.417-7.222 5.65-2.698 1.865-5.462 3.112-8.065 3.967-5.23 1.716-9.796 1.84-11.804 2.274-.28.061-.501.124-.66.205a.42.42 0 0 0-.043.026z"/></g></svg>