<svg data-id="60-8c7ac1ef19a6c59-down" xmlns="http://www.w3.org/2000/svg" viewBox="0 0 100 100"><g fill="none" fill-rule="evenodd"><path fill="#fff5f8" d="M29.318 10.581c6.442-4.51 13.74 6.302 17.296 15.228a29.21 29.21 0 0 1 4.392-.242c1.378.025 2.694.115 3.948.27 2.504-9.231 8.952-20.024 14.707-14.947 5.352 4.722-6.358 7.74-9.48 16.075 8.74 2.832 12.957 9.809 11.466 19.707 2.26 5.177.959 9.29-2.376 11.903.355 1.734-.822 4.296-3.456 7.154 1.312 3.324 1.76 6.6 1.788 9.55.032 3.346-.86 6.123-3.245 8.106-2.014 9.066-11.697 7.448-12.804 3.358-.307.005-.62.007-.94.007h.278c-.552 4.558-12.135 5.463-12.642-3.317-1.169-1.08-2.073-2.488-2.646-4.316a16.213 16.213 0 0 1-.764-4.591c-.866.216-1.71.103-2.43-.428-2.504-1.846-.175-9.058 7.122-12.123l.406-.57c-8.33-1.67-13.093-9.214-8.865-14.354-1.735-8.684 1.845-16.359 9.76-19.706-3.264-8.752-18.077-12.169-11.515-16.764z"/><g fill="#571b31"><path d="M36.012 78.652c.493 1.593 1.25 2.857 2.22 3.853v1.122c-1.348-1.149-2.39-2.684-3.034-4.72-.5-1.579-.741-3.12-.776-4.622l.88-.155a15.61 15.61 0 0 0 .71 4.522zm30.105-13.528c1.334 3.42 1.76 6.79 1.757 9.815.048 3.565-.941 6.5-3.59 8.563a9.893 9.893 0 0 1-.094.072l.177-.937c2.17-1.905 2.983-4.54 2.966-7.693-.057-2.856-.52-6.013-1.791-9.216z"/><path d="M53.339 81.898c-1.013.764-1.66 1.551-2.006 2.32-.77 1.709-.15 3.334 1.188 4.449 1.203 1.003 3.025 1.58 4.9 1.469 3.359-.199 6.972-2.598 7.486-8.836a.273.273 0 0 0-.243-.296.272.272 0 0 0-.296.243c-.65 5.69-3.914 7.852-6.99 7.964-1.623.058-3.176-.456-4.224-1.314-.524-.428-.923-.938-1.118-1.519-.19-.565-.193-1.186.05-1.85.26-.705.765-1.453 1.599-2.214a.27.27 0 0 0-.346-.416z"/><path d="M47.872 81.873c.723.635 1.27 1.245 1.679 1.819.244.342.43.672.577.987.73 1.592.117 2.849-1.114 3.65-.958.624-2.261.989-3.627 1.004-3.5.04-7.344-2.204-6.816-8.087a.272.272 0 0 0-.241-.297.27.27 0 0 0-.297.241c-.78 6.474 3.49 9.022 7.354 9.07 1.566.019 3.073-.383 4.173-1.097.402-.26.752-.563 1.03-.903.81-.985 1.09-2.269.43-3.718a5.793 5.793 0 0 0-.855-1.325c-.483-.575-1.127-1.165-1.955-1.767a.27.27 0 1 0-.338.423zM40.084 67.363a11.33 11.33 0 0 1-1.422 3.066c-.654.999-1.428 1.837-2.242 2.433-.622.455-1.263.768-1.887.883-.653.12-1.285.022-1.833-.377-.521-.377-.77-1.043-.795-1.856-.046-1.454.616-3.34 1.97-5.141 1.424-1.892 3.604-3.685 6.563-4.796a.271.271 0 0 0 .164-.346.271.271 0 0 0-.346-.164c-3.89 1.336-6.55 3.817-7.987 6.259-1.021 1.733-1.423 3.457-1.252 4.767.116.892.498 1.605 1.105 2.062.77.574 1.666.746 2.592.574.76-.141 1.548-.516 2.29-1.091.878-.681 1.705-1.637 2.357-2.78a11.352 11.352 0 0 0 1.249-3.365.27.27 0 1 0-.526-.128z"/><path d="m40.646 26.558.303.93c-2.113.91-3.906 2.138-5.36 3.616-3.794 3.859-5.26 9.43-4.054 15.517a.475.475 0 0 1-.098.391c-2.688 3.226-1.53 7.471 1.825 10.441 2.648 2.345 6.66 3.914 11.356 3.634a.27.27 0 0 1 .037.54c-6.07.48-11.1-2.054-13.685-5.452-2.27-2.985-2.671-6.63-.401-9.584-1.217-6.344.345-12.154 4.31-16.185 1.558-1.582 3.488-2.89 5.767-3.848zm20.53 34.41-.29.596c-.923.09-1.876.126-2.854.107a.271.271 0 0 1 .009-.541 23.841 23.841 0 0 0 3.135-.162zm-.849-34.752c2.797.916 5.137 2.248 6.985 3.954 4.029 3.721 5.742 9.223 4.705 16.117 2.143 5.039 1.013 9.086-2.04 11.771-.21.186-.432.366-.662.539l-.11-.71c.121-.098.24-.2.355-.302 2.852-2.545 3.846-6.37 1.759-11.108l-.026-.196c.979-6.648-.646-11.947-4.542-15.5-1.779-1.623-4.027-2.88-6.707-3.74zm-9.312-1.45c1.402.029 2.742.126 4.018.288l-.236.882a37.398 37.398 0 0 0-3.8-.243c-1.51-.024-2.942.06-4.293.243l-.374-.904a29.608 29.608 0 0 1 4.685-.266z"/><path d="M59.725 30.207c.136-2.042.803-3.791 1.738-5.332.663-1.093 1.464-2.08 2.318-2.989 1.14-1.214 2.378-2.285 3.512-3.274 1.46-1.274 2.752-2.421 3.499-3.524.602-.889.864-1.765.672-2.655-.154-.717-.61-1.461-1.493-2.232-2.518-2.191-5.142-1.663-7.547.466-3.642 3.223-6.767 10.24-8.091 16.193a.27.27 0 1 0 .527.122c1.157-4.829 3.53-10.364 6.375-13.872 2.52-3.108 5.4-4.638 8.117-2.207.68.606 1.058 1.169 1.172 1.727.132.646-.106 1.263-.545 1.903-.716 1.044-1.962 2.112-3.342 3.331-1.152 1.018-2.398 2.133-3.535 3.398-.875.973-1.686 2.034-2.338 3.207-.927 1.665-1.535 3.551-1.58 5.715a.271.271 0 0 0 .54.023zM47.764 27.816a49.628 49.628 0 0 0-3.285-7.954 39.616 39.616 0 0 0-2.684-4.439 26.631 26.631 0 0 0-2.171-2.72c-3.314-3.606-7.086-5.288-10.565-2.83-1.314.932-1.83 1.845-1.833 2.727-.001.683.307 1.372.87 2.069 1.234 1.525 3.736 3.146 6.245 5.11 3.057 2.392 6.132 5.307 6.745 9.277a.271.271 0 0 0 .536-.078c-.573-4.134-3.69-7.236-6.828-9.769-2.423-1.955-4.855-3.559-6.04-5.065-.412-.525-.668-1.028-.66-1.537.01-.666.48-1.3 1.484-1.993 3.108-2.157 6.37-.439 9.31 2.765.724.79 1.43 1.67 2.11 2.612a44.09 44.09 0 0 1 2.707 4.289c1.446 2.584 2.68 5.285 3.546 7.708a.27.27 0 1 0 .513-.172zM50.634 53.573c-1.857-.037-3.19.399-3.99.887-.43.263-.714.551-.865.798-.156.254-.18.492-.134.674a.65.65 0 0 0 .402.445 1.3 1.3 0 0 0 .628.088c.735-.059 1.83-.707 3.959-.671a9.739 9.739 0 0 1 2.783.432c.552.163.968.307 1.31.343.259.027.488 0 .7-.088.35-.146.507-.413.485-.751a1.066 1.066 0 0 0-.16-.48c-.165-.269-.488-.598-.994-.886a5.877 5.877 0 0 0-1.621-.612c-.701-.157-1.538-.233-2.503-.179z"/></g><path fill="#e94b35" d="m54.798 55.579-.06-.06c-.35-.354-.995-.737-1.918-1.017a9.251 9.251 0 0 0-2.186-.388c-1.094.023-1.984.21-2.672.467-.745.279-1.241.636-1.48.952a.714.714 0 0 0-.081.153c.174.038.368-.026.614-.1.527-.16 1.216-.434 2.199-.593a10.518 10.518 0 0 1 3.377.027c.864.15 1.475.376 1.945.497.096.025.182.049.262.062z"/><path fill="#571b31" d="M34 46.974s.333.072.878.065a4.852 4.852 0 0 0 1.54-.279c.316-.111.64-.258.959-.44.924-.524 1.817-1.324 2.363-2.533a.27.27 0 0 0-.48-.251c-.47.777-1.102 1.301-1.757 1.682-.473.275-.964.455-1.417.603-.223.073-.436.138-.636.199-.27.081-.511.154-.72.213-.453.127-.73.2-.73.2a.271.271 0 0 0 0 .541zM67.5 46.433s-.277-.073-.73-.2c-.21-.059-.45-.132-.72-.213-.2-.061-.413-.126-.636-.199-.453-.148-.944-.328-1.417-.603-.655-.381-1.288-.905-1.757-1.682a.27.27 0 0 0-.48.251c.546 1.209 1.439 2.009 2.363 2.533.319.182.643.329.959.44a4.852 4.852 0 0 0 2.418.214.271.271 0 0 0 0-.541zM60.098 64.035a17.962 17.962 0 0 1 1.65-3.332c.72-1.143 1.517-2.092 2.334-2.786.663-.564 1.332-.961 1.983-1.133.712-.188 1.396-.105 1.984.338.573.429.842 1.058.83 1.831-.012.941-.412 2.071-1.168 3.332-1.224 2.04-3.363 4.393-6.386 6.799a.27.27 0 1 0 .33.428c3.937-2.954 6.468-5.876 7.533-8.241.973-2.161.736-3.897-.558-4.908-.975-.756-2.147-.847-3.357-.363-.611.244-1.236.638-1.838 1.173-.866.77-1.702 1.825-2.408 3.105-.583 1.058-1.07 2.271-1.444 3.589a.271.271 0 0 0 .515.168z"/><g transform="translate(25 21)"><path fill="#77c9ff" d="M7.535 20.85a7.535 7.535 0 0 0 7.536-7.536C15.07 8.435 7.535 0 7.535 0S0 8.435 0 13.314a7.535 7.535 0 0 0 7.535 7.536z"/><ellipse cx="39" cy="32" fill="#ff80af" rx="4" ry="2"/><ellipse cx="11.985" cy="32.174" fill="#ff80af" rx="4" ry="2"/><g fill="#571b31"><circle cx="14.167" cy="28.167" r="2" transform="rotate(-5.13 14.127 28.247)"/><circle cx="37.167" cy="28.167" r="2" transform="rotate(-5.13 37.159 28.295)"/></g></g></g></svg>