<svg data-id="62-56ccd17613f654c-angle" xmlns="http://www.w3.org/2000/svg" viewBox="0 0 100 100"><g fill="none" fill-rule="evenodd"><path fill="#fff5f8" d="M58.333 26.585C60.901 17.398 67.309 6.68 73 11.7c5.3 4.677-6.172 7.874-9.432 16.079 8.653 2.857 12.822 9.815 11.339 19.665 3.519 8.064-1.6 13.547-9.592 14.797 2.772 4.262 4.367 8.775 4.956 13.27.511 3.906-.406 6.996-3.141 9.094-2.213 8.211-11.071 6.896-12.56 3.136-.312.005-.631.008-.956.008h.252c-.747 4.426-12.01 5.246-12.616-3.316-1.168-1.08-2.073-2.489-2.646-4.317-2.118-6.766.629-12.791 3.92-18.09-7.91-1.929-12.304-9.204-8.192-14.203-1.73-8.66 1.825-16.315 9.694-19.677-3.459-8.561-17.911-11.955-11.415-16.504C38.987 7.18 46.2 17.721 49.795 26.592a29.156 29.156 0 0 1 4.47-.252c1.418.025 2.771.12 4.057.283z"/><g fill="#571b31"><path d="m41.969 61.676.936.311c-1.616 2.592-3.097 5.36-3.923 8.308-.823 2.937-.99 6.054.032 9.356.504 1.63 1.284 2.913 2.287 3.92v1.118c-1.383-1.155-2.45-2.709-3.106-4.781-1.1-3.473-.948-6.759-.1-9.858.814-2.964 2.272-5.756 3.874-8.374zm23.91.336c.162.259.319.519.472.779 2.345 3.998 3.689 8.187 4.188 12.348.52 3.852-.332 6.932-2.873 9.095a9.504 9.504 0 0 1-.488.388l.16-.925.157-.134c2.229-2.007 2.953-4.841 2.508-8.354-.576-4.062-1.994-8.123-4.354-11.998-.211-.347-.43-.692-.657-1.036z"/><path d="M56.339 82.898c-1.013.764-1.66 1.551-2.006 2.321-.77 1.708-.15 3.333 1.188 4.448 1.203 1.003 3.025 1.58 4.9 1.469 3.359-.199 6.972-2.598 7.486-8.836a.273.273 0 0 0-.243-.296.272.272 0 0 0-.296.243c-.65 5.69-3.914 7.852-6.99 7.964-1.623.058-3.176-.456-4.224-1.314-.524-.428-.923-.938-1.118-1.519-.19-.565-.193-1.186.05-1.85.26-.705.765-1.453 1.599-2.214a.27.27 0 0 0-.346-.416z"/><path d="M50.872 82.873c.723.635 1.27 1.245 1.679 1.819.244.342.43.672.577.987.73 1.592.117 2.849-1.114 3.65-.958.624-2.261.989-3.627 1.004-3.5.04-7.344-2.204-6.816-8.087a.272.272 0 0 0-.241-.297.27.27 0 0 0-.297.241c-.78 6.474 3.49 9.022 7.354 9.07 1.566.019 3.073-.383 4.173-1.097.402-.26.752-.563 1.03-.903.81-.985 1.09-2.269.43-3.718a5.793 5.793 0 0 0-.855-1.325c-.483-.575-1.127-1.165-1.955-1.767a.27.27 0 1 0-.338.423zM43.954 27.614l.304.93c-2.12.91-3.918 2.14-5.375 3.622-3.794 3.859-5.261 9.43-4.055 15.517a.475.475 0 0 1-.098.391c-2.688 3.226-1.53 7.471 1.825 10.441 2.648 2.345 6.66 3.914 11.356 3.634a.27.27 0 0 1 .037.54c-6.07.48-11.1-2.054-13.685-5.452-2.27-2.986-2.671-6.63-.4-9.584-1.218-6.344.344-12.154 4.31-16.185 1.561-1.586 3.495-2.896 5.781-3.854zm26.65 3.618c4.03 3.721 5.743 9.223 4.707 16.117 2.142 5.039 1.012 9.086-2.04 11.771-2.732 2.404-7.038 3.71-11.946 3.613a.271.271 0 0 1 .009-.541c4.74.059 8.897-1.205 11.519-3.545 2.852-2.545 3.846-6.371 1.759-11.108l-.025-.196c.978-6.648-.647-11.947-4.542-15.5-1.785-1.628-4.043-2.889-6.734-3.748l.344-.806c2.781.916 5.11 2.244 6.95 3.943zm-16.296-5.404a38.08 38.08 0 0 1 4.035.29l-.25.88a37.389 37.389 0 0 0-3.801-.243 28.774 28.774 0 0 0-4.247.236l-.326-.91a29.68 29.68 0 0 1 4.589-.253z"/><path d="M63.018 31.269c.136-2.043.803-3.791 1.738-5.332.663-1.093 1.464-2.08 2.318-2.989 1.14-1.214 2.378-2.285 3.512-3.274 1.46-1.274 2.752-2.421 3.5-3.525.602-.888.863-1.764.67-2.654-.153-.717-.61-1.461-1.492-2.232-2.517-2.191-5.142-1.663-7.547.466-3.641 3.223-6.767 10.24-8.091 16.193a.27.27 0 1 0 .527.122c1.157-4.829 3.532-10.364 6.376-13.872 2.519-3.108 5.399-4.638 8.116-2.207.68.606 1.058 1.169 1.172 1.727.133.645-.106 1.263-.545 1.903-.716 1.044-1.962 2.112-3.342 3.331-1.152 1.017-2.398 2.133-3.535 3.398-.875.973-1.686 2.034-2.338 3.207-.927 1.665-1.535 3.551-1.58 5.715a.272.272 0 0 0 .259.282.272.272 0 0 0 .282-.259zM51.057 28.878a49.758 49.758 0 0 0-3.284-7.955 39.692 39.692 0 0 0-2.684-4.438 26.901 26.901 0 0 0-2.172-2.721c-3.314-3.605-7.085-5.287-10.565-2.829-1.314.932-1.83 1.845-1.832 2.727-.002.683.306 1.372.87 2.069 1.233 1.525 3.735 3.146 6.244 5.11 3.057 2.392 6.133 5.307 6.746 9.277a.27.27 0 1 0 .535-.078c-.573-4.135-3.69-7.236-6.828-9.769-2.423-1.955-4.855-3.559-6.04-5.065-.412-.525-.667-1.028-.66-1.537.01-.666.48-1.3 1.484-1.993 3.108-2.157 6.37-.44 9.31 2.765.725.789 1.43 1.67 2.11 2.612A44.281 44.281 0 0 1 47 21.342c1.445 2.584 2.68 5.285 3.545 7.708a.27.27 0 1 0 .513-.172zM50.412 55.856s.315.407.992.85c.309.203.698.404 1.16.57.303.108.639.195 1.004.255a7.33 7.33 0 0 0 1.542.078 8.783 8.783 0 0 0 2.474-.492c1.446-.523 2.196-1.253 2.196-1.253a.271.271 0 0 0-.36-.405s-.731.58-2.063.945a8.092 8.092 0 0 1-2.267.279 7.64 7.64 0 0 1-1.353-.133 9.283 9.283 0 0 1-.877-.202 8.905 8.905 0 0 1-1.068-.368c-.642-.273-1.004-.513-1.004-.513a.27.27 0 1 0-.376.389zM43.436 68.895a.27.27 0 0 1 .359-.131c.709.293 1.604.827 2.58 1.444.527.332 1.075.687 1.632 1.038.68.428 1.376.844 2.055 1.198.736.384 1.452.694 2.117.838.622.135 1.194.133 1.674-.139a1.74 1.74 0 0 0 .268-.187c.273.134.576.28.907.437-.21.248-.444.44-.693.587-.674.396-1.481.463-2.364.276-.747-.158-1.556-.497-2.373-.944a23.56 23.56 0 0 1-2.087-1.317 71.335 71.335 0 0 1-1.58-1.136c-.898-.662-1.705-1.264-2.364-1.605a.27.27 0 0 1-.131-.359zm2.378-5.34.062.008s4.723 1.158 7.672 3.358a8.75 8.75 0 0 1 1.009.872l-.519.641a8.125 8.125 0 0 0-.97-.889c-2.794-2.205-7.328-3.458-7.328-3.458a.27.27 0 1 1 .136-.524z"/><path d="M64.26 68.962c-.661.272-1.493.784-2.4 1.374-.487.316-.993.655-1.507.986-.631.406-1.273.799-1.901 1.125-.68.353-1.341.627-1.956.727-.551.089-1.06.041-1.492-.262-.374-.263-.686-.699-.935-1.34-.636-1.623.182-2.959 1.445-4.032 2.51-2.131 6.785-3.249 6.785-3.249a.27.27 0 1 0-.128-.525s-4.481 1.027-7.157 3.167c-1.597 1.277-2.542 2.942-1.812 4.965.315.864.746 1.438 1.24 1.799.635.464 1.389.589 2.21.46.713-.111 1.484-.417 2.262-.842.65-.355 1.306-.792 1.944-1.249.502-.36.99-.731 1.456-1.087.826-.631 1.566-1.209 2.175-1.527a.27.27 0 1 0-.229-.49z"/></g><g transform="translate(7 18)"><circle cx="61" cy="36" r="5" fill="#fe89a8" opacity=".8"/><circle cx="34" cy="36" r="5" fill="#fe89a8" opacity=".8"/><g transform="translate(32 28)"><circle cx="4" cy="4" r="4" fill="#571b31"/><g fill="#fff"><circle cx="3.2" cy="2.4" r="1.6"/><circle cx="6.4" cy="4" r="1"/><circle cx="3.6" cy="6" r="1.2"/></g></g><g transform="translate(55 28)"><circle cx="4" cy="4" r="4" fill="#571b31"/><g fill="#fff"><circle cx="3.2" cy="2.4" r="1.6"/><circle cx="6.4" cy="4" r="1"/><circle cx="3.6" cy="6" r="1.2"/></g></g><g fill="#fde478"><path d="M5.592 30.462 0 28.032l5.592-2.43L8.022 16l2.43 9.603 5.591 2.43-5.592 2.429-2.43 9.603zM20.068 54.52 16 52.753l4.068-1.768L21.835 44l1.767 6.985 4.068 1.768-4.068 1.767-1.767 6.985zM8.546 73.172 5 71.631l3.546-1.54L10.087 64l1.541 6.09 3.547 1.541-3.547 1.541-1.54 6.09zM74.546 41.172 71 39.631l3.546-1.54L76.087 32l1.541 6.09 3.547 1.541-3.547 1.541-1.54 6.09zM21.314 7.97 18 6.631l3.314-1.339L22.754 0l1.44 5.292 3.314 1.339-3.314 1.339-1.44 5.292zM81.546 13.172 78 11.631l3.546-1.54L83.087 4l1.541 6.09 3.547 1.541-3.547 1.541-1.54 6.09zM78.068 68.52 74 66.753l4.068-1.768L79.835 58l1.767 6.985 4.068 1.768-4.068 1.767-1.767 6.985z"/></g></g></g></svg>