<svg data-id="64-a1e0f9001d75ce6-smile" xmlns="http://www.w3.org/2000/svg" viewBox="0 0 100 100"><g fill="none" fill-rule="evenodd"><path fill="#fff5f8" d="M47.887 30.49c-1.082-7.728 3.104-24.777 9.974-20.999 6.908 3.798-6.164 9.372-5.055 20.855.968.044 1.963.13 2.987.255.329.04.663.09 1.002.152 3.242-9.816 13.948-20.167 16.99-12.787 2.911 7.066-8.438 7.42-11.898 14.412 6.211 2.865 12.22 9.088 12.252 19.435.025 7.746-4.661 12.257-9.452 14.24 1.09 2.251 1.782 4.654 2.137 7.39.255 1.97.231 3.716-.062 5.263a4 4 0 1 1-3.91 6.356c-.955.735-2.072 1.372-3.348 1.922-4.163 6.403-15.473 5.33-14.45 1.642-1.011.433-2.152.778-3.444 1-4.105.709-8.098-2.981-3.754-6.405-.896-1.252-1.61-2.697-2.115-4.325-1.056-3.412-.898-6.351-.066-9.043-3.27-1.475-6.401-3.58-5.55-6.026a2.89 2.89 0 0 1 .281-.592c-.425-.458-.66-.919-.64-1.335.06-1.215.929-1.968 2.487-2.218-2.29-2.953-2.635-6.838.054-11.174-.119-10.39 5.507-16.78 15.343-17.99z"/><g fill="#571b31"><path d="m32.138 59.309.421.71c-1.466.195-2.32.803-2.357 1.899-.007.195.079.397.215.607.057.087.123.175.198.262l-.581.706c-.485-.559-.731-1.125-.701-1.617.08-1.295.909-2.167 2.45-2.502.114-.025.232-.046.355-.065zM37.792 82.759l.383.666a7.654 7.654 0 0 0-.585.534c-.782.795-1.129 1.566-1.127 2.277.002.827.495 1.539 1.23 2.057.986.697 2.413 1.045 3.859.797a14.757 14.757 0 0 0 3.644-1.074v1.014c-1.024.44-2.176.793-3.477 1.027-1.724.299-3.433-.116-4.601-.958-.999-.72-1.612-1.743-1.58-2.874.024-.9.45-1.894 1.488-2.849.225-.207.48-.414.766-.617zM66.563 78.24a4.414 4.414 0 0 1 3.811 4.422 4.333 4.333 0 0 1-1.317 3.056A4.282 4.282 0 0 1 66 86.932a4.278 4.278 0 0 1-3.732-1.87c.26-.195.495-.371.702-.528.139.24.305.463.493.664A3.684 3.684 0 0 0 66 86.391a3.693 3.693 0 0 0 2.599-1.13 3.643 3.643 0 0 0 1.027-2.599 3.593 3.593 0 0 0-1.096-2.53 3.549 3.549 0 0 0-2.229-.998l.246-.84z"/><path d="m35.32 69.3.753.319-.046.139c-.787 2.587-.93 5.413.072 8.689 1.382 4.522 4.428 7.609 8.49 9.025.223.078.448.15.677.218l-.116.635c-.261-.074-.518-.154-.772-.24-4.28-1.455-7.506-4.676-8.994-9.416-1.08-3.441-.946-6.417-.136-9.145zm29.81-3.793c1.102 2.297 1.794 4.751 2.142 7.54.48 3.956-.124 7.031-1.75 9.405-1.312 1.916-3.293 3.378-5.918 4.472l.366-.82c2.166-1.052 3.815-2.384 4.925-4.072 1.485-2.26 1.99-5.159 1.48-8.869-.36-2.69-1.056-5.048-2.138-7.258z"/><path d="M49.776 84.417c-1.373.581-2.435 1.151-3.227 1.711-.915.648-1.477 1.29-1.771 1.872-.576 1.138-.23 2.128.71 2.856.453.35 1.062.635 1.782.834 1.206.334 2.734.433 4.335.228 4.272-.548 9.071-3.227 9.61-9.151a.271.271 0 0 0-.538-.056c-.652 5.506-5.186 7.872-9.179 8.293-1.234.13-2.416.073-3.415-.134-.818-.171-1.509-.44-1.989-.806-.303-.231-.519-.494-.59-.804-.1-.431.069-.917.515-1.473.328-.408.795-.841 1.42-1.302a19.661 19.661 0 0 1 2.567-1.579.27.27 0 1 0-.23-.489zM41.349 65.587s-1.66-1.383-3.738-2.565a16.84 16.84 0 0 0-2.492-1.175 8.705 8.705 0 0 0-1.832-.471c-1.665-.215-3.036.274-3.611 1.956-.551 1.64.393 3.172 2.1 4.445 3.53 2.631 10.233 4.25 10.233 4.25a.27.27 0 1 0 .134-.524s-5.084-1.381-8.597-3.538c-1.144-.703-2.12-1.483-2.666-2.335-.402-.626-.554-1.29-.304-1.985.334-.935 1.035-1.291 1.897-1.316.569-.017 1.2.101 1.856.291 1.145.332 2.356.895 3.431 1.461 1.827.963 3.262 1.937 3.262 1.937a.27.27 0 1 0 .327-.431zM52.993 29.594c-.124-1.942.225-3.705.809-5.323.639-1.771 1.572-3.364 2.533-4.814.724-1.09 1.461-2.101 2.103-3.04.85-1.241 1.529-2.368 1.825-3.386.22-.759.235-1.467-.012-2.129-.29-.777-.953-1.508-2.161-2.164-2.85-1.544-5.309.076-7.127 3.274-2.858 5.026-4.155 13.944-3.263 18.684a.27.27 0 0 0 .533-.096c-.678-3.948.243-10.821 2.293-15.781.76-1.84 1.673-3.415 2.728-4.461 1.264-1.253 2.737-1.706 4.38-.79.936.522 1.48 1.064 1.7 1.672.172.472.137.974-.022 1.512-.276.935-.923 1.959-1.697 3.105-.64.948-1.371 1.972-2.077 3.083-.969 1.526-1.897 3.21-2.493 5.073-.55 1.723-.816 3.595-.591 5.627a.271.271 0 0 0 .54-.046z"/><path d="M68.98 36.682c3.167 3.357 5.459 8.05 5.687 14.269.174 5.399-1.915 9.34-4.804 11.99-3.83 3.511-9.057 4.739-12.178 4.16a.27.27 0 0 1 .093-.533c2.99.492 7.937-.804 11.539-4.213 2.687-2.543 4.622-6.275 4.399-11.368-.235-5.941-2.436-10.414-5.46-13.622-1.902-2.02-4.13-3.54-6.402-4.604l.392-.885c2.39 1.104 4.737 2.688 6.735 4.806zM44.345 65.198c.149.014.259.145.246.294s-.145.259-.294.245a23.64 23.64 0 0 1-4.93-.934l-.793-.882c1.732.648 3.682 1.083 5.771 1.277zm10.813-35.253a19.17 19.17 0 0 1 1.967.274l-.345.893a18.075 18.075 0 0 0-1.704-.237c-6.874-.621-12.388.563-16.237 3.339-4.3 3.102-6.497 8.188-6.208 14.895l-.048.196c-2.59 4.485-1.977 8.388.638 11.208a11.852 11.852 0 0 0 2.315 1.91l-1.551-.352c-.445-.354-.855-.73-1.227-1.126-2.805-2.982-3.531-7.122-.852-11.906-.321-6.962 1.986-12.244 6.442-15.5 3.974-2.903 9.678-4.197 16.81-3.594z"/><path d="M61.307 36.662c.039-2.234.71-3.961 1.722-5.374 1.131-1.581 2.694-2.761 4.302-3.795 1.145-.737 2.312-1.4 3.368-2.07 1.29-.819 2.414-1.656 3.161-2.625 1.043-1.353 1.4-2.964.486-5.157-.524-1.254-1.257-2.037-2.116-2.439-.937-.44-2.038-.435-3.224-.041-1.578.524-3.325 1.744-5.015 3.419-3.94 3.906-7.6 10.281-8.189 15.692a.272.272 0 0 0 .238.301.272.272 0 0 0 .3-.238c.653-5.267 4.32-11.423 8.215-15.177 1.604-1.546 3.242-2.684 4.724-3.156.944-.301 1.817-.326 2.556.031.677.326 1.227.972 1.633 1.97.727 1.787.46 3.093-.392 4.187-.69.887-1.734 1.636-2.913 2.394-1.055.678-2.218 1.356-3.353 2.116-1.678 1.125-3.299 2.424-4.437 4.136-1.03 1.55-1.669 3.435-1.607 5.828 0 .149.122.27.271.27a.271.271 0 0 0 .27-.272zM36.178 54.694s.11.501.477 1.146c.181.319.432.663.754.992.224.229.49.445.788.636.402.256.87.463 1.4.6a5.19 5.19 0 0 0 2.487.001c1.329-.326 2.2-1.05 2.2-1.05a.271.271 0 0 0-.327-.432s-.827.559-2.02.748a4.412 4.412 0 0 1-3.198-.703 5.941 5.941 0 0 1-.66-.507 7.167 7.167 0 0 1-.75-.757c-.418-.492-.646-.866-.646-.866a.27.27 0 1 0-.505.192z"/></g><g transform="translate(31 40)"><ellipse cx="3.643" cy="12.65" fill="#ff80af" rx="2.5" ry="1.5" transform="scale(-1 1) rotate(-33 -.001 24.932)"/><ellipse cx="21.001" cy="16.891" fill="#ff80af" rx="4" ry="2" transform="scale(-1 1) rotate(-22.02 -.028 124.797)"/><g fill="#ff608b"><path d="M6.343 9.995c1.291.045 5.78-5.514 4.516-7.92-1.265-2.407-3.66.422-4.253.402-.592-.021-2.764-3.01-4.214-.7C.94 4.09 5.05 9.95 6.342 9.996zM15.657 13.714c1.28 1.153 9.783.265 10.202-2.888s-4.02-2.796-4.608-3.325-.677-4.963-3.789-4.235-3.086 9.295-1.805 10.448z"/></g></g></g></svg>