<svg data-id="65-288e9d62abd4a6c-happy" xmlns="http://www.w3.org/2000/svg" viewBox="0 0 100 100"><g fill="none" fill-rule="evenodd"><g transform="translate(2.414 7.414)"><path fill="#fff5f8" d="m44.132 19.29-.004.103c9.31 1.463 14.62 7.825 14.52 17.99 4.533 7.375.438 13.44-7.068 15.872.329.472.658.942.984 1.412 4.909-1.43 9.052-6.001 11.04-3.105l.004.006 18.978-.322v2l-18.352-.249c.663 3.323-4.185 6.187-8.446 6.876 1.759 3.488 2.617 7.287 1.147 11.98-.705 2.251-1.816 4.152-3.257 5.676 8.773 4.647-2.902 10.266-9.12 4.306-1.898.205-3.937.121-6.074-.266-2.113 7.07-7.424 3.81-7.684-.752-.04-.69-.037-1.346.002-1.972-1.6-.959-2.855-2.12-3.752-3.52a4 4 0 1 1-1.653-7.133c.025-.573.078-1.167.159-1.784.522-3.987 1.77-7.267 3.932-10.399-5.792-.942-13.157-5.212-13.141-14.701.015-9.337 5.151-15.626 10.814-19.025-3.3-7.367-14.014-15.05-8.643-17.735 5.69-2.843 12.789 5.588 15.417 15.03.455-.095.902-.168 1.336-.222a39.17 39.17 0 0 1 2.66-.236C36.605 9.868 26.39 5.177 32.758 1.287 39.3-2.71 44.43 11.392 44.132 19.29z"/><circle cx="79.586" cy="70.586" r="15" fill="#feefb0"/><path fill="#fde478" d="m80.023 58.236 3.305 6.972 8.012 1.272-5.659 5.728 1.752 8.553-7.392-3.891-7.303 3.891 1.089-8.167-6.035-5.408 8.271-1.628 3.96-7.322z"/></g><g fill="#571b31"><path d="M34.949 8.31c3.41-2.05 6.508.32 8.67 4.41 2.058 3.887 3.29 9.299 3.25 13.358 2.975.505 5.54 1.51 7.651 2.972 4.508 3.13 6.97 8.34 6.903 15.31 2.823 4.69 2.267 8.86-.382 11.94-1.522 1.772-3.75 3.19-6.44 4.13.21.303.42.605.628.908 1.154-.388 2.26-.946 3.302-1.518 1.714-.95 3.26-1.93 4.557-2.34 1.292-.408 2.363-.294 3.177.73L85 58.37c.16 0 .29.13.29.29l-.02 2a.27.27 0 0 1-.27.27s-2.129.07-5 .13c-1.527.04-3.263.06-5 .08-1.367.01-2.735.02-4 .02-1.471 0-2.804-.004-3.838-.008-.177 1.476-1.264 2.834-2.829 3.918-.59.41-1.247.78-1.944 1.09-1 .46-2.08.81-3.15 1.03-.14.03-.279.057-.417.082.402.85.748 1.721 1.019 2.618.82 2.73.958 5.71-.134 9.15-.67 2.116-1.691 3.928-3 5.415.529.286.976.578 1.35.875 1.146.9 1.634 1.84 1.682 2.69.06 1.07-.568 2.05-1.67 2.76-1.274.83-3.203 1.29-5.256 1.12-2.058-.17-4.248-.969-6.005-2.66-1.777.165-3.674.084-5.654-.257-.233.811-.512 1.487-.824 2.037-.7 1.24-1.579 1.89-2.455 2.11-1.102.29-2.244-.09-3.175-.91-1.086-.96-1.877-2.54-1.976-4.3a17.203 17.203 0 0 1 .009-1.912c-1.279-.79-2.334-1.716-3.16-2.795A4.22 4.22 0 0 1 27 83.93a4.3 4.3 0 0 1-3.057-1.21 4.36 4.36 0 0 1-.07-6.18 4.383 4.383 0 0 1 3.502-1.328c.021-.574.07-1.172.147-1.792.432-3.42 1.388-6.33 2.99-9.07.21-.36.432-.717.665-1.072-2.42-.464-5.047-1.486-7.291-3.198-3.174-2.42-5.578-6.21-5.601-11.7.002-6.26 2.26-11.2 5.457-14.82a23.498 23.498 0 0 1 5.306-4.45 15.678 15.678 0 0 0-.247-.47c-.767-1.4-1.772-2.8-2.84-4.18-1.064-1.37-2.192-2.7-3.218-3.98-1.24-1.53-2.331-2.98-3.01-4.25-.676-1.27-.935-2.4-.64-3.31.216-.68.721-1.27 1.63-1.71 3.23-1.59 6.906.16 9.996 3.75 2.47 2.878 4.579 6.916 5.796 11.183.378-.071.75-.13 1.113-.173.765-.092 1.514-.16 2.247-.206a15.099 15.099 0 0 0-.654-2.094c-.682-1.76-1.63-3.31-2.59-4.72-.898-1.32-1.806-2.52-2.522-3.61-.651-.99-1.143-1.91-1.356-2.77-.39-1.57.063-2.97 2.196-4.26zM33.67 86.545c-.005.432.005.87.034 1.325.086 1.47.75 2.8 1.654 3.61.676.61 1.486.94 2.298.75.699-.15 1.376-.67 1.978-1.62.301-.48.583-1.061.835-1.755a27.925 27.925 0 0 1-3.131-.825c-1.358-.42-2.582-.912-3.668-1.485zM30.12 15.48c-2.828-3.2-6.088-4.91-8.979-3.44-.622.32-.993.7-1.137 1.16-.223.72.064 1.58.596 2.56.662 1.23 1.73 2.61 2.92 4.1 1.023 1.29 2.137 2.65 3.175 4.05 1.067 1.43 2.054 2.91 2.788 4.38.862 1.72 1.374 3.44 1.287 5.07a.28.28 0 0 1-.28.27.275.275 0 0 1-.261-.28c.01-1.1-.28-2.221-.763-3.352a22.76 22.76 0 0 0-4.978 4.222c-3.055 3.47-5.233 8.17-5.251 14.16-.039 5.17 2.19 8.75 5.139 11.07 3.894 3.07 9.038 3.97 11.973 3.38a.27.27 0 0 1 .32.21.267.267 0 0 1-.208.32c-1.138.254-2.604.299-4.207.092-.318.462-.614.927-.891 1.398-1.55 2.62-2.5 5.41-2.945 8.69-.516 3.72 0 6.62 1.512 8.88 1.535 2.29 4.08 3.93 7.573 5.09 3.107.985 6.066 1.357 8.757 1.157-.981-1.118-1.79-2.558-2.309-4.377a.263.263 0 0 1 .181-.33c.144-.04.295.04.337.18 1.52 4.82 5.146 6.7 8.405 6.89 1.829.11 3.536-.32 4.66-1.07.759-.5 1.245-1.14 1.21-1.88-.031-.65-.438-1.32-1.275-2.03-.574-.49-1.337-.98-2.322-1.48-.741-.37-1.598-.75-2.595-1.12-.143-.05-.22-.2-.175-.34s.199-.22.34-.17c1.303.36 2.393.75 3.293 1.16l.047.022c1.292-1.449 2.292-3.224 2.935-5.302 1.013-3.28.867-6.1.07-8.69-1.047-3.388-3.2-6.372-5.338-9.415a23.477 23.477 0 0 1-4.01.825.272.272 0 0 1-.302-.23.278.278 0 0 1 .235-.31c4.702-.6 8.642-2.43 10.913-5.11 2.47-2.92 2.921-6.84.196-11.24l-.053-.19c.044-6.72-2.303-11.74-6.655-14.72-3.927-2.69-9.468-3.7-16.306-2.85-.321.04-.65.092-.983.156.246.97.444 1.949.59 2.924a.28.28 0 0 1-.226.31.274.274 0 0 1-.309-.23c-.9-5.46-3.513-10.97-6.694-14.57zM27 76.12a3.596 3.596 0 0 0-3.626 3.54 3.637 3.637 0 0 0 1.027 2.6A3.71 3.71 0 0 0 27 83.39a3.62 3.62 0 0 0 2.125-.81c-1.137-1.755-1.733-3.876-1.764-6.435A2.854 2.854 0 0 0 27 76.12zm14.18-11.67a.27.27 0 0 1 .413.35s-3.5 4.26-4.633 8.18c-.602 2.08-.548 4.07 1.35 5.13 1.795 1.01 3.03.2 3.918-1.19.658-1.03 1.142-2.35 1.501-3.59.594-2.06.85-3.91.85-3.91a.275.275 0 0 1 .293-.25.28.28 0 0 1 .246.3s-.079 1.92-.572 4.07c-.31 1.35-.79 2.79-1.481 3.91-1.152 1.85-2.854 2.85-5.225 1.48-2.262-1.32-2.44-3.69-1.651-6.19 1.267-4 4.99-8.29 4.99-8.29zm24.465-5.55c-.561-.84-1.354-.9-2.31-.61-1.264.37-2.779 1.3-4.461 2.17-1.036.536-2.133 1.052-3.272 1.422 1.03 1.508 2.017 3.024 2.83 4.597l.208-.043.4-.096c.998-.26 2.003-.62 2.936-1.06.638-.31 1.242-.66 1.788-1.03 2.04-1.41 3.262-3.31 1.88-5.35zm19.068.05-17.899.158c.168.356.276.71.332 1.06A561.87 561.87 0 0 1 75 60.18c1.737.02 3.473.05 5 .08 2.263.05 4.065.1 4.727.12zM39.788 9.26c-1.32-.92-2.792-1.11-4.348-.15-1.614 1-2.034 2.03-1.729 3.22.196.76.655 1.57 1.234 2.46.711 1.1 1.608 2.29 2.48 3.63.968 1.48 1.91 3.13 2.55 4.97.258.748.466 1.526.608 2.336 2.038-.09 3.945 0 5.713.26-.042-3.942-1.33-9.149-3.383-12.886-.905-1.65-1.956-3.02-3.125-3.84zM82.532 65.2c.162.01.306.11.38.25.923 1.83 1.748 3.57 2.472 5.24a67.984 67.984 0 0 1 2.098 5.41c.586 1.75 1.12 3.75 1.602 6.01.397 1.87.758 3.9 1.085 6.11.018.13-.033.25-.133.32s-.231.08-.34.02l-1-.534.726-.336a94.542 94.542 0 0 0-1.049-5.42c-.502-2.22-1.052-4.19-1.65-5.91a66.813 66.813 0 0 0-2.132-5.32 99.028 99.028 0 0 0-2.147-4.47 36.52 36.52 0 0 0-2.506 4.38 36.896 36.896 0 0 0-2.11 5.42 54.048 54.048 0 0 0-1.44 5.91c-.322 1.72-.592 3.936-.768 5.746-.055.403-.21.604-.467.604-.385 0-.425-.24-.414-.39.137-2.1.368-4.14.713-6.13.358-2.07.837-4.08 1.418-6.03a36.776 36.776 0 0 1 2.193-5.55 37.165 37.165 0 0 1 3.058-5.13.453.453 0 0 1 .411-.2z"/><path d="M89.782 87.914c.44.42.102.737-.044.667-1.836-.9-3.802-1.851-5.385-2.751a67.782 67.782 0 0 1-4.93-3.05c-1.52-1.05-3.154-2.33-4.9-3.84a99.128 99.128 0 0 1-4.543-4.23c-.088-.09-.2-.189-.113-.372.058-.122.402-.005 1.031.352a94.014 94.014 0 0 0 4.099 3.69c1.74 1.48 3.365 2.72 4.876 3.73 1.472.99 3.106 1.98 4.903 2.97 1.374.76 4.143 2.312 5.006 2.834z"/><path d="M88.008 72.35c1.969.21 3.924.59 5.866 1.12.157.04.28.16.325.32s.004.32-.106.44c-1.4 1.49-2.758 2.87-4.077 4.12a68.328 68.328 0 0 1-4.366 3.82c-1.443 1.15-3.144 2.33-5.105 3.56-1.614 1.01-3.193 1.8-5.16 2.86a.322.322 0 0 1-.34-.02c-.068-.046.129-.333.589-.86 1.72-.97 3.086-1.67 4.522-2.59 1.918-1.24 3.582-2.43 4.99-3.58a66.778 66.778 0 0 0 4.27-3.82 90.6 90.6 0 0 0 3.47-3.55 37.083 37.083 0 0 0-10.796-.98c-1.993.1-4.004.33-6.038.67-1.728.28-3.472.64-5.232 1.1-.562-.304-.865-.523-.908-.657 2.021-.59 3.99-1.023 5.978-1.383 2.067-.37 4.116-.61 6.145-.73a38.38 38.38 0 0 1 5.973.16zM55.572 45.45s.144-.34.37-.76c.113-.22.255-.44.426-.65.178-.21.386-.41.696-.46.419-.09.78.08 1.07.32.547.44.882 1.07.882 1.07.059.14.218.2.355.14.137-.06.2-.22.142-.36 0 0-.38-1.03-1.134-1.64-.39-.32-.878-.5-1.444-.45-.577.06-1.035.35-1.346.76-.222.29-.372.64-.455.96-.037.14-.062.27-.075.4-.04.36-.024.6-.024.6-.02.15.086.29.234.31s.284-.09.303-.24zM40.142 50.67s.141-.3.387-.69c.12-.19.274-.39.457-.59.12-.13.256-.26.412-.37.205-.14.441-.26.734-.32.534-.1.99.04 1.355.26.697.41 1.1 1.08 1.1 1.08.067.14.23.19.363.12s.187-.23.119-.36c0 0-.491-1.1-1.49-1.68a2.597 2.597 0 0 0-1.576-.33c-.459.05-.849.2-1.17.42-.235.15-.437.35-.595.56-.21.28-.363.58-.454.86-.171.53-.173.93-.173.93a.271.271 0 0 0 .531.11zM54.472 58.1c.596-.02 1.128-.38 1.517-.94.424-.62.667-1.51.624-2.48-.046-.99-.389-1.86-.875-2.45-.474-.57-1.093-.88-1.735-.84-.65.03-1.238.41-1.651 1.04-.427.65-.66 1.58-.588 2.58.11 1 .483 1.86 1.018 2.41.49.51 1.088.77 1.69.68z"/></g><path fill="#e94b35" d="M54.435 57.56c-.417 0-.774-.26-1.065-.64a3.124 3.124 0 0 1-.388-.73 3.88 3.88 0 0 1-.247-1.24c-.042-.64.07-1.23.286-1.7.235-.51.586-.9 1.046-.94.47-.04.904.27 1.229.75.299.44.51 1.02.57 1.67.063.66-.03 1.28-.243 1.77-.255.59-.667 1.01-1.188 1.06z"/><path fill="#571b31" d="M82.23 60.66s-.21 1.57-.19 2.07c.07 1.73-.126 3.242-.126 3.242a.27.27 0 0 0 .541 0s.435-1.512.505-3.242c.02-.5-.19-2.07-.19-2.07 0-.15-.12-.27-.27-.27s-.27.12-.27.27z"/><g fill="#ff80af" transform="translate(37 45)"><ellipse cx="22.016" cy="2.503" rx="2.5" ry="1.5" transform="rotate(-19.01 21.986 2.504)"/><ellipse cx="4.278" cy="7.744" rx="4" ry="2" transform="rotate(-8 4.286 7.753)"/></g></g></svg>