<svg data-id="69-37d4d073f270333-cat" xmlns="http://www.w3.org/2000/svg" viewBox="0 0 100 100"><g fill="none" fill-rule="evenodd"><path fill="#a9c0dd" d="M55.111 84.52c9.269-3.268 25.14-12.846 34.561 1.693-8.151 12.42-26.313 8.055-34.56.371z"/><path fill="#fff" d="M82 79.525c2.552 1.056 4.973 2.78 7.699 6.544-2.418 4.183-5.908 5.722-8.842 6.972-1.222.52-3.288.585-7.775-4.33 4.676 1.102 6.804-2.644 6.804-2.644s-5.682.326-7.727-2.47c2.046-.374 8.22.422 9.84-4.072z"/><path fill="#a9c0dd" d="M40.573 62s-5.422 10.161-5.728 16.426c-.306 6.264 2.768 11.697 9.412 11.697h5.984c6.631 0 10.412-4.489 10.412-11.697 0-7.21-4.228-11.602-7.947-14.908L50.999 62z"/><path fill="#fff" d="M42.324 89.133c2.422.362 4.5.581 4.5-3.86s-2.015-10.453-4.5-10.453-4.5 5.4-4.5 9.453 2.307 4.533 4.5 4.86z"/><path fill="#a9c0dd" d="M69.215 12.603c14.206 4.051 16.799 25.925 16.695 32.475.407 2.356.375 4.793-.06 7.257C83.605 65.042 71.284 73.991 47.11 69.72c-24.173-4.27-31.547-17.349-29.58-28.685a20.297 20.297 0 0 1 4.614-9.763c-1.164-3.828-3.423-13.023-.808-19.936C33.94 11 43.037 18.85 46.531 22.447c2.761.078 5.733.383 8.92.946 2.484.439 4.802.959 6.959 1.552-.063-3.226.52-10.496 6.805-12.342z"/><path fill="#ffe5cd" d="M22.228 12.66c7.544 1.436 14.548 6.858 18.467 10.411-7.613.772-13.703 3.431-17.69 7.41-1.367-3.602-3.568-11.248-.777-17.82zm47.152 1.545c8.06 7.587 9.827 17.275 10.162 22.402-3.538-4.309-8.78-8.264-15.998-10.79-.21-3.78.446-9.506 5.836-11.612z"/><path fill="#fff" d="M42.279 68.107c14.084 3.621 23.3 3.222 24.413-3.077s-9.893-14.571-24.398-17.134c-14.506-2.562-20.654 2.096-21.427 6.47s8.612 10.45 21.412 13.74z"/><g fill="#414e62"><path d="m37.92 67.385.72.181a67.877 67.877 0 0 0-1.615 4.552c-.725 2.324-1.304 4.699-1.356 6.673-.105 2.918.562 5.63 2.01 7.632 1.435 1.985 3.663 3.247 6.73 3.246l5.984.043c3.198.03 5.7-1.05 7.374-3.047 1.59-1.9 2.44-4.6 2.477-7.907.038-3.183-.78-5.81-2.017-8.035l1.082.065c1.215 2.222 2.018 4.833 2.057 7.97.013 1.199-.077 2.327-.265 3.376a81.006 81.006 0 0 1 4.746-1.963c1.826-.678 3.71-1.264 5.609-1.66 1.972-.411 3.96-.614 5.913-.505 2.135.12 4.229.616 6.21 1.616 2.519 1.27 4.859 3.363 6.892 6.554.156.24.155.55-.002.79-3.381 5.02-8.327 7.306-13.617 7.696-6.804.503-14.163-2.137-19.289-5.897-1.807 1.547-4.22 2.407-7.17 2.434l-5.921.043h-.063c-3.657 0-6.327-1.52-8.006-3.909-1.594-2.268-2.281-5.338-2.078-8.608.148-2.069.826-4.547 1.723-6.942a59.378 59.378 0 0 1 1.872-4.398zM71.719 79.9c-1.852.318-3.7.803-5.502 1.36-1.838.57-3.626 1.212-5.32 1.833-.427 1.721-1.14 3.204-2.11 4.41a9.481 9.481 0 0 1-.861.938c4.114 2.809 9.592 4.87 15.01 5.216 6.147.391 12.232-1.44 16.057-7.082-1.841-2.673-3.917-4.433-6.125-5.53-1.793-.892-3.674-1.34-5.6-1.477-1.826-.13-3.688.013-5.55.332z"/><path d="M86.368 44.827v.73c.511 2.169.617 4.388.266 6.608-2.47 15.652-19.226 21.268-38.326 18.252s-33.661-13.15-31.124-29.218c.607-3.845 2.042-7.066 4.134-9.7-2.795-8.608-1.645-18.315-.188-20.574 4.665-1.181 18.143 1.95 26.092 11.267 2.778.07 5.652.34 8.574.8 1.833.29 3.617.672 5.342 1.137.89-7.518 5.262-11.845 7.864-12.237 5.576.521 17.251 8.201 17.366 32.935zM69.003 13.074c-2.333 1.135-5.787 2.991-6.408 12.613a48.413 48.413 0 0 0-7.455-1.785c-18.284-2.887-34.537 2.055-36.968 17.453S29.68 66.463 47.964 69.35c18.284 2.887 34.326-2.497 36.694-17.497.422-2.669.156-5.336-.7-7.91-.073-11.657-4.476-28.458-14.955-30.869zm-47.557-1.128c-1.483 4.917-.598 12.474 1.3 17.948 4.905-4.942 12.485-7.393 21.234-7.689-7.2-9.06-17.868-11.291-22.534-10.26z"/><path d="M54.422 23.47c.471.067.935.137 1.393.212l-.092.262-.109.303c-1.699 4.67-4.166 8.06-5.51 7.57-1.29-.47-1.079-4.331.437-8.764a58.61 58.61 0 0 1 3.881.418zm-4.776-.476c-1.334 3.245-2.907 5.503-3.705 5.213-.71-.258-.594-2.453.187-5.287a47.654 47.654 0 0 1 3.459.07zm6.904.813c1.155.204 2.265.435 3.332.693-1.33 3.21-2.886 5.436-3.679 5.148-.743-.27-.58-2.668.304-5.698zM37.307 72.293s.577.46 1.547.972c.333.176.703.341 1.112.494.462.173.96.32 1.475.42.517.099 1.049.14 1.563.134.861-.01 1.677-.15 2.359-.464.665-.306-.573-1.085-1.435-1.042-.593.03-1.224-.057-1.86-.145-.431-.06-.863-.123-1.282-.185l-1.65-.244c-1.022-.15-1.7-.235-1.7-.235a.16.16 0 0 0-.212.083.16.16 0 0 0 .083.212z"/><path d="M42.937 69.108c0 2.563 2.124 3.704 3.305 4.186 2.928 1.194 6.519.023 6.519.023.083-.033.177.008.21.09s-.008.177-.09.21c0 0-1.476.702-3.391.98-1.137.163-2.416.169-3.637-.188-1.55-.454-3.03-1.478-3.93-3.479-.277-.617-.511-1.474-.651-2.292zM63.792 62.285s.059.092.228.28c.142.159.309.34.568.58a5.11 5.11 0 0 0 .894.659c.172.098.357.187.548.27.278.12.569.222.862.325.47.166.93.312 1.368.45 1.178.37 2.078.622 2.078.622a.16.16 0 0 0 .141-.29s-.754-.552-1.771-1.251c-.38-.26-.778-.532-1.2-.8-.261-.166-.52-.332-.786-.477a4.731 4.731 0 0 0-1.073-.44 5.106 5.106 0 0 0-.55-.12 7.684 7.684 0 0 0-.805-.09c-.253-.017-.361-.007-.361-.007a.161.161 0 1 0-.141.29zM63.226 65.208s.042.126.163.382c.105.22.235.487.439.836a6.838 6.838 0 0 0 1.263 1.58c.26.246.539.479.82.714.449.377.897.733 1.32 1.067 1.136.898 2.02 1.56 2.02 1.56a.161.161 0 0 0 .23-.225s-.645-.897-1.521-2.05c-.326-.43-.674-.884-1.043-1.34-.23-.285-.457-.569-.698-.833a6.658 6.658 0 0 0-1.557-1.293c-.344-.21-.608-.345-.826-.454-.254-.126-.38-.17-.38-.17a.161.161 0 0 0-.23.226zM23.796 52.895s-.111-.033-.37-.07a8.331 8.331 0 0 0-.84-.082 5.567 5.567 0 0 0-1.158.064 6.098 6.098 0 0 0-.623.143c-.305.085-.61.194-.915.302-.491.173-.963.355-1.41.53-1.2.469-2.1.851-2.1.851a.161.161 0 1 0 .075.314s.976-.057 2.259-.17c.478-.043.98-.09 1.498-.152.322-.04.642-.077.954-.137a5.183 5.183 0 0 0 1.162-.348c.197-.084.363-.168.526-.258a8.33 8.33 0 0 0 .716-.448c.215-.147.299-.226.299-.226a.16.16 0 1 0-.073-.314zM23.23 55.866s-.117.002-.38.043c-.221.035-.485.08-.846.172a5.861 5.861 0 0 0-1.117.407c-.19.094-.381.204-.571.323-.275.173-.542.368-.811.563-.432.312-.844.629-1.232.93a88.732 88.732 0 0 0-1.82 1.444.16.16 0 0 0-.058.22.16.16 0 0 0 .219.06s.942-.347 2.167-.838c.455-.183.936-.378 1.425-.592.304-.134.608-.266.896-.416a5.42 5.42 0 0 0 1.041-.68c.169-.14.309-.271.443-.406a8.92 8.92 0 0 0 .576-.644c.168-.205.23-.306.23-.306a.161.161 0 0 0-.161-.28zM39.282 60.718c-.187.06-.445.137-.742.21a13 13 0 0 1-1.103.214c-.312.048-.611.084-.902.105-.803.057-1.388.038-1.388.038a.161.161 0 1 1-.092-.309s.479-.335 1.183-.726c.255-.141.526-.275.813-.405.357-.162.715-.31 1.04-.425.606-.211 1.073-.314 1.073-.314a.782.782 0 0 1 .689.122s.965.806 2.036 1.76c1.41 1.255 2.982 2.735 2.982 2.735a.161.161 0 0 1-.192.259s-1.872-1.076-3.483-2.06a95.902 95.902 0 0 1-1.914-1.204zM26.05 49.084s.359.26 1.075.542c.324.128.698.236 1.134.318.294.055.609.086.935.089.46.003.939-.058 1.416-.144a8.048 8.048 0 0 0 1.394-.372c1.132-.423 2.104-1.057 2.612-2.065a.162.162 0 0 0-.267-.181c-.556.623-1.34.912-2.204 1.078-.797.153-1.647.135-2.464.101-.18-.007-.36-.015-.534-.017a12.77 12.77 0 0 0-1.021.04 12.8 12.8 0 0 0-.738.082c-.808.114-1.272.214-1.272.214a.161.161 0 0 0-.066.316zM57.597 54.322s-.568-.197-1.498-.499a29.22 29.22 0 0 0-1.457-.43c-.211-.055-.427-.111-.65-.165-.212-.05-.43-.098-.648-.148-.988-.227-2.004-.52-2.875-1.035-.904-.536-1.66-1.244-2.043-2.292a.161.161 0 0 0-.313.078c.21 1.477 1.084 2.579 2.219 3.428a8.566 8.566 0 0 0 1.548.905 9.19 9.19 0 0 0 1.665.6 6.98 6.98 0 0 0 1.153.182 8.237 8.237 0 0 0 1.455-.017c.915-.098 1.444-.285 1.444-.285a.161.161 0 0 0 0-.322z"/></g><path fill="#5f6362" d="M10.522 57.176c-1.27.168-4.987 2.212-4.987 6.837s8.646 11.489 12.303 12.473a.161.161 0 0 0 .202-.105.162.162 0 0 0-.105-.202c-2.285-.836-10.753-6.666-11.478-11.837C5.732 59.171 9.48 57.9 10.6 57.49a.161.161 0 1 0-.077-.313z"/><path fill="#5f6362" d="M13.526 59.175c-1.224.12-4.517 1.39-4.137 5.739.379 4.349 9.05 9.781 12.453 10.573a.161.161 0 1 0 .088-.31c-3.205-1.07-11.826-6.873-11.826-10.71s2.453-4.614 3.49-4.978a.16.16 0 1 0-.069-.315zM86.077 63.929c.469.84 2.883 3.676 0 7.268s-10.412 3.977-12.4 3.813c-.087-.012-.168.05-.18.137s.049.17.137.182c3.076.593 10.72-.24 13.284-4.132s.13-6.736-.583-7.461a.16.16 0 0 0-.225-.033.162.162 0 0 0-.033.226z"/><path fill="#5f6362" d="M83.48 64.015c.535.659 2.603 2.228.685 5.571-1.918 3.344-9.795 2.85-12.392 2.447a.16.16 0 0 0-.191.124.16.16 0 0 0 .123.191c2.647.74 11.217.681 13.056-2.392 1.838-3.072-.243-5.635-1.064-6.18a.16.16 0 1 0-.216.239z"/></g></svg>