<svg data-id="7-f7a8fe99a6f41ae-food" xmlns="http://www.w3.org/2000/svg" viewBox="0 0 100 100"><g fill="none" fill-rule="evenodd"><path fill="#222" d="M37.63 72.561s10.433-15.386 7.274-19.578-6.417-7.314-9.562-4.636c-8.662 7.378-3.786 16.343-5.287 24.214-1.047 5.488-4.675 7.024-3.377 8.746 3.158 4.193 10.952-8.746 10.952-8.746zM53.61 81.527c3.823 0 2.39-3.661 2.39-7.527s-1.567-7-3.5-7-4.908-.159-4.908 3.707c0 3.866 2.194 10.82 6.018 10.82z"/><path fill="#333" d="M51.88 70.86s-.2 5.612 1.379 10.502c1.76 5.45 5.363 9.462 7.606 9.462 3.222 0-.44-4.609-1.868-9.462-1.369-4.648-.2-12.563.058-13.616.628-2.57 1.01-8.015 1.01-9.746 0-7.732-4.703-16-13.902-16-9.2 0-14.19 7.832-14.19 16 0 1.61.49 7.491 1.116 10.133.216.915.07 8.192-1.117 13.23-1.108 4.707-3.15 9.117-1.085 9.46 1.803.3 5.363-3.926 7.091-8.495 2.196-5.806 2.363-12.306 2.363-12.306s2.97 1.965 5.675 1.965 5.864-1.126 5.864-1.126z"/><g fill="#393939"><path d="M61.485 17.443C56.453 22.05 49.225 21 46.44 36.803c-.114.643 10.787 1.85 12.972-1.467 1.116-6.327.69-12.187 2.073-17.893z"/><path d="M36.99 46.532c2.375 8.025 10.942 9.252 13.376 9.682 4.525.798 9.943-1.077 11.869-1.03 8.132.204 10.89-2.163 11.956-8.207 1.025-5.804-6.432-3.57-8.471-6.182-1.144-1.464-.943-10.065-10.9-12.92-3.309-.95-11.74-.66-15.386 4.799-3.645 5.458-3.375 10.715-2.445 13.858z"/><path d="M54.081 29.717c.424-4.7-.43-10.939.445-14.542-7.678 5.49-12.887 10.946-13.435 20.946 0 0 12.962-6.094 12.99-6.404z"/></g><path fill="#ebc146" d="M56.71 69.956s4.803-8.43 10.062-11.1c2.917-1.482 8.63-3.355 13.9-2.977 4.655.335 7.395 3.187 8.065 3.159.67-.028 1.713-2.357.253-3.27-1.46-.912-2.638-.112-3.305-.203-.667-.092-.911-.08-1.194-.543-.865-1.422-2.696-4.44-7.061-6.044-.908-.333-2.145-.557-3.556-.618-.661 3.64-2.468 4.133-4.884 4.991-2.31.82-6.333 0-8.51 0a17.915 17.915 0 0 0-2.657 3.265c-4.406 6.966-3.514 11.839-3.514 11.839.081 2.361 2.16 2.483 2.401 1.5z"/><path fill="#593a30" d="M44.151 35.053c.83-5.255 2.946-11.943 9.017-16.228-.904 5.724.174 8.527-.457 11.403-4.398 1.533-5.648 2.267-8.56 4.825z"/><g transform="translate(23.96 14.671)"><g fill="#000"><path d="M7.04 39.111c-2.48-1.978-4.805-4.449-6.062-7.339-.848-1.95-1.208-4.089-.826-6.396a.46.46 0 0 1 .91.021c.33 2.475 1.32 4.572 2.631 6.377a19.182 19.182 0 0 0 2.32 2.632 23.277 23.277 0 0 0 2.747 2.248c.13.083-1.6 2.555-1.72 2.457z"/><path d="M9.281 35.334a13.862 13.862 0 0 0-2.07 2.893 13.594 13.594 0 0 0-1.236 3.36 18.117 18.117 0 0 0-.419 3.3 34.11 34.11 0 0 0 .05 3.291c.18 3.264.621 6.52.053 9.614-.655 3.604-2.465 5.484-3.206 6.84-.455.831-.552 1.501-.023 2.19.771 1.004 1.763 1.16 2.857.751 1.074-.402 2.26-1.384 3.392-2.59a.28.28 0 0 0-.403-.386c-1.08 1.107-2.196 2.02-3.207 2.377-.807.284-1.538.18-2.089-.566-.337-.455-.202-.887.104-1.425.792-1.388 2.675-3.312 3.417-7.03.623-3.154.245-6.488.09-9.825a39.816 39.816 0 0 1-.039-3.203c.036-1.054.133-2.103.338-3.144a13.925 13.925 0 0 1 1.025-3.204 13.756 13.756 0 0 1 1.79-2.879.279.279 0 0 0-.424-.364zM23.421 57.311c0 .477.01.974.066 1.49.053.483.141.975.26 1.467.105.432.244.861.395 1.283a13.636 13.636 0 0 0 1.377 2.83c1.085 1.67 2.22 2.772 3.859 2.724a.28.28 0 0 0 0-.558c-1.423-.042-2.272-1.112-3.138-2.608-.47-.812-.852-1.745-1.169-2.707-.133-.404-.249-.814-.367-1.219-.134-.463-.262-.92-.38-1.368-.128-.482-.258-.94-.349-1.389a.277.277 0 0 0-.304-.249.277.277 0 0 0-.25.304z"/><path d="M16.787 56.106a47.263 47.263 0 0 1-.678 5.571c-.35 1.925-.876 4.078-1.652 6.146-.859 2.284-2.167 4.486-3.494 6.104-.853 1.042-1.72 1.844-2.483 2.292-.608.357-1.17.493-1.634.417-.945-.156-1.352-.885-1.292-2.103.09-1.782 1.233-4.805 1.972-7.956.472-1.996.776-4.349.964-6.509.277-3.193.306-5.962.181-6.498-.289-1.247-.547-3.205-.734-5.106-.215-2.172-.339-4.268-.334-5.135.021-2.31.43-4.593 1.217-6.68.82-2.173 2.044-4.136 3.652-5.706a.28.28 0 0 1 .393.395c-1.51 1.54-2.643 3.45-3.389 5.551a18.828 18.828 0 0 0-1.055 6.44c.006.852.161 2.91.398 5.042.206 1.855.473 3.767.768 4.982.134.56.161 3.457-.115 6.798-.182 2.21-.495 4.613-.974 6.655C7.89 69.382 7 71.868 6.661 73.644c-.125.657-.18 1.204-.08 1.601.056.231.184.384.426.425.281.047.611-.077.982-.293.687-.4 1.46-1.127 2.231-2.06 1.274-1.544 2.53-3.645 3.36-5.826.765-2.01 1.283-4.106 1.634-5.979.65-3.467.726-6.172.726-6.172a.44.44 0 0 1 .684-.357s1.133.753 2.624 1.314c.866.326 1.853.59 2.808.593.961.002 1.981-.143 2.89-.326 1.588-.32 2.836-.762 2.836-.762a.41.41 0 0 1 .55.402s-.089 2.308.264 5.243c.194 1.612.52 3.414 1.068 5.126.84 2.625 2.114 4.913 3.456 6.563 1.335 1.642 2.711 2.665 3.785 2.668.37.001.627-.054.782-.203.168-.16.186-.415.15-.733-.2-1.703-2.16-4.84-3.106-8.087-.464-1.594-.637-3.564-.648-5.517-.022-3.81.753-9.002.927-9.705a.28.28 0 0 1 .542.133c-.167.691-.906 5.822-.863 9.566.022 1.893.195 3.801.654 5.343.977 3.286 2.963 6.461 3.174 8.186.07.576-.046 1.02-.35 1.313-.253.245-.656.4-1.262.402-1.213.003-2.83-1.06-4.348-2.906-1.4-1.705-2.737-4.069-3.624-6.787-.573-1.758-.919-3.608-1.127-5.265a39.703 39.703 0 0 1-.304-4.783c-.53.167-1.395.418-2.389.624-.96.2-2.039.355-3.057.358-.843.002-1.712-.175-2.517-.428a15.06 15.06 0 0 1-2.752-1.209zM36.834 3.878c-.382.281-.772.541-1.169.786-1.69 1.043-3.5 1.827-5.25 3a.279.279 0 0 1-.319-.459c1.715-1.233 3.5-2.085 5.157-3.184.69-.458 1.358-.96 1.988-1.555a.422.422 0 0 1 .695.411 35.82 35.82 0 0 0-.636 3.835c-.123 1.052-.207 2.111-.293 3.18-.037.454-.074.91-.116 1.368-.07.758-.142 1.52-.23 2.287a75.773 75.773 0 0 1-.313 2.286.279.279 0 0 1-.555-.049c.018-.662.022-1.315.037-1.967.015-.66.035-1.316.062-1.968a54.337 54.337 0 0 1 .301-3.943 40.14 40.14 0 0 1 .641-4.028z"/><path d="M18.008 15.077a10.67 10.67 0 0 0-1.569 1.21c-.48.45-.918.952-1.312 1.507a18.897 18.897 0 0 0-1.824 3.23 16.562 16.562 0 0 0-1.105 3.56c-.556 2.944-.202 5.545.358 7.415 1.028 3.384 3.108 5.594 5.391 7.047 3.254 2.07 6.91 2.59 8.376 2.836 1.07.18 2.188.215 3.298.16 1.7-.084 3.383-.376 4.847-.663a.28.28 0 1 0-.103-.548c-1.442.256-3.099.515-4.77.57-1.063.034-2.13-.015-3.15-.204-1.414-.26-4.934-.809-8.045-2.852-2.103-1.382-4.018-3.456-4.932-6.616-.515-1.759-.795-4.197-.29-6.964.197-1.083.511-2.216.981-3.383a19.058 19.058 0 0 1 1.623-3.15 9.271 9.271 0 0 1 1.137-1.46c.433-.457.902-.868 1.403-1.235a.278.278 0 1 0-.314-.46z"/></g><path fill="#d6a000" d="M64.764 43.986c.023-.007.043-.032.068-.054.06-.05.116-.117.17-.195.23-.324.41-.829.39-1.317-.018-.389-.17-.77-.56-1.017a2.42 2.42 0 0 0-1.116-.385c-.506-.04-.95.08-1.318.155-.279.058-.524.092-.727.063-.424-.06-.695-.09-.908-.194-.199-.095-.363-.24-.529-.515-.509-.844-1.36-2.263-2.899-3.603-1.002-.873-2.295-1.712-3.975-2.338a9.336 9.336 0 0 0-1.699-.434 15.14 15.14 0 0 0-1.767-.184.279.279 0 0 1 .024-.557c.653.025 1.27.085 1.835.174.687.108 1.3.26 1.811.445 1.766.64 3.13 1.507 4.187 2.411 1.62 1.385 2.524 2.856 3.063 3.733.08.128.147.206.241.25.167.078.38.083.71.126.185.025.415-.043.686-.103.382-.085.825-.173 1.32-.137.443.032.927.162 1.443.481.775.48.986 1.283.896 2.046-.08.677-.408 1.311-.743 1.628-.193.183-.4.271-.58.28-.153.007-.389-.066-.692-.236-.74-.419-2.122-1.465-4.113-2.185a12.122 12.122 0 0 0-3.308-.7c-2.345-.16-4.778.137-7.004.644-2.693.612-5.085 1.533-6.653 2.336-1.606.822-3.16 2.203-4.546 3.701-2.865 3.098-4.996 6.715-5.265 7.18-.233.726-1.114 1.097-1.968.741-.659-.276-1.327-1.004-1.377-2.393-.052-.333-.356-2.724.871-6.367.561-1.663 1.45-3.59 2.827-5.706a17.782 17.782 0 0 1 2.76-3.278.28.28 0 1 1 .388.4 18.101 18.101 0 0 0-2.555 3.253c-1.28 2.085-2.083 3.977-2.593 5.6-1.155 3.682-.74 5.964-.74 5.964l.007.07c.028.705.254 1.166.566 1.411.22.172.472.228.672.168.093-.028.173-.085.196-.18l.017-.068.034-.06s2.286-4.01 5.446-7.398c1.471-1.578 3.133-3.017 4.835-3.875 1.624-.818 4.1-1.754 6.885-2.366 2.308-.507 4.83-.79 7.256-.607 1.328.1 2.504.398 3.525.777 1.698.63 2.965 1.482 3.783 2.008.24.154.438.28.594.355.045.022.11.045.13.052z"/><path fill="#000" d="M32.231 37.77c2.402.706 4.504 1.196 6.348 1.456 2.74.387 4.912.296 6.61-.178 3.302-.92 4.888-3.27 5.477-6.66.318-1.858-.16-2.978-1.012-3.708-.987-.846-2.555-1.142-4.092-1.426-.829-.152-1.645-.306-2.33-.579-.48-.19-.894-.436-1.182-.8-.219-.277-.365-.839-.572-1.57-.488-1.727-1.207-4.326-3.227-6.709-1.619-1.909-4.072-3.684-7.924-4.749a.279.279 0 0 0-.152.536c3.682 1.076 6.018 2.802 7.546 4.656 1.904 2.311 2.547 4.815 2.994 6.476.234.873.436 1.53.692 1.863.663.86 1.85 1.271 3.171 1.561 1.606.352 3.426.514 4.476 1.433.643.563.931 1.437.674 2.85-.533 2.981-1.91 5.035-4.81 5.87-1.599.46-3.638.558-6.233.281-1.823-.195-3.915-.558-6.31-1.14a.278.278 0 1 0-.144.537z"/><path fill="#000" d="M49.436 30.258c.93-.38 1.064-1.378.387-2.19-.516-.621-1.196-.702-2.222-.26-1.207.522-1.41 1.404-.864 2.128.546.725 1.77.701 2.7.322z"/><circle cx="36.501" cy="25.267" r="1.5" fill="#000" transform="rotate(10.02 36.434 25.209)"/><path fill="#000" d="M29.854 1.596c-3.392 2.463-6.253 4.963-8.38 7.936-2.308 3.227-3.75 7.011-4.062 11.918a.28.28 0 0 1-.557-.03c.23-5.059 1.648-8.983 3.971-12.344 2.33-3.37 5.575-6.17 9.448-8.985a.489.489 0 0 1 .76.514c-.194.812-.292 1.761-.344 2.797a49.852 49.852 0 0 0-.05 2.303c-.004 1.13.012 2.307.016 3.49a82.59 82.59 0 0 1-.02 2.34 37.096 37.096 0 0 1-.24 3.52.279.279 0 1 1-.555-.05c.094-1.573.023-3.31-.047-5.065-.069-1.739-.15-3.493-.142-5.112.006-1.164.065-2.259.202-3.232zM32.483 24.61s.007-.227.055-.562a5.367 5.367 0 0 1 .178-.819 3.73 3.73 0 0 1 .155-.427c.15-.34.368-.674.714-.919.443-.32.95-.38 1.41-.333.804.081 1.474.48 1.474.48a.14.14 0 1 0 .15-.235s-.899-.607-1.924-.648a2.304 2.304 0 0 0-1.366.361c-.545.362-.874.89-1.039 1.422a3.41 3.41 0 0 0-.145.854c-.02.5.061.856.061.856a.14.14 0 1 0 .277-.03z"/></g></g></svg>