<svg data-id="70-64add04d73cf2ae-cat" xmlns="http://www.w3.org/2000/svg" viewBox="0 0 100 100"><g fill="none" fill-rule="evenodd"><g transform="translate(14.824 9)"><path fill="#a9c0dd" d="M43.95 76.919c16.539-.597 8.24-26.585 30.532-25.38 4.45 20.924-14.375 26.558-30.531 27.55z"/><path fill="#fff" d="M64.741 53.42c2.403-1.363 5.525-2.107 9.741-1.88.922 4.333.86 7.988.04 11.07-.342 1.283-2.184-1.478-8.25 3.517-.667-2.997 2.157-7.044 2.157-7.044s-4.824.716-6.7 4.57c-1.047-2.832 1.506-9.38 3.012-10.234z"/><path fill="#a9c0dd" d="m31.075 53-1.769 1.511c-3.849 3.29-7.326 8.18-8.202 14.649S24.979 81 31.859 81h6.198c6.867 0 11.92-4.937 10.783-11.647-1.138-6.709-4.378-11.55-8.23-14.842L38.84 53z"/><path fill="#fff" d="M35 80.5c3.783 0 6-.786 6-5.227 0-1.865-.474-4.007-1.269-5.865-.897 0-1.838-.76-1.127-2.1C37.6 65.822 36.352 64.82 35 64.82c-3.314 0-6 6.012-6 10.453s2.217 5.227 6 5.227z"/><path fill="#a9c0dd" d="M3.244.646C15.514-1.73 24.49 9.823 27.112 13.693a75.768 75.768 0 0 1 7.888-.39c2.842 0 5.496.136 7.967.397C45.59 9.864 54.563-1.574 66.83.803c4.314 8.626 1.279 21.274.284 24.833 2.005 3.18 2.96 6.812 2.96 10.696 0 12.9-10.496 23.358-35.037 23.358S0 49.232 0 36.332c0-3.893.952-7.533 2.956-10.718-.998-3.61-4.02-16.351.288-24.968z"/><path fill="#fff" d="M35 59.2c11.947 0 25-2.977 25-8.5s-10.273-15-25-15-25 9.477-25 15 13.053 8.5 25 8.5z"/><path fill="#ffe5cd" d="M4.21 1.646c8.17.108 14.522 8.015 17.606 12.767-8.511 1.94-14.221 5.715-17.475 10.548l-.058-.193C2.81 19.755.463 9.141 4.211 1.646zm61.62 0c3.355 6.71 1.826 15.922.41 21.374-3.663-4.21-9.495-7.412-17.77-8.98 3.165-4.78 9.4-12.29 17.36-12.394z"/><ellipse cx="35.015" cy="53.261" fill="#ffc2c2" rx="2" ry="3"/></g><g fill="#414e62" transform="translate(14.302 9.152)"><path d="M15.21 1.882c6.167 2.906 10.653 8.117 12.612 10.94.619-.064 4.273-.61 7.94-.59 3.669.018 7.161.306 7.787.377 1.964-2.777 6.571-7.886 12.76-10.727 3.294-1.513 7.2-2.446 11.22-1.388 1.539 1.614 2.46 6.322 2.63 9.763.313 6.308-1.179 12.858-1.84 15.417a19.624 19.624 0 0 1 2.236 5.109c.511 1.833.765 3.752.784 5.729.045 6.556-2.546 12.522-8.213 16.9-3.303 2.55-7.662 4.56-13.164 5.813a51.667 51.667 0 0 1-3.64.688c.265.406.52.827.765 1.26 1.337 2.366 2.366 5.112 2.943 8.273.417 2.295.137 4.4-.674 6.2 1.592-.88 2.795-2.145 3.786-3.64.79-1.188 1.441-2.52 2.053-3.918.985-2.254 1.85-4.681 2.931-6.973 1.13-2.392 2.497-4.64 4.435-6.406 2.75-2.506 6.645-4.063 12.642-3.711a.738.738 0 0 1 .682.583c1.701 8.418-.163 14.33-4.05 18.458-5.575 5.918-15.39 8.123-24.783 8.79-2.06 1.903-4.981 3.037-8.32 3.07l-6.136.052-.062.001c-3.626.009-6.71-1.376-8.777-3.624-2.137-2.324-3.19-5.563-2.678-9.083.49-3.12 1.544-5.877 2.977-8.25a22.8 22.8 0 0 1 .74-1.144c-7.108-1.133-12.559-3.395-16.508-6.427C2.594 49.052-.022 43.084 0 36.512c.008-1.986.257-3.914.76-5.758a19.833 19.833 0 0 1 2.181-5.1C2.253 23.056.868 16.94 1.127 10.652 1.27 7.165 1.92 3.627 3.452.592A.523.523 0 0 1 3.82.315C8.04-.484 11.876.312 15.21 1.882zM25.844 60.01l-.292.473c-.201.337-.396.68-.584 1.032-1.236 2.313-2.152 4.948-2.49 7.919-.383 3.052.584 5.817 2.446 7.813 1.808 1.937 4.464 3.153 7.61 3.16l6.197.053c3.184.032 5.97-1.055 7.853-2.933 1.94-1.934 2.92-4.697 2.414-7.906-.48-3.062-1.407-5.735-2.638-8.048-.282-.53-.58-1.043-.892-1.536-2.97.41-6.22.627-9.757.632-3.58-.008-6.865-.236-9.867-.659zm37.788-4.122c-2.162 1.957-3.579 4.536-4.824 7.213-.858 1.845-1.638 3.73-2.5 5.5-.699 1.434-1.45 2.792-2.342 3.985-1.317 1.761-2.923 3.18-5.086 3.978a9.83 9.83 0 0 1-1.399 1.844l.046-.049c9-.914 18.288-3.267 23.502-9.061 3.476-3.862 5.09-9.275 3.532-16.848-5.14-.15-8.506 1.246-10.929 3.438zm-7.128-53.38c-6.172 2.91-10.567 8.548-12.415 11.246a.305.305 0 0 1-.286.13c-.648-.069-4.327-.515-8.049-.496-3.717.019-7.478.501-8.124.577a.387.387 0 0 1-.36-.164c-1.866-2.666-6.289-8.232-12.456-11.067C11.711 1.308 8.162.577 4.274 1.289c-1.36 2.86-1.91 6.159-2.016 9.405-.206 6.362 1.307 12.528 1.968 14.892a.63.63 0 0 1-.072.499 18.559 18.559 0 0 0-2.136 5.007 20.918 20.918 0 0 0-.67 5.42c.021 6.135 2.498 11.687 7.836 15.738 5.596 4.248 14.29 6.847 26.527 6.821 5.282.007 9.905-.482 13.91-1.37 5.262-1.168 9.444-3.036 12.627-5.438 5.362-4.047 7.867-9.601 7.911-15.751a21.048 21.048 0 0 0-.646-5.45 18.732 18.732 0 0 0-2.118-5.056.478.478 0 0 1-.054-.38c.682-2.37 2.238-8.55 2.085-14.942-.08-3.353-.526-7.11-2.085-9.83-4.034-.74-7.647.15-10.837 1.654z"/><path d="M35.795 13.247c1.012 0 2 .018 2.963.053-.005 4.958-1.346 8.973-3 8.973-1.657 0-3-4.03-3-9v.03c.987-.037 2-.056 3.037-.056zm-4.081.103c-.193 3.385-.996 5.923-1.956 5.923-.931 0-1.713-2.386-1.936-5.616 1.192-.13 2.427-.23 3.707-.299zm8.09-.005a68.58 68.58 0 0 1 3.893.303c-.224 3.235-1.007 5.625-1.939 5.625-.943 0-1.733-2.447-1.944-5.74zM21.698 45.848c1.657 0 3-1.79 3-4s-1.343-4-3-4-3 1.79-3 4 1.343 4 3 4z"/><ellipse cx="49.698" cy="41.848" rx="3" ry="4"/><path d="M26.333 60.837c-.45.61-.76 1.402-.925 2.305a6.615 6.615 0 0 0-.095 1.072c-.012.719.08 1.452.262 2.148.128.487.312.952.534 1.377.246.47.546.894.886 1.248.91.947 2.083 1.457 3.462 1.173 1.013-.22 1.558-.62 1.82-1.12.151-.288.23-.607.22-.96-.018-.675-.323-1.483-.645-2.321-.404-1.056-.823-2.162-.388-3.102a.16.16 0 0 0-.064-.218.162.162 0 0 0-.219.065c-.52.829-.409 1.875-.178 2.92.21.954.537 1.896.473 2.625-.043.49-.392.758-1.224.847-.883.104-1.572-.312-2.108-.945a5.129 5.129 0 0 1-.618-.952 8.693 8.693 0 0 1-.474-1.094 10.776 10.776 0 0 1-.475-1.783c-.132-.768-.203-1.507-.13-2.191.034-.34.076-.651.171-.945a.16.16 0 1 0-.285-.15zM44.471 60.91c.094.295.136.606.172.945.072.685.001 1.424-.132 2.192a10.675 10.675 0 0 1-.474 1.783c-.137.382-.294.75-.474 1.093a5.129 5.129 0 0 1-.618.952c-.537.633-1.225 1.05-2.109.946-.83-.09-1.18-.356-1.223-.847-.064-.73.263-1.671.473-2.624.231-1.047.342-2.092-.178-2.921a.16.16 0 1 0-.283.153c.435.94.016 2.046-.389 3.1-.32.84-.626 1.648-.644 2.323-.01.353.07.672.22.96.262.5.807.9 1.82 1.12 1.38.283 2.553-.226 3.462-1.173.34-.354.64-.777.886-1.248a6.59 6.59 0 0 0 .533-1.377 7.987 7.987 0 0 0 .263-2.148 6.637 6.637 0 0 0-.095-1.073c-.164-.902-.474-1.693-.925-2.304a.161.161 0 1 0-.285.149zM57.192 45.84s.133.045.422.106c.25.052.557.113.975.165a7.691 7.691 0 0 0 1.372.05c.246-.013.5-.042.757-.08.371-.054.747-.133 1.124-.21.603-.124 1.191-.26 1.743-.39 1.481-.347 2.607-.641 2.607-.641a.161.161 0 0 0 .142-.178.16.16 0 0 0-.178-.142s-1.163-.04-2.684-.054a62.826 62.826 0 0 0-1.786.003c-.385.007-.768.013-1.143.042a8.51 8.51 0 0 0-.756.087 7.653 7.653 0 0 0-1.327.35c-.396.144-.684.27-.915.376-.269.122-.389.196-.389.196a.16.16 0 1 0 .036.32zM57.156 48.84s.12.073.39.196c.23.105.518.232.914.375a7.63 7.63 0 0 0 2.083.438c.375.029.758.034 1.143.042.616.01 1.22.008 1.786.003 1.521-.014 2.684-.054 2.684-.054a.16.16 0 1 0 .036-.32s-1.126-.294-2.607-.642a66.467 66.467 0 0 0-1.743-.39c-.377-.076-.753-.155-1.124-.21a8.516 8.516 0 0 0-.757-.08 7.121 7.121 0 0 0-.683-.006c-.25.01-.473.03-.689.057a11.38 11.38 0 0 0-.975.165c-.289.06-.422.106-.422.106-.088-.01-.168.054-.178.142s.054.168.142.178zM14.192 45.52s-.12-.074-.388-.196a11.48 11.48 0 0 0-.915-.375 7.646 7.646 0 0 0-1.328-.351 8.53 8.53 0 0 0-.755-.087c-.375-.03-.759-.035-1.144-.042a62.761 62.761 0 0 0-1.785-.003c-1.522.014-2.685.054-2.685.054-.088-.01-.168.054-.178.142s.054.168.142.178c0 0 1.127.294 2.608.642a66.37 66.37 0 0 0 1.742.389c.378.077.753.156 1.125.21.257.038.511.067.756.08a7.684 7.684 0 0 0 1.373-.051c.417-.051.726-.112.975-.164.288-.061.421-.106.421-.106a.16.16 0 1 0 .036-.32zM14.156 48.52s-.133-.045-.42-.106a11.45 11.45 0 0 0-.976-.165 8.053 8.053 0 0 0-.69-.057 7.124 7.124 0 0 0-.683.006 8.535 8.535 0 0 0-.756.08c-.372.055-.747.134-1.125.21-.603.125-1.19.26-1.742.39-1.48.348-2.608.642-2.608.642a.16.16 0 1 0 .036.32s1.163.04 2.685.054c.566.005 1.17.008 1.785-.003.385-.008.77-.013 1.144-.042a7.154 7.154 0 0 0 1.422-.232c.243-.064.456-.132.661-.206.396-.143.683-.27.915-.375a4.23 4.23 0 0 0 .388-.196.161.161 0 0 0 .142-.178.16.16 0 0 0-.178-.142zM35.674 56.34c.576.046 1.117-.245 1.557-.747.5-.57.833-1.431.905-2.413.07-1.025-.202-1.953-.636-2.615-.452-.687-1.116-1.057-1.826-1.098-.73-.032-1.427.338-1.954 1a3.648 3.648 0 0 0-.652 1.32 4.635 4.635 0 0 0-.137 1.393c.044.485.123.944.291 1.349.195.469.438.872.752 1.172.516.49 1.095.756 1.7.64zm0-.321c-.432-.083-.724-.423-.956-.876-.116-.225-.178-.482-.24-.763a3.842 3.842 0 0 1-.06-1.2c.014-.284.074-.551.14-.804.068-.264.156-.508.27-.722.212-.407.472-.746.846-.761.4-.024.756.252 1.02.666.276.435.475.993.518 1.62.06.807-.103 1.546-.438 2.072-.278.437-.653.733-1.1.768z"/></g></g></svg>