<svg data-id="71-44c68661db61e4a-rest" xmlns="http://www.w3.org/2000/svg" viewBox="0 0 100 100"><g fill="none" fill-rule="evenodd"><g transform="translate(-.176 11)"><path fill="#a9c0dd" d="M23.716 78.93c-8.863-.292-12.028-7.089-10.262-16.407s7.062-11.88 14.857-10.963c7.795.917 24.923 17.984 24.974 18.503.083.844-3.325 5.581-5.594 6.463-2.269.882-4.594-.233-1.791-6.033a39.58 39.58 0 0 1-3.036 1.928c0 3.223-1.713 3.778-5.542 2.837-4.66 2.108-9.863 3.795-13.606 3.672z"/><path fill="#a9c0dd" d="M85.144 20.276c11.392 9.732 6.016 25.365 2.928 33.012.088 3.113-.564 6.204-1.827 9.18-5.044 11.88-22.869 16.338-42.61 7.097-19.74-9.242-25.57-22.44-20.527-34.321 1.28-3.015 3.086-5.631 5.44-7.701.554-2.289 3.944-15.585 9.59-22.845 12.686 3.278 16.508 14.642 17.586 19.6 2.599.745 5.35 1.726 8.256 2.96 2.2.934 4.232 1.907 6.1 2.915 2.337-2.869 7.695-8.434 15.064-9.897z"/><path fill="#ffe5cd" d="M39.421 6.612c7.16 3.151 10.263 11.407 11.533 16.53-8.026-1.55-14.462-.704-19.32 1.865 1.17-4.957 3.627-13.312 7.787-18.395zM84.45 21.119c5.6 8.383 3.616 17.405 1.442 22.845-2.688-4.563-7.302-8.966-14.171-12.897 2.573-3.793 7.118-9.124 12.729-9.948z"/><path fill="#fff" d="M40.727 67.846c12.914 6.695 22.378 7.457 24.879 1.567s-.592-20.497-17.585-27.71c-16.993-7.215-23.304 3.763-24.685 7.016s5.655 13.042 17.391 19.127z"/><ellipse cx="36.83" cy="57.949" fill="#ffc2c2" rx="1" ry="1.5" transform="rotate(23 36.806 57.91)"/><path fill="#a9c0dd" d="M13.162 66.171c-5.657-.95-5.175 5.54-.596 5.286 8.69-.48 17.721-4.425 24.335 8.613-11.253 10.133-25.518 4.746-29.52-1.503-4.001-6.248-4.972-15.33 5.686-14.14z"/><path fill="#fff" d="M30.406 72.572c2.38 1.4 4.586 3.732 6.496 7.497-3.292 2.964-6.488 4.738-9.566 5.568-1.282.345.188-2.63-7.17-5.387 2.262-2.075 7.178-1.653 7.178-1.653s-3.03-3.82-7.307-3.518c1.93-2.322 8.877-3.384 10.37-2.507z"/></g><path fill="#414e62" d="m36.93 85.938 1.897.583a37.298 37.298 0 0 1-3.92 1.395l-.966-1.082a36.053 36.053 0 0 0 2.99-.896zm8.227-4.354 1.166.249a.507.507 0 0 1-.1.144c-.833.852-2.05 1.755-3.53 2.624l-.26-1.125c1.086-.622 2.013-1.265 2.724-1.892zM22.872 62.255l.439.578c-2.358.386-4.306 1.511-5.802 3.223-.925 1.058-1.673 2.338-2.245 3.805-.745 1.908-1.185 4.128-1.288 6.585-.087 1.812-.002 3.316.24 4.574.108.565.25 1.076.425 1.54l-1.645.112c-.038-.118-.073-.24-.107-.363-.424-1.548-.563-3.492-.402-5.948.19-2.619.724-4.98 1.596-6.987.686-1.578 1.569-2.943 2.641-4.042 1.643-1.685 3.711-2.767 6.148-3.077z"/><path fill="#414e62" d="M51.564 83.764c-.345.316-.813.721-1.354 1.16-.311.25-.641.5-.981.743a9.91 9.91 0 0 1-.986.625c-.34.188-.68.338-1.02.408-.444.09-.888.051-1.296-.289-.785-.63-.712-1.53-.37-2.428.257-.672.657-1.345 1.078-1.945l-.627-.383c-.778.549-1.525 2.017-1.764 2.79-.334 1.077-.164 2.127.73 3.025.885.855 1.924.99 2.961.688a4.373 4.373 0 0 0 1.107-.51 6.64 6.64 0 0 0 1.111-.885c.331-.326.635-.673.9-1.03.438-.588.774-1.15 1.006-1.586.236-.444-.136-.71-.495-.383z"/><path fill="#414e62" d="M85.288 30.722c5.036 2.72 12.136 13.611 3.188 37.278a16.925 16.925 0 0 1-1.306 5.532c-6.194 14.59-23.817 15.977-41.62 8.418S16.07 61.025 22.43 46.047c1.361-3.207 3.244-5.769 5.537-7.739 1.505-8.433 6.545-19.843 10.294-22.872 4.73.905 14.148 5.135 18.11 19.5a65.82 65.82 0 0 1 7.946 2.806 51.064 51.064 0 0 1 5.368 2.658c7.155-7.577 10.604-9.01 15.603-9.678zm-.462 1.089c-2.748.139-6.275.825-14.334 10.339a48.44 48.44 0 0 0-7.032-3.685c-17.044-7.236-34.016-6.38-40.11 7.973s5.08 27.157 22.124 34.393 33.918 5.902 39.854-8.08a16.297 16.297 0 0 0 1.27-5.585c4.724-10.667 7.209-28.833-1.772-35.355zM38.408 16.337c-3.966 4.432-7.808 15.15-8.682 20.63 6.275-4.25 14.987-4.826 24.359-2.62-2.62-11.231-10.997-16.967-15.677-18.01z"/><path fill="#414e62" d="M62.948 37.813c.438.186.869.374 1.291.565l-.156.23-.184.265c-2.853 4.073-6.116 6.71-7.29 5.889-1.124-.788.081-4.467 2.696-8.359 1.185.413 2.4.882 3.643 1.41zm-4.493-1.699c-2.131 2.791-4.237 4.567-4.933 4.079-.62-.433.062-2.526 1.551-5.062 1.081.27 2.19.59 3.325.964zm6.463 2.576a54.481 54.481 0 0 1 3.041 1.533c-2.117 2.759-4.199 4.507-4.89 4.023-.649-.454.13-2.73 1.77-5.43z"/><path fill="#227fbb" fill-rule="nonzero" d="M65.195 34.13c.382.238.974.55 1.776.937s1.426.719 1.871.997c.496.31.852.293 1.066-.05.096-.153.139-.343.13-.57s-.055-.356-.14-.391c-1.786-.622-3.036-1.156-3.749-1.6-.318-.2-.49-.405-.517-.616.335-.48 1.511-1.046 3.527-1.696l4.074-1.169c.528-.165.891-.407 1.09-.725.302-.483.071-.963-.692-1.44-.61-.382-1.478-.747-2.604-1.097-1.395-.43-2.223-.434-2.485-.015s-.235.73.083.928c.026.016.246.003.66-.038.498-.06.95-.061 1.355-.002a4.104 4.104 0 0 1 1.672.594c.28.174.452.353.515.534-.21.222-.968.544-2.275.966-1.938.61-3.138 1.001-3.599 1.173-1.329.514-2.145 1.012-2.447 1.496-.199.318-.207.657-.026 1.018.146.304.385.559.715.766zM57.588 20.886c.505.367 1.295.858 2.37 1.47s1.905 1.135 2.495 1.564c.657.477 1.151.489 1.482.034.147-.203.226-.461.236-.776s-.042-.5-.156-.557c-2.416-1.035-4.096-1.895-5.04-2.581-.421-.307-.64-.608-.657-.903.511-.633 2.196-1.302 5.052-2.008l5.758-1.224c.748-.178 1.275-.477 1.58-.899.466-.64.193-1.328-.818-2.063-.809-.588-1.976-1.179-3.502-1.773-1.89-.73-3.038-.817-3.442-.26s-.396.987.025 1.293c.034.024.34.028.92.011a7.148 7.148 0 0 1 1.877.128 5.701 5.701 0 0 1 2.259.985c.37.27.591.533.662.79-.313.289-1.395.661-3.247 1.118-2.745.658-4.445 1.084-5.1 1.277-1.892.583-3.07 1.194-3.536 1.835-.306.421-.352.89-.135 1.408.173.435.479.812.917 1.13zM76.555 23.084c.667.485 1.71 1.132 3.127 1.941s2.516 1.497 3.295 2.063c.868.631 1.52.646 1.956.045.194-.267.298-.608.31-1.023s-.054-.661-.204-.736c-3.19-1.366-5.407-2.502-6.653-3.407-.556-.404-.845-.802-.867-1.192.675-.835 2.898-1.718 6.669-2.65l7.6-1.616c.987-.234 1.682-.63 2.086-1.186.615-.846.255-1.753-1.08-2.724-1.068-.776-2.609-1.556-4.623-2.34-2.496-.964-4.01-1.078-4.544-.344s-.522 1.303.034 1.707c.044.033.449.038 1.213.015.918-.047 1.744.01 2.478.17a7.525 7.525 0 0 1 2.982 1.3c.49.355.78.703.874 1.043-.412.38-1.84.872-4.285 1.475-3.624.869-5.868 1.43-6.733 1.686-2.497.769-4.053 1.576-4.668 2.421-.404.556-.463 1.176-.178 1.86.229.574.632 1.071 1.21 1.492z"/><g fill="#414e62"><path d="M36.233 70.46c1.074.567 2.137-1.243 2.279-2.166.082-.536-.142-1.116-.766-1.4s-1.249-.172-1.599.217c-.857.952-.823 3.197.086 3.348zm.126-.297c-.843-.247-.223-3.1 1-2.565 1.223.535-.158 2.813-1 2.565zM27.783 57.095s.271.29.905.688c.192.12.405.227.661.338.262.113.549.217.872.295.282.068.588.108.908.13.682.045 1.422.01 2.2-.11a10.805 10.805 0 0 0 3.104-.972.16.16 0 0 0-.101-.306c-.887.166-1.73.18-2.547.15-.88-.033-1.686-.17-2.425-.308-.175-.032-.345-.064-.51-.088a10.54 10.54 0 0 0-.982-.1 13.582 13.582 0 0 0-.715-.023 27.08 27.08 0 0 0-1.244.01.16.16 0 1 0-.126.296zM57.365 69.302s-.406-.38-1.136-1.002a18.57 18.57 0 0 0-1.154-.9 18.01 18.01 0 0 0-.534-.366c-.176-.115-.36-.228-.548-.343-.819-.5-1.686-1.052-2.482-1.712-.812-.674-1.556-1.404-2.097-2.267a.162.162 0 0 0-.215-.076.161.161 0 0 0-.075.215c.36 1.027.944 1.98 1.652 2.856.471.583.99 1.116 1.531 1.6.427.381.857.736 1.298 1.026.322.21.646.388.961.532.475.217.906.372 1.294.478.863.235 1.379.256 1.379.256a.161.161 0 0 0 .126-.297zM62.523 78.903s.093.104.314.298c.19.167.427.37.764.62a7.536 7.536 0 0 0 1.858 1.012c.349.133.712.248 1.077.364a59.36 59.36 0 0 0 1.7.511c1.453.42 2.572.712 2.572.712a.161.161 0 0 0 .126-.297s-.988-.602-2.3-1.356a62.1 62.1 0 0 0-1.547-.868c-.337-.18-.672-.363-1.01-.52a7.179 7.179 0 0 0-1.346-.492 8.007 8.007 0 0 0-.674-.143 11.669 11.669 0 0 0-.976-.119c-.292-.024-.432-.018-.432-.018a.16.16 0 1 0-.126.296zM61.317 81.645s.055.114.205.345c.129.197.287.432.527.738a6.384 6.384 0 0 0 .866.907c.17.145.357.284.55.42.282.195.581.375.882.557.48.292.956.564 1.407.82 1.21.684 2.146 1.18 2.146 1.18a.162.162 0 0 0 .225-.032.16.16 0 0 0-.031-.225s-.734-.764-1.725-1.74c-.368-.363-.76-.746-1.173-1.128-.258-.239-.513-.477-.778-.694a6.064 6.064 0 0 0-1.09-.731 6.074 6.074 0 0 0-.574-.267 9.667 9.667 0 0 0-.855-.305c-.263-.08-.388-.102-.388-.102a.16.16 0 1 0-.194.257zM26.08 59.825s-.076-.095-.271-.28a9.082 9.082 0 0 0-.667-.579 6.251 6.251 0 0 0-1.026-.655 6.673 6.673 0 0 0-.617-.265c-.311-.118-.635-.216-.961-.316a49.551 49.551 0 0 0-1.52-.434c-1.303-.355-2.301-.597-2.301-.597a.161.161 0 0 0-.126.297s.868.55 2.028 1.241c.432.257.89.527 1.368.791.298.165.593.33.894.472a5.752 5.752 0 0 0 1.2.43c.217.052.411.086.604.113.376.051.65.067.88.078.268.012.39.001.39.001a.161.161 0 0 0 .126-.297zM24.858 62.574s-.07-.058-.271-.174a5.952 5.952 0 0 0-.64-.323 3.936 3.936 0 0 0-.93-.278 4.302 4.302 0 0 0-.53-.045c-.263-.008-.53.007-.8.021-.435.023-.853.06-1.252.095-1.077.1-1.881.201-1.881.201a.161.161 0 0 0-.026.321s.778.23 1.826.497c.388.1.794.201 1.22.292.265.057.526.114.788.148a3.496 3.496 0 0 0 1.008.007c.18-.023.33-.055.483-.094.308-.078.504-.15.684-.218.217-.082.296-.128.296-.128a.162.162 0 0 0 .025-.322zM36.86 80.345l.695.348c.42.21.965.501 1.568.85.346.2.696.42 1.046.65.33.216.647.45.936.695.298.251.56.514.747.806.243.382.366.811.194 1.314-.306.958-1.173 1.213-2.134 1.215-2.183.003-4.84-1.22-4.84-1.22a.161.161 0 1 0-.155.282s1.562 1.01 3.331 1.597c.858.285 1.76.455 2.565.401 1.126-.074 2.046-.609 2.564-1.765.48-1.133.235-2.15-.42-3.01a4.387 4.387 0 0 0-.872-.852 6.693 6.693 0 0 0-1.224-.72 9.038 9.038 0 0 0-1.284-.47 12.597 12.597 0 0 0-1.841-.372c-.5-.06-.802-.063-.802-.063a.162.162 0 0 0-.073.314zM13.152 77.481a.16.16 0 0 0 .188-.147l.165-1.999a.187.187 0 0 0-.169-.199c-5.761-.65-8.345 1.476-9.034 4.507-.705 3.1.613 7.231 2.66 10.516 2.31 3.694 8.045 7.156 14.727 7.523 5.064.278 10.66-1.22 15.705-5.688a.78.78 0 0 0 .173-.93c-2.363-4.663-5.036-7.244-7.884-8.592-2.234-1.057-4.58-1.365-6.974-1.309-3.35.078-6.797.881-10.204 1.14-2.062.173-3.21-1.288-3.136-2.654.072-1.336 1.273-2.502 3.783-2.168zm-.032-1.987c-5.247-.41-7.619 1.483-8.183 4.285-.594 2.951.78 6.824 2.796 9.887 2.246 3.425 7.725 6.515 14.013 6.74 4.592.162 9.622-1.217 14.157-5.168-2.091-3.929-4.416-6.149-6.896-7.357-2.523-1.229-5.202-1.405-7.95-1.267-2.804.14-5.671.588-8.497.685-2.701.072-4.084-1.934-3.876-3.708.179-1.532 1.543-2.96 4.344-2.46z"/></g></g></svg>