<svg data-id="77-2e293bd2a45acee-smile" xmlns="http://www.w3.org/2000/svg" viewBox="0 0 100 100"><g fill="none" fill-rule="evenodd"><path fill="#a9c0dd" d="M49.941 88.171c16.555-.308 8.707-26.45 30.987-24.855 4.086 21.009-14.484 25.806-30.664 26.515z"/><path fill="#fff" d="M71.1 65.016c2.428-1.32 5.564-2.01 9.778-1.709.846 4.35.721 8.006-.153 11.074-.365 1.278-2.16-1.516-8.315 3.374-.614-3.01 2.281-7.008 2.281-7.008s-4.838.631-6.783 4.454c-.997-2.85 1.671-9.357 3.193-10.185z"/><path fill="#a9c0dd" d="M51.073 86.133c14.75 7.491 20.086-19.255 38.996-7.4-6.247 20.454-24.882 15.977-39.49 9.016z"/><path fill="#fff" d="M80.64 75.655c2.762-.026 5.853.835 9.43 3.078-1.295 4.235-3.12 7.401-5.33 9.698-.92.957-1.193-2.35-8.918-.922.87-2.944 5.299-5.114 5.299-5.114s-4.565-1.712-8.073.75c.457-2.984 5.862-7.473 7.593-7.49z"/><path d="M51.073 86.133c14.75 7.491 20.086-19.255 38.996-7.4-6.247 20.454-24.882 15.977-39.49 9.016z"/><path fill="#a9c0dd" d="m39.899 64-1.769 1.511c-3.849 3.29-7.326 8.18-8.202 14.649S33.803 92 40.683 92h6.198c6.867 0 11.92-4.937 10.783-11.647-1.138-6.709-4.378-11.55-8.23-14.842L47.665 64z"/><path fill="#fff" d="M43.824 91.5c3.783 0 6-.786 6-5.227s-2.686-10.453-6-10.453-6 6.012-6 10.453 2.217 5.227 6 5.227z"/><path fill="#a9c0dd" d="M71.883 9.247c6.137 7.427 5.46 24.377 5.122 29.267 1.28 2.72 1.893 5.698 1.893 8.818 0 12.9-10.496 23.358-35.037 23.358S8.824 60.232 8.824 47.332c0-3.12.614-6.097 1.892-8.818-.337-4.89-1.014-21.84 5.123-29.267 8.633.307 14.51 8.517 17.935 15.403 3.055-.442 6.414-.676 10.087-.676s7.032.234 10.088.676c3.425-6.886 9.301-15.096 17.934-15.403z"/><path fill="#fff" d="M43.824 70.2c11.947 0 25-2.977 25-8.5s-10.273-15-25-15-25 9.477-25 15 13.053 8.5 25 8.5z"/><path fill="#ffe5cd" d="M71.512 11.021c5.059 6.123 4.91 18.557 4.369 25.437-3.184-5.057-8.966-9.017-17.726-11.028 2.953-6.177 7.448-12.963 13.357-14.409zm-55.092.311c6.062 1.151 10.609 7.895 13.55 14.008-8.57 1.889-14.343 5.617-17.662 10.411-.443-7.053-.335-18.424 4.112-24.419z"/><path fill="#ffc2c2" d="M38.941 63.508s.212 5.95 4.794 6.028 5.206-5.858 5.206-5.858-3.348.483-4.966-2.085c-1.657 2.512-5.034 1.915-5.034 1.915z"/><g fill="#414e62"><path d="M25.348 12.8c3.835 3.09 6.75 7.64 8.8 11.76 1.522-.2 3.116-.36 4.786-.46a83.038 83.038 0 0 1 10.155.05c1.694.12 3.241.18 4.78.41 2.083-4.1 4.979-8.72 8.842-11.76 2.635-2.08 5.996-3.453 9.497-3.553 2.728 2.74 3.953 7.063 4.78 11.383 1.363 7.15.948 14.99.77 18.17.647 1.37 1.067 2.75 1.393 4.23.328 1.5.496 3.05.51 4.63.04 6.344-2.38 12.12-7.654 16.453 2.365-1.01 5.316-1.496 9.087-1.213.333.03.608.27.671.6.858 4.654.644 8.53-.385 11.752 2.73.1 5.77 1.04 9.233 3.238.283.18.411.52.314.84-2.593 8.19-7.09 12.45-12.492 14.18-6.997 2.23-15.554.14-23.438-3.214-2.033 1.716-4.812 2.728-7.964 2.754l-6.197.05c-3.626.01-6.71-1.37-8.777-3.62-2.137-2.32-3.19-5.56-2.678-9.08.49-3.12 1.544-5.88 2.977-8.25.238-.394.486-.778.743-1.15-7.108-1.135-12.56-3.399-16.508-6.43-5.69-4.37-8.307-10.34-8.285-16.91.007-1.59.167-3.14.49-4.65.318-1.48.792-2.91 1.43-4.29-.202-3.2-.483-10.93.823-18.09.8-4.38 2.202-8.55 4.552-11.37 2.393-.67 7.08 1.4 9.745 3.54zm52.774 64.36c-2.84.66-5.329 2.23-7.716 3.97-1.644 1.19-3.242 2.46-4.853 3.59-1.307.92-2.62 1.74-3.98 2.35-1.504.68-3.055 1.11-4.698 1.135a9.995 9.995 0 0 1-1.47 1.728c7.702 3.034 15.979 4.85 22.685 2.537 4.913-1.69 8.948-5.64 11.258-13.02-4.423-2.63-8.044-3.04-11.226-2.29zm-43.975-6.001-.293.477c-.201.337-.396.682-.584 1.034a21.981 21.981 0 0 0-2.49 7.92c-.383 3.05.584 5.81 2.446 7.81 1.808 1.94 4.464 3.15 7.61 3.16h.062l6.135.05c3.184.03 5.97-1.05 7.853-2.93 1.94-1.93 2.92-4.7 2.414-7.91-.48-3.06-1.407-5.73-2.638-8.05-.282-.53-.58-1.04-.891-1.533-2.972.41-6.22.628-9.758.633-3.58-.009-6.865-.237-9.866-.661zm35.292-3.57c-2.196 1.92-3.657 4.47-4.949 7.13-.89 1.83-1.703 3.7-2.596 5.45-.723 1.43-1.498 2.77-2.41 3.95a13.983 13.983 0 0 1-1.408 1.57 9.609 9.609 0 0 1-.73 1.736c1.329-.18 2.58-.63 3.787-1.255 1.266-.66 2.482-1.51 3.695-2.43 1.954-1.5 3.887-3.2 5.945-4.68 2.148-1.55 4.433-2.85 6.984-3.45.744-.177 1.51-.295 2.303-.344.975-3.004 1.177-6.608.367-10.926-5.137-.24-8.527 1.1-10.988 3.25zm-1.577-.709-.331.181c-1.913 1.01-4.068 1.885-6.474 2.599a49.007 49.007 0 0 1-6.435 1.405c.266.408.522.83.767 1.265 1.337 2.36 2.366 5.11 2.943 8.27a11.2 11.2 0 0 1 .13 3.215l.039-.054.17-.241c.807-1.17 1.484-2.49 2.12-3.88 1.023-2.23 1.93-4.65 3.052-6.92 1.065-2.153 2.322-4.182 4.02-5.84zM72.03 9.86c-3.384.16-6.4 1.43-8.932 3.47-3.835 3.09-6.72 7.67-8.738 11.78a.305.305 0 0 1-.299.16 62.36 62.36 0 0 0-5.01-.49c-1.609-.1-3.287-.15-5.037-.14-1.749.01-3.426.07-5.032.18-1.75.13-3.416.31-5 .54a.377.377 0 0 1-.4-.21c-2.047-4.06-4.96-8.6-8.804-11.63-2.46-1.94-5.304-3.27-8.55-3.43-2.13 2.71-3.367 6.63-4.08 10.74-1.246 7.18-.87 14.93-.647 17.97a.605.605 0 0 1-.059.31 19.115 19.115 0 0 0-1.37 4.17 21.37 21.37 0 0 0-.427 4.38c.021 6.14 2.5 11.69 7.838 15.75 5.598 4.24 14.293 6.84 26.531 6.81 6.515.01 12.026-.73 16.607-2.06 4.014-1.16 7.308-2.78 9.924-4.75 5.357-4.05 7.856-9.6 7.896-15.75.013-1.5-.119-2.97-.405-4.39a19.047 19.047 0 0 0-1.358-4.2.526.526 0 0 1-.049-.26c.246-3.05.67-10.81-.52-18.02-.7-4.23-1.88-8.16-4.079-10.93z"/><path d="M47.57 73.54s-.107.29-.229.78c-.119.47-.245 1.12-.313 1.85-.042.44-.049.9-.02 1.37.028.48.108.95.233 1.4.114.4.277.78.481 1.12.57.91 1.431 1.51 2.662 1.47 1.264-.07 2.093-.74 2.566-1.76.34-.74.504-1.64.545-2.54.085-1.87-.297-3.69-.297-3.69-.013-.08-.094-.14-.182-.13s-.15.09-.138.18c0 0 .191 2.92-.595 4.95-.346.9-.895 1.62-1.899 1.56-.53-.02-.887-.29-1.157-.65-.206-.28-.357-.62-.485-.99-.125-.36-.23-.73-.315-1.12-.089-.41-.168-.82-.23-1.21-.11-.69-.186-1.3-.232-1.77l-.076-.77c.012-.09-.05-.17-.138-.18s-.169.05-.18.13zM34.57 73.54s-.107.29-.229.78c-.119.47-.245 1.12-.313 1.85-.042.44-.049.9-.02 1.37.028.48.108.95.233 1.4.114.4.277.78.481 1.12.57.91 1.431 1.51 2.662 1.47 1.264-.07 2.093-.74 2.566-1.76.34-.74.504-1.64.545-2.54.085-1.87-.297-3.69-.297-3.69-.013-.08-.094-.14-.182-.13s-.15.09-.138.18c0 0 .191 2.92-.595 4.95-.346.9-.895 1.62-1.899 1.56-.53-.02-.887-.29-1.157-.65-.206-.28-.357-.62-.485-.99-.125-.36-.23-.73-.315-1.12-.089-.41-.168-.82-.23-1.21-.11-.69-.186-1.3-.232-1.77l-.076-.77c.012-.09-.05-.17-.138-.18s-.169.05-.18.13zM51.135 54.41s.33-.69.956-1.56a8.69 8.69 0 0 1 1.141-1.28c.304-.28.648-.54 1.038-.77.507-.31 1.086-.59 1.801-.71 1.33-.27 2.418.08 3.277.63 1.624 1.04 2.48 2.72 2.48 2.72.032.08.126.12.21.09.081-.04.121-.13.088-.21 0 0-.628-1.97-2.22-3.35-.979-.85-2.31-1.42-4.025-1.3-.955.09-1.773.35-2.442.76-.515.32-.943.71-1.288 1.13-.278.34-.506.7-.683 1.06-.128.26-.235.5-.316.75-.146.45-.234.84-.279 1.18-.067.5-.055.8-.055.8-.017.09.041.17.128.19.088.01.172-.04.19-.13zM37.135 54.35s.011-.3-.056-.8a6.674 6.674 0 0 0-.278-1.18 5.485 5.485 0 0 0-.317-.75 5.594 5.594 0 0 0-.682-1.06 5.257 5.257 0 0 0-1.288-1.13c-.669-.41-1.488-.67-2.443-.76-1.715-.12-3.046.45-4.025 1.3-1.59 1.38-2.219 3.35-2.219 3.35-.033.08.006.17.09.21.081.03.175-.01.21-.09 0 0 .853-1.68 2.477-2.72.86-.55 1.948-.9 3.277-.63.715.12 1.294.4 1.801.71.39.23.735.49 1.038.77.462.43.84.86 1.141 1.28.627.87.957 1.56.957 1.56.017.09.101.14.188.13.088-.02.145-.1.13-.19zM66.494 56.99s.133.05.422.11c.25.05.557.11.975.16a6.966 6.966 0 0 0 1.372.05c.246-.01.5-.04.757-.08.371-.05.747-.13 1.124-.21.603-.12 1.191-.26 1.743-.39 1.481-.34 2.607-.64 2.607-.64a.162.162 0 0 0 .142-.18.165.165 0 0 0-.178-.14s-1.163-.04-2.684-.05c-.567-.01-1.17-.01-1.786 0-.385.01-.768.01-1.143.04-.259.02-.513.05-.756.09-.234.04-.455.09-.667.14-.242.07-.456.14-.66.21-.396.14-.684.27-.915.38-.269.12-.389.19-.389.19-.088.01-.152.09-.142.18s.09.15.178.14zM66.458 59.99s.12.08.39.2c.23.1.518.23.914.37.204.08.418.15.66.21.212.06.433.11.667.14.243.04.497.07.756.09.375.03.758.04 1.143.04.616.01 1.22.01 1.786.01 1.521-.02 2.684-.06 2.684-.06.09.01.17-.05.178-.14a.162.162 0 0 0-.142-.18s-1.126-.29-2.607-.64c-.552-.13-1.14-.27-1.743-.39-.377-.08-.753-.15-1.124-.21a6.74 6.74 0 0 0-.757-.08c-.237-.01-.464-.01-.683-.01-.25.01-.473.03-.689.06-.418.05-.726.11-.975.17-.289.06-.422.1-.422.1a.166.166 0 0 0-.178.14c-.01.09.054.17.142.18zM21.494 56.67s-.12-.07-.388-.19a9.162 9.162 0 0 0-.915-.38c-.205-.07-.418-.14-.66-.21-.212-.05-.433-.1-.668-.14a8.91 8.91 0 0 0-.755-.09c-.375-.03-.759-.03-1.144-.04-.616-.01-1.219-.01-1.785 0-1.522.01-2.685.05-2.685.05a.166.166 0 0 0-.178.14c-.01.09.054.17.142.18 0 0 1.127.3 2.608.64.552.13 1.14.27 1.742.39.378.08.753.16 1.125.21.257.04.511.07.756.08a6.96 6.96 0 0 0 1.373-.05c.417-.05.726-.11.975-.16.288-.06.421-.11.421-.11.09.01.17-.05.178-.14a.162.162 0 0 0-.142-.18zM21.458 59.67s-.133-.04-.42-.1a8.313 8.313 0 0 0-.976-.17 6.96 6.96 0 0 0-.69-.06c-.219 0-.445 0-.683.01-.245.01-.499.04-.756.08-.372.06-.747.13-1.125.21-.603.12-1.19.26-1.742.39-1.48.35-2.608.64-2.608.64-.088.01-.152.09-.142.18s.09.15.178.14c0 0 1.163.04 2.685.06.566 0 1.17 0 1.785-.01.385 0 .77-.01 1.144-.04.258-.02.512-.05.755-.09.235-.03.456-.08.667-.14.243-.06.456-.13.661-.21.396-.14.683-.27.915-.37.268-.12.388-.2.388-.2a.162.162 0 0 0 .142-.18.165.165 0 0 0-.178-.14zM39.092 63.69a.16.16 0 0 0-.134.03c-.037.04-.057.08-.055.13 0 0-.048.51.014 1.27.046.55.157 1.21.374 1.89.22.7.562 1.39 1.053 1.98.764.93 1.903 1.58 3.497 1.67 1.607.02 2.81-.57 3.68-1.44.707-.71 1.194-1.6 1.518-2.44.547-1.42.64-2.69.64-2.69a.646.646 0 0 0-.187-.52.615.615 0 0 0-.518-.16s-1.23.22-2.522-.21c-.719-.24-1.46-.68-2.013-1.48a.392.392 0 0 0-.337-.19.416.416 0 0 0-.34.18c-.516.86-1.25 1.35-1.982 1.63-1.354.52-2.688.35-2.688.35zm4.968-1.08a4.536 4.536 0 0 1-2.098 1.27c-1.14.33-2.233.23-2.695.16.046.21.133.57.268 1.01.23.74.615 1.69 1.246 2.51.361.47.815.88 1.383 1.16.474.24 1.035.38 1.704.37.667.01 1.23-.14 1.71-.38.56-.28 1.01-.68 1.37-1.14.767-.99 1.165-2.18 1.352-2.92-.584-.03-1.398-.14-2.214-.49-.725-.3-1.455-.78-2.026-1.55z"/><path d="M44.024 62.92c-.329.35-.81.76-1.454 1.1-.682.35-1.553.59-2.594.58-.455-.03-.863-.08-1.226-.18-.723-.19-1.28-.49-1.696-.86a3.6 3.6 0 0 1-1.043-1.54c-.224-.66-.195-1.17-.195-1.17a.164.164 0 0 1 .144-.18c.088-.01.167.06.177.15 0 0 .322 1.17 1.557 1.84.19.1.403.18.641.25.447.14.983.2 1.641.16.28-.01.538-.05.781-.1.42-.08.786-.21 1.105-.37.992-.47 1.518-1.16 1.518-1.16a.714.714 0 0 1 1.193 0s.457.77 1.436 1.33a4.54 4.54 0 0 0 1.967.58c1.077.06 1.853-.16 2.413-.51 1.213-.75 1.427-2.02 1.427-2.02a.164.164 0 0 1 .177-.15c.088.01.153.09.144.18 0 0-.076 1.49-1.37 2.53-.615.49-1.505.86-2.79.94a5.44 5.44 0 0 1-2.513-.47 5.332 5.332 0 0 1-1.44-.93z"/></g><path fill="#5f6362" d="M85.745 64.01c.497.39 2.269.367 4.441 3.083s1.747 7.427 1.851 8.657c0 .09.072.16.161.16s.161-.07.161-.16c.154-1.88.281-6.412-2.173-9.263-1.64-1.96-3.68-2.607-4.299-2.767a.173.173 0 0 0-.216.08.155.155 0 0 0 .074.21z"/><path fill="#5f6362" d="M84.61 61.07c.67.12 2.944-.008 4.905 1.139s4.715 5.955 4.392 9.99c0 .08.073.16.161.16.09 0 .162-.08.162-.16 0-4.007-2.187-9.078-4.612-10.45-2.424-1.37-4.305-1.14-5.008-1.01a.167.167 0 0 0-.16.16c0 .09.072.17.16.17z"/><path fill="#414e62" d="M44.004 24.125c1.012 0 2 .017 2.963.052-.005 4.958-1.346 8.974-3 8.974-1.657 0-3-4.03-3-9v.029c.987-.037 2-.055 3.037-.055zm-4.081.103c-.193 3.385-.996 5.923-1.956 5.923-.931 0-1.714-2.386-1.936-5.617 1.191-.13 2.427-.23 3.707-.298zm8.09-.006a68.58 68.58 0 0 1 3.892.304c-.223 3.235-1.006 5.625-1.938 5.625-.943 0-1.733-2.447-1.945-5.74z"/></g></svg>