<svg data-id="78-768ac9f372e76bc-cry" xmlns="http://www.w3.org/2000/svg" viewBox="0 0 100 100"><g fill="none" fill-rule="evenodd"><path fill="#a9c0dd" d="M60.879 81.03c9.526-2.451 26.16-10.915 34.286 4.403-9.21 11.672-26.939 5.656-34.492-2.725z"/><path fill="#fff" d="M88.054 78.008c2.45 1.273 4.712 3.201 7.1 7.187-2.771 3.956-6.382 5.185-9.412 6.175-1.263.412-3.326.297-7.367-4.988 4.561 1.504 7.006-2.042 7.006-2.042s-5.687-.17-7.48-3.132c2.069-.195 8.15 1.135 10.153-3.2z"/><path fill="#a9c0dd" d="m47.114 58-1.769 1.511c-3.849 3.29-7.326 8.18-8.202 14.649S41.018 86 47.898 86h6.198c6.867 0 11.92-4.937 10.783-11.647-1.138-6.709-4.378-11.55-8.23-14.842L54.88 58z"/><path fill="#fff" d="M51.039 85.5c3.783 0 6-.786 6-5.227 0-1.602-.35-3.409-.952-5.064-1.823-.466-2.618-1.163-1.823-3.424-.932-1.194-2.038-1.965-3.225-1.965-3.314 0-6 6.012-6 10.453s2.217 5.227 6 5.227z"/><path fill="#a9c0dd" d="M51.076 17.974c4.047 0 7.713.284 11.012.817 7.379-.182 23.713-.29 34.78 1.855-.786 8.506-8.793 11.613-12.332 12.576 1.064 2.526 1.577 5.258 1.577 8.11 0 12.9-10.496 23.358-35.037 23.358S16.039 54.232 16.039 41.332c0-2.83.505-5.542 1.553-8.052-3.55-.856-11.761-3.751-12.553-12.311 10.972-2.126 27.217-2.219 34.736-2.13 3.373-.564 7.135-.865 11.301-.865z"/><path fill="#fff" d="M51.039 64.2c11.947 0 25-2.977 25-8.5s-10.273-12-25-12-25 6.477-25 12 13.053 8.5 25 8.5z"/><path fill="#ffe5cd" d="M6.78 22.153c4.738-.88 11.369.217 18.079 2.3-3.081 2.167-5.313 4.787-6.761 7.715-3.324-.824-8.91-3.202-11.318-10.015zm88.17.26c-2.294 6.486-7.525 8.844-10.925 9.7-1.469-2.949-3.736-5.583-6.866-7.756 5.06-1.403 9.897-1.841 17.79-1.945z"/><path fill="#3ec3f7" d="M65.35 64.75a3.308 3.308 0 0 0 3.308-3.308c0-2.141-3.308-5.844-3.308-5.844s-3.307 3.703-3.307 5.844a3.308 3.308 0 0 0 3.307 3.308z"/><path fill="#fff" fill-opacity=".3" d="M65.362 55.538s1.417 1.587 2.397 3.284a2.423 2.423 0 0 1-4.846-.054l.004.138c.98-1.728 2.445-3.368 2.445-3.368z"/><path fill="#3ec3f7" d="M37.35 64.422a3.308 3.308 0 0 0 3.308-3.308c0-2.141-3.308-5.844-3.308-5.844s-3.307 3.703-3.307 5.844a3.308 3.308 0 0 0 3.307 3.308z"/><path fill="#fff" fill-opacity=".3" d="M37.362 55.538s1.417 1.587 2.397 3.284a2.423 2.423 0 0 1-4.846-.054l.004.138c.98-1.728 2.445-3.368 2.445-3.368z"/><g fill="#414e62"><path d="m62.962 63.326 1.255 1.285c-.78.152-1.583.29-2.407.412.274.42.539.855.793 1.303 1.337 2.365 2.366 5.111 2.943 8.272.31 1.71.234 3.315-.161 4.766 2.04-.715 4.247-1.48 6.532-2.108 1.878-.517 3.806-.936 5.732-1.165 2-.238 4-.267 5.935.013 2.116.305 4.159.982 6.047 2.151 2.397 1.484 4.545 3.773 6.293 7.13a.725.725 0 0 1-.071.786c-3.806 4.707-8.932 6.552-14.235 6.48-7.212-.097-14.735-3.747-19.497-8.283-2.024 1.67-4.769 2.653-7.874 2.684l-6.197.052c-3.625.01-6.71-1.376-8.777-3.624-2.137-2.324-3.19-5.563-2.677-9.083.489-3.12 1.543-5.877 2.977-8.249.257-.425.526-.839.805-1.24-.82-.129-1.618-.276-2.395-.437l1.688-1.034c3.434.584 7.28.889 11.557.872 4.355-.012 8.26-.354 11.734-.983zM77.79 77.497c-1.873.155-3.755.477-5.6.876-2.469.533-4.863 1.201-7.064 1.795a9.708 9.708 0 0 1-2.13 3.392c-.173.18-.352.354-.539.521 3.906 3.488 9.574 6.349 15.346 7.226 6.089.926 12.31-.367 16.613-5.655-1.602-2.823-3.516-4.757-5.62-6.043-1.708-1.045-3.543-1.655-5.45-1.959-1.807-.29-3.675-.309-5.556-.153zm-36.372-12.43-.044.07c-.312.493-.61 1.004-.891 1.53-1.236 2.313-2.152 4.948-2.491 7.92-.382 3.051.585 5.816 2.447 7.812 1.808 1.937 4.464 3.153 7.61 3.161h.062l6.135.052c3.184.032 5.969-1.055 7.853-2.933 1.94-1.934 2.92-4.697 2.414-7.906-.48-3.062-1.407-5.735-2.637-8.048-.291-.547-.6-1.075-.922-1.582-2.965.397-6.204.602-9.727.593-3.559-.014-6.825-.245-9.81-.668zm20.828-46.562c4.637-.166 12.722-.204 20.885.198 4.89.24 9.852.854 14.014 1.626a.66.66 0 0 1 .533.71c-.331 3.854-2.076 6.667-4.254 8.701-2.504 2.34-5.588 3.635-7.718 4.308.407 1.08.72 2.193.942 3.335.269 1.39.4 2.82.404 4.281 0 6.598-2.636 12.59-8.37 16.954-2.786 2.122-6.316 3.858-10.64 5.085l.596-1.772c3.64-1.161 6.656-2.712 9.084-4.57 5.298-4.057 7.752-9.588 7.753-15.697a21.44 21.44 0 0 0-.358-3.989 19.034 19.034 0 0 0-1.134-3.824.76.76 0 0 1 .502-1.033c1.945-.52 5.292-1.7 7.959-4.138 1.86-1.7 3.388-4.019 3.844-7.17-3.967-.762-8.564-1.243-13.157-1.558-8.14-.558-16.267-.576-20.885-.514-8.383-.976-15.732-1.007-22.045-.093-4.606-.092-12.763-.139-20.937.382-4.711.3-9.428.79-13.47 1.567.417 3.367 2.015 5.827 3.976 7.615 2.729 2.486 6.157 3.677 8.115 4.194a.485.485 0 0 1 .32.655 19.321 19.321 0 0 0-1.142 3.874 21.645 21.645 0 0 0-.352 4.032c.027 6.18 2.526 11.771 7.907 15.845 2.623 1.987 5.925 3.611 9.949 4.774l.821 1.575c-4.729-1.26-8.542-3.107-11.504-5.388-5.65-4.35-8.245-10.278-8.216-16.806.006-1.44.14-2.85.407-4.22a20.37 20.37 0 0 1 1.03-3.557c-2.094-.628-5.325-1.912-7.93-4.332-2.145-1.994-3.871-4.752-4.202-8.54a.393.393 0 0 1 .316-.423c4.157-.784 8.947-1.47 13.833-1.734 8.185-.44 16.46-.491 21.079-.353 1.73-.27 10.315-1.703 22.045 0z"/><path d="M51.251 17.974c.987 0 1.951.017 2.893.05.046.798.07 1.626.07 2.476 0 6.352-1.343 11.5-3 11.5s-3-5.148-3-11.5c0-.849.024-1.676.07-2.473a82.317 82.317 0 0 1 2.967-.053zm-4.045.1c.005.305.008.614.008.926 0 5.523-.895 10-2 10s-2-4.477-2-10c0-.205.001-.408.004-.61a68.592 68.592 0 0 1 3.767-.304zm8.017-.004c1.379.069 2.708.173 3.987.312l.003.282.001.336c0 5.523-.895 10-2 10s-2-4.477-2-10c0-.225.002-.449.004-.67zM41.387 66.333c-.452.611-.761 1.402-.925 2.304a6.637 6.637 0 0 0-.096 1.073 8.068 8.068 0 0 0 .263 2.148c.128.487.312.951.534 1.377.246.471.546.894.886 1.248.909.947 2.083 1.456 3.46 1.173 1.015-.219 1.56-.62 1.82-1.12.153-.288.232-.607.222-.96-.018-.675-.323-1.483-.645-2.322-.404-1.055-.824-2.16-.388-3.1a.161.161 0 0 0-.283-.154c-.521.828-.41 1.874-.18 2.921.212.953.538 1.895.475 2.624-.044.491-.392.758-1.224.847-.884.104-1.572-.313-2.108-.946a5.184 5.184 0 0 1-.62-.952 8.759 8.759 0 0 1-.472-1.093 10.704 10.704 0 0 1-.475-1.783c-.133-.768-.203-1.507-.131-2.192.035-.339.077-.65.172-.944.04-.079.01-.177-.068-.218s-.176-.01-.217.07zM59.524 66.407c.095.294.137.604.173.944.07.685 0 1.424-.132 2.192a10.664 10.664 0 0 1-.474 1.782 8.713 8.713 0 0 1-.474 1.094 5.232 5.232 0 0 1-.618.952c-.537.633-1.225 1.05-2.11.945-.83-.089-1.18-.355-1.222-.847-.064-.729.262-1.67.473-2.624.23-1.046.342-2.092-.178-2.92a.161.161 0 0 0-.284.153c.436.94.016 2.046-.388 3.101-.321.84-.626 1.647-.645 2.322-.01.353.07.672.22.96.263.5.807.901 1.82 1.12 1.38.283 2.554-.226 3.463-1.173.34-.355.639-.778.885-1.248.223-.426.407-.89.534-1.377a8.027 8.027 0 0 0 .263-2.148 6.637 6.637 0 0 0-.095-1.073c-.165-.902-.474-1.693-.925-2.305a.162.162 0 0 0-.286.15zM73.64 54.985s.109.1.357.28c.214.154.485.344.859.572a8.613 8.613 0 0 0 1.286.641c.24.094.494.178.755.256.377.111.768.203 1.16.297.627.15 1.245.281 1.826.404a136 136 0 0 0 2.757.55.16.16 0 0 0 .1-.306s-1.091-.54-2.534-1.214a70.84 70.84 0 0 0-1.702-.772c-.371-.16-.738-.322-1.108-.459a8 8 0 0 0-1.454-.407 8.468 8.468 0 0 0-.717-.1 12.724 12.724 0 0 0-1.031-.057c-.305-.005-.453.01-.453.01a.16.16 0 0 0-.101.305zM73.597 57.963s.062.117.227.348c.14.2.316.44.577.747a6.877 6.877 0 0 0 1.518 1.337c.299.197.615.378.932.561.507.293 1.01.566 1.485.822a109.85 109.85 0 0 0 2.26 1.185.162.162 0 0 0 .226-.037.161.161 0 0 0-.038-.225s-.791-.772-1.854-1.755a57.407 57.407 0 0 0-1.26-1.138c-.276-.24-.55-.48-.832-.699a7.58 7.58 0 0 0-.59-.417 6.398 6.398 0 0 0-.566-.318 6.726 6.726 0 0 0-.602-.268 10.284 10.284 0 0 0-.893-.304c-.272-.08-.403-.1-.403-.1a.162.162 0 0 0-.225.036.162.162 0 0 0 .038.225zM28.64 54.68s-.148-.015-.453-.01c-.265.005-.595.015-1.031.057a8.468 8.468 0 0 0-1.414.258 9.68 9.68 0 0 0-.757.25c-.37.136-.737.297-1.107.458-.592.256-1.165.522-1.703.772-1.443.673-2.535 1.214-2.535 1.214a.161.161 0 0 0 .1.306s1.2-.223 2.758-.55a75.435 75.435 0 0 0 1.826-.404c.392-.094.783-.186 1.16-.297.26-.078.515-.162.755-.256a8.412 8.412 0 0 0 1.286-.641c.375-.228.645-.418.859-.573.248-.179.357-.279.357-.279a.16.16 0 0 0-.101-.306zM40.574 48.721c-.148.078-.276.134-.421.21-.328.174-.625.315-.941.477-.223.114-.435.217-.65.332s-.424.222-.627.34c-.34.196-.662.393-.982.575a21.26 21.26 0 0 1-1.524.815c-2.081.972-3.738 1.201-3.738 1.201-.09 0-.162.072-.162.161s.073.161.162.161c0 0 1.578.21 3.739-.254.76-.163 1.585-.402 2.418-.797.314-.149.63-.32.928-.532.287-.203.558-.434.816-.697.2-.205.388-.41.56-.653.256-.357.445-.706.655-1.117a.161.161 0 1 0-.233-.222zM61.574 48.943c.21.411.399.76.654 1.117.173.242.36.448.56.653.259.263.53.494.817.697.298.211.614.383.928.532.833.395 1.658.634 2.418.797 2.16.463 3.74.254 3.74.254.088 0 .16-.072.16-.16s-.072-.162-.16-.162c0 0-1.658-.229-3.74-1.2a21.26 21.26 0 0 1-1.523-.816c-.32-.182-.643-.379-.982-.575-.203-.118-.414-.225-.628-.34s-.426-.218-.65-.332c-.315-.162-.612-.303-.94-.477-.145-.076-.273-.132-.421-.21a.161.161 0 0 0-.233.222zM28.597 57.701s-.131.021-.403.101c-.234.07-.518.157-.893.304a6.855 6.855 0 0 0-1.758 1.003c-.283.218-.556.46-.832.7-.442.384-.864.771-1.26 1.137-1.063.983-1.854 1.755-1.854 1.755a.162.162 0 0 0-.038.225.162.162 0 0 0 .225.037s.987-.499 2.262-1.185c.474-.256.977-.529 1.484-.822.318-.183.634-.364.932-.56.206-.137.404-.277.586-.424a6.877 6.877 0 0 0 .932-.914c.26-.308.436-.548.577-.747.165-.23.227-.348.227-.348a.162.162 0 0 0 .038-.225.162.162 0 0 0-.225-.037zM47.312 58.938l1.05-.462c.293-.128.62-.25.986-.392.237-.092.486-.178.744-.265.347-.117.704-.25 1.099-.274.719-.079 1.393.063 1.975.291 1.126.441 1.903 1.102 1.903 1.102a.161.161 0 1 0 .243-.212s-.622-.942-1.71-1.704a5.17 5.17 0 0 0-2.411-.903 4.242 4.242 0 0 0-1.607.186 3.89 3.89 0 0 0-.94.47 4.48 4.48 0 0 0-.935.864 4.61 4.61 0 0 0-.42.628c-.161.295-.22.46-.22.46a.161.161 0 1 0 .243.212z"/></g><path fill="#009ec9" d="M65.502 64.915a3.532 3.532 0 0 0 2.683-.786c.78-.632 1.238-1.603 1.328-2.683.025-.555-.124-1.209-.396-1.886a8.705 8.705 0 0 0-.518-1.055 15.893 15.893 0 0 0-1.194-1.768 20.637 20.637 0 0 0-1.372-1.61.712.712 0 0 0-1.063 0s-1.415 1.7-2.35 3.501c-.516.995-.885 2.017-.848 2.818a3.654 3.654 0 0 0 1.182 2.548 3.523 3.523 0 0 0 2.548.921zm-.04-8.21c-.514.582-1.278 1.505-1.89 2.471-.502.792-.924 1.6-.955 2.27-.04.816.247 1.57.755 2.13a3.07 3.07 0 0 0 2.13 1.017c.83-.104 1.505-.549 1.994-1.152a2.772 2.772 0 0 0 .61-1.995c-.015-.319-.15-.667-.311-1.04a11.326 11.326 0 0 0-.578-1.106c-.578-1.003-1.29-1.985-1.755-2.596zM37.585 64.52a3.532 3.532 0 0 0 2.683-.787c.78-.632 1.238-1.603 1.328-2.683.025-.555-.124-1.209-.396-1.886a8.705 8.705 0 0 0-.518-1.055 15.893 15.893 0 0 0-1.194-1.768 20.637 20.637 0 0 0-1.372-1.61.712.712 0 0 0-1.063 0s-1.415 1.7-2.35 3.501c-.516.995-.885 2.017-.848 2.818a3.654 3.654 0 0 0 1.182 2.548 3.523 3.523 0 0 0 2.548.921zm-.04-8.212c-.514.583-1.278 1.506-1.89 2.472-.502.792-.924 1.6-.955 2.27-.04.816.247 1.57.755 2.13a3.07 3.07 0 0 0 2.13 1.017c.831-.104 1.505-.549 1.994-1.152a2.772 2.772 0 0 0 .61-1.995c-.015-.319-.149-.667-.311-1.04a11.326 11.326 0 0 0-.578-1.106c-.578-1.003-1.289-1.985-1.755-2.596z"/></g></svg>