<svg data-id="8-ff1cc6b67c7619e-smile" xmlns="http://www.w3.org/2000/svg" viewBox="0 0 100 100"><g fill="none" fill-rule="evenodd"><path fill="#222" d="M37.872 59.192s8.891-2.95 10.717.45c.313 2.22-7.294 7.516-7.589 10.877-.23 2.626 6.428.889 6.568 3.024.297 4.52-11.99.69-11.99.69zM57.366 77.762c1.834-.238 1.29-4.118 1.203-9.568-.07-4.378.276-9.925 1.464-14.233.913-3.307-7.331.84-7.331 6.598 0 2.527.023 7.01.596 10.336.733 4.253 2.212 7.107 4.068 6.867z"/><path fill="#393939" d="M61.817 36c6.288-4.467-13.04-13.115-17.317-2-1.912 4.968-15.82 13.208-22.25 21.781-5.001 6.667-2.159 16.36 2.712 18.523 4.871 2.163 5.836-.784 7.877-2.248.48-.344-3.446 3.613-.885 5.54.961.722 12.22 4.063 12.9.419.68-3.645-7.61-2.554-8.144-3.55-.928-1.727 2.225-2.964 3.23-3.78 1.003-.815 5.527-7.307 5.633-5.737.17 2.505.45 6.292 1.501 9.182 1.148 3.154 2.647 6.163 4.814 5.45s1.051-4.304.41-7.06c-.643-2.757-.491-9.291 0-10.072.565-.9 5.274-.916 7.395-5.667 2.88-6.453 1.315-20.206 2.124-20.781z"/><path fill="#404040" d="M56.16 16.58c5.906.027 9.781.733 12.05 2.877.859-.014 1.709.019 2.526.113 3.953.459 13.893 5.099 13.893 5.099l-14.09 4.953c-.88 4.646-3.812 13.153-4.026 13.955-1.261 4.723-4.85 7.958-9.814 7.958h-1.827c-4.97 0-8.657-3.194-9.814-7.958-.21-.864-3.44-9.315-4.14-14.334l-13.317-4.574s10.414-4.64 14.366-5.099c.453-.052.916-.086 1.384-.103 2.315-2.197 6.308-2.889 12.435-2.889z"/><path fill="#000" d="M45.347 63.9c-.576.54-1.18 1.09-1.744 1.66a19.9 19.9 0 0 0-1.619 1.823c-.84 1.091-1.385 2.173-1.462 3.094-.063.844.284 1.344.864 1.653.716.381 1.894.41 2.994.526.471.05.925.12 1.306.267.368.143.667.355.802.728.215.596.111 1.021-.268 1.297-.527.383-1.442.522-2.546.518a.278.278 0 1 0-.013.557c1.268.053 2.318-.113 2.94-.53.634-.426.897-1.094.582-2.079-.19-.596-.627-.973-1.2-1.219-.972-.416-2.4-.403-3.467-.635-.614-.134-1.105-.338-1.038-.999.057-.598.395-1.253.857-1.954.19-.286.401-.579.626-.878.317-.422.665-.853 1.022-1.292a285.97 285.97 0 0 1 1.771-2.157.274.274 0 0 0-.013-.39.277.277 0 0 0-.394.01zM22.004 72.106s-5.764-3.477-9.032-9.716c-1.855-3.54-2.903-7.96-1.684-13.12.06-.25.3-.4.547-.35.248.04.415.27.382.52-.31 2.38-.105 4.61.462 6.64.261.93.6 1.83 1 2.68.693 1.48 1.58 2.82 2.6 4.02a19.355 19.355 0 0 0 3.553 3.26c.067.045.225 1.727.787 3.3.518 1.45 1.449 2.805 1.385 2.766zM52.43 62.18c-.036 1.55-.066 3.43.027 5.275.061 1.226.184 2.435.355 3.524.444 2.546 1.154 4.604 2.04 5.84.75 1.043 1.636 1.531 2.574 1.404.814-.112 1.325-.728 1.55-1.849.331-1.666.06-4.586-.029-8.186a68.57 68.57 0 0 1 .055-5.008c.078-1.66.221-3.35.447-4.99a.272.272 0 0 0-.235-.31.272.272 0 0 0-.317.23 56.82 56.82 0 0 0-.553 5.03 69.277 69.277 0 0 0-.154 5.06c.021 2.902.177 5.358.037 7.047-.056.676-.155 1.22-.349 1.601-.13.257-.308.42-.572.452-.819.101-1.485-.593-2.079-1.72-.616-1.173-1.109-2.819-1.442-4.768-.198-1.055-.33-2.23-.446-3.42a97.474 97.474 0 0 1-.352-5.212.287.287 0 0 0-.282-.28.28.28 0 0 0-.276.28z"/><path fill="#000" d="M30.954 74.387c-.435.363-.909.677-1.467.884-1.108.41-2.557.413-4.715-.538-2.797-1.235-4.999-4.818-5.52-8.973-.427-3.39.26-7.16 2.6-10.28 1.551-2.05 3.582-4.14 5.792-6.16 2.424-2.22 5.055-4.37 7.47-6.35 3.06-2.51 5.772-4.73 7.24-6.48.097-.12.273-.14.392-.04s.136.28.04.39c-1.443 1.81-4.119 4.14-7.165 6.73-2.365 2.02-4.95 4.2-7.338 6.44-2.143 2-4.129 4.05-5.635 6.07-2.18 2.9-2.81 6.4-2.422 9.56.465 3.785 2.383 7.1 4.926 8.235 1.84.823 3.071.882 4.02.536.673-.245 1.196-.687 1.693-1.16.562-.536 1.091-1.113 1.714-1.557.198-.14.352-.104.397-.093.198.045.326.167.347.394a.477.477 0 0 1-.08.312c-.036.055-.12.166-.237.321-.462.611-1.54 2.036-1.492 3.327.018.48.214.933.697 1.298.544.412 4.497 1.673 7.826 1.972 1.203.108 2.325.092 3.167-.153.672-.196 1.158-.533 1.271-1.128.182-.956-.403-1.446-1.258-1.745-1.553-.543-3.928-.498-5.376-.794-.72-.147-1.233-.405-1.438-.763-.425-.747-.186-1.489.5-2.259.824-.928 2.324-1.93 3.658-3.156 1.721-1.579 2.823-4.057 1.333-6.317-.93-1.42-2.835-2.73-6.13-3.73a.276.276 0 1 1 .16-.53c3.487 1.03 5.487 2.44 6.48 3.92 1.695 2.54.533 5.35-1.394 7.143-1.306 1.215-2.782 2.21-3.589 3.128-.442.504-.685.965-.405 1.45.08.135.255.213.478.288.308.104.7.171 1.141.226 1.476.183 3.46.215 4.828.684 1.251.428 2.026 1.198 1.77 2.596-.127.697-.563 1.193-1.228 1.518-.664.324-1.576.471-2.612.482-2.497.026-5.743-.727-7.765-1.366-1-.316-1.712-.618-1.93-.782-.974-.727-1.17-1.699-.997-2.676a4.74 4.74 0 0 1 .253-.874zM45.25 62.45a51.79 51.79 0 0 0 .36 7.132c.225 1.796.57 3.48 1.004 4.716.743 2.046 1.644 4.026 2.753 5.054.787.73 1.677 1.022 2.673.691.988-.33 1.454-1.118 1.568-2.18.161-1.517-.447-3.654-.873-5.445-.285-1.193-.42-3.109-.443-4.944-.02-1.554.038-3.044.16-3.994.051-.41.098-.7.174-.83.037-.06.114-.1.208-.15.157-.08.356-.17.588-.25 1.05-.4 2.701-.91 4.194-2.15.903-.75 1.75-1.77 2.371-3.19.314-.71.575-1.52.79-2.38.284-1.14.488-2.39.635-3.68a.282.282 0 0 0-.243-.31.278.278 0 0 0-.31.24 28.256 28.256 0 0 1-.674 3.6c-.217.82-.477 1.59-.787 2.27-.59 1.3-1.382 2.23-2.224 2.91-1.434 1.16-3.015 1.61-4.017 1.97-.609.22-1.026.46-1.189.71-.094.15-.194.47-.267.93-.125.76-.21 1.96-.239 3.287-.046 2.181.065 4.697.398 6.165.325 1.43.783 3.088.825 4.437.03.98-.132 1.794-.949 2.06-.852.277-1.547-.214-2.173-1.023-.794-1.025-1.454-2.562-2.029-4.133-.443-1.178-.784-2.789-1.057-4.504-.386-2.425-.626-5.059-.67-7.009 0-.16-.125-.28-.279-.28s-.279.12-.279.28z"/><path fill="#484848" d="m62.81 49.52.058-4.88a7.357 7.357 0 0 0-2.104-5.24 7.433 7.433 0 0 0-5.234-2.22 7.42 7.42 0 0 0-5.284 2.17 7.39 7.39 0 0 0-1.628 2.42 7.202 7.202 0 0 0-.533 2.87s.02.84.053 1.81c.045 1.26.113 2.71.113 2.71 0 .074 3.661 2.286 7.226 2.375 3.711.094 7.332-1.938 7.332-2.015z"/><g fill="#000" transform="translate(10.764 16.119)"><path d="M59.418 13.441c.087-.67.105-1.31.054-1.91a6.576 6.576 0 0 0-.427-1.86c-.06-.14.006-.3.147-.36.142-.06.306 0 .366.14.28.62.465 1.29.558 2.02.082.64.086 1.34.017 2.07l-.004.03c-.277 1.6-.78 3.65-1.348 5.69-.496 1.79-1.04 3.57-1.498 5.03-.546 1.73-.975 3.01-1.05 3.3-.663 2.45-1.93 4.52-3.677 5.98-1.763 1.46-4.012 2.31-6.62 2.3l-1.828-.01c-2.595-.01-4.85-.85-6.606-2.32-1.742-1.45-2.992-3.52-3.579-5.99-.136-.58-1.58-4.49-2.733-8.52-.59-2.06-1.104-4.16-1.333-5.88-.082-.82-.109-1.55-.08-2.18.024-.58.094-1.07.208-1.48a.28.28 0 0 1 .342-.2c.148.04.236.2.196.34-.099.38-.156.83-.173 1.36-.02.61.015 1.31.102 2.09.243 1.68.774 3.74 1.378 5.76 1.202 4.04 2.693 7.95 2.836 8.53.568 2.29 1.74 4.19 3.368 5.53 1.621 1.32 3.696 2.08 6.074 2.07l1.827-.01c2.37-.01 4.406-.79 6-2.14 1.59-1.34 2.735-3.24 3.331-5.49.078-.29.507-1.59 1.08-3.34.471-1.45 1.038-3.21 1.574-4.98.606-2 1.177-4 1.498-5.57z"/><path d="M71.465 9.201s-.417.08-1.099.25c-.217.05-.459.12-.724.19-.278.08-.579.16-.897.26-.284.09-.58.19-.885.3-1.035.36-2.178.79-3.277 1.2-2.58.95-4.899 1.84-4.899 1.84a.276.276 0 0 0-.173.35c.05.15.208.23.354.18 0 0 2.374-.73 4.997-1.56 1.117-.35 2.281-.72 3.32-1.07.307-.1.603-.2.882-.31.312-.11.603-.23.87-.34.254-.1.485-.2.69-.29.641-.29 1.022-.48 1.022-.48a.277.277 0 0 0 .173-.35.274.274 0 0 0-.354-.17zm-41.22 3.66s-.387-.19-1.038-.48c-.207-.09-.44-.19-.699-.29-.27-.11-.566-.23-.882-.34-.283-.11-.583-.21-.894-.31-1.053-.35-2.232-.72-3.364-1.07-2.658-.83-5.064-1.56-5.064-1.56a.278.278 0 0 0-.353.18c-.05.14.03.3.174.35 0 0 2.352.89 4.967 1.84 1.114.41 2.272.84 3.321 1.2.31.11.61.21.898.3.321.1.626.18.908.26.268.08.513.14.734.19.69.17 1.112.26 1.112.26.146.05.304-.03.354-.18a.278.278 0 0 0-.175-.35zm2.186-9.85a7.8 7.8 0 0 1 2.143-1.49c.748-.37 1.597-.66 2.551-.89.947-.22 2-.38 3.158-.48 1.415-.12 2.991-.16 4.74-.15 3.156.04 5.76.26 7.855.76 2.013.48 3.564 1.22 4.694 2.28l1.521-.09c.154.01.261.31.255.46-.006.16-.023.553-.177.543-.434-.235-1.013-.34-1.738-.313a.34.34 0 0 1-.194-.08c-1.088-1.01-2.585-1.67-4.523-2.08-2.059-.44-4.609-.6-7.694-.57-1.716.02-3.26.09-4.648.22-1.11.11-2.118.26-3.03.46-.892.19-1.69.43-2.405.73-.812.34-1.517.75-2.113 1.28a.317.317 0 0 1-.226.09c-.75.033-1.346.12-1.786.263-.154.01.022-.993.176-1.003.102-.006.583.014 1.441.06z"/><path d="M78.167 10.371a.29.29 0 0 0 .278-.19.269.269 0 0 0-.093-.31l-5.797-4.79c-.308-.26-.883-.51-1.643-.73-.676-.19-1.507-.37-2.415-.52-3.969-.64-9.347-.882-9.347-.882-.213-.01-.462.132-.517.332-.056.21.04.43.23.52 0 0 2.677 1.35 5.25 2.73 1.286.68 2.547 1.37 3.43 1.91.898.54 2.504.96 4.211 1.25 3.048.52 6.413.68 6.413.68zM11.063 10.291c-.089.09-.114.22-.06.33s.17.17.29.15c0 0 2.9-.39 5.523-1.08 1.438-.38 2.791-.86 3.567-1.41 1.047-.73 2.581-1.46 4.162-2.11 3.245-1.34 6.7-2.34 6.7-2.34a.448.448 0 0 0-.139-.88s-5.525.09-9.606.62c-.924.12-1.776.27-2.474.44-.757.19-1.345.41-1.689.65-.695.5-1.662 1.3-2.622 2.16a112.537 112.537 0 0 0-3.652 3.47z"/><ellipse cx="44.84" cy="24.976" rx="3" ry="2"/><path d="M41.195 30.731s.286.27.794.57c.247.15.546.3.882.42.593.21 1.291.32 1.97.3.671-.03 1.345-.2 1.928-.42.992-.38 1.716-.87 1.716-.87.131-.08.173-.25.093-.38s-.25-.18-.383-.1c0 0-.712.38-1.657.64-.522.15-1.115.25-1.698.23a5.53 5.53 0 0 1-.996-.16c-.199-.05-.393-.11-.58-.16a19.38 19.38 0 0 1-.586-.18c-.222-.07-.422-.12-.595-.18-.37-.12-.598-.19-.598-.19a.282.282 0 0 0-.383.1c-.08.13-.038.3.093.38zM41.63 18.571s-.388-.22-1.036-.39a4.943 4.943 0 0 0-1.089-.14 5.83 5.83 0 0 0-2.192.38c-.692.27-1.218.64-1.608 1.02-.805.78-1.043 1.58-1.043 1.58-.05.15.026.31.171.36s.304-.03.355-.17c0 0 .272-.64 1-1.23.353-.29.816-.55 1.412-.73.51-.15 1.025-.2 1.505-.22.2 0 .394 0 .58.01.207 0 .403 0 .585.01.174 0 .332.01.475.01.442.02.713.04.713.04.147.05.304-.03.351-.18s-.034-.3-.18-.35zM47.781 19.101s.272-.02.714-.04c.143 0 .3-.01.474-.01.182-.01.378-.01.586-.01.185-.01.38-.01.58-.01.48.02.995.07 1.505.22.595.18 1.058.44 1.411.73.73.59 1 1.23 1 1.23.051.14.21.22.355.17a.282.282 0 0 0 .172-.36s-.238-.8-1.044-1.58a4.751 4.751 0 0 0-1.607-1.02 5.837 5.837 0 0 0-2.192-.38c-.405.01-.777.06-1.089.14-.649.17-1.035.39-1.035.39a.277.277 0 0 0-.18.35c.047.15.204.23.35.18z"/></g></g></svg>