<svg data-id="81-f7763024f61cf64-music" xmlns="http://www.w3.org/2000/svg" viewBox="0 0 100 100"><g fill="none" fill-rule="evenodd"><path fill="#a9c0dd" d="M57.885 87.23c16.303 2.858 13.067-24.355 34.624-18.538 0 21.395-18.612 22.991-34.624 20.6z"/><path fill="#fff" d="M82.589 68.503c2.634-.832 5.843-.911 9.92.19 0 4.43-.82 7.992-2.264 10.835-.602 1.185-1.83-1.9-8.803 1.724-.028-3.07 3.576-6.44 3.576-6.44s-4.868-.305-7.505 3.076c-.435-2.988 3.425-8.863 5.076-9.385z"/><path fill="#a9c0dd" d="M37.592 70.517c-6.081 7.629-2.984 12.475.654 8.414-.206 1.29-.353 2.49-.401 3.495-.3 6.264 2.768 11.697 9.412 11.697h5.984c6.631 0 10.412-4.489 10.412-11.697 0-7.21-4.228-11.602-7.947-14.908L53.999 66s-12.03.923-16.407 4.517z"/><path fill="#fff" d="M44.324 93.133c2.422.362 4.5.581 4.5-3.86s-2.015-10.453-4.5-10.453-4.334 3.752-4.334 7.804c0 4.052 2.141 6.182 4.334 6.51z"/><path fill="#a9c0dd" d="M77.839 16.332c13.009 5.915 11.765 25.154 11 32.533.638 2.711.676 5.535.173 8.387C86.767 69.959 74.734 78.6 50.562 74.33S18.277 57.496 20.526 45.4c.609-3.278 1.906-6.359 3.954-9.025l-.088.025s-1.193-14.383 4.22-24.053c13.564.356 19.9 10.75 21.875 14.843 2.518.137 5.21.451 8.076.958a74.751 74.751 0 0 1 7.292 1.65c1.441-3.37 5.477-11.382 11.983-13.466z"/><path fill="#ffe5cd" d="M30 13.553c7.709 1.467 12.593 8.858 14.972 13.561-8.524.39-14.525 3.077-18.424 7.196-.041-4.853.322-14.427 3.451-20.757zm47.122 4.017c7.338 6.908 7.432 16.143 6.537 21.93-3.582-3.775-8.94-6.981-16.313-9.261 1.95-4.1 5.392-10.106 9.776-12.67z"/><path fill="#fff" d="M45.033 72.911c14.084 3.622 23.475 2.238 24.587-4.062s-5.18-19.833-23.354-23.043c-18.174-3.21-21.856 8.901-22.47 12.38-.615 3.48 8.438 11.434 21.237 14.725z"/><g fill="#414e62"><path d="M83.056 67.917c2.646-.705 5.833-.695 9.797.394a.739.739 0 0 1 .546.713c-.086 8.587-3.139 13.983-7.8 17.212-5.915 4.097-14.474 4.659-22.828 3.832a10.12 10.12 0 0 1-.968 1.447c-1.88 2.338-4.727 3.666-8.41 3.698l-5.984.036c-3.657-.01-6.322-1.531-7.996-3.923-1.587-2.268-2.269-5.334-2.065-8.6.128-1.788.564-4.19 1.123-6.596.409-1.76.874-3.523 1.3-5.047l.625.225a156.056 156.056 0 0 0-.96 5.017c-.408 2.369-.748 4.72-.79 6.464-.098 2.923.574 5.638 2.026 7.64 1.438 1.983 3.67 3.24 6.737 3.232h.14l5.844.037c3.192.028 5.69-1.05 7.36-3.045 1.587-1.898 2.432-4.594 2.467-7.896.034-2.787-.59-5.145-1.579-7.181l1.078-.054c.998 2.059 1.638 4.438 1.671 7.235a17.836 17.836 0 0 1-.311 3.62c1.042-.543 1.97-1.262 2.827-2.103 1.02-1 1.934-2.165 2.823-3.406 1.432-2 2.782-4.195 4.317-6.211.553-.726 1.13-1.43 1.741-2.094l2.622-.376c-1.546 1.308-2.863 2.898-4.109 4.554-1.222 1.626-2.378 3.309-3.589 4.86-.982 1.258-1.998 2.43-3.12 3.412-1.123.984-2.345 1.786-3.729 2.303a12.36 12.36 0 0 1-.84 2.27c8.095.582 16.32-.154 21.943-4.242 4.204-3.055 6.907-8.014 6.958-15.746-4.507-1.096-7.864-.662-10.552.638z"/><path d="M38.308 78.047c-.47.711-1.774 2.317-2.785 1.756-.463-.256-.683-.65-.743-1.164-.063-.559.017-1.204.183-1.877.655-2.645 2.52-5.634 2.52-5.634a.161.161 0 0 0-.265-.185s-2.907 3.703-3.53 6.602c-.322 1.495-.002 2.767 1.158 3.48.685.411 1.477.363 2.316-.054a5.32 5.32 0 0 0 1.459-1.052c.375-.37.157-2.583-.313-1.872zM50.56 74.677c.174.46 1.648 3.065 1.361 5.385-.058.475-.235.894-.729 1.13-.862.43-1.559.12-2.115-.453-1.329-1.37-1.997-3.954-1.997-3.954a.161.161 0 1 0-.317.058s.331 2.875 1.563 4.534c.784 1.056 1.904 1.598 3.398 1.067 1.215-.455 1.785-1.429 1.785-2.614 0-2.448-1.78-4.72-2.042-5.048-.526-.66-1.087-.582-.907-.105z"/><path d="M78.263 15.855c5.517 1.518 14.783 10.894 11.381 35.966a16.913 16.913 0 0 1-.03 5.682c-2.756 15.604-19.611 20.913-38.653 17.55S17.545 61.29 20.375 45.271c.606-3.43 1.864-6.348 3.655-8.782-.44-8.62 1.825-21.42 4.78-24.666 4.811-.18 15.026 1.882 22.131 15 2.72.126 5.524.445 8.372.948 2.126.376 4.184.876 6.16 1.485 4.366-9.251 9.74-12.81 12.79-13.402zm-.277.867c-2.795 1.342-5.964 2.874-11.668 13.957a48.38 48.38 0 0 0-7.677-2.01c-18.229-3.22-34.57 1.425-37.281 16.777-2.712 15.351 11.048 25.313 29.277 28.533 18.228 3.22 34.366-1.87 37.007-16.824.339-1.915.321-3.835-.017-5.725 2.208-11.496.574-30.371-9.64-34.708zm-48.72-3.98c-2.867 5.207-4.202 16.512-3.823 22.046 5.158-5.55 13.515-8.068 23.14-8.025-5.075-10.352-14.523-14.057-19.317-14.022z"/><path d="M58.64 28.234c.468.083.93.17 1.385.26l-.101.259-.12.3c-1.864 4.609-4.45 7.91-5.778 7.374-1.272-.515-.925-4.37.748-8.748 1.248.136 2.536.32 3.865.555zm-4.759-.645c-1.449 3.197-3.102 5.4-3.89 5.08-.7-.282-.506-2.473.375-5.279a47.68 47.68 0 0 1 3.456.193zm6.875 1.056c1.147.245 2.249.515 3.307.811-1.443 3.163-3.079 5.334-3.86 5.018-.735-.297-.487-2.689.504-5.687zM34.146 54.53a2.25 2.25 0 0 0 2.25-2.25c0-2.938-9-2.439-9-.563 0 .75 4.5-.68 4.5.562s1.007 2.25 2.25 2.25zM55.812 58.35a2.25 2.25 0 0 0 2.25-2.25c0-2.937-9-2.438-9-.563 0 .75 4.5-.68 4.5.563s1.007 2.25 2.25 2.25z"/></g><path fill="#227fbb" fill-rule="nonzero" d="M9.2 72.623c.599-.28 1.072-.719 1.421-1.319s.275-1.432-.223-2.498l-3.106-6.653c1.724-.845 2.854-.525 3.388.96l.783-.365c-.495-1.173-.995-1.969-1.502-2.388s-1.05-.615-1.627-.59c-.578.024-1.476.334-2.694.93l3.632 7.778c-.628-.011-1.148.08-1.561.272-.642.3-1.079.732-1.311 1.298s-.221 1.122.035 1.672.632.906 1.127 1.072 1.04.11 1.639-.169zM5.681 49.598c.655.08 1.29-.042 1.905-.365s.993-1.07 1.136-2.237l.896-7.293c1.911.198 2.7 1.07 2.365 2.613l.857.105c.203-1.257.201-2.198-.007-2.822s-.563-1.08-1.066-1.365c-.503-.285-1.43-.499-2.779-.64l-1.047 8.525c-.526-.342-1.016-.542-1.469-.597-.703-.087-1.303.048-1.8.404s-.783.836-.857 1.437.054 1.105.386 1.508.825.646 1.48.727z"/><path fill="#414e62" d="M66.415 68.087s.114.08.373.22c.223.12.5.265.883.432a7.595 7.595 0 0 0 1.295.434c.238.055.488.098.744.134.37.052.75.082 1.131.113.61.05 1.208.085 1.771.115 1.51.082 2.667.115 2.667.115a.16.16 0 0 0 .186-.13.16.16 0 0 0-.13-.187s-1.098-.364-2.546-.804a64.62 64.62 0 0 0-1.703-.498c-.369-.101-.737-.202-1.102-.28a7.097 7.097 0 0 0-1.422-.177c-.249-.006-.472 0-.688.013-.418.026-.727.068-.978.104-.29.042-.425.079-.425.079a.16.16 0 0 0-.056.317zM65.857 71.03s.078.099.277.29c.17.163.376.357.68.6a6.6 6.6 0 0 0 1.047.69c.2.103.412.197.631.285.32.127.651.235.984.345.534.176 1.06.334 1.555.48 1.333.396 2.357.669 2.357.669.081.036.176 0 .213-.081a.162.162 0 0 0-.082-.213s-.887-.58-2.072-1.307a52.18 52.18 0 0 0-1.397-.836c-.304-.174-.606-.35-.914-.501a6.2 6.2 0 0 0-1.846-.598 9.471 9.471 0 0 0-.9-.104c-.276-.02-.402-.013-.402-.013a.161.161 0 1 0-.13.294zM26.615 57.696s-.096-.076-.328-.212a9.197 9.197 0 0 0-.78-.414 6.347 6.347 0 0 0-.568-.234 5.63 5.63 0 0 0-1.24-.293c-.33-.045-.667-.067-1.007-.091a46.817 46.817 0 0 0-1.578-.081c-1.35-.053-2.377-.064-2.377-.064a.16.16 0 1 0-.056.317s.97.34 2.255.753c.48.153.986.314 1.511.464.327.093.653.188.978.258a5.507 5.507 0 0 0 1.265.149c.224.002.42-.008.614-.026.378-.034.648-.08.874-.122.265-.048.381-.087.381-.087a.161.161 0 1 0 .056-.317zM40.23 61.112s-.138-.112-.452-.277a2.386 2.386 0 0 0-.502-.176c-.18-.05-.358-.046-.557-.041a1.695 1.695 0 0 0-.598.15c-.17.07-.327.179-.46.31a1.78 1.78 0 0 0-.539 1.173c-.006.705.196 1.22.631 1.552.235.18.485.323.76.406.592.18 1.14.175 1.14.175a.161.161 0 0 0 .056-.318s-.64-.281-1.074-.777c-.177-.203-.227-.464-.11-.791.038-.133.147-.188.23-.257.076-.064.145-.133.232-.181.186-.103.335-.22.51-.297.431-.193.676-.334.676-.334a.16.16 0 0 0 .186-.13.16.16 0 0 0-.13-.187z"/><path fill="#414e62" d="M39.708 64.066s-.137-.112-.45-.276a2.279 2.279 0 0 0-.503-.176c-.18-.05-.358-.046-.557-.042a1.676 1.676 0 0 0-.598.152c-.17.07-.327.178-.46.309a1.785 1.785 0 0 0-.539 1.172c-.006.706.196 1.22.631 1.553.235.179.485.322.76.406.592.18 1.14.174 1.14.174a.162.162 0 0 0 .186-.13.162.162 0 0 0-.13-.187s-.64-.281-1.073-.777c-.178-.203-.228-.464-.11-.791.037-.133.146-.19.23-.258.075-.063.144-.133.231-.181.186-.103.335-.22.51-.297.431-.193.676-.333.676-.333a.162.162 0 0 0 .187-.131.163.163 0 0 0-.13-.187zM26.043 60.65s-.082-.042-.304-.108a5.885 5.885 0 0 0-.697-.172 3.816 3.816 0 0 0-1.494.014c-.259.052-.516.127-.776.2a30.78 30.78 0 0 0-1.198.375 58.769 58.769 0 0 0-1.788.619.16.16 0 1 0 .048.318s.81.048 1.89.074c.401.009.82.017 1.255.01.271-.005.538-.007.801-.033a3.57 3.57 0 0 0 .984-.22 4.04 4.04 0 0 0 .45-.2c.281-.146.457-.26.617-.367.193-.128.26-.191.26-.191a.161.161 0 0 0-.048-.32z"/></g></svg>
