<svg data-id="84-143d44cc4b802de-cat" xmlns="http://www.w3.org/2000/svg" viewBox="0 0 100 100"><g fill="none" fill-rule="evenodd"><path fill="#a9c0dd" d="M49.941 87.172c16.555-.307 8.707-26.45 30.987-24.855 4.086 21.009-13.547 26.021-30.66 26.655z"/><path fill="#fff" d="M71.102 64.017c2.427-1.32 5.563-2.01 9.777-1.709.846 4.35.721 8.006-.153 11.074-.365 1.278-2.16-1.516-8.315 3.374-.614-3.01 2.281-7.008 2.281-7.008s-4.838.631-6.783 4.454c-.997-2.85 1.671-9.357 3.193-10.185z"/><path fill="#a9c0dd" d="M34.332 63s-4.95 8.97-3.617 14.268c-.306 6.265 1.807 13.855 8.45 13.855h7.076c6.631 0 10.412-4.489 10.412-11.697 0-7.21-4.228-11.602-7.947-14.908L46.999 63z"/><path fill="#fff" d="M38.824 90.5c2.85.673 6-.786 6-5.227s-2.686-10.453-6-10.453-4.492 5.581-4.492 10.022 1.643 4.985 4.492 5.658z"/><path fill="#a9c0dd" d="M67.24 11.167C82.18 17.67 80.813 36.203 80.25 43.304c.781 2.61 1 5.365.703 8.185-1.355 12.835-12.896 22.139-37.315 19.562-24.418-2.577-32.82-15.21-31.588-27.17.32-3.102 1.285-6.066 2.966-8.712-.333-4.742-.695-16.545 3.03-24.707 13.593-.59 20.324 9.665 22.437 13.7a69.927 69.927 0 0 1 8.06.406c2.589.274 5.007.647 7.262 1.112.937-3.52 3.916-11.926 11.434-14.513z"/><path fill="#ffe5cd" d="M19.025 11.994c7.768.924 13.146 7.913 15.856 12.442-8.128.861-14.036 3.55-17.932 7.425-.33-5.083-.418-13.791 2.076-19.867zm47.89.956c7.842 6.413 8.306 15.587 7.627 21.35-3.834-3.581-9.441-6.46-17.045-8.248 1.77-4.378 5.019-10.856 9.418-13.102z"/><path fill="#fff" d="M38.16 70.178c14.306 2.632 23.58.597 24.252-5.766s-6.341-21.42-24.7-23.357c-18.358-1.938-21.399 12.394-21.77 15.909S25.16 67.785 38.16 70.178z"/><g fill="#414e62" transform="translate(8.773 5.05)"><path d="M67.126 56.988c1.537-.226 3.257-.282 5.195-.134a.737.737 0 0 1 .67.595c1.556 8.446-.412 14.326-4.372 18.385-5.313 5.447-14.285 7.577-23.121 8.24-1.869 1.96-4.528 3.06-7.878 3.09l-5.984.035c-3.657-.007-6.324-1.529-8.001-3.92-1.59-2.268-2.274-5.336-2.07-8.604a79.65 79.65 0 0 1 .36-3.665l1.043 1.814c-.04.673-.07 1.317-.085 1.916-.103 2.921.566 5.635 2.017 7.637 1.438 1.983 3.669 3.241 6.736 3.235l.139.001 5.845.035c3.192.027 5.689-1.05 7.357-3.047 1.587-1.898 2.43-4.593 2.465-7.894.038-3.216-.801-5.862-2.064-8.099l-.116-.196 1.011-.208c1.314 2.229 2.222 4.86 2.337 8.04l.012.463c.018 1.842-.206 3.516-.654 4.995a12.408 12.408 0 0 0 1.929-2.228c.808-1.174 1.485-2.494 2.12-3.882 1.024-2.236 1.93-4.648 3.053-6.92.427-.865.885-1.71 1.39-2.52l2.48-.81c-1.297 1.596-2.303 3.436-3.223 5.327-.89 1.83-1.703 3.702-2.596 5.456-.723 1.422-1.498 2.766-2.411 3.944-.92 1.185-1.97 2.208-3.235 2.98a10.455 10.455 0 0 1-1.52 2.511c8.442-.893 16.908-3.155 21.873-8.48 3.543-3.802 5.25-9.186 3.826-16.785-2.318-.108-4.28.105-5.962.568z"/><path d="M23.558 63.21c-.632.423-1.21 1.078-1.695 1.897a7.25 7.25 0 0 0-.477.991 8.76 8.76 0 0 0-.548 2.14 7.093 7.093 0 0 0-.024 1.503c.048.541.16 1.056.335 1.521.487 1.298 1.404 2.25 2.829 2.46 1.025.14 1.673-.05 2.089-.429.24-.219.423-.49.534-.825.258-.77.177-1.872.186-2.957.009-.947.092-1.877.703-2.49a.16.16 0 0 0 .014-.227.16.16 0 0 0-.227-.014c-.772.601-1.025 1.622-1.164 2.684-.128.97-.142 1.966-.452 2.63-.21.448-.63.582-1.444.381-.75-.177-1.206-.696-1.485-1.354-.191-.449-.282-.969-.327-1.518a10.16 10.16 0 0 1-.02-1.238c.026-.635.098-1.277.222-1.898.158-.795.36-1.536.669-2.167.156-.319.306-.605.5-.852a.161.161 0 0 0-.218-.238zM39.567 66.842c.09.287.134.584.174.907.08.664.029 1.37-.086 2.096a10.7 10.7 0 0 1-.254 1.146 7.487 7.487 0 0 1-.634 1.574c-.565 1.05-1.393 1.85-2.648 1.691-.826-.087-1.174-.349-1.217-.837-.065-.728.26-1.669.469-2.623.23-1.047.34-2.093-.182-2.922a.161.161 0 0 0-.284.154c.434.94.013 2.045-.393 3.1-.323.84-.628 1.647-.648 2.323-.01.354.07.675.22.965.264.501.81.904 1.827 1.124 1.362.28 2.499-.17 3.374-1.019.345-.335.647-.74.89-1.197.219-.41.397-.863.516-1.337a7.32 7.32 0 0 0 .22-2.078 6.142 6.142 0 0 0-.121-1.029c-.18-.843-.492-1.589-.937-2.187a.161.161 0 0 0-.286.149z"/><path d="M58.626 5.945c5.61 1.13 15.582 9.473 13.935 34.72.436 1.854.569 3.754.366 5.673C71.264 62.1 54.815 68.572 35.58 66.542S1.277 55.138 2.985 38.957c.366-3.467 1.42-6.468 3.039-9.023-.986-8.48.795-20.663 3.04-24.79 4.788-.515 15.128.71 23.133 13.275 2.723-.064 5.544.06 8.423.363 2.124.224 4.19.574 6.181 1.037 3.578-9.183 8.856-12.982 11.825-13.874zm-.124 1.176c-2.587.935-5.76 2.621-10.69 14.074a48.439 48.439 0 0 0-7.8-1.47C21.598 17.78 5.616 23.554 3.98 39.061c-1.637 15.507 12.788 24.49 31.202 26.432 18.413 1.943 34.161-4.26 35.755-19.366a16.296 16.296 0 0 0-.416-5.712c1.403-11.581-1.526-29.68-12.02-33.295zM9.59 5.877c-2.499 5.397-3.043 16.77-2.28 22.265 4.76-5.897 12.925-8.992 22.531-9.619C24.057 8.547 14.372 5.507 9.591 5.877z"/><path d="M38.956 19.13c.475.033.943.071 1.405.114l-.074.267-.087.311c-1.372 4.78-3.6 8.335-4.976 7.94-1.32-.379-1.377-4.25-.171-8.78 1.255.004 2.556.053 3.903.148zm-4.8-.144c-1.108 3.331-2.521 5.695-3.338 5.461-.726-.208-.763-2.408-.18-5.291a47.69 47.69 0 0 1 3.457-.17zm6.948.331c1.167.123 2.291.277 3.374.46-1.104 3.298-2.504 5.628-3.315 5.396-.76-.219-.765-2.623-.092-5.71z"/><ellipse cx="17.73" cy="45.052" rx="3" ry="3.5"/><ellipse cx="35.526" cy="47.928" rx="3" ry="3.5"/><path d="M50.404 58.814s.102.04.349.092c.208.046.45.095.8.136a5.057 5.057 0 0 0 1.11.011c.197-.02.4-.058.603-.103.296-.065.59-.154.889-.242.478-.14.937-.292 1.372-.438 1.17-.39 2.048-.714 2.048-.714a.162.162 0 0 0 .13-.186.162.162 0 0 0-.186-.13s-.934-.007-2.168.024c-.46.011-.942.025-1.44.055-.31.02-.617.035-.918.075a5.566 5.566 0 0 0-.601.11c-.187.044-.36.1-.526.162a5.366 5.366 0 0 0-.515.224 7.883 7.883 0 0 0-.706.4c-.214.135-.296.206-.296.206a.161.161 0 0 0 .055.318zM50.046 61.8s.082.063.297.182c.18.101.389.213.703.348a4.571 4.571 0 0 0 1.607.375c.292.018.588.012.887.008a39.06 39.06 0 0 0 1.384-.05c1.188-.059 2.084-.133 2.084-.133a.161.161 0 0 0 .177-.143.161.161 0 0 0-.144-.177s-.86-.258-2.01-.563c-.427-.113-.876-.23-1.344-.337-.292-.066-.58-.133-.868-.176a5.246 5.246 0 0 0-.585-.059 4.592 4.592 0 0 0-1.066.092 7.135 7.135 0 0 0-.76.193c-.235.073-.328.118-.328.118a.161.161 0 0 0-.034.321zM9.975 51.236s-.066-.087-.247-.263a7.836 7.836 0 0 0-.608-.538 4.966 4.966 0 0 0-1.503-.827c-.286-.1-.583-.18-.883-.264a40.95 40.95 0 0 0-1.396-.353c-1.201-.287-2.116-.476-2.116-.476a.162.162 0 0 0-.21.09.16.16 0 0 0 .09.21s.79.498 1.854 1.124c.396.232.813.476 1.25.713.274.148.544.296.82.422.19.086.38.164.569.225a5.198 5.198 0 0 0 1.088.221c.35.033.598.034.81.033.254 0 .36-.018.36-.018a.162.162 0 0 0 .21-.089.162.162 0 0 0-.088-.21zM9.618 54.21s-.062-.059-.253-.18a5.385 5.385 0 0 0-.598-.336 3.618 3.618 0 0 0-.874-.296 3.657 3.657 0 0 0-.501-.055c-.25-.013-.504-.003-.761.005-.414.014-.81.042-1.19.07-1.027.078-1.79.164-1.79.164a.16.16 0 1 0-.034.32s.729.244 1.718.533c.366.107.747.216 1.149.316.25.061.495.124.743.163a3.187 3.187 0 0 0 .956.027c.173-.02.315-.048.462-.084.297-.074.48-.14.655-.205.21-.078.284-.123.284-.123.089.01.168-.055.177-.143s-.055-.168-.143-.177zM32.59 42.782s.407-.406 1.08-.946c.313-.25.68-.5 1.1-.753.275-.165.572-.316.892-.456.423-.184.883-.362 1.42-.407a3.48 3.48 0 0 1 2.393.568c1.22.807 1.854 2.03 1.854 2.03a.16.16 0 0 0 .208.092.16.16 0 0 0 .093-.207s-.405-1.493-1.577-2.633c-.716-.697-1.713-1.205-3.02-1.272-.744-.01-1.421.112-2.006.364a4.4 4.4 0 0 0-1.14.724c-.173.15-.33.304-.468.47-.225.27-.416.53-.563.795-.184.333-.307.62-.392.875-.13.39-.165.617-.165.617a.162.162 0 0 0 .29.14zM24.54 57.99s.287-.017.922-.069c.159-.012.318-.015.513-.037.105-.012.212-.02.327-.039.116-.018.236-.036.362-.06.115-.025.234-.056.358-.087.509-.125 1.078-.259 1.767-.309a11.591 11.591 0 0 1 1.937-.01.162.162 0 0 0 .085-.311c-.864-.41-1.626-.66-2.35-.8a6.135 6.135 0 0 0-1.715-.107 2.894 2.894 0 0 0-1.383.463 2.802 2.802 0 0 0-.475.37 2.77 2.77 0 0 0-.36.42c-.146.222-.182.32-.182.32-.08.065-.09.167-.033.235a.16.16 0 0 0 .227.021zM22.749 40.604s-.011-.178-.083-.514a4.71 4.71 0 0 0-.64-1.545 4.113 4.113 0 0 0-1.011-1.056 3.986 3.986 0 0 0-1.548-.656c-.747-.117-1.428-.032-2.022.226-1.315.572-2.128 1.75-2.128 1.75a.161.161 0 0 0 .241.214s.759-.63 1.799-.923a2.668 2.668 0 0 1 1.745.072c.368.13.67.37.97.6.19.145.375.293.552.442.202.168.4.318.582.475.177.152.338.276.489.404.478.404.763.65.763.65.038.08.134.113.215.075a.16.16 0 0 0 .076-.214z"/></g></g></svg>