<svg data-id="90-926e8e4a7f064c6-smile" xmlns="http://www.w3.org/2000/svg" viewBox="0 0 100 100"><g fill="none" fill-rule="evenodd"><path fill="#a9c0dd" d="M56.112 84.523C72.3 87.948 70.54 60.73 91.872 67.296c-.749 21.373-19.907 21.865-35.819 18.916z"/><path fill="#fff" d="M81.968 66.76c2.66-.74 5.869-.706 9.903.536-.155 4.425-1.1 7.956-2.64 10.746-.643 1.162-1.761-1.962-8.855 1.414.08-3.068 3.798-6.31 3.798-6.31s-4.853-.473-7.606 2.811c-.33-3 3.733-8.734 5.4-9.197z"/><path fill="#a9c0dd" d="m43.899 62-1.769 1.511c-3.849 3.29-7.326 8.18-8.202 14.649S37.803 90 44.683 90h6.198c6.867 0 11.92-4.937 10.783-11.647-1.138-6.709-4.378-11.55-8.23-14.842L51.665 62z"/><path fill="#fff" d="M47.824 89.5c3.783 0 6-.786 6-5.227s-2.686-10.453-6-10.453-6 6.012-6 10.453 2.217 5.227 6 5.227z"/><path fill="#a9c0dd" d="M79.654 9.646c4.293 8.585 1.308 21.264.299 24.928 1.996 3.22 2.945 6.878 2.945 10.758 0 12.9-10.496 23.358-35.037 23.358S12.824 58.232 12.824 45.332c0-3.88.95-7.539 2.945-10.758-1.009-3.664-3.994-16.343.3-24.928 11.975-2.32 20.811 8.63 23.668 12.755a73.237 73.237 0 0 1 8.124-.427c2.903 0 5.61.146 8.126.426 2.855-4.124 11.691-15.074 23.667-12.754z"/><path fill="#fff" d="M47.824 68.2c11.947 0 25-2.977 25-8.5s-10.273-15-25-15-25 9.477-25 15 13.053 8.5 25 8.5z"/><path fill="#ffe5cd" d="M17.035 10.646c8.17.108 14.521 8.015 17.605 12.767-8.511 1.94-14.221 5.715-17.475 10.548l-.058-.193c-1.473-5.013-3.82-15.627-.072-23.122zm61.619 0c3.355 6.71 1.826 15.922.41 21.374-3.663-4.21-9.495-7.412-17.77-8.98 3.165-4.78 9.4-12.29 17.36-12.394z"/><g fill="#414e62" transform="translate(12.302 9.154)"><path d="M15.21 1.876c6.168 2.91 10.605 8.47 12.565 11.3 1.237-.13 5.529-.38 7.937-.37s6.254.194 7.505.344c1.963-2.78 6.92-8.434 13.109-11.274C59.621.366 63.422-.36 67.566.47c1.583 2.051 2.298 6.746 2.468 10.186.313 6.31-1.053 12.46-1.714 15.02a19.55 19.55 0 0 1 2.236 5.11c.51 1.83.765 3.75.782 5.72.047 6.56-2.544 12.53-8.212 16.9-3.303 2.55-7.661 4.57-13.163 5.82a51.706 51.706 0 0 1-3.642.686c.265.408.52.83.766 1.264 1.337 2.36 2.366 5.11 2.944 8.27.324 1.785.226 3.454-.216 4.955 6.334-3.445 10.434-13.127 16.996-16.075 3.523-1.582 7.431-2.34 13.164-.54.32.1.533.4.521.73-.386 8.58-3.626 13.86-8.396 16.93-6.426 4.122-15.69 4.17-24.479 2.81l-.14.15c-2.071 2.16-5.171 3.46-8.75 3.49l-6.135.05h-.062c-3.625.01-6.71-1.37-8.776-3.62-2.138-2.32-3.19-5.56-2.678-9.08.49-3.12 1.544-5.88 2.977-8.25.237-.393.485-.776.741-1.147-7.109-1.133-12.56-3.391-16.51-6.423-5.693-4.38-8.31-10.34-8.287-16.92.007-1.98.256-3.91.758-5.75.487-1.79 1.21-3.5 2.182-5.1-.687-2.6-2.072-8.72-1.814-15.01C1.27 7.166 1.975 3.5 3.51.47 6.949-.556 11.876.306 15.21 1.876zm10.633 58.13-.29.477c-.202.337-.397.681-.585 1.033a21.973 21.973 0 0 0-2.49 7.92c-.383 3.05.584 5.81 2.447 7.81 1.807 1.94 4.463 3.15 7.609 3.16l6.197.05c3.185.03 5.97-1.05 7.854-2.93 1.94-1.93 2.92-4.7 2.413-7.91-.48-3.06-1.407-5.73-2.637-8.05-.282-.529-.58-1.04-.891-1.532-2.971.41-6.22.626-9.758.632-3.58-.008-6.867-.236-9.869-.66zm41.723-.28C60.586 63.03 57.242 72.76 49.47 75.374c-.366.885-.86 1.7-1.46 2.434 8.581 1.045 17.633.669 23.487-3.282 4.307-2.9 7.182-7.76 7.503-15.49-4.95-1.39-8.4-.747-11.435.69zm-23.581-45.89a.318.318 0 0 1-.287.13c-1.295-.14-5.59-.47-7.986-.47s-6.79.32-8.082.47a.396.396 0 0 1-.36-.17c-1.865-2.66-6.289-8.23-12.455-11.06-3.103-1.43-6.652-2.16-10.541-1.45-1.359 2.86-1.91 6.16-2.015 9.41-.207 6.36 1.306 12.52 1.967 14.89.047.17.021.35-.071.5a18.627 18.627 0 0 0-2.137 5 20.956 20.956 0 0 0-.67 5.42c.022 6.14 2.499 11.69 7.836 15.74 5.596 4.25 14.29 6.85 26.528 6.82 5.282.01 9.905-.48 13.908-1.37 5.264-1.16 9.446-3.03 12.629-5.44 5.362-4.04 7.867-9.6 7.91-15.75.017-1.87-.195-3.7-.645-5.45-.457-1.77-1.211-3.645-2.173-5.235a.483.483 0 0 1-.055-.38c.682-2.37 4.052-14.795.055-24.556C55.36-1.142 45.832 11.136 43.985 13.836z"/><path d="M39.268 62.386c-.648 3.554-.415 5.61.153 6.52s1.43 1.51 2.661 1.47c1.265-.07 2.093-.74 2.567-1.76s.683-3.121.247-6.23c-.011-.08-.094-.14-.182-.13a.157.157 0 0 0-.137.18s.19 2.92-.596 4.95c-.346.9-.895 1.62-1.899 1.56s-2.661-1.605-2.495-6.51c.003-.091-.05-.17-.137-.18a.166.166 0 0 0-.182.13zM26.221 62.5c-.648 3.553-.416 5.61.153 6.52s1.43 1.51 2.66 1.47c1.265-.07 2.094-.74 2.567-1.76s.684-3.123.248-6.23c-.011-.08-.094-.14-.182-.13a.157.157 0 0 0-.137.18s.19 2.92-.596 4.95c-.346.9-.895 1.62-1.9 1.56s-2.66-1.606-2.494-6.51c.003-.092-.05-.17-.137-.18a.166.166 0 0 0-.182.13zM11.004 48.186c.74-.116 1.842-.028 3.306.263.104.025.169.053.18.143.01.09-.06.13-.142.177-.082.047-1.687.8-3.097.967-.622.074-1.828.097-2.987.1H7.69l-2.388-.02a.163.163 0 0 1-.128-.14.158.158 0 0 1 .142-.177l1.924-.49c1.343-.337 2.654-.65 3.764-.823zm-5.812-3.67c.089.01 4.519-.15 5.839 0 1.32.15 3.066.953 3.161 1 .096.048.153.09.143.18s-.088.113-.178.14c-.09.028-1.824.401-3.235.247-1.41-.155-5.677-1.237-5.765-1.247s-.152-.09-.142-.18.09-.15.177-.14z"/><ellipse cx="21.698" cy="41.846" rx="3" ry="4"/><ellipse cx="49.698" cy="41.846" rx="3" ry="4"/><path d="M35.719 13.036c1.017 0 2.01.017 2.978.052-.043 4.86-1.369 8.758-2.999 8.758-1.656 0-3-4.03-3-9l.002.244a83.331 83.331 0 0 1 3.019-.054zm-4.078.1c-.214 3.278-1.002 5.71-1.943 5.71-.91 0-1.68-2.285-1.92-5.411a68.075 68.075 0 0 1 3.675-.29zm8.115-.003c1.335.066 2.624.165 3.866.296-.243 3.13-1.012 5.417-1.924 5.417-.915 0-1.688-2.309-1.925-5.46zM60.5 48.186c-.74-.116-1.842-.028-3.306.263-.104.025-.169.053-.18.143-.01.09.06.13.142.177.082.047 1.687.8 3.097.967.622.074 1.828.097 2.987.1h.574l2.388-.02a.163.163 0 0 0 .128-.14.158.158 0 0 0-.142-.177l-1.924-.49c-1.343-.337-2.654-.65-3.764-.823zm5.812-3.67c-.089.01-4.519-.15-5.839 0-1.32.15-3.066.953-3.161 1-.096.048-.153.09-.143.18s.088.113.178.14c.09.028 1.824.401 3.235.247 1.41-.155 5.677-1.237 5.765-1.247s.152-.09.142-.18-.09-.15-.177-.14zM35.722 51.766c-1.602 1.554-3.36 2.054-5.274 1.5-2.87-.83-2.924-3.48-2.934-3.57s.056-.17.144-.18c.089-.01.168.06.177.15s1.452 2.25 3.84 2.25c2.387 0 3.272-1.43 3.403-1.63s.356-.32.597-.32c.24 0 .464.12.596.32s.956 1.777 3.404 1.91c2.76.15 3.83-2.44 3.84-2.53s.088-.16.176-.15a.16.16 0 0 1 .144.18c-.032.207-1.137 3.47-4.16 3.47-1.774 0-3.092-.466-3.953-1.4z"/></g></g></svg>