<svg data-id="94-67589702b818121-smile" xmlns="http://www.w3.org/2000/svg" viewBox="0 0 100 100"><g fill="none" fill-rule="evenodd"><path fill="#a9c0dd" d="M54.536 87.591c16.555-.308 8.707-26.451 30.987-24.856 4.086 21.01-14.51 25.169-30.69 25.878z"/><path fill="#fff" d="M75.697 64.436c2.427-1.32 5.563-2.01 9.777-1.709.846 4.35.72 8.006-.154 11.074-.364 1.278-2.158-1.516-8.314 3.374-.615-3.01 2.28-7.008 2.28-7.008s-4.837.631-6.782 4.454c-.997-2.85 1.671-9.357 3.193-10.185z"/><path fill="#a9c0dd" d="M55.657 85.56c14.75 7.493 20.087-19.254 38.996-7.398-6.247 20.453-24.976 16.013-39.585 9.051z"/><path fill="#fff" d="M85.226 75.083c2.76-.027 5.851.835 9.428 3.077-1.294 4.235-3.119 7.402-5.329 9.698-.92.957-1.194-2.35-8.919-.922.87-2.943 5.3-5.113 5.3-5.113s-4.565-1.712-8.074.75c.457-2.984 5.863-7.473 7.594-7.49z"/><path fill="#a9c0dd" d="m42.899 64-1.769 1.511c-3.849 3.29-7.326 8.18-8.202 14.649S36.803 92 43.683 92h6.198c6.867 0 11.642-5.131 10.504-11.84-1.137-6.71-4.1-11.357-7.951-14.649L50.665 64z"/><path fill="#fff" d="M46.824 91.5c3.783 0 6-.786 6-5.227s-2.686-10.453-6-10.453-6 6.012-6 10.453 2.217 5.227 6 5.227z"/><path fill="#a9c0dd" d="M46.687 24c4.047 0 7.712.284 11.011.817 7.38-.182 23.714-.29 34.782 1.855-.787 8.506-8.795 11.613-12.334 12.577 1.065 2.525 1.578 5.257 1.578 8.109 0 12.9-10.496 23.358-35.037 23.358S11.65 60.258 11.65 47.358c0-2.845.51-5.572 1.57-8.093C9.713 38.32 1.615 35.229.824 26.672c11.097-2.15 27.49-2.036 34.843-1.852 3.3-.535 6.968-.82 11.02-.82z"/><path fill="#ffe5cd" d="M2.39 28.18c4.739-.88 11.37.216 18.08 2.298-3.081 2.168-5.313 4.788-6.761 7.716-3.325-.824-8.91-3.202-11.318-10.015zm88.17.258c-2.293 6.488-7.524 8.845-10.924 9.7-1.469-2.948-3.736-5.582-6.866-7.755 5.06-1.403 9.897-1.84 17.79-1.945z"/><path fill="#fff" d="M46.824 70.2c1.485 0 2.987-.046 4.479-.137-1.154-6.063 3.756-5.547 4.912-.472 8.515-1.132 15.609-3.82 15.609-7.891 0-5.523-10.273-15-25-15s-25 9.477-25 15c0 3.97 6.742 6.624 14.97 7.803 1.03-4.431 6.603-5.952 4.944.52 1.691.118 3.4.177 5.086.177z"/><g fill="#ffcddd" transform="translate(.824 24)"><circle cx="31" cy="37" r="6"/><circle cx="61" cy="37" r="6"/></g><path fill="#414e62" d="M57.593 24.358c4.636-.166 12.758-.07 20.922.332 4.89.24 9.788.7 13.95 1.47a.662.662 0 0 1 .533.71c-.332 3.855-2.077 6.668-4.255 8.702-2.503 2.339-5.588 3.635-7.718 4.308.407 1.08.72 2.193.942 3.335.27 1.389.401 2.82.405 4.28 0 6.599-2.637 12.59-8.37 16.955-3.991 3.038-9.506 5.287-16.7 6.379.275.42.54.854.794 1.303 1.337 2.365 2.366 5.111 2.943 8.272.307 1.69.235 3.277-.147 4.715.791-.682 1.472-1.48 2.078-2.36.81-1.176 1.485-2.495 2.12-3.883 1.025-2.236 1.931-4.648 3.054-6.92 1.171-2.373 2.577-4.596 4.545-6.328 2.793-2.458 6.715-3.947 12.706-3.49a.737.737 0 0 1 .67.595c.857 4.655.644 8.53-.382 11.75 2.73.104 5.768 1.046 9.23 3.24a.738.738 0 0 1 .315.841c-2.593 8.187-7.091 12.454-12.493 14.18-7.13 2.277-15.88.058-23.886-3.407l-.358.026c-1.999 2.082-4.953 3.365-8.37 3.486l-.381.009-6.136.051h-.062c-3.625.01-6.71-1.376-8.776-3.623-2.137-2.324-3.19-5.563-2.678-9.083.49-3.12 1.544-5.877 2.977-8.249.247-.408.505-.805.772-1.19-7.175-1.133-12.666-3.408-16.634-6.462-5.649-4.35-8.244-10.278-8.216-16.806.007-1.44.14-2.851.407-4.22.238-1.22.58-2.409 1.032-3.557-2.096-.628-5.326-1.912-7.93-4.332-2.147-1.994-3.872-4.752-4.204-8.54a.393.393 0 0 1 .316-.423c4.157-.784 9.09-1.472 13.975-1.734 8.186-.44 16.318-.47 20.937-.332.87-.136 5.96-.556 11.075-.578h.689c4.815.02 9.488.458 10.309.578zm24.83 52.032c-2.84.664-5.33 2.232-7.716 3.97-1.645 1.198-3.242 2.469-4.854 3.599-1.306.915-2.62 1.739-3.98 2.35-1.866.839-3.807 1.297-5.904 1.074a9.806 9.806 0 0 1-1.026 1.48c7.915 3.211 16.519 5.23 23.448 2.842 4.913-1.692 8.948-5.644 11.258-13.023-4.424-2.623-8.044-3.034-11.226-2.292zM35.561 25.174l-.04.003c-4.607-.092-12.764-.139-20.938.382-4.71.3-9.427.788-13.47 1.567.417 3.367 2.015 5.827 3.977 7.615 2.729 2.486 6.156 3.677 8.115 4.194a.484.484 0 0 1 .32.655 19.253 19.253 0 0 0-1.142 3.874 21.562 21.562 0 0 0-.353 4.032c.028 6.179 2.526 11.771 7.907 15.845 4.086 3.092 9.814 5.308 17.355 6.27l-.146 1.345a59.935 59.935 0 0 1-.264-.037c-.317.501-.62 1.019-.905 1.554-1.236 2.313-2.153 4.948-2.491 7.92-.383 3.05.584 5.816 2.447 7.812 1.807 1.937 4.463 3.153 7.61 3.161h.061l6.136.052c3.184.032 5.969-1.055 7.853-2.933 1.94-1.934 2.92-4.697 2.413-7.906-.479-3.062-1.406-5.735-2.637-8.048-.281-.53-.578-1.04-.89-1.533v-1.546c7.166-1.05 12.633-3.252 16.562-6.26 5.298-4.056 7.752-9.587 7.753-15.696a21.355 21.355 0 0 0-.358-3.99 19.017 19.017 0 0 0-1.134-3.823.763.763 0 0 1 .503-1.033c1.944-.52 5.292-1.7 7.958-4.138 1.86-1.701 3.388-4.02 3.845-7.171-3.968-.76-8.565-1.243-13.158-1.557-8.14-.558-16.266-.576-20.885-.514l-.058-.004c-.842-.148-5.9-.603-10.862-.627-5.148-.024-10.207.388-11.084.535zM73.74 66.826c-2.196 1.918-3.658 4.472-4.949 7.127-.89 1.83-1.704 3.702-2.596 5.456-.724 1.422-1.498 2.766-2.411 3.944-.94 1.212-2.02 2.256-3.325 3.034a11.82 11.82 0 0 1-.162.361c1.844.014 3.528-.51 5.137-1.346 1.266-.657 2.482-1.505 3.695-2.432 1.954-1.494 3.886-3.198 5.944-4.677 2.149-1.545 4.433-2.848 6.985-3.453.744-.177 1.51-.295 2.303-.343.974-3.002 1.175-6.603.366-10.918-5.137-.24-8.526 1.097-10.987 3.247zm-22.148 3.142-.205 1.47a80.514 80.514 0 0 1-9.046.006l-.256-1.409c1.432.076 2.918.112 4.461.106a77.711 77.711 0 0 0 5.046-.173z"/><path fill="#ff608b" d="M9.352 51.024c1.428-.304 5.059-6.534 3.11-8.375-1.948-1.84-3.917 1.36-4.572 1.499s-3.733-1.987-4.787.492c-1.053 2.479 4.822 6.687 6.25 6.384zM27.801 21.418c2.145-.456 7.602-9.818 4.674-12.584s-5.888 2.043-6.871 2.252-5.61-2.986-7.193.74 7.245 10.049 9.39 9.592zM23.397 80.97c1.536-.326 5.442-7.028 3.346-9.008s-4.215 1.462-4.92 1.612c-.703.15-4.015-2.138-5.148.529-1.134 2.667 5.186 7.194 6.722 6.867zM10.508 72.987c2.046.588 10.989-4.943 9.743-8.647s-5.975-.936-6.913-1.205c-.938-.27-3.444-5.116-6.499-2.647-3.055 2.469 1.623 11.912 3.67 12.5zM86.457 52.334c1.873.538 10.057-4.524 8.917-7.914-1.141-3.39-5.469-.856-6.327-1.103-.858-.246-3.151-4.682-5.947-2.422-2.796 2.26 1.485 10.901 3.357 11.439zM74.542 19.216c1.928-.27 7.343-8.224 4.922-10.856-2.421-2.632-5.342 1.443-6.227 1.568s-4.783-2.994-6.417.207c-1.634 3.202 5.793 9.352 7.722 9.081zM61.921 30.37c1.634-.23 6.223-6.969 4.171-9.199s-4.527 1.223-5.276 1.328c-.75.106-4.054-2.536-5.438.176-1.384 2.713 4.909 7.925 6.543 7.695zM19.056 96.687c1.635-.23 6.223-6.969 4.171-9.2s-4.527 1.224-5.276 1.33c-.75.104-4.053-2.538-5.438.175-1.384 2.713 4.909 7.924 6.543 7.695zM90.33 74.017c.835-.117 3.177-3.558 2.13-4.696-1.048-1.14-2.311.624-2.694.678s-2.069-1.295-2.776.09c-.706 1.384 2.506 4.045 3.34 3.928z"/><path fill="#414e62" d="M47.037 23.974c1.011 0 1.999.018 2.963.053C49.995 28.985 48.654 33 47 33c-1.657 0-3-4.03-3-9l-.001.03c.988-.037 2-.056 3.038-.056zm-4.082.103C42.762 27.462 41.96 30 41 30c-.931 0-1.714-2.386-1.937-5.616 1.192-.13 2.428-.23 3.707-.299zm8.09-.005a68.58 68.58 0 0 1 3.893.303C54.714 27.61 53.931 30 53 30c-.943 0-1.734-2.447-1.945-5.74z"/><path fill="#5f6362" d="M90.755 63.467c.497.387 3.282 1.292 4.74 3.71 1.457 2.417 1.448 6.796 1.552 8.03a.161.161 0 1 0 .322 0c.154-1.881-.081-6.406-1.668-8.775-1.587-2.369-4.186-3.095-4.804-3.254a.161.161 0 1 0-.142.29z"/><path fill="#5f6362" d="M89.62 60.52c.67.121 3.737.131 6.35 2.642 2.611 2.51 2.85 7.161 2.947 8.488a.161.161 0 1 0 .322 0c.146-2.023-.632-6.888-3.265-9.328-2.633-2.441-5.652-2.254-6.354-2.125a.161.161 0 0 0 0 .322z"/><g fill="#414e62"><path d="M54.484 55.332s.229-.48.83-1.098c.185-.19.406-.37.667-.573.233-.182.504-.35.814-.528.177-.102.369-.201.572-.306.439-.228.938-.47 1.54-.65 1.18-.405 2.204-.475 3.068-.38 1.87.207 2.96 1.12 2.96 1.12a.161.161 0 0 0 .234-.222s-.998-1.257-3.011-1.832c-.98-.279-2.182-.36-3.618-.1-.74.165-1.38.368-1.907.646a4.863 4.863 0 0 0-1.122.805c-.488.475-.814.952-1.015 1.405a3.743 3.743 0 0 0-.298.985c-.064.438-.033.686-.033.686a.16.16 0 1 0 .319.042zM39.788 55.29s.03-.248-.033-.686a3.789 3.789 0 0 0-.3-.985c-.2-.453-.525-.93-1.014-1.405a4.841 4.841 0 0 0-1.122-.805c-.526-.278-1.166-.481-1.907-.645-1.435-.261-2.64-.18-3.618.1-2.013.574-3.01 1.83-3.01 1.83a.16.16 0 0 0 .005.228.16.16 0 0 0 .227-.004s1.092-.914 2.962-1.12c.864-.096 1.888-.026 3.066.378a8.734 8.734 0 0 1 1.54.65c.205.106.396.205.574.307.309.179.58.346.814.528.26.203.482.384.666.573.6.619.83 1.098.83 1.098.012.088.093.15.18.139s.15-.093.14-.181zM68.494 56.992s.133.045.422.106c.249.052.557.113.975.165a7.722 7.722 0 0 0 1.372.051c.246-.014.5-.043.757-.08.37-.055.747-.134 1.124-.211.603-.124 1.19-.26 1.743-.39 1.48-.347 2.607-.64 2.607-.64a.161.161 0 0 0-.036-.321s-1.163-.04-2.684-.054a63.2 63.2 0 0 0-1.786.003c-.385.008-.768.013-1.143.042a7.3 7.3 0 0 0-1.423.232 7.732 7.732 0 0 0-.66.206c-.396.143-.684.27-.915.375-.27.123-.39.196-.39.196a.161.161 0 0 0 .037.32zM68.458 59.992s.12.073.389.196c.23.106.519.232.915.375a7.66 7.66 0 0 0 1.327.351c.243.04.497.068.756.087.375.029.758.035 1.143.042a63.2 63.2 0 0 0 1.786.003 119.83 119.83 0 0 0 2.684-.054.161.161 0 0 0 .036-.32s-1.126-.294-2.607-.642c-.552-.13-1.14-.265-1.743-.389-.377-.077-.753-.156-1.124-.21a7.25 7.25 0 0 0-1.44-.086c-.25.009-.473.029-.69.056-.417.052-.725.113-.974.165-.29.06-.422.106-.422.106a.161.161 0 0 0-.036.32zM25.494 56.672s-.12-.073-.388-.196a11.496 11.496 0 0 0-.915-.375 7.758 7.758 0 0 0-1.328-.351 8.681 8.681 0 0 0-.755-.087c-.375-.029-.76-.034-1.144-.042a63.134 63.134 0 0 0-1.785-.003c-1.522.014-2.685.054-2.685.054a.161.161 0 0 0-.036.32s1.127.294 2.608.642c.552.13 1.139.265 1.742.389.378.077.753.156 1.125.21a7.217 7.217 0 0 0 1.439.086c.25-.009.474-.029.69-.056.417-.052.726-.113.975-.165.288-.06.42-.106.42-.106a.161.161 0 0 0 .036-.32zM25.458 59.672s-.133-.045-.421-.106a11.464 11.464 0 0 0-.975-.165 7.79 7.79 0 0 0-1.373-.051 8.646 8.646 0 0 0-.756.08c-.372.055-.747.134-1.125.211-.603.124-1.19.26-1.742.39-1.481.347-2.608.641-2.608.641a.161.161 0 0 0 .036.32s1.163.04 2.685.054c.566.005 1.169.009 1.785-.003.385-.007.769-.013 1.144-.042a7.124 7.124 0 0 0 1.422-.232c.243-.063.456-.132.66-.206.397-.143.684-.27.916-.375.268-.123.388-.196.388-.196a.161.161 0 0 0-.036-.32zM47.046 64.572c-.2.202-.458.416-.78.598-.465.264-1.07.44-1.79.428-.317-.027-.6-.062-.848-.146-.5-.168-.88-.392-1.147-.685-.277-.306-.461-.61-.553-.923-.167-.565-.112-.997-.112-.997a.16.16 0 0 1 .145-.175.162.162 0 0 1 .176.145s.268.685 1.027 1.075c.11.056.235.084.37.125.259.077.565.088.942.049a2.286 2.286 0 0 0 1.039-.283c.543-.282.854-.657.854-.657a.71.71 0 0 1 1.215 0s.232.47.767.816a2.4 2.4 0 0 0 1.125.402c.646.059 1.114-.056 1.452-.274.728-.466.888-1.253.888-1.253a.16.16 0 0 1 .176-.145.162.162 0 0 1 .145.175s-.02 1.002-.805 1.74c-.395.373-.984.654-1.856.733a3.42 3.42 0 0 1-1.705-.31 3.524 3.524 0 0 1-.725-.438zM38.44 74.843c-.153-.268-.258-.563-.364-.888-.212-.654-.297-1.392-.327-2.17-.023-.614.01-1.236.094-1.843.055-.403.13-.795.236-1.168.106-.38.234-.74.406-1.06.394-.73.98-1.281 1.866-1.363.832-.086 1.229.102 1.373.574.214.7.09 1.689.083 2.665-.008 1.071.1 2.118.782 2.82a.161.161 0 1 0 .245-.21c-.622-.828-.441-1.997-.265-3.113.14-.888.27-1.74.148-2.405a1.922 1.922 0 0 0-.416-.894c-.36-.434-.976-.713-2.013-.716-1.407.01-2.45.752-3.142 1.867a5.45 5.45 0 0 0-.607 1.405 6.622 6.622 0 0 0-.236 1.457 8.05 8.05 0 0 0 .19 2.156c.082.358.182.702.316 1.03.349.848.816 1.557 1.384 2.062a.161.161 0 1 0 .248-.206zM55.492 75.049c.568-.505 1.035-1.214 1.384-2.062.134-.328.234-.672.316-1.03a8.05 8.05 0 0 0 .19-2.156 6.621 6.621 0 0 0-.236-1.457 5.45 5.45 0 0 0-.607-1.405c-.693-1.115-1.735-1.858-3.142-1.867-1.037.003-1.653.282-2.013.716-.208.251-.352.547-.416.894-.122.664.008 1.517.148 2.405.176 1.116.357 2.285-.265 3.114a.16.16 0 1 0 .245.21c.682-.703.79-1.75.782-2.821-.008-.976-.131-1.965.083-2.665.144-.472.54-.66 1.372-.574.887.082 1.473.632 1.867 1.363.172.32.3.68.406 1.06a8.8 8.8 0 0 1 .236 1.168c.083.607.117 1.23.094 1.842-.03.779-.115 1.517-.327 2.171-.106.325-.211.62-.365.888a.161.161 0 1 0 .248.206z"/></g></g></svg>