<svg data-id="96-25b33d64d05a603-cat" xmlns="http://www.w3.org/2000/svg" viewBox="0 0 100 100"><g fill="none" fill-rule="evenodd"><path fill="#a9c0dd" d="M59.605 79.864c9.526-2.45 26.22-10.75 34.345 4.568-9.21 11.673-27.175 5.668-34.73-2.713z"/><path fill="#fff" d="M86.838 77.008c2.45 1.273 4.712 3.201 7.1 7.187-2.771 3.956-6.382 5.185-9.412 6.175-1.263.412-3.326.297-7.367-4.988 4.561 1.504 7.006-2.042 7.006-2.042s-5.687-.17-7.48-3.132c2.069-.195 8.15 1.135 10.153-3.2z"/><path fill="#a9c0dd" d="m45.899 57-1.769 1.511c-3.849 3.29-7.326 8.18-8.202 14.649S39.803 85 46.683 85h6.198c6.867 0 11.92-4.937 10.783-11.647-1.138-6.709-4.378-11.55-8.23-14.842L53.665 57z"/><path fill="#fff" d="M49.824 84.5c3.783 0 6-.786 6-5.227s-2.686-10.453-6-10.453-6 6.012-6 10.453 2.217 5.227 6 5.227z"/><path fill="#a9c0dd" d="M49.937 17c4.57 0 8.65.362 12.263 1.034 7.9-.165 22.972-.154 33.382 1.863-.785 8.483-8.709 11.446-12.243 12.35 1.053 2.517 1.56 5.241 1.56 8.085 0 12.9-10.534 23.965-35.075 23.965s-35-11.065-35-23.965c0-2.708.466-5.307 1.429-7.724C12.567 31.544 4.6 28.287 3.824 19.897c10.564-2.047 25.973-2.027 33.796-1.855C41.252 17.364 45.35 17 49.937 17z"/><path fill="#fff" d="M49.824 63.2c11.947 0 25-2.977 25-8.5s-10.273-12-25-12-25 6.477-25 12 13.053 8.5 25 8.5z"/><path fill="#ffe5cd" d="M5.565 21.153c4.738-.88 11.369.217 18.079 2.3-3.081 2.167-5.313 4.787-6.761 7.715-3.324-.824-8.91-3.202-11.318-10.015zm88.17.26c-2.294 6.486-7.525 8.844-10.925 9.7-1.469-2.949-3.736-5.583-6.866-7.756 5.06-1.403 9.897-1.841 17.79-1.945z"/><g fill="#414e62" transform="translate(3.758 16.137)"><path d="M57.275 1.376c4.637-.166 12.786-.057 20.95.345 4.89.24 9.787.7 13.95 1.471a.66.66 0 0 1 .532.71c-.332 3.854-2.077 6.667-4.255 8.701-2.503 2.34-5.587 3.635-7.717 4.308.407 1.08.72 2.193.941 3.335.27 1.39.402 2.82.405 4.281.001 6.598-2.636 12.59-8.37 16.954-4.023 3.063-9.595 5.323-16.873 6.405.275.42.54.855.793 1.303 1.337 2.365 2.366 5.111 2.943 8.272.31 1.71.234 3.314-.16 4.765 2.04-.714 4.247-1.479 6.531-2.107 1.878-.517 3.806-.936 5.732-1.165 2-.238 4-.267 5.935.013 2.116.305 4.16.982 6.046 2.151 2.398 1.484 4.546 3.773 6.293 7.13a.721.721 0 0 1-.07.786c-3.806 4.707-8.932 6.552-14.235 6.48-7.211-.097-14.734-3.746-19.496-8.282-2.024 1.67-4.77 2.652-7.875 2.683l-6.135.052h-.062c-3.625.01-6.71-1.376-8.776-3.624-2.138-2.324-3.19-5.563-2.678-9.083.49-3.12 1.543-5.877 2.977-8.249.257-.425.526-.838.805-1.239-7.106-1.139-12.552-3.404-16.493-6.439-5.649-4.35-8.245-10.278-8.216-16.806a22.58 22.58 0 0 1 .407-4.22c.238-1.22.58-2.409 1.031-3.557-2.095-.628-5.326-1.912-7.93-4.332C2.059 10.424.333 7.666.002 3.878a.393.393 0 0 1 .316-.423c4.157-.784 9.089-1.47 13.975-1.734 8.185-.44 16.318-.293 20.937-.155.867-.135 5.955-.917 11.05-.94l.69.002c4.832.034 9.481.627 10.305.748zM72.82 60.36c-1.873.155-3.755.477-5.6.876-2.468.533-4.863 1.201-7.064 1.795a9.706 9.706 0 0 1-2.13 3.392c-.172.18-.351.353-.538.52 3.906 3.489 9.573 6.35 15.345 7.227 6.09.926 12.31-.367 16.613-5.655-1.602-2.823-3.517-4.757-5.62-6.043-1.709-1.045-3.543-1.655-5.449-1.959-1.808-.29-3.676-.309-5.557-.153zM36.448 47.93l-.045.07c-.312.493-.61 1.004-.89 1.53-1.237 2.313-2.153 4.948-2.492 7.92-.382 3.051.585 5.816 2.447 7.812 1.808 1.937 4.464 3.153 7.61 3.161l6.197.052c3.184.032 5.97-1.055 7.853-2.933 1.94-1.934 2.92-4.697 2.414-7.906-.48-3.062-1.407-5.735-2.637-8.048-.291-.547-.6-1.075-.922-1.582-2.965.397-6.204.602-9.727.593-3.558-.014-6.824-.245-9.808-.668zm9.831-46.718c-5.057-.02-10.147.85-11.008.993l-.04.003c-4.607-.092-12.764-.139-20.938.382-4.711.3-9.428.79-13.47 1.567.417 3.367 2.015 5.827 3.976 7.615 2.73 2.486 6.157 3.677 8.115 4.194a.483.483 0 0 1 .321.655 19.275 19.275 0 0 0-1.142 3.874 21.56 21.56 0 0 0-.353 4.032c.027 6.18 2.526 11.771 7.907 15.845 5.617 4.252 14.339 6.847 26.609 6.8 12.237-.034 20.916-2.678 26.495-6.949 5.298-4.056 7.752-9.587 7.753-15.696a21.363 21.363 0 0 0-.358-3.989 19.021 19.021 0 0 0-1.134-3.824.762.762 0 0 1 .502-1.033c1.945-.52 5.292-1.7 7.958-4.138 1.86-1.7 3.39-4.019 3.845-7.17C87.35 3.61 82.752 3.13 78.16 2.814c-8.14-.558-16.267-.576-20.885-.514l-.058-.004c-.858-.15-5.881-1.063-10.938-1.085z"/><path d="M32.242 36.863c1.657 0 3-1.567 3-3.5s-1.343-3.5-3-3.5c-1.656 0-3 1.567-3 3.5s1.344 3.5 3 3.5z"/><ellipse cx="60.242" cy="33.363" rx="3" ry="3.5"/><path d="M46.28.837c.986 0 1.95.017 2.892.05.046.798.07 1.626.07 2.476 0 6.352-1.343 11.5-3 11.5-1.656 0-3-5.148-3-11.5 0-.849.024-1.676.07-2.473a82.317 82.317 0 0 1 2.967-.053zm-4.046.1c.006.305.008.614.008.926 0 5.523-.895 10-2 10s-2-4.477-2-10c0-.205.002-.408.004-.61a68.592 68.592 0 0 1 3.767-.304zm8.018-.004c1.378.069 2.707.173 3.987.312l.002.282.001.336c0 5.523-.895 10-2 10s-2-4.477-2-10c0-.225.002-.449.005-.67zM37.365 49.83s-.172.25-.409.693c-.231.436-.509 1.03-.752 1.721a9.012 9.012 0 0 0-.35 1.322 6.68 6.68 0 0 0-.113 1.416c.013.424.078.832.197 1.203.329 1.03 1.022 1.815 2.226 2.071 1.244.238 2.21-.208 2.917-1.088.505-.63.883-1.465 1.142-2.33.533-1.789.602-3.646.602-3.646a.162.162 0 0 0-.143-.178.162.162 0 0 0-.177.143s-.521 2.878-1.777 4.664c-.552.786-1.258 1.35-2.22 1.052-.51-.149-.79-.495-.963-.913-.133-.32-.198-.687-.233-1.074a9.843 9.843 0 0 1-.033-1.167c.012-.418.034-.83.069-1.229.06-.693.134-1.308.203-1.77l.113-.77a.16.16 0 0 0-.3-.12zM49.394 51.488s-.014.303.021.804c.034.493.113 1.143.274 1.858.097.434.233.874.403 1.307.176.45.4.877.655 1.261.235.352.507.664.804.915.824.7 1.829.998 2.986.577 1.18-.457 1.763-1.347 1.896-2.468.096-.802-.026-1.71-.266-2.582-.495-1.799-1.42-3.41-1.42-3.41a.16.16 0 0 0-.216-.075.16.16 0 0 0-.075.215s1.083 2.716.965 4.896c-.052.96-.352 1.812-1.325 2.068-.511.145-.933 0-1.301-.263-.283-.202-.532-.477-.767-.788a9.72 9.72 0 0 1-.646-.97 21.48 21.48 0 0 1-.593-1.08c-.316-.62-.58-1.18-.767-1.609l-.31-.712a.162.162 0 0 0-.188-.13.162.162 0 0 0-.13.186zM68.668 37.848s.11.1.357.28c.214.154.485.344.859.572a8.575 8.575 0 0 0 1.286.641c.24.094.494.178.755.256.377.111.768.203 1.16.297.627.15 1.246.282 1.826.404 1.558.327 2.757.55 2.757.55a.162.162 0 0 0 .102-.306s-1.093-.54-2.536-1.214a69.856 69.856 0 0 0-1.702-.772c-.37-.16-.738-.322-1.108-.459a8.051 8.051 0 0 0-1.454-.407 8.543 8.543 0 0 0-.716-.1 12.728 12.728 0 0 0-1.031-.057c-.306-.005-.453.01-.453.01a.162.162 0 0 0-.102.305zM68.625 40.826s.062.117.227.348c.141.2.316.44.577.747a7.002 7.002 0 0 0 .932.914c.183.147.38.287.586.423.299.197.615.378.932.561.507.293 1.01.566 1.485.822 1.274.686 2.261 1.185 2.261 1.185a.161.161 0 1 0 .187-.262s-.791-.772-1.854-1.755a57.767 57.767 0 0 0-1.26-1.138c-.276-.24-.55-.48-.832-.699a6.437 6.437 0 0 0-1.156-.735 6.92 6.92 0 0 0-.602-.268c-.375-.147-.659-.235-.893-.304a3.71 3.71 0 0 0-.403-.1.161.161 0 1 0-.187.261zM23.668 37.542s-.148-.014-.453-.009c-.265.005-.595.015-1.031.057a8.545 8.545 0 0 0-1.414.258 9.736 9.736 0 0 0-.757.25c-.37.136-.737.297-1.107.458a70.03 70.03 0 0 0-1.703.772c-1.443.673-2.535 1.214-2.535 1.214a.162.162 0 0 0 .102.306s1.199-.223 2.756-.55c.58-.122 1.199-.255 1.826-.404.392-.094.783-.186 1.16-.297.261-.078.515-.162.755-.256a8.578 8.578 0 0 0 1.286-.641c.375-.228.645-.418.86-.573.247-.179.357-.279.357-.279a.161.161 0 0 0-.102-.306zM32.59 25.6c-.116.07-.21.115-.322.185-.252.156-.468.277-.705.428-.199.126-.382.236-.569.361-.123.083-.242.162-.359.247-.133.097-.263.19-.389.287-.13.101-.253.203-.376.303-.676.548-1.305.977-1.897 1.283-1.297.67-2.254.84-2.254.84a.161.161 0 1 0 0 .322s1.311.206 3.126-.327a7.756 7.756 0 0 0 1.962-.868c.245-.154.49-.33.715-.544.212-.202.407-.427.585-.683.138-.197.263-.389.37-.618.16-.338.256-.642.371-1.025a.162.162 0 0 0-.034-.226.163.163 0 0 0-.225.034zM59.59 25.791c.114.383.211.687.37 1.025.107.23.232.421.37.618.179.256.373.481.585.683.225.214.47.39.715.544.671.421 1.341.686 1.962.868 1.815.533 3.127.327 3.127.327a.161.161 0 1 0 0-.322s-.958-.17-2.255-.84c-.591-.306-1.22-.735-1.897-1.283-.123-.1-.246-.202-.376-.303-.125-.097-.256-.19-.39-.287-.116-.085-.235-.164-.358-.247-.186-.125-.37-.235-.569-.36-.236-.152-.452-.273-.705-.429-.112-.07-.205-.116-.32-.186a.162.162 0 0 0-.226-.034.162.162 0 0 0-.034.226zM23.625 40.564s-.131.021-.403.101c-.234.07-.518.157-.893.304a6.92 6.92 0 0 0-1.758 1.003c-.283.218-.556.46-.832.7-.442.384-.864.771-1.26 1.137a106.347 106.347 0 0 0-1.854 1.755.161.161 0 1 0 .187.262s.987-.498 2.262-1.185c.474-.256.977-.529 1.484-.822.318-.183.634-.364.932-.56.206-.137.404-.277.586-.424a6.977 6.977 0 0 0 .932-.914c.261-.308.436-.548.577-.747.165-.23.227-.348.227-.348a.161.161 0 1 0-.187-.262zM42.34 41.801l1.05-.462c.293-.128.62-.25.986-.392.237-.092.486-.178.744-.265.347-.116.704-.25 1.099-.274.72-.079 1.393.063 1.975.291 1.127.441 1.903 1.102 1.903 1.102a.162.162 0 0 0 .243-.212s-.622-.942-1.709-1.704a5.174 5.174 0 0 0-2.412-.903 4.242 4.242 0 0 0-1.607.186c-.344.115-.659.28-.939.47-.147.1-.283.2-.407.314-.205.187-.38.36-.528.55a4.558 4.558 0 0 0-.42.628c-.162.296-.221.46-.221.46a.162.162 0 0 0 .243.212z"/></g></g></svg>