<svg data-id="98-de3f3e766b96457-drink" xmlns="http://www.w3.org/2000/svg" viewBox="0 0 100 100"><g fill="none" fill-rule="evenodd"><g transform="translate(8.824 3)"><path fill="#a9c0dd" d="M39.117 84.173c16.555-.308 8.707-26.45 30.987-24.855C74.19 80.327 55.62 85.124 39.44 85.833z"/><path fill="#fff" d="M60.277 61.02c2.427-1.321 5.563-2.012 9.777-1.71.846 4.35.721 8.006-.153 11.074-.365 1.278-2.16-1.516-8.315 3.374-.614-3.01 2.281-7.008 2.281-7.008s-4.838.631-6.783 4.454c-.997-2.85 1.671-9.357 3.193-10.185z"/><path fill="#a9c0dd" d="M40.25 82.132c14.751 7.491 20.087-19.255 38.997-7.4C73 95.187 54.365 90.71 39.757 83.749z"/><path fill="#fff" d="M69.82 71.654c2.76-.026 5.852.835 9.428 3.078-1.294 4.235-3.118 7.401-5.329 9.698-.92.957-1.193-2.35-8.918-.922.87-2.944 5.299-5.114 5.299-5.114s-4.565-1.712-8.073.75c.457-2.984 5.862-7.473 7.593-7.49z"/><path fill="#a9c0dd" d="M25.749 60s-6.093 1.813-7.68 5.88c-.334.859-4.98-.438-5.426 1.998-.804 4.392 7.47 6.662 7.378 8.548-.306 6.264 2.768 11.697 9.412 11.697h5.984c6.631 0 10.412-4.489 10.412-11.697 0-7.21-4.228-11.602-7.947-14.908L36.175 60z"/><path fill="#fff" d="M28 87.5c2.85.673 6-.786 6-5.227 0-2.507-.856-5.516-2.199-7.66-5.562-1.473-4.573-2.711-4.913-2.56-2.47 1.103-3.38 5.886-3.38 9.79 0 4.44 1.643 4.984 4.492 5.657z"/><path fill="#fff" d="m19.629 84.09 2.166-.85 5.367-10.107-.61-3.136-9.182-4.785-7.048 11.716.383 2.499z"/><path fill="#a9c0dd" d="M60.744 8.182C73.82 14.87 72.843 33.1 72.25 40.252c.714 2.69.848 5.494.45 8.323-1.793 12.771-15.76 21.382-37.933 18.254C12.595 63.701 2.03 51.655 3.822 38.884c.521-3.713 1.843-7.142 4.052-10.053-.04-3.24.048-15.395 3.416-23.384 13.11-.12 19.501 9.617 21.708 13.989 2.54.056 5.262.28 8.17.689a71.71 71.71 0 0 1 7.588 1.466c1.5-3.738 5.442-11.805 11.988-13.409z"/><path fill="#ffe5cd" d="M12.212 7.01C19.938 8.2 25.069 15.364 27.62 19.98c-8.147.58-14.14 3.061-18.162 6.798-.155-5.088.055-13.786 2.754-19.768zm47.693 2.704c7.587 6.653 7.798 15.751 6.96 21.456-3.712-3.706-9.219-6.77-16.756-8.812 1.873-4.296 5.281-10.605 9.796-12.644z"/><path fill="#fff" d="M29.327 65.771c14.195 3.12 23.526 1.406 24.415-4.925s-5.597-21.607-23.863-24.172S8.084 48.317 7.593 51.814s8.833 11.122 21.734 13.957z"/><circle cx="28.5" cy="56.5" r="2.5" fill="#ffc2c2"/><g fill="#ffe77e"><path d="M19.677 62.13s.353-2.952 4.331-2.139c1.827-.297 2.543-5.145 4.781-3.995s-1.075 3.994.003 6.78c1.97 2.424.344 4.837.344 4.837z"/><path d="m17.935 61.887 13.431 6.525c-2.1.001-3.994 1.786-4.675 1.425-3.44-1.828-9.9-5.893-9.9-5.893a1 1 0 0 1-.414-1.352c.26-.488 1.07-.964 1.558-.705z"/></g></g><g fill="#414e62"><path d="m42.126 21.859.21.353c2.72.03 5.532.251 8.395.653 2.194.309 4.321.75 6.365 1.31 4.09-9.8 10.372-13.512 12.062-13.512 5.565 1.322 15.237 9.998 12.724 35.158.37 1.868.438 3.772.17 5.682-.577 4.105-2.143 7.54-4.485 10.326.493.01 1.002.035 1.527.075a.736.736 0 0 1 .67.595c.857 4.654.644 8.53-.382 11.75 2.73.103 5.768 1.046 9.23 3.24a.738.738 0 0 1 .315.84c-2.593 8.188-7.091 12.455-12.492 14.18-7.13 2.278-15.88.059-23.887-3.407l-.307.023c-1.863 1.948-4.512 3.043-7.848 3.074l-5.984.043c-3.657-.001-6.327-1.52-8.006-3.91a10.16 10.16 0 0 1-.795-1.342l1.207-1.03c.248.52.536 1.01.864 1.463 1.435 1.985 3.663 3.246 6.73 3.245h.063l5.92.043c3.199.03 5.702-1.049 7.375-3.046 1.59-1.9 2.44-4.601 2.477-7.908.039-3.222-.8-5.874-2.063-8.117a18.01 18.01 0 0 0-.368-.623 62.946 62.946 0 0 1-7.763-.619 68.186 68.186 0 0 1-5.434-.985l.132-.96c1.605.353 3.255.648 4.94.885 18.326 2.575 34.27-3.079 36.383-18.113.27-1.925.186-3.842-.218-5.72 1.8-11.519-.501-29.7-10.859-33.672-2.617.845-5.844 2.42-11.162 13.69a48.344 48.344 0 0 0-7.742-1.738c-18.326-2.575-34.489 2.64-36.658 18.074-1.453 10.338 4.394 18 13.92 22.707l-1.754.132c-9.125-4.958-14.6-12.7-13.156-22.978.485-3.453 1.643-6.416 3.35-8.913-.666-8.603 1.773-21.513 4.075-24.744 4.755-.347 14.75 1.274 22.26 13.796zm33.996 54.297c-2.84.663-5.33 2.232-7.716 3.97-1.644 1.197-3.242 2.469-4.853 3.599-1.307.915-2.621 1.738-3.981 2.35-1.856.834-3.787 1.292-5.871 1.078a10.15 10.15 0 0 1-1.027 1.488c7.906 3.204 16.496 5.214 23.416 2.83 4.913-1.693 8.948-5.645 11.258-13.023-4.423-2.624-8.044-3.035-11.226-2.292zm.087-12.815-.057.004c-2.934 2.836-6.783 4.87-11.25 6.128-.922 1.322-1.693 2.768-2.412 4.246-.89 1.83-1.703 3.702-2.596 5.456-.723 1.421-1.498 2.766-2.411 3.943-.927 1.196-1.988 2.226-3.268 3-.058.135-.118.266-.18.396 1.828.007 3.5-.516 5.098-1.346 1.266-.658 2.482-1.505 3.695-2.432 1.954-1.494 3.887-3.198 5.945-4.678 2.148-1.544 4.433-2.847 6.984-3.453.743-.176 1.51-.294 2.303-.342.975-3.002 1.176-6.603.367-10.919a23.544 23.544 0 0 0-2.218-.003zm-13.457 6.667-.03.008c-3.066.667-6.38 1.001-9.856 1.01l.099.16c1.405 2.348 2.359 5.146 2.4 8.571.021 1.855-.205 3.54-.659 5.026a12.389 12.389 0 0 0 1.964-2.26c.808-1.174 1.485-2.493 2.12-3.881 1.024-2.237 1.93-4.648 3.053-6.92.287-.582.588-1.155.909-1.714zM20.18 8.905c-2.681 5.305-3.617 16.646-3.044 22.162 4.958-5.726 13.22-8.536 22.837-8.832C34.54 12.071 24.97 8.701 20.18 8.905z"/><path d="M35.337 59.582a2 2 0 0 1 3.532 1.878l-.705 1.325c-.4.753-.24 1.607.428 3.03.402.827.597 1.243.734 1.63.23.652.266 1.175.023 1.632l-.704 1.325.883.47c.421.224.73.577.902.985l-.963-.107c-.173-.261-.377-.479-.556-.574l-11.745-5.731c-.487-.26-1.398-.298-1.657.19-.26.488-.03 1.171.458 1.43l9.972 5.571-.132.762-9.563-4.877-6.171 11.249c-.525.986-.238 2.446.743 2.968l7.02 3.678c.978.52 2.35.12 2.87-.86l.618-1.027-3.23-1.442c-.244-.13-.388-.634-.258-.877.13-.244.718-.32.962-.19l3 1.708 1.372-2.657-3.25-1.546c-.243-.13-.392-.718-.262-.962s.564-.43.808-.3l3.132 1.952 1.413-2.798-3.213-1.401c-.243-.13-.336-.626-.206-.87.13-.244.572-.456.816-.327l3.074 1.85.519-.939.64.569-5.09 9.574a3.005 3.005 0 0 1-3.9 1.328l-.165-.08-7.057-3.753a3 3 0 0 1-1.24-4.068l6.1-11.47a2 2 0 0 1 1.877-3.531l.927.493.705-1.325c.242-.456.692-.72 1.356-.897.395-.104.844-.177 1.746-.31 1.54-.25 2.33-.598 2.733-1.353zm2.425-.182c-.705-.33-1.395.085-1.654.573l-.771 1.372c-.596 1.12-1.416 1.826-3.243 2.122-.918.137-1.673.011-2.173.373S29 65.29 29 65.29l8.762 4.642s.883-1.41.62-2.154c-.26-.744-.287-.696-.696-1.538-.792-1.69-.8-2.684-.203-3.807l.681-1.287c.26-.487.302-1.414-.402-1.746zM50.112 23.235c.471.067.936.137 1.393.212l-.092.261-.109.304c-1.698 4.67-4.166 8.059-5.51 7.57-1.29-.47-1.079-4.332.438-8.764a58.61 58.61 0 0 1 3.88.417zm-4.775-.476c-1.335 3.245-2.908 5.503-3.706 5.213-.71-.258-.593-2.454.188-5.287a47.654 47.654 0 0 1 3.458.07zm6.904.813c1.154.203 2.264.435 3.331.692-1.329 3.21-2.886 5.437-3.678 5.149-.744-.27-.581-2.668.303-5.698zM59.366 63.258s.1.042.346.105c.206.052.446.11.794.163a5.11 5.11 0 0 0 1.11.05c.197-.015.4-.044.606-.082.298-.055.596-.133.897-.21.482-.125.946-.26 1.386-.39 1.184-.35 2.07-.643 2.07-.643a.161.161 0 1 0-.043-.319s-.934-.038-2.168-.05a41.203 41.203 0 0 0-1.44.004c-.311.008-.62.014-.921.043a4.705 4.705 0 0 0-1.136.233c-.195.065-.36.132-.522.206a7.628 7.628 0 0 0-.72.375c-.218.127-.303.196-.303.196a.162.162 0 0 0-.138.181c.013.088.094.15.182.138zM58.904 66.228s.079.067.29.194c.178.107.38.226.69.372a4.714 4.714 0 0 0 1.012.346c.187.04.382.067.582.085.29.028.587.033.886.039.479.01.944.005 1.385-.001 1.19-.018 2.087-.06 2.087-.06a.161.161 0 0 0 .045-.32s-.851-.287-1.99-.632c-.422-.128-.867-.261-1.331-.384-.29-.076-.575-.153-.862-.207a4.379 4.379 0 0 0-1.112-.082c-.198.01-.368.03-.538.058a7.14 7.14 0 0 0-.766.167 2.536 2.536 0 0 0-.333.106.161.161 0 1 0-.045.32zM19.226 54.274s-.063-.09-.238-.272a7.707 7.707 0 0 0-.588-.558 5.126 5.126 0 0 0-.916-.628 5.522 5.522 0 0 0-.558-.252c-.282-.11-.576-.201-.873-.294-.475-.15-.94-.28-1.383-.402-1.19-.328-2.098-.549-2.098-.549-.081-.036-.176 0-.212.082s0 .177.082.213c0 0 .772.525 1.814 1.188.387.246.796.504 1.225.757.268.157.532.315.804.45a4.743 4.743 0 0 0 1.087.403c.2.048.376.078.553.1.35.045.596.056.809.062.253.008.36-.006.36-.006.082.037.178 0 .214-.081a.162.162 0 0 0-.082-.213zM18.765 57.232s-.06-.06-.246-.187a5.414 5.414 0 0 0-.586-.357 3.497 3.497 0 0 0-.863-.326 3.794 3.794 0 0 0-.5-.073c-.25-.022-.502-.02-.76-.021-.413 0-.81.013-1.191.029-1.03.04-1.795.1-1.795.1a.161.161 0 1 0-.045.32s.72.268 1.698.591c.362.12.739.243 1.138.356.247.07.49.142.736.19a3.215 3.215 0 0 0 .955.06c.174-.014.317-.037.464-.068.3-.063.487-.124.662-.182.214-.07.289-.112.289-.112a.162.162 0 0 0 .182-.138.162.162 0 0 0-.138-.182zM45.387 52.124s.52-.555 1.4-1.237c.419-.324.915-.654 1.49-.967.38-.207.794-.394 1.244-.558.592-.215 1.242-.401 1.983-.424a5.017 5.017 0 0 1 3.25.93c1.607 1.128 2.37 2.775 2.37 2.775a.16.16 0 1 0 .303-.11s-.533-1.916-2.088-3.381c-.913-.86-2.17-1.52-3.825-1.639-.936-.042-1.79.077-2.537.347a5.955 5.955 0 0 0-1.503.81 6.701 6.701 0 0 0-2.074 2.542c-.218.468-.297.76-.297.76a.161.161 0 1 0 .284.152zM31.528 50.033s-.037-.249-.161-.678a7.502 7.502 0 0 0-.361-.974 7.392 7.392 0 0 0-.6-1.065 4.931 4.931 0 0 0-.322-.422 6.158 6.158 0 0 0-1.038-.993 5.662 5.662 0 0 0-2.01-.936 5.029 5.029 0 0 0-2.69.13c-1.863.623-3.102 2.118-3.102 2.118a.161.161 0 0 0 .229.227s1.08-.877 2.567-1.262c.784-.202 1.68-.243 2.594.118.359.132.679.329.99.533.327.216.623.466.912.713.283.242.557.477.808.717.19.181.37.347.54.513.395.384.713.703.948.96.258.282.402.434.402.434.037.08.133.117.214.08s.116-.133.08-.213z"/><path d="M25.12 68.3c-.553-.264-1.816.133-2.248.296-.396.15-.76.344-1.073.577-.866.646-1.383 1.558-1.233 2.78.18 1.253.906 1.805 1.969 2.188l.728-1c-.923-.267-1.433-.444-1.464-1.45 0-1.895 2.39-1.934 2.768-2.052.4-.125 1.106-1.075.553-1.34zM37.98 62.136c.759.06.95.145 1.486-.314.564-.484.913-1.192.972-1.99.058-.838-.257-1.606-.772-2.19-.535-.608-1.318-.972-2.19-1.023-.898-.037-2.023.448-2.656 1.558s-.133 2.534.328 2.872c-.324-2.07 1.1-4.43 3.162-3.407s1.356 3.861-.33 4.494zM43.076 72.334s-.255-.163-.707-.384a12.584 12.584 0 0 0-1.746-.691 9 9 0 0 0-1.333-.305 6.68 6.68 0 0 0-1.42-.063 4.386 4.386 0 0 0-1.194.239c-1.017.365-1.778 1.085-1.992 2.297-.195 1.251.285 2.2 1.189 2.877.647.483 1.495.832 2.369 1.06 1.805.47 3.664.475 3.664.475a.16.16 0 0 0 .023-.321s-2.894-.42-4.723-1.613c-.805-.525-1.393-1.211-1.128-2.182.13-.515.466-.807.878-.995.316-.144.68-.221 1.066-.27a9.828 9.828 0 0 1 1.164-.074c.419-.002.832.005 1.23.026.696.036 1.313.088 1.778.14l.772.087a.162.162 0 0 0 .207-.097.162.162 0 0 0-.097-.206z"/></g><path fill="#5f6362" d="M83.296 63.336c.497.387 3.281 1.292 4.739 3.71 1.457 2.416 1.449 6.796 1.553 8.03a.161.161 0 1 0 .322 0c.154-1.882-.082-6.406-1.669-8.775s-4.185-3.095-4.803-3.254a.161.161 0 1 0-.142.29z"/><path fill="#5f6362" d="M82.16 60.388c.67.122 3.738.132 6.35 2.642 2.612 2.51 2.85 7.162 2.948 8.488a.161.161 0 1 0 .322 0c.146-2.022-.633-6.887-3.265-9.328-2.633-2.44-5.652-2.254-6.354-2.124a.161.161 0 0 0 0 .322z"/></g></svg>